<svg width="272" height="214" viewBox="0 0 272 214" fill="none" xmlns="http://www.w3.org/2000/svg">
<g clip-path="url(#clip0_2_2061)">
<path d="M5.60547 19H2.53906L2.55859 16.8906H5.60547C6.43229 16.8906 7.12565 16.7083 7.68555 16.3438C8.24544 15.9727 8.66862 15.4421 8.95508 14.752C9.24154 14.0553 9.38477 13.222 9.38477 12.252V11.5195C9.38477 10.7708 9.30339 10.11 9.14062 9.53711C8.97786 8.96419 8.73698 8.48242 8.41797 8.0918C8.10547 7.70117 7.7181 7.40495 7.25586 7.20312C6.79362 7.0013 6.26302 6.90039 5.66406 6.90039H2.48047V4.78125H5.66406C6.61458 4.78125 7.48047 4.94076 8.26172 5.25977C9.04948 5.57878 9.72982 6.03776 10.3027 6.63672C10.8822 7.22917 11.3249 7.9388 11.6309 8.76562C11.9434 9.59245 12.0996 10.5169 12.0996 11.5391V12.252C12.0996 13.2676 11.9434 14.1921 11.6309 15.0254C11.3249 15.8522 10.8822 16.5618 10.3027 17.1543C9.72982 17.7467 9.04622 18.2025 8.25195 18.5215C7.45768 18.8405 6.57552 19 5.60547 19ZM4.04297 4.78125V19H1.35742V4.78125H4.04297ZM20.0098 16.7539V11.8809C20.0098 11.5228 19.9479 11.2135 19.8242 10.9531C19.7005 10.6927 19.5117 10.4909 19.2578 10.3477C19.0039 10.2044 18.6816 10.1328 18.291 10.1328C17.946 10.1328 17.6432 10.1914 17.3828 10.3086C17.1289 10.4258 16.9336 10.5918 16.7969 10.8066C16.6602 11.015 16.5918 11.2559 16.5918 11.5293H14.0039C14.0039 11.0931 14.1081 10.6797 14.3164 10.2891C14.5247 9.89193 14.821 9.54036 15.2051 9.23438C15.5957 8.92188 16.0612 8.67773 16.6016 8.50195C17.1484 8.32617 17.7604 8.23828 18.4375 8.23828C19.2383 8.23828 19.9512 8.375 20.5762 8.64844C21.2077 8.91536 21.7025 9.31901 22.0605 9.85938C22.4251 10.3997 22.6074 11.0801 22.6074 11.9004V16.5098C22.6074 17.0371 22.64 17.4896 22.7051 17.8672C22.7767 18.2383 22.8809 18.5605 23.0176 18.834V19H20.3906C20.2669 18.7331 20.1725 18.3945 20.1074 17.9844C20.0423 17.5677 20.0098 17.1576 20.0098 16.7539ZM20.3711 12.5645L20.3906 14.0977H18.7598C18.3561 14.0977 18.0013 14.14 17.6953 14.2246C17.3893 14.3027 17.1387 14.4199 16.9434 14.5762C16.748 14.7259 16.6016 14.9082 16.5039 15.123C16.4062 15.3314 16.3574 15.569 16.3574 15.8359C16.3574 16.0964 16.416 16.3307 16.5332 16.5391C16.6569 16.7474 16.8327 16.9134 17.0605 17.0371C17.2949 17.1543 17.5684 17.2129 17.8809 17.2129C18.3366 17.2129 18.7337 17.1217 19.0723 16.9395C19.4108 16.7507 19.6745 16.5228 19.8633 16.2559C20.0521 15.9889 20.153 15.735 20.166 15.4941L20.9082 16.6074C20.8171 16.8743 20.6803 17.1576 20.498 17.457C20.3158 17.7565 20.0814 18.0365 19.7949 18.2969C19.5085 18.5573 19.1634 18.7721 18.7598 18.9414C18.3561 19.1107 17.8874 19.1953 17.3535 19.1953C16.6699 19.1953 16.0579 19.0586 15.5176 18.7852C14.9772 18.5117 14.5508 18.1374 14.2383 17.6621C13.9258 17.1868 13.7695 16.6465 13.7695 16.041C13.7695 15.4811 13.8737 14.9863 14.082 14.5566C14.2904 14.127 14.5996 13.7656 15.0098 13.4727C15.4199 13.1732 15.9277 12.9486 16.5332 12.7988C17.1452 12.6426 17.8451 12.5645 18.6328 12.5645H20.3711ZM27.8711 17.8281L30.7031 8.43359H33.4668L29.2285 20.6016C29.1309 20.862 29.0039 21.1452 28.8477 21.4512C28.6979 21.7572 28.4961 22.0469 28.2422 22.3203C27.9883 22.6003 27.6693 22.8281 27.2852 23.0039C26.9076 23.1797 26.4486 23.2676 25.9082 23.2676C25.6738 23.2676 25.4655 23.2513 25.2832 23.2188C25.1009 23.1862 24.9089 23.1439 24.707 23.0918V21.1582C24.7721 21.1647 24.847 21.168 24.9316 21.168C25.0228 21.1745 25.1009 21.1777 25.166 21.1777C25.5436 21.1777 25.8561 21.1322 26.1035 21.041C26.3509 20.9564 26.5495 20.8164 26.6992 20.6211C26.8555 20.4323 26.9857 20.1849 27.0898 19.8789L27.8711 17.8281ZM26.4746 8.43359L28.8672 16.2168L29.2871 18.9414L27.5098 19.2637L23.6914 8.43359H26.4746ZM45.5078 4.78125V19H42.832V4.78125H45.5078ZM49.9219 4.78125V6.90039H38.4668V4.78125H49.9219ZM53.4082 10.5918V19H50.8301V8.43359H53.2715L53.4082 10.5918ZM56.6211 8.36523L56.582 10.7676C56.4388 10.7415 56.276 10.722 56.0938 10.709C55.918 10.696 55.752 10.6895 55.5957 10.6895C55.1986 10.6895 54.8503 10.7448 54.5508 10.8555C54.2513 10.9596 54.0007 11.1126 53.7988 11.3145C53.6035 11.5163 53.4538 11.7637 53.3496 12.0566C53.2454 12.3431 53.1868 12.6686 53.1738 13.0332L52.6172 12.9648C52.6172 12.2943 52.6855 11.6725 52.8223 11.0996C52.959 10.5267 53.1576 10.0254 53.418 9.5957C53.6784 9.16602 54.0039 8.83398 54.3945 8.59961C54.7917 8.35872 55.2474 8.23828 55.7617 8.23828C55.9049 8.23828 56.0579 8.2513 56.2207 8.27734C56.39 8.29688 56.5234 8.32617 56.6211 8.36523ZM63.5254 16.7539V11.8809C63.5254 11.5228 63.4635 11.2135 63.3398 10.9531C63.2161 10.6927 63.0273 10.4909 62.7734 10.3477C62.5195 10.2044 62.1973 10.1328 61.8066 10.1328C61.4616 10.1328 61.1589 10.1914 60.8984 10.3086C60.6445 10.4258 60.4492 10.5918 60.3125 10.8066C60.1758 11.015 60.1074 11.2559 60.1074 11.5293H57.5195C57.5195 11.0931 57.6237 10.6797 57.832 10.2891C58.0404 9.89193 58.3366 9.54036 58.7207 9.23438C59.1113 8.92188 59.5768 8.67773 60.1172 8.50195C60.6641 8.32617 61.276 8.23828 61.9531 8.23828C62.7539 8.23828 63.4668 8.375 64.0918 8.64844C64.7233 8.91536 65.2181 9.31901 65.5762 9.85938C65.9408 10.3997 66.123 11.0801 66.123 11.9004V16.5098C66.123 17.0371 66.1556 17.4896 66.2207 17.8672C66.2923 18.2383 66.3965 18.5605 66.5332 18.834V19H63.9062C63.7826 18.7331 63.6882 18.3945 63.623 17.9844C63.5579 17.5677 63.5254 17.1576 63.5254 16.7539ZM63.8867 12.5645L63.9062 14.0977H62.2754C61.8717 14.0977 61.5169 14.14 61.2109 14.2246C60.9049 14.3027 60.6543 14.4199 60.459 14.5762C60.2637 14.7259 60.1172 14.9082 60.0195 15.123C59.9219 15.3314 59.873 15.569 59.873 15.8359C59.873 16.0964 59.9316 16.3307 60.0488 16.5391C60.1725 16.7474 60.3483 16.9134 60.5762 17.0371C60.8105 17.1543 61.084 17.2129 61.3965 17.2129C61.8522 17.2129 62.2493 17.1217 62.5879 16.9395C62.9264 16.7507 63.1901 16.5228 63.3789 16.2559C63.5677 15.9889 63.6686 15.735 63.6816 15.4941L64.4238 16.6074C64.3327 16.8743 64.196 17.1576 64.0137 17.457C63.8314 17.7565 63.597 18.0365 63.3105 18.2969C63.0241 18.5573 62.679 18.7721 62.2754 18.9414C61.8717 19.1107 61.403 19.1953 60.8691 19.1953C60.1855 19.1953 59.5736 19.0586 59.0332 18.7852C58.4928 18.5117 58.0664 18.1374 57.7539 17.6621C57.4414 17.1868 57.2852 16.6465 57.2852 16.041C57.2852 15.4811 57.3893 14.9863 57.5977 14.5566C57.806 14.127 58.1152 13.7656 58.5254 13.4727C58.9355 13.1732 59.4434 12.9486 60.0488 12.7988C60.6608 12.6426 61.3607 12.5645 62.1484 12.5645H63.8867ZM74.7852 16.7539V4H77.3828V19H75.0391L74.7852 16.7539ZM67.998 13.8438V13.6387C67.998 12.8314 68.0892 12.099 68.2715 11.4414C68.4603 10.7773 68.7337 10.2077 69.0918 9.73242C69.4499 9.25716 69.8828 8.88932 70.3906 8.62891C70.9049 8.36849 71.4876 8.23828 72.1387 8.23828C72.7702 8.23828 73.3203 8.36523 73.7891 8.61914C74.2643 8.87305 74.668 9.23438 75 9.70312C75.3385 10.1719 75.6087 10.7285 75.8105 11.373C76.0124 12.0111 76.1589 12.7142 76.25 13.4824V14.0391C76.1589 14.7878 76.0124 15.4746 75.8105 16.0996C75.6087 16.7246 75.3385 17.2715 75 17.7402C74.668 18.2025 74.2643 18.5605 73.7891 18.8145C73.3138 19.0684 72.7572 19.1953 72.1191 19.1953C71.4746 19.1953 70.8952 19.0618 70.3809 18.7949C69.873 18.528 69.4401 18.1536 69.082 17.6719C68.7305 17.1901 68.4603 16.6237 68.2715 15.9727C68.0892 15.3216 67.998 14.612 67.998 13.8438ZM70.5859 13.6387V13.8438C70.5859 14.2995 70.625 14.7259 70.7031 15.123C70.7812 15.5202 70.9082 15.8717 71.084 16.1777C71.2598 16.4772 71.4844 16.7116 71.7578 16.8809C72.0378 17.0501 72.3763 17.1348 72.7734 17.1348C73.2812 17.1348 73.6979 17.0241 74.0234 16.8027C74.3555 16.5749 74.6126 16.2656 74.7949 15.875C74.9772 15.4779 75.0944 15.0319 75.1465 14.5371V13.0039C75.1204 12.6133 75.0521 12.252 74.9414 11.9199C74.8372 11.5879 74.6875 11.3014 74.4922 11.0605C74.3034 10.8197 74.069 10.6309 73.7891 10.4941C73.5091 10.3574 73.1771 10.2891 72.793 10.2891C72.3958 10.2891 72.0573 10.377 71.7773 10.5527C71.4974 10.722 71.2695 10.9596 71.0938 11.2656C70.918 11.5716 70.7878 11.9264 70.7031 12.3301C70.625 12.7337 70.5859 13.1699 70.5859 13.6387ZM82.4512 8.43359V19H79.8633V8.43359H82.4512ZM79.6875 5.66992C79.6875 5.28581 79.8177 4.9668 80.0781 4.71289C80.3451 4.45898 80.7031 4.33203 81.1523 4.33203C81.6016 4.33203 81.9564 4.45898 82.2168 4.71289C82.4837 4.9668 82.6172 5.28581 82.6172 5.66992C82.6172 6.04753 82.4837 6.36328 82.2168 6.61719C81.9564 6.87109 81.6016 6.99805 81.1523 6.99805C80.7031 6.99805 80.3451 6.87109 80.0781 6.61719C79.8177 6.36328 79.6875 6.04753 79.6875 5.66992ZM87.4414 10.6895V19H84.8633V8.43359H87.2852L87.4414 10.6895ZM87.0312 13.3359H86.2695C86.276 12.5677 86.3802 11.8711 86.582 11.2461C86.7839 10.6211 87.0671 10.084 87.4316 9.63477C87.8027 9.18555 88.2422 8.84049 88.75 8.59961C89.2578 8.35872 89.8242 8.23828 90.4492 8.23828C90.957 8.23828 91.416 8.3099 91.8262 8.45312C92.2363 8.59635 92.5879 8.82422 92.8809 9.13672C93.1803 9.44922 93.4082 9.85938 93.5645 10.3672C93.7272 10.8685 93.8086 11.487 93.8086 12.2227V19H91.2109V12.2031C91.2109 11.7214 91.1393 11.3405 90.9961 11.0605C90.8594 10.7806 90.6576 10.582 90.3906 10.4648C90.1302 10.3477 89.8079 10.2891 89.4238 10.2891C89.0267 10.2891 88.6784 10.3704 88.3789 10.5332C88.0859 10.6895 87.8385 10.9076 87.6367 11.1875C87.4414 11.4674 87.2917 11.7897 87.1875 12.1543C87.0833 12.5189 87.0312 12.9128 87.0312 13.3359ZM102.803 8.43359H105.146V18.6777C105.146 19.6348 104.938 20.4453 104.521 21.1094C104.111 21.7799 103.535 22.2878 102.793 22.6328C102.051 22.9844 101.188 23.1602 100.205 23.1602C99.7819 23.1602 99.3229 23.1016 98.8281 22.9844C98.3398 22.8672 97.8678 22.6816 97.4121 22.4277C96.9629 22.1803 96.5885 21.8581 96.2891 21.4609L97.4512 19.9375C97.8027 20.3477 98.1999 20.6569 98.6426 20.8652C99.0853 21.0801 99.5638 21.1875 100.078 21.1875C100.599 21.1875 101.042 21.0898 101.406 20.8945C101.777 20.7057 102.061 20.4258 102.256 20.0547C102.458 19.6901 102.559 19.2409 102.559 18.707V10.8457L102.803 8.43359ZM95.6641 13.8438V13.6387C95.6641 12.8314 95.7617 12.099 95.957 11.4414C96.1523 10.7773 96.4323 10.2077 96.7969 9.73242C97.168 9.25716 97.6139 8.88932 98.1348 8.62891C98.6621 8.36849 99.2546 8.23828 99.9121 8.23828C100.609 8.23828 101.195 8.36523 101.67 8.61914C102.152 8.87305 102.549 9.23438 102.861 9.70312C103.18 10.1719 103.428 10.7285 103.604 11.373C103.786 12.0111 103.926 12.7142 104.023 13.4824V14.0391C103.932 14.7878 103.786 15.4746 103.584 16.0996C103.389 16.7246 103.128 17.2715 102.803 17.7402C102.477 18.2025 102.074 18.5605 101.592 18.8145C101.11 19.0684 100.544 19.1953 99.8926 19.1953C99.2415 19.1953 98.6556 19.0618 98.1348 18.7949C97.6139 18.528 97.168 18.1536 96.7969 17.6719C96.4323 17.1901 96.1523 16.6237 95.957 15.9727C95.7617 15.3216 95.6641 14.612 95.6641 13.8438ZM98.2422 13.6387V13.8438C98.2422 14.2995 98.2878 14.7259 98.3789 15.123C98.4701 15.5202 98.61 15.8717 98.7988 16.1777C98.9876 16.4772 99.2253 16.7116 99.5117 16.8809C99.7982 17.0501 100.14 17.1348 100.537 17.1348C101.071 17.1348 101.507 17.0241 101.846 16.8027C102.191 16.5749 102.451 16.2656 102.627 15.875C102.809 15.4779 102.926 15.0319 102.979 14.5371V13.0039C102.946 12.6133 102.874 12.252 102.764 11.9199C102.66 11.5879 102.513 11.3014 102.324 11.0605C102.135 10.8197 101.895 10.6309 101.602 10.4941C101.309 10.3574 100.96 10.2891 100.557 10.2891C100.166 10.2891 99.8242 10.377 99.5312 10.5527C99.2383 10.722 98.9974 10.9596 98.8086 11.2656C98.6198 11.5716 98.4766 11.9264 98.3789 12.3301C98.2878 12.7337 98.2422 13.1699 98.2422 13.6387ZM115.508 4.78125V19H112.822V4.78125H115.508ZM124.551 16.7539V4H127.148V19H124.805L124.551 16.7539ZM117.764 13.8438V13.6387C117.764 12.8314 117.855 12.099 118.037 11.4414C118.226 10.7773 118.499 10.2077 118.857 9.73242C119.215 9.25716 119.648 8.88932 120.156 8.62891C120.671 8.36849 121.253 8.23828 121.904 8.23828C122.536 8.23828 123.086 8.36523 123.555 8.61914C124.03 8.87305 124.434 9.23438 124.766 9.70312C125.104 10.1719 125.374 10.7285 125.576 11.373C125.778 12.0111 125.924 12.7142 126.016 13.4824V14.0391C125.924 14.7878 125.778 15.4746 125.576 16.0996C125.374 16.7246 125.104 17.2715 124.766 17.7402C124.434 18.2025 124.03 18.5605 123.555 18.8145C123.079 19.0684 122.523 19.1953 121.885 19.1953C121.24 19.1953 120.661 19.0618 120.146 18.7949C119.639 18.528 119.206 18.1536 118.848 17.6719C118.496 17.1901 118.226 16.6237 118.037 15.9727C117.855 15.3216 117.764 14.612 117.764 13.8438ZM120.352 13.6387V13.8438C120.352 14.2995 120.391 14.7259 120.469 15.123C120.547 15.5202 120.674 15.8717 120.85 16.1777C121.025 16.4772 121.25 16.7116 121.523 16.8809C121.803 17.0501 122.142 17.1348 122.539 17.1348C123.047 17.1348 123.464 17.0241 123.789 16.8027C124.121 16.5749 124.378 16.2656 124.561 15.875C124.743 15.4779 124.86 15.0319 124.912 14.5371V13.0039C124.886 12.6133 124.818 12.252 124.707 11.9199C124.603 11.5879 124.453 11.3014 124.258 11.0605C124.069 10.8197 123.835 10.6309 123.555 10.4941C123.275 10.3574 122.943 10.2891 122.559 10.2891C122.161 10.2891 121.823 10.377 121.543 10.5527C121.263 10.722 121.035 10.9596 120.859 11.2656C120.684 11.5716 120.553 11.9264 120.469 12.3301C120.391 12.7337 120.352 13.1699 120.352 13.6387ZM134.229 19.1953C133.428 19.1953 132.708 19.0651 132.07 18.8047C131.432 18.5443 130.889 18.1829 130.439 17.7207C129.997 17.252 129.655 16.7083 129.414 16.0898C129.18 15.4648 129.062 14.7943 129.062 14.0781V13.6875C129.062 12.8737 129.18 12.1348 129.414 11.4707C129.648 10.8001 129.98 10.224 130.41 9.74219C130.84 9.26042 131.354 8.88932 131.953 8.62891C132.552 8.36849 133.213 8.23828 133.936 8.23828C134.684 8.23828 135.345 8.36523 135.918 8.61914C136.491 8.86654 136.969 9.2181 137.354 9.67383C137.738 10.1296 138.027 10.6764 138.223 11.3145C138.418 11.946 138.516 12.6458 138.516 13.4141V14.498H130.234V12.7207H135.977V12.5254C135.964 12.1152 135.885 11.7409 135.742 11.4023C135.599 11.0573 135.378 10.7839 135.078 10.582C134.779 10.3737 134.391 10.2695 133.916 10.2695C133.532 10.2695 133.197 10.3542 132.91 10.5234C132.63 10.6862 132.396 10.9206 132.207 11.2266C132.025 11.526 131.888 11.8841 131.797 12.3008C131.706 12.7174 131.66 13.1797 131.66 13.6875V14.0781C131.66 14.5208 131.719 14.931 131.836 15.3086C131.96 15.6862 132.139 16.015 132.373 16.2949C132.614 16.5684 132.9 16.7832 133.232 16.9395C133.571 17.0892 133.955 17.1641 134.385 17.1641C134.925 17.1641 135.413 17.0599 135.85 16.8516C136.292 16.6367 136.676 16.321 137.002 15.9043L138.301 17.252C138.079 17.5775 137.78 17.89 137.402 18.1895C137.031 18.4889 136.582 18.7331 136.055 18.9219C135.527 19.1042 134.919 19.1953 134.229 19.1953ZM146.064 16.7539V11.8809C146.064 11.5228 146.003 11.2135 145.879 10.9531C145.755 10.6927 145.566 10.4909 145.312 10.3477C145.059 10.2044 144.736 10.1328 144.346 10.1328C144.001 10.1328 143.698 10.1914 143.438 10.3086C143.184 10.4258 142.988 10.5918 142.852 10.8066C142.715 11.015 142.646 11.2559 142.646 11.5293H140.059C140.059 11.0931 140.163 10.6797 140.371 10.2891C140.579 9.89193 140.876 9.54036 141.26 9.23438C141.65 8.92188 142.116 8.67773 142.656 8.50195C143.203 8.32617 143.815 8.23828 144.492 8.23828C145.293 8.23828 146.006 8.375 146.631 8.64844C147.262 8.91536 147.757 9.31901 148.115 9.85938C148.48 10.3997 148.662 11.0801 148.662 11.9004V16.5098C148.662 17.0371 148.695 17.4896 148.76 17.8672C148.831 18.2383 148.936 18.5605 149.072 18.834V19H146.445C146.322 18.7331 146.227 18.3945 146.162 17.9844C146.097 17.5677 146.064 17.1576 146.064 16.7539ZM146.426 12.5645L146.445 14.0977H144.814C144.411 14.0977 144.056 14.14 143.75 14.2246C143.444 14.3027 143.193 14.4199 142.998 14.5762C142.803 14.7259 142.656 14.9082 142.559 15.123C142.461 15.3314 142.412 15.569 142.412 15.8359C142.412 16.0964 142.471 16.3307 142.588 16.5391C142.712 16.7474 142.887 16.9134 143.115 17.0371C143.35 17.1543 143.623 17.2129 143.936 17.2129C144.391 17.2129 144.788 17.1217 145.127 16.9395C145.465 16.7507 145.729 16.5228 145.918 16.2559C146.107 15.9889 146.208 15.735 146.221 15.4941L146.963 16.6074C146.872 16.8743 146.735 17.1576 146.553 17.457C146.37 17.7565 146.136 18.0365 145.85 18.2969C145.563 18.5573 145.218 18.7721 144.814 18.9414C144.411 19.1107 143.942 19.1953 143.408 19.1953C142.725 19.1953 142.113 19.0586 141.572 18.7852C141.032 18.5117 140.605 18.1374 140.293 17.6621C139.98 17.1868 139.824 16.6465 139.824 16.041C139.824 15.4811 139.928 14.9863 140.137 14.5566C140.345 14.127 140.654 13.7656 141.064 13.4727C141.475 13.1732 141.982 12.9486 142.588 12.7988C143.2 12.6426 143.9 12.5645 144.688 12.5645H146.426ZM161.787 16.7539V11.8809C161.787 11.5228 161.725 11.2135 161.602 10.9531C161.478 10.6927 161.289 10.4909 161.035 10.3477C160.781 10.2044 160.459 10.1328 160.068 10.1328C159.723 10.1328 159.421 10.1914 159.16 10.3086C158.906 10.4258 158.711 10.5918 158.574 10.8066C158.438 11.015 158.369 11.2559 158.369 11.5293H155.781C155.781 11.0931 155.885 10.6797 156.094 10.2891C156.302 9.89193 156.598 9.54036 156.982 9.23438C157.373 8.92188 157.839 8.67773 158.379 8.50195C158.926 8.32617 159.538 8.23828 160.215 8.23828C161.016 8.23828 161.729 8.375 162.354 8.64844C162.985 8.91536 163.48 9.31901 163.838 9.85938C164.202 10.3997 164.385 11.0801 164.385 11.9004V16.5098C164.385 17.0371 164.417 17.4896 164.482 17.8672C164.554 18.2383 164.658 18.5605 164.795 18.834V19H162.168C162.044 18.7331 161.95 18.3945 161.885 17.9844C161.82 17.5677 161.787 17.1576 161.787 16.7539ZM162.148 12.5645L162.168 14.0977H160.537C160.133 14.0977 159.779 14.14 159.473 14.2246C159.167 14.3027 158.916 14.4199 158.721 14.5762C158.525 14.7259 158.379 14.9082 158.281 15.123C158.184 15.3314 158.135 15.569 158.135 15.8359C158.135 16.0964 158.193 16.3307 158.311 16.5391C158.434 16.7474 158.61 16.9134 158.838 17.0371C159.072 17.1543 159.346 17.2129 159.658 17.2129C160.114 17.2129 160.511 17.1217 160.85 16.9395C161.188 16.7507 161.452 16.5228 161.641 16.2559C161.829 15.9889 161.93 15.735 161.943 15.4941L162.686 16.6074C162.594 16.8743 162.458 17.1576 162.275 17.457C162.093 17.7565 161.859 18.0365 161.572 18.2969C161.286 18.5573 160.941 18.7721 160.537 18.9414C160.133 19.1107 159.665 19.1953 159.131 19.1953C158.447 19.1953 157.835 19.0586 157.295 18.7852C156.755 18.5117 156.328 18.1374 156.016 17.6621C155.703 17.1868 155.547 16.6465 155.547 16.041C155.547 15.4811 155.651 14.9863 155.859 14.5566C156.068 14.127 156.377 13.7656 156.787 13.4727C157.197 13.1732 157.705 12.9486 158.311 12.7988C158.923 12.6426 159.622 12.5645 160.41 12.5645H162.148ZM169.238 10.6895V19H166.66V8.43359H169.082L169.238 10.6895ZM168.828 13.3359H168.066C168.073 12.5677 168.177 11.8711 168.379 11.2461C168.581 10.6211 168.864 10.084 169.229 9.63477C169.6 9.18555 170.039 8.84049 170.547 8.59961C171.055 8.35872 171.621 8.23828 172.246 8.23828C172.754 8.23828 173.213 8.3099 173.623 8.45312C174.033 8.59635 174.385 8.82422 174.678 9.13672C174.977 9.44922 175.205 9.85938 175.361 10.3672C175.524 10.8685 175.605 11.487 175.605 12.2227V19H173.008V12.2031C173.008 11.7214 172.936 11.3405 172.793 11.0605C172.656 10.7806 172.454 10.582 172.188 10.4648C171.927 10.3477 171.605 10.2891 171.221 10.2891C170.824 10.2891 170.475 10.3704 170.176 10.5332C169.883 10.6895 169.635 10.9076 169.434 11.1875C169.238 11.4674 169.089 11.7897 168.984 12.1543C168.88 12.5189 168.828 12.9128 168.828 13.3359ZM184.219 16.7539V4H186.816V19H184.473L184.219 16.7539ZM177.432 13.8438V13.6387C177.432 12.8314 177.523 12.099 177.705 11.4414C177.894 10.7773 178.167 10.2077 178.525 9.73242C178.883 9.25716 179.316 8.88932 179.824 8.62891C180.339 8.36849 180.921 8.23828 181.572 8.23828C182.204 8.23828 182.754 8.36523 183.223 8.61914C183.698 8.87305 184.102 9.23438 184.434 9.70312C184.772 10.1719 185.042 10.7285 185.244 11.373C185.446 12.0111 185.592 12.7142 185.684 13.4824V14.0391C185.592 14.7878 185.446 15.4746 185.244 16.0996C185.042 16.7246 184.772 17.2715 184.434 17.7402C184.102 18.2025 183.698 18.5605 183.223 18.8145C182.747 19.0684 182.191 19.1953 181.553 19.1953C180.908 19.1953 180.329 19.0618 179.814 18.7949C179.307 18.528 178.874 18.1536 178.516 17.6719C178.164 17.1901 177.894 16.6237 177.705 15.9727C177.523 15.3216 177.432 14.612 177.432 13.8438ZM180.02 13.6387V13.8438C180.02 14.2995 180.059 14.7259 180.137 15.123C180.215 15.5202 180.342 15.8717 180.518 16.1777C180.693 16.4772 180.918 16.7116 181.191 16.8809C181.471 17.0501 181.81 17.1348 182.207 17.1348C182.715 17.1348 183.132 17.0241 183.457 16.8027C183.789 16.5749 184.046 16.2656 184.229 15.875C184.411 15.4779 184.528 15.0319 184.58 14.5371V13.0039C184.554 12.6133 184.486 12.252 184.375 11.9199C184.271 11.5879 184.121 11.3014 183.926 11.0605C183.737 10.8197 183.503 10.6309 183.223 10.4941C182.943 10.3574 182.611 10.2891 182.227 10.2891C181.829 10.2891 181.491 10.377 181.211 10.5527C180.931 10.722 180.703 10.9596 180.527 11.2656C180.352 11.5716 180.221 11.9264 180.137 12.3301C180.059 12.7337 180.02 13.1699 180.02 13.6387ZM8.79883 39.3086C8.79883 39.0352 8.75651 38.791 8.67188 38.5762C8.59375 38.3548 8.44727 38.1562 8.23242 37.9805C8.02409 37.7982 7.72786 37.6224 7.34375 37.4531C6.96615 37.2773 6.47786 37.0951 5.87891 36.9062C5.21484 36.6979 4.59635 36.4635 4.02344 36.2031C3.45052 35.9427 2.94596 35.64 2.50977 35.2949C2.08008 34.9499 1.74479 34.5527 1.50391 34.1035C1.26302 33.6478 1.14258 33.1204 1.14258 32.5215C1.14258 31.9355 1.26628 31.4017 1.51367 30.9199C1.76758 30.4382 2.12565 30.0247 2.58789 29.6797C3.05013 29.3281 3.59375 29.0579 4.21875 28.8691C4.85026 28.6803 5.54688 28.5859 6.30859 28.5859C7.36328 28.5859 8.27474 28.778 9.04297 29.1621C9.81771 29.5462 10.4167 30.0671 10.8398 30.7246C11.263 31.3822 11.4746 32.1211 11.4746 32.9414H8.79883C8.79883 32.4987 8.70443 32.1081 8.51562 31.7695C8.33333 31.431 8.05339 31.1641 7.67578 30.9688C7.30469 30.7734 6.83594 30.6758 6.26953 30.6758C5.72266 30.6758 5.26693 30.7572 4.90234 30.9199C4.54427 31.0827 4.27409 31.304 4.0918 31.584C3.91602 31.8639 3.82812 32.1764 3.82812 32.5215C3.82812 32.7819 3.88997 33.0163 4.01367 33.2246C4.13737 33.4264 4.32292 33.6185 4.57031 33.8008C4.81771 33.9766 5.1237 34.1426 5.48828 34.2988C5.85938 34.4486 6.28906 34.5983 6.77734 34.748C7.55859 34.9824 8.24219 35.2428 8.82812 35.5293C9.42057 35.8158 9.91211 36.1413 10.3027 36.5059C10.6999 36.8704 10.9961 37.2806 11.1914 37.7363C11.3932 38.1921 11.4941 38.7096 11.4941 39.2891C11.4941 39.901 11.3737 40.4479 11.1328 40.9297C10.8919 41.4115 10.5469 41.8216 10.0977 42.1602C9.64844 42.4987 9.10807 42.7559 8.47656 42.9316C7.85156 43.1074 7.15169 43.1953 6.37695 43.1953C5.68685 43.1953 5.00326 43.1042 4.32617 42.9219C3.6556 42.7331 3.04688 42.4531 2.5 42.082C1.95312 41.7044 1.51693 41.2292 1.19141 40.6562C0.865885 40.0768 0.703125 39.3997 0.703125 38.625H3.39844C3.39844 39.0742 3.47005 39.4583 3.61328 39.7773C3.76302 40.0898 3.97135 40.347 4.23828 40.5488C4.51172 40.7441 4.83073 40.8874 5.19531 40.9785C5.5599 41.0697 5.95378 41.1152 6.37695 41.1152C6.92383 41.1152 7.37305 41.0404 7.72461 40.8906C8.08268 40.7344 8.34961 40.5195 8.52539 40.2461C8.70768 39.9727 8.79883 39.6602 8.79883 39.3086ZM18.3691 32.4336V34.2891H12.3145V32.4336H18.3691ZM13.9355 29.8359H16.5234V39.9531C16.5234 40.2656 16.5658 40.5065 16.6504 40.6758C16.735 40.8451 16.862 40.959 17.0312 41.0176C17.2005 41.0762 17.4023 41.1055 17.6367 41.1055C17.806 41.1055 17.9622 41.0957 18.1055 41.0762C18.2487 41.0566 18.3691 41.0371 18.4668 41.0176L18.4766 42.9512C18.2617 43.0228 18.0176 43.0814 17.7441 43.127C17.4772 43.1725 17.1745 43.1953 16.8359 43.1953C16.2565 43.1953 15.7487 43.0977 15.3125 42.9023C14.8763 42.7005 14.5378 42.3783 14.2969 41.9355C14.056 41.4863 13.9355 40.8939 13.9355 40.1582V29.8359ZM22.666 34.5918V43H20.0879V32.4336H22.5293L22.666 34.5918ZM25.8789 32.3652L25.8398 34.7676C25.6966 34.7415 25.5339 34.722 25.3516 34.709C25.1758 34.696 25.0098 34.6895 24.8535 34.6895C24.4564 34.6895 24.1081 34.7448 23.8086 34.8555C23.5091 34.9596 23.2585 35.1126 23.0566 35.3145C22.8613 35.5163 22.7116 35.7637 22.6074 36.0566C22.5033 36.3431 22.4447 36.6686 22.4316 37.0332L21.875 36.9648C21.875 36.2943 21.9434 35.6725 22.0801 35.0996C22.2168 34.5267 22.4154 34.0254 22.6758 33.5957C22.9362 33.166 23.2617 32.834 23.6523 32.5996C24.0495 32.3587 24.5052 32.2383 25.0195 32.2383C25.1628 32.2383 25.3158 32.2513 25.4785 32.2773C25.6478 32.2969 25.7812 32.3262 25.8789 32.3652ZM32.7832 40.7539V35.8809C32.7832 35.5228 32.7214 35.2135 32.5977 34.9531C32.474 34.6927 32.2852 34.4909 32.0312 34.3477C31.7773 34.2044 31.4551 34.1328 31.0645 34.1328C30.7194 34.1328 30.4167 34.1914 30.1562 34.3086C29.9023 34.4258 29.707 34.5918 29.5703 34.8066C29.4336 35.015 29.3652 35.2559 29.3652 35.5293H26.7773C26.7773 35.0931 26.8815 34.6797 27.0898 34.2891C27.2982 33.8919 27.5944 33.5404 27.9785 33.2344C28.3691 32.9219 28.8346 32.6777 29.375 32.502C29.9219 32.3262 30.5339 32.2383 31.2109 32.2383C32.0117 32.2383 32.7246 32.375 33.3496 32.6484C33.9811 32.9154 34.4759 33.319 34.834 33.8594C35.1986 34.3997 35.3809 35.0801 35.3809 35.9004V40.5098C35.3809 41.0371 35.4134 41.4896 35.4785 41.8672C35.5501 42.2383 35.6543 42.5605 35.791 42.834V43H33.1641C33.0404 42.7331 32.946 42.3945 32.8809 41.9844C32.8158 41.5677 32.7832 41.1576 32.7832 40.7539ZM33.1445 36.5645L33.1641 38.0977H31.5332C31.1296 38.0977 30.7747 38.14 30.4688 38.2246C30.1628 38.3027 29.9121 38.4199 29.7168 38.5762C29.5215 38.7259 29.375 38.9082 29.2773 39.123C29.1797 39.3314 29.1309 39.569 29.1309 39.8359C29.1309 40.0964 29.1895 40.3307 29.3066 40.5391C29.4303 40.7474 29.6061 40.9134 29.834 41.0371C30.0684 41.1543 30.3418 41.2129 30.6543 41.2129C31.11 41.2129 31.5072 41.1217 31.8457 40.9395C32.1842 40.7507 32.4479 40.5228 32.6367 40.2559C32.8255 39.9889 32.9264 39.735 32.9395 39.4941L33.6816 40.6074C33.5905 40.8743 33.4538 41.1576 33.2715 41.457C33.0892 41.7565 32.8548 42.0365 32.5684 42.2969C32.2819 42.5573 31.9368 42.7721 31.5332 42.9414C31.1296 43.1107 30.6608 43.1953 30.127 43.1953C29.4434 43.1953 28.8314 43.0586 28.291 42.7852C27.7507 42.5117 27.3242 42.1374 27.0117 41.6621C26.6992 41.1868 26.543 40.6465 26.543 40.041C26.543 39.4811 26.6471 38.9863 26.8555 38.5566C27.0638 38.127 27.373 37.7656 27.7832 37.4727C28.1934 37.1732 28.7012 36.9486 29.3066 36.7988C29.9186 36.6426 30.6185 36.5645 31.4062 36.5645H33.1445ZM42.7051 32.4336V34.2891H36.6504V32.4336H42.7051ZM38.2715 29.8359H40.8594V39.9531C40.8594 40.2656 40.9017 40.5065 40.9863 40.6758C41.071 40.8451 41.1979 40.959 41.3672 41.0176C41.5365 41.0762 41.7383 41.1055 41.9727 41.1055C42.1419 41.1055 42.2982 41.0957 42.4414 41.0762C42.5846 41.0566 42.7051 41.0371 42.8027 41.0176L42.8125 42.9512C42.5977 43.0228 42.3535 43.0814 42.0801 43.127C41.8132 43.1725 41.5104 43.1953 41.1719 43.1953C40.5924 43.1953 40.0846 43.0977 39.6484 42.9023C39.2122 42.7005 38.8737 42.3783 38.6328 41.9355C38.3919 41.4863 38.2715 40.8939 38.2715 40.1582V29.8359ZM49.1699 43.1953C48.3691 43.1953 47.6497 43.0651 47.0117 42.8047C46.3737 42.5443 45.8301 42.1829 45.3809 41.7207C44.9382 41.252 44.5964 40.7083 44.3555 40.0898C44.1211 39.4648 44.0039 38.7943 44.0039 38.0781V37.6875C44.0039 36.8737 44.1211 36.1348 44.3555 35.4707C44.5898 34.8001 44.9219 34.224 45.3516 33.7422C45.7812 33.2604 46.2956 32.8893 46.8945 32.6289C47.4935 32.3685 48.1543 32.2383 48.877 32.2383C49.6257 32.2383 50.2865 32.3652 50.8594 32.6191C51.4323 32.8665 51.9108 33.2181 52.2949 33.6738C52.679 34.1296 52.9688 34.6764 53.1641 35.3145C53.3594 35.946 53.457 36.6458 53.457 37.4141V38.498H45.1758V36.7207H50.918V36.5254C50.9049 36.1152 50.8268 35.7409 50.6836 35.4023C50.5404 35.0573 50.319 34.7839 50.0195 34.582C49.7201 34.3737 49.3327 34.2695 48.8574 34.2695C48.4733 34.2695 48.138 34.3542 47.8516 34.5234C47.5716 34.6862 47.3372 34.9206 47.1484 35.2266C46.9661 35.526 46.8294 35.8841 46.7383 36.3008C46.6471 36.7174 46.6016 37.1797 46.6016 37.6875V38.0781C46.6016 38.5208 46.6602 38.931 46.7773 39.3086C46.901 39.6862 47.0801 40.015 47.3145 40.2949C47.5553 40.5684 47.8418 40.7832 48.1738 40.9395C48.5124 41.0892 48.8965 41.1641 49.3262 41.1641C49.8665 41.1641 50.3548 41.0599 50.791 40.8516C51.2337 40.6367 51.6178 40.321 51.9434 39.9043L53.2422 41.252C53.0208 41.5775 52.7214 41.89 52.3438 42.1895C51.9727 42.4889 51.5234 42.7331 50.9961 42.9219C50.4688 43.1042 49.86 43.1953 49.1699 43.1953ZM61.9043 32.4336H64.248V42.6777C64.248 43.6348 64.0397 44.4453 63.623 45.1094C63.2129 45.7799 62.6367 46.2878 61.8945 46.6328C61.1523 46.9844 60.2897 47.1602 59.3066 47.1602C58.8835 47.1602 58.4245 47.1016 57.9297 46.9844C57.4414 46.8672 56.9694 46.6816 56.5137 46.4277C56.0645 46.1803 55.6901 45.8581 55.3906 45.4609L56.5527 43.9375C56.9043 44.3477 57.3014 44.6569 57.7441 44.8652C58.1868 45.0801 58.6654 45.1875 59.1797 45.1875C59.7005 45.1875 60.1432 45.0898 60.5078 44.8945C60.8789 44.7057 61.1621 44.4258 61.3574 44.0547C61.5592 43.6901 61.6602 43.2409 61.6602 42.707V34.8457L61.9043 32.4336ZM54.7656 37.8438V37.6387C54.7656 36.8314 54.8633 36.099 55.0586 35.4414C55.2539 34.7773 55.5339 34.2077 55.8984 33.7324C56.2695 33.2572 56.7155 32.8893 57.2363 32.6289C57.7637 32.3685 58.3561 32.2383 59.0137 32.2383C59.7103 32.2383 60.2962 32.3652 60.7715 32.6191C61.2533 32.873 61.6504 33.2344 61.9629 33.7031C62.2819 34.1719 62.5293 34.7285 62.7051 35.373C62.8874 36.0111 63.0273 36.7142 63.125 37.4824V38.0391C63.0339 38.7878 62.8874 39.4746 62.6855 40.0996C62.4902 40.7246 62.2298 41.2715 61.9043 41.7402C61.5788 42.2025 61.1751 42.5605 60.6934 42.8145C60.2116 43.0684 59.6452 43.1953 58.9941 43.1953C58.3431 43.1953 57.7572 43.0618 57.2363 42.7949C56.7155 42.528 56.2695 42.1536 55.8984 41.6719C55.5339 41.1901 55.2539 40.6237 55.0586 39.9727C54.8633 39.3216 54.7656 38.612 54.7656 37.8438ZM57.3438 37.6387V37.8438C57.3438 38.2995 57.3893 38.7259 57.4805 39.123C57.5716 39.5202 57.7116 39.8717 57.9004 40.1777C58.0892 40.4772 58.3268 40.7116 58.6133 40.8809C58.8997 41.0501 59.2415 41.1348 59.6387 41.1348C60.1725 41.1348 60.6087 41.0241 60.9473 40.8027C61.2923 40.5749 61.5527 40.2656 61.7285 39.875C61.9108 39.4779 62.028 39.0319 62.0801 38.5371V37.0039C62.0475 36.6133 61.9759 36.252 61.8652 35.9199C61.7611 35.5879 61.6146 35.3014 61.4258 35.0605C61.237 34.8197 60.9961 34.6309 60.7031 34.4941C60.4102 34.3574 60.0618 34.2891 59.6582 34.2891C59.2676 34.2891 58.9258 34.377 58.6328 34.5527C58.3398 34.722 58.099 34.9596 57.9102 35.2656C57.7214 35.5716 57.5781 35.9264 57.4805 36.3301C57.3893 36.7337 57.3438 37.1699 57.3438 37.6387ZM69.668 41.8281L72.5 32.4336H75.2637L71.0254 44.6016C70.9277 44.862 70.8008 45.1452 70.6445 45.4512C70.4948 45.7572 70.293 46.0469 70.0391 46.3203C69.7852 46.6003 69.4661 46.8281 69.082 47.0039C68.7044 47.1797 68.2454 47.2676 67.7051 47.2676C67.4707 47.2676 67.2624 47.2513 67.0801 47.2188C66.8978 47.1862 66.7057 47.1439 66.5039 47.0918V45.1582C66.569 45.1647 66.6439 45.168 66.7285 45.168C66.8197 45.1745 66.8978 45.1777 66.9629 45.1777C67.3405 45.1777 67.653 45.1322 67.9004 45.041C68.1478 44.9564 68.3464 44.8164 68.4961 44.6211C68.6523 44.4323 68.7826 44.1849 68.8867 43.8789L69.668 41.8281ZM68.2715 32.4336L70.6641 40.2168L71.084 42.9414L69.3066 43.2637L65.4883 32.4336H68.2715Z" fill="#212121"/>
</g>
<path d="M4.74414 76.502H2.20801L2.19434 75.251H4.40918C4.78288 75.251 5.09961 75.1963 5.35938 75.0869C5.6237 74.973 5.82422 74.8112 5.96094 74.6016C6.09766 74.3874 6.16602 74.1299 6.16602 73.8291C6.16602 73.4964 6.10221 73.2253 5.97461 73.0156C5.84701 72.806 5.65104 72.6533 5.38672 72.5576C5.12695 72.4619 4.79427 72.4141 4.38867 72.4141H2.72754V81H1.01172V71.0469H4.38867C4.93555 71.0469 5.42318 71.0993 5.85156 71.2041C6.28451 71.3089 6.65137 71.473 6.95215 71.6963C7.25749 71.915 7.48763 72.193 7.64258 72.5303C7.80208 72.8675 7.88184 73.2686 7.88184 73.7334C7.88184 74.1436 7.78385 74.5195 7.58789 74.8613C7.39193 75.1986 7.10254 75.4743 6.71973 75.6885C6.33691 75.9027 5.86068 76.0303 5.29102 76.0713L4.74414 76.502ZM4.66895 81H1.66797L2.44043 79.6396H4.66895C5.05632 79.6396 5.37988 79.5758 5.63965 79.4482C5.89941 79.3161 6.0931 79.1361 6.2207 78.9082C6.35286 78.6758 6.41895 78.4046 6.41895 78.0947C6.41895 77.7712 6.36198 77.4909 6.24805 77.2539C6.13411 77.0124 5.9541 76.8278 5.70801 76.7002C5.46191 76.568 5.14062 76.502 4.74414 76.502H2.81641L2.83008 75.251H5.33887L5.72852 75.7227C6.27539 75.7409 6.72428 75.8617 7.0752 76.085C7.43066 76.3083 7.69499 76.5977 7.86816 76.9531C8.04134 77.3086 8.12793 77.6914 8.12793 78.1016C8.12793 78.735 7.98893 79.266 7.71094 79.6943C7.4375 80.1227 7.04329 80.4486 6.52832 80.6719C6.01335 80.8906 5.39355 81 4.66895 81ZM14.1436 79.2568V73.6035H15.7979V81H14.2393L14.1436 79.2568ZM14.376 77.7188L14.9297 77.7051C14.9297 78.2018 14.875 78.6598 14.7656 79.0791C14.6562 79.4938 14.4876 79.8561 14.2598 80.166C14.0319 80.4714 13.7402 80.7106 13.3848 80.8838C13.0293 81.0524 12.6032 81.1367 12.1064 81.1367C11.7464 81.1367 11.416 81.0843 11.1152 80.9795C10.8145 80.8747 10.5547 80.7129 10.3359 80.4941C10.1217 80.2754 9.9554 79.9906 9.83691 79.6396C9.71842 79.2887 9.65918 78.8695 9.65918 78.3818V73.6035H11.3066V78.3955C11.3066 78.6644 11.3385 78.89 11.4023 79.0723C11.4661 79.25 11.5527 79.3936 11.6621 79.5029C11.7715 79.6123 11.8991 79.6898 12.0449 79.7354C12.1908 79.7809 12.3457 79.8037 12.5098 79.8037C12.9792 79.8037 13.3483 79.7126 13.6172 79.5303C13.8906 79.3434 14.0843 79.0928 14.1982 78.7783C14.3167 78.4639 14.376 78.1107 14.376 77.7188ZM21.6357 78.9971C21.6357 78.833 21.5947 78.6849 21.5127 78.5527C21.4307 78.416 21.2734 78.293 21.041 78.1836C20.8132 78.0742 20.4759 77.974 20.0293 77.8828C19.6374 77.7962 19.2773 77.6937 18.9492 77.5752C18.6257 77.4521 18.3477 77.304 18.1152 77.1309C17.8828 76.9577 17.7028 76.7526 17.5752 76.5156C17.4476 76.2786 17.3838 76.0052 17.3838 75.6953C17.3838 75.3945 17.4499 75.1097 17.582 74.8408C17.7142 74.5719 17.9033 74.335 18.1494 74.1299C18.3955 73.9248 18.694 73.763 19.0449 73.6445C19.4004 73.526 19.7969 73.4668 20.2344 73.4668C20.8542 73.4668 21.3851 73.5716 21.8271 73.7812C22.2738 73.9863 22.6156 74.2666 22.8525 74.6221C23.0895 74.973 23.208 75.3695 23.208 75.8115H21.5605C21.5605 75.6156 21.5104 75.4333 21.4102 75.2646C21.3145 75.0915 21.1686 74.9525 20.9727 74.8477C20.7767 74.7383 20.5306 74.6836 20.2344 74.6836C19.9518 74.6836 19.7171 74.7292 19.5303 74.8203C19.348 74.9069 19.2113 75.0208 19.1201 75.1621C19.0335 75.3034 18.9902 75.4583 18.9902 75.627C18.9902 75.75 19.013 75.8617 19.0586 75.9619C19.1087 76.0576 19.1908 76.1465 19.3047 76.2285C19.4186 76.306 19.5736 76.3789 19.7695 76.4473C19.9701 76.5156 20.2207 76.5817 20.5215 76.6455C21.0866 76.764 21.5719 76.9167 21.9775 77.1035C22.3877 77.2858 22.7021 77.5228 22.9209 77.8145C23.1396 78.1016 23.249 78.4661 23.249 78.9082C23.249 79.2363 23.1784 79.5371 23.0371 79.8105C22.9004 80.0794 22.6999 80.3141 22.4355 80.5146C22.1712 80.7106 21.8545 80.8633 21.4854 80.9727C21.1208 81.082 20.7106 81.1367 20.2549 81.1367C19.585 81.1367 19.0176 81.0182 18.5527 80.7812C18.0879 80.5397 17.7347 80.2321 17.4932 79.8584C17.2562 79.4801 17.1377 79.0882 17.1377 78.6826H18.7305C18.7487 78.988 18.833 79.2318 18.9834 79.4141C19.1383 79.5918 19.3298 79.7217 19.5576 79.8037C19.79 79.8812 20.0293 79.9199 20.2754 79.9199C20.5716 79.9199 20.82 79.8812 21.0205 79.8037C21.221 79.7217 21.3737 79.6123 21.4785 79.4756C21.5833 79.3343 21.6357 79.1748 21.6357 78.9971ZM26.4551 73.6035V81H24.8008V73.6035H26.4551ZM24.6914 71.6621C24.6914 71.4115 24.7734 71.2041 24.9375 71.04C25.1061 70.8714 25.3385 70.7871 25.6348 70.7871C25.9264 70.7871 26.1566 70.8714 26.3252 71.04C26.4938 71.2041 26.5781 71.4115 26.5781 71.6621C26.5781 71.9082 26.4938 72.1133 26.3252 72.2773C26.1566 72.4414 25.9264 72.5234 25.6348 72.5234C25.3385 72.5234 25.1061 72.4414 24.9375 72.2773C24.7734 72.1133 24.6914 71.9082 24.6914 71.6621ZM29.8936 75.1826V81H28.2461V73.6035H29.7979L29.8936 75.1826ZM29.5996 77.0283L29.0664 77.0215C29.071 76.4974 29.1439 76.0166 29.2852 75.5791C29.431 75.1416 29.6315 74.7656 29.8867 74.4512C30.1465 74.1367 30.4564 73.8952 30.8164 73.7266C31.1764 73.5534 31.5775 73.4668 32.0195 73.4668C32.375 73.4668 32.6963 73.5169 32.9834 73.6172C33.2751 73.7129 33.5234 73.8701 33.7285 74.0889C33.9382 74.3076 34.0977 74.5924 34.207 74.9434C34.3164 75.2897 34.3711 75.7158 34.3711 76.2217V81H32.7168V76.2148C32.7168 75.8594 32.6644 75.5791 32.5596 75.374C32.4593 75.1644 32.3112 75.0163 32.1152 74.9297C31.9238 74.8385 31.6846 74.793 31.3975 74.793C31.1149 74.793 30.862 74.8522 30.6387 74.9707C30.4154 75.0892 30.2262 75.251 30.0713 75.4561C29.9209 75.6611 29.8047 75.8981 29.7227 76.167C29.6406 76.4359 29.5996 76.723 29.5996 77.0283ZM39.3135 81.1367C38.7666 81.1367 38.2721 81.0479 37.8301 80.8701C37.3926 80.6878 37.0189 80.4349 36.709 80.1113C36.4036 79.7878 36.1689 79.4072 36.0049 78.9697C35.8408 78.5322 35.7588 78.0605 35.7588 77.5547V77.2812C35.7588 76.7025 35.8431 76.1784 36.0117 75.709C36.1803 75.2396 36.415 74.8385 36.7158 74.5059C37.0166 74.1686 37.3721 73.9111 37.7822 73.7334C38.1924 73.5557 38.6367 73.4668 39.1152 73.4668C39.6439 73.4668 40.1064 73.5557 40.5029 73.7334C40.8994 73.9111 41.2275 74.1618 41.4873 74.4854C41.7516 74.8044 41.9476 75.1849 42.0752 75.627C42.2074 76.069 42.2734 76.5566 42.2734 77.0898V77.7939H36.5586V76.6113H40.6465V76.4814C40.6374 76.1852 40.5781 75.9072 40.4688 75.6475C40.3639 75.3877 40.2021 75.1781 39.9834 75.0186C39.7646 74.859 39.473 74.7793 39.1084 74.7793C38.835 74.7793 38.5911 74.8385 38.377 74.957C38.1673 75.071 37.9919 75.2373 37.8506 75.4561C37.7093 75.6748 37.5999 75.9391 37.5225 76.249C37.4495 76.5544 37.4131 76.8984 37.4131 77.2812V77.5547C37.4131 77.8783 37.4564 78.179 37.543 78.457C37.6341 78.7305 37.7663 78.9697 37.9395 79.1748C38.1126 79.3799 38.3223 79.5417 38.5684 79.6602C38.8145 79.7741 39.0947 79.8311 39.4092 79.8311C39.8057 79.8311 40.1589 79.7513 40.4688 79.5918C40.7786 79.4323 41.0475 79.2067 41.2754 78.915L42.1436 79.7559C41.984 79.9883 41.7767 80.2116 41.5215 80.4258C41.2663 80.6354 40.9541 80.8063 40.585 80.9385C40.2204 81.0706 39.7965 81.1367 39.3135 81.1367ZM47.708 78.9971C47.708 78.833 47.667 78.6849 47.585 78.5527C47.5029 78.416 47.3457 78.293 47.1133 78.1836C46.8854 78.0742 46.5482 77.974 46.1016 77.8828C45.7096 77.7962 45.3496 77.6937 45.0215 77.5752C44.6979 77.4521 44.4199 77.304 44.1875 77.1309C43.9551 76.9577 43.7751 76.7526 43.6475 76.5156C43.5199 76.2786 43.4561 76.0052 43.4561 75.6953C43.4561 75.3945 43.5221 75.1097 43.6543 74.8408C43.7865 74.5719 43.9756 74.335 44.2217 74.1299C44.4678 73.9248 44.7663 73.763 45.1172 73.6445C45.4727 73.526 45.8691 73.4668 46.3066 73.4668C46.9264 73.4668 47.4574 73.5716 47.8994 73.7812C48.346 73.9863 48.6878 74.2666 48.9248 74.6221C49.1618 74.973 49.2803 75.3695 49.2803 75.8115H47.6328C47.6328 75.6156 47.5827 75.4333 47.4824 75.2646C47.3867 75.0915 47.2409 74.9525 47.0449 74.8477C46.849 74.7383 46.6029 74.6836 46.3066 74.6836C46.0241 74.6836 45.7894 74.7292 45.6025 74.8203C45.4202 74.9069 45.2835 75.0208 45.1924 75.1621C45.1058 75.3034 45.0625 75.4583 45.0625 75.627C45.0625 75.75 45.0853 75.8617 45.1309 75.9619C45.181 76.0576 45.263 76.1465 45.377 76.2285C45.4909 76.306 45.6458 76.3789 45.8418 76.4473C46.0423 76.5156 46.293 76.5817 46.5938 76.6455C47.1589 76.764 47.6442 76.9167 48.0498 77.1035C48.46 77.2858 48.7744 77.5228 48.9932 77.8145C49.2119 78.1016 49.3213 78.4661 49.3213 78.9082C49.3213 79.2363 49.2507 79.5371 49.1094 79.8105C48.9727 80.0794 48.7721 80.3141 48.5078 80.5146C48.2435 80.7106 47.9268 80.8633 47.5576 80.9727C47.193 81.082 46.7829 81.1367 46.3271 81.1367C45.6572 81.1367 45.0898 81.0182 44.625 80.7812C44.1602 80.5397 43.807 80.2321 43.5654 79.8584C43.3285 79.4801 43.21 79.0882 43.21 78.6826H44.8027C44.821 78.988 44.9053 79.2318 45.0557 79.4141C45.2106 79.5918 45.402 79.7217 45.6299 79.8037C45.8623 79.8812 46.1016 79.9199 46.3477 79.9199C46.6439 79.9199 46.8923 79.8812 47.0928 79.8037C47.2933 79.7217 47.446 79.6123 47.5508 79.4756C47.6556 79.3343 47.708 79.1748 47.708 78.9971ZM54.9131 78.9971C54.9131 78.833 54.8721 78.6849 54.79 78.5527C54.708 78.416 54.5508 78.293 54.3184 78.1836C54.0905 78.0742 53.7533 77.974 53.3066 77.8828C52.9147 77.7962 52.5547 77.6937 52.2266 77.5752C51.903 77.4521 51.625 77.304 51.3926 77.1309C51.1602 76.9577 50.9801 76.7526 50.8525 76.5156C50.7249 76.2786 50.6611 76.0052 50.6611 75.6953C50.6611 75.3945 50.7272 75.1097 50.8594 74.8408C50.9915 74.5719 51.1807 74.335 51.4268 74.1299C51.6729 73.9248 51.9714 73.763 52.3223 73.6445C52.6777 73.526 53.0742 73.4668 53.5117 73.4668C54.1315 73.4668 54.6624 73.5716 55.1045 73.7812C55.5511 73.9863 55.8929 74.2666 56.1299 74.6221C56.3669 74.973 56.4854 75.3695 56.4854 75.8115H54.8379C54.8379 75.6156 54.7878 75.4333 54.6875 75.2646C54.5918 75.0915 54.446 74.9525 54.25 74.8477C54.054 74.7383 53.8079 74.6836 53.5117 74.6836C53.2292 74.6836 52.9945 74.7292 52.8076 74.8203C52.6253 74.9069 52.4886 75.0208 52.3975 75.1621C52.3109 75.3034 52.2676 75.4583 52.2676 75.627C52.2676 75.75 52.2904 75.8617 52.3359 75.9619C52.3861 76.0576 52.4681 76.1465 52.582 76.2285C52.696 76.306 52.8509 76.3789 53.0469 76.4473C53.2474 76.5156 53.498 76.5817 53.7988 76.6455C54.3639 76.764 54.8493 76.9167 55.2549 77.1035C55.665 77.2858 55.9795 77.5228 56.1982 77.8145C56.417 78.1016 56.5264 78.4661 56.5264 78.9082C56.5264 79.2363 56.4557 79.5371 56.3145 79.8105C56.1777 80.0794 55.9772 80.3141 55.7129 80.5146C55.4486 80.7106 55.1318 80.8633 54.7627 80.9727C54.3981 81.082 53.988 81.1367 53.5322 81.1367C52.8623 81.1367 52.2949 81.0182 51.8301 80.7812C51.3652 80.5397 51.012 80.2321 50.7705 79.8584C50.5335 79.4801 50.415 79.0882 50.415 78.6826H52.0078C52.026 78.988 52.1104 79.2318 52.2607 79.4141C52.4157 79.5918 52.6071 79.7217 52.835 79.8037C53.0674 79.8812 53.3066 79.9199 53.5527 79.9199C53.849 79.9199 54.0973 79.8812 54.2979 79.8037C54.4984 79.7217 54.651 79.6123 54.7559 79.4756C54.8607 79.3343 54.9131 79.1748 54.9131 78.9971ZM61.4893 77.0693V76.9531C61.4893 75.9779 61.5941 75.0938 61.8037 74.3008C62.0179 73.5033 62.2959 72.806 62.6377 72.209C62.9795 71.6074 63.3441 71.1107 63.7314 70.7188C64.1234 70.3223 64.4993 70.0374 64.8594 69.8643L65.1875 70.8076C64.9232 71.0036 64.6589 71.2747 64.3945 71.6211C64.1348 71.9674 63.8955 72.3936 63.6768 72.8994C63.4626 73.4007 63.2894 73.9886 63.1572 74.6631C63.0296 75.333 62.9658 76.0918 62.9658 76.9395V77.083C62.9658 77.9307 63.0296 78.6917 63.1572 79.3662C63.2894 80.0361 63.4626 80.624 63.6768 81.1299C63.8955 81.6357 64.1348 82.0641 64.3945 82.415C64.6589 82.7705 64.9232 83.0531 65.1875 83.2627L64.8594 84.165C64.4993 83.9873 64.1234 83.7002 63.7314 83.3037C63.3441 82.9118 62.9795 82.415 62.6377 81.8135C62.2959 81.2165 62.0179 80.5215 61.8037 79.7285C61.5941 78.931 61.4893 78.0446 61.4893 77.0693ZM67.9424 76.3721L66.6299 76.0508L67.1699 71.0469H72.5361V72.4414H68.5371L68.2637 74.8818C68.4186 74.7907 68.6328 74.7018 68.9062 74.6152C69.1797 74.5241 69.4919 74.4785 69.8428 74.4785C70.3122 74.4785 70.7314 74.556 71.1006 74.7109C71.4743 74.8613 71.791 75.0824 72.0508 75.374C72.3105 75.6611 72.5088 76.012 72.6455 76.4268C72.7822 76.8369 72.8506 77.2995 72.8506 77.8145C72.8506 78.2747 72.7822 78.7054 72.6455 79.1064C72.5133 79.5075 72.3128 79.8607 72.0439 80.166C71.7751 80.4714 71.4355 80.7106 71.0254 80.8838C70.6198 81.0524 70.139 81.1367 69.583 81.1367C69.1683 81.1367 68.7695 81.0775 68.3867 80.959C68.0085 80.8359 67.6689 80.6559 67.3682 80.4189C67.0674 80.1774 66.8258 79.8812 66.6436 79.5303C66.4613 79.1748 66.3564 78.7669 66.3291 78.3066H67.9424C67.9834 78.6302 68.0723 78.9059 68.209 79.1338C68.3503 79.3571 68.5371 79.528 68.7695 79.6465C69.002 79.765 69.2708 79.8242 69.5762 79.8242C69.8542 79.8242 70.0934 79.7764 70.2939 79.6807C70.4945 79.5804 70.6608 79.4391 70.793 79.2568C70.9297 79.07 71.0299 78.8512 71.0938 78.6006C71.1621 78.3499 71.1963 78.0719 71.1963 77.7666C71.1963 77.4749 71.1576 77.2083 71.0801 76.9668C71.0072 76.7253 70.8955 76.5156 70.7451 76.3379C70.5993 76.1602 70.4147 76.0234 70.1914 75.9277C69.9681 75.8275 69.7106 75.7773 69.4189 75.7773C69.027 75.7773 68.7262 75.8343 68.5166 75.9482C68.3115 76.0622 68.1201 76.2035 67.9424 76.3721ZM79.4131 70.5V81H77.7588V70.5H79.4131ZM84.0068 73.6035L80.7871 77.1719L79.0234 78.9766L78.5928 77.582L79.9258 75.9346L82.0176 73.6035H84.0068ZM82.373 81L79.9736 77.5273L81.0127 76.3721L84.2803 81H82.373ZM86.7002 75.1074V81H85.0527V73.6035H86.6045L86.7002 75.1074ZM86.4336 77.0283L85.873 77.0215C85.873 76.5111 85.9368 76.0394 86.0645 75.6064C86.1921 75.1735 86.3789 74.7975 86.625 74.4785C86.8711 74.1549 87.1764 73.9066 87.541 73.7334C87.9102 73.5557 88.3363 73.4668 88.8193 73.4668C89.1566 73.4668 89.4642 73.5169 89.7422 73.6172C90.0247 73.7129 90.2686 73.8656 90.4736 74.0752C90.6833 74.2848 90.8428 74.5537 90.9521 74.8818C91.0661 75.21 91.123 75.6064 91.123 76.0713V81H89.4756V76.2148C89.4756 75.8548 89.4209 75.5723 89.3115 75.3672C89.2067 75.1621 89.054 75.0163 88.8535 74.9297C88.6576 74.8385 88.4229 74.793 88.1494 74.793C87.8395 74.793 87.5752 74.8522 87.3564 74.9707C87.1423 75.0892 86.9668 75.251 86.8301 75.4561C86.6934 75.6611 86.5931 75.8981 86.5293 76.167C86.4655 76.4359 86.4336 76.723 86.4336 77.0283ZM91.0205 76.5908L90.248 76.7617C90.248 76.3151 90.3096 75.8936 90.4326 75.4971C90.5602 75.096 90.7448 74.7451 90.9863 74.4443C91.2324 74.139 91.5355 73.8997 91.8955 73.7266C92.2555 73.5534 92.668 73.4668 93.1328 73.4668C93.5111 73.4668 93.8483 73.5192 94.1445 73.624C94.4453 73.7243 94.7005 73.8838 94.9102 74.1025C95.1198 74.3213 95.2793 74.6061 95.3887 74.957C95.498 75.3034 95.5527 75.7227 95.5527 76.2148V81H93.8984V76.208C93.8984 75.8343 93.8438 75.5449 93.7344 75.3398C93.6296 75.1348 93.4792 74.9935 93.2832 74.916C93.0872 74.834 92.8525 74.793 92.5791 74.793C92.3239 74.793 92.0983 74.8408 91.9023 74.9365C91.7109 75.0277 91.5492 75.1576 91.417 75.3262C91.2848 75.4902 91.1846 75.6794 91.1162 75.8936C91.0524 76.1077 91.0205 76.3402 91.0205 76.5908ZM100.427 76.9531V77.0693C100.427 78.0309 100.317 78.9082 100.099 79.7012C99.8844 80.4941 99.6042 81.1914 99.2578 81.793C98.916 82.3945 98.5446 82.8958 98.1436 83.2969C97.7471 83.6979 97.3665 83.9873 97.002 84.165L96.667 83.2627C96.9313 83.0622 97.1934 82.7865 97.4531 82.4355C97.7174 82.0892 97.9567 81.6585 98.1709 81.1436C98.3896 80.6331 98.5628 80.0407 98.6904 79.3662C98.8226 78.6917 98.8887 77.9307 98.8887 77.083V76.9395C98.8887 76.0918 98.8203 75.3307 98.6836 74.6562C98.5514 73.9772 98.3737 73.3848 98.1504 72.8789C97.9271 72.3685 97.6855 71.9378 97.4258 71.5869C97.166 71.236 96.9131 70.9626 96.667 70.7666L97.002 69.8643C97.3665 70.0374 97.7471 70.3245 98.1436 70.7256C98.5446 71.1266 98.916 71.6302 99.2578 72.2363C99.6042 72.8379 99.8844 73.5352 100.099 74.3281C100.317 75.1211 100.427 75.9961 100.427 76.9531Z" fill="#707070"/>
<path fill-rule="evenodd" clip-rule="evenodd" d="M15.8333 108.583H4.16667C3.93655 108.583 3.75 108.77 3.75 109V119.833C3.75 120.063 3.93655 120.25 4.16667 120.25H15.8333C16.0634 120.25 16.25 120.063 16.25 119.833V109C16.25 108.77 16.0634 108.583 15.8333 108.583ZM4.16667 107.333C3.24619 107.333 2.5 108.079 2.5 109V119.833C2.5 120.754 3.24619 121.5 4.16667 121.5H15.8333C16.7538 121.5 17.5 120.754 17.5 119.833V109C17.5 108.079 16.7538 107.333 15.8333 107.333H4.16667Z" fill="#707070"/>
<path d="M5 106.5C5 106.04 5.3731 105.667 5.83333 105.667C6.29357 105.667 6.66667 106.04 6.66667 106.5V107.334C6.66667 107.794 6.29357 108.167 5.83333 108.167C5.3731 108.167 5 107.794 5 107.334V106.5Z" fill="#707070"/>
<path d="M13.333 106.5C13.333 106.04 13.7061 105.667 14.1663 105.667C14.6266 105.667 14.9997 106.04 14.9997 106.5V107.334C14.9997 107.794 14.6266 108.167 14.1663 108.167C13.7061 108.167 13.333 107.794 13.333 107.334V106.5Z" fill="#707070"/>
<path fill-rule="evenodd" clip-rule="evenodd" d="M15 111.292C15 111.637 14.7202 111.917 14.375 111.917H5.625C5.27983 111.917 5 111.637 5 111.292C5 110.947 5.27983 110.667 5.625 110.667H14.375C14.7202 110.667 15 110.947 15 111.292Z" fill="#707070"/>
<path d="M27.5723 109.047H28.8506L32.1113 117.161L35.3652 109.047H36.6504L32.6035 119H31.6055L27.5723 109.047ZM27.1553 109.047H28.2832L28.4678 115.117V119H27.1553V109.047ZM35.9326 109.047H37.0605V119H35.748V115.117L35.9326 109.047ZM46.691 113.709V114.338C46.691 115.085 46.5976 115.755 46.4107 116.348C46.2239 116.94 45.955 117.444 45.6041 117.858C45.2532 118.273 44.8316 118.59 44.3395 118.809C43.8518 119.027 43.3049 119.137 42.6988 119.137C42.1109 119.137 41.5709 119.027 41.0787 118.809C40.5911 118.59 40.1673 118.273 39.8072 117.858C39.4518 117.444 39.176 116.94 38.9801 116.348C38.7841 115.755 38.6861 115.085 38.6861 114.338V113.709C38.6861 112.962 38.7818 112.294 38.9732 111.706C39.1692 111.114 39.4449 110.61 39.8004 110.195C40.1559 109.776 40.5774 109.457 41.065 109.238C41.5572 109.02 42.0973 108.91 42.6852 108.91C43.2913 108.91 43.8382 109.02 44.3258 109.238C44.818 109.457 45.2395 109.776 45.5904 110.195C45.9459 110.61 46.2171 111.114 46.4039 111.706C46.5953 112.294 46.691 112.962 46.691 113.709ZM45.3854 114.338V113.695C45.3854 113.103 45.3238 112.579 45.2008 112.123C45.0823 111.667 44.9068 111.285 44.6744 110.975C44.442 110.665 44.1572 110.43 43.8199 110.271C43.4872 110.111 43.109 110.031 42.6852 110.031C42.275 110.031 41.9036 110.111 41.5709 110.271C41.2428 110.43 40.9602 110.665 40.7232 110.975C40.4908 111.285 40.3108 111.667 40.1832 112.123C40.0556 112.579 39.9918 113.103 39.9918 113.695V114.338C39.9918 114.935 40.0556 115.464 40.1832 115.924C40.3108 116.38 40.4931 116.765 40.7301 117.079C40.9716 117.389 41.2564 117.624 41.5846 117.783C41.9173 117.943 42.2887 118.022 42.6988 118.022C43.1272 118.022 43.5077 117.943 43.8404 117.783C44.1731 117.624 44.4534 117.389 44.6812 117.079C44.9137 116.765 45.0891 116.38 45.2076 115.924C45.3261 115.464 45.3854 114.935 45.3854 114.338ZM55.9729 109.047V119H54.6467L49.6359 111.323V119H48.3166V109.047H49.6359L54.6672 116.744V109.047H55.9729ZM58.9178 117.496V118.515C58.9178 118.929 58.813 119.367 58.6033 119.827C58.3937 120.292 58.0997 120.679 57.7215 120.989L57.0037 120.49C57.1495 120.29 57.2726 120.085 57.3729 119.875C57.4731 119.67 57.5483 119.456 57.5984 119.232C57.6531 119.014 57.6805 118.781 57.6805 118.535V117.496H58.9178ZM63.9121 109.047H65.1904L68.4512 117.161L71.7051 109.047H72.9902L68.9434 119H67.9453L63.9121 109.047ZM63.4951 109.047H64.623L64.8076 115.117V119H63.4951V109.047ZM72.2725 109.047H73.4004V119H72.0879V115.117L72.2725 109.047ZM79.1754 109.929L75.8805 119H74.5338L78.3277 109.047H79.1959L79.1754 109.929ZM81.9371 119L78.6354 109.929L78.6148 109.047H79.483L83.2906 119H81.9371ZM81.7662 115.315V116.396H76.1744V115.315H81.7662ZM84.2736 109.047H87.5686C88.3159 109.047 88.9471 109.161 89.4621 109.389C89.9816 109.617 90.3758 109.954 90.6447 110.4C90.9182 110.842 91.0549 111.387 91.0549 112.034C91.0549 112.49 90.9615 112.907 90.7746 113.285C90.5923 113.659 90.328 113.978 89.9816 114.242C89.6398 114.502 89.2297 114.696 88.7512 114.823L88.382 114.967H85.2854L85.2717 113.894H87.6096C88.0835 113.894 88.4777 113.812 88.7922 113.647C89.1066 113.479 89.3436 113.253 89.5031 112.971C89.6626 112.688 89.7424 112.376 89.7424 112.034C89.7424 111.651 89.6672 111.316 89.5168 111.029C89.3664 110.742 89.1294 110.521 88.8059 110.366C88.4868 110.207 88.0744 110.127 87.5686 110.127H85.593V119H84.2736V109.047ZM90.091 119L87.6711 114.488L89.0451 114.481L91.4992 118.918V119H90.091ZM99.5014 108.992V119H98.2367V110.571L95.6869 111.501V110.359L99.3031 108.992H99.5014ZM109.146 116.307C109.146 116.913 109.004 117.428 108.722 117.852C108.444 118.271 108.065 118.59 107.587 118.809C107.113 119.027 106.577 119.137 105.98 119.137C105.383 119.137 104.846 119.027 104.367 118.809C103.889 118.59 103.51 118.271 103.232 117.852C102.954 117.428 102.815 116.913 102.815 116.307C102.815 115.91 102.891 115.548 103.041 115.22C103.196 114.887 103.412 114.598 103.69 114.352C103.973 114.105 104.306 113.916 104.688 113.784C105.076 113.647 105.502 113.579 105.967 113.579C106.577 113.579 107.122 113.698 107.601 113.935C108.079 114.167 108.455 114.488 108.729 114.898C109.007 115.309 109.146 115.778 109.146 116.307ZM107.874 116.279C107.874 115.91 107.794 115.584 107.635 115.302C107.475 115.015 107.252 114.791 106.965 114.632C106.678 114.472 106.345 114.393 105.967 114.393C105.579 114.393 105.244 114.472 104.962 114.632C104.684 114.791 104.467 115.015 104.312 115.302C104.158 115.584 104.08 115.91 104.08 116.279C104.08 116.662 104.155 116.99 104.306 117.264C104.461 117.533 104.679 117.74 104.962 117.886C105.249 118.027 105.589 118.098 105.98 118.098C106.372 118.098 106.71 118.027 106.992 117.886C107.275 117.74 107.491 117.533 107.642 117.264C107.797 116.99 107.874 116.662 107.874 116.279ZM108.913 111.638C108.913 112.121 108.785 112.556 108.53 112.943C108.275 113.331 107.926 113.636 107.484 113.859C107.042 114.083 106.541 114.194 105.98 114.194C105.411 114.194 104.903 114.083 104.456 113.859C104.014 113.636 103.668 113.331 103.417 112.943C103.166 112.556 103.041 112.121 103.041 111.638C103.041 111.059 103.166 110.567 103.417 110.161C103.672 109.756 104.021 109.446 104.463 109.231C104.905 109.017 105.409 108.91 105.974 108.91C106.543 108.91 107.049 109.017 107.491 109.231C107.933 109.446 108.28 109.756 108.53 110.161C108.785 110.567 108.913 111.059 108.913 111.638ZM107.648 111.658C107.648 111.326 107.578 111.032 107.437 110.776C107.295 110.521 107.099 110.321 106.849 110.175C106.598 110.024 106.306 109.949 105.974 109.949C105.641 109.949 105.349 110.02 105.099 110.161C104.853 110.298 104.659 110.494 104.518 110.749C104.381 111.004 104.312 111.307 104.312 111.658C104.312 112 104.381 112.299 104.518 112.554C104.659 112.809 104.855 113.007 105.105 113.148C105.356 113.29 105.648 113.36 105.98 113.36C106.313 113.36 106.603 113.29 106.849 113.148C107.099 113.007 107.295 112.809 107.437 112.554C107.578 112.299 107.648 112 107.648 111.658ZM113.702 114.017C113.702 113.802 113.768 113.622 113.901 113.477C114.033 113.326 114.226 113.251 114.482 113.251C114.737 113.251 114.931 113.326 115.063 113.477C115.199 113.622 115.268 113.802 115.268 114.017C115.268 114.226 115.199 114.404 115.063 114.55C114.931 114.691 114.737 114.762 114.482 114.762C114.226 114.762 114.033 114.691 113.901 114.55C113.768 114.404 113.702 114.226 113.702 114.017ZM126.387 109.047V109.758L122.265 119H120.932L125.047 110.086H119.661V109.047H126.387ZM127.562 118.33C127.562 118.116 127.628 117.936 127.76 117.79C127.896 117.64 128.092 117.564 128.348 117.564C128.603 117.564 128.797 117.64 128.929 117.79C129.065 117.936 129.134 118.116 129.134 118.33C129.134 118.54 129.065 118.717 128.929 118.863C128.797 119.009 128.603 119.082 128.348 119.082C128.092 119.082 127.896 119.009 127.76 118.863C127.628 118.717 127.562 118.54 127.562 118.33ZM127.568 112.294C127.568 112.08 127.634 111.9 127.767 111.754C127.903 111.604 128.099 111.528 128.354 111.528C128.61 111.528 128.803 111.604 128.936 111.754C129.072 111.9 129.141 112.08 129.141 112.294C129.141 112.504 129.072 112.681 128.936 112.827C128.803 112.973 128.61 113.046 128.354 113.046C128.099 113.046 127.903 112.973 127.767 112.827C127.634 112.681 127.568 112.504 127.568 112.294ZM136.768 113.23V114.748C136.768 115.564 136.695 116.252 136.549 116.812C136.404 117.373 136.194 117.824 135.921 118.166C135.647 118.508 135.317 118.756 134.929 118.911C134.546 119.062 134.114 119.137 133.63 119.137C133.248 119.137 132.894 119.089 132.571 118.993C132.247 118.897 131.956 118.745 131.696 118.535C131.441 118.321 131.222 118.043 131.04 117.701C130.857 117.359 130.718 116.945 130.623 116.457C130.527 115.969 130.479 115.4 130.479 114.748V113.23C130.479 112.415 130.552 111.731 130.698 111.18C130.848 110.628 131.06 110.186 131.334 109.854C131.607 109.516 131.935 109.275 132.318 109.129C132.705 108.983 133.138 108.91 133.617 108.91C134.004 108.91 134.36 108.958 134.683 109.054C135.011 109.145 135.303 109.293 135.558 109.498C135.813 109.699 136.03 109.967 136.208 110.305C136.39 110.637 136.529 111.045 136.625 111.528C136.72 112.011 136.768 112.579 136.768 113.23ZM135.497 114.953V113.019C135.497 112.572 135.469 112.18 135.415 111.843C135.365 111.501 135.289 111.209 135.189 110.968C135.089 110.726 134.961 110.53 134.806 110.38C134.656 110.229 134.48 110.12 134.28 110.052C134.084 109.979 133.863 109.942 133.617 109.942C133.316 109.942 133.049 109.999 132.817 110.113C132.585 110.223 132.389 110.398 132.229 110.64C132.074 110.881 131.956 111.198 131.874 111.59C131.792 111.982 131.751 112.458 131.751 113.019V114.953C131.751 115.4 131.776 115.794 131.826 116.136C131.88 116.478 131.96 116.774 132.065 117.024C132.17 117.271 132.297 117.473 132.448 117.633C132.598 117.792 132.771 117.911 132.967 117.988C133.168 118.061 133.389 118.098 133.63 118.098C133.94 118.098 134.212 118.038 134.444 117.92C134.676 117.801 134.87 117.617 135.025 117.366C135.185 117.111 135.303 116.785 135.38 116.389C135.458 115.988 135.497 115.509 135.497 114.953ZM144.293 113.23V114.748C144.293 115.564 144.22 116.252 144.074 116.812C143.929 117.373 143.719 117.824 143.446 118.166C143.172 118.508 142.842 118.756 142.454 118.911C142.071 119.062 141.639 119.137 141.155 119.137C140.773 119.137 140.419 119.089 140.096 118.993C139.772 118.897 139.481 118.745 139.221 118.535C138.966 118.321 138.747 118.043 138.565 117.701C138.382 117.359 138.243 116.945 138.148 116.457C138.052 115.969 138.004 115.4 138.004 114.748V113.23C138.004 112.415 138.077 111.731 138.223 111.18C138.373 110.628 138.585 110.186 138.859 109.854C139.132 109.516 139.46 109.275 139.843 109.129C140.23 108.983 140.663 108.91 141.142 108.91C141.529 108.91 141.885 108.958 142.208 109.054C142.536 109.145 142.828 109.293 143.083 109.498C143.338 109.699 143.555 109.967 143.733 110.305C143.915 110.637 144.054 111.045 144.15 111.528C144.245 112.011 144.293 112.579 144.293 113.23ZM143.022 114.953V113.019C143.022 112.572 142.994 112.18 142.94 111.843C142.89 111.501 142.814 111.209 142.714 110.968C142.614 110.726 142.486 110.53 142.331 110.38C142.181 110.229 142.005 110.12 141.805 110.052C141.609 109.979 141.388 109.942 141.142 109.942C140.841 109.942 140.574 109.999 140.342 110.113C140.11 110.223 139.914 110.398 139.754 110.64C139.599 110.881 139.481 111.198 139.399 111.59C139.317 111.982 139.276 112.458 139.276 113.019V114.953C139.276 115.4 139.301 115.794 139.351 116.136C139.405 116.478 139.485 116.774 139.59 117.024C139.695 117.271 139.822 117.473 139.973 117.633C140.123 117.792 140.296 117.911 140.492 117.988C140.693 118.061 140.914 118.098 141.155 118.098C141.465 118.098 141.737 118.038 141.969 117.92C142.201 117.801 142.395 117.617 142.55 117.366C142.71 117.111 142.828 116.785 142.905 116.389C142.983 115.988 143.022 115.509 143.022 114.953ZM152.692 115.097H150.033V114.023H152.692C153.207 114.023 153.624 113.941 153.943 113.777C154.262 113.613 154.494 113.385 154.64 113.094C154.79 112.802 154.866 112.469 154.866 112.096C154.866 111.754 154.79 111.433 154.64 111.132C154.494 110.831 154.262 110.59 153.943 110.407C153.624 110.22 153.207 110.127 152.692 110.127H150.34V119H149.021V109.047H152.692C153.444 109.047 154.079 109.177 154.599 109.437C155.119 109.696 155.513 110.056 155.782 110.517C156.051 110.972 156.185 111.494 156.185 112.082C156.185 112.72 156.051 113.265 155.782 113.716C155.513 114.167 155.119 114.511 154.599 114.748C154.079 114.98 153.444 115.097 152.692 115.097ZM157.92 109.047H159.198L162.459 117.161L165.713 109.047H166.998L162.951 119H161.953L157.92 109.047ZM157.503 109.047H158.631L158.815 115.117V119H157.503V109.047ZM166.28 109.047H167.408V119H166.096V115.117L166.28 109.047ZM176.169 115.097H173.51V114.023H176.169C176.684 114.023 177.101 113.941 177.42 113.777C177.739 113.613 177.972 113.385 178.117 113.094C178.268 112.802 178.343 112.469 178.343 112.096C178.343 111.754 178.268 111.433 178.117 111.132C177.972 110.831 177.739 110.59 177.42 110.407C177.101 110.22 176.684 110.127 176.169 110.127H173.818V119H172.498V109.047H176.169C176.921 109.047 177.557 109.177 178.076 109.437C178.596 109.696 178.99 110.056 179.259 110.517C179.528 110.972 179.662 111.494 179.662 112.082C179.662 112.72 179.528 113.265 179.259 113.716C178.99 114.167 178.596 114.511 178.076 114.748C177.557 114.98 176.921 115.097 176.169 115.097ZM183.674 119H181.596L181.609 117.927H183.674C184.385 117.927 184.977 117.779 185.451 117.482C185.925 117.182 186.28 116.762 186.517 116.225C186.759 115.682 186.88 115.049 186.88 114.324V113.716C186.88 113.146 186.811 112.64 186.675 112.198C186.538 111.752 186.337 111.376 186.073 111.07C185.809 110.76 185.485 110.526 185.102 110.366C184.724 110.207 184.289 110.127 183.797 110.127H181.554V109.047H183.797C184.448 109.047 185.043 109.156 185.581 109.375C186.119 109.589 186.581 109.901 186.969 110.312C187.36 110.717 187.661 111.209 187.871 111.788C188.081 112.362 188.185 113.009 188.185 113.729V114.324C188.185 115.044 188.081 115.694 187.871 116.272C187.661 116.847 187.358 117.337 186.962 117.742C186.57 118.148 186.096 118.46 185.54 118.679C184.988 118.893 184.366 119 183.674 119ZM182.3 109.047V119H180.98V109.047H182.3ZM193.304 109.047V119H192.005V109.047H193.304ZM196.503 109.047V110.127H188.813V109.047H196.503Z" fill="#212121"/>
<path fill-rule="evenodd" clip-rule="evenodd" d="M10.0003 155.084C13.9123 155.084 17.0837 151.912 17.0837 148C17.0837 144.088 13.9123 140.917 10.0003 140.917C6.08831 140.917 2.91699 144.088 2.91699 148C2.91699 151.912 6.08831 155.084 10.0003 155.084ZM10.0003 156.334C14.6027 156.334 18.3337 152.603 18.3337 148C18.3337 143.398 14.6027 139.667 10.0003 139.667C5.39795 139.667 1.66699 143.398 1.66699 148C1.66699 152.603 5.39795 156.334 10.0003 156.334Z" fill="#707070"/>
<path fill-rule="evenodd" clip-rule="evenodd" d="M15.4419 145.058C15.686 145.302 15.686 145.698 15.4419 145.942L9.65916 151.725C8.92691 152.457 7.73974 152.457 7.00751 151.725L4.55806 149.275C4.31398 149.031 4.31398 148.635 4.55806 148.391C4.80213 148.147 5.19786 148.147 5.44194 148.391L7.89139 150.841C8.13546 151.085 8.53116 151.085 8.77525 150.841L14.5581 145.058C14.8022 144.814 15.1978 144.814 15.4419 145.058Z" fill="#707070"/>
<path d="M31.6953 141.562V153H30.25V143.367L27.3359 144.43V143.125L31.4688 141.562H31.6953ZM45.5469 144.547H46.8594V152.82C46.8594 153.565 46.7083 154.201 46.4062 154.727C46.1042 155.253 45.6823 155.651 45.1406 155.922C44.6042 156.198 43.9844 156.336 43.2812 156.336C42.9896 156.336 42.6458 156.289 42.25 156.195C41.8594 156.107 41.474 155.953 41.0938 155.734C40.7188 155.521 40.4036 155.232 40.1484 154.867L40.9062 154.008C41.2604 154.435 41.6302 154.732 42.0156 154.898C42.4062 155.065 42.7917 155.148 43.1719 155.148C43.6302 155.148 44.026 155.062 44.3594 154.891C44.6927 154.719 44.9505 154.464 45.1328 154.125C45.3203 153.792 45.4141 153.38 45.4141 152.891V146.406L45.5469 144.547ZM39.7266 148.867V148.703C39.7266 148.057 39.8021 147.471 39.9531 146.945C40.1094 146.414 40.3307 145.958 40.6172 145.578C40.9089 145.198 41.2604 144.906 41.6719 144.703C42.0833 144.495 42.5469 144.391 43.0625 144.391C43.5938 144.391 44.0573 144.484 44.4531 144.672C44.8542 144.854 45.1927 145.122 45.4688 145.477C45.75 145.826 45.9714 146.247 46.1328 146.742C46.2943 147.237 46.4062 147.797 46.4688 148.422V149.141C46.4115 149.76 46.2995 150.318 46.1328 150.812C45.9714 151.307 45.75 151.729 45.4688 152.078C45.1927 152.427 44.8542 152.695 44.4531 152.883C44.0521 153.065 43.5833 153.156 43.0469 153.156C42.5417 153.156 42.0833 153.049 41.6719 152.836C41.2656 152.622 40.9167 152.323 40.625 151.938C40.3333 151.552 40.1094 151.099 39.9531 150.578C39.8021 150.052 39.7266 149.482 39.7266 148.867ZM41.1719 148.703V148.867C41.1719 149.289 41.2135 149.685 41.2969 150.055C41.3854 150.424 41.5182 150.75 41.6953 151.031C41.8776 151.312 42.1094 151.534 42.3906 151.695C42.6719 151.852 43.0078 151.93 43.3984 151.93C43.8776 151.93 44.2734 151.828 44.5859 151.625C44.8984 151.422 45.1458 151.154 45.3281 150.82C45.5156 150.487 45.6615 150.125 45.7656 149.734V147.852C45.7083 147.565 45.6198 147.289 45.5 147.023C45.3854 146.753 45.2344 146.513 45.0469 146.305C44.8646 146.091 44.638 145.922 44.3672 145.797C44.0964 145.672 43.7786 145.609 43.4141 145.609C43.0182 145.609 42.6771 145.693 42.3906 145.859C42.1094 146.021 41.8776 146.245 41.6953 146.531C41.5182 146.812 41.3854 147.141 41.2969 147.516C41.2135 147.885 41.1719 148.281 41.1719 148.703ZM48.6719 148.867V148.688C48.6719 148.078 48.7604 147.513 48.9375 146.992C49.1146 146.466 49.3698 146.01 49.7031 145.625C50.0365 145.234 50.4401 144.932 50.9141 144.719C51.388 144.5 51.9193 144.391 52.5078 144.391C53.1016 144.391 53.6354 144.5 54.1094 144.719C54.5885 144.932 54.9948 145.234 55.3281 145.625C55.6667 146.01 55.9245 146.466 56.1016 146.992C56.2786 147.513 56.3672 148.078 56.3672 148.688V148.867C56.3672 149.477 56.2786 150.042 56.1016 150.562C55.9245 151.083 55.6667 151.539 55.3281 151.93C54.9948 152.315 54.5911 152.617 54.1172 152.836C53.6484 153.049 53.1172 153.156 52.5234 153.156C51.9297 153.156 51.3958 153.049 50.9219 152.836C50.4479 152.617 50.0417 152.315 49.7031 151.93C49.3698 151.539 49.1146 151.083 48.9375 150.562C48.7604 150.042 48.6719 149.477 48.6719 148.867ZM50.1172 148.688V148.867C50.1172 149.289 50.1667 149.688 50.2656 150.062C50.3646 150.432 50.513 150.76 50.7109 151.047C50.9141 151.333 51.1667 151.56 51.4688 151.727C51.7708 151.888 52.1224 151.969 52.5234 151.969C52.9193 151.969 53.2656 151.888 53.5625 151.727C53.8646 151.56 54.1146 151.333 54.3125 151.047C54.5104 150.76 54.6589 150.432 54.7578 150.062C54.862 149.688 54.9141 149.289 54.9141 148.867V148.688C54.9141 148.271 54.862 147.878 54.7578 147.508C54.6589 147.133 54.5078 146.802 54.3047 146.516C54.1068 146.224 53.8568 145.995 53.5547 145.828C53.2578 145.661 52.9089 145.578 52.5078 145.578C52.112 145.578 51.763 145.661 51.4609 145.828C51.1641 145.995 50.9141 146.224 50.7109 146.516C50.513 146.802 50.3646 147.133 50.2656 147.508C50.1667 147.878 50.1172 148.271 50.1172 148.688ZM59.75 144.547V153H58.2969V144.547H59.75ZM58.1875 142.305C58.1875 142.07 58.2578 141.872 58.3984 141.711C58.5443 141.549 58.7578 141.469 59.0391 141.469C59.3151 141.469 59.526 141.549 59.6719 141.711C59.8229 141.872 59.8984 142.07 59.8984 142.305C59.8984 142.529 59.8229 142.721 59.6719 142.883C59.526 143.039 59.3151 143.117 59.0391 143.117C58.7578 143.117 58.5443 143.039 58.3984 142.883C58.2578 142.721 58.1875 142.529 58.1875 142.305ZM63.5156 146.352V153H62.0703V144.547H63.4375L63.5156 146.352ZM63.1719 148.453L62.5703 148.43C62.5755 147.852 62.6615 147.318 62.8281 146.828C62.9948 146.333 63.2292 145.904 63.5312 145.539C63.8333 145.174 64.1927 144.893 64.6094 144.695C65.0312 144.492 65.4974 144.391 66.0078 144.391C66.4245 144.391 66.7995 144.448 67.1328 144.562C67.4661 144.672 67.75 144.849 67.9844 145.094C68.224 145.339 68.4062 145.656 68.5312 146.047C68.6562 146.432 68.7188 146.904 68.7188 147.461V153H67.2656V147.445C67.2656 147.003 67.2005 146.648 67.0703 146.383C66.9401 146.112 66.75 145.917 66.5 145.797C66.25 145.672 65.9427 145.609 65.5781 145.609C65.2188 145.609 64.8906 145.685 64.5938 145.836C64.3021 145.987 64.0495 146.195 63.8359 146.461C63.6276 146.727 63.4635 147.031 63.3438 147.375C63.2292 147.714 63.1719 148.073 63.1719 148.453ZM76.3906 144.547H77.7031V152.82C77.7031 153.565 77.5521 154.201 77.25 154.727C76.9479 155.253 76.526 155.651 75.9844 155.922C75.4479 156.198 74.8281 156.336 74.125 156.336C73.8333 156.336 73.4896 156.289 73.0938 156.195C72.7031 156.107 72.3177 155.953 71.9375 155.734C71.5625 155.521 71.2474 155.232 70.9922 154.867L71.75 154.008C72.1042 154.435 72.474 154.732 72.8594 154.898C73.25 155.065 73.6354 155.148 74.0156 155.148C74.474 155.148 74.8698 155.062 75.2031 154.891C75.5365 154.719 75.7943 154.464 75.9766 154.125C76.1641 153.792 76.2578 153.38 76.2578 152.891V146.406L76.3906 144.547ZM70.5703 148.867V148.703C70.5703 148.057 70.6458 147.471 70.7969 146.945C70.9531 146.414 71.1745 145.958 71.4609 145.578C71.7526 145.198 72.1042 144.906 72.5156 144.703C72.9271 144.495 73.3906 144.391 73.9062 144.391C74.4375 144.391 74.901 144.484 75.2969 144.672C75.6979 144.854 76.0365 145.122 76.3125 145.477C76.5938 145.826 76.8151 146.247 76.9766 146.742C77.138 147.237 77.25 147.797 77.3125 148.422V149.141C77.2552 149.76 77.1432 150.318 76.9766 150.812C76.8151 151.307 76.5938 151.729 76.3125 152.078C76.0365 152.427 75.6979 152.695 75.2969 152.883C74.8958 153.065 74.4271 153.156 73.8906 153.156C73.3854 153.156 72.9271 153.049 72.5156 152.836C72.1094 152.622 71.7604 152.323 71.4688 151.938C71.1771 151.552 70.9531 151.099 70.7969 150.578C70.6458 150.052 70.5703 149.482 70.5703 148.867ZM72.0156 148.703V148.867C72.0156 149.289 72.0573 149.685 72.1406 150.055C72.2292 150.424 72.362 150.75 72.5391 151.031C72.7214 151.312 72.9531 151.534 73.2344 151.695C73.5156 151.852 73.8516 151.93 74.2422 151.93C74.7214 151.93 75.1172 151.828 75.4297 151.625C75.7422 151.422 75.9896 151.154 76.1719 150.82C76.3594 150.487 76.5052 150.125 76.6094 149.734V147.852C76.5521 147.565 76.4635 147.289 76.3438 147.023C76.2292 146.753 76.0781 146.513 75.8906 146.305C75.7083 146.091 75.4818 145.922 75.2109 145.797C74.9401 145.672 74.6224 145.609 74.2578 145.609C73.862 145.609 73.5208 145.693 73.2344 145.859C72.9531 146.021 72.7214 146.245 72.5391 146.531C72.362 146.812 72.2292 147.141 72.1406 147.516C72.0573 147.885 72.0156 148.281 72.0156 148.703Z" fill="#212121"/>
<path fill-rule="evenodd" clip-rule="evenodd" d="M110.494 143C111.111 143 111.649 142.665 111.937 142.166H113.827C114.287 142.166 114.66 142.539 114.66 143V144.771C113.223 145.141 112.16 146.447 112.16 148C112.16 149.553 113.223 150.858 114.66 151.228V153C114.66 153.46 114.287 153.833 113.827 153.833H111.937C111.649 153.335 111.111 153 110.494 153C109.877 153 109.338 153.335 109.05 153.833H100.494C100.034 153.833 99.6605 153.46 99.6605 153V151.228C101.098 150.858 102.16 149.553 102.16 148C102.16 146.447 101.098 145.141 99.6605 144.771V143C99.6605 142.539 100.034 142.166 100.494 142.166H109.05C109.338 142.665 109.877 143 110.494 143ZM112.994 148C112.994 146.619 114.113 145.5 115.494 145.5V143C115.494 142.079 114.748 141.333 113.827 141.333H111.327C111.327 141.793 110.954 142.166 110.494 142.166C110.034 142.166 109.66 141.793 109.66 141.333H100.494C99.5733 141.333 98.8271 142.079 98.8271 143V145.5C100.208 145.5 101.327 146.619 101.327 148C101.327 149.38 100.208 150.5 98.8271 150.5V153C98.8271 153.92 99.5733 154.666 100.494 154.666H109.66C109.66 154.206 110.034 153.833 110.494 153.833C110.954 153.833 111.327 154.206 111.327 154.666H113.827C114.748 154.666 115.494 153.92 115.494 153V150.5C114.113 150.5 112.994 149.38 112.994 148ZM110.494 145.5C110.954 145.5 111.327 145.127 111.327 144.666C111.327 144.206 110.954 143.833 110.494 143.833C110.034 143.833 109.66 144.206 109.66 144.666C109.66 145.127 110.034 145.5 110.494 145.5ZM110.494 148.833C110.954 148.833 111.327 148.46 111.327 148C111.327 147.539 110.954 147.166 110.494 147.166C110.034 147.166 109.66 147.539 109.66 148C109.66 148.46 110.034 148.833 110.494 148.833ZM111.327 151.333C111.327 151.793 110.954 152.166 110.494 152.166C110.034 152.166 109.66 151.793 109.66 151.333C109.66 150.873 110.034 150.5 110.494 150.5C110.954 150.5 111.327 150.873 111.327 151.333Z" fill="#707070"/>
<path d="M125.988 141.625V153H124.48V141.625H125.988ZM130.754 146.742V147.977H125.66V146.742H130.754ZM131.527 141.625V142.859H125.66V141.625H131.527ZM134.348 145.875V153H132.902V144.547H134.309L134.348 145.875ZM136.988 144.5L136.98 145.844C136.861 145.818 136.746 145.802 136.637 145.797C136.533 145.786 136.413 145.781 136.277 145.781C135.944 145.781 135.65 145.833 135.395 145.938C135.139 146.042 134.923 146.188 134.746 146.375C134.569 146.562 134.428 146.786 134.324 147.047C134.225 147.302 134.16 147.583 134.129 147.891L133.723 148.125C133.723 147.615 133.772 147.135 133.871 146.688C133.975 146.24 134.134 145.844 134.348 145.5C134.561 145.151 134.832 144.88 135.16 144.688C135.493 144.49 135.889 144.391 136.348 144.391C136.452 144.391 136.572 144.404 136.707 144.43C136.842 144.451 136.936 144.474 136.988 144.5ZM141.676 153.156C141.087 153.156 140.553 153.057 140.074 152.859C139.6 152.656 139.191 152.372 138.848 152.008C138.509 151.643 138.249 151.211 138.066 150.711C137.884 150.211 137.793 149.664 137.793 149.07V148.742C137.793 148.055 137.895 147.443 138.098 146.906C138.301 146.365 138.577 145.906 138.926 145.531C139.275 145.156 139.671 144.872 140.113 144.68C140.556 144.487 141.014 144.391 141.488 144.391C142.092 144.391 142.613 144.495 143.051 144.703C143.493 144.911 143.855 145.203 144.137 145.578C144.418 145.948 144.626 146.385 144.762 146.891C144.897 147.391 144.965 147.938 144.965 148.531V149.18H138.652V148H143.52V147.891C143.499 147.516 143.421 147.151 143.285 146.797C143.155 146.443 142.947 146.151 142.66 145.922C142.374 145.693 141.983 145.578 141.488 145.578C141.16 145.578 140.858 145.648 140.582 145.789C140.306 145.924 140.069 146.128 139.871 146.398C139.673 146.669 139.52 147 139.41 147.391C139.301 147.781 139.246 148.232 139.246 148.742V149.07C139.246 149.471 139.301 149.849 139.41 150.203C139.525 150.552 139.689 150.859 139.902 151.125C140.121 151.391 140.384 151.599 140.691 151.75C141.004 151.901 141.358 151.977 141.754 151.977C142.264 151.977 142.697 151.872 143.051 151.664C143.405 151.456 143.715 151.177 143.98 150.828L144.855 151.523C144.673 151.799 144.441 152.062 144.16 152.312C143.879 152.562 143.533 152.766 143.121 152.922C142.715 153.078 142.233 153.156 141.676 153.156ZM150.16 153.156C149.572 153.156 149.038 153.057 148.559 152.859C148.085 152.656 147.676 152.372 147.332 152.008C146.993 151.643 146.733 151.211 146.551 150.711C146.368 150.211 146.277 149.664 146.277 149.07V148.742C146.277 148.055 146.379 147.443 146.582 146.906C146.785 146.365 147.061 145.906 147.41 145.531C147.759 145.156 148.155 144.872 148.598 144.68C149.04 144.487 149.499 144.391 149.973 144.391C150.577 144.391 151.098 144.495 151.535 144.703C151.978 144.911 152.34 145.203 152.621 145.578C152.902 145.948 153.111 146.385 153.246 146.891C153.382 147.391 153.449 147.938 153.449 148.531V149.18H147.137V148H152.004V147.891C151.983 147.516 151.905 147.151 151.77 146.797C151.639 146.443 151.431 146.151 151.145 145.922C150.858 145.693 150.467 145.578 149.973 145.578C149.645 145.578 149.342 145.648 149.066 145.789C148.79 145.924 148.553 146.128 148.355 146.398C148.158 146.669 148.004 147 147.895 147.391C147.785 147.781 147.73 148.232 147.73 148.742V149.07C147.73 149.471 147.785 149.849 147.895 150.203C148.009 150.552 148.173 150.859 148.387 151.125C148.605 151.391 148.868 151.599 149.176 151.75C149.488 151.901 149.842 151.977 150.238 151.977C150.749 151.977 151.181 151.872 151.535 151.664C151.889 151.456 152.199 151.177 152.465 150.828L153.34 151.523C153.158 151.799 152.926 152.062 152.645 152.312C152.363 152.562 152.017 152.766 151.605 152.922C151.199 153.078 150.717 153.156 150.16 153.156Z" fill="#212121"/>
<defs>
<clipPath id="clip0_2_2061">
<rect width="256" height="48" fill="white"/>
</clipPath>
</defs>
</svg>
