<svg width="272" height="214" viewBox="0 0 272 214" fill="none" xmlns="http://www.w3.org/2000/svg">
<path d="M1.35742 4.78125H6.52344C7.60417 4.78125 8.5319 4.94401 9.30664 5.26953C10.0814 5.59505 10.6771 6.07682 11.0938 6.71484C11.5104 7.35286 11.7188 8.13737 11.7188 9.06836C11.7188 9.80404 11.5885 10.4421 11.3281 10.9824C11.0677 11.5228 10.6999 11.9753 10.2246 12.3398C9.75586 12.7044 9.20247 12.9909 8.56445 13.1992L7.72461 13.6289H3.16406L3.14453 11.5098H6.55273C7.10612 11.5098 7.5651 11.4121 7.92969 11.2168C8.29427 11.0215 8.56771 10.7513 8.75 10.4062C8.9388 10.0612 9.0332 9.66732 9.0332 9.22461C9.0332 8.74935 8.94206 8.33919 8.75977 7.99414C8.57747 7.64258 8.30078 7.3724 7.92969 7.18359C7.55859 6.99479 7.08984 6.90039 6.52344 6.90039H4.04297V19H1.35742V4.78125ZM9.38477 19L6.09375 12.6328L8.93555 12.623L12.2656 18.8633V19H9.38477ZM25.5859 11.5293V12.2617C25.5859 13.3359 25.4427 14.3027 25.1562 15.1621C24.8698 16.015 24.4629 16.7409 23.9355 17.3398C23.4082 17.9388 22.7799 18.3978 22.0508 18.7168C21.3216 19.0358 20.5111 19.1953 19.6191 19.1953C18.7402 19.1953 17.9329 19.0358 17.1973 18.7168C16.4681 18.3978 15.8366 17.9388 15.3027 17.3398C14.7689 16.7409 14.3555 16.015 14.0625 15.1621C13.7695 14.3027 13.623 13.3359 13.623 12.2617V11.5293C13.623 10.4486 13.7695 9.48177 14.0625 8.62891C14.3555 7.77604 14.7656 7.05013 15.293 6.45117C15.8203 5.8457 16.4486 5.38346 17.1777 5.06445C17.9134 4.74544 18.7207 4.58594 19.5996 4.58594C20.4915 4.58594 21.3021 4.74544 22.0312 5.06445C22.7604 5.38346 23.3887 5.8457 23.916 6.45117C24.4499 7.05013 24.86 7.77604 25.1465 8.62891C25.4395 9.48177 25.5859 10.4486 25.5859 11.5293ZM22.8711 12.2617V11.5098C22.8711 10.735 22.7995 10.0547 22.6562 9.46875C22.513 8.8763 22.3014 8.37826 22.0215 7.97461C21.7415 7.57096 21.3965 7.26823 20.9863 7.06641C20.5762 6.85807 20.1139 6.75391 19.5996 6.75391C19.0788 6.75391 18.6165 6.85807 18.2129 7.06641C17.8158 7.26823 17.4772 7.57096 17.1973 7.97461C16.9173 8.37826 16.7025 8.8763 16.5527 9.46875C16.4095 10.0547 16.3379 10.735 16.3379 11.5098V12.2617C16.3379 13.0299 16.4095 13.7103 16.5527 14.3027C16.7025 14.8952 16.9173 15.3965 17.1973 15.8066C17.4837 16.2103 17.8288 16.5163 18.2324 16.7246C18.6361 16.9329 19.0983 17.0371 19.6191 17.0371C20.14 17.0371 20.6022 16.9329 21.0059 16.7246C21.4095 16.5163 21.748 16.2103 22.0215 15.8066C22.3014 15.3965 22.513 14.8952 22.6562 14.3027C22.7995 13.7103 22.8711 13.0299 22.8711 12.2617ZM35.3027 15.3086C35.3027 15.0352 35.2604 14.791 35.1758 14.5762C35.0977 14.3548 34.9512 14.1562 34.7363 13.9805C34.528 13.7982 34.2318 13.6224 33.8477 13.4531C33.4701 13.2773 32.9818 13.0951 32.3828 12.9062C31.7188 12.6979 31.1003 12.4635 30.5273 12.2031C29.9544 11.9427 29.4499 11.64 29.0137 11.2949C28.584 10.9499 28.2487 10.5527 28.0078 10.1035C27.7669 9.64779 27.6465 9.12044 27.6465 8.52148C27.6465 7.93555 27.7702 7.40169 28.0176 6.91992C28.2715 6.43815 28.6296 6.02474 29.0918 5.67969C29.554 5.32812 30.0977 5.05794 30.7227 4.86914C31.3542 4.68034 32.0508 4.58594 32.8125 4.58594C33.8672 4.58594 34.7786 4.77799 35.5469 5.16211C36.3216 5.54622 36.9206 6.06706 37.3438 6.72461C37.7669 7.38216 37.9785 8.12109 37.9785 8.94141H35.3027C35.3027 8.4987 35.2083 8.10807 35.0195 7.76953C34.8372 7.43099 34.5573 7.16406 34.1797 6.96875C33.8086 6.77344 33.3398 6.67578 32.7734 6.67578C32.2266 6.67578 31.7708 6.75716 31.4062 6.91992C31.0482 7.08268 30.778 7.30404 30.5957 7.58398C30.4199 7.86393 30.332 8.17643 30.332 8.52148C30.332 8.7819 30.3939 9.01628 30.5176 9.22461C30.6413 9.42643 30.8268 9.61849 31.0742 9.80078C31.3216 9.97656 31.6276 10.1426 31.9922 10.2988C32.3633 10.4486 32.793 10.5983 33.2812 10.748C34.0625 10.9824 34.7461 11.2428 35.332 11.5293C35.9245 11.8158 36.416 12.1413 36.8066 12.5059C37.2038 12.8704 37.5 13.2806 37.6953 13.7363C37.8971 14.1921 37.998 14.7096 37.998 15.2891C37.998 15.901 37.8776 16.4479 37.6367 16.9297C37.3958 17.4115 37.0508 17.8216 36.6016 18.1602C36.1523 18.4987 35.612 18.7559 34.9805 18.9316C34.3555 19.1074 33.6556 19.1953 32.8809 19.1953C32.1908 19.1953 31.5072 19.1042 30.8301 18.9219C30.1595 18.7331 29.5508 18.4531 29.0039 18.082C28.457 17.7044 28.0208 17.2292 27.6953 16.6562C27.3698 16.0768 27.207 15.3997 27.207 14.625H29.9023C29.9023 15.0742 29.974 15.4583 30.1172 15.7773C30.2669 16.0898 30.4753 16.347 30.7422 16.5488C31.0156 16.7441 31.3346 16.8874 31.6992 16.9785C32.0638 17.0697 32.4577 17.1152 32.8809 17.1152C33.4277 17.1152 33.877 17.0404 34.2285 16.8906C34.5866 16.7344 34.8535 16.5195 35.0293 16.2461C35.2116 15.9727 35.3027 15.6602 35.3027 15.3086ZM50.498 12.6621H46.8652L46.8457 10.7676H49.9609C50.4948 10.7676 50.9408 10.6927 51.2988 10.543C51.6569 10.3932 51.9271 10.1751 52.1094 9.88867C52.2982 9.60221 52.3926 9.25391 52.3926 8.84375C52.3926 8.38802 52.3047 8.01693 52.1289 7.73047C51.9596 7.44401 51.6927 7.23568 51.3281 7.10547C50.9635 6.96875 50.5013 6.90039 49.9414 6.90039H47.7344V19H45.0488V4.78125H49.9414C50.7487 4.78125 51.4681 4.85938 52.0996 5.01562C52.7376 5.16536 53.278 5.39974 53.7207 5.71875C54.1634 6.03776 54.4987 6.43815 54.7266 6.91992C54.9609 7.40169 55.0781 7.97461 55.0781 8.63867C55.0781 9.22461 54.9414 9.76497 54.668 10.2598C54.401 10.748 53.9876 11.1452 53.4277 11.4512C52.8743 11.7572 52.1712 11.9329 51.3184 11.9785L50.498 12.6621ZM50.3809 19H46.0742L47.1973 16.8906H50.3809C50.9147 16.8906 51.3542 16.8027 51.6992 16.627C52.0508 16.4512 52.3112 16.2103 52.4805 15.9043C52.6562 15.5918 52.7441 15.2337 52.7441 14.8301C52.7441 14.3874 52.666 14.0033 52.5098 13.6777C52.36 13.3522 52.1191 13.1016 51.7871 12.9258C51.4616 12.75 51.0319 12.6621 50.498 12.6621H47.7051L47.7246 10.7676H51.2793L51.8945 11.5C52.7148 11.5065 53.3822 11.6693 53.8965 11.9883C54.4173 12.3073 54.8014 12.7174 55.0488 13.2188C55.2962 13.7201 55.4199 14.2604 55.4199 14.8398C55.4199 15.7513 55.2214 16.5163 54.8242 17.1348C54.4336 17.7533 53.8607 18.2188 53.1055 18.5312C52.3568 18.8438 51.4486 19 50.3809 19ZM60.6445 17.8281L63.4766 8.43359H66.2402L62.002 20.6016C61.9043 20.862 61.7773 21.1452 61.6211 21.4512C61.4714 21.7572 61.2695 22.0469 61.0156 22.3203C60.7617 22.6003 60.4427 22.8281 60.0586 23.0039C59.681 23.1797 59.222 23.2676 58.6816 23.2676C58.4473 23.2676 58.2389 23.2513 58.0566 23.2188C57.8743 23.1862 57.6823 23.1439 57.4805 23.0918V21.1582C57.5456 21.1647 57.6204 21.168 57.7051 21.168C57.7962 21.1745 57.8743 21.1777 57.9395 21.1777C58.3171 21.1777 58.6296 21.1322 58.877 21.041C59.1243 20.9564 59.3229 20.8164 59.4727 20.6211C59.6289 20.4323 59.7591 20.1849 59.8633 19.8789L60.6445 17.8281ZM59.248 8.43359L61.6406 16.2168L62.0605 18.9414L60.2832 19.2637L56.4648 8.43359H59.248ZM72.627 11.8906V13.9316H67.2852V11.8906H72.627ZM81.1328 4.78125V19H78.457V4.78125H81.1328ZM85.5469 4.78125V6.90039H74.0918V4.78125H85.5469ZM89.668 4V19H87.0801V4H89.668ZM89.2578 13.3359H88.4961C88.4961 12.6003 88.5938 11.9232 88.7891 11.3047C88.9844 10.6862 89.2611 10.1491 89.6191 9.69336C89.9772 9.23112 90.4036 8.87305 90.8984 8.61914C91.3997 8.36523 91.9531 8.23828 92.5586 8.23828C93.0794 8.23828 93.5514 8.31315 93.9746 8.46289C94.4043 8.60612 94.7721 8.83724 95.0781 9.15625C95.3841 9.47526 95.6185 9.89193 95.7812 10.4062C95.9505 10.9141 96.0352 11.5326 96.0352 12.2617V19H93.4375V12.2422C93.4375 11.7539 93.3659 11.3698 93.2227 11.0898C93.0794 10.8034 92.8743 10.5983 92.6074 10.4746C92.347 10.3509 92.0247 10.2891 91.6406 10.2891C91.224 10.2891 90.8659 10.3704 90.5664 10.5332C90.2669 10.6895 90.0195 10.9076 89.8242 11.1875C89.6354 11.4674 89.4922 11.7897 89.3945 12.1543C89.3034 12.5189 89.2578 12.9128 89.2578 13.3359ZM103.057 19.1953C102.256 19.1953 101.536 19.0651 100.898 18.8047C100.26 18.5443 99.7168 18.1829 99.2676 17.7207C98.8249 17.252 98.4831 16.7083 98.2422 16.0898C98.0078 15.4648 97.8906 14.7943 97.8906 14.0781V13.6875C97.8906 12.8737 98.0078 12.1348 98.2422 11.4707C98.4766 10.8001 98.8086 10.224 99.2383 9.74219C99.668 9.26042 100.182 8.88932 100.781 8.62891C101.38 8.36849 102.041 8.23828 102.764 8.23828C103.512 8.23828 104.173 8.36523 104.746 8.61914C105.319 8.86654 105.798 9.2181 106.182 9.67383C106.566 10.1296 106.855 10.6764 107.051 11.3145C107.246 11.946 107.344 12.6458 107.344 13.4141V14.498H99.0625V12.7207H104.805V12.5254C104.792 12.1152 104.714 11.7409 104.57 11.4023C104.427 11.0573 104.206 10.7839 103.906 10.582C103.607 10.3737 103.219 10.2695 102.744 10.2695C102.36 10.2695 102.025 10.3542 101.738 10.5234C101.458 10.6862 101.224 10.9206 101.035 11.2266C100.853 11.526 100.716 11.8841 100.625 12.3008C100.534 12.7174 100.488 13.1797 100.488 13.6875V14.0781C100.488 14.5208 100.547 14.931 100.664 15.3086C100.788 15.6862 100.967 16.015 101.201 16.2949C101.442 16.5684 101.729 16.7832 102.061 16.9395C102.399 17.0892 102.783 17.1641 103.213 17.1641C103.753 17.1641 104.242 17.0599 104.678 16.8516C105.12 16.6367 105.505 16.321 105.83 15.9043L107.129 17.252C106.908 17.5775 106.608 17.89 106.23 18.1895C105.859 18.4889 105.41 18.7331 104.883 18.9219C104.355 19.1042 103.747 19.1953 103.057 19.1953ZM114.209 11.8906V13.9316H108.867V11.8906H114.209ZM122.061 12.6621H118.428L118.408 10.7676H121.523C122.057 10.7676 122.503 10.6927 122.861 10.543C123.219 10.3932 123.49 10.1751 123.672 9.88867C123.861 9.60221 123.955 9.25391 123.955 8.84375C123.955 8.38802 123.867 8.01693 123.691 7.73047C123.522 7.44401 123.255 7.23568 122.891 7.10547C122.526 6.96875 122.064 6.90039 121.504 6.90039H119.297V19H116.611V4.78125H121.504C122.311 4.78125 123.031 4.85938 123.662 5.01562C124.3 5.16536 124.84 5.39974 125.283 5.71875C125.726 6.03776 126.061 6.43815 126.289 6.91992C126.523 7.40169 126.641 7.97461 126.641 8.63867C126.641 9.22461 126.504 9.76497 126.23 10.2598C125.964 10.748 125.55 11.1452 124.99 11.4512C124.437 11.7572 123.734 11.9329 122.881 11.9785L122.061 12.6621ZM121.943 19H117.637L118.76 16.8906H121.943C122.477 16.8906 122.917 16.8027 123.262 16.627C123.613 16.4512 123.874 16.2103 124.043 15.9043C124.219 15.5918 124.307 15.2337 124.307 14.8301C124.307 14.3874 124.229 14.0033 124.072 13.6777C123.923 13.3522 123.682 13.1016 123.35 12.9258C123.024 12.75 122.594 12.6621 122.061 12.6621H119.268L119.287 10.7676H122.842L123.457 11.5C124.277 11.5065 124.945 11.6693 125.459 11.9883C125.98 12.3073 126.364 12.7174 126.611 13.2188C126.859 13.7201 126.982 14.2604 126.982 14.8398C126.982 15.7513 126.784 16.5163 126.387 17.1348C125.996 17.7533 125.423 18.2188 124.668 18.5312C123.919 18.8438 123.011 19 121.943 19ZM134.932 16.7539V11.8809C134.932 11.5228 134.87 11.2135 134.746 10.9531C134.622 10.6927 134.434 10.4909 134.18 10.3477C133.926 10.2044 133.604 10.1328 133.213 10.1328C132.868 10.1328 132.565 10.1914 132.305 10.3086C132.051 10.4258 131.855 10.5918 131.719 10.8066C131.582 11.015 131.514 11.2559 131.514 11.5293H128.926C128.926 11.0931 129.03 10.6797 129.238 10.2891C129.447 9.89193 129.743 9.54036 130.127 9.23438C130.518 8.92188 130.983 8.67773 131.523 8.50195C132.07 8.32617 132.682 8.23828 133.359 8.23828C134.16 8.23828 134.873 8.375 135.498 8.64844C136.13 8.91536 136.624 9.31901 136.982 9.85938C137.347 10.3997 137.529 11.0801 137.529 11.9004V16.5098C137.529 17.0371 137.562 17.4896 137.627 17.8672C137.699 18.2383 137.803 18.5605 137.939 18.834V19H135.312C135.189 18.7331 135.094 18.3945 135.029 17.9844C134.964 17.5677 134.932 17.1576 134.932 16.7539ZM135.293 12.5645L135.312 14.0977H133.682C133.278 14.0977 132.923 14.14 132.617 14.2246C132.311 14.3027 132.061 14.4199 131.865 14.5762C131.67 14.7259 131.523 14.9082 131.426 15.123C131.328 15.3314 131.279 15.569 131.279 15.8359C131.279 16.0964 131.338 16.3307 131.455 16.5391C131.579 16.7474 131.755 16.9134 131.982 17.0371C132.217 17.1543 132.49 17.2129 132.803 17.2129C133.258 17.2129 133.656 17.1217 133.994 16.9395C134.333 16.7507 134.596 16.5228 134.785 16.2559C134.974 15.9889 135.075 15.735 135.088 15.4941L135.83 16.6074C135.739 16.8743 135.602 17.1576 135.42 17.457C135.238 17.7565 135.003 18.0365 134.717 18.2969C134.43 18.5573 134.085 18.7721 133.682 18.9414C133.278 19.1107 132.809 19.1953 132.275 19.1953C131.592 19.1953 130.98 19.0586 130.439 18.7852C129.899 18.5117 129.473 18.1374 129.16 17.6621C128.848 17.1868 128.691 16.6465 128.691 16.041C128.691 15.4811 128.796 14.9863 129.004 14.5566C129.212 14.127 129.521 13.7656 129.932 13.4727C130.342 13.1732 130.85 12.9486 131.455 12.7988C132.067 12.6426 132.767 12.5645 133.555 12.5645H135.293ZM142.793 17.8281L145.625 8.43359H148.389L144.15 20.6016C144.053 20.862 143.926 21.1452 143.77 21.4512C143.62 21.7572 143.418 22.0469 143.164 22.3203C142.91 22.6003 142.591 22.8281 142.207 23.0039C141.829 23.1797 141.37 23.2676 140.83 23.2676C140.596 23.2676 140.387 23.2513 140.205 23.2188C140.023 23.1862 139.831 23.1439 139.629 23.0918V21.1582C139.694 21.1647 139.769 21.168 139.854 21.168C139.945 21.1745 140.023 21.1777 140.088 21.1777C140.465 21.1777 140.778 21.1322 141.025 21.041C141.273 20.9564 141.471 20.8164 141.621 20.6211C141.777 20.4323 141.908 20.1849 142.012 19.8789L142.793 17.8281ZM141.396 8.43359L143.789 16.2168L144.209 18.9414L142.432 19.2637L138.613 8.43359H141.396ZM155.986 4.78125H158.311L162.197 15.4844L166.074 4.78125H168.408L163.125 19H161.26L155.986 4.78125ZM154.814 4.78125H157.09L157.5 14.6152V19H154.814V4.78125ZM167.295 4.78125H169.58V19H166.895V14.6152L167.295 4.78125ZM177.939 16.7539V11.8809C177.939 11.5228 177.878 11.2135 177.754 10.9531C177.63 10.6927 177.441 10.4909 177.188 10.3477C176.934 10.2044 176.611 10.1328 176.221 10.1328C175.876 10.1328 175.573 10.1914 175.312 10.3086C175.059 10.4258 174.863 10.5918 174.727 10.8066C174.59 11.015 174.521 11.2559 174.521 11.5293H171.934C171.934 11.0931 172.038 10.6797 172.246 10.2891C172.454 9.89193 172.751 9.54036 173.135 9.23438C173.525 8.92188 173.991 8.67773 174.531 8.50195C175.078 8.32617 175.69 8.23828 176.367 8.23828C177.168 8.23828 177.881 8.375 178.506 8.64844C179.137 8.91536 179.632 9.31901 179.99 9.85938C180.355 10.3997 180.537 11.0801 180.537 11.9004V16.5098C180.537 17.0371 180.57 17.4896 180.635 17.8672C180.706 18.2383 180.811 18.5605 180.947 18.834V19H178.32C178.197 18.7331 178.102 18.3945 178.037 17.9844C177.972 17.5677 177.939 17.1576 177.939 16.7539ZM178.301 12.5645L178.32 14.0977H176.689C176.286 14.0977 175.931 14.14 175.625 14.2246C175.319 14.3027 175.068 14.4199 174.873 14.5762C174.678 14.7259 174.531 14.9082 174.434 15.123C174.336 15.3314 174.287 15.569 174.287 15.8359C174.287 16.0964 174.346 16.3307 174.463 16.5391C174.587 16.7474 174.762 16.9134 174.99 17.0371C175.225 17.1543 175.498 17.2129 175.811 17.2129C176.266 17.2129 176.663 17.1217 177.002 16.9395C177.34 16.7507 177.604 16.5228 177.793 16.2559C177.982 15.9889 178.083 15.735 178.096 15.4941L178.838 16.6074C178.747 16.8743 178.61 17.1576 178.428 17.457C178.245 17.7565 178.011 18.0365 177.725 18.2969C177.438 18.5573 177.093 18.7721 176.689 18.9414C176.286 19.1107 175.817 19.1953 175.283 19.1953C174.6 19.1953 173.988 19.0586 173.447 18.7852C172.907 18.5117 172.48 18.1374 172.168 17.6621C171.855 17.1868 171.699 16.6465 171.699 16.041C171.699 15.4811 171.803 14.9863 172.012 14.5566C172.22 14.127 172.529 13.7656 172.939 13.4727C173.35 13.1732 173.857 12.9486 174.463 12.7988C175.075 12.6426 175.775 12.5645 176.562 12.5645H178.301ZM185.439 10.5918V19H182.861V8.43359H185.303L185.439 10.5918ZM188.652 8.36523L188.613 10.7676C188.47 10.7415 188.307 10.722 188.125 10.709C187.949 10.696 187.783 10.6895 187.627 10.6895C187.23 10.6895 186.882 10.7448 186.582 10.8555C186.283 10.9596 186.032 11.1126 185.83 11.3145C185.635 11.5163 185.485 11.7637 185.381 12.0566C185.277 12.3431 185.218 12.6686 185.205 13.0332L184.648 12.9648C184.648 12.2943 184.717 11.6725 184.854 11.0996C184.99 10.5267 185.189 10.0254 185.449 9.5957C185.71 9.16602 186.035 8.83398 186.426 8.59961C186.823 8.35872 187.279 8.23828 187.793 8.23828C187.936 8.23828 188.089 8.2513 188.252 8.27734C188.421 8.29688 188.555 8.32617 188.652 8.36523ZM194.209 17.1641C194.574 17.1641 194.899 17.0924 195.186 16.9492C195.472 16.806 195.7 16.6042 195.869 16.3438C196.045 16.0833 196.139 15.7806 196.152 15.4355H198.584C198.571 16.1517 198.369 16.793 197.979 17.3594C197.588 17.9258 197.067 18.375 196.416 18.707C195.771 19.0326 195.049 19.1953 194.248 19.1953C193.434 19.1953 192.725 19.0586 192.119 18.7852C191.514 18.5117 191.009 18.1309 190.605 17.6426C190.208 17.1543 189.909 16.5879 189.707 15.9434C189.512 15.2988 189.414 14.6087 189.414 13.873V13.5605C189.414 12.8249 189.512 12.1348 189.707 11.4902C189.909 10.8457 190.208 10.2793 190.605 9.79102C191.009 9.30273 191.514 8.92188 192.119 8.64844C192.725 8.375 193.431 8.23828 194.238 8.23828C195.091 8.23828 195.84 8.4043 196.484 8.73633C197.135 9.06836 197.643 9.53711 198.008 10.1426C198.379 10.748 198.571 11.4609 198.584 12.2812H196.152C196.139 11.9036 196.055 11.5651 195.898 11.2656C195.742 10.9661 195.521 10.7253 195.234 10.543C194.948 10.3607 194.6 10.2695 194.189 10.2695C193.753 10.2695 193.389 10.3607 193.096 10.543C192.809 10.7253 192.585 10.9759 192.422 11.2949C192.266 11.6074 192.155 11.959 192.09 12.3496C192.031 12.7337 192.002 13.1374 192.002 13.5605V13.873C192.002 14.3027 192.031 14.7129 192.09 15.1035C192.155 15.4941 192.266 15.8457 192.422 16.1582C192.585 16.4642 192.809 16.7083 193.096 16.8906C193.389 17.0729 193.76 17.1641 194.209 17.1641ZM202.832 4V19H200.244V4H202.832ZM202.422 13.3359H201.66C201.66 12.6003 201.758 11.9232 201.953 11.3047C202.148 10.6862 202.425 10.1491 202.783 9.69336C203.141 9.23112 203.568 8.87305 204.062 8.61914C204.564 8.36523 205.117 8.23828 205.723 8.23828C206.243 8.23828 206.715 8.31315 207.139 8.46289C207.568 8.60612 207.936 8.83724 208.242 9.15625C208.548 9.47526 208.783 9.89193 208.945 10.4062C209.115 10.9141 209.199 11.5326 209.199 12.2617V19H206.602V12.2422C206.602 11.7539 206.53 11.3698 206.387 11.0898C206.243 10.8034 206.038 10.5983 205.771 10.4746C205.511 10.3509 205.189 10.2891 204.805 10.2891C204.388 10.2891 204.03 10.3704 203.73 10.5332C203.431 10.6895 203.184 10.9076 202.988 11.1875C202.799 11.4674 202.656 11.7897 202.559 12.1543C202.467 12.5189 202.422 12.9128 202.422 13.3359ZM10.6543 40.9688V43H1.02539V41.2617L5.64453 36.2715C6.1263 35.7246 6.50716 35.2493 6.78711 34.8457C7.06706 34.4421 7.26562 34.0775 7.38281 33.752C7.50651 33.4199 7.56836 33.1042 7.56836 32.8047C7.56836 32.3685 7.49023 31.9876 7.33398 31.6621C7.17773 31.3301 6.94987 31.0729 6.65039 30.8906C6.35742 30.7083 5.99609 30.6172 5.56641 30.6172C5.09115 30.6172 4.68424 30.7279 4.3457 30.9492C4.01367 31.1641 3.75977 31.4635 3.58398 31.8477C3.41471 32.2318 3.33008 32.6712 3.33008 33.166H0.742188C0.742188 32.3262 0.9375 31.5612 1.32812 30.8711C1.71875 30.1745 2.27865 29.6178 3.00781 29.2012C3.73698 28.7845 4.60286 28.5762 5.60547 28.5762C6.58203 28.5762 7.40885 28.7389 8.08594 29.0645C8.76302 29.3835 9.27734 29.8392 9.62891 30.4316C9.98047 31.0241 10.1562 31.7305 10.1562 32.5508C10.1562 33.0065 10.0814 33.4557 9.93164 33.8984C9.7819 34.3411 9.57031 34.7806 9.29688 35.2168C9.02995 35.6465 8.71094 36.0827 8.33984 36.5254C7.96875 36.9681 7.55534 37.4206 7.09961 37.8828L4.32617 40.9688H10.6543ZM21.8652 34.6699V37.0625C21.8652 38.1562 21.7546 39.0905 21.5332 39.8652C21.3118 40.64 20.9928 41.2747 20.5762 41.7695C20.1595 42.2578 19.6615 42.6191 19.082 42.8535C18.5026 43.0814 17.8581 43.1953 17.1484 43.1953C16.582 43.1953 16.0547 43.1237 15.5664 42.9805C15.0781 42.8307 14.6387 42.6029 14.248 42.2969C13.8639 41.9844 13.5319 41.5872 13.252 41.1055C12.9785 40.6237 12.7669 40.0475 12.6172 39.377C12.474 38.7064 12.4023 37.9349 12.4023 37.0625V34.6699C12.4023 33.5762 12.513 32.6452 12.7344 31.877C12.9622 31.1087 13.2845 30.4805 13.7012 29.9922C14.1178 29.5039 14.6159 29.1491 15.1953 28.9277C15.7747 28.6999 16.4193 28.5859 17.1289 28.5859C17.7018 28.5859 18.2292 28.6576 18.7109 28.8008C19.1992 28.944 19.6354 29.1686 20.0195 29.4746C20.4102 29.7741 20.7422 30.1647 21.0156 30.6465C21.2891 31.1217 21.4974 31.6947 21.6406 32.3652C21.7904 33.0293 21.8652 33.7975 21.8652 34.6699ZM19.2871 37.4141V34.3086C19.2871 33.7617 19.2546 33.2865 19.1895 32.8828C19.1309 32.4727 19.043 32.1243 18.9258 31.8379C18.8086 31.5514 18.6621 31.3203 18.4863 31.1445C18.3105 30.9622 18.1087 30.8288 17.8809 30.7441C17.653 30.6595 17.4023 30.6172 17.1289 30.6172C16.7904 30.6172 16.4876 30.6855 16.2207 30.8223C15.9538 30.9525 15.7292 31.1608 15.5469 31.4473C15.3646 31.7337 15.2246 32.1146 15.127 32.5898C15.0358 33.0586 14.9902 33.6315 14.9902 34.3086V37.4141C14.9902 37.9609 15.0195 38.4395 15.0781 38.8496C15.1432 39.2598 15.2344 39.6113 15.3516 39.9043C15.4753 40.1973 15.6217 40.4382 15.791 40.627C15.9668 40.8092 16.1686 40.946 16.3965 41.0371C16.6243 41.1217 16.875 41.1641 17.1484 41.1641C17.4935 41.1641 17.7962 41.0957 18.0566 40.959C18.3236 40.8223 18.5482 40.6074 18.7305 40.3145C18.9128 40.015 19.0495 39.6276 19.1406 39.1523C19.2383 38.6706 19.2871 38.0911 19.2871 37.4141ZM33.5059 40.9688V43H23.877V41.2617L28.4961 36.2715C28.9779 35.7246 29.3587 35.2493 29.6387 34.8457C29.9186 34.4421 30.1172 34.0775 30.2344 33.752C30.3581 33.4199 30.4199 33.1042 30.4199 32.8047C30.4199 32.3685 30.3418 31.9876 30.1855 31.6621C30.0293 31.3301 29.8014 31.0729 29.502 30.8906C29.209 30.7083 28.8477 30.6172 28.418 30.6172C27.9427 30.6172 27.5358 30.7279 27.1973 30.9492C26.8652 31.1641 26.6113 31.4635 26.4355 31.8477C26.2663 32.2318 26.1816 32.6712 26.1816 33.166H23.5938C23.5938 32.3262 23.7891 31.5612 24.1797 30.8711C24.5703 30.1745 25.1302 29.6178 25.8594 29.2012C26.5885 28.7845 27.4544 28.5762 28.457 28.5762C29.4336 28.5762 30.2604 28.7389 30.9375 29.0645C31.6146 29.3835 32.1289 29.8392 32.4805 30.4316C32.832 31.0241 33.0078 31.7305 33.0078 32.5508C33.0078 33.0065 32.9329 33.4557 32.7832 33.8984C32.6335 34.3411 32.4219 34.7806 32.1484 35.2168C31.8815 35.6465 31.5625 36.0827 31.1914 36.5254C30.8203 36.9681 30.4069 37.4206 29.9512 37.8828L27.1777 40.9688H33.5059ZM45.1758 37.8145V39.8457H34.9316L34.8242 38.2832L40.8496 28.7812H42.9102L40.6836 32.5605L37.4512 37.8145H45.1758ZM43.4863 28.7812V43H40.8984V28.7812H43.4863Z" fill="#212121"/>
<path d="M6.24805 68.4365C6.24805 68.2314 6.21615 68.0492 6.15234 67.8896C6.0931 67.7301 5.986 67.5843 5.83105 67.4521C5.67611 67.32 5.45736 67.1924 5.1748 67.0693C4.89681 66.9417 4.54134 66.8118 4.1084 66.6797C3.63444 66.5339 3.19694 66.3721 2.7959 66.1943C2.39941 66.012 2.05306 65.8024 1.75684 65.5654C1.46061 65.3239 1.23047 65.0482 1.06641 64.7383C0.902344 64.4238 0.820312 64.0615 0.820312 63.6514C0.820312 63.2458 0.904622 62.8766 1.07324 62.5439C1.24642 62.2113 1.49023 61.9242 1.80469 61.6826C2.1237 61.4365 2.49967 61.2474 2.93262 61.1152C3.36556 60.9785 3.84408 60.9102 4.36816 60.9102C5.10645 60.9102 5.74219 61.0469 6.27539 61.3203C6.81315 61.5938 7.22559 61.9606 7.5127 62.4209C7.80436 62.8812 7.9502 63.3893 7.9502 63.9453H6.24805C6.24805 63.6172 6.17741 63.3278 6.03613 63.0771C5.89941 62.8219 5.68978 62.6214 5.40723 62.4756C5.12923 62.3298 4.77604 62.2568 4.34766 62.2568C3.94206 62.2568 3.60482 62.3184 3.33594 62.4414C3.06706 62.5645 2.86654 62.7308 2.73438 62.9404C2.60221 63.1501 2.53613 63.387 2.53613 63.6514C2.53613 63.8382 2.57943 64.0091 2.66602 64.1641C2.7526 64.3145 2.88477 64.4557 3.0625 64.5879C3.24023 64.7155 3.46354 64.8363 3.73242 64.9502C4.0013 65.0641 4.31803 65.1735 4.68262 65.2783C5.23405 65.4424 5.71484 65.6247 6.125 65.8252C6.53516 66.0212 6.87695 66.2445 7.15039 66.4951C7.42383 66.7458 7.62891 67.0306 7.76562 67.3496C7.90234 67.6641 7.9707 68.0218 7.9707 68.4229C7.9707 68.8421 7.88639 69.2204 7.71777 69.5576C7.54915 69.8903 7.30762 70.1751 6.99316 70.4121C6.68327 70.6445 6.30957 70.8245 5.87207 70.9521C5.43913 71.0752 4.95605 71.1367 4.42285 71.1367C3.94434 71.1367 3.47266 71.0729 3.00781 70.9453C2.54753 70.8177 2.12826 70.624 1.75 70.3643C1.37174 70.0999 1.07096 69.7718 0.847656 69.3799C0.624349 68.9834 0.512695 68.5208 0.512695 67.9922H2.22852C2.22852 68.3158 2.2832 68.5915 2.39258 68.8193C2.50651 69.0472 2.66374 69.234 2.86426 69.3799C3.06478 69.5212 3.2972 69.626 3.56152 69.6943C3.8304 69.7627 4.11751 69.7969 4.42285 69.7969C4.82389 69.7969 5.15885 69.7399 5.42773 69.626C5.70117 69.512 5.90625 69.3525 6.04297 69.1475C6.17969 68.9424 6.24805 68.7054 6.24805 68.4365ZM9.00977 67.3838V67.2266C9.00977 66.6934 9.08724 66.1989 9.24219 65.7432C9.39714 65.2829 9.62044 64.8841 9.91211 64.5469C10.2083 64.2051 10.5684 63.9408 10.9922 63.7539C11.4206 63.5625 11.9036 63.4668 12.4414 63.4668C12.9837 63.4668 13.4668 63.5625 13.8906 63.7539C14.319 63.9408 14.6813 64.2051 14.9775 64.5469C15.2738 64.8841 15.4993 65.2829 15.6543 65.7432C15.8092 66.1989 15.8867 66.6934 15.8867 67.2266V67.3838C15.8867 67.917 15.8092 68.4115 15.6543 68.8672C15.4993 69.3229 15.2738 69.7217 14.9775 70.0635C14.6813 70.4007 14.3213 70.665 13.8975 70.8564C13.4736 71.0433 12.9928 71.1367 12.4551 71.1367C11.9128 71.1367 11.4274 71.0433 10.999 70.8564C10.5752 70.665 10.2152 70.4007 9.91895 70.0635C9.62272 69.7217 9.39714 69.3229 9.24219 68.8672C9.08724 68.4115 9.00977 67.917 9.00977 67.3838ZM10.6572 67.2266V67.3838C10.6572 67.7165 10.6914 68.0309 10.7598 68.3271C10.8281 68.6234 10.9352 68.8831 11.0811 69.1064C11.2269 69.3298 11.4137 69.5052 11.6416 69.6328C11.8695 69.7604 12.1406 69.8242 12.4551 69.8242C12.7604 69.8242 13.0247 69.7604 13.248 69.6328C13.4759 69.5052 13.6628 69.3298 13.8086 69.1064C13.9544 68.8831 14.0615 68.6234 14.1299 68.3271C14.2028 68.0309 14.2393 67.7165 14.2393 67.3838V67.2266C14.2393 66.8984 14.2028 66.5885 14.1299 66.2969C14.0615 66.0007 13.9521 65.7386 13.8018 65.5107C13.6559 65.2829 13.4691 65.1051 13.2412 64.9775C13.0179 64.8454 12.7513 64.7793 12.4414 64.7793C12.1315 64.7793 11.8626 64.8454 11.6348 64.9775C11.4115 65.1051 11.2269 65.2829 11.0811 65.5107C10.9352 65.7386 10.8281 66.0007 10.7598 66.2969C10.6914 66.5885 10.6572 66.8984 10.6572 67.2266ZM20.2891 69.8242C20.5579 69.8242 20.7995 69.7718 21.0137 69.667C21.2324 69.5576 21.4079 69.4072 21.54 69.2158C21.6768 69.0244 21.752 68.8034 21.7656 68.5527H23.3174C23.3083 69.0312 23.167 69.4665 22.8936 69.8584C22.6201 70.2503 22.2578 70.5625 21.8066 70.7949C21.3555 71.0228 20.8564 71.1367 20.3096 71.1367C19.7445 71.1367 19.2523 71.041 18.833 70.8496C18.4137 70.6536 18.0651 70.3848 17.7871 70.043C17.5091 69.7012 17.2995 69.307 17.1582 68.8604C17.0215 68.4137 16.9531 67.9352 16.9531 67.4248V67.1855C16.9531 66.6751 17.0215 66.1966 17.1582 65.75C17.2995 65.2988 17.5091 64.9023 17.7871 64.5605C18.0651 64.2188 18.4137 63.9521 18.833 63.7607C19.2523 63.5648 19.7422 63.4668 20.3027 63.4668C20.8952 63.4668 21.4147 63.5853 21.8613 63.8223C22.3079 64.0547 22.6589 64.3805 22.9141 64.7998C23.1738 65.2145 23.3083 65.6976 23.3174 66.249H21.7656C21.752 65.9756 21.6836 65.7295 21.5605 65.5107C21.4421 65.2874 21.2734 65.1097 21.0547 64.9775C20.8405 64.8454 20.583 64.7793 20.2822 64.7793C19.9495 64.7793 19.6738 64.8477 19.4551 64.9844C19.2363 65.1165 19.0654 65.2988 18.9424 65.5312C18.8193 65.7591 18.7305 66.0166 18.6758 66.3037C18.6257 66.5863 18.6006 66.8802 18.6006 67.1855V67.4248C18.6006 67.7301 18.6257 68.0264 18.6758 68.3135C18.7259 68.6006 18.8125 68.8581 18.9355 69.0859C19.0632 69.3092 19.2363 69.4893 19.4551 69.626C19.6738 69.7581 19.9518 69.8242 20.2891 69.8242ZM26.3457 63.6035V71H24.6914V63.6035H26.3457ZM24.582 61.6621C24.582 61.4115 24.6641 61.2041 24.8281 61.04C24.9967 60.8714 25.2292 60.7871 25.5254 60.7871C25.8171 60.7871 26.0472 60.8714 26.2158 61.04C26.3844 61.2041 26.4688 61.4115 26.4688 61.6621C26.4688 61.9082 26.3844 62.1133 26.2158 62.2773C26.0472 62.4414 25.8171 62.5234 25.5254 62.5234C25.2292 62.5234 24.9967 62.4414 24.8281 62.2773C24.6641 62.1133 24.582 61.9082 24.582 61.6621ZM32.3203 69.5166V65.9893C32.3203 65.7249 32.2725 65.4971 32.1768 65.3057C32.0811 65.1143 31.9352 64.9661 31.7393 64.8613C31.5479 64.7565 31.3063 64.7041 31.0146 64.7041C30.7458 64.7041 30.5133 64.7497 30.3174 64.8408C30.1214 64.932 29.9688 65.055 29.8594 65.21C29.75 65.3649 29.6953 65.5404 29.6953 65.7363H28.0547C28.0547 65.4447 28.1253 65.1621 28.2666 64.8887C28.4079 64.6152 28.613 64.3714 28.8818 64.1572C29.1507 63.943 29.472 63.7744 29.8457 63.6514C30.2194 63.5283 30.6387 63.4668 31.1035 63.4668C31.6595 63.4668 32.1517 63.5602 32.5801 63.7471C33.013 63.9339 33.3525 64.2165 33.5986 64.5947C33.8493 64.9684 33.9746 65.4378 33.9746 66.0029V69.291C33.9746 69.6283 33.9974 69.9313 34.043 70.2002C34.0931 70.4645 34.1637 70.6947 34.2549 70.8906V71H32.5664C32.4889 70.8223 32.4274 70.5967 32.3818 70.3232C32.3408 70.0452 32.3203 69.7764 32.3203 69.5166ZM32.5596 66.502L32.5732 67.5205H31.3906C31.0853 67.5205 30.8164 67.5501 30.584 67.6094C30.3516 67.6641 30.1579 67.7461 30.0029 67.8555C29.848 67.9648 29.7318 68.097 29.6543 68.252C29.5768 68.4069 29.5381 68.5824 29.5381 68.7783C29.5381 68.9743 29.5837 69.1543 29.6748 69.3184C29.766 69.4779 29.8981 69.6032 30.0713 69.6943C30.249 69.7855 30.4632 69.8311 30.7139 69.8311C31.0511 69.8311 31.3451 69.7627 31.5957 69.626C31.8509 69.4847 32.0514 69.3138 32.1973 69.1133C32.3431 68.9082 32.4206 68.7145 32.4297 68.5322L32.9629 69.2637C32.9082 69.4505 32.8148 69.651 32.6826 69.8652C32.5505 70.0794 32.3773 70.2845 32.1631 70.4805C31.9535 70.6719 31.7005 70.8291 31.4043 70.9521C31.1126 71.0752 30.7754 71.1367 30.3926 71.1367C29.9095 71.1367 29.4788 71.041 29.1006 70.8496C28.7223 70.6536 28.4261 70.3916 28.2119 70.0635C27.9977 69.7308 27.8906 69.3548 27.8906 68.9355C27.8906 68.5436 27.9635 68.1973 28.1094 67.8965C28.2598 67.5911 28.4785 67.3359 28.7656 67.1309C29.0573 66.9258 29.4128 66.7708 29.832 66.666C30.2513 66.5566 30.7298 66.502 31.2676 66.502H32.5596ZM37.4609 60.5V71H35.8066V60.5H37.4609ZM46.792 62.373L43.8184 71H42.0205L45.7666 61.0469H46.915L46.792 62.373ZM49.2803 71L46.2998 62.373L46.1699 61.0469H47.3252L51.085 71H49.2803ZM49.1367 67.3086V68.6689H43.7227V67.3086H49.1367ZM55.0566 69.8242C55.3255 69.8242 55.5671 69.7718 55.7812 69.667C56 69.5576 56.1755 69.4072 56.3076 69.2158C56.4443 69.0244 56.5195 68.8034 56.5332 68.5527H58.085C58.0758 69.0312 57.9346 69.4665 57.6611 69.8584C57.3877 70.2503 57.0254 70.5625 56.5742 70.7949C56.123 71.0228 55.624 71.1367 55.0771 71.1367C54.512 71.1367 54.0199 71.041 53.6006 70.8496C53.1813 70.6536 52.8327 70.3848 52.5547 70.043C52.2767 69.7012 52.0671 69.307 51.9258 68.8604C51.7891 68.4137 51.7207 67.9352 51.7207 67.4248V67.1855C51.7207 66.6751 51.7891 66.1966 51.9258 65.75C52.0671 65.2988 52.2767 64.9023 52.5547 64.5605C52.8327 64.2188 53.1813 63.9521 53.6006 63.7607C54.0199 63.5648 54.5098 63.4668 55.0703 63.4668C55.6628 63.4668 56.1823 63.5853 56.6289 63.8223C57.0755 64.0547 57.4264 64.3805 57.6816 64.7998C57.9414 65.2145 58.0758 65.6976 58.085 66.249H56.5332C56.5195 65.9756 56.4512 65.7295 56.3281 65.5107C56.2096 65.2874 56.041 65.1097 55.8223 64.9775C55.6081 64.8454 55.3506 64.7793 55.0498 64.7793C54.7171 64.7793 54.4414 64.8477 54.2227 64.9844C54.0039 65.1165 53.833 65.2988 53.71 65.5312C53.5869 65.7591 53.498 66.0166 53.4434 66.3037C53.3932 66.5863 53.3682 66.8802 53.3682 67.1855V67.4248C53.3682 67.7301 53.3932 68.0264 53.4434 68.3135C53.4935 68.6006 53.5801 68.8581 53.7031 69.0859C53.8307 69.3092 54.0039 69.4893 54.2227 69.626C54.4414 69.7581 54.7194 69.8242 55.0566 69.8242ZM62.7402 63.6035V64.8066H58.5703V63.6035H62.7402ZM59.7734 61.792H61.4209V68.9561C61.4209 69.1839 61.4528 69.3594 61.5166 69.4824C61.585 69.6009 61.6784 69.6807 61.7969 69.7217C61.9154 69.7627 62.0544 69.7832 62.2139 69.7832C62.3278 69.7832 62.4372 69.7764 62.542 69.7627C62.6468 69.749 62.7311 69.7354 62.7949 69.7217L62.8018 70.9795C62.665 71.0205 62.5055 71.057 62.3232 71.0889C62.1455 71.1208 61.9404 71.1367 61.708 71.1367C61.3298 71.1367 60.9948 71.0706 60.7031 70.9385C60.4115 70.8018 60.1836 70.5807 60.0195 70.2754C59.8555 69.9701 59.7734 69.5645 59.7734 69.0586V61.792ZM65.7754 63.6035V71H64.1211V63.6035H65.7754ZM64.0117 61.6621C64.0117 61.4115 64.0938 61.2041 64.2578 61.04C64.4264 60.8714 64.6589 60.7871 64.9551 60.7871C65.2467 60.7871 65.4769 60.8714 65.6455 61.04C65.8141 61.2041 65.8984 61.4115 65.8984 61.6621C65.8984 61.9082 65.8141 62.1133 65.6455 62.2773C65.4769 62.4414 65.2467 62.5234 64.9551 62.5234C64.6589 62.5234 64.4264 62.4414 64.2578 62.2773C64.0938 62.1133 64.0117 61.9082 64.0117 61.6621ZM69.9863 69.6943L71.7979 63.6035H73.5068L70.9365 71H69.8701L69.9863 69.6943ZM68.5986 63.6035L70.4443 69.7217L70.5332 71H69.4668L66.8828 63.6035H68.5986ZM76.2891 63.6035V71H74.6348V63.6035H76.2891ZM74.5254 61.6621C74.5254 61.4115 74.6074 61.2041 74.7715 61.04C74.9401 60.8714 75.1725 60.7871 75.4688 60.7871C75.7604 60.7871 75.9906 60.8714 76.1592 61.04C76.3278 61.2041 76.4121 61.4115 76.4121 61.6621C76.4121 61.9082 76.3278 62.1133 76.1592 62.2773C75.9906 62.4414 75.7604 62.5234 75.4688 62.5234C75.1725 62.5234 74.9401 62.4414 74.7715 62.2773C74.6074 62.1133 74.5254 61.9082 74.5254 61.6621ZM81.4844 63.6035V64.8066H77.3145V63.6035H81.4844ZM78.5176 61.792H80.165V68.9561C80.165 69.1839 80.1969 69.3594 80.2607 69.4824C80.3291 69.6009 80.4225 69.6807 80.541 69.7217C80.6595 69.7627 80.7985 69.7832 80.958 69.7832C81.0719 69.7832 81.1813 69.7764 81.2861 69.7627C81.391 69.749 81.4753 69.7354 81.5391 69.7217L81.5459 70.9795C81.4092 71.0205 81.2497 71.057 81.0674 71.0889C80.8896 71.1208 80.6846 71.1367 80.4521 71.1367C80.0739 71.1367 79.7389 71.0706 79.4473 70.9385C79.1556 70.8018 78.9277 70.5807 78.7637 70.2754C78.5996 69.9701 78.5176 69.5645 78.5176 69.0586V61.792ZM84.5195 63.6035V71H82.8652V63.6035H84.5195ZM82.7559 61.6621C82.7559 61.4115 82.8379 61.2041 83.002 61.04C83.1706 60.8714 83.403 60.7871 83.6992 60.7871C83.9909 60.7871 84.221 60.8714 84.3896 61.04C84.5583 61.2041 84.6426 61.4115 84.6426 61.6621C84.6426 61.9082 84.5583 62.1133 84.3896 62.2773C84.221 62.4414 83.9909 62.5234 83.6992 62.5234C83.403 62.5234 83.1706 62.4414 83.002 62.2773C82.8379 62.1133 82.7559 61.9082 82.7559 61.6621ZM89.585 71.1367C89.0381 71.1367 88.5436 71.0479 88.1016 70.8701C87.6641 70.6878 87.2904 70.4349 86.9805 70.1113C86.6751 69.7878 86.4404 69.4072 86.2764 68.9697C86.1123 68.5322 86.0303 68.0605 86.0303 67.5547V67.2812C86.0303 66.7025 86.1146 66.1784 86.2832 65.709C86.4518 65.2396 86.6865 64.8385 86.9873 64.5059C87.2881 64.1686 87.6436 63.9111 88.0537 63.7334C88.4639 63.5557 88.9082 63.4668 89.3867 63.4668C89.9154 63.4668 90.3779 63.5557 90.7744 63.7334C91.1709 63.9111 91.499 64.1618 91.7588 64.4854C92.0231 64.8044 92.2191 65.1849 92.3467 65.627C92.4788 66.069 92.5449 66.5566 92.5449 67.0898V67.7939H86.8301V66.6113H90.918V66.4814C90.9089 66.1852 90.8496 65.9072 90.7402 65.6475C90.6354 65.3877 90.4736 65.1781 90.2549 65.0186C90.0361 64.859 89.7445 64.7793 89.3799 64.7793C89.1064 64.7793 88.8626 64.8385 88.6484 64.957C88.4388 65.071 88.2633 65.2373 88.1221 65.4561C87.9808 65.6748 87.8714 65.9391 87.7939 66.249C87.721 66.5544 87.6846 66.8984 87.6846 67.2812V67.5547C87.6846 67.8783 87.7279 68.179 87.8145 68.457C87.9056 68.7305 88.0378 68.9697 88.2109 69.1748C88.3841 69.3799 88.5938 69.5417 88.8398 69.6602C89.0859 69.7741 89.3662 69.8311 89.6807 69.8311C90.0771 69.8311 90.4303 69.7513 90.7402 69.5918C91.0501 69.4323 91.319 69.2067 91.5469 68.915L92.415 69.7559C92.2555 69.9883 92.0482 70.2116 91.793 70.4258C91.5378 70.6354 91.2256 70.8063 90.8564 70.9385C90.4919 71.0706 90.068 71.1367 89.585 71.1367ZM97.9795 68.9971C97.9795 68.833 97.9385 68.6849 97.8564 68.5527C97.7744 68.416 97.6172 68.293 97.3848 68.1836C97.1569 68.0742 96.8197 67.974 96.373 67.8828C95.9811 67.7962 95.6211 67.6937 95.293 67.5752C94.9694 67.4521 94.6914 67.304 94.459 67.1309C94.2266 66.9577 94.0465 66.7526 93.9189 66.5156C93.7913 66.2786 93.7275 66.0052 93.7275 65.6953C93.7275 65.3945 93.7936 65.1097 93.9258 64.8408C94.0579 64.5719 94.2471 64.335 94.4932 64.1299C94.7393 63.9248 95.0378 63.763 95.3887 63.6445C95.7441 63.526 96.1406 63.4668 96.5781 63.4668C97.1979 63.4668 97.7288 63.5716 98.1709 63.7812C98.6175 63.9863 98.9593 64.2666 99.1963 64.6221C99.4333 64.973 99.5518 65.3695 99.5518 65.8115H97.9043C97.9043 65.6156 97.8542 65.4333 97.7539 65.2646C97.6582 65.0915 97.5124 64.9525 97.3164 64.8477C97.1204 64.7383 96.8743 64.6836 96.5781 64.6836C96.2956 64.6836 96.0609 64.7292 95.874 64.8203C95.6917 64.9069 95.555 65.0208 95.4639 65.1621C95.3773 65.3034 95.334 65.4583 95.334 65.627C95.334 65.75 95.3568 65.8617 95.4023 65.9619C95.4525 66.0576 95.5345 66.1465 95.6484 66.2285C95.7624 66.306 95.9173 66.3789 96.1133 66.4473C96.3138 66.5156 96.5645 66.5817 96.8652 66.6455C97.4303 66.764 97.9157 66.9167 98.3213 67.1035C98.7314 67.2858 99.0459 67.5228 99.2646 67.8145C99.4834 68.1016 99.5928 68.4661 99.5928 68.9082C99.5928 69.2363 99.5221 69.5371 99.3809 69.8105C99.2441 70.0794 99.0436 70.3141 98.7793 70.5146C98.515 70.7106 98.1982 70.8633 97.8291 70.9727C97.4645 71.082 97.0544 71.1367 96.5986 71.1367C95.9287 71.1367 95.3613 71.0182 94.8965 70.7812C94.4316 70.5397 94.0785 70.2321 93.8369 69.8584C93.5999 69.4801 93.4814 69.0882 93.4814 68.6826H95.0742C95.0924 68.988 95.1768 69.2318 95.3271 69.4141C95.4821 69.5918 95.6735 69.7217 95.9014 69.8037C96.1338 69.8812 96.373 69.9199 96.6191 69.9199C96.9154 69.9199 97.1637 69.8812 97.3643 69.8037C97.5648 69.7217 97.7174 69.6123 97.8223 69.4756C97.9271 69.3343 97.9795 69.1748 97.9795 68.9971Z" fill="#707070"/>
<path fill-rule="evenodd" clip-rule="evenodd" d="M15.8333 88.583H4.16667C3.93655 88.583 3.75 88.7696 3.75 88.9997V99.833C3.75 100.063 3.93655 100.25 4.16667 100.25H15.8333C16.0634 100.25 16.25 100.063 16.25 99.833V88.9997C16.25 88.7696 16.0634 88.583 15.8333 88.583ZM4.16667 87.333C3.24619 87.333 2.5 88.0792 2.5 88.9997V99.833C2.5 100.754 3.24619 101.5 4.16667 101.5H15.8333C16.7538 101.5 17.5 100.754 17.5 99.833V88.9997C17.5 88.0792 16.7538 87.333 15.8333 87.333H4.16667Z" fill="#707070"/>
<path d="M5 86.5003C5 86.0401 5.3731 85.667 5.83333 85.667C6.29357 85.667 6.66667 86.0401 6.66667 86.5003V87.3337C6.66667 87.7939 6.29357 88.167 5.83333 88.167C5.3731 88.167 5 87.7939 5 87.3337V86.5003Z" fill="#707070"/>
<path d="M13.333 86.5003C13.333 86.0401 13.7061 85.667 14.1663 85.667C14.6266 85.667 14.9997 86.0401 14.9997 86.5003V87.3337C14.9997 87.7939 14.6266 88.167 14.1663 88.167C13.7061 88.167 13.333 87.7939 13.333 87.3337V86.5003Z" fill="#707070"/>
<path fill-rule="evenodd" clip-rule="evenodd" d="M15 91.292C15 91.6372 14.7202 91.917 14.375 91.917H5.625C5.27983 91.917 5 91.6372 5 91.292C5 90.9468 5.27983 90.667 5.625 90.667H14.375C14.7202 90.667 15 90.9468 15 91.292Z" fill="#707070"/>
<path d="M30.833 89.0469V99H29.5342V89.0469H30.833ZM34.0322 89.0469V90.127H26.3418V89.0469H34.0322ZM41.6598 93.3262V94.3994H36.273V93.3262H41.6598ZM36.4781 89.0469V99H35.1588V89.0469H36.4781ZM42.8082 89.0469V99H41.4957V89.0469H42.8082ZM50.4973 89.0469H51.8098V95.7803C51.8098 96.5277 51.6434 97.1497 51.3107 97.6465C50.9781 98.1432 50.536 98.5169 49.9846 98.7676C49.4377 99.0137 48.843 99.1367 48.2004 99.1367C47.5259 99.1367 46.9152 99.0137 46.3684 98.7676C45.826 98.5169 45.3954 98.1432 45.0764 97.6465C44.7619 97.1497 44.6047 96.5277 44.6047 95.7803V89.0469H45.9104V95.7803C45.9104 96.2998 46.0061 96.7282 46.1975 97.0654C46.3889 97.4027 46.6555 97.6533 46.9973 97.8174C47.3436 97.9814 47.7447 98.0635 48.2004 98.0635C48.6607 98.0635 49.0617 97.9814 49.4035 97.8174C49.7499 97.6533 50.0187 97.4027 50.2102 97.0654C50.4016 96.7282 50.4973 96.2998 50.4973 95.7803V89.0469ZM54.4881 97.4961V98.5146C54.4881 98.9294 54.3833 99.3669 54.1736 99.8271C53.964 100.292 53.6701 100.679 53.2918 100.989L52.574 100.49C52.7199 100.29 52.8429 100.085 52.9432 99.875C53.0434 99.6699 53.1186 99.4557 53.1688 99.2324C53.2234 99.0137 53.2508 98.7812 53.2508 98.5352V97.4961H54.4881ZM59.4824 89.0469H60.7607L64.0215 97.1611L67.2754 89.0469H68.5605L64.5137 99H63.5156L59.4824 89.0469ZM59.0654 89.0469H60.1934L60.3779 95.1172V99H59.0654V89.0469ZM67.8428 89.0469H68.9707V99H67.6582V95.1172L67.8428 89.0469ZM74.7457 89.9287L71.4508 99H70.1041L73.898 89.0469H74.7662L74.7457 89.9287ZM77.5074 99L74.2057 89.9287L74.1852 89.0469H75.0533L78.8609 99H77.5074ZM77.3365 95.3154V96.3955H71.7447V95.3154H77.3365ZM79.8439 89.0469H83.1389C83.8863 89.0469 84.5174 89.1608 85.0324 89.3887C85.552 89.6165 85.9462 89.9538 86.215 90.4004C86.4885 90.8424 86.6252 91.387 86.6252 92.0342C86.6252 92.4899 86.5318 92.9069 86.3449 93.2852C86.1626 93.6589 85.8983 93.9779 85.552 94.2422C85.2102 94.502 84.8 94.6956 84.3215 94.8232L83.9523 94.9668H80.8557L80.842 93.8936H83.1799C83.6538 93.8936 84.048 93.8115 84.3625 93.6475C84.677 93.4788 84.9139 93.2533 85.0734 92.9707C85.2329 92.6882 85.3127 92.376 85.3127 92.0342C85.3127 91.6514 85.2375 91.3164 85.0871 91.0293C84.9367 90.7422 84.6997 90.5212 84.3762 90.3662C84.0572 90.2067 83.6447 90.127 83.1389 90.127H81.1633V99H79.8439V89.0469ZM85.6613 99L83.2414 94.4883L84.6154 94.4814L87.0695 98.918V99H85.6613ZM97.4369 97.9609V99H90.9223V98.0908L94.183 94.4609C94.584 94.0143 94.8939 93.6361 95.1127 93.3262C95.336 93.0117 95.4909 92.7314 95.5775 92.4854C95.6687 92.2347 95.7143 91.9795 95.7143 91.7197C95.7143 91.3916 95.6459 91.0954 95.5092 90.8311C95.377 90.5622 95.1811 90.348 94.9213 90.1885C94.6615 90.029 94.3471 89.9492 93.9779 89.9492C93.5359 89.9492 93.1667 90.0358 92.8705 90.209C92.5788 90.3776 92.3601 90.6146 92.2143 90.9199C92.0684 91.2253 91.9955 91.5762 91.9955 91.9727H90.7309C90.7309 91.4121 90.8539 90.8994 91.1 90.4346C91.3461 89.9697 91.7107 89.6006 92.1937 89.3271C92.6768 89.0492 93.2715 88.9102 93.9779 88.9102C94.6068 88.9102 95.1446 89.0218 95.5912 89.2451C96.0378 89.4639 96.3796 89.7738 96.6166 90.1748C96.8581 90.5713 96.9789 91.0361 96.9789 91.5693C96.9789 91.861 96.9288 92.1572 96.8285 92.458C96.7328 92.7542 96.5984 93.0505 96.4252 93.3467C96.2566 93.6429 96.0583 93.9346 95.8305 94.2217C95.6072 94.5088 95.3679 94.7913 95.1127 95.0693L92.4467 97.9609H97.4369ZM102.597 88.9922V99H101.332V90.5713L98.7822 91.501V90.3594L102.398 88.9922H102.597ZM109.273 94.0166C109.273 93.8024 109.339 93.6224 109.471 93.4766C109.603 93.3262 109.797 93.251 110.052 93.251C110.307 93.251 110.501 93.3262 110.633 93.4766C110.77 93.6224 110.838 93.8024 110.838 94.0166C110.838 94.2262 110.77 94.404 110.633 94.5498C110.501 94.6911 110.307 94.7617 110.052 94.7617C109.797 94.7617 109.603 94.6911 109.471 94.5498C109.339 94.404 109.273 94.2262 109.273 94.0166ZM120.378 89.0332H120.488V90.1064H120.378C119.708 90.1064 119.148 90.2158 118.697 90.4346C118.246 90.6488 117.888 90.9382 117.623 91.3027C117.359 91.6628 117.168 92.0684 117.049 92.5195C116.935 92.9707 116.878 93.4287 116.878 93.8936V95.3564C116.878 95.7985 116.931 96.1904 117.036 96.5322C117.14 96.8695 117.284 97.1543 117.466 97.3867C117.649 97.6191 117.854 97.7946 118.081 97.9131C118.314 98.0316 118.555 98.0908 118.806 98.0908C119.098 98.0908 119.357 98.0361 119.585 97.9268C119.813 97.8128 120.005 97.6556 120.16 97.4551C120.319 97.25 120.44 97.0085 120.522 96.7305C120.604 96.4525 120.645 96.1471 120.645 95.8145C120.645 95.5182 120.608 95.2334 120.536 94.96C120.463 94.682 120.351 94.4359 120.201 94.2217C120.05 94.0029 119.861 93.832 119.633 93.709C119.41 93.5814 119.143 93.5176 118.833 93.5176C118.482 93.5176 118.154 93.6042 117.849 93.7773C117.548 93.946 117.3 94.1693 117.104 94.4473C116.912 94.7207 116.803 95.0192 116.776 95.3428L116.106 95.3359C116.17 94.8255 116.288 94.3903 116.461 94.0303C116.639 93.6657 116.858 93.3695 117.118 93.1416C117.382 92.9092 117.676 92.7406 117.999 92.6357C118.328 92.5264 118.674 92.4717 119.038 92.4717C119.535 92.4717 119.964 92.5651 120.324 92.752C120.684 92.9388 120.98 93.1895 121.212 93.5039C121.445 93.8138 121.616 94.1647 121.725 94.5566C121.839 94.944 121.896 95.3428 121.896 95.7529C121.896 96.2223 121.83 96.6621 121.698 97.0723C121.565 97.4824 121.367 97.8424 121.103 98.1523C120.843 98.4622 120.522 98.7038 120.139 98.877C119.756 99.0501 119.312 99.1367 118.806 99.1367C118.268 99.1367 117.799 99.0273 117.398 98.8086C116.997 98.5853 116.664 98.2891 116.4 97.9199C116.135 97.5508 115.937 97.1406 115.805 96.6895C115.673 96.2383 115.607 95.7803 115.607 95.3154V94.7207C115.607 94.0189 115.677 93.3307 115.819 92.6562C115.96 91.9818 116.204 91.3711 116.55 90.8242C116.901 90.2773 117.386 89.8421 118.006 89.5186C118.626 89.195 119.417 89.0332 120.378 89.0332ZM123.132 98.3301C123.132 98.1159 123.198 97.9359 123.33 97.79C123.467 97.6396 123.663 97.5645 123.918 97.5645C124.173 97.5645 124.367 97.6396 124.499 97.79C124.636 97.9359 124.704 98.1159 124.704 98.3301C124.704 98.5397 124.636 98.7174 124.499 98.8633C124.367 99.0091 124.173 99.082 123.918 99.082C123.663 99.082 123.467 99.0091 123.33 98.8633C123.198 98.7174 123.132 98.5397 123.132 98.3301ZM123.139 92.2939C123.139 92.0798 123.205 91.8997 123.337 91.7539C123.474 91.6035 123.67 91.5283 123.925 91.5283C124.18 91.5283 124.374 91.6035 124.506 91.7539C124.643 91.8997 124.711 92.0798 124.711 92.2939C124.711 92.5036 124.643 92.6813 124.506 92.8271C124.374 92.973 124.18 93.0459 123.925 93.0459C123.67 93.0459 123.474 92.973 123.337 92.8271C123.205 92.6813 123.139 92.5036 123.139 92.2939ZM132.338 93.2305V94.748C132.338 95.5638 132.266 96.252 132.12 96.8125C131.974 97.373 131.764 97.8242 131.491 98.166C131.217 98.5078 130.887 98.7562 130.5 98.9111C130.117 99.0615 129.684 99.1367 129.201 99.1367C128.818 99.1367 128.465 99.0889 128.141 98.9932C127.818 98.8975 127.526 98.7448 127.266 98.5352C127.011 98.321 126.792 98.043 126.61 97.7012C126.428 97.3594 126.289 96.9447 126.193 96.457C126.097 95.9694 126.049 95.3997 126.049 94.748V93.2305C126.049 92.4147 126.122 91.7311 126.268 91.1797C126.419 90.6283 126.63 90.1862 126.904 89.8535C127.177 89.5163 127.505 89.2747 127.888 89.1289C128.276 88.9831 128.709 88.9102 129.187 88.9102C129.574 88.9102 129.93 88.958 130.254 89.0537C130.582 89.1449 130.873 89.293 131.129 89.498C131.384 89.6986 131.6 89.9674 131.778 90.3047C131.96 90.6374 132.099 91.0452 132.195 91.5283C132.291 92.0114 132.338 92.5788 132.338 93.2305ZM131.067 94.9531V93.0186C131.067 92.5719 131.04 92.18 130.985 91.8428C130.935 91.501 130.86 91.2093 130.759 90.9678C130.659 90.7262 130.532 90.5303 130.377 90.3799C130.226 90.2295 130.051 90.1201 129.85 90.0518C129.654 89.9788 129.433 89.9424 129.187 89.9424C128.886 89.9424 128.62 89.9993 128.387 90.1133C128.155 90.2227 127.959 90.3981 127.799 90.6396C127.644 90.8812 127.526 91.1979 127.444 91.5898C127.362 91.9818 127.321 92.458 127.321 93.0186V94.9531C127.321 95.3997 127.346 95.7939 127.396 96.1357C127.451 96.4775 127.531 96.7738 127.635 97.0244C127.74 97.2705 127.868 97.4733 128.018 97.6328C128.169 97.7923 128.342 97.9108 128.538 97.9883C128.738 98.0612 128.959 98.0977 129.201 98.0977C129.511 98.0977 129.782 98.0384 130.014 97.9199C130.247 97.8014 130.44 97.6169 130.595 97.3662C130.755 97.111 130.873 96.7852 130.951 96.3887C131.028 95.9876 131.067 95.5091 131.067 94.9531ZM139.863 93.2305V94.748C139.863 95.5638 139.791 96.252 139.645 96.8125C139.499 97.373 139.289 97.8242 139.016 98.166C138.742 98.5078 138.412 98.7562 138.025 98.9111C137.642 99.0615 137.209 99.1367 136.726 99.1367C136.343 99.1367 135.99 99.0889 135.666 98.9932C135.343 98.8975 135.051 98.7448 134.791 98.5352C134.536 98.321 134.317 98.043 134.135 97.7012C133.953 97.3594 133.814 96.9447 133.718 96.457C133.622 95.9694 133.574 95.3997 133.574 94.748V93.2305C133.574 92.4147 133.647 91.7311 133.793 91.1797C133.944 90.6283 134.155 90.1862 134.429 89.8535C134.702 89.5163 135.03 89.2747 135.413 89.1289C135.801 88.9831 136.234 88.9102 136.712 88.9102C137.099 88.9102 137.455 88.958 137.779 89.0537C138.107 89.1449 138.398 89.293 138.654 89.498C138.909 89.6986 139.125 89.9674 139.303 90.3047C139.485 90.6374 139.624 91.0452 139.72 91.5283C139.816 92.0114 139.863 92.5788 139.863 93.2305ZM138.592 94.9531V93.0186C138.592 92.5719 138.565 92.18 138.51 91.8428C138.46 91.501 138.385 91.2093 138.284 90.9678C138.184 90.7262 138.057 90.5303 137.902 90.3799C137.751 90.2295 137.576 90.1201 137.375 90.0518C137.179 89.9788 136.958 89.9424 136.712 89.9424C136.411 89.9424 136.145 89.9993 135.912 90.1133C135.68 90.2227 135.484 90.3981 135.324 90.6396C135.169 90.8812 135.051 91.1979 134.969 91.5898C134.887 91.9818 134.846 92.458 134.846 93.0186V94.9531C134.846 95.3997 134.871 95.7939 134.921 96.1357C134.976 96.4775 135.056 96.7738 135.16 97.0244C135.265 97.2705 135.393 97.4733 135.543 97.6328C135.694 97.7923 135.867 97.9108 136.063 97.9883C136.263 98.0612 136.484 98.0977 136.726 98.0977C137.036 98.0977 137.307 98.0384 137.539 97.9199C137.772 97.8014 137.965 97.6169 138.12 97.3662C138.28 97.111 138.398 96.7852 138.476 96.3887C138.553 95.9876 138.592 95.5091 138.592 94.9531ZM148.262 95.0967H145.603V94.0234H148.262C148.777 94.0234 149.194 93.9414 149.513 93.7773C149.832 93.6133 150.065 93.3854 150.21 93.0938C150.361 92.8021 150.436 92.4694 150.436 92.0957C150.436 91.7539 150.361 91.4326 150.21 91.1318C150.065 90.8311 149.832 90.5895 149.513 90.4072C149.194 90.2204 148.777 90.127 148.262 90.127H145.911V99H144.591V89.0469H148.262C149.014 89.0469 149.65 89.1768 150.169 89.4365C150.689 89.6963 151.083 90.0563 151.352 90.5166C151.621 90.9723 151.755 91.4941 151.755 92.082C151.755 92.7201 151.621 93.2646 151.352 93.7158C151.083 94.167 150.689 94.5111 150.169 94.748C149.65 94.9805 149.014 95.0967 148.262 95.0967ZM153.49 89.0469H154.769L158.029 97.1611L161.283 89.0469H162.568L158.521 99H157.523L153.49 89.0469ZM153.073 89.0469H154.201L154.386 95.1172V99H153.073V89.0469ZM161.851 89.0469H162.979V99H161.666V95.1172L161.851 89.0469ZM171.739 95.0967H169.08V94.0234H171.739C172.254 94.0234 172.671 93.9414 172.99 93.7773C173.309 93.6133 173.542 93.3854 173.688 93.0938C173.838 92.8021 173.913 92.4694 173.913 92.0957C173.913 91.7539 173.838 91.4326 173.688 91.1318C173.542 90.8311 173.309 90.5895 172.99 90.4072C172.671 90.2204 172.254 90.127 171.739 90.127H169.388V99H168.069V89.0469H171.739C172.491 89.0469 173.127 89.1768 173.647 89.4365C174.166 89.6963 174.56 90.0563 174.829 90.5166C175.098 90.9723 175.233 91.4941 175.233 92.082C175.233 92.7201 175.098 93.2646 174.829 93.7158C174.56 94.167 174.166 94.5111 173.647 94.748C173.127 94.9805 172.491 95.0967 171.739 95.0967ZM179.244 99H177.166L177.179 97.9268H179.244C179.955 97.9268 180.547 97.7786 181.021 97.4824C181.495 97.1816 181.851 96.7624 182.088 96.2246C182.329 95.6823 182.45 95.0488 182.45 94.3242V93.7158C182.45 93.1462 182.382 92.6403 182.245 92.1982C182.108 91.7516 181.908 91.3757 181.643 91.0703C181.379 90.7604 181.055 90.5257 180.673 90.3662C180.294 90.2067 179.859 90.127 179.367 90.127H177.125V89.0469H179.367C180.019 89.0469 180.613 89.1562 181.151 89.375C181.689 89.5892 182.151 89.9014 182.539 90.3115C182.931 90.7171 183.232 91.2093 183.441 91.7881C183.651 92.3623 183.756 93.0094 183.756 93.7295V94.3242C183.756 95.0443 183.651 95.6937 183.441 96.2725C183.232 96.8467 182.929 97.3366 182.532 97.7422C182.14 98.1478 181.666 98.46 181.11 98.6787C180.559 98.8929 179.937 99 179.244 99ZM177.87 89.0469V99H176.551V89.0469H177.87ZM188.874 89.0469V99H187.576V89.0469H188.874ZM192.074 89.0469V90.127H184.383V89.0469H192.074Z" fill="#212121"/>
<path fill-rule="evenodd" clip-rule="evenodd" d="M10.0003 135.084C13.9123 135.084 17.0837 131.912 17.0837 128C17.0837 124.088 13.9123 120.917 10.0003 120.917C6.08831 120.917 2.91699 124.088 2.91699 128C2.91699 131.912 6.08831 135.084 10.0003 135.084ZM10.0003 136.334C14.6027 136.334 18.3337 132.603 18.3337 128C18.3337 123.398 14.6027 119.667 10.0003 119.667C5.39795 119.667 1.66699 123.398 1.66699 128C1.66699 132.603 5.39795 136.334 10.0003 136.334Z" fill="#707070"/>
<path fill-rule="evenodd" clip-rule="evenodd" d="M15.4419 125.058C15.686 125.302 15.686 125.698 15.4419 125.942L9.65916 131.725C8.92691 132.457 7.73974 132.457 7.00751 131.725L4.55806 129.275C4.31398 129.031 4.31398 128.635 4.55806 128.391C4.80213 128.147 5.19786 128.147 5.44194 128.391L7.89139 130.841C8.13546 131.085 8.53116 131.085 8.77525 130.841L14.5581 125.058C14.8022 124.814 15.1978 124.814 15.4419 125.058Z" fill="#707070"/>
<path d="M28.7734 127.586L27.6172 127.289L28.1875 121.625H34.0234V122.961H29.4141L29.0703 126.055C29.2786 125.935 29.5417 125.823 29.8594 125.719C30.1823 125.615 30.5521 125.562 30.9688 125.562C31.4948 125.562 31.9661 125.654 32.3828 125.836C32.7995 126.013 33.1536 126.268 33.4453 126.602C33.7422 126.935 33.9688 127.336 34.125 127.805C34.2812 128.273 34.3594 128.797 34.3594 129.375C34.3594 129.922 34.2839 130.424 34.1328 130.883C33.987 131.341 33.7656 131.742 33.4688 132.086C33.1719 132.424 32.7969 132.688 32.3438 132.875C31.8958 133.062 31.3672 133.156 30.7578 133.156C30.2995 133.156 29.8646 133.094 29.4531 132.969C29.0469 132.839 28.6823 132.643 28.3594 132.383C28.0417 132.117 27.7812 131.789 27.5781 131.398C27.3802 131.003 27.2552 130.539 27.2031 130.008H28.5781C28.6406 130.435 28.7656 130.794 28.9531 131.086C29.1406 131.378 29.3854 131.599 29.6875 131.75C29.9948 131.896 30.3516 131.969 30.7578 131.969C31.1016 131.969 31.4062 131.909 31.6719 131.789C31.9375 131.669 32.1615 131.497 32.3438 131.273C32.526 131.049 32.6641 130.779 32.7578 130.461C32.8568 130.143 32.9062 129.786 32.9062 129.391C32.9062 129.031 32.8568 128.698 32.7578 128.391C32.6589 128.083 32.5104 127.815 32.3125 127.586C32.1198 127.357 31.8828 127.18 31.6016 127.055C31.3203 126.924 30.9974 126.859 30.6328 126.859C30.1484 126.859 29.7812 126.924 29.5312 127.055C29.2865 127.185 29.0339 127.362 28.7734 127.586ZM40.6953 121.562V133H39.25V123.367L36.3359 124.43V123.125L40.4688 121.562H40.6953ZM54.5469 124.547H55.8594V132.82C55.8594 133.565 55.7083 134.201 55.4062 134.727C55.1042 135.253 54.6823 135.651 54.1406 135.922C53.6042 136.198 52.9844 136.336 52.2812 136.336C51.9896 136.336 51.6458 136.289 51.25 136.195C50.8594 136.107 50.474 135.953 50.0938 135.734C49.7188 135.521 49.4036 135.232 49.1484 134.867L49.9062 134.008C50.2604 134.435 50.6302 134.732 51.0156 134.898C51.4062 135.065 51.7917 135.148 52.1719 135.148C52.6302 135.148 53.026 135.062 53.3594 134.891C53.6927 134.719 53.9505 134.464 54.1328 134.125C54.3203 133.792 54.4141 133.38 54.4141 132.891V126.406L54.5469 124.547ZM48.7266 128.867V128.703C48.7266 128.057 48.8021 127.471 48.9531 126.945C49.1094 126.414 49.3307 125.958 49.6172 125.578C49.9089 125.198 50.2604 124.906 50.6719 124.703C51.0833 124.495 51.5469 124.391 52.0625 124.391C52.5938 124.391 53.0573 124.484 53.4531 124.672C53.8542 124.854 54.1927 125.122 54.4688 125.477C54.75 125.826 54.9714 126.247 55.1328 126.742C55.2943 127.237 55.4062 127.797 55.4688 128.422V129.141C55.4115 129.76 55.2995 130.318 55.1328 130.812C54.9714 131.307 54.75 131.729 54.4688 132.078C54.1927 132.427 53.8542 132.695 53.4531 132.883C53.0521 133.065 52.5833 133.156 52.0469 133.156C51.5417 133.156 51.0833 133.049 50.6719 132.836C50.2656 132.622 49.9167 132.323 49.625 131.938C49.3333 131.552 49.1094 131.099 48.9531 130.578C48.8021 130.052 48.7266 129.482 48.7266 128.867ZM50.1719 128.703V128.867C50.1719 129.289 50.2135 129.685 50.2969 130.055C50.3854 130.424 50.5182 130.75 50.6953 131.031C50.8776 131.312 51.1094 131.534 51.3906 131.695C51.6719 131.852 52.0078 131.93 52.3984 131.93C52.8776 131.93 53.2734 131.828 53.5859 131.625C53.8984 131.422 54.1458 131.154 54.3281 130.82C54.5156 130.487 54.6615 130.125 54.7656 129.734V127.852C54.7083 127.565 54.6198 127.289 54.5 127.023C54.3854 126.753 54.2344 126.513 54.0469 126.305C53.8646 126.091 53.638 125.922 53.3672 125.797C53.0964 125.672 52.7786 125.609 52.4141 125.609C52.0182 125.609 51.6771 125.693 51.3906 125.859C51.1094 126.021 50.8776 126.245 50.6953 126.531C50.5182 126.812 50.3854 127.141 50.2969 127.516C50.2135 127.885 50.1719 128.281 50.1719 128.703ZM57.6719 128.867V128.688C57.6719 128.078 57.7604 127.513 57.9375 126.992C58.1146 126.466 58.3698 126.01 58.7031 125.625C59.0365 125.234 59.4401 124.932 59.9141 124.719C60.388 124.5 60.9193 124.391 61.5078 124.391C62.1016 124.391 62.6354 124.5 63.1094 124.719C63.5885 124.932 63.9948 125.234 64.3281 125.625C64.6667 126.01 64.9245 126.466 65.1016 126.992C65.2786 127.513 65.3672 128.078 65.3672 128.688V128.867C65.3672 129.477 65.2786 130.042 65.1016 130.562C64.9245 131.083 64.6667 131.539 64.3281 131.93C63.9948 132.315 63.5911 132.617 63.1172 132.836C62.6484 133.049 62.1172 133.156 61.5234 133.156C60.9297 133.156 60.3958 133.049 59.9219 132.836C59.4479 132.617 59.0417 132.315 58.7031 131.93C58.3698 131.539 58.1146 131.083 57.9375 130.562C57.7604 130.042 57.6719 129.477 57.6719 128.867ZM59.1172 128.688V128.867C59.1172 129.289 59.1667 129.688 59.2656 130.062C59.3646 130.432 59.513 130.76 59.7109 131.047C59.9141 131.333 60.1667 131.56 60.4688 131.727C60.7708 131.888 61.1224 131.969 61.5234 131.969C61.9193 131.969 62.2656 131.888 62.5625 131.727C62.8646 131.56 63.1146 131.333 63.3125 131.047C63.5104 130.76 63.6589 130.432 63.7578 130.062C63.862 129.688 63.9141 129.289 63.9141 128.867V128.688C63.9141 128.271 63.862 127.878 63.7578 127.508C63.6589 127.133 63.5078 126.802 63.3047 126.516C63.1068 126.224 62.8568 125.995 62.5547 125.828C62.2578 125.661 61.9089 125.578 61.5078 125.578C61.112 125.578 60.763 125.661 60.4609 125.828C60.1641 125.995 59.9141 126.224 59.7109 126.516C59.513 126.802 59.3646 127.133 59.2656 127.508C59.1667 127.878 59.1172 128.271 59.1172 128.688ZM68.75 124.547V133H67.2969V124.547H68.75ZM67.1875 122.305C67.1875 122.07 67.2578 121.872 67.3984 121.711C67.5443 121.549 67.7578 121.469 68.0391 121.469C68.3151 121.469 68.526 121.549 68.6719 121.711C68.8229 121.872 68.8984 122.07 68.8984 122.305C68.8984 122.529 68.8229 122.721 68.6719 122.883C68.526 123.039 68.3151 123.117 68.0391 123.117C67.7578 123.117 67.5443 123.039 67.3984 122.883C67.2578 122.721 67.1875 122.529 67.1875 122.305ZM72.5156 126.352V133H71.0703V124.547H72.4375L72.5156 126.352ZM72.1719 128.453L71.5703 128.43C71.5755 127.852 71.6615 127.318 71.8281 126.828C71.9948 126.333 72.2292 125.904 72.5312 125.539C72.8333 125.174 73.1927 124.893 73.6094 124.695C74.0312 124.492 74.4974 124.391 75.0078 124.391C75.4245 124.391 75.7995 124.448 76.1328 124.562C76.4661 124.672 76.75 124.849 76.9844 125.094C77.224 125.339 77.4062 125.656 77.5312 126.047C77.6562 126.432 77.7188 126.904 77.7188 127.461V133H76.2656V127.445C76.2656 127.003 76.2005 126.648 76.0703 126.383C75.9401 126.112 75.75 125.917 75.5 125.797C75.25 125.672 74.9427 125.609 74.5781 125.609C74.2188 125.609 73.8906 125.685 73.5938 125.836C73.3021 125.987 73.0495 126.195 72.8359 126.461C72.6276 126.727 72.4635 127.031 72.3438 127.375C72.2292 127.714 72.1719 128.073 72.1719 128.453ZM85.3906 124.547H86.7031V132.82C86.7031 133.565 86.5521 134.201 86.25 134.727C85.9479 135.253 85.526 135.651 84.9844 135.922C84.4479 136.198 83.8281 136.336 83.125 136.336C82.8333 136.336 82.4896 136.289 82.0938 136.195C81.7031 136.107 81.3177 135.953 80.9375 135.734C80.5625 135.521 80.2474 135.232 79.9922 134.867L80.75 134.008C81.1042 134.435 81.474 134.732 81.8594 134.898C82.25 135.065 82.6354 135.148 83.0156 135.148C83.474 135.148 83.8698 135.062 84.2031 134.891C84.5365 134.719 84.7943 134.464 84.9766 134.125C85.1641 133.792 85.2578 133.38 85.2578 132.891V126.406L85.3906 124.547ZM79.5703 128.867V128.703C79.5703 128.057 79.6458 127.471 79.7969 126.945C79.9531 126.414 80.1745 125.958 80.4609 125.578C80.7526 125.198 81.1042 124.906 81.5156 124.703C81.9271 124.495 82.3906 124.391 82.9062 124.391C83.4375 124.391 83.901 124.484 84.2969 124.672C84.6979 124.854 85.0365 125.122 85.3125 125.477C85.5938 125.826 85.8151 126.247 85.9766 126.742C86.138 127.237 86.25 127.797 86.3125 128.422V129.141C86.2552 129.76 86.1432 130.318 85.9766 130.812C85.8151 131.307 85.5938 131.729 85.3125 132.078C85.0365 132.427 84.6979 132.695 84.2969 132.883C83.8958 133.065 83.4271 133.156 82.8906 133.156C82.3854 133.156 81.9271 133.049 81.5156 132.836C81.1094 132.622 80.7604 132.323 80.4688 131.938C80.1771 131.552 79.9531 131.099 79.7969 130.578C79.6458 130.052 79.5703 129.482 79.5703 128.867ZM81.0156 128.703V128.867C81.0156 129.289 81.0573 129.685 81.1406 130.055C81.2292 130.424 81.362 130.75 81.5391 131.031C81.7214 131.312 81.9531 131.534 82.2344 131.695C82.5156 131.852 82.8516 131.93 83.2422 131.93C83.7214 131.93 84.1172 131.828 84.4297 131.625C84.7422 131.422 84.9896 131.154 85.1719 130.82C85.3594 130.487 85.5052 130.125 85.6094 129.734V127.852C85.5521 127.565 85.4635 127.289 85.3438 127.023C85.2292 126.753 85.0781 126.513 84.8906 126.305C84.7083 126.091 84.4818 125.922 84.2109 125.797C83.9401 125.672 83.6224 125.609 83.2578 125.609C82.862 125.609 82.5208 125.693 82.2344 125.859C81.9531 126.021 81.7214 126.245 81.5391 126.531C81.362 126.812 81.2292 127.141 81.1406 127.516C81.0573 127.885 81.0156 128.281 81.0156 128.703Z" fill="#212121"/>
<path fill-rule="evenodd" clip-rule="evenodd" d="M120.084 123C120.701 123 121.239 122.665 121.527 122.166H123.417C123.877 122.166 124.25 122.539 124.25 123V124.771C122.813 125.141 121.75 126.447 121.75 128C121.75 129.553 122.813 130.858 124.25 131.228V133C124.25 133.46 123.877 133.833 123.417 133.833H121.527C121.239 133.335 120.701 133 120.084 133C119.467 133 118.928 133.335 118.64 133.833H110.084C109.623 133.833 109.25 133.46 109.25 133V131.228C110.688 130.858 111.75 129.553 111.75 128C111.75 126.447 110.688 125.141 109.25 124.771V123C109.25 122.539 109.623 122.166 110.084 122.166H118.64C118.928 122.665 119.467 123 120.084 123ZM122.584 128C122.584 126.619 123.703 125.5 125.084 125.5V123C125.084 122.079 124.337 121.333 123.417 121.333H120.917C120.917 121.793 120.544 122.166 120.084 122.166C119.623 122.166 119.25 121.793 119.25 121.333H110.084C109.163 121.333 108.417 122.079 108.417 123V125.5C109.798 125.5 110.917 126.619 110.917 128C110.917 129.38 109.798 130.5 108.417 130.5V133C108.417 133.92 109.163 134.666 110.084 134.666H119.25C119.25 134.206 119.623 133.833 120.084 133.833C120.544 133.833 120.917 134.206 120.917 134.666H123.417C124.337 134.666 125.084 133.92 125.084 133V130.5C123.703 130.5 122.584 129.38 122.584 128ZM120.084 125.5C120.544 125.5 120.917 125.127 120.917 124.666C120.917 124.206 120.544 123.833 120.084 123.833C119.623 123.833 119.25 124.206 119.25 124.666C119.25 125.127 119.623 125.5 120.084 125.5ZM120.084 128.833C120.544 128.833 120.917 128.46 120.917 128C120.917 127.539 120.544 127.166 120.084 127.166C119.623 127.166 119.25 127.539 119.25 128C119.25 128.46 119.623 128.833 120.084 128.833ZM120.917 131.333C120.917 131.793 120.544 132.166 120.084 132.166C119.623 132.166 119.25 131.793 119.25 131.333C119.25 130.873 119.623 130.5 120.084 130.5C120.544 130.5 120.917 130.873 120.917 131.333Z" fill="#707070"/>
<path d="M135.578 121.625V133H134.07V121.625H135.578ZM140.344 126.742V127.977H135.25V126.742H140.344ZM141.117 121.625V122.859H135.25V121.625H141.117ZM143.938 125.875V133H142.492V124.547H143.898L143.938 125.875ZM146.578 124.5L146.57 125.844C146.451 125.818 146.336 125.802 146.227 125.797C146.122 125.786 146.003 125.781 145.867 125.781C145.534 125.781 145.24 125.833 144.984 125.938C144.729 126.042 144.513 126.188 144.336 126.375C144.159 126.562 144.018 126.786 143.914 127.047C143.815 127.302 143.75 127.583 143.719 127.891L143.312 128.125C143.312 127.615 143.362 127.135 143.461 126.688C143.565 126.24 143.724 125.844 143.938 125.5C144.151 125.151 144.422 124.88 144.75 124.688C145.083 124.49 145.479 124.391 145.938 124.391C146.042 124.391 146.161 124.404 146.297 124.43C146.432 124.451 146.526 124.474 146.578 124.5ZM151.266 133.156C150.677 133.156 150.143 133.057 149.664 132.859C149.19 132.656 148.781 132.372 148.438 132.008C148.099 131.643 147.839 131.211 147.656 130.711C147.474 130.211 147.383 129.664 147.383 129.07V128.742C147.383 128.055 147.484 127.443 147.688 126.906C147.891 126.365 148.167 125.906 148.516 125.531C148.865 125.156 149.26 124.872 149.703 124.68C150.146 124.487 150.604 124.391 151.078 124.391C151.682 124.391 152.203 124.495 152.641 124.703C153.083 124.911 153.445 125.203 153.727 125.578C154.008 125.948 154.216 126.385 154.352 126.891C154.487 127.391 154.555 127.938 154.555 128.531V129.18H148.242V128H153.109V127.891C153.089 127.516 153.01 127.151 152.875 126.797C152.745 126.443 152.536 126.151 152.25 125.922C151.964 125.693 151.573 125.578 151.078 125.578C150.75 125.578 150.448 125.648 150.172 125.789C149.896 125.924 149.659 126.128 149.461 126.398C149.263 126.669 149.109 127 149 127.391C148.891 127.781 148.836 128.232 148.836 128.742V129.07C148.836 129.471 148.891 129.849 149 130.203C149.115 130.552 149.279 130.859 149.492 131.125C149.711 131.391 149.974 131.599 150.281 131.75C150.594 131.901 150.948 131.977 151.344 131.977C151.854 131.977 152.286 131.872 152.641 131.664C152.995 131.456 153.305 131.177 153.57 130.828L154.445 131.523C154.263 131.799 154.031 132.062 153.75 132.312C153.469 132.562 153.122 132.766 152.711 132.922C152.305 133.078 151.823 133.156 151.266 133.156ZM159.75 133.156C159.161 133.156 158.628 133.057 158.148 132.859C157.674 132.656 157.266 132.372 156.922 132.008C156.583 131.643 156.323 131.211 156.141 130.711C155.958 130.211 155.867 129.664 155.867 129.07V128.742C155.867 128.055 155.969 127.443 156.172 126.906C156.375 126.365 156.651 125.906 157 125.531C157.349 125.156 157.745 124.872 158.188 124.68C158.63 124.487 159.089 124.391 159.562 124.391C160.167 124.391 160.688 124.495 161.125 124.703C161.568 124.911 161.93 125.203 162.211 125.578C162.492 125.948 162.701 126.385 162.836 126.891C162.971 127.391 163.039 127.938 163.039 128.531V129.18H156.727V128H161.594V127.891C161.573 127.516 161.495 127.151 161.359 126.797C161.229 126.443 161.021 126.151 160.734 125.922C160.448 125.693 160.057 125.578 159.562 125.578C159.234 125.578 158.932 125.648 158.656 125.789C158.38 125.924 158.143 126.128 157.945 126.398C157.747 126.669 157.594 127 157.484 127.391C157.375 127.781 157.32 128.232 157.32 128.742V129.07C157.32 129.471 157.375 129.849 157.484 130.203C157.599 130.552 157.763 130.859 157.977 131.125C158.195 131.391 158.458 131.599 158.766 131.75C159.078 131.901 159.432 131.977 159.828 131.977C160.339 131.977 160.771 131.872 161.125 131.664C161.479 131.456 161.789 131.177 162.055 130.828L162.93 131.523C162.747 131.799 162.516 132.062 162.234 132.312C161.953 132.562 161.607 132.766 161.195 132.922C160.789 133.078 160.307 133.156 159.75 133.156Z" fill="#212121"/>
</svg>
