<svg width="272" height="214" viewBox="0 0 272 214" fill="none" xmlns="http://www.w3.org/2000/svg">
<path d="M4.04297 4.78125V19H1.35742V4.78125H4.04297ZM9.77539 10.9238V13.043H3.33984V10.9238H9.77539ZM10.5273 4.78125V6.90039H3.33984V4.78125H10.5273ZM14.4824 10.5918V19H11.9043V8.43359H14.3457L14.4824 10.5918ZM17.6953 8.36523L17.6562 10.7676C17.513 10.7415 17.3503 10.722 17.168 10.709C16.9922 10.696 16.8262 10.6895 16.6699 10.6895C16.2728 10.6895 15.9245 10.7448 15.625 10.8555C15.3255 10.9596 15.0749 11.1126 14.873 11.3145C14.6777 11.5163 14.528 11.7637 14.4238 12.0566C14.3197 12.3431 14.2611 12.6686 14.248 13.0332L13.6914 12.9648C13.6914 12.2943 13.7598 11.6725 13.8965 11.0996C14.0332 10.5267 14.2318 10.0254 14.4922 9.5957C14.7526 9.16602 15.0781 8.83398 15.4688 8.59961C15.8659 8.35872 16.3216 8.23828 16.8359 8.23828C16.9792 8.23828 17.1322 8.2513 17.2949 8.27734C17.4642 8.29688 17.5977 8.32617 17.6953 8.36523ZM23.6621 19.1953C22.8613 19.1953 22.1419 19.0651 21.5039 18.8047C20.8659 18.5443 20.3223 18.1829 19.873 17.7207C19.4303 17.252 19.0885 16.7083 18.8477 16.0898C18.6133 15.4648 18.4961 14.7943 18.4961 14.0781V13.6875C18.4961 12.8737 18.6133 12.1348 18.8477 11.4707C19.082 10.8001 19.4141 10.224 19.8438 9.74219C20.2734 9.26042 20.7878 8.88932 21.3867 8.62891C21.9857 8.36849 22.6465 8.23828 23.3691 8.23828C24.1178 8.23828 24.7786 8.36523 25.3516 8.61914C25.9245 8.86654 26.403 9.2181 26.7871 9.67383C27.1712 10.1296 27.4609 10.6764 27.6562 11.3145C27.8516 11.946 27.9492 12.6458 27.9492 13.4141V14.498H19.668V12.7207H25.4102V12.5254C25.3971 12.1152 25.319 11.7409 25.1758 11.4023C25.0326 11.0573 24.8112 10.7839 24.5117 10.582C24.2122 10.3737 23.8249 10.2695 23.3496 10.2695C22.9655 10.2695 22.6302 10.3542 22.3438 10.5234C22.0638 10.6862 21.8294 10.9206 21.6406 11.2266C21.4583 11.526 21.3216 11.8841 21.2305 12.3008C21.1393 12.7174 21.0938 13.1797 21.0938 13.6875V14.0781C21.0938 14.5208 21.1523 14.931 21.2695 15.3086C21.3932 15.6862 21.5723 16.015 21.8066 16.2949C22.0475 16.5684 22.334 16.7832 22.666 16.9395C23.0046 17.0892 23.3887 17.1641 23.8184 17.1641C24.3587 17.1641 24.847 17.0599 25.2832 16.8516C25.7259 16.6367 26.11 16.321 26.4355 15.9043L27.7344 17.252C27.513 17.5775 27.2135 17.89 26.8359 18.1895C26.4648 18.4889 26.0156 18.7331 25.4883 18.9219C24.9609 19.1042 24.3522 19.1953 23.6621 19.1953ZM34.4238 19.1953C33.623 19.1953 32.9036 19.0651 32.2656 18.8047C31.6276 18.5443 31.084 18.1829 30.6348 17.7207C30.1921 17.252 29.8503 16.7083 29.6094 16.0898C29.375 15.4648 29.2578 14.7943 29.2578 14.0781V13.6875C29.2578 12.8737 29.375 12.1348 29.6094 11.4707C29.8438 10.8001 30.1758 10.224 30.6055 9.74219C31.0352 9.26042 31.5495 8.88932 32.1484 8.62891C32.7474 8.36849 33.4082 8.23828 34.1309 8.23828C34.8796 8.23828 35.5404 8.36523 36.1133 8.61914C36.6862 8.86654 37.1647 9.2181 37.5488 9.67383C37.9329 10.1296 38.2227 10.6764 38.418 11.3145C38.6133 11.946 38.7109 12.6458 38.7109 13.4141V14.498H30.4297V12.7207H36.1719V12.5254C36.1589 12.1152 36.0807 11.7409 35.9375 11.4023C35.7943 11.0573 35.5729 10.7839 35.2734 10.582C34.974 10.3737 34.5866 10.2695 34.1113 10.2695C33.7272 10.2695 33.3919 10.3542 33.1055 10.5234C32.8255 10.6862 32.5911 10.9206 32.4023 11.2266C32.2201 11.526 32.0833 11.8841 31.9922 12.3008C31.901 12.7174 31.8555 13.1797 31.8555 13.6875V14.0781C31.8555 14.5208 31.9141 14.931 32.0312 15.3086C32.1549 15.6862 32.334 16.015 32.5684 16.2949C32.8092 16.5684 33.0957 16.7832 33.4277 16.9395C33.7663 17.0892 34.1504 17.1641 34.5801 17.1641C35.1204 17.1641 35.6087 17.0599 36.0449 16.8516C36.4876 16.6367 36.8717 16.321 37.1973 15.9043L38.4961 17.252C38.2747 17.5775 37.9753 17.89 37.5977 18.1895C37.2266 18.4889 36.7773 18.7331 36.25 18.9219C35.7227 19.1042 35.1139 19.1953 34.4238 19.1953ZM53.9355 14.3223H56.6211C56.5495 15.2728 56.2858 16.1159 55.8301 16.8516C55.3743 17.5807 54.7396 18.1536 53.9258 18.5703C53.112 18.987 52.1257 19.1953 50.9668 19.1953C50.0749 19.1953 49.2708 19.0391 48.5547 18.7266C47.8451 18.4076 47.2363 17.9551 46.7285 17.3691C46.2272 16.7767 45.8431 16.0671 45.5762 15.2402C45.3092 14.4069 45.1758 13.4727 45.1758 12.4375V11.3535C45.1758 10.3184 45.3125 9.38411 45.5859 8.55078C45.8594 7.71745 46.25 7.00781 46.7578 6.42188C47.2721 5.82943 47.8874 5.3737 48.6035 5.05469C49.3262 4.73568 50.1335 4.57617 51.0254 4.57617C52.1842 4.57617 53.1641 4.79102 53.9648 5.2207C54.7656 5.64388 55.3874 6.22656 55.8301 6.96875C56.2728 7.71094 56.5397 8.5638 56.6309 9.52734H53.9453C53.8932 8.92839 53.763 8.42057 53.5547 8.00391C53.3529 7.58724 53.0469 7.27148 52.6367 7.05664C52.2331 6.83529 51.696 6.72461 51.0254 6.72461C50.5046 6.72461 50.0456 6.82227 49.6484 7.01758C49.2578 7.21289 48.9323 7.50586 48.6719 7.89648C48.4115 8.2806 48.2161 8.76237 48.0859 9.3418C47.9557 9.91471 47.8906 10.5788 47.8906 11.334V12.4375C47.8906 13.1602 47.9492 13.8079 48.0664 14.3809C48.1836 14.9538 48.3659 15.4388 48.6133 15.8359C48.8607 16.2331 49.1797 16.5358 49.5703 16.7441C49.9609 16.9525 50.4264 17.0566 50.9668 17.0566C51.6243 17.0566 52.1582 16.9525 52.5684 16.7441C52.985 16.5358 53.3008 16.2298 53.5156 15.8262C53.737 15.4225 53.877 14.9212 53.9355 14.3223ZM61.0352 4V19H58.4473V4H61.0352ZM60.625 13.3359H59.8633C59.8633 12.6003 59.9609 11.9232 60.1562 11.3047C60.3516 10.6862 60.6283 10.1491 60.9863 9.69336C61.3444 9.23112 61.7708 8.87305 62.2656 8.61914C62.7669 8.36523 63.3203 8.23828 63.9258 8.23828C64.4466 8.23828 64.9186 8.31315 65.3418 8.46289C65.7715 8.60612 66.1393 8.83724 66.4453 9.15625C66.7513 9.47526 66.9857 9.89193 67.1484 10.4062C67.3177 10.9141 67.4023 11.5326 67.4023 12.2617V19H64.8047V12.2422C64.8047 11.7539 64.7331 11.3698 64.5898 11.0898C64.4466 10.8034 64.2415 10.5983 63.9746 10.4746C63.7142 10.3509 63.3919 10.2891 63.0078 10.2891C62.5911 10.2891 62.2331 10.3704 61.9336 10.5332C61.6341 10.6895 61.3867 10.9076 61.1914 11.1875C61.0026 11.4674 60.8594 11.7897 60.7617 12.1543C60.6706 12.5189 60.625 12.9128 60.625 13.3359ZM72.2559 10.5918V19H69.6777V8.43359H72.1191L72.2559 10.5918ZM75.4688 8.36523L75.4297 10.7676C75.2865 10.7415 75.1237 10.722 74.9414 10.709C74.7656 10.696 74.5996 10.6895 74.4434 10.6895C74.0462 10.6895 73.6979 10.7448 73.3984 10.8555C73.099 10.9596 72.8483 11.1126 72.6465 11.3145C72.4512 11.5163 72.3014 11.7637 72.1973 12.0566C72.0931 12.3431 72.0345 12.6686 72.0215 13.0332L71.4648 12.9648C71.4648 12.2943 71.5332 11.6725 71.6699 11.0996C71.8066 10.5267 72.0052 10.0254 72.2656 9.5957C72.526 9.16602 72.8516 8.83398 73.2422 8.59961C73.6393 8.35872 74.0951 8.23828 74.6094 8.23828C74.7526 8.23828 74.9056 8.2513 75.0684 8.27734C75.2376 8.29688 75.3711 8.32617 75.4688 8.36523ZM79.6191 8.43359V19H77.0312V8.43359H79.6191ZM76.8555 5.66992C76.8555 5.28581 76.9857 4.9668 77.2461 4.71289C77.513 4.45898 77.8711 4.33203 78.3203 4.33203C78.7695 4.33203 79.1243 4.45898 79.3848 4.71289C79.6517 4.9668 79.7852 5.28581 79.7852 5.66992C79.7852 6.04753 79.6517 6.36328 79.3848 6.61719C79.1243 6.87109 78.7695 6.99805 78.3203 6.99805C77.8711 6.99805 77.513 6.87109 77.2461 6.61719C76.9857 6.36328 76.8555 6.04753 76.8555 5.66992ZM87.8906 16.1094C87.8906 15.888 87.832 15.6895 87.7148 15.5137C87.5977 15.3379 87.3763 15.1784 87.0508 15.0352C86.7318 14.8854 86.263 14.7454 85.6445 14.6152C85.0977 14.498 84.5931 14.3516 84.1309 14.1758C83.6686 14 83.2715 13.7884 82.9395 13.541C82.6074 13.2871 82.347 12.9909 82.1582 12.6523C81.9759 12.3073 81.8848 11.9102 81.8848 11.4609C81.8848 11.0247 81.9792 10.6146 82.168 10.2305C82.3568 9.83984 82.6302 9.49805 82.9883 9.20508C83.3464 8.9056 83.7826 8.67122 84.2969 8.50195C84.8112 8.32617 85.3906 8.23828 86.0352 8.23828C86.9336 8.23828 87.7051 8.38477 88.3496 8.67773C89.0007 8.9707 89.4987 9.37435 89.8438 9.88867C90.1888 10.3965 90.3613 10.9694 90.3613 11.6074H87.7832C87.7832 11.3275 87.7181 11.0736 87.5879 10.8457C87.4642 10.6178 87.2721 10.4355 87.0117 10.2988C86.7513 10.1556 86.4225 10.084 86.0254 10.084C85.6673 10.084 85.3646 10.1426 85.1172 10.2598C84.8763 10.377 84.694 10.5299 84.5703 10.7188C84.4466 10.9076 84.3848 11.1159 84.3848 11.3438C84.3848 11.513 84.4173 11.666 84.4824 11.8027C84.554 11.9329 84.668 12.0534 84.8242 12.1641C84.9805 12.2747 85.1921 12.3757 85.459 12.4668C85.7324 12.5579 86.0677 12.6458 86.4648 12.7305C87.2526 12.8867 87.9395 13.0951 88.5254 13.3555C89.1178 13.6094 89.5801 13.9479 89.9121 14.3711C90.2441 14.7943 90.4102 15.3346 90.4102 15.9922C90.4102 16.4609 90.3092 16.8906 90.1074 17.2812C89.9056 17.6654 89.6126 18.0007 89.2285 18.2871C88.8444 18.5736 88.3854 18.7982 87.8516 18.9609C87.3177 19.1172 86.7155 19.1953 86.0449 19.1953C85.0749 19.1953 84.2546 19.0228 83.584 18.6777C82.9134 18.3262 82.4056 17.8835 82.0605 17.3496C81.7155 16.8092 81.543 16.2493 81.543 15.6699H84.0137C84.0332 16.0801 84.1439 16.4089 84.3457 16.6562C84.5475 16.9036 84.8014 17.0827 85.1074 17.1934C85.4199 17.2975 85.7487 17.3496 86.0938 17.3496C86.4844 17.3496 86.8132 17.2975 87.0801 17.1934C87.347 17.0827 87.5488 16.9362 87.6855 16.7539C87.8223 16.5651 87.8906 16.3503 87.8906 16.1094ZM97.373 8.43359V10.2891H91.3184V8.43359H97.373ZM92.9395 5.83594H95.5273V15.9531C95.5273 16.2656 95.5697 16.5065 95.6543 16.6758C95.7389 16.8451 95.8659 16.959 96.0352 17.0176C96.2044 17.0762 96.4062 17.1055 96.6406 17.1055C96.8099 17.1055 96.9661 17.0957 97.1094 17.0762C97.2526 17.0566 97.373 17.0371 97.4707 17.0176L97.4805 18.9512C97.2656 19.0228 97.0215 19.0814 96.748 19.127C96.4811 19.1725 96.1784 19.1953 95.8398 19.1953C95.2604 19.1953 94.7526 19.0977 94.3164 18.9023C93.8802 18.7005 93.5417 18.3783 93.3008 17.9355C93.0599 17.4863 92.9395 16.8939 92.9395 16.1582V5.83594ZM101.826 8.43359V19H99.2383V8.43359H101.826ZM99.0625 5.66992C99.0625 5.28581 99.1927 4.9668 99.4531 4.71289C99.7201 4.45898 100.078 4.33203 100.527 4.33203C100.977 4.33203 101.331 4.45898 101.592 4.71289C101.859 4.9668 101.992 5.28581 101.992 5.66992C101.992 6.04753 101.859 6.36328 101.592 6.61719C101.331 6.87109 100.977 6.99805 100.527 6.99805C100.078 6.99805 99.7201 6.87109 99.4531 6.61719C99.1927 6.36328 99.0625 6.04753 99.0625 5.66992ZM110.107 16.7539V11.8809C110.107 11.5228 110.046 11.2135 109.922 10.9531C109.798 10.6927 109.609 10.4909 109.355 10.3477C109.102 10.2044 108.779 10.1328 108.389 10.1328C108.044 10.1328 107.741 10.1914 107.48 10.3086C107.227 10.4258 107.031 10.5918 106.895 10.8066C106.758 11.015 106.689 11.2559 106.689 11.5293H104.102C104.102 11.0931 104.206 10.6797 104.414 10.2891C104.622 9.89193 104.919 9.54036 105.303 9.23438C105.693 8.92188 106.159 8.67773 106.699 8.50195C107.246 8.32617 107.858 8.23828 108.535 8.23828C109.336 8.23828 110.049 8.375 110.674 8.64844C111.305 8.91536 111.8 9.31901 112.158 9.85938C112.523 10.3997 112.705 11.0801 112.705 11.9004V16.5098C112.705 17.0371 112.738 17.4896 112.803 17.8672C112.874 18.2383 112.979 18.5605 113.115 18.834V19H110.488C110.365 18.7331 110.27 18.3945 110.205 17.9844C110.14 17.5677 110.107 17.1576 110.107 16.7539ZM110.469 12.5645L110.488 14.0977H108.857C108.454 14.0977 108.099 14.14 107.793 14.2246C107.487 14.3027 107.236 14.4199 107.041 14.5762C106.846 14.7259 106.699 14.9082 106.602 15.123C106.504 15.3314 106.455 15.569 106.455 15.8359C106.455 16.0964 106.514 16.3307 106.631 16.5391C106.755 16.7474 106.93 16.9134 107.158 17.0371C107.393 17.1543 107.666 17.2129 107.979 17.2129C108.434 17.2129 108.831 17.1217 109.17 16.9395C109.508 16.7507 109.772 16.5228 109.961 16.2559C110.15 15.9889 110.251 15.735 110.264 15.4941L111.006 16.6074C110.915 16.8743 110.778 17.1576 110.596 17.457C110.413 17.7565 110.179 18.0365 109.893 18.2969C109.606 18.5573 109.261 18.7721 108.857 18.9414C108.454 19.1107 107.985 19.1953 107.451 19.1953C106.768 19.1953 106.156 19.0586 105.615 18.7852C105.075 18.5117 104.648 18.1374 104.336 17.6621C104.023 17.1868 103.867 16.6465 103.867 16.041C103.867 15.4811 103.971 14.9863 104.18 14.5566C104.388 14.127 104.697 13.7656 105.107 13.4727C105.518 13.1732 106.025 12.9486 106.631 12.7988C107.243 12.6426 107.943 12.5645 108.73 12.5645H110.469ZM117.559 10.6895V19H114.98V8.43359H117.402L117.559 10.6895ZM117.148 13.3359H116.387C116.393 12.5677 116.497 11.8711 116.699 11.2461C116.901 10.6211 117.184 10.084 117.549 9.63477C117.92 9.18555 118.359 8.84049 118.867 8.59961C119.375 8.35872 119.941 8.23828 120.566 8.23828C121.074 8.23828 121.533 8.3099 121.943 8.45312C122.354 8.59635 122.705 8.82422 122.998 9.13672C123.298 9.44922 123.525 9.85938 123.682 10.3672C123.844 10.8685 123.926 11.487 123.926 12.2227V19H121.328V12.2031C121.328 11.7214 121.257 11.3405 121.113 11.0605C120.977 10.7806 120.775 10.582 120.508 10.4648C120.247 10.3477 119.925 10.2891 119.541 10.2891C119.144 10.2891 118.796 10.3704 118.496 10.5332C118.203 10.6895 117.956 10.9076 117.754 11.1875C117.559 11.4674 117.409 11.7897 117.305 12.1543C117.201 12.5189 117.148 12.9128 117.148 13.3359ZM138.818 15.3086C138.818 15.0352 138.776 14.791 138.691 14.5762C138.613 14.3548 138.467 14.1562 138.252 13.9805C138.044 13.7982 137.747 13.6224 137.363 13.4531C136.986 13.2773 136.497 13.0951 135.898 12.9062C135.234 12.6979 134.616 12.4635 134.043 12.2031C133.47 11.9427 132.965 11.64 132.529 11.2949C132.1 10.9499 131.764 10.5527 131.523 10.1035C131.283 9.64779 131.162 9.12044 131.162 8.52148C131.162 7.93555 131.286 7.40169 131.533 6.91992C131.787 6.43815 132.145 6.02474 132.607 5.67969C133.07 5.32812 133.613 5.05794 134.238 4.86914C134.87 4.68034 135.566 4.58594 136.328 4.58594C137.383 4.58594 138.294 4.77799 139.062 5.16211C139.837 5.54622 140.436 6.06706 140.859 6.72461C141.283 7.38216 141.494 8.12109 141.494 8.94141H138.818C138.818 8.4987 138.724 8.10807 138.535 7.76953C138.353 7.43099 138.073 7.16406 137.695 6.96875C137.324 6.77344 136.855 6.67578 136.289 6.67578C135.742 6.67578 135.286 6.75716 134.922 6.91992C134.564 7.08268 134.294 7.30404 134.111 7.58398C133.936 7.86393 133.848 8.17643 133.848 8.52148C133.848 8.7819 133.91 9.01628 134.033 9.22461C134.157 9.42643 134.342 9.61849 134.59 9.80078C134.837 9.97656 135.143 10.1426 135.508 10.2988C135.879 10.4486 136.309 10.5983 136.797 10.748C137.578 10.9824 138.262 11.2428 138.848 11.5293C139.44 11.8158 139.932 12.1413 140.322 12.5059C140.719 12.8704 141.016 13.2806 141.211 13.7363C141.413 14.1921 141.514 14.7096 141.514 15.2891C141.514 15.901 141.393 16.4479 141.152 16.9297C140.911 17.4115 140.566 17.8216 140.117 18.1602C139.668 18.4987 139.128 18.7559 138.496 18.9316C137.871 19.1074 137.171 19.1953 136.396 19.1953C135.706 19.1953 135.023 19.1042 134.346 18.9219C133.675 18.7331 133.066 18.4531 132.52 18.082C131.973 17.7044 131.536 17.2292 131.211 16.6562C130.885 16.0768 130.723 15.3997 130.723 14.625H133.418C133.418 15.0742 133.49 15.4583 133.633 15.7773C133.783 16.0898 133.991 16.347 134.258 16.5488C134.531 16.7441 134.85 16.8874 135.215 16.9785C135.579 17.0697 135.973 17.1152 136.396 17.1152C136.943 17.1152 137.393 17.0404 137.744 16.8906C138.102 16.7344 138.369 16.5195 138.545 16.2461C138.727 15.9727 138.818 15.6602 138.818 15.3086ZM146.123 8.43359V19H143.535V8.43359H146.123ZM143.359 5.66992C143.359 5.28581 143.49 4.9668 143.75 4.71289C144.017 4.45898 144.375 4.33203 144.824 4.33203C145.273 4.33203 145.628 4.45898 145.889 4.71289C146.156 4.9668 146.289 5.28581 146.289 5.66992C146.289 6.04753 146.156 6.36328 145.889 6.61719C145.628 6.87109 145.273 6.99805 144.824 6.99805C144.375 6.99805 144.017 6.87109 143.75 6.61719C143.49 6.36328 143.359 6.04753 143.359 5.66992ZM151.113 10.6895V19H148.535V8.43359H150.957L151.113 10.6895ZM150.703 13.3359H149.941C149.948 12.5677 150.052 11.8711 150.254 11.2461C150.456 10.6211 150.739 10.084 151.104 9.63477C151.475 9.18555 151.914 8.84049 152.422 8.59961C152.93 8.35872 153.496 8.23828 154.121 8.23828C154.629 8.23828 155.088 8.3099 155.498 8.45312C155.908 8.59635 156.26 8.82422 156.553 9.13672C156.852 9.44922 157.08 9.85938 157.236 10.3672C157.399 10.8685 157.48 11.487 157.48 12.2227V19H154.883V12.2031C154.883 11.7214 154.811 11.3405 154.668 11.0605C154.531 10.7806 154.329 10.582 154.062 10.4648C153.802 10.3477 153.48 10.2891 153.096 10.2891C152.699 10.2891 152.35 10.3704 152.051 10.5332C151.758 10.6895 151.51 10.9076 151.309 11.1875C151.113 11.4674 150.964 11.7897 150.859 12.1543C150.755 12.5189 150.703 12.9128 150.703 13.3359ZM166.475 8.43359H168.818V18.6777C168.818 19.6348 168.61 20.4453 168.193 21.1094C167.783 21.7799 167.207 22.2878 166.465 22.6328C165.723 22.9844 164.86 23.1602 163.877 23.1602C163.454 23.1602 162.995 23.1016 162.5 22.9844C162.012 22.8672 161.54 22.6816 161.084 22.4277C160.635 22.1803 160.26 21.8581 159.961 21.4609L161.123 19.9375C161.475 20.3477 161.872 20.6569 162.314 20.8652C162.757 21.0801 163.236 21.1875 163.75 21.1875C164.271 21.1875 164.714 21.0898 165.078 20.8945C165.449 20.7057 165.732 20.4258 165.928 20.0547C166.13 19.6901 166.23 19.2409 166.23 18.707V10.8457L166.475 8.43359ZM159.336 13.8438V13.6387C159.336 12.8314 159.434 12.099 159.629 11.4414C159.824 10.7773 160.104 10.2077 160.469 9.73242C160.84 9.25716 161.286 8.88932 161.807 8.62891C162.334 8.36849 162.926 8.23828 163.584 8.23828C164.281 8.23828 164.867 8.36523 165.342 8.61914C165.824 8.87305 166.221 9.23438 166.533 9.70312C166.852 10.1719 167.1 10.7285 167.275 11.373C167.458 12.0111 167.598 12.7142 167.695 13.4824V14.0391C167.604 14.7878 167.458 15.4746 167.256 16.0996C167.061 16.7246 166.8 17.2715 166.475 17.7402C166.149 18.2025 165.745 18.5605 165.264 18.8145C164.782 19.0684 164.215 19.1953 163.564 19.1953C162.913 19.1953 162.327 19.0618 161.807 18.7949C161.286 18.528 160.84 18.1536 160.469 17.6719C160.104 17.1901 159.824 16.6237 159.629 15.9727C159.434 15.3216 159.336 14.612 159.336 13.8438ZM161.914 13.6387V13.8438C161.914 14.2995 161.96 14.7259 162.051 15.123C162.142 15.5202 162.282 15.8717 162.471 16.1777C162.66 16.4772 162.897 16.7116 163.184 16.8809C163.47 17.0501 163.812 17.1348 164.209 17.1348C164.743 17.1348 165.179 17.0241 165.518 16.8027C165.863 16.5749 166.123 16.2656 166.299 15.875C166.481 15.4779 166.598 15.0319 166.65 14.5371V13.0039C166.618 12.6133 166.546 12.252 166.436 11.9199C166.331 11.5879 166.185 11.3014 165.996 11.0605C165.807 10.8197 165.566 10.6309 165.273 10.4941C164.98 10.3574 164.632 10.2891 164.229 10.2891C163.838 10.2891 163.496 10.377 163.203 10.5527C162.91 10.722 162.669 10.9596 162.48 11.2656C162.292 11.5716 162.148 11.9264 162.051 12.3301C161.96 12.7337 161.914 13.1699 161.914 13.6387ZM173.877 4V19H171.289V4H173.877ZM181.084 19.1953C180.283 19.1953 179.564 19.0651 178.926 18.8047C178.288 18.5443 177.744 18.1829 177.295 17.7207C176.852 17.252 176.51 16.7083 176.27 16.0898C176.035 15.4648 175.918 14.7943 175.918 14.0781V13.6875C175.918 12.8737 176.035 12.1348 176.27 11.4707C176.504 10.8001 176.836 10.224 177.266 9.74219C177.695 9.26042 178.21 8.88932 178.809 8.62891C179.408 8.36849 180.068 8.23828 180.791 8.23828C181.54 8.23828 182.201 8.36523 182.773 8.61914C183.346 8.86654 183.825 9.2181 184.209 9.67383C184.593 10.1296 184.883 10.6764 185.078 11.3145C185.273 11.946 185.371 12.6458 185.371 13.4141V14.498H177.09V12.7207H182.832V12.5254C182.819 12.1152 182.741 11.7409 182.598 11.4023C182.454 11.0573 182.233 10.7839 181.934 10.582C181.634 10.3737 181.247 10.2695 180.771 10.2695C180.387 10.2695 180.052 10.3542 179.766 10.5234C179.486 10.6862 179.251 10.9206 179.062 11.2266C178.88 11.526 178.743 11.8841 178.652 12.3008C178.561 12.7174 178.516 13.1797 178.516 13.6875V14.0781C178.516 14.5208 178.574 14.931 178.691 15.3086C178.815 15.6862 178.994 16.015 179.229 16.2949C179.469 16.5684 179.756 16.7832 180.088 16.9395C180.426 17.0892 180.811 17.1641 181.24 17.1641C181.781 17.1641 182.269 17.0599 182.705 16.8516C183.148 16.6367 183.532 16.321 183.857 15.9043L185.156 17.252C184.935 17.5775 184.635 17.89 184.258 18.1895C183.887 18.4889 183.438 18.7331 182.91 18.9219C182.383 19.1042 181.774 19.1953 181.084 19.1953ZM192.91 16.1094C192.91 15.888 192.852 15.6895 192.734 15.5137C192.617 15.3379 192.396 15.1784 192.07 15.0352C191.751 14.8854 191.283 14.7454 190.664 14.6152C190.117 14.498 189.613 14.3516 189.15 14.1758C188.688 14 188.291 13.7884 187.959 13.541C187.627 13.2871 187.367 12.9909 187.178 12.6523C186.995 12.3073 186.904 11.9102 186.904 11.4609C186.904 11.0247 186.999 10.6146 187.188 10.2305C187.376 9.83984 187.65 9.49805 188.008 9.20508C188.366 8.9056 188.802 8.67122 189.316 8.50195C189.831 8.32617 190.41 8.23828 191.055 8.23828C191.953 8.23828 192.725 8.38477 193.369 8.67773C194.02 8.9707 194.518 9.37435 194.863 9.88867C195.208 10.3965 195.381 10.9694 195.381 11.6074H192.803C192.803 11.3275 192.738 11.0736 192.607 10.8457C192.484 10.6178 192.292 10.4355 192.031 10.2988C191.771 10.1556 191.442 10.084 191.045 10.084C190.687 10.084 190.384 10.1426 190.137 10.2598C189.896 10.377 189.714 10.5299 189.59 10.7188C189.466 10.9076 189.404 11.1159 189.404 11.3438C189.404 11.513 189.437 11.666 189.502 11.8027C189.574 11.9329 189.688 12.0534 189.844 12.1641C190 12.2747 190.212 12.3757 190.479 12.4668C190.752 12.5579 191.087 12.6458 191.484 12.7305C192.272 12.8867 192.959 13.0951 193.545 13.3555C194.137 13.6094 194.6 13.9479 194.932 14.3711C195.264 14.7943 195.43 15.3346 195.43 15.9922C195.43 16.4609 195.329 16.8906 195.127 17.2812C194.925 17.6654 194.632 18.0007 194.248 18.2871C193.864 18.5736 193.405 18.7982 192.871 18.9609C192.337 19.1172 191.735 19.1953 191.064 19.1953C190.094 19.1953 189.274 19.0228 188.604 18.6777C187.933 18.3262 187.425 17.8835 187.08 17.3496C186.735 16.8092 186.562 16.2493 186.562 15.6699H189.033C189.053 16.0801 189.163 16.4089 189.365 16.6562C189.567 16.9036 189.821 17.0827 190.127 17.1934C190.439 17.2975 190.768 17.3496 191.113 17.3496C191.504 17.3496 191.833 17.2975 192.1 17.1934C192.367 17.0827 192.568 16.9362 192.705 16.7539C192.842 16.5651 192.91 16.3503 192.91 16.1094ZM198.867 4V5.33789L198.594 9.16602H196.943V5.48438V4H198.867ZM5.60547 43H2.53906L2.55859 40.8906H5.60547C6.43229 40.8906 7.12565 40.7083 7.68555 40.3438C8.24544 39.9727 8.66862 39.4421 8.95508 38.752C9.24154 38.0553 9.38477 37.222 9.38477 36.252V35.5195C9.38477 34.7708 9.30339 34.11 9.14062 33.5371C8.97786 32.9642 8.73698 32.4824 8.41797 32.0918C8.10547 31.7012 7.7181 31.4049 7.25586 31.2031C6.79362 31.0013 6.26302 30.9004 5.66406 30.9004H2.48047V28.7812H5.66406C6.61458 28.7812 7.48047 28.9408 8.26172 29.2598C9.04948 29.5788 9.72982 30.0378 10.3027 30.6367C10.8822 31.2292 11.3249 31.9388 11.6309 32.7656C11.9434 33.5924 12.0996 34.5169 12.0996 35.5391V36.252C12.0996 37.2676 11.9434 38.1921 11.6309 39.0254C11.3249 39.8522 10.8822 40.5618 10.3027 41.1543C9.72982 41.7467 9.04622 42.2025 8.25195 42.5215C7.45768 42.8405 6.57552 43 5.60547 43ZM4.04297 28.7812V43H1.35742V28.7812H4.04297ZM16.9238 32.4336V43H14.3359V32.4336H16.9238ZM14.1602 29.6699C14.1602 29.2858 14.2904 28.9668 14.5508 28.7129C14.8177 28.459 15.1758 28.332 15.625 28.332C16.0742 28.332 16.429 28.459 16.6895 28.7129C16.9564 28.9668 17.0898 29.2858 17.0898 29.6699C17.0898 30.0475 16.9564 30.3633 16.6895 30.6172C16.429 30.8711 16.0742 30.998 15.625 30.998C15.1758 30.998 14.8177 30.8711 14.5508 30.6172C14.2904 30.3633 14.1602 30.0475 14.1602 29.6699ZM21.9141 34.6895V43H19.3359V32.4336H21.7578L21.9141 34.6895ZM21.5039 37.3359H20.7422C20.7487 36.5677 20.8529 35.8711 21.0547 35.2461C21.2565 34.6211 21.5397 34.084 21.9043 33.6348C22.2754 33.1855 22.7148 32.8405 23.2227 32.5996C23.7305 32.3587 24.2969 32.2383 24.9219 32.2383C25.4297 32.2383 25.8887 32.3099 26.2988 32.4531C26.709 32.5964 27.0605 32.8242 27.3535 33.1367C27.653 33.4492 27.8809 33.8594 28.0371 34.3672C28.1999 34.8685 28.2812 35.487 28.2812 36.2227V43H25.6836V36.2031C25.6836 35.7214 25.612 35.3405 25.4688 35.0605C25.332 34.7806 25.1302 34.582 24.8633 34.4648C24.6029 34.3477 24.2806 34.2891 23.8965 34.2891C23.4993 34.2891 23.151 34.3704 22.8516 34.5332C22.5586 34.6895 22.3112 34.9076 22.1094 35.1875C21.9141 35.4674 21.7643 35.7897 21.6602 36.1543C21.556 36.5189 21.5039 36.9128 21.5039 37.3359ZM33.0859 34.6895V43H30.5078V32.4336H32.9297L33.0859 34.6895ZM32.6758 37.3359H31.9141C31.9206 36.5677 32.0247 35.8711 32.2266 35.2461C32.4284 34.6211 32.7116 34.084 33.0762 33.6348C33.4473 33.1855 33.8867 32.8405 34.3945 32.5996C34.9023 32.3587 35.4688 32.2383 36.0938 32.2383C36.6016 32.2383 37.0605 32.3099 37.4707 32.4531C37.8809 32.5964 38.2324 32.8242 38.5254 33.1367C38.8249 33.4492 39.0527 33.8594 39.209 34.3672C39.3717 34.8685 39.4531 35.487 39.4531 36.2227V43H36.8555V36.2031C36.8555 35.7214 36.7839 35.3405 36.6406 35.0605C36.5039 34.7806 36.3021 34.582 36.0352 34.4648C35.7747 34.3477 35.4525 34.2891 35.0684 34.2891C34.6712 34.2891 34.3229 34.3704 34.0234 34.5332C33.7305 34.6895 33.4831 34.9076 33.2812 35.1875C33.0859 35.4674 32.9362 35.7897 32.832 36.1543C32.7279 36.5189 32.6758 36.9128 32.6758 37.3359ZM46.4746 43.1953C45.6738 43.1953 44.9544 43.0651 44.3164 42.8047C43.6784 42.5443 43.1348 42.1829 42.6855 41.7207C42.2428 41.252 41.901 40.7083 41.6602 40.0898C41.4258 39.4648 41.3086 38.7943 41.3086 38.0781V37.6875C41.3086 36.8737 41.4258 36.1348 41.6602 35.4707C41.8945 34.8001 42.2266 34.224 42.6562 33.7422C43.0859 33.2604 43.6003 32.8893 44.1992 32.6289C44.7982 32.3685 45.459 32.2383 46.1816 32.2383C46.9303 32.2383 47.5911 32.3652 48.1641 32.6191C48.737 32.8665 49.2155 33.2181 49.5996 33.6738C49.9837 34.1296 50.2734 34.6764 50.4688 35.3145C50.6641 35.946 50.7617 36.6458 50.7617 37.4141V38.498H42.4805V36.7207H48.2227V36.5254C48.2096 36.1152 48.1315 35.7409 47.9883 35.4023C47.8451 35.0573 47.6237 34.7839 47.3242 34.582C47.0247 34.3737 46.6374 34.2695 46.1621 34.2695C45.778 34.2695 45.4427 34.3542 45.1562 34.5234C44.8763 34.6862 44.6419 34.9206 44.4531 35.2266C44.2708 35.526 44.1341 35.8841 44.043 36.3008C43.9518 36.7174 43.9062 37.1797 43.9062 37.6875V38.0781C43.9062 38.5208 43.9648 38.931 44.082 39.3086C44.2057 39.6862 44.3848 40.015 44.6191 40.2949C44.86 40.5684 45.1465 40.7832 45.4785 40.9395C45.8171 41.0892 46.2012 41.1641 46.6309 41.1641C47.1712 41.1641 47.6595 41.0599 48.0957 40.8516C48.5384 40.6367 48.9225 40.321 49.248 39.9043L50.5469 41.252C50.3255 41.5775 50.026 41.89 49.6484 42.1895C49.2773 42.4889 48.8281 42.7331 48.3008 42.9219C47.7734 43.1042 47.1647 43.1953 46.4746 43.1953ZM55.0684 34.5918V43H52.4902V32.4336H54.9316L55.0684 34.5918ZM58.2812 32.3652L58.2422 34.7676C58.099 34.7415 57.9362 34.722 57.7539 34.709C57.5781 34.696 57.4121 34.6895 57.2559 34.6895C56.8587 34.6895 56.5104 34.7448 56.2109 34.8555C55.9115 34.9596 55.6608 35.1126 55.459 35.3145C55.2637 35.5163 55.1139 35.7637 55.0098 36.0566C54.9056 36.3431 54.847 36.6686 54.834 37.0332L54.2773 36.9648C54.2773 36.2943 54.3457 35.6725 54.4824 35.0996C54.6191 34.5267 54.8177 34.0254 55.0781 33.5957C55.3385 33.166 55.6641 32.834 56.0547 32.5996C56.4518 32.3587 56.9076 32.2383 57.4219 32.2383C57.5651 32.2383 57.7181 32.2513 57.8809 32.2773C58.0501 32.2969 58.1836 32.3262 58.2812 32.3652Z" fill="#212121"/>
<path d="M7.58789 75.2031V76.5635H2.30371V75.2031H7.58789ZM2.72754 71.0469V81H1.01172V71.0469H2.72754ZM8.90723 71.0469V81H7.19824V71.0469H8.90723ZM10.4727 77.3838V77.2266C10.4727 76.6934 10.5501 76.1989 10.7051 75.7432C10.86 75.2829 11.0833 74.8841 11.375 74.5469C11.6712 74.2051 12.0312 73.9408 12.4551 73.7539C12.8835 73.5625 13.3665 73.4668 13.9043 73.4668C14.4466 73.4668 14.9297 73.5625 15.3535 73.7539C15.7819 73.9408 16.1442 74.2051 16.4404 74.5469C16.7367 74.8841 16.9622 75.2829 17.1172 75.7432C17.2721 76.1989 17.3496 76.6934 17.3496 77.2266V77.3838C17.3496 77.917 17.2721 78.4115 17.1172 78.8672C16.9622 79.3229 16.7367 79.7217 16.4404 80.0635C16.1442 80.4007 15.7842 80.665 15.3604 80.8564C14.9365 81.0433 14.4557 81.1367 13.918 81.1367C13.3757 81.1367 12.8903 81.0433 12.4619 80.8564C12.0381 80.665 11.6781 80.4007 11.3818 80.0635C11.0856 79.7217 10.86 79.3229 10.7051 78.8672C10.5501 78.4115 10.4727 77.917 10.4727 77.3838ZM12.1201 77.2266V77.3838C12.1201 77.7165 12.1543 78.0309 12.2227 78.3271C12.291 78.6234 12.3981 78.8831 12.5439 79.1064C12.6898 79.3298 12.8766 79.5052 13.1045 79.6328C13.3324 79.7604 13.6035 79.8242 13.918 79.8242C14.2233 79.8242 14.4876 79.7604 14.7109 79.6328C14.9388 79.5052 15.1257 79.3298 15.2715 79.1064C15.4173 78.8831 15.5244 78.6234 15.5928 78.3271C15.6657 78.0309 15.7021 77.7165 15.7021 77.3838V77.2266C15.7021 76.8984 15.6657 76.5885 15.5928 76.2969C15.5244 76.0007 15.415 75.7386 15.2646 75.5107C15.1188 75.2829 14.932 75.1051 14.7041 74.9775C14.4808 74.8454 14.2142 74.7793 13.9043 74.7793C13.5944 74.7793 13.3255 74.8454 13.0977 74.9775C12.8743 75.1051 12.6898 75.2829 12.5439 75.5107C12.3981 75.7386 12.291 76.0007 12.2227 76.2969C12.1543 76.5885 12.1201 76.8984 12.1201 77.2266ZM18.7373 70.5H20.3848V79.4209L20.2275 81H18.7373V70.5ZM25.2109 77.2334V77.377C25.2109 77.9238 25.1494 78.4274 25.0264 78.8877C24.9079 79.3434 24.7256 79.7399 24.4795 80.0771C24.238 80.4144 23.9372 80.6764 23.5771 80.8633C23.2217 81.0456 22.8092 81.1367 22.3398 81.1367C21.8796 81.1367 21.4785 81.0501 21.1367 80.877C20.7949 80.7038 20.5078 80.4577 20.2754 80.1387C20.0475 79.8197 19.863 79.4391 19.7217 78.9971C19.5804 78.555 19.4801 78.0674 19.4209 77.5342V77.0762C19.4801 76.5384 19.5804 76.0508 19.7217 75.6133C19.863 75.1712 20.0475 74.7907 20.2754 74.4717C20.5078 74.1481 20.7926 73.8997 21.1299 73.7266C21.4717 73.5534 21.8704 73.4668 22.3262 73.4668C22.8001 73.4668 23.2171 73.5579 23.5771 73.7402C23.9417 73.9225 24.2448 74.1823 24.4863 74.5195C24.7279 74.8522 24.9079 75.2487 25.0264 75.709C25.1494 76.1693 25.2109 76.6774 25.2109 77.2334ZM23.5635 77.377V77.2334C23.5635 76.9007 23.5361 76.5885 23.4814 76.2969C23.4268 76.0007 23.3356 75.7409 23.208 75.5176C23.085 75.2943 22.9163 75.1188 22.7021 74.9912C22.4925 74.859 22.2305 74.793 21.916 74.793C21.6243 74.793 21.3737 74.8431 21.1641 74.9434C20.9544 75.0436 20.779 75.1803 20.6377 75.3535C20.4964 75.5267 20.3848 75.7272 20.3027 75.9551C20.2253 76.1829 20.1729 76.429 20.1455 76.6934V77.9307C20.1865 78.2725 20.2731 78.5869 20.4053 78.874C20.542 79.1566 20.7334 79.3844 20.9795 79.5576C21.2256 79.7262 21.5423 79.8105 21.9297 79.8105C22.235 79.8105 22.4925 79.749 22.7021 79.626C22.9118 79.5029 23.0781 79.332 23.2012 79.1133C23.3288 78.89 23.4199 78.6302 23.4746 78.334C23.5339 78.0378 23.5635 77.7188 23.5635 77.377ZM26.6123 70.5H28.2598V79.4209L28.1025 81H26.6123V70.5ZM33.0859 77.2334V77.377C33.0859 77.9238 33.0244 78.4274 32.9014 78.8877C32.7829 79.3434 32.6006 79.7399 32.3545 80.0771C32.113 80.4144 31.8122 80.6764 31.4521 80.8633C31.0967 81.0456 30.6842 81.1367 30.2148 81.1367C29.7546 81.1367 29.3535 81.0501 29.0117 80.877C28.6699 80.7038 28.3828 80.4577 28.1504 80.1387C27.9225 79.8197 27.738 79.4391 27.5967 78.9971C27.4554 78.555 27.3551 78.0674 27.2959 77.5342V77.0762C27.3551 76.5384 27.4554 76.0508 27.5967 75.6133C27.738 75.1712 27.9225 74.7907 28.1504 74.4717C28.3828 74.1481 28.6676 73.8997 29.0049 73.7266C29.3467 73.5534 29.7454 73.4668 30.2012 73.4668C30.6751 73.4668 31.0921 73.5579 31.4521 73.7402C31.8167 73.9225 32.1198 74.1823 32.3613 74.5195C32.6029 74.8522 32.7829 75.2487 32.9014 75.709C33.0244 76.1693 33.0859 76.6774 33.0859 77.2334ZM31.4385 77.377V77.2334C31.4385 76.9007 31.4111 76.5885 31.3564 76.2969C31.3018 76.0007 31.2106 75.7409 31.083 75.5176C30.96 75.2943 30.7913 75.1188 30.5771 74.9912C30.3675 74.859 30.1055 74.793 29.791 74.793C29.4993 74.793 29.2487 74.8431 29.0391 74.9434C28.8294 75.0436 28.654 75.1803 28.5127 75.3535C28.3714 75.5267 28.2598 75.7272 28.1777 75.9551C28.1003 76.1829 28.0479 76.429 28.0205 76.6934V77.9307C28.0615 78.2725 28.1481 78.5869 28.2803 78.874C28.417 79.1566 28.6084 79.3844 28.8545 79.5576C29.1006 79.7262 29.4173 79.8105 29.8047 79.8105C30.11 79.8105 30.3675 79.749 30.5771 79.626C30.7868 79.5029 30.9531 79.332 31.0762 79.1133C31.2038 78.89 31.2949 78.6302 31.3496 78.334C31.4089 78.0378 31.4385 77.7188 31.4385 77.377ZM36.2441 73.6035V81H34.5898V73.6035H36.2441ZM34.4805 71.6621C34.4805 71.4115 34.5625 71.2041 34.7266 71.04C34.8952 70.8714 35.1276 70.7871 35.4238 70.7871C35.7155 70.7871 35.9456 70.8714 36.1143 71.04C36.2829 71.2041 36.3672 71.4115 36.3672 71.6621C36.3672 71.9082 36.2829 72.1133 36.1143 72.2773C35.9456 72.4414 35.7155 72.5234 35.4238 72.5234C35.1276 72.5234 34.8952 72.4414 34.7266 72.2773C34.5625 72.1133 34.4805 71.9082 34.4805 71.6621ZM41.3096 81.1367C40.7627 81.1367 40.2682 81.0479 39.8262 80.8701C39.3887 80.6878 39.015 80.4349 38.7051 80.1113C38.3997 79.7878 38.165 79.4072 38.001 78.9697C37.8369 78.5322 37.7549 78.0605 37.7549 77.5547V77.2812C37.7549 76.7025 37.8392 76.1784 38.0078 75.709C38.1764 75.2396 38.4111 74.8385 38.7119 74.5059C39.0127 74.1686 39.3682 73.9111 39.7783 73.7334C40.1885 73.5557 40.6328 73.4668 41.1113 73.4668C41.64 73.4668 42.1025 73.5557 42.499 73.7334C42.8955 73.9111 43.2236 74.1618 43.4834 74.4854C43.7477 74.8044 43.9437 75.1849 44.0713 75.627C44.2035 76.069 44.2695 76.5566 44.2695 77.0898V77.7939H38.5547V76.6113H42.6426V76.4814C42.6335 76.1852 42.5742 75.9072 42.4648 75.6475C42.36 75.3877 42.1982 75.1781 41.9795 75.0186C41.7607 74.859 41.4691 74.7793 41.1045 74.7793C40.8311 74.7793 40.5872 74.8385 40.373 74.957C40.1634 75.071 39.988 75.2373 39.8467 75.4561C39.7054 75.6748 39.596 75.9391 39.5186 76.249C39.4456 76.5544 39.4092 76.8984 39.4092 77.2812V77.5547C39.4092 77.8783 39.4525 78.179 39.5391 78.457C39.6302 78.7305 39.7624 78.9697 39.9355 79.1748C40.1087 79.3799 40.3184 79.5417 40.5645 79.6602C40.8105 79.7741 41.0908 79.8311 41.4053 79.8311C41.8018 79.8311 42.1549 79.7513 42.4648 79.5918C42.7747 79.4323 43.0436 79.2067 43.2715 78.915L44.1396 79.7559C43.9801 79.9883 43.7728 80.2116 43.5176 80.4258C43.2624 80.6354 42.9502 80.8063 42.5811 80.9385C42.2165 81.0706 41.7926 81.1367 41.3096 81.1367ZM49.7041 78.9971C49.7041 78.833 49.6631 78.6849 49.5811 78.5527C49.499 78.416 49.3418 78.293 49.1094 78.1836C48.8815 78.0742 48.5443 77.974 48.0977 77.8828C47.7057 77.7962 47.3457 77.6937 47.0176 77.5752C46.694 77.4521 46.416 77.304 46.1836 77.1309C45.9512 76.9577 45.7712 76.7526 45.6436 76.5156C45.516 76.2786 45.4521 76.0052 45.4521 75.6953C45.4521 75.3945 45.5182 75.1097 45.6504 74.8408C45.7826 74.5719 45.9717 74.335 46.2178 74.1299C46.4639 73.9248 46.7624 73.763 47.1133 73.6445C47.4688 73.526 47.8652 73.4668 48.3027 73.4668C48.9225 73.4668 49.4535 73.5716 49.8955 73.7812C50.3421 73.9863 50.6839 74.2666 50.9209 74.6221C51.1579 74.973 51.2764 75.3695 51.2764 75.8115H49.6289C49.6289 75.6156 49.5788 75.4333 49.4785 75.2646C49.3828 75.0915 49.237 74.9525 49.041 74.8477C48.8451 74.7383 48.599 74.6836 48.3027 74.6836C48.0202 74.6836 47.7855 74.7292 47.5986 74.8203C47.4163 74.9069 47.2796 75.0208 47.1885 75.1621C47.1019 75.3034 47.0586 75.4583 47.0586 75.627C47.0586 75.75 47.0814 75.8617 47.127 75.9619C47.1771 76.0576 47.2591 76.1465 47.373 76.2285C47.487 76.306 47.6419 76.3789 47.8379 76.4473C48.0384 76.5156 48.2891 76.5817 48.5898 76.6455C49.1549 76.764 49.6403 76.9167 50.0459 77.1035C50.4561 77.2858 50.7705 77.5228 50.9893 77.8145C51.208 78.1016 51.3174 78.4661 51.3174 78.9082C51.3174 79.2363 51.2467 79.5371 51.1055 79.8105C50.9688 80.0794 50.7682 80.3141 50.5039 80.5146C50.2396 80.7106 49.9229 80.8633 49.5537 80.9727C49.1891 81.082 48.779 81.1367 48.3232 81.1367C47.6533 81.1367 47.0859 81.0182 46.6211 80.7812C46.1562 80.5397 45.8031 80.2321 45.5615 79.8584C45.3245 79.4801 45.2061 79.0882 45.2061 78.6826H46.7988C46.8171 78.988 46.9014 79.2318 47.0518 79.4141C47.2067 79.5918 47.3981 79.7217 47.626 79.8037C47.8584 79.8812 48.0977 79.9199 48.3438 79.9199C48.64 79.9199 48.8883 79.8812 49.0889 79.8037C49.2894 79.7217 49.4421 79.6123 49.5469 79.4756C49.6517 79.3343 49.7041 79.1748 49.7041 78.9971ZM60.416 79.5166V75.9893C60.416 75.7249 60.3682 75.4971 60.2725 75.3057C60.1768 75.1143 60.0309 74.9661 59.835 74.8613C59.6436 74.7565 59.402 74.7041 59.1104 74.7041C58.8415 74.7041 58.609 74.7497 58.4131 74.8408C58.2171 74.932 58.0645 75.055 57.9551 75.21C57.8457 75.3649 57.791 75.5404 57.791 75.7363H56.1504C56.1504 75.4447 56.221 75.1621 56.3623 74.8887C56.5036 74.6152 56.7087 74.3714 56.9775 74.1572C57.2464 73.943 57.5677 73.7744 57.9414 73.6514C58.3151 73.5283 58.7344 73.4668 59.1992 73.4668C59.7552 73.4668 60.2474 73.5602 60.6758 73.7471C61.1087 73.9339 61.4482 74.2165 61.6943 74.5947C61.945 74.9684 62.0703 75.4378 62.0703 76.0029V79.291C62.0703 79.6283 62.0931 79.9313 62.1387 80.2002C62.1888 80.4645 62.2594 80.6947 62.3506 80.8906V81H60.6621C60.5846 80.8223 60.5231 80.5967 60.4775 80.3232C60.4365 80.0452 60.416 79.7764 60.416 79.5166ZM60.6553 76.502L60.6689 77.5205H59.4863C59.181 77.5205 58.9121 77.5501 58.6797 77.6094C58.4473 77.6641 58.2536 77.7461 58.0986 77.8555C57.9437 77.9648 57.8275 78.097 57.75 78.252C57.6725 78.4069 57.6338 78.5824 57.6338 78.7783C57.6338 78.9743 57.6794 79.1543 57.7705 79.3184C57.8617 79.4779 57.9938 79.6032 58.167 79.6943C58.3447 79.7855 58.5589 79.8311 58.8096 79.8311C59.1468 79.8311 59.4408 79.7627 59.6914 79.626C59.9466 79.4847 60.1471 79.3138 60.293 79.1133C60.4388 78.9082 60.5163 78.7145 60.5254 78.5322L61.0586 79.2637C61.0039 79.4505 60.9105 79.651 60.7783 79.8652C60.6462 80.0794 60.473 80.2845 60.2588 80.4805C60.0492 80.6719 59.7962 80.8291 59.5 80.9521C59.2083 81.0752 58.8711 81.1367 58.4883 81.1367C58.0052 81.1367 57.5745 81.041 57.1963 80.8496C56.818 80.6536 56.5218 80.3916 56.3076 80.0635C56.0934 79.7308 55.9863 79.3548 55.9863 78.9355C55.9863 78.5436 56.0592 78.1973 56.2051 77.8965C56.3555 77.5911 56.5742 77.3359 56.8613 77.1309C57.153 76.9258 57.5085 76.7708 57.9277 76.666C58.347 76.5566 58.8255 76.502 59.3633 76.502H60.6553ZM65.4268 75.1826V81H63.7793V73.6035H65.3311L65.4268 75.1826ZM65.1328 77.0283L64.5996 77.0215C64.6042 76.4974 64.6771 76.0166 64.8184 75.5791C64.9642 75.1416 65.1647 74.7656 65.4199 74.4512C65.6797 74.1367 65.9896 73.8952 66.3496 73.7266C66.7096 73.5534 67.1107 73.4668 67.5527 73.4668C67.9082 73.4668 68.2295 73.5169 68.5166 73.6172C68.8083 73.7129 69.0566 73.8701 69.2617 74.0889C69.4714 74.3076 69.6309 74.5924 69.7402 74.9434C69.8496 75.2897 69.9043 75.7158 69.9043 76.2217V81H68.25V76.2148C68.25 75.8594 68.1976 75.5791 68.0928 75.374C67.9925 75.1644 67.8444 75.0163 67.6484 74.9297C67.457 74.8385 67.2178 74.793 66.9307 74.793C66.6481 74.793 66.3952 74.8522 66.1719 74.9707C65.9486 75.0892 65.7594 75.251 65.6045 75.4561C65.4541 75.6611 65.3379 75.8981 65.2559 76.167C65.1738 76.4359 65.1328 76.723 65.1328 77.0283ZM76.0977 79.4688V70.5H77.752V81H76.2549L76.0977 79.4688ZM71.2852 77.3838V77.2402C71.2852 76.6797 71.3512 76.1693 71.4834 75.709C71.6156 75.2441 71.807 74.8454 72.0576 74.5127C72.3083 74.1755 72.6136 73.918 72.9736 73.7402C73.3337 73.5579 73.7393 73.4668 74.1904 73.4668C74.637 73.4668 75.029 73.5534 75.3662 73.7266C75.7035 73.8997 75.9906 74.1481 76.2275 74.4717C76.4645 74.7907 76.6536 75.1735 76.7949 75.6201C76.9362 76.0622 77.0365 76.5544 77.0957 77.0967V77.5547C77.0365 78.0833 76.9362 78.5664 76.7949 79.0039C76.6536 79.4414 76.4645 79.8197 76.2275 80.1387C75.9906 80.4577 75.7012 80.7038 75.3594 80.877C75.0221 81.0501 74.6279 81.1367 74.1768 81.1367C73.7301 81.1367 73.3268 81.0433 72.9668 80.8564C72.6113 80.6696 72.3083 80.4076 72.0576 80.0703C71.807 79.7331 71.6156 79.3366 71.4834 78.8809C71.3512 78.4206 71.2852 77.9215 71.2852 77.3838ZM72.9326 77.2402V77.3838C72.9326 77.721 72.9622 78.0355 73.0215 78.3271C73.0853 78.6188 73.1833 78.8763 73.3154 79.0996C73.4476 79.3184 73.6185 79.4915 73.8281 79.6191C74.0423 79.7422 74.2975 79.8037 74.5938 79.8037C74.9674 79.8037 75.2751 79.7217 75.5166 79.5576C75.7581 79.3936 75.9473 79.1725 76.084 78.8945C76.2253 78.612 76.321 78.2975 76.3711 77.9512V76.7139C76.3438 76.445 76.2868 76.1943 76.2002 75.9619C76.1182 75.7295 76.0065 75.5267 75.8652 75.3535C75.724 75.1758 75.5485 75.0391 75.3389 74.9434C75.1338 74.8431 74.89 74.793 74.6074 74.793C74.3066 74.793 74.0514 74.8568 73.8418 74.9844C73.6322 75.112 73.459 75.2874 73.3223 75.5107C73.1901 75.734 73.0921 75.9938 73.0283 76.29C72.9645 76.5863 72.9326 76.903 72.9326 77.2402ZM86.9053 77.2881H84.3145V75.9277H86.9053C87.3564 75.9277 87.721 75.8548 87.999 75.709C88.277 75.5632 88.4798 75.3626 88.6074 75.1074C88.7396 74.8477 88.8057 74.5514 88.8057 74.2188C88.8057 73.9043 88.7396 73.6104 88.6074 73.3369C88.4798 73.0589 88.277 72.8356 87.999 72.667C87.721 72.4984 87.3564 72.4141 86.9053 72.4141H84.8408V81H83.125V71.0469H86.9053C87.6755 71.0469 88.3294 71.1836 88.8672 71.457C89.4095 71.7259 89.8219 72.0996 90.1045 72.5781C90.387 73.0521 90.5283 73.5944 90.5283 74.2051C90.5283 74.8477 90.387 75.3991 90.1045 75.8594C89.8219 76.3197 89.4095 76.6729 88.8672 76.9189C88.3294 77.165 87.6755 77.2881 86.9053 77.2881ZM95.9902 79.5166V75.9893C95.9902 75.7249 95.9424 75.4971 95.8467 75.3057C95.751 75.1143 95.6051 74.9661 95.4092 74.8613C95.2178 74.7565 94.9762 74.7041 94.6846 74.7041C94.4157 74.7041 94.1833 74.7497 93.9873 74.8408C93.7913 74.932 93.6387 75.055 93.5293 75.21C93.4199 75.3649 93.3652 75.5404 93.3652 75.7363H91.7246C91.7246 75.4447 91.7952 75.1621 91.9365 74.8887C92.0778 74.6152 92.2829 74.3714 92.5518 74.1572C92.8206 73.943 93.1419 73.7744 93.5156 73.6514C93.8893 73.5283 94.3086 73.4668 94.7734 73.4668C95.3294 73.4668 95.8216 73.5602 96.25 73.7471C96.6829 73.9339 97.0225 74.2165 97.2686 74.5947C97.5192 74.9684 97.6445 75.4378 97.6445 76.0029V79.291C97.6445 79.6283 97.6673 79.9313 97.7129 80.2002C97.763 80.4645 97.8337 80.6947 97.9248 80.8906V81H96.2363C96.1589 80.8223 96.0973 80.5967 96.0518 80.3232C96.0107 80.0452 95.9902 79.7764 95.9902 79.5166ZM96.2295 76.502L96.2432 77.5205H95.0605C94.7552 77.5205 94.4863 77.5501 94.2539 77.6094C94.0215 77.6641 93.8278 77.7461 93.6729 77.8555C93.5179 77.9648 93.4017 78.097 93.3242 78.252C93.2467 78.4069 93.208 78.5824 93.208 78.7783C93.208 78.9743 93.2536 79.1543 93.3447 79.3184C93.4359 79.4779 93.568 79.6032 93.7412 79.6943C93.9189 79.7855 94.1331 79.8311 94.3838 79.8311C94.721 79.8311 95.015 79.7627 95.2656 79.626C95.5208 79.4847 95.7214 79.3138 95.8672 79.1133C96.013 78.9082 96.0905 78.7145 96.0996 78.5322L96.6328 79.2637C96.5781 79.4505 96.4847 79.651 96.3525 79.8652C96.2204 80.0794 96.0472 80.2845 95.833 80.4805C95.6234 80.6719 95.3704 80.8291 95.0742 80.9521C94.7826 81.0752 94.4453 81.1367 94.0625 81.1367C93.5794 81.1367 93.1488 81.041 92.7705 80.8496C92.3923 80.6536 92.096 80.3916 91.8818 80.0635C91.6676 79.7308 91.5605 79.3548 91.5605 78.9355C91.5605 78.5436 91.6335 78.1973 91.7793 77.8965C91.9297 77.5911 92.1484 77.3359 92.4355 77.1309C92.7272 76.9258 93.0827 76.7708 93.502 76.666C93.9212 76.5566 94.3997 76.502 94.9375 76.502H96.2295ZM103.517 78.9971C103.517 78.833 103.476 78.6849 103.394 78.5527C103.312 78.416 103.154 78.293 102.922 78.1836C102.694 78.0742 102.357 77.974 101.91 77.8828C101.518 77.7962 101.158 77.6937 100.83 77.5752C100.507 77.4521 100.229 77.304 99.9961 77.1309C99.7637 76.9577 99.5837 76.7526 99.4561 76.5156C99.3285 76.2786 99.2646 76.0052 99.2646 75.6953C99.2646 75.3945 99.3307 75.1097 99.4629 74.8408C99.5951 74.5719 99.7842 74.335 100.03 74.1299C100.276 73.9248 100.575 73.763 100.926 73.6445C101.281 73.526 101.678 73.4668 102.115 73.4668C102.735 73.4668 103.266 73.5716 103.708 73.7812C104.155 73.9863 104.496 74.2666 104.733 74.6221C104.97 74.973 105.089 75.3695 105.089 75.8115H103.441C103.441 75.6156 103.391 75.4333 103.291 75.2646C103.195 75.0915 103.049 74.9525 102.854 74.8477C102.658 74.7383 102.411 74.6836 102.115 74.6836C101.833 74.6836 101.598 74.7292 101.411 74.8203C101.229 74.9069 101.092 75.0208 101.001 75.1621C100.914 75.3034 100.871 75.4583 100.871 75.627C100.871 75.75 100.894 75.8617 100.939 75.9619C100.99 76.0576 101.072 76.1465 101.186 76.2285C101.299 76.306 101.454 76.3789 101.65 76.4473C101.851 76.5156 102.102 76.5817 102.402 76.6455C102.967 76.764 103.453 76.9167 103.858 77.1035C104.269 77.2858 104.583 77.5228 104.802 77.8145C105.021 78.1016 105.13 78.4661 105.13 78.9082C105.13 79.2363 105.059 79.5371 104.918 79.8105C104.781 80.0794 104.581 80.3141 104.316 80.5146C104.052 80.7106 103.735 80.8633 103.366 80.9727C103.002 81.082 102.591 81.1367 102.136 81.1367C101.466 81.1367 100.898 81.0182 100.434 80.7812C99.9688 80.5397 99.6156 80.2321 99.374 79.8584C99.137 79.4801 99.0186 79.0882 99.0186 78.6826H100.611C100.63 78.988 100.714 79.2318 100.864 79.4141C101.019 79.5918 101.211 79.7217 101.438 79.8037C101.671 79.8812 101.91 79.9199 102.156 79.9199C102.452 79.9199 102.701 79.8812 102.901 79.8037C103.102 79.7217 103.255 79.6123 103.359 79.4756C103.464 79.3343 103.517 79.1748 103.517 78.9971ZM110.722 78.9971C110.722 78.833 110.681 78.6849 110.599 78.5527C110.517 78.416 110.359 78.293 110.127 78.1836C109.899 78.0742 109.562 77.974 109.115 77.8828C108.723 77.7962 108.363 77.6937 108.035 77.5752C107.712 77.4521 107.434 77.304 107.201 77.1309C106.969 76.9577 106.789 76.7526 106.661 76.5156C106.534 76.2786 106.47 76.0052 106.47 75.6953C106.47 75.3945 106.536 75.1097 106.668 74.8408C106.8 74.5719 106.989 74.335 107.235 74.1299C107.481 73.9248 107.78 73.763 108.131 73.6445C108.486 73.526 108.883 73.4668 109.32 73.4668C109.94 73.4668 110.471 73.5716 110.913 73.7812C111.36 73.9863 111.701 74.2666 111.938 74.6221C112.175 74.973 112.294 75.3695 112.294 75.8115H110.646C110.646 75.6156 110.596 75.4333 110.496 75.2646C110.4 75.0915 110.255 74.9525 110.059 74.8477C109.863 74.7383 109.617 74.6836 109.32 74.6836C109.038 74.6836 108.803 74.7292 108.616 74.8203C108.434 74.9069 108.297 75.0208 108.206 75.1621C108.119 75.3034 108.076 75.4583 108.076 75.627C108.076 75.75 108.099 75.8617 108.145 75.9619C108.195 76.0576 108.277 76.1465 108.391 76.2285C108.505 76.306 108.66 76.3789 108.855 76.4473C109.056 76.5156 109.307 76.5817 109.607 76.6455C110.173 76.764 110.658 76.9167 111.063 77.1035C111.474 77.2858 111.788 77.5228 112.007 77.8145C112.226 78.1016 112.335 78.4661 112.335 78.9082C112.335 79.2363 112.264 79.5371 112.123 79.8105C111.986 80.0794 111.786 80.3141 111.521 80.5146C111.257 80.7106 110.94 80.8633 110.571 80.9727C110.207 81.082 109.797 81.1367 109.341 81.1367C108.671 81.1367 108.104 81.0182 107.639 80.7812C107.174 80.5397 106.821 80.2321 106.579 79.8584C106.342 79.4801 106.224 79.0882 106.224 78.6826H107.816C107.835 78.988 107.919 79.2318 108.069 79.4141C108.224 79.5918 108.416 79.7217 108.644 79.8037C108.876 79.8812 109.115 79.9199 109.361 79.9199C109.658 79.9199 109.906 79.8812 110.106 79.8037C110.307 79.7217 110.46 79.6123 110.564 79.4756C110.669 79.3343 110.722 79.1748 110.722 78.9971ZM115.541 73.6035V81H113.887V73.6035H115.541ZM113.777 71.6621C113.777 71.4115 113.859 71.2041 114.023 71.04C114.192 70.8714 114.424 70.7871 114.721 70.7871C115.012 70.7871 115.243 70.8714 115.411 71.04C115.58 71.2041 115.664 71.4115 115.664 71.6621C115.664 71.9082 115.58 72.1133 115.411 72.2773C115.243 72.4414 115.012 72.5234 114.721 72.5234C114.424 72.5234 114.192 72.4414 114.023 72.2773C113.859 72.1133 113.777 71.9082 113.777 71.6621ZM117.031 77.3838V77.2266C117.031 76.6934 117.109 76.1989 117.264 75.7432C117.419 75.2829 117.642 74.8841 117.934 74.5469C118.23 74.2051 118.59 73.9408 119.014 73.7539C119.442 73.5625 119.925 73.4668 120.463 73.4668C121.005 73.4668 121.488 73.5625 121.912 73.7539C122.34 73.9408 122.703 74.2051 122.999 74.5469C123.295 74.8841 123.521 75.2829 123.676 75.7432C123.831 76.1989 123.908 76.6934 123.908 77.2266V77.3838C123.908 77.917 123.831 78.4115 123.676 78.8672C123.521 79.3229 123.295 79.7217 122.999 80.0635C122.703 80.4007 122.343 80.665 121.919 80.8564C121.495 81.0433 121.014 81.1367 120.477 81.1367C119.934 81.1367 119.449 81.0433 119.021 80.8564C118.597 80.665 118.237 80.4007 117.94 80.0635C117.644 79.7217 117.419 79.3229 117.264 78.8672C117.109 78.4115 117.031 77.917 117.031 77.3838ZM118.679 77.2266V77.3838C118.679 77.7165 118.713 78.0309 118.781 78.3271C118.85 78.6234 118.957 78.8831 119.103 79.1064C119.248 79.3298 119.435 79.5052 119.663 79.6328C119.891 79.7604 120.162 79.8242 120.477 79.8242C120.782 79.8242 121.046 79.7604 121.27 79.6328C121.497 79.5052 121.684 79.3298 121.83 79.1064C121.976 78.8831 122.083 78.6234 122.151 78.3271C122.224 78.0309 122.261 77.7165 122.261 77.3838V77.2266C122.261 76.8984 122.224 76.5885 122.151 76.2969C122.083 76.0007 121.974 75.7386 121.823 75.5107C121.677 75.2829 121.491 75.1051 121.263 74.9775C121.039 74.8454 120.773 74.7793 120.463 74.7793C120.153 74.7793 119.884 74.8454 119.656 74.9775C119.433 75.1051 119.248 75.2829 119.103 75.5107C118.957 75.7386 118.85 76.0007 118.781 76.2969C118.713 76.5885 118.679 76.8984 118.679 77.2266ZM126.923 75.1826V81H125.275V73.6035H126.827L126.923 75.1826ZM126.629 77.0283L126.096 77.0215C126.1 76.4974 126.173 76.0166 126.314 75.5791C126.46 75.1416 126.661 74.7656 126.916 74.4512C127.176 74.1367 127.486 73.8952 127.846 73.7266C128.206 73.5534 128.607 73.4668 129.049 73.4668C129.404 73.4668 129.726 73.5169 130.013 73.6172C130.304 73.7129 130.553 73.8701 130.758 74.0889C130.967 74.3076 131.127 74.5924 131.236 74.9434C131.346 75.2897 131.4 75.7158 131.4 76.2217V81H129.746V76.2148C129.746 75.8594 129.694 75.5791 129.589 75.374C129.489 75.1644 129.34 75.0163 129.145 74.9297C128.953 74.8385 128.714 74.793 128.427 74.793C128.144 74.793 127.891 74.8522 127.668 74.9707C127.445 75.0892 127.256 75.251 127.101 75.4561C126.95 75.6611 126.834 75.8981 126.752 76.167C126.67 76.4359 126.629 76.723 126.629 77.0283ZM137.231 78.9971C137.231 78.833 137.19 78.6849 137.108 78.5527C137.026 78.416 136.869 78.293 136.637 78.1836C136.409 78.0742 136.072 77.974 135.625 77.8828C135.233 77.7962 134.873 77.6937 134.545 77.5752C134.221 77.4521 133.943 77.304 133.711 77.1309C133.479 76.9577 133.299 76.7526 133.171 76.5156C133.043 76.2786 132.979 76.0052 132.979 75.6953C132.979 75.3945 133.046 75.1097 133.178 74.8408C133.31 74.5719 133.499 74.335 133.745 74.1299C133.991 73.9248 134.29 73.763 134.641 73.6445C134.996 73.526 135.393 73.4668 135.83 73.4668C136.45 73.4668 136.981 73.5716 137.423 73.7812C137.869 73.9863 138.211 74.2666 138.448 74.6221C138.685 74.973 138.804 75.3695 138.804 75.8115H137.156C137.156 75.6156 137.106 75.4333 137.006 75.2646C136.91 75.0915 136.764 74.9525 136.568 74.8477C136.372 74.7383 136.126 74.6836 135.83 74.6836C135.548 74.6836 135.313 74.7292 135.126 74.8203C134.944 74.9069 134.807 75.0208 134.716 75.1621C134.629 75.3034 134.586 75.4583 134.586 75.627C134.586 75.75 134.609 75.8617 134.654 75.9619C134.704 76.0576 134.786 76.1465 134.9 76.2285C135.014 76.306 135.169 76.3789 135.365 76.4473C135.566 76.5156 135.816 76.5817 136.117 76.6455C136.682 76.764 137.168 76.9167 137.573 77.1035C137.983 77.2858 138.298 77.5228 138.517 77.8145C138.735 78.1016 138.845 78.4661 138.845 78.9082C138.845 79.2363 138.774 79.5371 138.633 79.8105C138.496 80.0794 138.296 80.3141 138.031 80.5146C137.767 80.7106 137.45 80.8633 137.081 80.9727C136.716 81.082 136.306 81.1367 135.851 81.1367C135.181 81.1367 134.613 81.0182 134.148 80.7812C133.684 80.5397 133.33 80.2321 133.089 79.8584C132.852 79.4801 132.733 79.0882 132.733 78.6826H134.326C134.344 78.988 134.429 79.2318 134.579 79.4141C134.734 79.5918 134.925 79.7217 135.153 79.8037C135.386 79.8812 135.625 79.9199 135.871 79.9199C136.167 79.9199 136.416 79.8812 136.616 79.8037C136.817 79.7217 136.969 79.6123 137.074 79.4756C137.179 79.3343 137.231 79.1748 137.231 78.9971ZM143.808 77.0693V76.9531C143.808 75.9779 143.912 75.0938 144.122 74.3008C144.336 73.5033 144.614 72.806 144.956 72.209C145.298 71.6074 145.662 71.1107 146.05 70.7188C146.442 70.3223 146.818 70.0374 147.178 69.8643L147.506 70.8076C147.242 71.0036 146.977 71.2747 146.713 71.6211C146.453 71.9674 146.214 72.3936 145.995 72.8994C145.781 73.4007 145.608 73.9886 145.476 74.6631C145.348 75.333 145.284 76.0918 145.284 76.9395V77.083C145.284 77.9307 145.348 78.6917 145.476 79.3662C145.608 80.0361 145.781 80.624 145.995 81.1299C146.214 81.6357 146.453 82.0641 146.713 82.415C146.977 82.7705 147.242 83.0531 147.506 83.2627L147.178 84.165C146.818 83.9873 146.442 83.7002 146.05 83.3037C145.662 82.9118 145.298 82.415 144.956 81.8135C144.614 81.2165 144.336 80.5215 144.122 79.7285C143.912 78.931 143.808 78.0446 143.808 77.0693ZM153.029 71.0127V81H151.382V72.9678L148.941 73.7949V72.4346L152.831 71.0127H153.029ZM162.976 75.1895V76.8164C162.976 77.5957 162.898 78.2611 162.743 78.8125C162.593 79.3594 162.374 79.8037 162.087 80.1455C161.8 80.4873 161.456 80.738 161.055 80.8975C160.658 81.057 160.214 81.1367 159.722 81.1367C159.33 81.1367 158.965 81.0866 158.628 80.9863C158.295 80.8861 157.994 80.7288 157.726 80.5146C157.457 80.3005 157.227 80.0247 157.035 79.6875C156.848 79.3457 156.702 78.9378 156.598 78.4639C156.497 77.9899 156.447 77.4408 156.447 76.8164V75.1895C156.447 74.4056 156.525 73.7448 156.68 73.207C156.835 72.6647 157.056 72.2249 157.343 71.8877C157.63 71.5459 157.972 71.2975 158.368 71.1426C158.769 70.9876 159.216 70.9102 159.708 70.9102C160.104 70.9102 160.469 70.9603 160.802 71.0605C161.139 71.1562 161.44 71.3089 161.704 71.5186C161.973 71.7282 162.201 72.0016 162.388 72.3389C162.579 72.6715 162.725 73.0749 162.825 73.5488C162.925 74.0182 162.976 74.5651 162.976 75.1895ZM161.328 77.0488V74.9434C161.328 74.5469 161.305 74.1982 161.26 73.8975C161.214 73.5921 161.146 73.3346 161.055 73.125C160.968 72.9108 160.859 72.7376 160.727 72.6055C160.594 72.4688 160.444 72.3708 160.275 72.3115C160.107 72.2477 159.918 72.2158 159.708 72.2158C159.453 72.2158 159.225 72.266 159.024 72.3662C158.824 72.4619 158.655 72.6169 158.519 72.8311C158.382 73.0452 158.277 73.3278 158.204 73.6787C158.136 74.0251 158.102 74.4466 158.102 74.9434V77.0488C158.102 77.4499 158.124 77.8031 158.17 78.1084C158.215 78.4137 158.284 78.6758 158.375 78.8945C158.466 79.1087 158.576 79.2865 158.703 79.4277C158.835 79.5645 158.986 79.6647 159.154 79.7285C159.327 79.7923 159.517 79.8242 159.722 79.8242C159.981 79.8242 160.212 79.7741 160.412 79.6738C160.613 79.5736 160.781 79.4141 160.918 79.1953C161.055 78.972 161.157 78.6826 161.226 78.3271C161.294 77.9717 161.328 77.5456 161.328 77.0488ZM169.688 70.5V81H168.034V70.5H169.688ZM174.282 73.6035L171.062 77.1719L169.299 78.9766L168.868 77.582L170.201 75.9346L172.293 73.6035H174.282ZM172.648 81L170.249 77.5273L171.288 76.3721L174.556 81H172.648ZM176.976 75.1074V81H175.328V73.6035H176.88L176.976 75.1074ZM176.709 77.0283L176.148 77.0215C176.148 76.5111 176.212 76.0394 176.34 75.6064C176.467 75.1735 176.654 74.7975 176.9 74.4785C177.146 74.1549 177.452 73.9066 177.816 73.7334C178.186 73.5557 178.612 73.4668 179.095 73.4668C179.432 73.4668 179.74 73.5169 180.018 73.6172C180.3 73.7129 180.544 73.8656 180.749 74.0752C180.959 74.2848 181.118 74.5537 181.228 74.8818C181.341 75.21 181.398 75.6064 181.398 76.0713V81H179.751V76.2148C179.751 75.8548 179.696 75.5723 179.587 75.3672C179.482 75.1621 179.329 75.0163 179.129 74.9297C178.933 74.8385 178.698 74.793 178.425 74.793C178.115 74.793 177.851 74.8522 177.632 74.9707C177.418 75.0892 177.242 75.251 177.105 75.4561C176.969 75.6611 176.868 75.8981 176.805 76.167C176.741 76.4359 176.709 76.723 176.709 77.0283ZM181.296 76.5908L180.523 76.7617C180.523 76.3151 180.585 75.8936 180.708 75.4971C180.836 75.096 181.02 74.7451 181.262 74.4443C181.508 74.139 181.811 73.8997 182.171 73.7266C182.531 73.5534 182.943 73.4668 183.408 73.4668C183.786 73.4668 184.124 73.5192 184.42 73.624C184.721 73.7243 184.976 73.8838 185.186 74.1025C185.395 74.3213 185.555 74.6061 185.664 74.957C185.773 75.3034 185.828 75.7227 185.828 76.2148V81H184.174V76.208C184.174 75.8343 184.119 75.5449 184.01 75.3398C183.905 75.1348 183.755 74.9935 183.559 74.916C183.363 74.834 183.128 74.793 182.854 74.793C182.599 74.793 182.374 74.8408 182.178 74.9365C181.986 75.0277 181.825 75.1576 181.692 75.3262C181.56 75.4902 181.46 75.6794 181.392 75.8936C181.328 76.1077 181.296 76.3402 181.296 76.5908ZM190.702 76.9531V77.0693C190.702 78.0309 190.593 78.9082 190.374 79.7012C190.16 80.4941 189.88 81.1914 189.533 81.793C189.191 82.3945 188.82 82.8958 188.419 83.2969C188.022 83.6979 187.642 83.9873 187.277 84.165L186.942 83.2627C187.207 83.0622 187.469 82.7865 187.729 82.4355C187.993 82.0892 188.232 81.6585 188.446 81.1436C188.665 80.6331 188.838 80.0407 188.966 79.3662C189.098 78.6917 189.164 77.9307 189.164 77.083V76.9395C189.164 76.0918 189.096 75.3307 188.959 74.6562C188.827 73.9772 188.649 73.3848 188.426 72.8789C188.202 72.3685 187.961 71.9378 187.701 71.5869C187.441 71.236 187.188 70.9626 186.942 70.7666L187.277 69.8643C187.642 70.0374 188.022 70.3245 188.419 70.7256C188.82 71.1266 189.191 71.6302 189.533 72.2363C189.88 72.8379 190.16 73.5352 190.374 74.3281C190.593 75.1211 190.702 75.9961 190.702 76.9531Z" fill="#707070"/>
<path fill-rule="evenodd" clip-rule="evenodd" d="M15.8333 108.583H4.16667C3.93655 108.583 3.75 108.77 3.75 109V119.833C3.75 120.063 3.93655 120.25 4.16667 120.25H15.8333C16.0634 120.25 16.25 120.063 16.25 119.833V109C16.25 108.77 16.0634 108.583 15.8333 108.583ZM4.16667 107.333C3.24619 107.333 2.5 108.079 2.5 109V119.833C2.5 120.754 3.24619 121.5 4.16667 121.5H15.8333C16.7538 121.5 17.5 120.754 17.5 119.833V109C17.5 108.079 16.7538 107.333 15.8333 107.333H4.16667Z" fill="#707070"/>
<path d="M5 106.5C5 106.04 5.3731 105.667 5.83333 105.667C6.29357 105.667 6.66667 106.04 6.66667 106.5V107.334C6.66667 107.794 6.29357 108.167 5.83333 108.167C5.3731 108.167 5 107.794 5 107.334V106.5Z" fill="#707070"/>
<path d="M13.333 106.5C13.333 106.04 13.7061 105.667 14.1663 105.667C14.6266 105.667 14.9997 106.04 14.9997 106.5V107.334C14.9997 107.794 14.6266 108.167 14.1663 108.167C13.7061 108.167 13.333 107.794 13.333 107.334V106.5Z" fill="#707070"/>
<path fill-rule="evenodd" clip-rule="evenodd" d="M15 111.292C15 111.637 14.7202 111.917 14.375 111.917H5.625C5.27983 111.917 5 111.637 5 111.292C5 110.947 5.27983 110.667 5.625 110.667H14.375C14.7202 110.667 15 110.947 15 111.292Z" fill="#707070"/>
<path d="M28.4746 109.047V119H27.1553V109.047H28.4746ZM32.6445 113.524V114.604H28.1875V113.524H32.6445ZM33.3213 109.047V110.127H28.1875V109.047H33.3213ZM34.5436 109.047H37.8385C38.5859 109.047 39.2171 109.161 39.732 109.389C40.2516 109.617 40.6458 109.954 40.9146 110.4C41.1881 110.842 41.3248 111.387 41.3248 112.034C41.3248 112.49 41.2314 112.907 41.0445 113.285C40.8622 113.659 40.5979 113.978 40.2516 114.242C39.9098 114.502 39.4996 114.696 39.0211 114.823L38.652 114.967H35.5553L35.5416 113.894H37.8795C38.3535 113.894 38.7477 113.812 39.0621 113.647C39.3766 113.479 39.6135 113.253 39.773 112.971C39.9326 112.688 40.0123 112.376 40.0123 112.034C40.0123 111.651 39.9371 111.316 39.7867 111.029C39.6363 110.742 39.3993 110.521 39.0758 110.366C38.7568 110.207 38.3443 110.127 37.8385 110.127H35.8629V119H34.5436V109.047ZM40.3609 119L37.941 114.488L39.315 114.481L41.7691 118.918V119H40.3609ZM44.2355 109.047V119H42.9162V109.047H44.2355ZM47.242 117.496V118.515C47.242 118.929 47.1372 119.367 46.9275 119.827C46.7179 120.292 46.424 120.679 46.0457 120.989L45.3279 120.49C45.4738 120.29 45.5968 120.085 45.6971 119.875C45.7973 119.67 45.8725 119.456 45.9227 119.232C45.9773 119.014 46.0047 118.781 46.0047 118.535V117.496H47.242ZM52.2363 109.047H53.5146L56.7754 117.161L60.0293 109.047H61.3145L57.2676 119H56.2695L52.2363 109.047ZM51.8193 109.047H52.9473L53.1318 115.117V119H51.8193V109.047ZM60.5967 109.047H61.7246V119H60.4121V115.117L60.5967 109.047ZM67.4996 109.929L64.2047 119H62.858L66.652 109.047H67.5201L67.4996 109.929ZM70.2613 119L66.9596 109.929L66.9391 109.047H67.8072L71.6148 119H70.2613ZM70.0904 115.315V116.396H64.4986V115.315H70.0904ZM72.5979 109.047H75.8928C76.6402 109.047 77.2714 109.161 77.7863 109.389C78.3059 109.617 78.7001 109.954 78.9689 110.4C79.2424 110.842 79.3791 111.387 79.3791 112.034C79.3791 112.49 79.2857 112.907 79.0988 113.285C78.9165 113.659 78.6522 113.978 78.3059 114.242C77.9641 114.502 77.5539 114.696 77.0754 114.823L76.7062 114.967H73.6096L73.5959 113.894H75.9338C76.4077 113.894 76.802 113.812 77.1164 113.647C77.4309 113.479 77.6678 113.253 77.8273 112.971C77.9868 112.688 78.0666 112.376 78.0666 112.034C78.0666 111.651 77.9914 111.316 77.841 111.029C77.6906 110.742 77.4536 110.521 77.1301 110.366C76.8111 110.207 76.3986 110.127 75.8928 110.127H73.9172V119H72.5979V109.047ZM78.4152 119L75.9953 114.488L77.3693 114.481L79.8234 118.918V119H78.4152ZM90.1908 117.961V119H83.6762V118.091L86.9369 114.461C87.338 114.014 87.6479 113.636 87.8666 113.326C88.0899 113.012 88.2449 112.731 88.3314 112.485C88.4226 112.235 88.4682 111.979 88.4682 111.72C88.4682 111.392 88.3998 111.095 88.2631 110.831C88.1309 110.562 87.935 110.348 87.6752 110.188C87.4154 110.029 87.101 109.949 86.7318 109.949C86.2898 109.949 85.9206 110.036 85.6244 110.209C85.3327 110.378 85.114 110.615 84.9682 110.92C84.8223 111.225 84.7494 111.576 84.7494 111.973H83.4848C83.4848 111.412 83.6078 110.899 83.8539 110.435C84.1 109.97 84.4646 109.601 84.9477 109.327C85.4307 109.049 86.0255 108.91 86.7318 108.91C87.3607 108.91 87.8985 109.022 88.3451 109.245C88.7917 109.464 89.1335 109.774 89.3705 110.175C89.612 110.571 89.7328 111.036 89.7328 111.569C89.7328 111.861 89.6827 112.157 89.5824 112.458C89.4867 112.754 89.3523 113.05 89.1791 113.347C89.0105 113.643 88.8122 113.935 88.5844 114.222C88.3611 114.509 88.1218 114.791 87.8666 115.069L85.2006 117.961H90.1908ZM92.4521 117.94H92.582C93.3112 117.94 93.9036 117.838 94.3594 117.633C94.8151 117.428 95.166 117.152 95.4121 116.806C95.6582 116.459 95.8268 116.07 95.918 115.637C96.0091 115.199 96.0547 114.75 96.0547 114.29V112.766C96.0547 112.314 96.0023 111.913 95.8975 111.562C95.7972 111.212 95.6559 110.918 95.4736 110.681C95.2959 110.444 95.0931 110.264 94.8652 110.141C94.6374 110.018 94.3958 109.956 94.1406 109.956C93.849 109.956 93.5869 110.015 93.3545 110.134C93.1266 110.248 92.9329 110.41 92.7734 110.619C92.6185 110.829 92.5 111.075 92.418 111.357C92.3359 111.64 92.2949 111.948 92.2949 112.28C92.2949 112.576 92.3314 112.864 92.4043 113.142C92.4772 113.42 92.5889 113.67 92.7393 113.894C92.8896 114.117 93.0765 114.295 93.2998 114.427C93.5277 114.554 93.7943 114.618 94.0996 114.618C94.3822 114.618 94.6465 114.563 94.8926 114.454C95.1432 114.34 95.3643 114.188 95.5557 113.996C95.7516 113.8 95.9066 113.579 96.0205 113.333C96.139 113.087 96.2074 112.829 96.2256 112.561H96.8271C96.8271 112.939 96.752 113.312 96.6016 113.682C96.4557 114.046 96.2507 114.379 95.9863 114.68C95.722 114.98 95.4121 115.222 95.0566 115.404C94.7012 115.582 94.3138 115.671 93.8945 115.671C93.4023 115.671 92.9762 115.575 92.6162 115.384C92.2562 115.192 91.96 114.937 91.7275 114.618C91.4997 114.299 91.3288 113.944 91.2148 113.552C91.1055 113.155 91.0508 112.754 91.0508 112.349C91.0508 111.875 91.1169 111.43 91.249 111.016C91.3812 110.601 91.5771 110.236 91.8369 109.922C92.0967 109.603 92.418 109.354 92.8008 109.177C93.1882 108.999 93.6348 108.91 94.1406 108.91C94.7103 108.91 95.1956 109.024 95.5967 109.252C95.9977 109.48 96.3236 109.785 96.5742 110.168C96.8294 110.551 97.0163 110.981 97.1348 111.46C97.2533 111.938 97.3125 112.431 97.3125 112.937V113.395C97.3125 113.91 97.2783 114.434 97.21 114.967C97.1462 115.495 97.0208 116.001 96.834 116.484C96.6517 116.967 96.3851 117.4 96.0342 117.783C95.6833 118.161 95.2253 118.462 94.6602 118.686C94.0996 118.904 93.4069 119.014 92.582 119.014H92.4521V117.94ZM102.027 114.017C102.027 113.802 102.093 113.622 102.225 113.477C102.357 113.326 102.551 113.251 102.806 113.251C103.061 113.251 103.255 113.326 103.387 113.477C103.524 113.622 103.592 113.802 103.592 114.017C103.592 114.226 103.524 114.404 103.387 114.55C103.255 114.691 103.061 114.762 102.806 114.762C102.551 114.762 102.357 114.691 102.225 114.55C102.093 114.404 102.027 114.226 102.027 114.017ZM113.132 109.033H113.242V110.106H113.132C112.462 110.106 111.902 110.216 111.451 110.435C110.999 110.649 110.642 110.938 110.377 111.303C110.113 111.663 109.922 112.068 109.803 112.52C109.689 112.971 109.632 113.429 109.632 113.894V115.356C109.632 115.799 109.685 116.19 109.789 116.532C109.894 116.869 110.038 117.154 110.22 117.387C110.402 117.619 110.607 117.795 110.835 117.913C111.068 118.032 111.309 118.091 111.56 118.091C111.852 118.091 112.111 118.036 112.339 117.927C112.567 117.813 112.759 117.656 112.913 117.455C113.073 117.25 113.194 117.008 113.276 116.73C113.358 116.452 113.399 116.147 113.399 115.814C113.399 115.518 113.362 115.233 113.289 114.96C113.217 114.682 113.105 114.436 112.954 114.222C112.804 114.003 112.615 113.832 112.387 113.709C112.164 113.581 111.897 113.518 111.587 113.518C111.236 113.518 110.908 113.604 110.603 113.777C110.302 113.946 110.054 114.169 109.858 114.447C109.666 114.721 109.557 115.019 109.53 115.343L108.86 115.336C108.924 114.826 109.042 114.39 109.215 114.03C109.393 113.666 109.612 113.369 109.871 113.142C110.136 112.909 110.43 112.741 110.753 112.636C111.081 112.526 111.428 112.472 111.792 112.472C112.289 112.472 112.718 112.565 113.078 112.752C113.438 112.939 113.734 113.189 113.966 113.504C114.199 113.814 114.37 114.165 114.479 114.557C114.593 114.944 114.65 115.343 114.65 115.753C114.65 116.222 114.584 116.662 114.452 117.072C114.319 117.482 114.121 117.842 113.857 118.152C113.597 118.462 113.276 118.704 112.893 118.877C112.51 119.05 112.066 119.137 111.56 119.137C111.022 119.137 110.553 119.027 110.152 118.809C109.751 118.585 109.418 118.289 109.154 117.92C108.889 117.551 108.691 117.141 108.559 116.689C108.427 116.238 108.361 115.78 108.361 115.315V114.721C108.361 114.019 108.431 113.331 108.573 112.656C108.714 111.982 108.958 111.371 109.304 110.824C109.655 110.277 110.14 109.842 110.76 109.519C111.38 109.195 112.171 109.033 113.132 109.033ZM115.886 118.33C115.886 118.116 115.952 117.936 116.084 117.79C116.221 117.64 116.417 117.564 116.672 117.564C116.927 117.564 117.121 117.64 117.253 117.79C117.39 117.936 117.458 118.116 117.458 118.33C117.458 118.54 117.39 118.717 117.253 118.863C117.121 119.009 116.927 119.082 116.672 119.082C116.417 119.082 116.221 119.009 116.084 118.863C115.952 118.717 115.886 118.54 115.886 118.33ZM115.893 112.294C115.893 112.08 115.959 111.9 116.091 111.754C116.228 111.604 116.424 111.528 116.679 111.528C116.934 111.528 117.128 111.604 117.26 111.754C117.396 111.9 117.465 112.08 117.465 112.294C117.465 112.504 117.396 112.681 117.26 112.827C117.128 112.973 116.934 113.046 116.679 113.046C116.424 113.046 116.228 112.973 116.091 112.827C115.959 112.681 115.893 112.504 115.893 112.294ZM125.092 113.23V114.748C125.092 115.564 125.019 116.252 124.874 116.812C124.728 117.373 124.518 117.824 124.245 118.166C123.971 118.508 123.641 118.756 123.254 118.911C122.871 119.062 122.438 119.137 121.955 119.137C121.572 119.137 121.219 119.089 120.895 118.993C120.572 118.897 120.28 118.745 120.02 118.535C119.765 118.321 119.546 118.043 119.364 117.701C119.182 117.359 119.043 116.945 118.947 116.457C118.851 115.969 118.803 115.4 118.803 114.748V113.23C118.803 112.415 118.876 111.731 119.022 111.18C119.172 110.628 119.384 110.186 119.658 109.854C119.931 109.516 120.259 109.275 120.642 109.129C121.03 108.983 121.463 108.91 121.941 108.91C122.328 108.91 122.684 108.958 123.007 109.054C123.336 109.145 123.627 109.293 123.882 109.498C124.138 109.699 124.354 109.967 124.532 110.305C124.714 110.637 124.853 111.045 124.949 111.528C125.045 112.011 125.092 112.579 125.092 113.23ZM123.821 114.953V113.019C123.821 112.572 123.794 112.18 123.739 111.843C123.689 111.501 123.614 111.209 123.513 110.968C123.413 110.726 123.285 110.53 123.13 110.38C122.98 110.229 122.805 110.12 122.604 110.052C122.408 109.979 122.187 109.942 121.941 109.942C121.64 109.942 121.374 109.999 121.141 110.113C120.909 110.223 120.713 110.398 120.553 110.64C120.398 110.881 120.28 111.198 120.198 111.59C120.116 111.982 120.075 112.458 120.075 113.019V114.953C120.075 115.4 120.1 115.794 120.15 116.136C120.205 116.478 120.284 116.774 120.389 117.024C120.494 117.271 120.622 117.473 120.772 117.633C120.922 117.792 121.096 117.911 121.292 117.988C121.492 118.061 121.713 118.098 121.955 118.098C122.265 118.098 122.536 118.038 122.768 117.92C123.001 117.801 123.194 117.617 123.349 117.366C123.509 117.111 123.627 116.785 123.705 116.389C123.782 115.988 123.821 115.509 123.821 114.953ZM132.617 113.23V114.748C132.617 115.564 132.544 116.252 132.399 116.812C132.253 117.373 132.043 117.824 131.77 118.166C131.496 118.508 131.166 118.756 130.779 118.911C130.396 119.062 129.963 119.137 129.48 119.137C129.097 119.137 128.744 119.089 128.42 118.993C128.097 118.897 127.805 118.745 127.545 118.535C127.29 118.321 127.071 118.043 126.889 117.701C126.707 117.359 126.568 116.945 126.472 116.457C126.376 115.969 126.328 115.4 126.328 114.748V113.23C126.328 112.415 126.401 111.731 126.547 111.18C126.697 110.628 126.909 110.186 127.183 109.854C127.456 109.516 127.784 109.275 128.167 109.129C128.555 108.983 128.988 108.91 129.466 108.91C129.853 108.91 130.209 108.958 130.532 109.054C130.861 109.145 131.152 109.293 131.407 109.498C131.663 109.699 131.879 109.967 132.057 110.305C132.239 110.637 132.378 111.045 132.474 111.528C132.57 112.011 132.617 112.579 132.617 113.23ZM131.346 114.953V113.019C131.346 112.572 131.319 112.18 131.264 111.843C131.214 111.501 131.139 111.209 131.038 110.968C130.938 110.726 130.81 110.53 130.655 110.38C130.505 110.229 130.33 110.12 130.129 110.052C129.933 109.979 129.712 109.942 129.466 109.942C129.165 109.942 128.899 109.999 128.666 110.113C128.434 110.223 128.238 110.398 128.078 110.64C127.923 110.881 127.805 111.198 127.723 111.59C127.641 111.982 127.6 112.458 127.6 113.019V114.953C127.6 115.4 127.625 115.794 127.675 116.136C127.73 116.478 127.809 116.774 127.914 117.024C128.019 117.271 128.147 117.473 128.297 117.633C128.447 117.792 128.621 117.911 128.817 117.988C129.017 118.061 129.238 118.098 129.48 118.098C129.79 118.098 130.061 118.038 130.293 117.92C130.526 117.801 130.719 117.617 130.874 117.366C131.034 117.111 131.152 116.785 131.23 116.389C131.307 115.988 131.346 115.509 131.346 114.953ZM141.016 115.097H138.357V114.023H141.016C141.531 114.023 141.948 113.941 142.267 113.777C142.586 113.613 142.818 113.385 142.964 113.094C143.115 112.802 143.19 112.469 143.19 112.096C143.19 111.754 143.115 111.433 142.964 111.132C142.818 110.831 142.586 110.59 142.267 110.407C141.948 110.22 141.531 110.127 141.016 110.127H138.664V119H137.345V109.047H141.016C141.768 109.047 142.404 109.177 142.923 109.437C143.443 109.696 143.837 110.056 144.106 110.517C144.375 110.972 144.509 111.494 144.509 112.082C144.509 112.72 144.375 113.265 144.106 113.716C143.837 114.167 143.443 114.511 142.923 114.748C142.404 114.98 141.768 115.097 141.016 115.097ZM146.244 109.047H147.522L150.783 117.161L154.037 109.047H155.322L151.275 119H150.277L146.244 109.047ZM145.827 109.047H146.955L147.14 115.117V119H145.827V109.047ZM154.604 109.047H155.732V119H154.42V115.117L154.604 109.047ZM164.493 115.097H161.834V114.023H164.493C165.008 114.023 165.425 113.941 165.744 113.777C166.063 113.613 166.296 113.385 166.442 113.094C166.592 112.802 166.667 112.469 166.667 112.096C166.667 111.754 166.592 111.433 166.442 111.132C166.296 110.831 166.063 110.59 165.744 110.407C165.425 110.22 165.008 110.127 164.493 110.127H162.142V119H160.822V109.047H164.493C165.245 109.047 165.881 109.177 166.401 109.437C166.92 109.696 167.314 110.056 167.583 110.517C167.852 110.972 167.987 111.494 167.987 112.082C167.987 112.72 167.852 113.265 167.583 113.716C167.314 114.167 166.92 114.511 166.401 114.748C165.881 114.98 165.245 115.097 164.493 115.097ZM171.998 119H169.92L169.933 117.927H171.998C172.709 117.927 173.301 117.779 173.775 117.482C174.249 117.182 174.605 116.762 174.842 116.225C175.083 115.682 175.204 115.049 175.204 114.324V113.716C175.204 113.146 175.136 112.64 174.999 112.198C174.862 111.752 174.662 111.376 174.397 111.07C174.133 110.76 173.809 110.526 173.427 110.366C173.048 110.207 172.613 110.127 172.121 110.127H169.879V109.047H172.121C172.773 109.047 173.367 109.156 173.905 109.375C174.443 109.589 174.905 109.901 175.293 110.312C175.685 110.717 175.985 111.209 176.195 111.788C176.405 112.362 176.51 113.009 176.51 113.729V114.324C176.51 115.044 176.405 115.694 176.195 116.272C175.985 116.847 175.682 117.337 175.286 117.742C174.894 118.148 174.42 118.46 173.864 118.679C173.313 118.893 172.691 119 171.998 119ZM170.624 109.047V119H169.304V109.047H170.624ZM181.628 109.047V119H180.329V109.047H181.628ZM184.828 109.047V110.127H177.137V109.047H184.828Z" fill="#212121"/>
<path fill-rule="evenodd" clip-rule="evenodd" d="M10.0003 155.084C13.9123 155.084 17.0837 151.912 17.0837 148C17.0837 144.088 13.9123 140.917 10.0003 140.917C6.08831 140.917 2.91699 144.088 2.91699 148C2.91699 151.912 6.08831 155.084 10.0003 155.084ZM10.0003 156.334C14.6027 156.334 18.3337 152.603 18.3337 148C18.3337 143.398 14.6027 139.667 10.0003 139.667C5.39795 139.667 1.66699 143.398 1.66699 148C1.66699 152.603 5.39795 156.334 10.0003 156.334Z" fill="#707070"/>
<path fill-rule="evenodd" clip-rule="evenodd" d="M15.4419 145.058C15.686 145.302 15.686 145.698 15.4419 145.942L9.65916 151.725C8.92691 152.457 7.73974 152.457 7.00751 151.725L4.55806 149.275C4.31398 149.031 4.31398 148.635 4.55806 148.391C4.80213 148.147 5.19786 148.147 5.44194 148.391L7.89139 150.841C8.13546 151.085 8.53116 151.085 8.77525 150.841L14.5581 145.058C14.8022 144.814 15.1978 144.814 15.4419 145.058Z" fill="#707070"/>
<path d="M31.6953 141.562V153H30.25V143.367L27.3359 144.43V143.125L31.4688 141.562H31.6953ZM40.6953 141.562V153H39.25V143.367L36.3359 144.43V143.125L40.4688 141.562H40.6953ZM54.5469 144.547H55.8594V152.82C55.8594 153.565 55.7083 154.201 55.4062 154.727C55.1042 155.253 54.6823 155.651 54.1406 155.922C53.6042 156.198 52.9844 156.336 52.2812 156.336C51.9896 156.336 51.6458 156.289 51.25 156.195C50.8594 156.107 50.474 155.953 50.0938 155.734C49.7188 155.521 49.4036 155.232 49.1484 154.867L49.9062 154.008C50.2604 154.435 50.6302 154.732 51.0156 154.898C51.4062 155.065 51.7917 155.148 52.1719 155.148C52.6302 155.148 53.026 155.062 53.3594 154.891C53.6927 154.719 53.9505 154.464 54.1328 154.125C54.3203 153.792 54.4141 153.38 54.4141 152.891V146.406L54.5469 144.547ZM48.7266 148.867V148.703C48.7266 148.057 48.8021 147.471 48.9531 146.945C49.1094 146.414 49.3307 145.958 49.6172 145.578C49.9089 145.198 50.2604 144.906 50.6719 144.703C51.0833 144.495 51.5469 144.391 52.0625 144.391C52.5938 144.391 53.0573 144.484 53.4531 144.672C53.8542 144.854 54.1927 145.122 54.4688 145.477C54.75 145.826 54.9714 146.247 55.1328 146.742C55.2943 147.237 55.4062 147.797 55.4688 148.422V149.141C55.4115 149.76 55.2995 150.318 55.1328 150.812C54.9714 151.307 54.75 151.729 54.4688 152.078C54.1927 152.427 53.8542 152.695 53.4531 152.883C53.0521 153.065 52.5833 153.156 52.0469 153.156C51.5417 153.156 51.0833 153.049 50.6719 152.836C50.2656 152.622 49.9167 152.323 49.625 151.938C49.3333 151.552 49.1094 151.099 48.9531 150.578C48.8021 150.052 48.7266 149.482 48.7266 148.867ZM50.1719 148.703V148.867C50.1719 149.289 50.2135 149.685 50.2969 150.055C50.3854 150.424 50.5182 150.75 50.6953 151.031C50.8776 151.312 51.1094 151.534 51.3906 151.695C51.6719 151.852 52.0078 151.93 52.3984 151.93C52.8776 151.93 53.2734 151.828 53.5859 151.625C53.8984 151.422 54.1458 151.154 54.3281 150.82C54.5156 150.487 54.6615 150.125 54.7656 149.734V147.852C54.7083 147.565 54.6198 147.289 54.5 147.023C54.3854 146.753 54.2344 146.513 54.0469 146.305C53.8646 146.091 53.638 145.922 53.3672 145.797C53.0964 145.672 52.7786 145.609 52.4141 145.609C52.0182 145.609 51.6771 145.693 51.3906 145.859C51.1094 146.021 50.8776 146.245 50.6953 146.531C50.5182 146.812 50.3854 147.141 50.2969 147.516C50.2135 147.885 50.1719 148.281 50.1719 148.703ZM57.6719 148.867V148.688C57.6719 148.078 57.7604 147.513 57.9375 146.992C58.1146 146.466 58.3698 146.01 58.7031 145.625C59.0365 145.234 59.4401 144.932 59.9141 144.719C60.388 144.5 60.9193 144.391 61.5078 144.391C62.1016 144.391 62.6354 144.5 63.1094 144.719C63.5885 144.932 63.9948 145.234 64.3281 145.625C64.6667 146.01 64.9245 146.466 65.1016 146.992C65.2786 147.513 65.3672 148.078 65.3672 148.688V148.867C65.3672 149.477 65.2786 150.042 65.1016 150.562C64.9245 151.083 64.6667 151.539 64.3281 151.93C63.9948 152.315 63.5911 152.617 63.1172 152.836C62.6484 153.049 62.1172 153.156 61.5234 153.156C60.9297 153.156 60.3958 153.049 59.9219 152.836C59.4479 152.617 59.0417 152.315 58.7031 151.93C58.3698 151.539 58.1146 151.083 57.9375 150.562C57.7604 150.042 57.6719 149.477 57.6719 148.867ZM59.1172 148.688V148.867C59.1172 149.289 59.1667 149.688 59.2656 150.062C59.3646 150.432 59.513 150.76 59.7109 151.047C59.9141 151.333 60.1667 151.56 60.4688 151.727C60.7708 151.888 61.1224 151.969 61.5234 151.969C61.9193 151.969 62.2656 151.888 62.5625 151.727C62.8646 151.56 63.1146 151.333 63.3125 151.047C63.5104 150.76 63.6589 150.432 63.7578 150.062C63.862 149.688 63.9141 149.289 63.9141 148.867V148.688C63.9141 148.271 63.862 147.878 63.7578 147.508C63.6589 147.133 63.5078 146.802 63.3047 146.516C63.1068 146.224 62.8568 145.995 62.5547 145.828C62.2578 145.661 61.9089 145.578 61.5078 145.578C61.112 145.578 60.763 145.661 60.4609 145.828C60.1641 145.995 59.9141 146.224 59.7109 146.516C59.513 146.802 59.3646 147.133 59.2656 147.508C59.1667 147.878 59.1172 148.271 59.1172 148.688ZM68.75 144.547V153H67.2969V144.547H68.75ZM67.1875 142.305C67.1875 142.07 67.2578 141.872 67.3984 141.711C67.5443 141.549 67.7578 141.469 68.0391 141.469C68.3151 141.469 68.526 141.549 68.6719 141.711C68.8229 141.872 68.8984 142.07 68.8984 142.305C68.8984 142.529 68.8229 142.721 68.6719 142.883C68.526 143.039 68.3151 143.117 68.0391 143.117C67.7578 143.117 67.5443 143.039 67.3984 142.883C67.2578 142.721 67.1875 142.529 67.1875 142.305ZM72.5156 146.352V153H71.0703V144.547H72.4375L72.5156 146.352ZM72.1719 148.453L71.5703 148.43C71.5755 147.852 71.6615 147.318 71.8281 146.828C71.9948 146.333 72.2292 145.904 72.5312 145.539C72.8333 145.174 73.1927 144.893 73.6094 144.695C74.0312 144.492 74.4974 144.391 75.0078 144.391C75.4245 144.391 75.7995 144.448 76.1328 144.562C76.4661 144.672 76.75 144.849 76.9844 145.094C77.224 145.339 77.4062 145.656 77.5312 146.047C77.6562 146.432 77.7188 146.904 77.7188 147.461V153H76.2656V147.445C76.2656 147.003 76.2005 146.648 76.0703 146.383C75.9401 146.112 75.75 145.917 75.5 145.797C75.25 145.672 74.9427 145.609 74.5781 145.609C74.2188 145.609 73.8906 145.685 73.5938 145.836C73.3021 145.987 73.0495 146.195 72.8359 146.461C72.6276 146.727 72.4635 147.031 72.3438 147.375C72.2292 147.714 72.1719 148.073 72.1719 148.453ZM85.3906 144.547H86.7031V152.82C86.7031 153.565 86.5521 154.201 86.25 154.727C85.9479 155.253 85.526 155.651 84.9844 155.922C84.4479 156.198 83.8281 156.336 83.125 156.336C82.8333 156.336 82.4896 156.289 82.0938 156.195C81.7031 156.107 81.3177 155.953 80.9375 155.734C80.5625 155.521 80.2474 155.232 79.9922 154.867L80.75 154.008C81.1042 154.435 81.474 154.732 81.8594 154.898C82.25 155.065 82.6354 155.148 83.0156 155.148C83.474 155.148 83.8698 155.062 84.2031 154.891C84.5365 154.719 84.7943 154.464 84.9766 154.125C85.1641 153.792 85.2578 153.38 85.2578 152.891V146.406L85.3906 144.547ZM79.5703 148.867V148.703C79.5703 148.057 79.6458 147.471 79.7969 146.945C79.9531 146.414 80.1745 145.958 80.4609 145.578C80.7526 145.198 81.1042 144.906 81.5156 144.703C81.9271 144.495 82.3906 144.391 82.9062 144.391C83.4375 144.391 83.901 144.484 84.2969 144.672C84.6979 144.854 85.0365 145.122 85.3125 145.477C85.5938 145.826 85.8151 146.247 85.9766 146.742C86.138 147.237 86.25 147.797 86.3125 148.422V149.141C86.2552 149.76 86.1432 150.318 85.9766 150.812C85.8151 151.307 85.5938 151.729 85.3125 152.078C85.0365 152.427 84.6979 152.695 84.2969 152.883C83.8958 153.065 83.4271 153.156 82.8906 153.156C82.3854 153.156 81.9271 153.049 81.5156 152.836C81.1094 152.622 80.7604 152.323 80.4688 151.938C80.1771 151.552 79.9531 151.099 79.7969 150.578C79.6458 150.052 79.5703 149.482 79.5703 148.867ZM81.0156 148.703V148.867C81.0156 149.289 81.0573 149.685 81.1406 150.055C81.2292 150.424 81.362 150.75 81.5391 151.031C81.7214 151.312 81.9531 151.534 82.2344 151.695C82.5156 151.852 82.8516 151.93 83.2422 151.93C83.7214 151.93 84.1172 151.828 84.4297 151.625C84.7422 151.422 84.9896 151.154 85.1719 150.82C85.3594 150.487 85.5052 150.125 85.6094 149.734V147.852C85.5521 147.565 85.4635 147.289 85.3438 147.023C85.2292 146.753 85.0781 146.513 84.8906 146.305C84.7083 146.091 84.4818 145.922 84.2109 145.797C83.9401 145.672 83.6224 145.609 83.2578 145.609C82.862 145.609 82.5208 145.693 82.2344 145.859C81.9531 146.021 81.7214 146.245 81.5391 146.531C81.362 146.812 81.2292 147.141 81.1406 147.516C81.0573 147.885 81.0156 148.281 81.0156 148.703Z" fill="#212121"/>
<path fill-rule="evenodd" clip-rule="evenodd" d="M117.064 143C117.681 143 118.22 142.665 118.508 142.166H120.397C120.858 142.166 121.231 142.539 121.231 143V144.771C119.793 145.141 118.731 146.447 118.731 148C118.731 149.553 119.793 150.858 121.231 151.228V153C121.231 153.46 120.858 153.833 120.397 153.833H118.508C118.22 153.335 117.681 153 117.064 153C116.447 153 115.909 153.335 115.62 153.833H107.064C106.604 153.833 106.231 153.46 106.231 153V151.228C107.668 150.858 108.731 149.553 108.731 148C108.731 146.447 107.668 145.141 106.231 144.771V143C106.231 142.539 106.604 142.166 107.064 142.166H115.62C115.909 142.665 116.447 143 117.064 143ZM119.564 148C119.564 146.619 120.683 145.5 122.064 145.5V143C122.064 142.079 121.318 141.333 120.397 141.333H117.897C117.897 141.793 117.524 142.166 117.064 142.166C116.604 142.166 116.231 141.793 116.231 141.333H107.064C106.144 141.333 105.397 142.079 105.397 143V145.5C106.778 145.5 107.897 146.619 107.897 148C107.897 149.38 106.778 150.5 105.397 150.5V153C105.397 153.92 106.144 154.666 107.064 154.666H116.231C116.231 154.206 116.604 153.833 117.064 153.833C117.524 153.833 117.897 154.206 117.897 154.666H120.397C121.318 154.666 122.064 153.92 122.064 153V150.5C120.683 150.5 119.564 149.38 119.564 148ZM117.064 145.5C117.524 145.5 117.897 145.127 117.897 144.666C117.897 144.206 117.524 143.833 117.064 143.833C116.604 143.833 116.231 144.206 116.231 144.666C116.231 145.127 116.604 145.5 117.064 145.5ZM117.064 148.833C117.524 148.833 117.897 148.46 117.897 148C117.897 147.539 117.524 147.166 117.064 147.166C116.604 147.166 116.231 147.539 116.231 148C116.231 148.46 116.604 148.833 117.064 148.833ZM117.897 151.333C117.897 151.793 117.524 152.166 117.064 152.166C116.604 152.166 116.231 151.793 116.231 151.333C116.231 150.873 116.604 150.5 117.064 150.5C117.524 150.5 117.897 150.873 117.897 151.333Z" fill="#707070"/>
<path d="M132.559 141.625V153H131.051V141.625H132.559ZM137.324 146.742V147.977H132.23V146.742H137.324ZM138.098 141.625V142.859H132.23V141.625H138.098ZM140.918 145.875V153H139.473V144.547H140.879L140.918 145.875ZM143.559 144.5L143.551 145.844C143.431 145.818 143.316 145.802 143.207 145.797C143.103 145.786 142.983 145.781 142.848 145.781C142.514 145.781 142.22 145.833 141.965 145.938C141.71 146.042 141.493 146.188 141.316 146.375C141.139 146.562 140.999 146.786 140.895 147.047C140.796 147.302 140.73 147.583 140.699 147.891L140.293 148.125C140.293 147.615 140.342 147.135 140.441 146.688C140.546 146.24 140.704 145.844 140.918 145.5C141.132 145.151 141.402 144.88 141.73 144.688C142.064 144.49 142.46 144.391 142.918 144.391C143.022 144.391 143.142 144.404 143.277 144.43C143.413 144.451 143.507 144.474 143.559 144.5ZM148.246 153.156C147.658 153.156 147.124 153.057 146.645 152.859C146.171 152.656 145.762 152.372 145.418 152.008C145.079 151.643 144.819 151.211 144.637 150.711C144.454 150.211 144.363 149.664 144.363 149.07V148.742C144.363 148.055 144.465 147.443 144.668 146.906C144.871 146.365 145.147 145.906 145.496 145.531C145.845 145.156 146.241 144.872 146.684 144.68C147.126 144.487 147.585 144.391 148.059 144.391C148.663 144.391 149.184 144.495 149.621 144.703C150.064 144.911 150.426 145.203 150.707 145.578C150.988 145.948 151.197 146.385 151.332 146.891C151.467 147.391 151.535 147.938 151.535 148.531V149.18H145.223V148H150.09V147.891C150.069 147.516 149.991 147.151 149.855 146.797C149.725 146.443 149.517 146.151 149.23 145.922C148.944 145.693 148.553 145.578 148.059 145.578C147.73 145.578 147.428 145.648 147.152 145.789C146.876 145.924 146.639 146.128 146.441 146.398C146.243 146.669 146.09 147 145.98 147.391C145.871 147.781 145.816 148.232 145.816 148.742V149.07C145.816 149.471 145.871 149.849 145.98 150.203C146.095 150.552 146.259 150.859 146.473 151.125C146.691 151.391 146.954 151.599 147.262 151.75C147.574 151.901 147.928 151.977 148.324 151.977C148.835 151.977 149.267 151.872 149.621 151.664C149.975 151.456 150.285 151.177 150.551 150.828L151.426 151.523C151.243 151.799 151.012 152.062 150.73 152.312C150.449 152.562 150.103 152.766 149.691 152.922C149.285 153.078 148.803 153.156 148.246 153.156ZM156.73 153.156C156.142 153.156 155.608 153.057 155.129 152.859C154.655 152.656 154.246 152.372 153.902 152.008C153.564 151.643 153.303 151.211 153.121 150.711C152.939 150.211 152.848 149.664 152.848 149.07V148.742C152.848 148.055 152.949 147.443 153.152 146.906C153.355 146.365 153.632 145.906 153.98 145.531C154.329 145.156 154.725 144.872 155.168 144.68C155.611 144.487 156.069 144.391 156.543 144.391C157.147 144.391 157.668 144.495 158.105 144.703C158.548 144.911 158.91 145.203 159.191 145.578C159.473 145.948 159.681 146.385 159.816 146.891C159.952 147.391 160.02 147.938 160.02 148.531V149.18H153.707V148H158.574V147.891C158.553 147.516 158.475 147.151 158.34 146.797C158.21 146.443 158.001 146.151 157.715 145.922C157.428 145.693 157.038 145.578 156.543 145.578C156.215 145.578 155.913 145.648 155.637 145.789C155.361 145.924 155.124 146.128 154.926 146.398C154.728 146.669 154.574 147 154.465 147.391C154.355 147.781 154.301 148.232 154.301 148.742V149.07C154.301 149.471 154.355 149.849 154.465 150.203C154.579 150.552 154.743 150.859 154.957 151.125C155.176 151.391 155.439 151.599 155.746 151.75C156.059 151.901 156.413 151.977 156.809 151.977C157.319 151.977 157.751 151.872 158.105 151.664C158.46 151.456 158.77 151.177 159.035 150.828L159.91 151.523C159.728 151.799 159.496 152.062 159.215 152.312C158.934 152.562 158.587 152.766 158.176 152.922C157.77 153.078 157.288 153.156 156.73 153.156Z" fill="#212121"/>
</svg>
