<svg width="272" height="214" viewBox="0 0 272 214" fill="none" xmlns="http://www.w3.org/2000/svg">
<g clip-path="url(#clip0_2_2082)">
<path d="M10.3809 16.8906V19H3.23242V16.8906H10.3809ZM4.04297 4.78125V19H1.35742V4.78125H4.04297ZM16.7285 19.1953C15.9277 19.1953 15.2083 19.0651 14.5703 18.8047C13.9323 18.5443 13.3887 18.1829 12.9395 17.7207C12.4967 17.252 12.1549 16.7083 11.9141 16.0898C11.6797 15.4648 11.5625 14.7943 11.5625 14.0781V13.6875C11.5625 12.8737 11.6797 12.1348 11.9141 11.4707C12.1484 10.8001 12.4805 10.224 12.9102 9.74219C13.3398 9.26042 13.8542 8.88932 14.4531 8.62891C15.0521 8.36849 15.7129 8.23828 16.4355 8.23828C17.1842 8.23828 17.8451 8.36523 18.418 8.61914C18.9909 8.86654 19.4694 9.2181 19.8535 9.67383C20.2376 10.1296 20.5273 10.6764 20.7227 11.3145C20.918 11.946 21.0156 12.6458 21.0156 13.4141V14.498H12.7344V12.7207H18.4766V12.5254C18.4635 12.1152 18.3854 11.7409 18.2422 11.4023C18.099 11.0573 17.8776 10.7839 17.5781 10.582C17.2786 10.3737 16.8913 10.2695 16.416 10.2695C16.0319 10.2695 15.6966 10.3542 15.4102 10.5234C15.1302 10.6862 14.8958 10.9206 14.707 11.2266C14.5247 11.526 14.388 11.8841 14.2969 12.3008C14.2057 12.7174 14.1602 13.1797 14.1602 13.6875V14.0781C14.1602 14.5208 14.2188 14.931 14.3359 15.3086C14.4596 15.6862 14.6387 16.015 14.873 16.2949C15.1139 16.5684 15.4004 16.7832 15.7324 16.9395C16.071 17.0892 16.4551 17.1641 16.8848 17.1641C17.4251 17.1641 17.9134 17.0599 18.3496 16.8516C18.7923 16.6367 19.1764 16.321 19.502 15.9043L20.8008 17.252C20.5794 17.5775 20.2799 17.89 19.9023 18.1895C19.5312 18.4889 19.082 18.7331 18.5547 18.9219C18.0273 19.1042 17.4186 19.1953 16.7285 19.1953ZM27.7441 8.43359V10.2891H21.6895V8.43359H27.7441ZM23.3105 5.83594H25.8984V15.9531C25.8984 16.2656 25.9408 16.5065 26.0254 16.6758C26.11 16.8451 26.237 16.959 26.4062 17.0176C26.5755 17.0762 26.7773 17.1055 27.0117 17.1055C27.181 17.1055 27.3372 17.0957 27.4805 17.0762C27.6237 17.0566 27.7441 17.0371 27.8418 17.0176L27.8516 18.9512C27.6367 19.0228 27.3926 19.0814 27.1191 19.127C26.8522 19.1725 26.5495 19.1953 26.2109 19.1953C25.6315 19.1953 25.1237 19.0977 24.6875 18.9023C24.2513 18.7005 23.9128 18.3783 23.6719 17.9355C23.431 17.4863 23.3105 16.8939 23.3105 16.1582V5.83594ZM30.9375 4V5.33789L30.6641 9.16602H29.0137V5.48438V4H30.9375ZM37.7148 16.1094C37.7148 15.888 37.6562 15.6895 37.5391 15.5137C37.4219 15.3379 37.2005 15.1784 36.875 15.0352C36.556 14.8854 36.0872 14.7454 35.4688 14.6152C34.9219 14.498 34.4173 14.3516 33.9551 14.1758C33.4928 14 33.0957 13.7884 32.7637 13.541C32.4316 13.2871 32.1712 12.9909 31.9824 12.6523C31.8001 12.3073 31.709 11.9102 31.709 11.4609C31.709 11.0247 31.8034 10.6146 31.9922 10.2305C32.181 9.83984 32.4544 9.49805 32.8125 9.20508C33.1706 8.9056 33.6068 8.67122 34.1211 8.50195C34.6354 8.32617 35.2148 8.23828 35.8594 8.23828C36.7578 8.23828 37.5293 8.38477 38.1738 8.67773C38.8249 8.9707 39.3229 9.37435 39.668 9.88867C40.013 10.3965 40.1855 10.9694 40.1855 11.6074H37.6074C37.6074 11.3275 37.5423 11.0736 37.4121 10.8457C37.2884 10.6178 37.0964 10.4355 36.8359 10.2988C36.5755 10.1556 36.2467 10.084 35.8496 10.084C35.4915 10.084 35.1888 10.1426 34.9414 10.2598C34.7005 10.377 34.5182 10.5299 34.3945 10.7188C34.2708 10.9076 34.209 11.1159 34.209 11.3438C34.209 11.513 34.2415 11.666 34.3066 11.8027C34.3783 11.9329 34.4922 12.0534 34.6484 12.1641C34.8047 12.2747 35.0163 12.3757 35.2832 12.4668C35.5566 12.5579 35.8919 12.6458 36.2891 12.7305C37.0768 12.8867 37.7637 13.0951 38.3496 13.3555C38.9421 13.6094 39.4043 13.9479 39.7363 14.3711C40.0684 14.7943 40.2344 15.3346 40.2344 15.9922C40.2344 16.4609 40.1335 16.8906 39.9316 17.2812C39.7298 17.6654 39.4368 18.0007 39.0527 18.2871C38.6686 18.5736 38.2096 18.7982 37.6758 18.9609C37.1419 19.1172 36.5397 19.1953 35.8691 19.1953C34.8991 19.1953 34.0788 19.0228 33.4082 18.6777C32.7376 18.3262 32.2298 17.8835 31.8848 17.3496C31.5397 16.8092 31.3672 16.2493 31.3672 15.6699H33.8379C33.8574 16.0801 33.9681 16.4089 34.1699 16.6562C34.3717 16.9036 34.6257 17.0827 34.9316 17.1934C35.2441 17.2975 35.5729 17.3496 35.918 17.3496C36.3086 17.3496 36.6374 17.2975 36.9043 17.1934C37.1712 17.0827 37.373 16.9362 37.5098 16.7539C37.6465 16.5651 37.7148 16.3503 37.7148 16.1094ZM52.9883 4.78125V19H50.3125V4.78125H52.9883ZM57.4023 4.78125V6.90039H45.9473V4.78125H57.4023ZM63.4277 16.7539V11.8809C63.4277 11.5228 63.3659 11.2135 63.2422 10.9531C63.1185 10.6927 62.9297 10.4909 62.6758 10.3477C62.4219 10.2044 62.0996 10.1328 61.709 10.1328C61.3639 10.1328 61.0612 10.1914 60.8008 10.3086C60.5469 10.4258 60.3516 10.5918 60.2148 10.8066C60.0781 11.015 60.0098 11.2559 60.0098 11.5293H57.4219C57.4219 11.0931 57.526 10.6797 57.7344 10.2891C57.9427 9.89193 58.2389 9.54036 58.623 9.23438C59.0137 8.92188 59.4792 8.67773 60.0195 8.50195C60.5664 8.32617 61.1784 8.23828 61.8555 8.23828C62.6562 8.23828 63.3691 8.375 63.9941 8.64844C64.6257 8.91536 65.1204 9.31901 65.4785 9.85938C65.8431 10.3997 66.0254 11.0801 66.0254 11.9004V16.5098C66.0254 17.0371 66.0579 17.4896 66.123 17.8672C66.1947 18.2383 66.2988 18.5605 66.4355 18.834V19H63.8086C63.6849 18.7331 63.5905 18.3945 63.5254 17.9844C63.4603 17.5677 63.4277 17.1576 63.4277 16.7539ZM63.7891 12.5645L63.8086 14.0977H62.1777C61.7741 14.0977 61.4193 14.14 61.1133 14.2246C60.8073 14.3027 60.5566 14.4199 60.3613 14.5762C60.166 14.7259 60.0195 14.9082 59.9219 15.123C59.8242 15.3314 59.7754 15.569 59.7754 15.8359C59.7754 16.0964 59.834 16.3307 59.9512 16.5391C60.0749 16.7474 60.2507 16.9134 60.4785 17.0371C60.7129 17.1543 60.9863 17.2129 61.2988 17.2129C61.7546 17.2129 62.1517 17.1217 62.4902 16.9395C62.8288 16.7507 63.0924 16.5228 63.2812 16.2559C63.4701 15.9889 63.571 15.735 63.584 15.4941L64.3262 16.6074C64.235 16.8743 64.0983 17.1576 63.916 17.457C63.7337 17.7565 63.4993 18.0365 63.2129 18.2969C62.9264 18.5573 62.5814 18.7721 62.1777 18.9414C61.7741 19.1107 61.3053 19.1953 60.7715 19.1953C60.0879 19.1953 59.4759 19.0586 58.9355 18.7852C58.3952 18.5117 57.9688 18.1374 57.6562 17.6621C57.3438 17.1868 57.1875 16.6465 57.1875 16.041C57.1875 15.4811 57.2917 14.9863 57.5 14.5566C57.7083 14.127 58.0176 13.7656 58.4277 13.4727C58.8379 13.1732 59.3457 12.9486 59.9512 12.7988C60.5632 12.6426 61.263 12.5645 62.0508 12.5645H63.7891ZM71.084 4V19H68.4961V4H71.084ZM76.123 3.99023V19H73.5449V3.99023H76.123ZM82.7441 8.43359L78.1445 13.5996L75.6543 16.1289L74.834 14.127L76.7578 11.7051L79.6289 8.43359H82.7441ZM80.1074 19L76.8359 14.0781L78.5547 12.4082L83.0957 19H80.1074ZM100.713 4.78125V19H98.0176L91.9727 9.13672V19H89.2871V4.78125H91.9727L98.0371 14.6543V4.78125H100.713ZM107.998 19.1953C107.197 19.1953 106.478 19.0651 105.84 18.8047C105.202 18.5443 104.658 18.1829 104.209 17.7207C103.766 17.252 103.424 16.7083 103.184 16.0898C102.949 15.4648 102.832 14.7943 102.832 14.0781V13.6875C102.832 12.8737 102.949 12.1348 103.184 11.4707C103.418 10.8001 103.75 10.224 104.18 9.74219C104.609 9.26042 105.124 8.88932 105.723 8.62891C106.322 8.36849 106.982 8.23828 107.705 8.23828C108.454 8.23828 109.115 8.36523 109.688 8.61914C110.26 8.86654 110.739 9.2181 111.123 9.67383C111.507 10.1296 111.797 10.6764 111.992 11.3145C112.188 11.946 112.285 12.6458 112.285 13.4141V14.498H104.004V12.7207H109.746V12.5254C109.733 12.1152 109.655 11.7409 109.512 11.4023C109.368 11.0573 109.147 10.7839 108.848 10.582C108.548 10.3737 108.161 10.2695 107.686 10.2695C107.301 10.2695 106.966 10.3542 106.68 10.5234C106.4 10.6862 106.165 10.9206 105.977 11.2266C105.794 11.526 105.658 11.8841 105.566 12.3008C105.475 12.7174 105.43 13.1797 105.43 13.6875V14.0781C105.43 14.5208 105.488 14.931 105.605 15.3086C105.729 15.6862 105.908 16.015 106.143 16.2949C106.383 16.5684 106.67 16.7832 107.002 16.9395C107.34 17.0892 107.725 17.1641 108.154 17.1641C108.695 17.1641 109.183 17.0599 109.619 16.8516C110.062 16.6367 110.446 16.321 110.771 15.9043L112.07 17.252C111.849 17.5775 111.549 17.89 111.172 18.1895C110.801 18.4889 110.352 18.7331 109.824 18.9219C109.297 19.1042 108.688 19.1953 107.998 19.1953ZM119.014 8.43359V10.2891H112.959V8.43359H119.014ZM114.58 5.83594H117.168V15.9531C117.168 16.2656 117.21 16.5065 117.295 16.6758C117.38 16.8451 117.507 16.959 117.676 17.0176C117.845 17.0762 118.047 17.1055 118.281 17.1055C118.451 17.1055 118.607 17.0957 118.75 17.0762C118.893 17.0566 119.014 17.0371 119.111 17.0176L119.121 18.9512C118.906 19.0228 118.662 19.0814 118.389 19.127C118.122 19.1725 117.819 19.1953 117.48 19.1953C116.901 19.1953 116.393 19.0977 115.957 18.9023C115.521 18.7005 115.182 18.3783 114.941 17.9355C114.701 17.4863 114.58 16.8939 114.58 16.1582V5.83594ZM123.672 16.4609L125.986 8.43359H127.627L127.139 11.207L124.805 19H123.389L123.672 16.4609ZM122.393 8.43359L124.131 16.4805L124.287 19H122.656L119.883 8.43359H122.393ZM129.775 16.3633L131.475 8.43359H133.975L131.221 19H129.59L129.775 16.3633ZM127.881 8.43359L130.176 16.3828L130.479 19H129.062L126.709 11.207L126.23 8.43359H127.881ZM135.039 13.8242V13.6191C135.039 12.8444 135.15 12.1315 135.371 11.4805C135.592 10.8229 135.915 10.2533 136.338 9.77148C136.761 9.28971 137.279 8.91536 137.891 8.64844C138.503 8.375 139.199 8.23828 139.98 8.23828C140.775 8.23828 141.478 8.375 142.09 8.64844C142.708 8.91536 143.229 9.28971 143.652 9.77148C144.076 10.2533 144.398 10.8229 144.619 11.4805C144.84 12.1315 144.951 12.8444 144.951 13.6191V13.8242C144.951 14.5924 144.84 15.3053 144.619 15.9629C144.398 16.6139 144.076 17.1836 143.652 17.6719C143.229 18.1536 142.712 18.528 142.1 18.7949C141.488 19.0618 140.788 19.1953 140 19.1953C139.219 19.1953 138.519 19.0618 137.9 18.7949C137.282 18.528 136.761 18.1536 136.338 17.6719C135.915 17.1836 135.592 16.6139 135.371 15.9629C135.15 15.3053 135.039 14.5924 135.039 13.8242ZM137.617 13.6191V13.8242C137.617 14.2865 137.663 14.7194 137.754 15.123C137.845 15.5267 137.985 15.8815 138.174 16.1875C138.363 16.4935 138.607 16.7344 138.906 16.9102C139.212 17.0794 139.577 17.1641 140 17.1641C140.417 17.1641 140.775 17.0794 141.074 16.9102C141.374 16.7344 141.618 16.4935 141.807 16.1875C142.002 15.8815 142.145 15.5267 142.236 15.123C142.327 14.7194 142.373 14.2865 142.373 13.8242V13.6191C142.373 13.1634 142.327 12.737 142.236 12.3398C142.145 11.9362 142.002 11.5814 141.807 11.2754C141.618 10.9629 141.37 10.7188 141.064 10.543C140.765 10.3607 140.404 10.2695 139.98 10.2695C139.564 10.2695 139.206 10.3607 138.906 10.543C138.607 10.7188 138.363 10.9629 138.174 11.2754C137.985 11.5814 137.845 11.9362 137.754 12.3398C137.663 12.737 137.617 13.1634 137.617 13.6191ZM149.404 10.5918V19H146.826V8.43359H149.268L149.404 10.5918ZM152.617 8.36523L152.578 10.7676C152.435 10.7415 152.272 10.722 152.09 10.709C151.914 10.696 151.748 10.6895 151.592 10.6895C151.195 10.6895 150.846 10.7448 150.547 10.8555C150.247 10.9596 149.997 11.1126 149.795 11.3145C149.6 11.5163 149.45 11.7637 149.346 12.0566C149.242 12.3431 149.183 12.6686 149.17 13.0332L148.613 12.9648C148.613 12.2943 148.682 11.6725 148.818 11.0996C148.955 10.5267 149.154 10.0254 149.414 9.5957C149.674 9.16602 150 8.83398 150.391 8.59961C150.788 8.35872 151.243 8.23828 151.758 8.23828C151.901 8.23828 152.054 8.2513 152.217 8.27734C152.386 8.29688 152.52 8.32617 152.617 8.36523ZM156.611 3.99023V19H154.033V3.99023H156.611ZM163.232 8.43359L158.633 13.5996L156.143 16.1289L155.322 14.127L157.246 11.7051L160.117 8.43359H163.232ZM160.596 19L157.324 14.0781L159.043 12.4082L163.584 19H160.596ZM167.334 8.43359V19H164.746V8.43359H167.334ZM164.57 5.66992C164.57 5.28581 164.701 4.9668 164.961 4.71289C165.228 4.45898 165.586 4.33203 166.035 4.33203C166.484 4.33203 166.839 4.45898 167.1 4.71289C167.367 4.9668 167.5 5.28581 167.5 5.66992C167.5 6.04753 167.367 6.36328 167.1 6.61719C166.839 6.87109 166.484 6.99805 166.035 6.99805C165.586 6.99805 165.228 6.87109 164.961 6.61719C164.701 6.36328 164.57 6.04753 164.57 5.66992ZM172.324 10.6895V19H169.746V8.43359H172.168L172.324 10.6895ZM171.914 13.3359H171.152C171.159 12.5677 171.263 11.8711 171.465 11.2461C171.667 10.6211 171.95 10.084 172.314 9.63477C172.686 9.18555 173.125 8.84049 173.633 8.59961C174.141 8.35872 174.707 8.23828 175.332 8.23828C175.84 8.23828 176.299 8.3099 176.709 8.45312C177.119 8.59635 177.471 8.82422 177.764 9.13672C178.063 9.44922 178.291 9.85938 178.447 10.3672C178.61 10.8685 178.691 11.487 178.691 12.2227V19H176.094V12.2031C176.094 11.7214 176.022 11.3405 175.879 11.0605C175.742 10.7806 175.54 10.582 175.273 10.4648C175.013 10.3477 174.691 10.2891 174.307 10.2891C173.91 10.2891 173.561 10.3704 173.262 10.5332C172.969 10.6895 172.721 10.9076 172.52 11.1875C172.324 11.4674 172.174 11.7897 172.07 12.1543C171.966 12.5189 171.914 12.9128 171.914 13.3359ZM187.686 8.43359H190.029V18.6777C190.029 19.6348 189.821 20.4453 189.404 21.1094C188.994 21.7799 188.418 22.2878 187.676 22.6328C186.934 22.9844 186.071 23.1602 185.088 23.1602C184.665 23.1602 184.206 23.1016 183.711 22.9844C183.223 22.8672 182.751 22.6816 182.295 22.4277C181.846 22.1803 181.471 21.8581 181.172 21.4609L182.334 19.9375C182.686 20.3477 183.083 20.6569 183.525 20.8652C183.968 21.0801 184.447 21.1875 184.961 21.1875C185.482 21.1875 185.924 21.0898 186.289 20.8945C186.66 20.7057 186.943 20.4258 187.139 20.0547C187.34 19.6901 187.441 19.2409 187.441 18.707V10.8457L187.686 8.43359ZM180.547 13.8438V13.6387C180.547 12.8314 180.645 12.099 180.84 11.4414C181.035 10.7773 181.315 10.2077 181.68 9.73242C182.051 9.25716 182.497 8.88932 183.018 8.62891C183.545 8.36849 184.137 8.23828 184.795 8.23828C185.492 8.23828 186.077 8.36523 186.553 8.61914C187.035 8.87305 187.432 9.23438 187.744 9.70312C188.063 10.1719 188.311 10.7285 188.486 11.373C188.669 12.0111 188.809 12.7142 188.906 13.4824V14.0391C188.815 14.7878 188.669 15.4746 188.467 16.0996C188.271 16.7246 188.011 17.2715 187.686 17.7402C187.36 18.2025 186.956 18.5605 186.475 18.8145C185.993 19.0684 185.426 19.1953 184.775 19.1953C184.124 19.1953 183.538 19.0618 183.018 18.7949C182.497 18.528 182.051 18.1536 181.68 17.6719C181.315 17.1901 181.035 16.6237 180.84 15.9727C180.645 15.3216 180.547 14.612 180.547 13.8438ZM183.125 13.6387V13.8438C183.125 14.2995 183.171 14.7259 183.262 15.123C183.353 15.5202 183.493 15.8717 183.682 16.1777C183.87 16.4772 184.108 16.7116 184.395 16.8809C184.681 17.0501 185.023 17.1348 185.42 17.1348C185.954 17.1348 186.39 17.0241 186.729 16.8027C187.074 16.5749 187.334 16.2656 187.51 15.875C187.692 15.4779 187.809 15.0319 187.861 14.5371V13.0039C187.829 12.6133 187.757 12.252 187.646 11.9199C187.542 11.5879 187.396 11.3014 187.207 11.0605C187.018 10.8197 186.777 10.6309 186.484 10.4941C186.191 10.3574 185.843 10.2891 185.439 10.2891C185.049 10.2891 184.707 10.377 184.414 10.5527C184.121 10.722 183.88 10.9596 183.691 11.2656C183.503 11.5716 183.359 11.9264 183.262 12.3301C183.171 12.7337 183.125 13.1699 183.125 13.6387ZM192.412 17.7402C192.412 17.3496 192.546 17.0208 192.812 16.7539C193.079 16.487 193.441 16.3535 193.896 16.3535C194.352 16.3535 194.714 16.487 194.98 16.7539C195.247 17.0208 195.381 17.3496 195.381 17.7402C195.381 18.1243 195.247 18.4499 194.98 18.7168C194.714 18.9772 194.352 19.1074 193.896 19.1074C193.441 19.1074 193.079 18.9772 192.812 18.7168C192.546 18.4499 192.412 18.1243 192.412 17.7402ZM192.422 9.54688C192.422 9.15625 192.555 8.82747 192.822 8.56055C193.089 8.29362 193.451 8.16016 193.906 8.16016C194.362 8.16016 194.723 8.29362 194.99 8.56055C195.257 8.82747 195.391 9.15625 195.391 9.54688C195.391 9.93099 195.257 10.2565 194.99 10.5234C194.723 10.7839 194.362 10.9141 193.906 10.9141C193.451 10.9141 193.089 10.7839 192.822 10.5234C192.555 10.2565 192.422 9.93099 192.422 9.54688ZM7.1582 38.6836V28.7812H9.84375V38.6836C9.84375 39.6276 9.63867 40.4382 9.22852 41.1152C8.81836 41.7858 8.25846 42.3001 7.54883 42.6582C6.83919 43.0163 6.03841 43.1953 5.14648 43.1953C4.22852 43.1953 3.41471 43.0423 2.70508 42.7363C1.99544 42.4238 1.4388 41.9486 1.03516 41.3105C0.638021 40.6725 0.439453 39.862 0.439453 38.8789H3.13477C3.13477 39.4128 3.21615 39.8424 3.37891 40.168C3.54167 40.4935 3.77279 40.7279 4.07227 40.8711C4.37826 41.0143 4.73633 41.0859 5.14648 41.0859C5.54362 41.0859 5.89193 40.9948 6.19141 40.8125C6.4974 40.6237 6.73503 40.3503 6.9043 39.9922C7.07357 39.6341 7.1582 39.1979 7.1582 38.6836ZM17.9785 37.8145H14.3164V35.7051H17.9785C18.5775 35.7051 19.0625 35.6074 19.4336 35.4121C19.8112 35.2103 20.0879 34.9368 20.2637 34.5918C20.4395 34.2402 20.5273 33.8398 20.5273 33.3906C20.5273 32.9544 20.4395 32.5475 20.2637 32.1699C20.0879 31.7923 19.8112 31.4863 19.4336 31.252C19.0625 31.0176 18.5775 30.9004 17.9785 30.9004H15.1953V43H12.5098V28.7812H17.9785C19.0853 28.7812 20.0293 28.9798 20.8105 29.377C21.5983 29.7676 22.1973 30.3112 22.6074 31.0078C23.0241 31.6979 23.2324 32.4857 23.2324 33.3711C23.2324 34.2891 23.0241 35.0801 22.6074 35.7441C22.1973 36.4082 21.5983 36.9193 20.8105 37.2773C20.0293 37.6354 19.0853 37.8145 17.9785 37.8145ZM26.5137 28.7812H28.8379L32.7246 39.4844L36.6016 28.7812H38.9355L33.6523 43H31.7871L26.5137 28.7812ZM25.3418 28.7812H27.6172L28.0273 38.6152V43H25.3418V28.7812ZM37.8223 28.7812H40.1074V43H37.4219V38.6152L37.8223 28.7812ZM42.1875 37.8242V37.6191C42.1875 36.8444 42.2982 36.1315 42.5195 35.4805C42.7409 34.8229 43.0632 34.2533 43.4863 33.7715C43.9095 33.2897 44.4271 32.9154 45.0391 32.6484C45.651 32.375 46.3477 32.2383 47.1289 32.2383C47.9232 32.2383 48.6263 32.375 49.2383 32.6484C49.8568 32.9154 50.3776 33.2897 50.8008 33.7715C51.224 34.2533 51.5462 34.8229 51.7676 35.4805C51.9889 36.1315 52.0996 36.8444 52.0996 37.6191V37.8242C52.0996 38.5924 51.9889 39.3053 51.7676 39.9629C51.5462 40.6139 51.224 41.1836 50.8008 41.6719C50.3776 42.1536 49.86 42.528 49.248 42.7949C48.6361 43.0618 47.9362 43.1953 47.1484 43.1953C46.3672 43.1953 45.6673 43.0618 45.0488 42.7949C44.4303 42.528 43.9095 42.1536 43.4863 41.6719C43.0632 41.1836 42.7409 40.6139 42.5195 39.9629C42.2982 39.3053 42.1875 38.5924 42.1875 37.8242ZM44.7656 37.6191V37.8242C44.7656 38.2865 44.8112 38.7194 44.9023 39.123C44.9935 39.5267 45.1335 39.8815 45.3223 40.1875C45.5111 40.4935 45.7552 40.7344 46.0547 40.9102C46.3607 41.0794 46.7253 41.1641 47.1484 41.1641C47.5651 41.1641 47.9232 41.0794 48.2227 40.9102C48.5221 40.7344 48.7663 40.4935 48.9551 40.1875C49.1504 39.8815 49.2936 39.5267 49.3848 39.123C49.4759 38.7194 49.5215 38.2865 49.5215 37.8242V37.6191C49.5215 37.1634 49.4759 36.737 49.3848 36.3398C49.2936 35.9362 49.1504 35.5814 48.9551 35.2754C48.7663 34.9629 48.5189 34.7188 48.2129 34.543C47.9134 34.3607 47.5521 34.2695 47.1289 34.2695C46.7122 34.2695 46.3542 34.3607 46.0547 34.543C45.7552 34.7188 45.5111 34.9629 45.3223 35.2754C45.1335 35.5814 44.9935 35.9362 44.9023 36.3398C44.8112 36.737 44.7656 37.1634 44.7656 37.6191ZM56.5527 34.5918V43H53.9746V32.4336H56.416L56.5527 34.5918ZM59.7656 32.3652L59.7266 34.7676C59.5833 34.7415 59.4206 34.722 59.2383 34.709C59.0625 34.696 58.8965 34.6895 58.7402 34.6895C58.3431 34.6895 57.9948 34.7448 57.6953 34.8555C57.3958 34.9596 57.1452 35.1126 56.9434 35.3145C56.748 35.5163 56.5983 35.7637 56.4941 36.0566C56.39 36.3431 56.3314 36.6686 56.3184 37.0332L55.7617 36.9648C55.7617 36.2943 55.8301 35.6725 55.9668 35.0996C56.1035 34.5267 56.3021 34.0254 56.5625 33.5957C56.8229 33.166 57.1484 32.834 57.5391 32.5996C57.9362 32.3587 58.3919 32.2383 58.9062 32.2383C59.0495 32.2383 59.2025 32.2513 59.3652 32.2773C59.5345 32.2969 59.668 32.3262 59.7656 32.3652ZM67.7051 32.4336H70.0488V42.6777C70.0488 43.6348 69.8405 44.4453 69.4238 45.1094C69.0137 45.7799 68.4375 46.2878 67.6953 46.6328C66.9531 46.9844 66.0905 47.1602 65.1074 47.1602C64.6842 47.1602 64.2253 47.1016 63.7305 46.9844C63.2422 46.8672 62.7702 46.6816 62.3145 46.4277C61.8652 46.1803 61.4909 45.8581 61.1914 45.4609L62.3535 43.9375C62.7051 44.3477 63.1022 44.6569 63.5449 44.8652C63.9876 45.0801 64.4661 45.1875 64.9805 45.1875C65.5013 45.1875 65.944 45.0898 66.3086 44.8945C66.6797 44.7057 66.9629 44.4258 67.1582 44.0547C67.36 43.6901 67.4609 43.2409 67.4609 42.707V34.8457L67.7051 32.4336ZM60.5664 37.8438V37.6387C60.5664 36.8314 60.6641 36.099 60.8594 35.4414C61.0547 34.7773 61.3346 34.2077 61.6992 33.7324C62.0703 33.2572 62.5163 32.8893 63.0371 32.6289C63.5645 32.3685 64.1569 32.2383 64.8145 32.2383C65.5111 32.2383 66.097 32.3652 66.5723 32.6191C67.054 32.873 67.4512 33.2344 67.7637 33.7031C68.0827 34.1719 68.3301 34.7285 68.5059 35.373C68.6882 36.0111 68.8281 36.7142 68.9258 37.4824V38.0391C68.8346 38.7878 68.6882 39.4746 68.4863 40.0996C68.291 40.7246 68.0306 41.2715 67.7051 41.7402C67.3796 42.2025 66.9759 42.5605 66.4941 42.8145C66.0124 43.0684 65.446 43.1953 64.7949 43.1953C64.1439 43.1953 63.5579 43.0618 63.0371 42.7949C62.5163 42.528 62.0703 42.1536 61.6992 41.6719C61.3346 41.1901 61.0547 40.6237 60.8594 39.9727C60.6641 39.3216 60.5664 38.612 60.5664 37.8438ZM63.1445 37.6387V37.8438C63.1445 38.2995 63.1901 38.7259 63.2812 39.123C63.3724 39.5202 63.5124 39.8717 63.7012 40.1777C63.89 40.4772 64.1276 40.7116 64.4141 40.8809C64.7005 41.0501 65.0423 41.1348 65.4395 41.1348C65.9733 41.1348 66.4095 41.0241 66.748 40.8027C67.0931 40.5749 67.3535 40.2656 67.5293 39.875C67.7116 39.4779 67.8288 39.0319 67.8809 38.5371V37.0039C67.8483 36.6133 67.7767 36.252 67.666 35.9199C67.5618 35.5879 67.4154 35.3014 67.2266 35.0605C67.0378 34.8197 66.7969 34.6309 66.5039 34.4941C66.2109 34.3574 65.8626 34.2891 65.459 34.2891C65.0684 34.2891 64.7266 34.377 64.4336 34.5527C64.1406 34.722 63.8997 34.9596 63.7109 35.2656C63.5221 35.5716 63.3789 35.9264 63.2812 36.3301C63.1901 36.7337 63.1445 37.1699 63.1445 37.6387ZM78.1934 40.7539V35.8809C78.1934 35.5228 78.1315 35.2135 78.0078 34.9531C77.8841 34.6927 77.6953 34.4909 77.4414 34.3477C77.1875 34.2044 76.8652 34.1328 76.4746 34.1328C76.1296 34.1328 75.8268 34.1914 75.5664 34.3086C75.3125 34.4258 75.1172 34.5918 74.9805 34.8066C74.8438 35.015 74.7754 35.2559 74.7754 35.5293H72.1875C72.1875 35.0931 72.2917 34.6797 72.5 34.2891C72.7083 33.8919 73.0046 33.5404 73.3887 33.2344C73.7793 32.9219 74.2448 32.6777 74.7852 32.502C75.332 32.3262 75.944 32.2383 76.6211 32.2383C77.4219 32.2383 78.1348 32.375 78.7598 32.6484C79.3913 32.9154 79.8861 33.319 80.2441 33.8594C80.6087 34.3997 80.791 35.0801 80.791 35.9004V40.5098C80.791 41.0371 80.8236 41.4896 80.8887 41.8672C80.9603 42.2383 81.0645 42.5605 81.2012 42.834V43H78.5742C78.4505 42.7331 78.3561 42.3945 78.291 41.9844C78.2259 41.5677 78.1934 41.1576 78.1934 40.7539ZM78.5547 36.5645L78.5742 38.0977H76.9434C76.5397 38.0977 76.1849 38.14 75.8789 38.2246C75.5729 38.3027 75.3223 38.4199 75.127 38.5762C74.9316 38.7259 74.7852 38.9082 74.6875 39.123C74.5898 39.3314 74.541 39.569 74.541 39.8359C74.541 40.0964 74.5996 40.3307 74.7168 40.5391C74.8405 40.7474 75.0163 40.9134 75.2441 41.0371C75.4785 41.1543 75.752 41.2129 76.0645 41.2129C76.5202 41.2129 76.9173 41.1217 77.2559 40.9395C77.5944 40.7507 77.8581 40.5228 78.0469 40.2559C78.2357 39.9889 78.3366 39.735 78.3496 39.4941L79.0918 40.6074C79.0007 40.8743 78.8639 41.1576 78.6816 41.457C78.4993 41.7565 78.265 42.0365 77.9785 42.2969C77.6921 42.5573 77.347 42.7721 76.9434 42.9414C76.5397 43.1107 76.071 43.1953 75.5371 43.1953C74.8535 43.1953 74.2415 43.0586 73.7012 42.7852C73.1608 42.5117 72.7344 42.1374 72.4219 41.6621C72.1094 41.1868 71.9531 40.6465 71.9531 40.041C71.9531 39.4811 72.0573 38.9863 72.2656 38.5566C72.474 38.127 72.7832 37.7656 73.1934 37.4727C73.6035 37.1732 74.1113 36.9486 74.7168 36.7988C75.3288 36.6426 76.0286 36.5645 76.8164 36.5645H78.5547ZM85.6445 34.6895V43H83.0664V32.4336H85.4883L85.6445 34.6895ZM85.2344 37.3359H84.4727C84.4792 36.5677 84.5833 35.8711 84.7852 35.2461C84.987 34.6211 85.2702 34.084 85.6348 33.6348C86.0059 33.1855 86.4453 32.8405 86.9531 32.5996C87.4609 32.3587 88.0273 32.2383 88.6523 32.2383C89.1602 32.2383 89.6191 32.3099 90.0293 32.4531C90.4395 32.5964 90.791 32.8242 91.084 33.1367C91.3835 33.4492 91.6113 33.8594 91.7676 34.3672C91.9303 34.8685 92.0117 35.487 92.0117 36.2227V43H89.4141V36.2031C89.4141 35.7214 89.3424 35.3405 89.1992 35.0605C89.0625 34.7806 88.8607 34.582 88.5938 34.4648C88.3333 34.3477 88.0111 34.2891 87.627 34.2891C87.2298 34.2891 86.8815 34.3704 86.582 34.5332C86.2891 34.6895 86.0417 34.9076 85.8398 35.1875C85.6445 35.4674 85.4948 35.7897 85.3906 36.1543C85.2865 36.5189 85.2344 36.9128 85.2344 37.3359ZM107.783 38.3223H110.469C110.397 39.2728 110.133 40.1159 109.678 40.8516C109.222 41.5807 108.587 42.1536 107.773 42.5703C106.96 42.987 105.973 43.1953 104.814 43.1953C103.923 43.1953 103.118 43.0391 102.402 42.7266C101.693 42.4076 101.084 41.9551 100.576 41.3691C100.075 40.7767 99.6908 40.0671 99.4238 39.2402C99.1569 38.4069 99.0234 37.4727 99.0234 36.4375V35.3535C99.0234 34.3184 99.1602 33.3841 99.4336 32.5508C99.707 31.7174 100.098 31.0078 100.605 30.4219C101.12 29.8294 101.735 29.3737 102.451 29.0547C103.174 28.7357 103.981 28.5762 104.873 28.5762C106.032 28.5762 107.012 28.791 107.812 29.2207C108.613 29.6439 109.235 30.2266 109.678 30.9688C110.12 31.7109 110.387 32.5638 110.479 33.5273H107.793C107.741 32.9284 107.611 32.4206 107.402 32.0039C107.201 31.5872 106.895 31.2715 106.484 31.0566C106.081 30.8353 105.544 30.7246 104.873 30.7246C104.352 30.7246 103.893 30.8223 103.496 31.0176C103.105 31.2129 102.78 31.5059 102.52 31.8965C102.259 32.2806 102.064 32.7624 101.934 33.3418C101.803 33.9147 101.738 34.5788 101.738 35.334V36.4375C101.738 37.1602 101.797 37.8079 101.914 38.3809C102.031 38.9538 102.214 39.4388 102.461 39.8359C102.708 40.2331 103.027 40.5358 103.418 40.7441C103.809 40.9525 104.274 41.0566 104.814 41.0566C105.472 41.0566 106.006 40.9525 106.416 40.7441C106.833 40.5358 107.148 40.2298 107.363 39.8262C107.585 39.4225 107.725 38.9212 107.783 38.3223ZM114.883 28V43H112.295V28H114.883ZM114.473 37.3359H113.711C113.711 36.6003 113.809 35.9232 114.004 35.3047C114.199 34.6862 114.476 34.1491 114.834 33.6934C115.192 33.2311 115.618 32.873 116.113 32.6191C116.615 32.3652 117.168 32.2383 117.773 32.2383C118.294 32.2383 118.766 32.3132 119.189 32.4629C119.619 32.6061 119.987 32.8372 120.293 33.1562C120.599 33.4753 120.833 33.8919 120.996 34.4062C121.165 34.9141 121.25 35.5326 121.25 36.2617V43H118.652V36.2422C118.652 35.7539 118.581 35.3698 118.438 35.0898C118.294 34.8034 118.089 34.5983 117.822 34.4746C117.562 34.3509 117.24 34.2891 116.855 34.2891C116.439 34.2891 116.081 34.3704 115.781 34.5332C115.482 34.6895 115.234 34.9076 115.039 35.1875C114.85 35.4674 114.707 35.7897 114.609 36.1543C114.518 36.5189 114.473 36.9128 114.473 37.3359ZM129.346 40.7539V35.8809C129.346 35.5228 129.284 35.2135 129.16 34.9531C129.036 34.6927 128.848 34.4909 128.594 34.3477C128.34 34.2044 128.018 34.1328 127.627 34.1328C127.282 34.1328 126.979 34.1914 126.719 34.3086C126.465 34.4258 126.27 34.5918 126.133 34.8066C125.996 35.015 125.928 35.2559 125.928 35.5293H123.34C123.34 35.0931 123.444 34.6797 123.652 34.2891C123.861 33.8919 124.157 33.5404 124.541 33.2344C124.932 32.9219 125.397 32.6777 125.938 32.502C126.484 32.3262 127.096 32.2383 127.773 32.2383C128.574 32.2383 129.287 32.375 129.912 32.6484C130.544 32.9154 131.038 33.319 131.396 33.8594C131.761 34.3997 131.943 35.0801 131.943 35.9004V40.5098C131.943 41.0371 131.976 41.4896 132.041 41.8672C132.113 42.2383 132.217 42.5605 132.354 42.834V43H129.727C129.603 42.7331 129.508 42.3945 129.443 41.9844C129.378 41.5677 129.346 41.1576 129.346 40.7539ZM129.707 36.5645L129.727 38.0977H128.096C127.692 38.0977 127.337 38.14 127.031 38.2246C126.725 38.3027 126.475 38.4199 126.279 38.5762C126.084 38.7259 125.938 38.9082 125.84 39.123C125.742 39.3314 125.693 39.569 125.693 39.8359C125.693 40.0964 125.752 40.3307 125.869 40.5391C125.993 40.7474 126.169 40.9134 126.396 41.0371C126.631 41.1543 126.904 41.2129 127.217 41.2129C127.673 41.2129 128.07 41.1217 128.408 40.9395C128.747 40.7507 129.01 40.5228 129.199 40.2559C129.388 39.9889 129.489 39.735 129.502 39.4941L130.244 40.6074C130.153 40.8743 130.016 41.1576 129.834 41.457C129.652 41.7565 129.417 42.0365 129.131 42.2969C128.844 42.5573 128.499 42.7721 128.096 42.9414C127.692 43.1107 127.223 43.1953 126.689 43.1953C126.006 43.1953 125.394 43.0586 124.854 42.7852C124.313 42.5117 123.887 42.1374 123.574 41.6621C123.262 41.1868 123.105 40.6465 123.105 40.041C123.105 39.4811 123.21 38.9863 123.418 38.5566C123.626 38.127 123.936 37.7656 124.346 37.4727C124.756 37.1732 125.264 36.9486 125.869 36.7988C126.481 36.6426 127.181 36.5645 127.969 36.5645H129.707ZM140.078 40.1094C140.078 39.888 140.02 39.6895 139.902 39.5137C139.785 39.3379 139.564 39.1784 139.238 39.0352C138.919 38.8854 138.451 38.7454 137.832 38.6152C137.285 38.498 136.781 38.3516 136.318 38.1758C135.856 38 135.459 37.7884 135.127 37.541C134.795 37.2871 134.535 36.9909 134.346 36.6523C134.163 36.3073 134.072 35.9102 134.072 35.4609C134.072 35.0247 134.167 34.6146 134.355 34.2305C134.544 33.8398 134.818 33.498 135.176 33.2051C135.534 32.9056 135.97 32.6712 136.484 32.502C136.999 32.3262 137.578 32.2383 138.223 32.2383C139.121 32.2383 139.893 32.3848 140.537 32.6777C141.188 32.9707 141.686 33.3743 142.031 33.8887C142.376 34.3965 142.549 34.9694 142.549 35.6074H139.971C139.971 35.3275 139.906 35.0736 139.775 34.8457C139.652 34.6178 139.46 34.4355 139.199 34.2988C138.939 34.1556 138.61 34.084 138.213 34.084C137.855 34.084 137.552 34.1426 137.305 34.2598C137.064 34.377 136.882 34.5299 136.758 34.7188C136.634 34.9076 136.572 35.1159 136.572 35.3438C136.572 35.513 136.605 35.666 136.67 35.8027C136.742 35.9329 136.855 36.0534 137.012 36.1641C137.168 36.2747 137.38 36.3757 137.646 36.4668C137.92 36.5579 138.255 36.6458 138.652 36.7305C139.44 36.8867 140.127 37.0951 140.713 37.3555C141.305 37.6094 141.768 37.9479 142.1 38.3711C142.432 38.7943 142.598 39.3346 142.598 39.9922C142.598 40.4609 142.497 40.8906 142.295 41.2812C142.093 41.6654 141.8 42.0007 141.416 42.2871C141.032 42.5736 140.573 42.7982 140.039 42.9609C139.505 43.1172 138.903 43.1953 138.232 43.1953C137.262 43.1953 136.442 43.0228 135.771 42.6777C135.101 42.3262 134.593 41.8835 134.248 41.3496C133.903 40.8092 133.73 40.2493 133.73 39.6699H136.201C136.221 40.0801 136.331 40.4089 136.533 40.6562C136.735 40.9036 136.989 41.0827 137.295 41.1934C137.607 41.2975 137.936 41.3496 138.281 41.3496C138.672 41.3496 139.001 41.2975 139.268 41.1934C139.535 41.0827 139.736 40.9362 139.873 40.7539C140.01 40.5651 140.078 40.3503 140.078 40.1094ZM149.307 43.1953C148.506 43.1953 147.786 43.0651 147.148 42.8047C146.51 42.5443 145.967 42.1829 145.518 41.7207C145.075 41.252 144.733 40.7083 144.492 40.0898C144.258 39.4648 144.141 38.7943 144.141 38.0781V37.6875C144.141 36.8737 144.258 36.1348 144.492 35.4707C144.727 34.8001 145.059 34.224 145.488 33.7422C145.918 33.2604 146.432 32.8893 147.031 32.6289C147.63 32.3685 148.291 32.2383 149.014 32.2383C149.762 32.2383 150.423 32.3652 150.996 32.6191C151.569 32.8665 152.048 33.2181 152.432 33.6738C152.816 34.1296 153.105 34.6764 153.301 35.3145C153.496 35.946 153.594 36.6458 153.594 37.4141V38.498H145.312V36.7207H151.055V36.5254C151.042 36.1152 150.964 35.7409 150.82 35.4023C150.677 35.0573 150.456 34.7839 150.156 34.582C149.857 34.3737 149.469 34.2695 148.994 34.2695C148.61 34.2695 148.275 34.3542 147.988 34.5234C147.708 34.6862 147.474 34.9206 147.285 35.2266C147.103 35.526 146.966 35.8841 146.875 36.3008C146.784 36.7174 146.738 37.1797 146.738 37.6875V38.0781C146.738 38.5208 146.797 38.931 146.914 39.3086C147.038 39.6862 147.217 40.015 147.451 40.2949C147.692 40.5684 147.979 40.7832 148.311 40.9395C148.649 41.0892 149.033 41.1641 149.463 41.1641C150.003 41.1641 150.492 41.0599 150.928 40.8516C151.37 40.6367 151.755 40.321 152.08 39.9043L153.379 41.252C153.158 41.5775 152.858 41.89 152.48 42.1895C152.109 42.4889 151.66 42.7331 151.133 42.9219C150.605 43.1042 149.997 43.1953 149.307 43.1953ZM163.037 32.4336V43H160.449V32.4336H163.037ZM160.273 29.6699C160.273 29.2858 160.404 28.9668 160.664 28.7129C160.931 28.459 161.289 28.332 161.738 28.332C162.188 28.332 162.542 28.459 162.803 28.7129C163.07 28.9668 163.203 29.2858 163.203 29.6699C163.203 30.0475 163.07 30.3633 162.803 30.6172C162.542 30.8711 162.188 30.998 161.738 30.998C161.289 30.998 160.931 30.8711 160.664 30.6172C160.404 30.3633 160.273 30.0475 160.273 29.6699ZM168.027 34.6895V43H165.449V32.4336H167.871L168.027 34.6895ZM167.617 37.3359H166.855C166.862 36.5677 166.966 35.8711 167.168 35.2461C167.37 34.6211 167.653 34.084 168.018 33.6348C168.389 33.1855 168.828 32.8405 169.336 32.5996C169.844 32.3587 170.41 32.2383 171.035 32.2383C171.543 32.2383 172.002 32.3099 172.412 32.4531C172.822 32.5964 173.174 32.8242 173.467 33.1367C173.766 33.4492 173.994 33.8594 174.15 34.3672C174.313 34.8685 174.395 35.487 174.395 36.2227V43H171.797V36.2031C171.797 35.7214 171.725 35.3405 171.582 35.0605C171.445 34.7806 171.243 34.582 170.977 34.4648C170.716 34.3477 170.394 34.2891 170.01 34.2891C169.613 34.2891 169.264 34.3704 168.965 34.5332C168.672 34.6895 168.424 34.9076 168.223 35.1875C168.027 35.4674 167.878 35.7897 167.773 36.1543C167.669 36.5189 167.617 36.9128 167.617 37.3359ZM6.82617 61.8145H3.16406V59.7051H6.82617C7.42513 59.7051 7.91016 59.6074 8.28125 59.4121C8.65885 59.2103 8.93555 58.9368 9.11133 58.5918C9.28711 58.2402 9.375 57.8398 9.375 57.3906C9.375 56.9544 9.28711 56.5475 9.11133 56.1699C8.93555 55.7923 8.65885 55.4863 8.28125 55.252C7.91016 55.0176 7.42513 54.9004 6.82617 54.9004H4.04297V67H1.35742V52.7812H6.82617C7.93294 52.7812 8.87695 52.9798 9.6582 53.377C10.446 53.7676 11.0449 54.3112 11.4551 55.0078C11.8717 55.6979 12.0801 56.4857 12.0801 57.3711C12.0801 58.2891 11.8717 59.0801 11.4551 59.7441C11.0449 60.4082 10.446 60.9193 9.6582 61.2773C8.87695 61.6354 7.93294 61.8145 6.82617 61.8145ZM19.6973 64.7539V59.8809C19.6973 59.5228 19.6354 59.2135 19.5117 58.9531C19.388 58.6927 19.1992 58.4909 18.9453 58.3477C18.6914 58.2044 18.3691 58.1328 17.9785 58.1328C17.6335 58.1328 17.3307 58.1914 17.0703 58.3086C16.8164 58.4258 16.6211 58.5918 16.4844 58.8066C16.3477 59.015 16.2793 59.2559 16.2793 59.5293H13.6914C13.6914 59.0931 13.7956 58.6797 14.0039 58.2891C14.2122 57.8919 14.5085 57.5404 14.8926 57.2344C15.2832 56.9219 15.7487 56.6777 16.2891 56.502C16.8359 56.3262 17.4479 56.2383 18.125 56.2383C18.9258 56.2383 19.6387 56.375 20.2637 56.6484C20.8952 56.9154 21.39 57.319 21.748 57.8594C22.1126 58.3997 22.2949 59.0801 22.2949 59.9004V64.5098C22.2949 65.0371 22.3275 65.4896 22.3926 65.8672C22.4642 66.2383 22.5684 66.5605 22.7051 66.834V67H20.0781C19.9544 66.7331 19.86 66.3945 19.7949 65.9844C19.7298 65.5677 19.6973 65.1576 19.6973 64.7539ZM20.0586 60.5645L20.0781 62.0977H18.4473C18.0436 62.0977 17.6888 62.14 17.3828 62.2246C17.0768 62.3027 16.8262 62.4199 16.6309 62.5762C16.4355 62.7259 16.2891 62.9082 16.1914 63.123C16.0938 63.3314 16.0449 63.569 16.0449 63.8359C16.0449 64.0964 16.1035 64.3307 16.2207 64.5391C16.3444 64.7474 16.5202 64.9134 16.748 65.0371C16.9824 65.1543 17.2559 65.2129 17.5684 65.2129C18.0241 65.2129 18.4212 65.1217 18.7598 64.9395C19.0983 64.7507 19.362 64.5228 19.5508 64.2559C19.7396 63.9889 19.8405 63.735 19.8535 63.4941L20.5957 64.6074C20.5046 64.8743 20.3678 65.1576 20.1855 65.457C20.0033 65.7565 19.7689 66.0365 19.4824 66.2969C19.196 66.5573 18.8509 66.7721 18.4473 66.9414C18.0436 67.1107 17.5749 67.1953 17.041 67.1953C16.3574 67.1953 15.7454 67.0586 15.2051 66.7852C14.6647 66.5117 14.2383 66.1374 13.9258 65.6621C13.6133 65.1868 13.457 64.6465 13.457 64.041C13.457 63.4811 13.5612 62.9863 13.7695 62.5566C13.9779 62.127 14.2871 61.7656 14.6973 61.4727C15.1074 61.1732 15.6152 60.9486 16.2207 60.7988C16.8327 60.6426 17.5326 60.5645 18.3203 60.5645H20.0586ZM27.3535 52V67H24.7656V52H27.3535ZM29.3555 61.8242V61.6191C29.3555 60.8444 29.4661 60.1315 29.6875 59.4805C29.9089 58.8229 30.2311 58.2533 30.6543 57.7715C31.0775 57.2897 31.5951 56.9154 32.207 56.6484C32.819 56.375 33.5156 56.2383 34.2969 56.2383C35.0911 56.2383 35.7943 56.375 36.4062 56.6484C37.0247 56.9154 37.5456 57.2897 37.9688 57.7715C38.3919 58.2533 38.7142 58.8229 38.9355 59.4805C39.1569 60.1315 39.2676 60.8444 39.2676 61.6191V61.8242C39.2676 62.5924 39.1569 63.3053 38.9355 63.9629C38.7142 64.6139 38.3919 65.1836 37.9688 65.6719C37.5456 66.1536 37.028 66.528 36.416 66.7949C35.804 67.0618 35.1042 67.1953 34.3164 67.1953C33.5352 67.1953 32.8353 67.0618 32.2168 66.7949C31.5983 66.528 31.0775 66.1536 30.6543 65.6719C30.2311 65.1836 29.9089 64.6139 29.6875 63.9629C29.4661 63.3053 29.3555 62.5924 29.3555 61.8242ZM31.9336 61.6191V61.8242C31.9336 62.2865 31.9792 62.7194 32.0703 63.123C32.1615 63.5267 32.3014 63.8815 32.4902 64.1875C32.679 64.4935 32.9232 64.7344 33.2227 64.9102C33.5286 65.0794 33.8932 65.1641 34.3164 65.1641C34.7331 65.1641 35.0911 65.0794 35.3906 64.9102C35.6901 64.7344 35.9342 64.4935 36.123 64.1875C36.3184 63.8815 36.4616 63.5267 36.5527 63.123C36.6439 62.7194 36.6895 62.2865 36.6895 61.8242V61.6191C36.6895 61.1634 36.6439 60.737 36.5527 60.3398C36.4616 59.9362 36.3184 59.5814 36.123 59.2754C35.9342 58.9629 35.6868 58.7188 35.3809 58.543C35.0814 58.3607 34.7201 58.2695 34.2969 58.2695C33.8802 58.2695 33.5221 58.3607 33.2227 58.543C32.9232 58.7188 32.679 58.9629 32.4902 59.2754C32.3014 59.5814 32.1615 59.9362 32.0703 60.3398C31.9792 60.737 31.9336 61.1634 31.9336 61.6191ZM51.9727 54.9395L47.9199 67H45.0781L50.3906 52.7812H52.207L51.9727 54.9395ZM55.3613 67L51.2891 54.9395L51.0449 52.7812H52.8711L58.2129 67H55.3613ZM55.1758 61.7168V63.8359H47.5488V61.7168H55.1758ZM62.2168 52V67H59.6289V52H62.2168ZM69.6777 56.4336V58.2891H63.623V56.4336H69.6777ZM65.2441 53.8359H67.832V63.9531C67.832 64.2656 67.8743 64.5065 67.959 64.6758C68.0436 64.8451 68.1706 64.959 68.3398 65.0176C68.5091 65.0762 68.7109 65.1055 68.9453 65.1055C69.1146 65.1055 69.2708 65.0957 69.4141 65.0762C69.5573 65.0566 69.6777 65.0371 69.7754 65.0176L69.7852 66.9512C69.5703 67.0228 69.3262 67.0814 69.0527 67.127C68.7858 67.1725 68.4831 67.1953 68.1445 67.1953C67.5651 67.1953 67.0573 67.0977 66.6211 66.9023C66.1849 66.7005 65.8464 66.3783 65.6055 65.9355C65.3646 65.4863 65.2441 64.8939 65.2441 64.1582V53.8359ZM70.6836 61.8242V61.6191C70.6836 60.8444 70.7943 60.1315 71.0156 59.4805C71.237 58.8229 71.5592 58.2533 71.9824 57.7715C72.4056 57.2897 72.9232 56.9154 73.5352 56.6484C74.1471 56.375 74.8438 56.2383 75.625 56.2383C76.4193 56.2383 77.1224 56.375 77.7344 56.6484C78.3529 56.9154 78.8737 57.2897 79.2969 57.7715C79.7201 58.2533 80.0423 58.8229 80.2637 59.4805C80.485 60.1315 80.5957 60.8444 80.5957 61.6191V61.8242C80.5957 62.5924 80.485 63.3053 80.2637 63.9629C80.0423 64.6139 79.7201 65.1836 79.2969 65.6719C78.8737 66.1536 78.3561 66.528 77.7441 66.7949C77.1322 67.0618 76.4323 67.1953 75.6445 67.1953C74.8633 67.1953 74.1634 67.0618 73.5449 66.7949C72.9264 66.528 72.4056 66.1536 71.9824 65.6719C71.5592 65.1836 71.237 64.6139 71.0156 63.9629C70.7943 63.3053 70.6836 62.5924 70.6836 61.8242ZM73.2617 61.6191V61.8242C73.2617 62.2865 73.3073 62.7194 73.3984 63.123C73.4896 63.5267 73.6296 63.8815 73.8184 64.1875C74.0072 64.4935 74.2513 64.7344 74.5508 64.9102C74.8568 65.0794 75.2214 65.1641 75.6445 65.1641C76.0612 65.1641 76.4193 65.0794 76.7188 64.9102C77.0182 64.7344 77.2624 64.4935 77.4512 64.1875C77.6465 63.8815 77.7897 63.5267 77.8809 63.123C77.972 62.7194 78.0176 62.2865 78.0176 61.8242V61.6191C78.0176 61.1634 77.972 60.737 77.8809 60.3398C77.7897 59.9362 77.6465 59.5814 77.4512 59.2754C77.2624 58.9629 77.015 58.7188 76.709 58.543C76.4095 58.3607 76.0482 58.2695 75.625 58.2695C75.2083 58.2695 74.8503 58.3607 74.5508 58.543C74.2513 58.7188 74.0072 58.9629 73.8184 59.2754C73.6296 59.5814 73.4896 59.9362 73.3984 60.3398C73.3073 60.737 73.2617 61.1634 73.2617 61.6191Z" fill="#212121"/>
</g>
<path d="M4.74414 100.502H2.20801L2.19434 99.251H4.40918C4.78288 99.251 5.09961 99.1963 5.35938 99.0869C5.6237 98.973 5.82422 98.8112 5.96094 98.6016C6.09766 98.3874 6.16602 98.1299 6.16602 97.8291C6.16602 97.4964 6.10221 97.2253 5.97461 97.0156C5.84701 96.806 5.65104 96.6533 5.38672 96.5576C5.12695 96.4619 4.79427 96.4141 4.38867 96.4141H2.72754V105H1.01172V95.0469H4.38867C4.93555 95.0469 5.42318 95.0993 5.85156 95.2041C6.28451 95.3089 6.65137 95.473 6.95215 95.6963C7.25749 95.915 7.48763 96.193 7.64258 96.5303C7.80208 96.8675 7.88184 97.2686 7.88184 97.7334C7.88184 98.1436 7.78385 98.5195 7.58789 98.8613C7.39193 99.1986 7.10254 99.4743 6.71973 99.6885C6.33691 99.9027 5.86068 100.03 5.29102 100.071L4.74414 100.502ZM4.66895 105H1.66797L2.44043 103.64H4.66895C5.05632 103.64 5.37988 103.576 5.63965 103.448C5.89941 103.316 6.0931 103.136 6.2207 102.908C6.35286 102.676 6.41895 102.405 6.41895 102.095C6.41895 101.771 6.36198 101.491 6.24805 101.254C6.13411 101.012 5.9541 100.828 5.70801 100.7C5.46191 100.568 5.14062 100.502 4.74414 100.502H2.81641L2.83008 99.251H5.33887L5.72852 99.7227C6.27539 99.7409 6.72428 99.8617 7.0752 100.085C7.43066 100.308 7.69499 100.598 7.86816 100.953C8.04134 101.309 8.12793 101.691 8.12793 102.102C8.12793 102.735 7.98893 103.266 7.71094 103.694C7.4375 104.123 7.04329 104.449 6.52832 104.672C6.01335 104.891 5.39355 105 4.66895 105ZM14.1436 103.257V97.6035H15.7979V105H14.2393L14.1436 103.257ZM14.376 101.719L14.9297 101.705C14.9297 102.202 14.875 102.66 14.7656 103.079C14.6562 103.494 14.4876 103.856 14.2598 104.166C14.0319 104.471 13.7402 104.711 13.3848 104.884C13.0293 105.052 12.6032 105.137 12.1064 105.137C11.7464 105.137 11.416 105.084 11.1152 104.979C10.8145 104.875 10.5547 104.713 10.3359 104.494C10.1217 104.275 9.9554 103.991 9.83691 103.64C9.71842 103.289 9.65918 102.869 9.65918 102.382V97.6035H11.3066V102.396C11.3066 102.664 11.3385 102.89 11.4023 103.072C11.4661 103.25 11.5527 103.394 11.6621 103.503C11.7715 103.612 11.8991 103.69 12.0449 103.735C12.1908 103.781 12.3457 103.804 12.5098 103.804C12.9792 103.804 13.3483 103.713 13.6172 103.53C13.8906 103.343 14.0843 103.093 14.1982 102.778C14.3167 102.464 14.376 102.111 14.376 101.719ZM21.6357 102.997C21.6357 102.833 21.5947 102.685 21.5127 102.553C21.4307 102.416 21.2734 102.293 21.041 102.184C20.8132 102.074 20.4759 101.974 20.0293 101.883C19.6374 101.796 19.2773 101.694 18.9492 101.575C18.6257 101.452 18.3477 101.304 18.1152 101.131C17.8828 100.958 17.7028 100.753 17.5752 100.516C17.4476 100.279 17.3838 100.005 17.3838 99.6953C17.3838 99.3945 17.4499 99.1097 17.582 98.8408C17.7142 98.5719 17.9033 98.335 18.1494 98.1299C18.3955 97.9248 18.694 97.763 19.0449 97.6445C19.4004 97.526 19.7969 97.4668 20.2344 97.4668C20.8542 97.4668 21.3851 97.5716 21.8271 97.7812C22.2738 97.9863 22.6156 98.2666 22.8525 98.6221C23.0895 98.973 23.208 99.3695 23.208 99.8115H21.5605C21.5605 99.6156 21.5104 99.4333 21.4102 99.2646C21.3145 99.0915 21.1686 98.9525 20.9727 98.8477C20.7767 98.7383 20.5306 98.6836 20.2344 98.6836C19.9518 98.6836 19.7171 98.7292 19.5303 98.8203C19.348 98.9069 19.2113 99.0208 19.1201 99.1621C19.0335 99.3034 18.9902 99.4583 18.9902 99.627C18.9902 99.75 19.013 99.8617 19.0586 99.9619C19.1087 100.058 19.1908 100.146 19.3047 100.229C19.4186 100.306 19.5736 100.379 19.7695 100.447C19.9701 100.516 20.2207 100.582 20.5215 100.646C21.0866 100.764 21.5719 100.917 21.9775 101.104C22.3877 101.286 22.7021 101.523 22.9209 101.814C23.1396 102.102 23.249 102.466 23.249 102.908C23.249 103.236 23.1784 103.537 23.0371 103.811C22.9004 104.079 22.6999 104.314 22.4355 104.515C22.1712 104.711 21.8545 104.863 21.4854 104.973C21.1208 105.082 20.7106 105.137 20.2549 105.137C19.585 105.137 19.0176 105.018 18.5527 104.781C18.0879 104.54 17.7347 104.232 17.4932 103.858C17.2562 103.48 17.1377 103.088 17.1377 102.683H18.7305C18.7487 102.988 18.833 103.232 18.9834 103.414C19.1383 103.592 19.3298 103.722 19.5576 103.804C19.79 103.881 20.0293 103.92 20.2754 103.92C20.5716 103.92 20.82 103.881 21.0205 103.804C21.221 103.722 21.3737 103.612 21.4785 103.476C21.5833 103.334 21.6357 103.175 21.6357 102.997ZM26.4551 97.6035V105H24.8008V97.6035H26.4551ZM24.6914 95.6621C24.6914 95.4115 24.7734 95.2041 24.9375 95.04C25.1061 94.8714 25.3385 94.7871 25.6348 94.7871C25.9264 94.7871 26.1566 94.8714 26.3252 95.04C26.4938 95.2041 26.5781 95.4115 26.5781 95.6621C26.5781 95.9082 26.4938 96.1133 26.3252 96.2773C26.1566 96.4414 25.9264 96.5234 25.6348 96.5234C25.3385 96.5234 25.1061 96.4414 24.9375 96.2773C24.7734 96.1133 24.6914 95.9082 24.6914 95.6621ZM29.8936 99.1826V105H28.2461V97.6035H29.7979L29.8936 99.1826ZM29.5996 101.028L29.0664 101.021C29.071 100.497 29.1439 100.017 29.2852 99.5791C29.431 99.1416 29.6315 98.7656 29.8867 98.4512C30.1465 98.1367 30.4564 97.8952 30.8164 97.7266C31.1764 97.5534 31.5775 97.4668 32.0195 97.4668C32.375 97.4668 32.6963 97.5169 32.9834 97.6172C33.2751 97.7129 33.5234 97.8701 33.7285 98.0889C33.9382 98.3076 34.0977 98.5924 34.207 98.9434C34.3164 99.2897 34.3711 99.7158 34.3711 100.222V105H32.7168V100.215C32.7168 99.8594 32.6644 99.5791 32.5596 99.374C32.4593 99.1644 32.3112 99.0163 32.1152 98.9297C31.9238 98.8385 31.6846 98.793 31.3975 98.793C31.1149 98.793 30.862 98.8522 30.6387 98.9707C30.4154 99.0892 30.2262 99.251 30.0713 99.4561C29.9209 99.6611 29.8047 99.8981 29.7227 100.167C29.6406 100.436 29.5996 100.723 29.5996 101.028ZM39.3135 105.137C38.7666 105.137 38.2721 105.048 37.8301 104.87C37.3926 104.688 37.0189 104.435 36.709 104.111C36.4036 103.788 36.1689 103.407 36.0049 102.97C35.8408 102.532 35.7588 102.061 35.7588 101.555V101.281C35.7588 100.702 35.8431 100.178 36.0117 99.709C36.1803 99.2396 36.415 98.8385 36.7158 98.5059C37.0166 98.1686 37.3721 97.9111 37.7822 97.7334C38.1924 97.5557 38.6367 97.4668 39.1152 97.4668C39.6439 97.4668 40.1064 97.5557 40.5029 97.7334C40.8994 97.9111 41.2275 98.1618 41.4873 98.4854C41.7516 98.8044 41.9476 99.1849 42.0752 99.627C42.2074 100.069 42.2734 100.557 42.2734 101.09V101.794H36.5586V100.611H40.6465V100.481C40.6374 100.185 40.5781 99.9072 40.4688 99.6475C40.3639 99.3877 40.2021 99.1781 39.9834 99.0186C39.7646 98.859 39.473 98.7793 39.1084 98.7793C38.835 98.7793 38.5911 98.8385 38.377 98.957C38.1673 99.071 37.9919 99.2373 37.8506 99.4561C37.7093 99.6748 37.5999 99.9391 37.5225 100.249C37.4495 100.554 37.4131 100.898 37.4131 101.281V101.555C37.4131 101.878 37.4564 102.179 37.543 102.457C37.6341 102.73 37.7663 102.97 37.9395 103.175C38.1126 103.38 38.3223 103.542 38.5684 103.66C38.8145 103.774 39.0947 103.831 39.4092 103.831C39.8057 103.831 40.1589 103.751 40.4688 103.592C40.7786 103.432 41.0475 103.207 41.2754 102.915L42.1436 103.756C41.984 103.988 41.7767 104.212 41.5215 104.426C41.2663 104.635 40.9541 104.806 40.585 104.938C40.2204 105.071 39.7965 105.137 39.3135 105.137ZM47.708 102.997C47.708 102.833 47.667 102.685 47.585 102.553C47.5029 102.416 47.3457 102.293 47.1133 102.184C46.8854 102.074 46.5482 101.974 46.1016 101.883C45.7096 101.796 45.3496 101.694 45.0215 101.575C44.6979 101.452 44.4199 101.304 44.1875 101.131C43.9551 100.958 43.7751 100.753 43.6475 100.516C43.5199 100.279 43.4561 100.005 43.4561 99.6953C43.4561 99.3945 43.5221 99.1097 43.6543 98.8408C43.7865 98.5719 43.9756 98.335 44.2217 98.1299C44.4678 97.9248 44.7663 97.763 45.1172 97.6445C45.4727 97.526 45.8691 97.4668 46.3066 97.4668C46.9264 97.4668 47.4574 97.5716 47.8994 97.7812C48.346 97.9863 48.6878 98.2666 48.9248 98.6221C49.1618 98.973 49.2803 99.3695 49.2803 99.8115H47.6328C47.6328 99.6156 47.5827 99.4333 47.4824 99.2646C47.3867 99.0915 47.2409 98.9525 47.0449 98.8477C46.849 98.7383 46.6029 98.6836 46.3066 98.6836C46.0241 98.6836 45.7894 98.7292 45.6025 98.8203C45.4202 98.9069 45.2835 99.0208 45.1924 99.1621C45.1058 99.3034 45.0625 99.4583 45.0625 99.627C45.0625 99.75 45.0853 99.8617 45.1309 99.9619C45.181 100.058 45.263 100.146 45.377 100.229C45.4909 100.306 45.6458 100.379 45.8418 100.447C46.0423 100.516 46.293 100.582 46.5938 100.646C47.1589 100.764 47.6442 100.917 48.0498 101.104C48.46 101.286 48.7744 101.523 48.9932 101.814C49.2119 102.102 49.3213 102.466 49.3213 102.908C49.3213 103.236 49.2507 103.537 49.1094 103.811C48.9727 104.079 48.7721 104.314 48.5078 104.515C48.2435 104.711 47.9268 104.863 47.5576 104.973C47.193 105.082 46.7829 105.137 46.3271 105.137C45.6572 105.137 45.0898 105.018 44.625 104.781C44.1602 104.54 43.807 104.232 43.5654 103.858C43.3285 103.48 43.21 103.088 43.21 102.683H44.8027C44.821 102.988 44.9053 103.232 45.0557 103.414C45.2106 103.592 45.402 103.722 45.6299 103.804C45.8623 103.881 46.1016 103.92 46.3477 103.92C46.6439 103.92 46.8923 103.881 47.0928 103.804C47.2933 103.722 47.446 103.612 47.5508 103.476C47.6556 103.334 47.708 103.175 47.708 102.997ZM54.9131 102.997C54.9131 102.833 54.8721 102.685 54.79 102.553C54.708 102.416 54.5508 102.293 54.3184 102.184C54.0905 102.074 53.7533 101.974 53.3066 101.883C52.9147 101.796 52.5547 101.694 52.2266 101.575C51.903 101.452 51.625 101.304 51.3926 101.131C51.1602 100.958 50.9801 100.753 50.8525 100.516C50.7249 100.279 50.6611 100.005 50.6611 99.6953C50.6611 99.3945 50.7272 99.1097 50.8594 98.8408C50.9915 98.5719 51.1807 98.335 51.4268 98.1299C51.6729 97.9248 51.9714 97.763 52.3223 97.6445C52.6777 97.526 53.0742 97.4668 53.5117 97.4668C54.1315 97.4668 54.6624 97.5716 55.1045 97.7812C55.5511 97.9863 55.8929 98.2666 56.1299 98.6221C56.3669 98.973 56.4854 99.3695 56.4854 99.8115H54.8379C54.8379 99.6156 54.7878 99.4333 54.6875 99.2646C54.5918 99.0915 54.446 98.9525 54.25 98.8477C54.054 98.7383 53.8079 98.6836 53.5117 98.6836C53.2292 98.6836 52.9945 98.7292 52.8076 98.8203C52.6253 98.9069 52.4886 99.0208 52.3975 99.1621C52.3109 99.3034 52.2676 99.4583 52.2676 99.627C52.2676 99.75 52.2904 99.8617 52.3359 99.9619C52.3861 100.058 52.4681 100.146 52.582 100.229C52.696 100.306 52.8509 100.379 53.0469 100.447C53.2474 100.516 53.498 100.582 53.7988 100.646C54.3639 100.764 54.8493 100.917 55.2549 101.104C55.665 101.286 55.9795 101.523 56.1982 101.814C56.417 102.102 56.5264 102.466 56.5264 102.908C56.5264 103.236 56.4557 103.537 56.3145 103.811C56.1777 104.079 55.9772 104.314 55.7129 104.515C55.4486 104.711 55.1318 104.863 54.7627 104.973C54.3981 105.082 53.988 105.137 53.5322 105.137C52.8623 105.137 52.2949 105.018 51.8301 104.781C51.3652 104.54 51.012 104.232 50.7705 103.858C50.5335 103.48 50.415 103.088 50.415 102.683H52.0078C52.026 102.988 52.1104 103.232 52.2607 103.414C52.4157 103.592 52.6071 103.722 52.835 103.804C53.0674 103.881 53.3066 103.92 53.5527 103.92C53.849 103.92 54.0973 103.881 54.2979 103.804C54.4984 103.722 54.651 103.612 54.7559 103.476C54.8607 103.334 54.9131 103.175 54.9131 102.997ZM61.4893 101.069V100.953C61.4893 99.9779 61.5941 99.0938 61.8037 98.3008C62.0179 97.5033 62.2959 96.806 62.6377 96.209C62.9795 95.6074 63.3441 95.1107 63.7314 94.7188C64.1234 94.3223 64.4993 94.0374 64.8594 93.8643L65.1875 94.8076C64.9232 95.0036 64.6589 95.2747 64.3945 95.6211C64.1348 95.9674 63.8955 96.3936 63.6768 96.8994C63.4626 97.4007 63.2894 97.9886 63.1572 98.6631C63.0296 99.333 62.9658 100.092 62.9658 100.939V101.083C62.9658 101.931 63.0296 102.692 63.1572 103.366C63.2894 104.036 63.4626 104.624 63.6768 105.13C63.8955 105.636 64.1348 106.064 64.3945 106.415C64.6589 106.771 64.9232 107.053 65.1875 107.263L64.8594 108.165C64.4993 107.987 64.1234 107.7 63.7314 107.304C63.3441 106.912 62.9795 106.415 62.6377 105.813C62.2959 105.216 62.0179 104.521 61.8037 103.729C61.5941 102.931 61.4893 102.045 61.4893 101.069ZM72.8848 103.688V105H66.2129V103.872L69.4531 100.338C69.8086 99.9368 70.0889 99.5905 70.2939 99.2988C70.499 99.0072 70.6426 98.7451 70.7246 98.5127C70.8112 98.2757 70.8545 98.0456 70.8545 97.8223C70.8545 97.5078 70.7952 97.2321 70.6768 96.9951C70.5628 96.7536 70.3942 96.5645 70.1709 96.4277C69.9476 96.2865 69.6764 96.2158 69.3574 96.2158C68.9883 96.2158 68.6784 96.2956 68.4277 96.4551C68.1771 96.6146 67.988 96.8356 67.8604 97.1182C67.7327 97.3962 67.6689 97.7152 67.6689 98.0752H66.0215C66.0215 97.4964 66.1536 96.9678 66.418 96.4893C66.6823 96.0062 67.0651 95.6234 67.5664 95.3408C68.0677 95.0537 68.6715 94.9102 69.3779 94.9102C70.0433 94.9102 70.6084 95.0218 71.0732 95.2451C71.5381 95.4684 71.8913 95.7852 72.1328 96.1953C72.3789 96.6055 72.502 97.0908 72.502 97.6514C72.502 97.9613 72.4518 98.2689 72.3516 98.5742C72.2513 98.8796 72.1077 99.1849 71.9209 99.4902C71.7386 99.791 71.5221 100.094 71.2715 100.399C71.0208 100.7 70.7451 101.006 70.4443 101.315L68.291 103.688H72.8848ZM75.8994 100.372L74.5869 100.051L75.127 95.0469H80.4932V96.4414H76.4941L76.2207 98.8818C76.3757 98.7907 76.5898 98.7018 76.8633 98.6152C77.1367 98.5241 77.4489 98.4785 77.7998 98.4785C78.2692 98.4785 78.6885 98.556 79.0576 98.7109C79.4313 98.8613 79.748 99.0824 80.0078 99.374C80.2676 99.6611 80.4658 100.012 80.6025 100.427C80.7393 100.837 80.8076 101.299 80.8076 101.814C80.8076 102.275 80.7393 102.705 80.6025 103.106C80.4704 103.507 80.2699 103.861 80.001 104.166C79.7321 104.471 79.3926 104.711 78.9824 104.884C78.5768 105.052 78.096 105.137 77.54 105.137C77.1253 105.137 76.7266 105.077 76.3438 104.959C75.9655 104.836 75.626 104.656 75.3252 104.419C75.0244 104.177 74.7829 103.881 74.6006 103.53C74.4183 103.175 74.3135 102.767 74.2861 102.307H75.8994C75.9404 102.63 76.0293 102.906 76.166 103.134C76.3073 103.357 76.4941 103.528 76.7266 103.646C76.959 103.765 77.2279 103.824 77.5332 103.824C77.8112 103.824 78.0505 103.776 78.251 103.681C78.4515 103.58 78.6178 103.439 78.75 103.257C78.8867 103.07 78.987 102.851 79.0508 102.601C79.1191 102.35 79.1533 102.072 79.1533 101.767C79.1533 101.475 79.1146 101.208 79.0371 100.967C78.9642 100.725 78.8525 100.516 78.7021 100.338C78.5563 100.16 78.3717 100.023 78.1484 99.9277C77.9251 99.8275 77.6676 99.7773 77.376 99.7773C76.984 99.7773 76.6833 99.8343 76.4736 99.9482C76.2686 100.062 76.0771 100.203 75.8994 100.372ZM87.3701 94.5V105H85.7158V94.5H87.3701ZM91.9639 97.6035L88.7441 101.172L86.9805 102.977L86.5498 101.582L87.8828 99.9346L89.9746 97.6035H91.9639ZM90.3301 105L87.9307 101.527L88.9697 100.372L92.2373 105H90.3301ZM94.6572 99.1074V105H93.0098V97.6035H94.5615L94.6572 99.1074ZM94.3906 101.028L93.8301 101.021C93.8301 100.511 93.8939 100.039 94.0215 99.6064C94.1491 99.1735 94.3359 98.7975 94.582 98.4785C94.8281 98.1549 95.1335 97.9066 95.498 97.7334C95.8672 97.5557 96.2933 97.4668 96.7764 97.4668C97.1136 97.4668 97.4212 97.5169 97.6992 97.6172C97.9818 97.7129 98.2256 97.8656 98.4307 98.0752C98.6403 98.2848 98.7998 98.5537 98.9092 98.8818C99.0231 99.21 99.0801 99.6064 99.0801 100.071V105H97.4326V100.215C97.4326 99.8548 97.3779 99.5723 97.2686 99.3672C97.1637 99.1621 97.0111 99.0163 96.8105 98.9297C96.6146 98.8385 96.3799 98.793 96.1064 98.793C95.7965 98.793 95.5322 98.8522 95.3135 98.9707C95.0993 99.0892 94.9238 99.251 94.7871 99.4561C94.6504 99.6611 94.5501 99.8981 94.4863 100.167C94.4225 100.436 94.3906 100.723 94.3906 101.028ZM98.9775 100.591L98.2051 100.762C98.2051 100.315 98.2666 99.8936 98.3896 99.4971C98.5173 99.096 98.7018 98.7451 98.9434 98.4443C99.1895 98.139 99.4925 97.8997 99.8525 97.7266C100.213 97.5534 100.625 97.4668 101.09 97.4668C101.468 97.4668 101.805 97.5192 102.102 97.624C102.402 97.7243 102.658 97.8838 102.867 98.1025C103.077 98.3213 103.236 98.6061 103.346 98.957C103.455 99.3034 103.51 99.7227 103.51 100.215V105H101.855V100.208C101.855 99.8343 101.801 99.5449 101.691 99.3398C101.587 99.1348 101.436 98.9935 101.24 98.916C101.044 98.834 100.81 98.793 100.536 98.793C100.281 98.793 100.055 98.8408 99.8594 98.9365C99.668 99.0277 99.5062 99.1576 99.374 99.3262C99.2419 99.4902 99.1416 99.6794 99.0732 99.8936C99.0094 100.108 98.9775 100.34 98.9775 100.591ZM108.384 100.953V101.069C108.384 102.031 108.274 102.908 108.056 103.701C107.841 104.494 107.561 105.191 107.215 105.793C106.873 106.395 106.502 106.896 106.101 107.297C105.704 107.698 105.324 107.987 104.959 108.165L104.624 107.263C104.888 107.062 105.15 106.786 105.41 106.436C105.674 106.089 105.914 105.659 106.128 105.144C106.347 104.633 106.52 104.041 106.647 103.366C106.78 102.692 106.846 101.931 106.846 101.083V100.939C106.846 100.092 106.777 99.3307 106.641 98.6562C106.508 97.9772 106.331 97.3848 106.107 96.8789C105.884 96.3685 105.643 95.9378 105.383 95.5869C105.123 95.236 104.87 94.9626 104.624 94.7666L104.959 93.8643C105.324 94.0374 105.704 94.3245 106.101 94.7256C106.502 95.1266 106.873 95.6302 107.215 96.2363C107.561 96.8379 107.841 97.5352 108.056 98.3281C108.274 99.1211 108.384 99.9961 108.384 100.953Z" fill="#707070"/>
<path fill-rule="evenodd" clip-rule="evenodd" d="M15.8333 132.583H4.16667C3.93655 132.583 3.75 132.77 3.75 133V143.833C3.75 144.063 3.93655 144.25 4.16667 144.25H15.8333C16.0634 144.25 16.25 144.063 16.25 143.833V133C16.25 132.77 16.0634 132.583 15.8333 132.583ZM4.16667 131.333C3.24619 131.333 2.5 132.079 2.5 133V143.833C2.5 144.754 3.24619 145.5 4.16667 145.5H15.8333C16.7538 145.5 17.5 144.754 17.5 143.833V133C17.5 132.079 16.7538 131.333 15.8333 131.333H4.16667Z" fill="#707070"/>
<path d="M5 130.5C5 130.04 5.3731 129.667 5.83333 129.667C6.29357 129.667 6.66667 130.04 6.66667 130.5V131.334C6.66667 131.794 6.29357 132.167 5.83333 132.167C5.3731 132.167 5 131.794 5 131.334V130.5Z" fill="#707070"/>
<path d="M13.333 130.5C13.333 130.04 13.7061 129.667 14.1663 129.667C14.6266 129.667 14.9997 130.04 14.9997 130.5V131.334C14.9997 131.794 14.6266 132.167 14.1663 132.167C13.7061 132.167 13.333 131.794 13.333 131.334V130.5Z" fill="#707070"/>
<path fill-rule="evenodd" clip-rule="evenodd" d="M15 135.292C15 135.637 14.7202 135.917 14.375 135.917H5.625C5.27983 135.917 5 135.637 5 135.292C5 134.947 5.27983 134.667 5.625 134.667H14.375C14.7202 134.667 15 134.947 15 135.292Z" fill="#707070"/>
<path d="M30.833 133.047V143H29.5342V133.047H30.833ZM34.0322 133.047V134.127H26.3418V133.047H34.0322ZM40.8531 133.047H42.1656V139.78C42.1656 140.528 41.9993 141.15 41.6666 141.646C41.3339 142.143 40.8919 142.517 40.3404 142.768C39.7936 143.014 39.1988 143.137 38.5562 143.137C37.8818 143.137 37.2711 143.014 36.7242 142.768C36.1819 142.517 35.7512 142.143 35.4322 141.646C35.1178 141.15 34.9605 140.528 34.9605 139.78V133.047H36.2662V139.78C36.2662 140.3 36.3619 140.728 36.5533 141.065C36.7447 141.403 37.0113 141.653 37.3531 141.817C37.6995 141.981 38.1005 142.063 38.5562 142.063C39.0165 142.063 39.4176 141.981 39.7594 141.817C40.1057 141.653 40.3746 141.403 40.566 141.065C40.7574 140.728 40.8531 140.3 40.8531 139.78V133.047ZM50.2102 141.927V143H44.9396V141.927H50.2102ZM45.2062 133.047V143H43.8869V133.047H45.2062ZM49.5129 137.326V138.399H44.9396V137.326H49.5129ZM50.1418 133.047V134.127H44.9396V133.047H50.1418ZM52.451 141.496V142.515C52.451 142.929 52.3462 143.367 52.1365 143.827C51.9269 144.292 51.6329 144.679 51.2547 144.989L50.5369 144.49C50.6827 144.29 50.8058 144.085 50.9061 143.875C51.0063 143.67 51.0815 143.456 51.1316 143.232C51.1863 143.014 51.2137 142.781 51.2137 142.535V141.496H52.451ZM57.4453 133.047H58.7236L61.9844 141.161L65.2383 133.047H66.5234L62.4766 143H61.4785L57.4453 133.047ZM57.0283 133.047H58.1562L58.3408 139.117V143H57.0283V133.047ZM65.8057 133.047H66.9336V143H65.6211V139.117L65.8057 133.047ZM72.7086 133.929L69.4137 143H68.067L71.8609 133.047H72.7291L72.7086 133.929ZM75.4703 143L72.1686 133.929L72.148 133.047H73.0162L76.8238 143H75.4703ZM75.2994 139.315V140.396H69.7076V139.315H75.2994ZM77.8068 133.047H81.1018C81.8492 133.047 82.4803 133.161 82.9953 133.389C83.5148 133.617 83.909 133.954 84.1779 134.4C84.4514 134.842 84.5881 135.387 84.5881 136.034C84.5881 136.49 84.4947 136.907 84.3078 137.285C84.1255 137.659 83.8612 137.978 83.5148 138.242C83.173 138.502 82.7629 138.696 82.2844 138.823L81.9152 138.967H78.8186L78.8049 137.894H81.1428C81.6167 137.894 82.0109 137.812 82.3254 137.647C82.6398 137.479 82.8768 137.253 83.0363 136.971C83.1958 136.688 83.2756 136.376 83.2756 136.034C83.2756 135.651 83.2004 135.316 83.05 135.029C82.8996 134.742 82.6626 134.521 82.3391 134.366C82.0201 134.207 81.6076 134.127 81.1018 134.127H79.1262V143H77.8068V133.047ZM83.6242 143L81.2043 138.488L82.5783 138.481L85.0324 142.918V143H83.6242ZM93.0346 132.992V143H91.7699V134.571L89.2201 135.501V134.359L92.8363 132.992H93.0346ZM97.6611 141.94H97.791C98.5202 141.94 99.1126 141.838 99.5684 141.633C100.024 141.428 100.375 141.152 100.621 140.806C100.867 140.459 101.036 140.07 101.127 139.637C101.218 139.199 101.264 138.75 101.264 138.29V136.766C101.264 136.314 101.211 135.913 101.106 135.562C101.006 135.212 100.865 134.918 100.683 134.681C100.505 134.444 100.302 134.264 100.074 134.141C99.8464 134.018 99.6048 133.956 99.3496 133.956C99.0579 133.956 98.7959 134.015 98.5635 134.134C98.3356 134.248 98.1419 134.41 97.9824 134.619C97.8275 134.829 97.709 135.075 97.627 135.357C97.5449 135.64 97.5039 135.948 97.5039 136.28C97.5039 136.576 97.5404 136.864 97.6133 137.142C97.6862 137.42 97.7979 137.67 97.9482 137.894C98.0986 138.117 98.2855 138.295 98.5088 138.427C98.7367 138.554 99.0033 138.618 99.3086 138.618C99.5911 138.618 99.8555 138.563 100.102 138.454C100.352 138.34 100.573 138.188 100.765 137.996C100.961 137.8 101.116 137.579 101.229 137.333C101.348 137.087 101.416 136.829 101.435 136.561H102.036C102.036 136.939 101.961 137.312 101.811 137.682C101.665 138.046 101.46 138.379 101.195 138.68C100.931 138.98 100.621 139.222 100.266 139.404C99.9102 139.582 99.5228 139.671 99.1035 139.671C98.6113 139.671 98.1852 139.575 97.8252 139.384C97.4652 139.192 97.1689 138.937 96.9365 138.618C96.7087 138.299 96.5378 137.944 96.4238 137.552C96.3145 137.155 96.2598 136.754 96.2598 136.349C96.2598 135.875 96.3258 135.43 96.458 135.016C96.5902 134.601 96.7861 134.236 97.0459 133.922C97.3057 133.603 97.627 133.354 98.0098 133.177C98.3971 132.999 98.8438 132.91 99.3496 132.91C99.9193 132.91 100.405 133.024 100.806 133.252C101.207 133.48 101.533 133.785 101.783 134.168C102.038 134.551 102.225 134.981 102.344 135.46C102.462 135.938 102.521 136.431 102.521 136.937V137.395C102.521 137.91 102.487 138.434 102.419 138.967C102.355 139.495 102.23 140.001 102.043 140.484C101.861 140.967 101.594 141.4 101.243 141.783C100.892 142.161 100.434 142.462 99.8691 142.686C99.3086 142.904 98.6159 143.014 97.791 143.014H97.6611V141.94ZM107.236 138.017C107.236 137.802 107.302 137.622 107.434 137.477C107.566 137.326 107.76 137.251 108.015 137.251C108.27 137.251 108.464 137.326 108.596 137.477C108.733 137.622 108.801 137.802 108.801 138.017C108.801 138.226 108.733 138.404 108.596 138.55C108.464 138.691 108.27 138.762 108.015 138.762C107.76 138.762 107.566 138.691 107.434 138.55C107.302 138.404 107.236 138.226 107.236 138.017ZM115.087 138.263L114.076 138.003L114.575 133.047H119.681V134.216H115.648L115.347 136.923C115.529 136.818 115.76 136.72 116.037 136.629C116.32 136.538 116.644 136.492 117.008 136.492C117.468 136.492 117.881 136.572 118.246 136.731C118.61 136.886 118.92 137.11 119.175 137.401C119.435 137.693 119.633 138.044 119.77 138.454C119.907 138.864 119.975 139.322 119.975 139.828C119.975 140.307 119.909 140.746 119.777 141.147C119.649 141.549 119.455 141.899 119.196 142.2C118.936 142.496 118.608 142.727 118.211 142.891C117.819 143.055 117.357 143.137 116.824 143.137C116.423 143.137 116.042 143.082 115.682 142.973C115.327 142.859 115.008 142.688 114.725 142.46C114.447 142.228 114.219 141.94 114.041 141.599C113.868 141.252 113.759 140.847 113.713 140.382H114.916C114.971 140.756 115.08 141.07 115.245 141.325C115.409 141.58 115.623 141.774 115.887 141.906C116.156 142.034 116.468 142.098 116.824 142.098C117.124 142.098 117.391 142.045 117.623 141.94C117.856 141.836 118.052 141.685 118.211 141.489C118.371 141.293 118.492 141.056 118.574 140.778C118.66 140.5 118.704 140.188 118.704 139.842C118.704 139.527 118.66 139.236 118.574 138.967C118.487 138.698 118.357 138.463 118.184 138.263C118.015 138.062 117.808 137.907 117.562 137.798C117.316 137.684 117.033 137.627 116.714 137.627C116.29 137.627 115.969 137.684 115.75 137.798C115.536 137.912 115.315 138.067 115.087 138.263ZM121.095 142.33C121.095 142.116 121.161 141.936 121.293 141.79C121.43 141.64 121.626 141.564 121.881 141.564C122.136 141.564 122.33 141.64 122.462 141.79C122.599 141.936 122.667 142.116 122.667 142.33C122.667 142.54 122.599 142.717 122.462 142.863C122.33 143.009 122.136 143.082 121.881 143.082C121.626 143.082 121.43 143.009 121.293 142.863C121.161 142.717 121.095 142.54 121.095 142.33ZM121.102 136.294C121.102 136.08 121.168 135.9 121.3 135.754C121.437 135.604 121.632 135.528 121.888 135.528C122.143 135.528 122.337 135.604 122.469 135.754C122.605 135.9 122.674 136.08 122.674 136.294C122.674 136.504 122.605 136.681 122.469 136.827C122.337 136.973 122.143 137.046 121.888 137.046C121.632 137.046 121.437 136.973 121.3 136.827C121.168 136.681 121.102 136.504 121.102 136.294ZM130.301 137.23V138.748C130.301 139.564 130.228 140.252 130.083 140.812C129.937 141.373 129.727 141.824 129.454 142.166C129.18 142.508 128.85 142.756 128.463 142.911C128.08 143.062 127.647 143.137 127.164 143.137C126.781 143.137 126.428 143.089 126.104 142.993C125.781 142.897 125.489 142.745 125.229 142.535C124.974 142.321 124.755 142.043 124.573 141.701C124.391 141.359 124.252 140.945 124.156 140.457C124.06 139.969 124.012 139.4 124.012 138.748V137.23C124.012 136.415 124.085 135.731 124.231 135.18C124.381 134.628 124.593 134.186 124.867 133.854C125.14 133.516 125.468 133.275 125.851 133.129C126.239 132.983 126.671 132.91 127.15 132.91C127.537 132.91 127.893 132.958 128.216 133.054C128.545 133.145 128.836 133.293 129.091 133.498C129.347 133.699 129.563 133.967 129.741 134.305C129.923 134.637 130.062 135.045 130.158 135.528C130.254 136.011 130.301 136.579 130.301 137.23ZM129.03 138.953V137.019C129.03 136.572 129.003 136.18 128.948 135.843C128.898 135.501 128.823 135.209 128.722 134.968C128.622 134.726 128.494 134.53 128.339 134.38C128.189 134.229 128.014 134.12 127.813 134.052C127.617 133.979 127.396 133.942 127.15 133.942C126.849 133.942 126.583 133.999 126.35 134.113C126.118 134.223 125.922 134.398 125.762 134.64C125.607 134.881 125.489 135.198 125.407 135.59C125.325 135.982 125.284 136.458 125.284 137.019V138.953C125.284 139.4 125.309 139.794 125.359 140.136C125.414 140.478 125.493 140.774 125.598 141.024C125.703 141.271 125.831 141.473 125.981 141.633C126.131 141.792 126.305 141.911 126.501 141.988C126.701 142.061 126.922 142.098 127.164 142.098C127.474 142.098 127.745 142.038 127.977 141.92C128.21 141.801 128.403 141.617 128.558 141.366C128.718 141.111 128.836 140.785 128.914 140.389C128.991 139.988 129.03 139.509 129.03 138.953ZM137.826 137.23V138.748C137.826 139.564 137.753 140.252 137.608 140.812C137.462 141.373 137.252 141.824 136.979 142.166C136.705 142.508 136.375 142.756 135.988 142.911C135.605 143.062 135.172 143.137 134.689 143.137C134.306 143.137 133.953 143.089 133.629 142.993C133.306 142.897 133.014 142.745 132.754 142.535C132.499 142.321 132.28 142.043 132.098 141.701C131.916 141.359 131.777 140.945 131.681 140.457C131.585 139.969 131.537 139.4 131.537 138.748V137.23C131.537 136.415 131.61 135.731 131.756 135.18C131.906 134.628 132.118 134.186 132.392 133.854C132.665 133.516 132.993 133.275 133.376 133.129C133.764 132.983 134.196 132.91 134.675 132.91C135.062 132.91 135.418 132.958 135.741 133.054C136.07 133.145 136.361 133.293 136.616 133.498C136.872 133.699 137.088 133.967 137.266 134.305C137.448 134.637 137.587 135.045 137.683 135.528C137.779 136.011 137.826 136.579 137.826 137.23ZM136.555 138.953V137.019C136.555 136.572 136.528 136.18 136.473 135.843C136.423 135.501 136.348 135.209 136.247 134.968C136.147 134.726 136.019 134.53 135.864 134.38C135.714 134.229 135.539 134.12 135.338 134.052C135.142 133.979 134.921 133.942 134.675 133.942C134.374 133.942 134.108 133.999 133.875 134.113C133.643 134.223 133.447 134.398 133.287 134.64C133.132 134.881 133.014 135.198 132.932 135.59C132.85 135.982 132.809 136.458 132.809 137.019V138.953C132.809 139.4 132.834 139.794 132.884 140.136C132.939 140.478 133.018 140.774 133.123 141.024C133.228 141.271 133.356 141.473 133.506 141.633C133.656 141.792 133.83 141.911 134.026 141.988C134.226 142.061 134.447 142.098 134.689 142.098C134.999 142.098 135.27 142.038 135.502 141.92C135.735 141.801 135.928 141.617 136.083 141.366C136.243 141.111 136.361 140.785 136.439 140.389C136.516 139.988 136.555 139.509 136.555 138.953ZM146.225 139.097H143.566V138.023H146.225C146.74 138.023 147.157 137.941 147.476 137.777C147.795 137.613 148.027 137.385 148.173 137.094C148.324 136.802 148.399 136.469 148.399 136.096C148.399 135.754 148.324 135.433 148.173 135.132C148.027 134.831 147.795 134.59 147.476 134.407C147.157 134.22 146.74 134.127 146.225 134.127H143.873V143H142.554V133.047H146.225C146.977 133.047 147.613 133.177 148.132 133.437C148.652 133.696 149.046 134.056 149.315 134.517C149.584 134.972 149.718 135.494 149.718 136.082C149.718 136.72 149.584 137.265 149.315 137.716C149.046 138.167 148.652 138.511 148.132 138.748C147.613 138.98 146.977 139.097 146.225 139.097ZM151.453 133.047H152.731L155.992 141.161L159.246 133.047H160.531L156.484 143H155.486L151.453 133.047ZM151.036 133.047H152.164L152.349 139.117V143H151.036V133.047ZM159.813 133.047H160.941V143H159.629V139.117L159.813 133.047ZM169.702 139.097H167.043V138.023H169.702C170.217 138.023 170.634 137.941 170.953 137.777C171.272 137.613 171.505 137.385 171.651 137.094C171.801 136.802 171.876 136.469 171.876 136.096C171.876 135.754 171.801 135.433 171.651 135.132C171.505 134.831 171.272 134.59 170.953 134.407C170.634 134.22 170.217 134.127 169.702 134.127H167.351V143H166.031V133.047H169.702C170.454 133.047 171.09 133.177 171.61 133.437C172.129 133.696 172.523 134.056 172.792 134.517C173.061 134.972 173.196 135.494 173.196 136.082C173.196 136.72 173.061 137.265 172.792 137.716C172.523 138.167 172.129 138.511 171.61 138.748C171.09 138.98 170.454 139.097 169.702 139.097ZM177.207 143H175.129L175.142 141.927H177.207C177.918 141.927 178.51 141.779 178.984 141.482C179.458 141.182 179.814 140.762 180.051 140.225C180.292 139.682 180.413 139.049 180.413 138.324V137.716C180.413 137.146 180.345 136.64 180.208 136.198C180.071 135.752 179.871 135.376 179.606 135.07C179.342 134.76 179.018 134.526 178.636 134.366C178.257 134.207 177.822 134.127 177.33 134.127H175.088V133.047H177.33C177.982 133.047 178.576 133.156 179.114 133.375C179.652 133.589 180.114 133.901 180.502 134.312C180.894 134.717 181.194 135.209 181.404 135.788C181.614 136.362 181.719 137.009 181.719 137.729V138.324C181.719 139.044 181.614 139.694 181.404 140.272C181.194 140.847 180.891 141.337 180.495 141.742C180.103 142.148 179.629 142.46 179.073 142.679C178.522 142.893 177.9 143 177.207 143ZM175.833 133.047V143H174.513V133.047H175.833ZM186.837 133.047V143H185.538V133.047H186.837ZM190.037 133.047V134.127H182.346V133.047H190.037Z" fill="#212121"/>
<path fill-rule="evenodd" clip-rule="evenodd" d="M10.0003 179.084C13.9123 179.084 17.0837 175.912 17.0837 172C17.0837 168.088 13.9123 164.917 10.0003 164.917C6.08831 164.917 2.91699 168.088 2.91699 172C2.91699 175.912 6.08831 179.084 10.0003 179.084ZM10.0003 180.334C14.6027 180.334 18.3337 176.603 18.3337 172C18.3337 167.398 14.6027 163.667 10.0003 163.667C5.39795 163.667 1.66699 167.398 1.66699 172C1.66699 176.603 5.39795 180.334 10.0003 180.334Z" fill="#707070"/>
<path fill-rule="evenodd" clip-rule="evenodd" d="M15.4419 169.058C15.686 169.302 15.686 169.698 15.4419 169.942L9.65916 175.725C8.92691 176.457 7.73974 176.457 7.00751 175.725L4.55806 173.275C4.31398 173.031 4.31398 172.635 4.55806 172.391C4.80213 172.147 5.19786 172.147 5.44194 172.391L7.89139 174.841C8.13546 175.085 8.53116 175.085 8.77525 174.841L14.5581 169.058C14.8022 168.814 15.1978 168.814 15.4419 169.058Z" fill="#707070"/>
<path d="M34.6328 173.172V174.359H26.4141V173.508L31.5078 165.625H32.6875L31.4219 167.906L28.0547 173.172H34.6328ZM33.0469 165.625V177H31.6016V165.625H33.0469ZM40.6953 165.562V177H39.25V167.367L36.3359 168.43V167.125L40.4688 165.562H40.6953ZM54.5469 168.547H55.8594V176.82C55.8594 177.565 55.7083 178.201 55.4062 178.727C55.1042 179.253 54.6823 179.651 54.1406 179.922C53.6042 180.198 52.9844 180.336 52.2812 180.336C51.9896 180.336 51.6458 180.289 51.25 180.195C50.8594 180.107 50.474 179.953 50.0938 179.734C49.7188 179.521 49.4036 179.232 49.1484 178.867L49.9062 178.008C50.2604 178.435 50.6302 178.732 51.0156 178.898C51.4062 179.065 51.7917 179.148 52.1719 179.148C52.6302 179.148 53.026 179.062 53.3594 178.891C53.6927 178.719 53.9505 178.464 54.1328 178.125C54.3203 177.792 54.4141 177.38 54.4141 176.891V170.406L54.5469 168.547ZM48.7266 172.867V172.703C48.7266 172.057 48.8021 171.471 48.9531 170.945C49.1094 170.414 49.3307 169.958 49.6172 169.578C49.9089 169.198 50.2604 168.906 50.6719 168.703C51.0833 168.495 51.5469 168.391 52.0625 168.391C52.5938 168.391 53.0573 168.484 53.4531 168.672C53.8542 168.854 54.1927 169.122 54.4688 169.477C54.75 169.826 54.9714 170.247 55.1328 170.742C55.2943 171.237 55.4062 171.797 55.4688 172.422V173.141C55.4115 173.76 55.2995 174.318 55.1328 174.812C54.9714 175.307 54.75 175.729 54.4688 176.078C54.1927 176.427 53.8542 176.695 53.4531 176.883C53.0521 177.065 52.5833 177.156 52.0469 177.156C51.5417 177.156 51.0833 177.049 50.6719 176.836C50.2656 176.622 49.9167 176.323 49.625 175.938C49.3333 175.552 49.1094 175.099 48.9531 174.578C48.8021 174.052 48.7266 173.482 48.7266 172.867ZM50.1719 172.703V172.867C50.1719 173.289 50.2135 173.685 50.2969 174.055C50.3854 174.424 50.5182 174.75 50.6953 175.031C50.8776 175.312 51.1094 175.534 51.3906 175.695C51.6719 175.852 52.0078 175.93 52.3984 175.93C52.8776 175.93 53.2734 175.828 53.5859 175.625C53.8984 175.422 54.1458 175.154 54.3281 174.82C54.5156 174.487 54.6615 174.125 54.7656 173.734V171.852C54.7083 171.565 54.6198 171.289 54.5 171.023C54.3854 170.753 54.2344 170.513 54.0469 170.305C53.8646 170.091 53.638 169.922 53.3672 169.797C53.0964 169.672 52.7786 169.609 52.4141 169.609C52.0182 169.609 51.6771 169.693 51.3906 169.859C51.1094 170.021 50.8776 170.245 50.6953 170.531C50.5182 170.812 50.3854 171.141 50.2969 171.516C50.2135 171.885 50.1719 172.281 50.1719 172.703ZM57.6719 172.867V172.688C57.6719 172.078 57.7604 171.513 57.9375 170.992C58.1146 170.466 58.3698 170.01 58.7031 169.625C59.0365 169.234 59.4401 168.932 59.9141 168.719C60.388 168.5 60.9193 168.391 61.5078 168.391C62.1016 168.391 62.6354 168.5 63.1094 168.719C63.5885 168.932 63.9948 169.234 64.3281 169.625C64.6667 170.01 64.9245 170.466 65.1016 170.992C65.2786 171.513 65.3672 172.078 65.3672 172.688V172.867C65.3672 173.477 65.2786 174.042 65.1016 174.562C64.9245 175.083 64.6667 175.539 64.3281 175.93C63.9948 176.315 63.5911 176.617 63.1172 176.836C62.6484 177.049 62.1172 177.156 61.5234 177.156C60.9297 177.156 60.3958 177.049 59.9219 176.836C59.4479 176.617 59.0417 176.315 58.7031 175.93C58.3698 175.539 58.1146 175.083 57.9375 174.562C57.7604 174.042 57.6719 173.477 57.6719 172.867ZM59.1172 172.688V172.867C59.1172 173.289 59.1667 173.688 59.2656 174.062C59.3646 174.432 59.513 174.76 59.7109 175.047C59.9141 175.333 60.1667 175.56 60.4688 175.727C60.7708 175.888 61.1224 175.969 61.5234 175.969C61.9193 175.969 62.2656 175.888 62.5625 175.727C62.8646 175.56 63.1146 175.333 63.3125 175.047C63.5104 174.76 63.6589 174.432 63.7578 174.062C63.862 173.688 63.9141 173.289 63.9141 172.867V172.688C63.9141 172.271 63.862 171.878 63.7578 171.508C63.6589 171.133 63.5078 170.802 63.3047 170.516C63.1068 170.224 62.8568 169.995 62.5547 169.828C62.2578 169.661 61.9089 169.578 61.5078 169.578C61.112 169.578 60.763 169.661 60.4609 169.828C60.1641 169.995 59.9141 170.224 59.7109 170.516C59.513 170.802 59.3646 171.133 59.2656 171.508C59.1667 171.878 59.1172 172.271 59.1172 172.688ZM68.75 168.547V177H67.2969V168.547H68.75ZM67.1875 166.305C67.1875 166.07 67.2578 165.872 67.3984 165.711C67.5443 165.549 67.7578 165.469 68.0391 165.469C68.3151 165.469 68.526 165.549 68.6719 165.711C68.8229 165.872 68.8984 166.07 68.8984 166.305C68.8984 166.529 68.8229 166.721 68.6719 166.883C68.526 167.039 68.3151 167.117 68.0391 167.117C67.7578 167.117 67.5443 167.039 67.3984 166.883C67.2578 166.721 67.1875 166.529 67.1875 166.305ZM72.5156 170.352V177H71.0703V168.547H72.4375L72.5156 170.352ZM72.1719 172.453L71.5703 172.43C71.5755 171.852 71.6615 171.318 71.8281 170.828C71.9948 170.333 72.2292 169.904 72.5312 169.539C72.8333 169.174 73.1927 168.893 73.6094 168.695C74.0312 168.492 74.4974 168.391 75.0078 168.391C75.4245 168.391 75.7995 168.448 76.1328 168.562C76.4661 168.672 76.75 168.849 76.9844 169.094C77.224 169.339 77.4062 169.656 77.5312 170.047C77.6562 170.432 77.7188 170.904 77.7188 171.461V177H76.2656V171.445C76.2656 171.003 76.2005 170.648 76.0703 170.383C75.9401 170.112 75.75 169.917 75.5 169.797C75.25 169.672 74.9427 169.609 74.5781 169.609C74.2188 169.609 73.8906 169.685 73.5938 169.836C73.3021 169.987 73.0495 170.195 72.8359 170.461C72.6276 170.727 72.4635 171.031 72.3438 171.375C72.2292 171.714 72.1719 172.073 72.1719 172.453ZM85.3906 168.547H86.7031V176.82C86.7031 177.565 86.5521 178.201 86.25 178.727C85.9479 179.253 85.526 179.651 84.9844 179.922C84.4479 180.198 83.8281 180.336 83.125 180.336C82.8333 180.336 82.4896 180.289 82.0938 180.195C81.7031 180.107 81.3177 179.953 80.9375 179.734C80.5625 179.521 80.2474 179.232 79.9922 178.867L80.75 178.008C81.1042 178.435 81.474 178.732 81.8594 178.898C82.25 179.065 82.6354 179.148 83.0156 179.148C83.474 179.148 83.8698 179.062 84.2031 178.891C84.5365 178.719 84.7943 178.464 84.9766 178.125C85.1641 177.792 85.2578 177.38 85.2578 176.891V170.406L85.3906 168.547ZM79.5703 172.867V172.703C79.5703 172.057 79.6458 171.471 79.7969 170.945C79.9531 170.414 80.1745 169.958 80.4609 169.578C80.7526 169.198 81.1042 168.906 81.5156 168.703C81.9271 168.495 82.3906 168.391 82.9062 168.391C83.4375 168.391 83.901 168.484 84.2969 168.672C84.6979 168.854 85.0365 169.122 85.3125 169.477C85.5938 169.826 85.8151 170.247 85.9766 170.742C86.138 171.237 86.25 171.797 86.3125 172.422V173.141C86.2552 173.76 86.1432 174.318 85.9766 174.812C85.8151 175.307 85.5938 175.729 85.3125 176.078C85.0365 176.427 84.6979 176.695 84.2969 176.883C83.8958 177.065 83.4271 177.156 82.8906 177.156C82.3854 177.156 81.9271 177.049 81.5156 176.836C81.1094 176.622 80.7604 176.323 80.4688 175.938C80.1771 175.552 79.9531 175.099 79.7969 174.578C79.6458 174.052 79.5703 173.482 79.5703 172.867ZM81.0156 172.703V172.867C81.0156 173.289 81.0573 173.685 81.1406 174.055C81.2292 174.424 81.362 174.75 81.5391 175.031C81.7214 175.312 81.9531 175.534 82.2344 175.695C82.5156 175.852 82.8516 175.93 83.2422 175.93C83.7214 175.93 84.1172 175.828 84.4297 175.625C84.7422 175.422 84.9896 175.154 85.1719 174.82C85.3594 174.487 85.5052 174.125 85.6094 173.734V171.852C85.5521 171.565 85.4635 171.289 85.3438 171.023C85.2292 170.753 85.0781 170.513 84.8906 170.305C84.7083 170.091 84.4818 169.922 84.2109 169.797C83.9401 169.672 83.6224 169.609 83.2578 169.609C82.862 169.609 82.5208 169.693 82.2344 169.859C81.9531 170.021 81.7214 170.245 81.5391 170.531C81.362 170.812 81.2292 171.141 81.1406 171.516C81.0573 171.885 81.0156 172.281 81.0156 172.703Z" fill="#212121"/>
<path fill-rule="evenodd" clip-rule="evenodd" d="M120.393 167C121.01 167 121.549 166.665 121.837 166.166H123.727C124.187 166.166 124.56 166.539 124.56 167V168.771C123.122 169.141 122.06 170.447 122.06 172C122.06 173.553 123.122 174.858 124.56 175.228V177C124.56 177.46 124.187 177.833 123.727 177.833H121.837C121.549 177.335 121.01 177 120.393 177C119.776 177 119.238 177.335 118.95 177.833H110.393C109.933 177.833 109.56 177.46 109.56 177V175.228C110.998 174.858 112.06 173.553 112.06 172C112.06 170.447 110.998 169.141 109.56 168.771V167C109.56 166.539 109.933 166.166 110.393 166.166H118.95C119.238 166.665 119.776 167 120.393 167ZM122.893 172C122.893 170.619 124.012 169.5 125.393 169.5V167C125.393 166.079 124.647 165.333 123.727 165.333H121.227C121.227 165.793 120.853 166.166 120.393 166.166C119.933 166.166 119.56 165.793 119.56 165.333H110.393C109.473 165.333 108.727 166.079 108.727 167V169.5C110.107 169.5 111.227 170.619 111.227 172C111.227 173.38 110.107 174.5 108.727 174.5V177C108.727 177.92 109.473 178.666 110.393 178.666H119.56C119.56 178.206 119.933 177.833 120.393 177.833C120.853 177.833 121.227 178.206 121.227 178.666H123.727C124.647 178.666 125.393 177.92 125.393 177V174.5C124.012 174.5 122.893 173.38 122.893 172ZM120.393 169.5C120.853 169.5 121.227 169.127 121.227 168.666C121.227 168.206 120.853 167.833 120.393 167.833C119.933 167.833 119.56 168.206 119.56 168.666C119.56 169.127 119.933 169.5 120.393 169.5ZM120.393 172.833C120.853 172.833 121.227 172.46 121.227 172C121.227 171.539 120.853 171.166 120.393 171.166C119.933 171.166 119.56 171.539 119.56 172C119.56 172.46 119.933 172.833 120.393 172.833ZM121.227 175.333C121.227 175.793 120.853 176.166 120.393 176.166C119.933 176.166 119.56 175.793 119.56 175.333C119.56 174.873 119.933 174.5 120.393 174.5C120.853 174.5 121.227 174.873 121.227 175.333Z" fill="#707070"/>
<path d="M135.888 165.625V177H134.38V165.625H135.888ZM140.653 170.742V171.977H135.56V170.742H140.653ZM141.427 165.625V166.859H135.56V165.625H141.427ZM144.247 169.875V177H142.802V168.547H144.208L144.247 169.875ZM146.888 168.5L146.88 169.844C146.76 169.818 146.646 169.802 146.536 169.797C146.432 169.786 146.312 169.781 146.177 169.781C145.843 169.781 145.549 169.833 145.294 169.938C145.039 170.042 144.823 170.188 144.646 170.375C144.468 170.562 144.328 170.786 144.224 171.047C144.125 171.302 144.06 171.583 144.028 171.891L143.622 172.125C143.622 171.615 143.672 171.135 143.771 170.688C143.875 170.24 144.034 169.844 144.247 169.5C144.461 169.151 144.731 168.88 145.06 168.688C145.393 168.49 145.789 168.391 146.247 168.391C146.351 168.391 146.471 168.404 146.606 168.43C146.742 168.451 146.836 168.474 146.888 168.5ZM151.575 177.156C150.987 177.156 150.453 177.057 149.974 176.859C149.5 176.656 149.091 176.372 148.747 176.008C148.409 175.643 148.148 175.211 147.966 174.711C147.784 174.211 147.692 173.664 147.692 173.07V172.742C147.692 172.055 147.794 171.443 147.997 170.906C148.2 170.365 148.476 169.906 148.825 169.531C149.174 169.156 149.57 168.872 150.013 168.68C150.455 168.487 150.914 168.391 151.388 168.391C151.992 168.391 152.513 168.495 152.95 168.703C153.393 168.911 153.755 169.203 154.036 169.578C154.317 169.948 154.526 170.385 154.661 170.891C154.797 171.391 154.864 171.938 154.864 172.531V173.18H148.552V172H153.419V171.891C153.398 171.516 153.32 171.151 153.185 170.797C153.054 170.443 152.846 170.151 152.56 169.922C152.273 169.693 151.882 169.578 151.388 169.578C151.06 169.578 150.757 169.648 150.481 169.789C150.205 169.924 149.968 170.128 149.771 170.398C149.573 170.669 149.419 171 149.31 171.391C149.2 171.781 149.146 172.232 149.146 172.742V173.07C149.146 173.471 149.2 173.849 149.31 174.203C149.424 174.552 149.588 174.859 149.802 175.125C150.021 175.391 150.284 175.599 150.591 175.75C150.903 175.901 151.257 175.977 151.653 175.977C152.164 175.977 152.596 175.872 152.95 175.664C153.304 175.456 153.614 175.177 153.88 174.828L154.755 175.523C154.573 175.799 154.341 176.062 154.06 176.312C153.778 176.562 153.432 176.766 153.021 176.922C152.614 177.078 152.132 177.156 151.575 177.156ZM160.06 177.156C159.471 177.156 158.937 177.057 158.458 176.859C157.984 176.656 157.575 176.372 157.231 176.008C156.893 175.643 156.632 175.211 156.45 174.711C156.268 174.211 156.177 173.664 156.177 173.07V172.742C156.177 172.055 156.278 171.443 156.481 170.906C156.685 170.365 156.961 169.906 157.31 169.531C157.659 169.156 158.054 168.872 158.497 168.68C158.94 168.487 159.398 168.391 159.872 168.391C160.476 168.391 160.997 168.495 161.435 168.703C161.877 168.911 162.239 169.203 162.521 169.578C162.802 169.948 163.01 170.385 163.146 170.891C163.281 171.391 163.349 171.938 163.349 172.531V173.18H157.036V172H161.903V171.891C161.882 171.516 161.804 171.151 161.669 170.797C161.539 170.443 161.33 170.151 161.044 169.922C160.757 169.693 160.367 169.578 159.872 169.578C159.544 169.578 159.242 169.648 158.966 169.789C158.69 169.924 158.453 170.128 158.255 170.398C158.057 170.669 157.903 171 157.794 171.391C157.685 171.781 157.63 172.232 157.63 172.742V173.07C157.63 173.471 157.685 173.849 157.794 174.203C157.909 174.552 158.073 174.859 158.286 175.125C158.505 175.391 158.768 175.599 159.075 175.75C159.388 175.901 159.742 175.977 160.138 175.977C160.648 175.977 161.08 175.872 161.435 175.664C161.789 175.456 162.099 175.177 162.364 174.828L163.239 175.523C163.057 175.799 162.825 176.062 162.544 176.312C162.263 176.562 161.916 176.766 161.505 176.922C161.099 177.078 160.617 177.156 160.06 177.156Z" fill="#212121"/>
<defs>
<clipPath id="clip0_2_2082">
<rect width="256" height="72" fill="white"/>
</clipPath>
</defs>
</svg>
