<svg width="272" height="214" viewBox="0 0 272 214" fill="none" xmlns="http://www.w3.org/2000/svg">
<path d="M7.01172 6.93945L2.95898 19H0.117188L5.42969 4.78125H7.24609L7.01172 6.93945ZM10.4004 19L6.32812 6.93945L6.08398 4.78125H7.91016L13.252 19H10.4004ZM10.2148 13.7168V15.8359H2.58789V13.7168H10.2148ZM17.5781 4.78125V19H14.8926V4.78125H17.5781ZM28.9551 16.2754L31.7871 4.78125H33.3203L33.418 7.20312L30.3906 19H28.7695L28.9551 16.2754ZM27.168 4.78125L29.4922 16.2363V19H27.7246L24.502 4.78125H27.168ZM36.3574 16.1875L38.6426 4.78125H41.3184L38.0957 19H36.3281L36.3574 16.1875ZM34.0527 4.78125L36.8848 16.3145L37.0508 19H35.4297L32.4121 7.19336L32.5293 4.78125H34.0527ZM47.2559 19.1953C46.4551 19.1953 45.7357 19.0651 45.0977 18.8047C44.4596 18.5443 43.916 18.1829 43.4668 17.7207C43.0241 17.252 42.6823 16.7083 42.4414 16.0898C42.207 15.4648 42.0898 14.7943 42.0898 14.0781V13.6875C42.0898 12.8737 42.207 12.1348 42.4414 11.4707C42.6758 10.8001 43.0078 10.224 43.4375 9.74219C43.8672 9.26042 44.3815 8.88932 44.9805 8.62891C45.5794 8.36849 46.2402 8.23828 46.9629 8.23828C47.7116 8.23828 48.3724 8.36523 48.9453 8.61914C49.5182 8.86654 49.9967 9.2181 50.3809 9.67383C50.765 10.1296 51.0547 10.6764 51.25 11.3145C51.4453 11.946 51.543 12.6458 51.543 13.4141V14.498H43.2617V12.7207H49.0039V12.5254C48.9909 12.1152 48.9128 11.7409 48.7695 11.4023C48.6263 11.0573 48.4049 10.7839 48.1055 10.582C47.806 10.3737 47.4186 10.2695 46.9434 10.2695C46.5592 10.2695 46.224 10.3542 45.9375 10.5234C45.6576 10.6862 45.4232 10.9206 45.2344 11.2266C45.0521 11.526 44.9154 11.8841 44.8242 12.3008C44.7331 12.7174 44.6875 13.1797 44.6875 13.6875V14.0781C44.6875 14.5208 44.7461 14.931 44.8633 15.3086C44.987 15.6862 45.166 16.015 45.4004 16.2949C45.6413 16.5684 45.9277 16.7832 46.2598 16.9395C46.5983 17.0892 46.9824 17.1641 47.4121 17.1641C47.9525 17.1641 48.4408 17.0599 48.877 16.8516C49.3197 16.6367 49.7038 16.321 50.0293 15.9043L51.3281 17.252C51.1068 17.5775 50.8073 17.89 50.4297 18.1895C50.0586 18.4889 49.6094 18.7331 49.082 18.9219C48.5547 19.1042 47.946 19.1953 47.2559 19.1953ZM59.6094 16.7539V4H62.207V19H59.8633L59.6094 16.7539ZM52.8223 13.8438V13.6387C52.8223 12.8314 52.9134 12.099 53.0957 11.4414C53.2845 10.7773 53.5579 10.2077 53.916 9.73242C54.2741 9.25716 54.707 8.88932 55.2148 8.62891C55.7292 8.36849 56.3118 8.23828 56.9629 8.23828C57.5944 8.23828 58.1445 8.36523 58.6133 8.61914C59.0885 8.87305 59.4922 9.23438 59.8242 9.70312C60.1628 10.1719 60.4329 10.7285 60.6348 11.373C60.8366 12.0111 60.9831 12.7142 61.0742 13.4824V14.0391C60.9831 14.7878 60.8366 15.4746 60.6348 16.0996C60.4329 16.7246 60.1628 17.2715 59.8242 17.7402C59.4922 18.2025 59.0885 18.5605 58.6133 18.8145C58.138 19.0684 57.5814 19.1953 56.9434 19.1953C56.2988 19.1953 55.7194 19.0618 55.2051 18.7949C54.6973 18.528 54.2643 18.1536 53.9062 17.6719C53.5547 17.1901 53.2845 16.6237 53.0957 15.9727C52.9134 15.3216 52.8223 14.612 52.8223 13.8438ZM55.4102 13.6387V13.8438C55.4102 14.2995 55.4492 14.7259 55.5273 15.123C55.6055 15.5202 55.7324 15.8717 55.9082 16.1777C56.084 16.4772 56.3086 16.7116 56.582 16.8809C56.862 17.0501 57.2005 17.1348 57.5977 17.1348C58.1055 17.1348 58.5221 17.0241 58.8477 16.8027C59.1797 16.5749 59.4368 16.2656 59.6191 15.875C59.8014 15.4779 59.9186 15.0319 59.9707 14.5371V13.0039C59.9447 12.6133 59.8763 12.252 59.7656 11.9199C59.6615 11.5879 59.5117 11.3014 59.3164 11.0605C59.1276 10.8197 58.8932 10.6309 58.6133 10.4941C58.3333 10.3574 58.0013 10.2891 57.6172 10.2891C57.2201 10.2891 56.8815 10.377 56.6016 10.5527C56.3216 10.722 56.0938 10.9596 55.918 11.2656C55.7422 11.5716 55.612 11.9264 55.5273 12.3301C55.4492 12.7337 55.4102 13.1699 55.4102 13.6387ZM67.0703 10.6895V19H64.4922V8.43359H66.9141L67.0703 10.6895ZM66.6602 13.3359H65.8984C65.9049 12.5677 66.0091 11.8711 66.2109 11.2461C66.4128 10.6211 66.696 10.084 67.0605 9.63477C67.4316 9.18555 67.8711 8.84049 68.3789 8.59961C68.8867 8.35872 69.4531 8.23828 70.0781 8.23828C70.5859 8.23828 71.0449 8.3099 71.4551 8.45312C71.8652 8.59635 72.2168 8.82422 72.5098 9.13672C72.8092 9.44922 73.0371 9.85938 73.1934 10.3672C73.3561 10.8685 73.4375 11.487 73.4375 12.2227V19H70.8398V12.2031C70.8398 11.7214 70.7682 11.3405 70.625 11.0605C70.4883 10.7806 70.2865 10.582 70.0195 10.4648C69.7591 10.3477 69.4368 10.2891 69.0527 10.2891C68.6556 10.2891 68.3073 10.3704 68.0078 10.5332C67.7148 10.6895 67.4674 10.9076 67.2656 11.1875C67.0703 11.4674 66.9206 11.7897 66.8164 12.1543C66.7122 12.5189 66.6602 12.9128 66.6602 13.3359ZM80.459 19.1953C79.6582 19.1953 78.9388 19.0651 78.3008 18.8047C77.6628 18.5443 77.1191 18.1829 76.6699 17.7207C76.2272 17.252 75.8854 16.7083 75.6445 16.0898C75.4102 15.4648 75.293 14.7943 75.293 14.0781V13.6875C75.293 12.8737 75.4102 12.1348 75.6445 11.4707C75.8789 10.8001 76.2109 10.224 76.6406 9.74219C77.0703 9.26042 77.5846 8.88932 78.1836 8.62891C78.7826 8.36849 79.4434 8.23828 80.166 8.23828C80.9147 8.23828 81.5755 8.36523 82.1484 8.61914C82.7214 8.86654 83.1999 9.2181 83.584 9.67383C83.9681 10.1296 84.2578 10.6764 84.4531 11.3145C84.6484 11.946 84.7461 12.6458 84.7461 13.4141V14.498H76.4648V12.7207H82.207V12.5254C82.194 12.1152 82.1159 11.7409 81.9727 11.4023C81.8294 11.0573 81.6081 10.7839 81.3086 10.582C81.0091 10.3737 80.6217 10.2695 80.1465 10.2695C79.7624 10.2695 79.4271 10.3542 79.1406 10.5234C78.8607 10.6862 78.6263 10.9206 78.4375 11.2266C78.2552 11.526 78.1185 11.8841 78.0273 12.3008C77.9362 12.7174 77.8906 13.1797 77.8906 13.6875V14.0781C77.8906 14.5208 77.9492 14.931 78.0664 15.3086C78.1901 15.6862 78.3691 16.015 78.6035 16.2949C78.8444 16.5684 79.1309 16.7832 79.4629 16.9395C79.8014 17.0892 80.1855 17.1641 80.6152 17.1641C81.1556 17.1641 81.6439 17.0599 82.0801 16.8516C82.5228 16.6367 82.9069 16.321 83.2324 15.9043L84.5312 17.252C84.3099 17.5775 84.0104 17.89 83.6328 18.1895C83.2617 18.4889 82.8125 18.7331 82.2852 18.9219C81.7578 19.1042 81.1491 19.1953 80.459 19.1953ZM92.2852 16.1094C92.2852 15.888 92.2266 15.6895 92.1094 15.5137C91.9922 15.3379 91.7708 15.1784 91.4453 15.0352C91.1263 14.8854 90.6576 14.7454 90.0391 14.6152C89.4922 14.498 88.9876 14.3516 88.5254 14.1758C88.0632 14 87.666 13.7884 87.334 13.541C87.002 13.2871 86.7415 12.9909 86.5527 12.6523C86.3704 12.3073 86.2793 11.9102 86.2793 11.4609C86.2793 11.0247 86.3737 10.6146 86.5625 10.2305C86.7513 9.83984 87.0247 9.49805 87.3828 9.20508C87.7409 8.9056 88.1771 8.67122 88.6914 8.50195C89.2057 8.32617 89.7852 8.23828 90.4297 8.23828C91.3281 8.23828 92.0996 8.38477 92.7441 8.67773C93.3952 8.9707 93.8932 9.37435 94.2383 9.88867C94.5833 10.3965 94.7559 10.9694 94.7559 11.6074H92.1777C92.1777 11.3275 92.1126 11.0736 91.9824 10.8457C91.8587 10.6178 91.6667 10.4355 91.4062 10.2988C91.1458 10.1556 90.8171 10.084 90.4199 10.084C90.0618 10.084 89.7591 10.1426 89.5117 10.2598C89.2708 10.377 89.0885 10.5299 88.9648 10.7188C88.8411 10.9076 88.7793 11.1159 88.7793 11.3438C88.7793 11.513 88.8118 11.666 88.877 11.8027C88.9486 11.9329 89.0625 12.0534 89.2188 12.1641C89.375 12.2747 89.5866 12.3757 89.8535 12.4668C90.127 12.5579 90.4622 12.6458 90.8594 12.7305C91.6471 12.8867 92.334 13.0951 92.9199 13.3555C93.5124 13.6094 93.9746 13.9479 94.3066 14.3711C94.6387 14.7943 94.8047 15.3346 94.8047 15.9922C94.8047 16.4609 94.7038 16.8906 94.502 17.2812C94.3001 17.6654 94.0072 18.0007 93.623 18.2871C93.2389 18.5736 92.7799 18.7982 92.2461 18.9609C91.7122 19.1172 91.11 19.1953 90.4395 19.1953C89.4694 19.1953 88.6491 19.0228 87.9785 18.6777C87.3079 18.3262 86.8001 17.8835 86.4551 17.3496C86.11 16.8092 85.9375 16.2493 85.9375 15.6699H88.4082C88.4277 16.0801 88.5384 16.4089 88.7402 16.6562C88.9421 16.9036 89.196 17.0827 89.502 17.1934C89.8145 17.2975 90.1432 17.3496 90.4883 17.3496C90.8789 17.3496 91.2077 17.2975 91.4746 17.1934C91.7415 17.0827 91.9434 16.9362 92.0801 16.7539C92.2168 16.5651 92.2852 16.3503 92.2852 16.1094ZM103.105 16.7539V4H105.703V19H103.359L103.105 16.7539ZM96.3184 13.8438V13.6387C96.3184 12.8314 96.4095 12.099 96.5918 11.4414C96.7806 10.7773 97.054 10.2077 97.4121 9.73242C97.7702 9.25716 98.2031 8.88932 98.7109 8.62891C99.2253 8.36849 99.8079 8.23828 100.459 8.23828C101.09 8.23828 101.641 8.36523 102.109 8.61914C102.585 8.87305 102.988 9.23438 103.32 9.70312C103.659 10.1719 103.929 10.7285 104.131 11.373C104.333 12.0111 104.479 12.7142 104.57 13.4824V14.0391C104.479 14.7878 104.333 15.4746 104.131 16.0996C103.929 16.7246 103.659 17.2715 103.32 17.7402C102.988 18.2025 102.585 18.5605 102.109 18.8145C101.634 19.0684 101.077 19.1953 100.439 19.1953C99.7949 19.1953 99.2155 19.0618 98.7012 18.7949C98.1934 18.528 97.7604 18.1536 97.4023 17.6719C97.0508 17.1901 96.7806 16.6237 96.5918 15.9727C96.4095 15.3216 96.3184 14.612 96.3184 13.8438ZM98.9062 13.6387V13.8438C98.9062 14.2995 98.9453 14.7259 99.0234 15.123C99.1016 15.5202 99.2285 15.8717 99.4043 16.1777C99.5801 16.4772 99.8047 16.7116 100.078 16.8809C100.358 17.0501 100.697 17.1348 101.094 17.1348C101.602 17.1348 102.018 17.0241 102.344 16.8027C102.676 16.5749 102.933 16.2656 103.115 15.875C103.298 15.4779 103.415 15.0319 103.467 14.5371V13.0039C103.441 12.6133 103.372 12.252 103.262 11.9199C103.158 11.5879 103.008 11.3014 102.812 11.0605C102.624 10.8197 102.389 10.6309 102.109 10.4941C101.829 10.3574 101.497 10.2891 101.113 10.2891C100.716 10.2891 100.378 10.377 100.098 10.5527C99.8177 10.722 99.5898 10.9596 99.4141 11.2656C99.2383 11.5716 99.1081 11.9264 99.0234 12.3301C98.9453 12.7337 98.9062 13.1699 98.9062 13.6387ZM113.857 16.7539V11.8809C113.857 11.5228 113.796 11.2135 113.672 10.9531C113.548 10.6927 113.359 10.4909 113.105 10.3477C112.852 10.2044 112.529 10.1328 112.139 10.1328C111.794 10.1328 111.491 10.1914 111.23 10.3086C110.977 10.4258 110.781 10.5918 110.645 10.8066C110.508 11.015 110.439 11.2559 110.439 11.5293H107.852C107.852 11.0931 107.956 10.6797 108.164 10.2891C108.372 9.89193 108.669 9.54036 109.053 9.23438C109.443 8.92188 109.909 8.67773 110.449 8.50195C110.996 8.32617 111.608 8.23828 112.285 8.23828C113.086 8.23828 113.799 8.375 114.424 8.64844C115.055 8.91536 115.55 9.31901 115.908 9.85938C116.273 10.3997 116.455 11.0801 116.455 11.9004V16.5098C116.455 17.0371 116.488 17.4896 116.553 17.8672C116.624 18.2383 116.729 18.5605 116.865 18.834V19H114.238C114.115 18.7331 114.02 18.3945 113.955 17.9844C113.89 17.5677 113.857 17.1576 113.857 16.7539ZM114.219 12.5645L114.238 14.0977H112.607C112.204 14.0977 111.849 14.14 111.543 14.2246C111.237 14.3027 110.986 14.4199 110.791 14.5762C110.596 14.7259 110.449 14.9082 110.352 15.123C110.254 15.3314 110.205 15.569 110.205 15.8359C110.205 16.0964 110.264 16.3307 110.381 16.5391C110.505 16.7474 110.68 16.9134 110.908 17.0371C111.143 17.1543 111.416 17.2129 111.729 17.2129C112.184 17.2129 112.581 17.1217 112.92 16.9395C113.258 16.7507 113.522 16.5228 113.711 16.2559C113.9 15.9889 114.001 15.735 114.014 15.4941L114.756 16.6074C114.665 16.8743 114.528 17.1576 114.346 17.457C114.163 17.7565 113.929 18.0365 113.643 18.2969C113.356 18.5573 113.011 18.7721 112.607 18.9414C112.204 19.1107 111.735 19.1953 111.201 19.1953C110.518 19.1953 109.906 19.0586 109.365 18.7852C108.825 18.5117 108.398 18.1374 108.086 17.6621C107.773 17.1868 107.617 16.6465 107.617 16.041C107.617 15.4811 107.721 14.9863 107.93 14.5566C108.138 14.127 108.447 13.7656 108.857 13.4727C109.268 13.1732 109.775 12.9486 110.381 12.7988C110.993 12.6426 111.693 12.5645 112.48 12.5645H114.219ZM121.719 17.8281L124.551 8.43359H127.314L123.076 20.6016C122.979 20.862 122.852 21.1452 122.695 21.4512C122.546 21.7572 122.344 22.0469 122.09 22.3203C121.836 22.6003 121.517 22.8281 121.133 23.0039C120.755 23.1797 120.296 23.2676 119.756 23.2676C119.521 23.2676 119.313 23.2513 119.131 23.2188C118.949 23.1862 118.757 23.1439 118.555 23.0918V21.1582C118.62 21.1647 118.695 21.168 118.779 21.168C118.87 21.1745 118.949 21.1777 119.014 21.1777C119.391 21.1777 119.704 21.1322 119.951 21.041C120.199 20.9564 120.397 20.8164 120.547 20.6211C120.703 20.4323 120.833 20.1849 120.938 19.8789L121.719 17.8281ZM120.322 8.43359L122.715 16.2168L123.135 18.9414L121.357 19.2637L117.539 8.43359H120.322ZM134.375 16.1094C134.375 15.888 134.316 15.6895 134.199 15.5137C134.082 15.3379 133.861 15.1784 133.535 15.0352C133.216 14.8854 132.747 14.7454 132.129 14.6152C131.582 14.498 131.077 14.3516 130.615 14.1758C130.153 14 129.756 13.7884 129.424 13.541C129.092 13.2871 128.831 12.9909 128.643 12.6523C128.46 12.3073 128.369 11.9102 128.369 11.4609C128.369 11.0247 128.464 10.6146 128.652 10.2305C128.841 9.83984 129.115 9.49805 129.473 9.20508C129.831 8.9056 130.267 8.67122 130.781 8.50195C131.296 8.32617 131.875 8.23828 132.52 8.23828C133.418 8.23828 134.189 8.38477 134.834 8.67773C135.485 8.9707 135.983 9.37435 136.328 9.88867C136.673 10.3965 136.846 10.9694 136.846 11.6074H134.268C134.268 11.3275 134.202 11.0736 134.072 10.8457C133.949 10.6178 133.757 10.4355 133.496 10.2988C133.236 10.1556 132.907 10.084 132.51 10.084C132.152 10.084 131.849 10.1426 131.602 10.2598C131.361 10.377 131.178 10.5299 131.055 10.7188C130.931 10.9076 130.869 11.1159 130.869 11.3438C130.869 11.513 130.902 11.666 130.967 11.8027C131.038 11.9329 131.152 12.0534 131.309 12.1641C131.465 12.2747 131.676 12.3757 131.943 12.4668C132.217 12.5579 132.552 12.6458 132.949 12.7305C133.737 12.8867 134.424 13.0951 135.01 13.3555C135.602 13.6094 136.064 13.9479 136.396 14.3711C136.729 14.7943 136.895 15.3346 136.895 15.9922C136.895 16.4609 136.794 16.8906 136.592 17.2812C136.39 17.6654 136.097 18.0007 135.713 18.2871C135.329 18.5736 134.87 18.7982 134.336 18.9609C133.802 19.1172 133.2 19.1953 132.529 19.1953C131.559 19.1953 130.739 19.0228 130.068 18.6777C129.398 18.3262 128.89 17.8835 128.545 17.3496C128.2 16.8092 128.027 16.2493 128.027 15.6699H130.498C130.518 16.0801 130.628 16.4089 130.83 16.6562C131.032 16.9036 131.286 17.0827 131.592 17.1934C131.904 17.2975 132.233 17.3496 132.578 17.3496C132.969 17.3496 133.298 17.2975 133.564 17.1934C133.831 17.0827 134.033 16.9362 134.17 16.7539C134.307 16.5651 134.375 16.3503 134.375 16.1094ZM148.975 11.8906V13.9316H143.633V11.8906H148.975ZM157.529 4.78125H159.854L163.74 15.4844L167.617 4.78125H169.951L164.668 19H162.803L157.529 4.78125ZM156.357 4.78125H158.633L159.043 14.6152V19H156.357V4.78125ZM168.838 4.78125H171.123V19H168.438V14.6152L168.838 4.78125ZM178.408 19.1953C177.607 19.1953 176.888 19.0651 176.25 18.8047C175.612 18.5443 175.068 18.1829 174.619 17.7207C174.176 17.252 173.835 16.7083 173.594 16.0898C173.359 15.4648 173.242 14.7943 173.242 14.0781V13.6875C173.242 12.8737 173.359 12.1348 173.594 11.4707C173.828 10.8001 174.16 10.224 174.59 9.74219C175.02 9.26042 175.534 8.88932 176.133 8.62891C176.732 8.36849 177.393 8.23828 178.115 8.23828C178.864 8.23828 179.525 8.36523 180.098 8.61914C180.671 8.86654 181.149 9.2181 181.533 9.67383C181.917 10.1296 182.207 10.6764 182.402 11.3145C182.598 11.946 182.695 12.6458 182.695 13.4141V14.498H174.414V12.7207H180.156V12.5254C180.143 12.1152 180.065 11.7409 179.922 11.4023C179.779 11.0573 179.557 10.7839 179.258 10.582C178.958 10.3737 178.571 10.2695 178.096 10.2695C177.712 10.2695 177.376 10.3542 177.09 10.5234C176.81 10.6862 176.576 10.9206 176.387 11.2266C176.204 11.526 176.068 11.8841 175.977 12.3008C175.885 12.7174 175.84 13.1797 175.84 13.6875V14.0781C175.84 14.5208 175.898 14.931 176.016 15.3086C176.139 15.6862 176.318 16.015 176.553 16.2949C176.794 16.5684 177.08 16.7832 177.412 16.9395C177.751 17.0892 178.135 17.1641 178.564 17.1641C179.105 17.1641 179.593 17.0599 180.029 16.8516C180.472 16.6367 180.856 16.321 181.182 15.9043L182.48 17.252C182.259 17.5775 181.96 17.89 181.582 18.1895C181.211 18.4889 180.762 18.7331 180.234 18.9219C179.707 19.1042 179.098 19.1953 178.408 19.1953ZM189.17 19.1953C188.369 19.1953 187.65 19.0651 187.012 18.8047C186.374 18.5443 185.83 18.1829 185.381 17.7207C184.938 17.252 184.596 16.7083 184.355 16.0898C184.121 15.4648 184.004 14.7943 184.004 14.0781V13.6875C184.004 12.8737 184.121 12.1348 184.355 11.4707C184.59 10.8001 184.922 10.224 185.352 9.74219C185.781 9.26042 186.296 8.88932 186.895 8.62891C187.493 8.36849 188.154 8.23828 188.877 8.23828C189.626 8.23828 190.286 8.36523 190.859 8.61914C191.432 8.86654 191.911 9.2181 192.295 9.67383C192.679 10.1296 192.969 10.6764 193.164 11.3145C193.359 11.946 193.457 12.6458 193.457 13.4141V14.498H185.176V12.7207H190.918V12.5254C190.905 12.1152 190.827 11.7409 190.684 11.4023C190.54 11.0573 190.319 10.7839 190.02 10.582C189.72 10.3737 189.333 10.2695 188.857 10.2695C188.473 10.2695 188.138 10.3542 187.852 10.5234C187.572 10.6862 187.337 10.9206 187.148 11.2266C186.966 11.526 186.829 11.8841 186.738 12.3008C186.647 12.7174 186.602 13.1797 186.602 13.6875V14.0781C186.602 14.5208 186.66 14.931 186.777 15.3086C186.901 15.6862 187.08 16.015 187.314 16.2949C187.555 16.5684 187.842 16.7832 188.174 16.9395C188.512 17.0892 188.896 17.1641 189.326 17.1641C189.867 17.1641 190.355 17.0599 190.791 16.8516C191.234 16.6367 191.618 16.321 191.943 15.9043L193.242 17.252C193.021 17.5775 192.721 17.89 192.344 18.1895C191.973 18.4889 191.523 18.7331 190.996 18.9219C190.469 19.1042 189.86 19.1953 189.17 19.1953ZM200.186 8.43359V10.2891H194.131V8.43359H200.186ZM195.752 5.83594H198.34V15.9531C198.34 16.2656 198.382 16.5065 198.467 16.6758C198.551 16.8451 198.678 16.959 198.848 17.0176C199.017 17.0762 199.219 17.1055 199.453 17.1055C199.622 17.1055 199.779 17.0957 199.922 17.0762C200.065 17.0566 200.186 17.0371 200.283 17.0176L200.293 18.9512C200.078 19.0228 199.834 19.0814 199.561 19.127C199.294 19.1725 198.991 19.1953 198.652 19.1953C198.073 19.1953 197.565 19.0977 197.129 18.9023C196.693 18.7005 196.354 18.3783 196.113 17.9355C195.872 17.4863 195.752 16.8939 195.752 16.1582V5.83594ZM6.98242 40.7539V35.8809C6.98242 35.5228 6.92057 35.2135 6.79688 34.9531C6.67318 34.6927 6.48438 34.4909 6.23047 34.3477C5.97656 34.2044 5.6543 34.1328 5.26367 34.1328C4.91862 34.1328 4.61589 34.1914 4.35547 34.3086C4.10156 34.4258 3.90625 34.5918 3.76953 34.8066C3.63281 35.015 3.56445 35.2559 3.56445 35.5293H0.976562C0.976562 35.0931 1.08073 34.6797 1.28906 34.2891C1.4974 33.8919 1.79362 33.5404 2.17773 33.2344C2.56836 32.9219 3.03385 32.6777 3.57422 32.502C4.12109 32.3262 4.73307 32.2383 5.41016 32.2383C6.21094 32.2383 6.92383 32.375 7.54883 32.6484C8.18034 32.9154 8.67513 33.319 9.0332 33.8594C9.39779 34.3997 9.58008 35.0801 9.58008 35.9004V40.5098C9.58008 41.0371 9.61263 41.4896 9.67773 41.8672C9.74935 42.2383 9.85352 42.5605 9.99023 42.834V43H7.36328C7.23958 42.7331 7.14518 42.3945 7.08008 41.9844C7.01497 41.5677 6.98242 41.1576 6.98242 40.7539ZM7.34375 36.5645L7.36328 38.0977H5.73242C5.32878 38.0977 4.97396 38.14 4.66797 38.2246C4.36198 38.3027 4.11133 38.4199 3.91602 38.5762C3.7207 38.7259 3.57422 38.9082 3.47656 39.123C3.37891 39.3314 3.33008 39.569 3.33008 39.8359C3.33008 40.0964 3.38867 40.3307 3.50586 40.5391C3.62956 40.7474 3.80534 40.9134 4.0332 41.0371C4.26758 41.1543 4.54102 41.2129 4.85352 41.2129C5.30924 41.2129 5.70638 41.1217 6.04492 40.9395C6.38346 40.7507 6.64714 40.5228 6.83594 40.2559C7.02474 39.9889 7.12565 39.735 7.13867 39.4941L7.88086 40.6074C7.78971 40.8743 7.65299 41.1576 7.4707 41.457C7.28841 41.7565 7.05404 42.0365 6.76758 42.2969C6.48112 42.5573 6.13607 42.7721 5.73242 42.9414C5.32878 43.1107 4.86003 43.1953 4.32617 43.1953C3.64258 43.1953 3.0306 43.0586 2.49023 42.7852C1.94987 42.5117 1.52344 42.1374 1.21094 41.6621C0.898438 41.1868 0.742188 40.6465 0.742188 40.041C0.742188 39.4811 0.846354 38.9863 1.05469 38.5566C1.26302 38.127 1.57227 37.7656 1.98242 37.4727C2.39258 37.1732 2.90039 36.9486 3.50586 36.7988C4.11784 36.6426 4.81771 36.5645 5.60547 36.5645H7.34375ZM14.4336 34.6895V43H11.8555V32.4336H14.2773L14.4336 34.6895ZM14.0234 37.3359H13.2617C13.2682 36.5677 13.3724 35.8711 13.5742 35.2461C13.776 34.6211 14.0592 34.084 14.4238 33.6348C14.7949 33.1855 15.2344 32.8405 15.7422 32.5996C16.25 32.3587 16.8164 32.2383 17.4414 32.2383C17.9492 32.2383 18.4082 32.3099 18.8184 32.4531C19.2285 32.5964 19.5801 32.8242 19.873 33.1367C20.1725 33.4492 20.4004 33.8594 20.5566 34.3672C20.7194 34.8685 20.8008 35.487 20.8008 36.2227V43H18.2031V36.2031C18.2031 35.7214 18.1315 35.3405 17.9883 35.0605C17.8516 34.7806 17.6497 34.582 17.3828 34.4648C17.1224 34.3477 16.8001 34.2891 16.416 34.2891C16.0189 34.2891 15.6706 34.3704 15.3711 34.5332C15.0781 34.6895 14.8307 34.9076 14.6289 35.1875C14.4336 35.4674 14.2839 35.7897 14.1797 36.1543C14.0755 36.5189 14.0234 36.9128 14.0234 37.3359ZM29.4141 40.7539V28H32.0117V43H29.668L29.4141 40.7539ZM22.627 37.8438V37.6387C22.627 36.8314 22.7181 36.099 22.9004 35.4414C23.0892 34.7773 23.3626 34.2077 23.7207 33.7324C24.0788 33.2572 24.5117 32.8893 25.0195 32.6289C25.5339 32.3685 26.1165 32.2383 26.7676 32.2383C27.3991 32.2383 27.9492 32.3652 28.418 32.6191C28.8932 32.873 29.2969 33.2344 29.6289 33.7031C29.9674 34.1719 30.2376 34.7285 30.4395 35.373C30.6413 36.0111 30.7878 36.7142 30.8789 37.4824V38.0391C30.7878 38.7878 30.6413 39.4746 30.4395 40.0996C30.2376 40.7246 29.9674 41.2715 29.6289 41.7402C29.2969 42.2025 28.8932 42.5605 28.418 42.8145C27.9427 43.0684 27.3861 43.1953 26.748 43.1953C26.1035 43.1953 25.5241 43.0618 25.0098 42.7949C24.502 42.528 24.069 42.1536 23.7109 41.6719C23.3594 41.1901 23.0892 40.6237 22.9004 39.9727C22.7181 39.3216 22.627 38.612 22.627 37.8438ZM25.2148 37.6387V37.8438C25.2148 38.2995 25.2539 38.7259 25.332 39.123C25.4102 39.5202 25.5371 39.8717 25.7129 40.1777C25.8887 40.4772 26.1133 40.7116 26.3867 40.8809C26.6667 41.0501 27.0052 41.1348 27.4023 41.1348C27.9102 41.1348 28.3268 41.0241 28.6523 40.8027C28.9844 40.5749 29.2415 40.2656 29.4238 39.875C29.6061 39.4779 29.7233 39.0319 29.7754 38.5371V37.0039C29.7493 36.6133 29.681 36.252 29.5703 35.9199C29.4661 35.5879 29.3164 35.3014 29.1211 35.0605C28.9323 34.8197 28.6979 34.6309 28.418 34.4941C28.138 34.3574 27.806 34.2891 27.4219 34.2891C27.0247 34.2891 26.6862 34.377 26.4062 34.5527C26.1263 34.722 25.8984 34.9596 25.7227 35.2656C25.5469 35.5716 25.4167 35.9264 25.332 36.3301C25.2539 36.7337 25.2148 37.1699 25.2148 37.6387ZM50.6152 35.6465V41.1836C50.4069 41.4505 50.0781 41.7402 49.6289 42.0527C49.1862 42.3652 48.6068 42.6354 47.8906 42.8633C47.1745 43.0846 46.2956 43.1953 45.2539 43.1953C44.349 43.1953 43.5221 43.0456 42.7734 42.7461C42.0247 42.4401 41.3802 41.9941 40.8398 41.4082C40.2995 40.8223 39.8828 40.1061 39.5898 39.2598C39.2969 38.4134 39.1504 37.4466 39.1504 36.3594V35.4219C39.1504 34.3346 39.2871 33.3678 39.5605 32.5215C39.8405 31.6751 40.2376 30.959 40.752 30.373C41.2728 29.7871 41.8945 29.3411 42.6172 29.0352C43.3464 28.7292 44.1602 28.5762 45.0586 28.5762C46.263 28.5762 47.2526 28.7747 48.0273 29.1719C48.8086 29.569 49.4076 30.1159 49.8242 30.8125C50.2409 31.5026 50.5013 32.2969 50.6055 33.1953H47.9883C47.9167 32.7005 47.7734 32.2676 47.5586 31.8965C47.3438 31.5189 47.0378 31.2259 46.6406 31.0176C46.25 30.8027 45.7422 30.6953 45.1172 30.6953C44.5898 30.6953 44.1243 30.7995 43.7207 31.0078C43.3171 31.2161 42.9785 31.5189 42.7051 31.916C42.4316 32.3132 42.2233 32.8047 42.0801 33.3906C41.9434 33.9766 41.875 34.6471 41.875 35.4023V36.3594C41.875 37.1211 41.9531 37.7982 42.1094 38.3906C42.2656 38.9766 42.4902 39.4714 42.7832 39.875C43.0827 40.2721 43.4505 40.5749 43.8867 40.7832C44.3294 40.985 44.8307 41.0859 45.3906 41.0859C45.8984 41.0859 46.3184 41.0436 46.6504 40.959C46.9889 40.8678 47.2591 40.7604 47.4609 40.6367C47.6628 40.513 47.819 40.3926 47.9297 40.2754V37.6094H45.1074V35.6465H50.6152ZM55.5371 34.5918V43H52.959V32.4336H55.4004L55.5371 34.5918ZM58.75 32.3652L58.7109 34.7676C58.5677 34.7415 58.4049 34.722 58.2227 34.709C58.0469 34.696 57.8809 34.6895 57.7246 34.6895C57.3275 34.6895 56.9792 34.7448 56.6797 34.8555C56.3802 34.9596 56.1296 35.1126 55.9277 35.3145C55.7324 35.5163 55.5827 35.7637 55.4785 36.0566C55.3743 36.3431 55.3158 36.6686 55.3027 37.0332L54.7461 36.9648C54.7461 36.2943 54.8145 35.6725 54.9512 35.0996C55.0879 34.5267 55.2865 34.0254 55.5469 33.5957C55.8073 33.166 56.1328 32.834 56.5234 32.5996C56.9206 32.3587 57.3763 32.2383 57.8906 32.2383C58.0339 32.2383 58.1868 32.2513 58.3496 32.2773C58.5189 32.2969 58.6523 32.3262 58.75 32.3652ZM64.7168 43.1953C63.916 43.1953 63.1966 43.0651 62.5586 42.8047C61.9206 42.5443 61.377 42.1829 60.9277 41.7207C60.485 41.252 60.1432 40.7083 59.9023 40.0898C59.668 39.4648 59.5508 38.7943 59.5508 38.0781V37.6875C59.5508 36.8737 59.668 36.1348 59.9023 35.4707C60.1367 34.8001 60.4688 34.224 60.8984 33.7422C61.3281 33.2604 61.8424 32.8893 62.4414 32.6289C63.0404 32.3685 63.7012 32.2383 64.4238 32.2383C65.1725 32.2383 65.8333 32.3652 66.4062 32.6191C66.9792 32.8665 67.4577 33.2181 67.8418 33.6738C68.2259 34.1296 68.5156 34.6764 68.7109 35.3145C68.9062 35.946 69.0039 36.6458 69.0039 37.4141V38.498H60.7227V36.7207H66.4648V36.5254C66.4518 36.1152 66.3737 35.7409 66.2305 35.4023C66.0872 35.0573 65.8659 34.7839 65.5664 34.582C65.2669 34.3737 64.8796 34.2695 64.4043 34.2695C64.0202 34.2695 63.6849 34.3542 63.3984 34.5234C63.1185 34.6862 62.8841 34.9206 62.6953 35.2266C62.513 35.526 62.3763 35.8841 62.2852 36.3008C62.194 36.7174 62.1484 37.1797 62.1484 37.6875V38.0781C62.1484 38.5208 62.207 38.931 62.3242 39.3086C62.4479 39.6862 62.627 40.015 62.8613 40.2949C63.1022 40.5684 63.3887 40.7832 63.7207 40.9395C64.0592 41.0892 64.4434 41.1641 64.873 41.1641C65.4134 41.1641 65.9017 41.0599 66.3379 40.8516C66.7806 40.6367 67.1647 40.321 67.4902 39.9043L68.7891 41.252C68.5677 41.5775 68.2682 41.89 67.8906 42.1895C67.5195 42.4889 67.0703 42.7331 66.543 42.9219C66.0156 43.1042 65.4069 43.1953 64.7168 43.1953ZM75.4785 43.1953C74.6777 43.1953 73.9583 43.0651 73.3203 42.8047C72.6823 42.5443 72.1387 42.1829 71.6895 41.7207C71.2467 41.252 70.9049 40.7083 70.6641 40.0898C70.4297 39.4648 70.3125 38.7943 70.3125 38.0781V37.6875C70.3125 36.8737 70.4297 36.1348 70.6641 35.4707C70.8984 34.8001 71.2305 34.224 71.6602 33.7422C72.0898 33.2604 72.6042 32.8893 73.2031 32.6289C73.8021 32.3685 74.4629 32.2383 75.1855 32.2383C75.9342 32.2383 76.5951 32.3652 77.168 32.6191C77.7409 32.8665 78.2194 33.2181 78.6035 33.6738C78.9876 34.1296 79.2773 34.6764 79.4727 35.3145C79.668 35.946 79.7656 36.6458 79.7656 37.4141V38.498H71.4844V36.7207H77.2266V36.5254C77.2135 36.1152 77.1354 35.7409 76.9922 35.4023C76.849 35.0573 76.6276 34.7839 76.3281 34.582C76.0286 34.3737 75.6413 34.2695 75.166 34.2695C74.7819 34.2695 74.4466 34.3542 74.1602 34.5234C73.8802 34.6862 73.6458 34.9206 73.457 35.2266C73.2747 35.526 73.138 35.8841 73.0469 36.3008C72.9557 36.7174 72.9102 37.1797 72.9102 37.6875V38.0781C72.9102 38.5208 72.9688 38.931 73.0859 39.3086C73.2096 39.6862 73.3887 40.015 73.623 40.2949C73.8639 40.5684 74.1504 40.7832 74.4824 40.9395C74.821 41.0892 75.2051 41.1641 75.6348 41.1641C76.1751 41.1641 76.6634 41.0599 77.0996 40.8516C77.5423 40.6367 77.9264 40.321 78.252 39.9043L79.5508 41.252C79.3294 41.5775 79.0299 41.89 78.6523 42.1895C78.2812 42.4889 77.832 42.7331 77.3047 42.9219C76.7773 43.1042 76.1686 43.1953 75.4785 43.1953ZM86.4941 32.4336V34.2891H80.4395V32.4336H86.4941ZM82.0605 29.8359H84.6484V39.9531C84.6484 40.2656 84.6908 40.5065 84.7754 40.6758C84.86 40.8451 84.987 40.959 85.1562 41.0176C85.3255 41.0762 85.5273 41.1055 85.7617 41.1055C85.931 41.1055 86.0872 41.0957 86.2305 41.0762C86.3737 41.0566 86.4941 41.0371 86.5918 41.0176L86.6016 42.9512C86.3867 43.0228 86.1426 43.0814 85.8691 43.127C85.6022 43.1725 85.2995 43.1953 84.9609 43.1953C84.3815 43.1953 83.8737 43.0977 83.4375 42.9023C83.0013 42.7005 82.6628 42.3783 82.4219 41.9355C82.181 41.4863 82.0605 40.8939 82.0605 40.1582V29.8359ZM91.1523 28.7812L90.8691 38.7324H88.6914L88.4082 28.7812H91.1523ZM88.3301 41.7988C88.3301 41.4147 88.4603 41.0924 88.7207 40.832C88.9876 40.5651 89.3457 40.4316 89.7949 40.4316C90.2441 40.4316 90.599 40.5651 90.8594 40.832C91.1263 41.0924 91.2598 41.4147 91.2598 41.7988C91.2598 42.1764 91.1263 42.4954 90.8594 42.7559C90.599 43.0163 90.2441 43.1465 89.7949 43.1465C89.3457 43.1465 88.9876 43.0163 88.7207 42.7559C88.4603 42.4954 88.3301 42.1764 88.3301 41.7988Z" fill="#212121"/>
<path d="M5.10645 61.0469V71H3.4043V61.0469H5.10645ZM8.23047 61.0469V62.4141H0.307617V61.0469H8.23047ZM11.9834 71.1367C11.4365 71.1367 10.9421 71.0479 10.5 70.8701C10.0625 70.6878 9.6888 70.4349 9.37891 70.1113C9.07357 69.7878 8.83887 69.4072 8.6748 68.9697C8.51074 68.5322 8.42871 68.0605 8.42871 67.5547V67.2812C8.42871 66.7025 8.51302 66.1784 8.68164 65.709C8.85026 65.2396 9.08496 64.8385 9.38574 64.5059C9.68652 64.1686 10.042 63.9111 10.4521 63.7334C10.8623 63.5557 11.3066 63.4668 11.7852 63.4668C12.3138 63.4668 12.7764 63.5557 13.1729 63.7334C13.5693 63.9111 13.8975 64.1618 14.1572 64.4854C14.4215 64.8044 14.6175 65.1849 14.7451 65.627C14.8773 66.069 14.9434 66.5566 14.9434 67.0898V67.7939H9.22852V66.6113H13.3164V66.4814C13.3073 66.1852 13.248 65.9072 13.1387 65.6475C13.0339 65.3877 12.8721 65.1781 12.6533 65.0186C12.4346 64.859 12.1429 64.7793 11.7783 64.7793C11.5049 64.7793 11.2611 64.8385 11.0469 64.957C10.8372 65.071 10.6618 65.2373 10.5205 65.4561C10.3792 65.6748 10.2699 65.9391 10.1924 66.249C10.1195 66.5544 10.083 66.8984 10.083 67.2812V67.5547C10.083 67.8783 10.1263 68.179 10.2129 68.457C10.304 68.7305 10.4362 68.9697 10.6094 69.1748C10.7826 69.3799 10.9922 69.5417 11.2383 69.6602C11.4844 69.7741 11.7646 69.8311 12.0791 69.8311C12.4756 69.8311 12.8288 69.7513 13.1387 69.5918C13.4486 69.4323 13.7174 69.2067 13.9453 68.915L14.8135 69.7559C14.654 69.9883 14.4466 70.2116 14.1914 70.4258C13.9362 70.6354 13.624 70.8063 13.2549 70.9385C12.8903 71.0706 12.4665 71.1367 11.9834 71.1367ZM19.25 69.8242C19.5189 69.8242 19.7604 69.7718 19.9746 69.667C20.1934 69.5576 20.3688 69.4072 20.501 69.2158C20.6377 69.0244 20.7129 68.8034 20.7266 68.5527H22.2783C22.2692 69.0312 22.1279 69.4665 21.8545 69.8584C21.5811 70.2503 21.2188 70.5625 20.7676 70.7949C20.3164 71.0228 19.8174 71.1367 19.2705 71.1367C18.7054 71.1367 18.2132 71.041 17.7939 70.8496C17.3747 70.6536 17.026 70.3848 16.748 70.043C16.4701 69.7012 16.2604 69.307 16.1191 68.8604C15.9824 68.4137 15.9141 67.9352 15.9141 67.4248V67.1855C15.9141 66.6751 15.9824 66.1966 16.1191 65.75C16.2604 65.2988 16.4701 64.9023 16.748 64.5605C17.026 64.2188 17.3747 63.9521 17.7939 63.7607C18.2132 63.5648 18.7031 63.4668 19.2637 63.4668C19.8561 63.4668 20.3757 63.5853 20.8223 63.8223C21.2689 64.0547 21.6198 64.3805 21.875 64.7998C22.1348 65.2145 22.2692 65.6976 22.2783 66.249H20.7266C20.7129 65.9756 20.6445 65.7295 20.5215 65.5107C20.403 65.2874 20.2344 65.1097 20.0156 64.9775C19.8014 64.8454 19.5439 64.7793 19.2432 64.7793C18.9105 64.7793 18.6348 64.8477 18.416 64.9844C18.1973 65.1165 18.0264 65.2988 17.9033 65.5312C17.7803 65.7591 17.6914 66.0166 17.6367 66.3037C17.5866 66.5863 17.5615 66.8802 17.5615 67.1855V67.4248C17.5615 67.7301 17.5866 68.0264 17.6367 68.3135C17.6868 68.6006 17.7734 68.8581 17.8965 69.0859C18.0241 69.3092 18.1973 69.4893 18.416 69.626C18.6348 69.7581 18.9128 69.8242 19.25 69.8242ZM25.1699 60.5V71H23.5293V60.5H25.1699ZM24.8828 67.0283L24.3496 67.0215C24.3542 66.5111 24.4248 66.0394 24.5615 65.6064C24.7028 65.1735 24.8988 64.7975 25.1494 64.4785C25.4046 64.1549 25.71 63.9066 26.0654 63.7334C26.4209 63.5557 26.8151 63.4668 27.248 63.4668C27.6126 63.4668 27.9408 63.5169 28.2324 63.6172C28.5286 63.7174 28.7839 63.8792 28.998 64.1025C29.2122 64.3213 29.374 64.6084 29.4834 64.9639C29.5973 65.3148 29.6543 65.7432 29.6543 66.249V71H28V66.2354C28 65.8799 27.9476 65.5973 27.8428 65.3877C27.7425 65.1781 27.5944 65.0277 27.3984 64.9365C27.2025 64.8408 26.9632 64.793 26.6807 64.793C26.3844 64.793 26.1224 64.8522 25.8945 64.9707C25.6712 65.0892 25.4844 65.251 25.334 65.4561C25.1836 65.6611 25.0697 65.8981 24.9922 66.167C24.9193 66.4359 24.8828 66.723 24.8828 67.0283ZM32.9561 65.1826V71H31.3086V63.6035H32.8604L32.9561 65.1826ZM32.6621 67.0283L32.1289 67.0215C32.1335 66.4974 32.2064 66.0166 32.3477 65.5791C32.4935 65.1416 32.694 64.7656 32.9492 64.4512C33.209 64.1367 33.5189 63.8952 33.8789 63.7266C34.2389 63.5534 34.64 63.4668 35.082 63.4668C35.4375 63.4668 35.7588 63.5169 36.0459 63.6172C36.3376 63.7129 36.5859 63.8701 36.791 64.0889C37.0007 64.3076 37.1602 64.5924 37.2695 64.9434C37.3789 65.2897 37.4336 65.7158 37.4336 66.2217V71H35.7793V66.2148C35.7793 65.8594 35.7269 65.5791 35.6221 65.374C35.5218 65.1644 35.3737 65.0163 35.1777 64.9297C34.9863 64.8385 34.7471 64.793 34.46 64.793C34.1774 64.793 33.9245 64.8522 33.7012 64.9707C33.4779 65.0892 33.2887 65.251 33.1338 65.4561C32.9834 65.6611 32.8672 65.8981 32.7852 66.167C32.7031 66.4359 32.6621 66.723 32.6621 67.0283ZM38.8008 67.3838V67.2266C38.8008 66.6934 38.8783 66.1989 39.0332 65.7432C39.1882 65.2829 39.4115 64.8841 39.7031 64.5469C39.9993 64.2051 40.3594 63.9408 40.7832 63.7539C41.2116 63.5625 41.6947 63.4668 42.2324 63.4668C42.7747 63.4668 43.2578 63.5625 43.6816 63.7539C44.11 63.9408 44.4723 64.2051 44.7686 64.5469C45.0648 64.8841 45.2904 65.2829 45.4453 65.7432C45.6003 66.1989 45.6777 66.6934 45.6777 67.2266V67.3838C45.6777 67.917 45.6003 68.4115 45.4453 68.8672C45.2904 69.3229 45.0648 69.7217 44.7686 70.0635C44.4723 70.4007 44.1123 70.665 43.6885 70.8564C43.2646 71.0433 42.7839 71.1367 42.2461 71.1367C41.7038 71.1367 41.2184 71.0433 40.79 70.8564C40.3662 70.665 40.0062 70.4007 39.71 70.0635C39.4137 69.7217 39.1882 69.3229 39.0332 68.8672C38.8783 68.4115 38.8008 67.917 38.8008 67.3838ZM40.4482 67.2266V67.3838C40.4482 67.7165 40.4824 68.0309 40.5508 68.3271C40.6191 68.6234 40.7262 68.8831 40.8721 69.1064C41.0179 69.3298 41.2048 69.5052 41.4326 69.6328C41.6605 69.7604 41.9316 69.8242 42.2461 69.8242C42.5514 69.8242 42.8158 69.7604 43.0391 69.6328C43.2669 69.5052 43.4538 69.3298 43.5996 69.1064C43.7454 68.8831 43.8525 68.6234 43.9209 68.3271C43.9938 68.0309 44.0303 67.7165 44.0303 67.3838V67.2266C44.0303 66.8984 43.9938 66.5885 43.9209 66.2969C43.8525 66.0007 43.7432 65.7386 43.5928 65.5107C43.4469 65.2829 43.2601 65.1051 43.0322 64.9775C42.8089 64.8454 42.5423 64.7793 42.2324 64.7793C41.9225 64.7793 41.6536 64.8454 41.4258 64.9775C41.2025 65.1051 41.0179 65.2829 40.8721 65.5107C40.7262 65.7386 40.6191 66.0007 40.5508 66.2969C40.4824 66.5885 40.4482 66.8984 40.4482 67.2266ZM48.8223 60.5V71H47.168V60.5H48.8223ZM50.3125 67.3838V67.2266C50.3125 66.6934 50.39 66.1989 50.5449 65.7432C50.6999 65.2829 50.9232 64.8841 51.2148 64.5469C51.5111 64.2051 51.8711 63.9408 52.2949 63.7539C52.7233 63.5625 53.2064 63.4668 53.7441 63.4668C54.2865 63.4668 54.7695 63.5625 55.1934 63.7539C55.6217 63.9408 55.984 64.2051 56.2803 64.5469C56.5765 64.8841 56.8021 65.2829 56.957 65.7432C57.112 66.1989 57.1895 66.6934 57.1895 67.2266V67.3838C57.1895 67.917 57.112 68.4115 56.957 68.8672C56.8021 69.3229 56.5765 69.7217 56.2803 70.0635C55.984 70.4007 55.624 70.665 55.2002 70.8564C54.7764 71.0433 54.2956 71.1367 53.7578 71.1367C53.2155 71.1367 52.7301 71.0433 52.3018 70.8564C51.8779 70.665 51.5179 70.4007 51.2217 70.0635C50.9255 69.7217 50.6999 69.3229 50.5449 68.8672C50.39 68.4115 50.3125 67.917 50.3125 67.3838ZM51.96 67.2266V67.3838C51.96 67.7165 51.9941 68.0309 52.0625 68.3271C52.1309 68.6234 52.238 68.8831 52.3838 69.1064C52.5296 69.3298 52.7165 69.5052 52.9443 69.6328C53.1722 69.7604 53.4434 69.8242 53.7578 69.8242C54.0632 69.8242 54.3275 69.7604 54.5508 69.6328C54.7786 69.5052 54.9655 69.3298 55.1113 69.1064C55.2572 68.8831 55.3643 68.6234 55.4326 68.3271C55.5055 68.0309 55.542 67.7165 55.542 67.3838V67.2266C55.542 66.8984 55.5055 66.5885 55.4326 66.2969C55.3643 66.0007 55.2549 65.7386 55.1045 65.5107C54.9587 65.2829 54.7718 65.1051 54.5439 64.9775C54.3206 64.8454 54.054 64.7793 53.7441 64.7793C53.4342 64.7793 53.1654 64.8454 52.9375 64.9775C52.7142 65.1051 52.5296 65.2829 52.3838 65.5107C52.238 65.7386 52.1309 66.0007 52.0625 66.2969C51.9941 66.5885 51.96 66.8984 51.96 67.2266ZM63.3076 63.6035H64.8047V70.7949C64.8047 71.4603 64.6634 72.0254 64.3809 72.4902C64.0983 72.9551 63.7041 73.3083 63.1982 73.5498C62.6924 73.7959 62.1068 73.9189 61.4414 73.9189C61.1589 73.9189 60.8444 73.8779 60.498 73.7959C60.1562 73.7139 59.8236 73.5817 59.5 73.3994C59.181 73.2217 58.9144 72.987 58.7002 72.6953L59.4727 71.7246C59.737 72.0391 60.0286 72.2692 60.3477 72.415C60.6667 72.5609 61.0016 72.6338 61.3525 72.6338C61.7308 72.6338 62.0521 72.5632 62.3164 72.4219C62.5853 72.2852 62.7926 72.0824 62.9385 71.8135C63.0843 71.5446 63.1572 71.2165 63.1572 70.8291V65.2783L63.3076 63.6035ZM58.2832 67.3838V67.2402C58.2832 66.6797 58.3516 66.1693 58.4883 65.709C58.625 65.2441 58.821 64.8454 59.0762 64.5127C59.3314 64.1755 59.6413 63.918 60.0059 63.7402C60.3704 63.5579 60.7829 63.4668 61.2432 63.4668C61.7217 63.4668 62.1296 63.5534 62.4668 63.7266C62.8086 63.8997 63.0934 64.1481 63.3213 64.4717C63.5492 64.7907 63.7269 65.1735 63.8545 65.6201C63.9867 66.0622 64.0846 66.5544 64.1484 67.0967V67.5547C64.0892 68.0833 63.9889 68.5664 63.8477 69.0039C63.7064 69.4414 63.5195 69.8197 63.2871 70.1387C63.0547 70.4577 62.7676 70.7038 62.4258 70.877C62.0885 71.0501 61.6898 71.1367 61.2295 71.1367C60.7783 71.1367 60.3704 71.0433 60.0059 70.8564C59.6458 70.6696 59.3359 70.4076 59.0762 70.0703C58.821 69.7331 58.625 69.3366 58.4883 68.8809C58.3516 68.4206 58.2832 67.9215 58.2832 67.3838ZM59.9307 67.2402V67.3838C59.9307 67.721 59.9626 68.0355 60.0264 68.3271C60.0947 68.6188 60.1973 68.8763 60.334 69.0996C60.4753 69.3184 60.653 69.4915 60.8672 69.6191C61.0859 69.7422 61.3434 69.8037 61.6396 69.8037C62.027 69.8037 62.3438 69.7217 62.5898 69.5576C62.8405 69.3936 63.0319 69.1725 63.1641 68.8945C63.3008 68.612 63.3965 68.2975 63.4512 67.9512V66.7139C63.4238 66.445 63.3669 66.1943 63.2803 65.9619C63.1982 65.7295 63.0866 65.5267 62.9453 65.3535C62.804 65.1758 62.6263 65.0391 62.4121 64.9434C62.1979 64.8431 61.945 64.793 61.6533 64.793C61.3571 64.793 61.0996 64.8568 60.8809 64.9844C60.6621 65.112 60.4821 65.2874 60.3408 65.5107C60.2041 65.734 60.1016 65.9938 60.0332 66.29C59.9648 66.5863 59.9307 66.903 59.9307 67.2402ZM68.6602 70.1934L70.6699 63.6035H72.4336L69.4668 72.1279C69.3984 72.3102 69.3096 72.5085 69.2002 72.7227C69.0908 72.9368 68.9473 73.1396 68.7695 73.3311C68.5964 73.527 68.3799 73.6842 68.1201 73.8027C67.8604 73.9258 67.5459 73.9873 67.1768 73.9873C67.0309 73.9873 66.8896 73.9736 66.7529 73.9463C66.6208 73.9235 66.4954 73.8984 66.377 73.8711L66.3701 72.6133C66.4157 72.6178 66.4704 72.6224 66.5342 72.627C66.6025 72.6315 66.6572 72.6338 66.6982 72.6338C66.9717 72.6338 67.1995 72.5996 67.3818 72.5312C67.5641 72.4674 67.7122 72.3626 67.8262 72.2168C67.9447 72.071 68.0449 71.875 68.127 71.6289L68.6602 70.1934ZM67.5254 63.6035L69.2822 69.1406L69.5762 70.877L68.4346 71.1709L65.748 63.6035H67.5254ZM76.8975 67.0693V66.9531C76.8975 65.9779 77.0023 65.0938 77.2119 64.3008C77.4261 63.5033 77.7041 62.806 78.0459 62.209C78.3877 61.6074 78.7523 61.1107 79.1396 60.7188C79.5316 60.3223 79.9076 60.0374 80.2676 59.8643L80.5957 60.8076C80.3314 61.0036 80.0671 61.2747 79.8027 61.6211C79.543 61.9674 79.3037 62.3936 79.085 62.8994C78.8708 63.4007 78.6976 63.9886 78.5654 64.6631C78.4378 65.333 78.374 66.0918 78.374 66.9395V67.083C78.374 67.9307 78.4378 68.6917 78.5654 69.3662C78.6976 70.0361 78.8708 70.624 79.085 71.1299C79.3037 71.6357 79.543 72.0641 79.8027 72.415C80.0671 72.7705 80.3314 73.0531 80.5957 73.2627L80.2676 74.165C79.9076 73.9873 79.5316 73.7002 79.1396 73.3037C78.7523 72.9118 78.3877 72.415 78.0459 71.8135C77.7041 71.2165 77.4261 70.5215 77.2119 69.7285C77.0023 68.931 76.8975 68.0446 76.8975 67.0693ZM83.3506 66.3721L82.0381 66.0508L82.5781 61.0469H87.9443V62.4414H83.9453L83.6719 64.8818C83.8268 64.7907 84.041 64.7018 84.3145 64.6152C84.5879 64.5241 84.9001 64.4785 85.251 64.4785C85.7204 64.4785 86.1396 64.556 86.5088 64.7109C86.8825 64.8613 87.1992 65.0824 87.459 65.374C87.7188 65.6611 87.917 66.012 88.0537 66.4268C88.1904 66.8369 88.2588 67.2995 88.2588 67.8145C88.2588 68.2747 88.1904 68.7054 88.0537 69.1064C87.9215 69.5075 87.721 69.8607 87.4521 70.166C87.1833 70.4714 86.8438 70.7106 86.4336 70.8838C86.028 71.0524 85.5472 71.1367 84.9912 71.1367C84.5765 71.1367 84.1777 71.0775 83.7949 70.959C83.4167 70.8359 83.0771 70.6559 82.7764 70.4189C82.4756 70.1774 82.234 69.8812 82.0518 69.5303C81.8695 69.1748 81.7646 68.7669 81.7373 68.3066H83.3506C83.3916 68.6302 83.4805 68.9059 83.6172 69.1338C83.7585 69.3571 83.9453 69.528 84.1777 69.6465C84.4102 69.765 84.679 69.8242 84.9844 69.8242C85.2624 69.8242 85.5016 69.7764 85.7021 69.6807C85.9027 69.5804 86.069 69.4391 86.2012 69.2568C86.3379 69.07 86.4382 68.8512 86.502 68.6006C86.5703 68.3499 86.6045 68.0719 86.6045 67.7666C86.6045 67.4749 86.5658 67.2083 86.4883 66.9668C86.4154 66.7253 86.3037 66.5156 86.1533 66.3379C86.0075 66.1602 85.8229 66.0234 85.5996 65.9277C85.3763 65.8275 85.1188 65.7773 84.8271 65.7773C84.4352 65.7773 84.1344 65.8343 83.9248 65.9482C83.7197 66.0622 83.5283 66.2035 83.3506 66.3721ZM94.8213 60.5V71H93.167V60.5H94.8213ZM99.415 63.6035L96.1953 67.1719L94.4316 68.9766L94.001 67.582L95.334 65.9346L97.4258 63.6035H99.415ZM97.7812 71L95.3818 67.5273L96.4209 66.3721L99.6885 71H97.7812ZM102.108 65.1074V71H100.461V63.6035H102.013L102.108 65.1074ZM101.842 67.0283L101.281 67.0215C101.281 66.5111 101.345 66.0394 101.473 65.6064C101.6 65.1735 101.787 64.7975 102.033 64.4785C102.279 64.1549 102.585 63.9066 102.949 63.7334C103.318 63.5557 103.744 63.4668 104.228 63.4668C104.565 63.4668 104.872 63.5169 105.15 63.6172C105.433 63.7129 105.677 63.8656 105.882 64.0752C106.091 64.2848 106.251 64.5537 106.36 64.8818C106.474 65.21 106.531 65.6064 106.531 66.0713V71H104.884V66.2148C104.884 65.8548 104.829 65.5723 104.72 65.3672C104.615 65.1621 104.462 65.0163 104.262 64.9297C104.066 64.8385 103.831 64.793 103.558 64.793C103.248 64.793 102.983 64.8522 102.765 64.9707C102.55 65.0892 102.375 65.251 102.238 65.4561C102.102 65.6611 102.001 65.8981 101.938 66.167C101.874 66.4359 101.842 66.723 101.842 67.0283ZM106.429 66.5908L105.656 66.7617C105.656 66.3151 105.718 65.8936 105.841 65.4971C105.968 65.096 106.153 64.7451 106.395 64.4443C106.641 64.139 106.944 63.8997 107.304 63.7266C107.664 63.5534 108.076 63.4668 108.541 63.4668C108.919 63.4668 109.257 63.5192 109.553 63.624C109.854 63.7243 110.109 63.8838 110.318 64.1025C110.528 64.3213 110.688 64.6061 110.797 64.957C110.906 65.3034 110.961 65.7227 110.961 66.2148V71H109.307V66.208C109.307 65.8343 109.252 65.5449 109.143 65.3398C109.038 65.1348 108.887 64.9935 108.691 64.916C108.495 64.834 108.261 64.793 107.987 64.793C107.732 64.793 107.507 64.8408 107.311 64.9365C107.119 65.0277 106.957 65.1576 106.825 65.3262C106.693 65.4902 106.593 65.6794 106.524 65.8936C106.461 66.1077 106.429 66.3402 106.429 66.5908ZM115.835 66.9531V67.0693C115.835 68.0309 115.726 68.9082 115.507 69.7012C115.293 70.4941 115.012 71.1914 114.666 71.793C114.324 72.3945 113.953 72.8958 113.552 73.2969C113.155 73.6979 112.775 73.9873 112.41 74.165L112.075 73.2627C112.34 73.0622 112.602 72.7865 112.861 72.4355C113.126 72.0892 113.365 71.6585 113.579 71.1436C113.798 70.6331 113.971 70.0407 114.099 69.3662C114.231 68.6917 114.297 67.9307 114.297 67.083V66.9395C114.297 66.0918 114.229 65.3307 114.092 64.6562C113.96 63.9772 113.782 63.3848 113.559 62.8789C113.335 62.3685 113.094 61.9378 112.834 61.5869C112.574 61.236 112.321 60.9626 112.075 60.7666L112.41 59.8643C112.775 60.0374 113.155 60.3245 113.552 60.7256C113.953 61.1266 114.324 61.6302 114.666 62.2363C115.012 62.8379 115.293 63.5352 115.507 64.3281C115.726 65.1211 115.835 65.9961 115.835 66.9531Z" fill="#707070"/>
<path fill-rule="evenodd" clip-rule="evenodd" d="M15.8333 88.583H4.16667C3.93655 88.583 3.75 88.7696 3.75 88.9997V99.833C3.75 100.063 3.93655 100.25 4.16667 100.25H15.8333C16.0634 100.25 16.25 100.063 16.25 99.833V88.9997C16.25 88.7696 16.0634 88.583 15.8333 88.583ZM4.16667 87.333C3.24619 87.333 2.5 88.0792 2.5 88.9997V99.833C2.5 100.754 3.24619 101.5 4.16667 101.5H15.8333C16.7538 101.5 17.5 100.754 17.5 99.833V88.9997C17.5 88.0792 16.7538 87.333 15.8333 87.333H4.16667Z" fill="#707070"/>
<path d="M5 86.5003C5 86.0401 5.3731 85.667 5.83333 85.667C6.29357 85.667 6.66667 86.0401 6.66667 86.5003V87.3337C6.66667 87.7939 6.29357 88.167 5.83333 88.167C5.3731 88.167 5 87.7939 5 87.3337V86.5003Z" fill="#707070"/>
<path d="M13.333 86.5003C13.333 86.0401 13.7061 85.667 14.1663 85.667C14.6266 85.667 14.9997 86.0401 14.9997 86.5003V87.3337C14.9997 87.7939 14.6266 88.167 14.1663 88.167C13.7061 88.167 13.333 87.7939 13.333 87.3337V86.5003Z" fill="#707070"/>
<path fill-rule="evenodd" clip-rule="evenodd" d="M15 91.292C15 91.6372 14.7202 91.917 14.375 91.917H5.625C5.27983 91.917 5 91.6372 5 91.292C5 90.9468 5.27983 90.667 5.625 90.667H14.375C14.7202 90.667 15 90.9468 15 91.292Z" fill="#707070"/>
<path d="M29.7734 95.9922L31.749 89.0469H32.7061L32.1523 91.7471L30.0264 99H29.0762L29.7734 95.9922ZM27.7295 89.0469L29.3018 95.8555L29.7734 99H28.8301L26.417 89.0469H27.7295ZM35.2627 95.8486L36.8008 89.0469H38.1201L35.7139 99H34.7705L35.2627 95.8486ZM32.8496 89.0469L34.7705 95.9922L35.4678 99H34.5176L32.4668 91.7471L31.9062 89.0469H32.8496ZM45.5562 97.9268V99H40.2857V97.9268H45.5562ZM40.5523 89.0469V99H39.233V89.0469H40.5523ZM44.859 93.3262V94.3994H40.2857V93.3262H44.859ZM45.4879 89.0469V90.127H40.2857V89.0469H45.4879ZM49.5334 99H47.4553L47.4689 97.9268H49.5334C50.2443 97.9268 50.8368 97.7786 51.3107 97.4824C51.7847 97.1816 52.1402 96.7624 52.3771 96.2246C52.6187 95.6823 52.7395 95.0488 52.7395 94.3242V93.7158C52.7395 93.1462 52.6711 92.6403 52.5344 92.1982C52.3977 91.7516 52.1971 91.3757 51.9328 91.0703C51.6685 90.7604 51.3449 90.5257 50.9621 90.3662C50.5839 90.2067 50.1486 90.127 49.6564 90.127H47.4143V89.0469H49.6564C50.3081 89.0469 50.9029 89.1562 51.4406 89.375C51.9784 89.5892 52.4409 89.9014 52.8283 90.3115C53.2202 90.7171 53.521 91.2093 53.7307 91.7881C53.9403 92.3623 54.0451 93.0094 54.0451 93.7295V94.3242C54.0451 95.0443 53.9403 95.6937 53.7307 96.2725C53.521 96.8467 53.218 97.3366 52.8215 97.7422C52.4296 98.1478 51.9556 98.46 51.3996 98.6787C50.8482 98.8929 50.2261 99 49.5334 99ZM48.1594 89.0469V99H46.84V89.0469H48.1594ZM55.9373 97.4961V98.5146C55.9373 98.9294 55.8325 99.3669 55.6229 99.8271C55.4132 100.292 55.1193 100.679 54.741 100.989L54.0232 100.49C54.1691 100.29 54.2921 100.085 54.3924 99.875C54.4926 99.6699 54.5678 99.4557 54.618 99.2324C54.6727 99.0137 54.7 98.7812 54.7 98.5352V97.4961H55.9373ZM60.9316 89.0469H62.21L65.4707 97.1611L68.7246 89.0469H70.0098L65.9629 99H64.9648L60.9316 89.0469ZM60.5146 89.0469H61.6426L61.8271 95.1172V99H60.5146V89.0469ZM69.292 89.0469H70.4199V99H69.1074V95.1172L69.292 89.0469ZM76.1949 89.9287L72.9 99H71.5533L75.3473 89.0469H76.2154L76.1949 89.9287ZM78.9566 99L75.6549 89.9287L75.6344 89.0469H76.5025L80.3102 99H78.9566ZM78.7857 95.3154V96.3955H73.1939V95.3154H78.7857ZM81.2932 89.0469H84.5881C85.3355 89.0469 85.9667 89.1608 86.4816 89.3887C87.0012 89.6165 87.3954 89.9538 87.6643 90.4004C87.9377 90.8424 88.0744 91.387 88.0744 92.0342C88.0744 92.4899 87.981 92.9069 87.7941 93.2852C87.6118 93.6589 87.3475 93.9779 87.0012 94.2422C86.6594 94.502 86.2492 94.6956 85.7707 94.8232L85.4016 94.9668H82.3049L82.2912 93.8936H84.6291C85.1031 93.8936 85.4973 93.8115 85.8117 93.6475C86.1262 93.4788 86.3632 93.2533 86.5227 92.9707C86.6822 92.6882 86.7619 92.376 86.7619 92.0342C86.7619 91.6514 86.6867 91.3164 86.5363 91.0293C86.3859 90.7422 86.149 90.5212 85.8254 90.3662C85.5064 90.2067 85.0939 90.127 84.5881 90.127H82.6125V99H81.2932V89.0469ZM87.1105 99L84.6906 94.4883L86.0646 94.4814L88.5187 98.918V99H87.1105ZM96.5209 88.9922V99H95.2562V90.5713L92.7064 91.501V90.3594L96.3227 88.9922H96.5209ZM101.735 93.4014H102.638C103.08 93.4014 103.444 93.3285 103.731 93.1826C104.023 93.0322 104.24 92.8294 104.381 92.5742C104.527 92.3145 104.6 92.0228 104.6 91.6992C104.6 91.3164 104.536 90.9951 104.408 90.7354C104.281 90.4756 104.089 90.2796 103.834 90.1475C103.579 90.0153 103.255 89.9492 102.863 89.9492C102.508 89.9492 102.193 90.0199 101.92 90.1611C101.651 90.2979 101.439 90.4938 101.284 90.749C101.134 91.0042 101.059 91.305 101.059 91.6514H99.7939C99.7939 91.1455 99.9215 90.6852 100.177 90.2705C100.432 89.8558 100.79 89.5254 101.25 89.2793C101.715 89.0332 102.253 88.9102 102.863 88.9102C103.465 88.9102 103.991 89.0173 104.442 89.2314C104.894 89.4411 105.244 89.7555 105.495 90.1748C105.746 90.5895 105.871 91.1068 105.871 91.7266C105.871 91.9772 105.812 92.2461 105.693 92.5332C105.579 92.8158 105.399 93.0801 105.153 93.3262C104.912 93.5723 104.597 93.7751 104.21 93.9346C103.823 94.0895 103.358 94.167 102.815 94.167H101.735V93.4014ZM101.735 94.4404V93.6816H102.815C103.449 93.6816 103.973 93.7568 104.388 93.9072C104.802 94.0576 105.128 94.2581 105.365 94.5088C105.607 94.7594 105.775 95.0352 105.871 95.3359C105.971 95.6322 106.021 95.9284 106.021 96.2246C106.021 96.6895 105.942 97.1019 105.782 97.4619C105.627 97.8219 105.406 98.1273 105.119 98.3779C104.837 98.6286 104.504 98.8177 104.121 98.9453C103.738 99.0729 103.321 99.1367 102.87 99.1367C102.437 99.1367 102.029 99.0752 101.646 98.9521C101.268 98.8291 100.933 98.6514 100.642 98.4189C100.35 98.182 100.122 97.8926 99.958 97.5508C99.7939 97.2044 99.7119 96.8102 99.7119 96.3682H100.977C100.977 96.7145 101.052 97.0176 101.202 97.2773C101.357 97.5371 101.576 97.7399 101.858 97.8857C102.146 98.027 102.483 98.0977 102.87 98.0977C103.257 98.0977 103.59 98.0316 103.868 97.8994C104.151 97.7627 104.367 97.5576 104.518 97.2842C104.673 97.0107 104.75 96.6667 104.75 96.252C104.75 95.8372 104.663 95.4977 104.49 95.2334C104.317 94.9645 104.071 94.7663 103.752 94.6387C103.438 94.5065 103.066 94.4404 102.638 94.4404H101.735ZM110.722 94.0166C110.722 93.8024 110.788 93.6224 110.92 93.4766C111.052 93.3262 111.246 93.251 111.501 93.251C111.756 93.251 111.95 93.3262 112.082 93.4766C112.219 93.6224 112.287 93.8024 112.287 94.0166C112.287 94.2262 112.219 94.404 112.082 94.5498C111.95 94.6911 111.756 94.7617 111.501 94.7617C111.246 94.7617 111.052 94.6911 110.92 94.5498C110.788 94.404 110.722 94.2262 110.722 94.0166ZM121.828 89.0332H121.937V90.1064H121.828C121.158 90.1064 120.597 90.2158 120.146 90.4346C119.695 90.6488 119.337 90.9382 119.073 91.3027C118.808 91.6628 118.617 92.0684 118.498 92.5195C118.385 92.9707 118.328 93.4287 118.328 93.8936V95.3564C118.328 95.7985 118.38 96.1904 118.485 96.5322C118.59 96.8695 118.733 97.1543 118.915 97.3867C119.098 97.6191 119.303 97.7946 119.531 97.9131C119.763 98.0316 120.005 98.0908 120.255 98.0908C120.547 98.0908 120.807 98.0361 121.035 97.9268C121.262 97.8128 121.454 97.6556 121.609 97.4551C121.768 97.25 121.889 97.0085 121.971 96.7305C122.053 96.4525 122.094 96.1471 122.094 95.8145C122.094 95.5182 122.058 95.2334 121.985 94.96C121.912 94.682 121.8 94.4359 121.65 94.2217C121.499 94.0029 121.31 93.832 121.082 93.709C120.859 93.5814 120.593 93.5176 120.283 93.5176C119.932 93.5176 119.604 93.6042 119.298 93.7773C118.997 93.946 118.749 94.1693 118.553 94.4473C118.362 94.7207 118.252 95.0192 118.225 95.3428L117.555 95.3359C117.619 94.8255 117.737 94.3903 117.911 94.0303C118.088 93.6657 118.307 93.3695 118.567 93.1416C118.831 92.9092 119.125 92.7406 119.449 92.6357C119.777 92.5264 120.123 92.4717 120.488 92.4717C120.984 92.4717 121.413 92.5651 121.773 92.752C122.133 92.9388 122.429 93.1895 122.662 93.5039C122.894 93.8138 123.065 94.1647 123.174 94.5566C123.288 94.944 123.345 95.3428 123.345 95.7529C123.345 96.2223 123.279 96.6621 123.147 97.0723C123.015 97.4824 122.816 97.8424 122.552 98.1523C122.292 98.4622 121.971 98.7038 121.588 98.877C121.205 99.0501 120.761 99.1367 120.255 99.1367C119.718 99.1367 119.248 99.0273 118.847 98.8086C118.446 98.5853 118.113 98.2891 117.849 97.9199C117.585 97.5508 117.386 97.1406 117.254 96.6895C117.122 96.2383 117.056 95.7803 117.056 95.3154V94.7207C117.056 94.0189 117.127 93.3307 117.268 92.6562C117.409 91.9818 117.653 91.3711 117.999 90.8242C118.35 90.2773 118.836 89.8421 119.455 89.5186C120.075 89.195 120.866 89.0332 121.828 89.0332ZM124.581 98.3301C124.581 98.1159 124.647 97.9359 124.779 97.79C124.916 97.6396 125.112 97.5645 125.367 97.5645C125.622 97.5645 125.816 97.6396 125.948 97.79C126.085 97.9359 126.153 98.1159 126.153 98.3301C126.153 98.5397 126.085 98.7174 125.948 98.8633C125.816 99.0091 125.622 99.082 125.367 99.082C125.112 99.082 124.916 99.0091 124.779 98.8633C124.647 98.7174 124.581 98.5397 124.581 98.3301ZM124.588 92.2939C124.588 92.0798 124.654 91.8997 124.786 91.7539C124.923 91.6035 125.119 91.5283 125.374 91.5283C125.629 91.5283 125.823 91.6035 125.955 91.7539C126.092 91.8997 126.16 92.0798 126.16 92.2939C126.16 92.5036 126.092 92.6813 125.955 92.8271C125.823 92.973 125.629 93.0459 125.374 93.0459C125.119 93.0459 124.923 92.973 124.786 92.8271C124.654 92.6813 124.588 92.5036 124.588 92.2939ZM129.385 93.4014H130.288C130.73 93.4014 131.094 93.3285 131.381 93.1826C131.673 93.0322 131.89 92.8294 132.031 92.5742C132.177 92.3145 132.25 92.0228 132.25 91.6992C132.25 91.3164 132.186 90.9951 132.058 90.7354C131.931 90.4756 131.739 90.2796 131.484 90.1475C131.229 90.0153 130.905 89.9492 130.513 89.9492C130.158 89.9492 129.843 90.0199 129.57 90.1611C129.301 90.2979 129.089 90.4938 128.934 90.749C128.784 91.0042 128.709 91.305 128.709 91.6514H127.444C127.444 91.1455 127.572 90.6852 127.827 90.2705C128.082 89.8558 128.44 89.5254 128.9 89.2793C129.365 89.0332 129.903 88.9102 130.513 88.9102C131.115 88.9102 131.641 89.0173 132.092 89.2314C132.544 89.4411 132.894 89.7555 133.145 90.1748C133.396 90.5895 133.521 91.1068 133.521 91.7266C133.521 91.9772 133.462 92.2461 133.343 92.5332C133.229 92.8158 133.049 93.0801 132.803 93.3262C132.562 93.5723 132.247 93.7751 131.86 93.9346C131.473 94.0895 131.008 94.167 130.465 94.167H129.385V93.4014ZM129.385 94.4404V93.6816H130.465C131.099 93.6816 131.623 93.7568 132.038 93.9072C132.452 94.0576 132.778 94.2581 133.015 94.5088C133.257 94.7594 133.425 95.0352 133.521 95.3359C133.621 95.6322 133.671 95.9284 133.671 96.2246C133.671 96.6895 133.592 97.1019 133.432 97.4619C133.277 97.8219 133.056 98.1273 132.769 98.3779C132.487 98.6286 132.154 98.8177 131.771 98.9453C131.388 99.0729 130.971 99.1367 130.52 99.1367C130.087 99.1367 129.679 99.0752 129.296 98.9521C128.918 98.8291 128.583 98.6514 128.292 98.4189C128 98.182 127.772 97.8926 127.608 97.5508C127.444 97.2044 127.362 96.8102 127.362 96.3682H128.627C128.627 96.7145 128.702 97.0176 128.852 97.2773C129.007 97.5371 129.226 97.7399 129.508 97.8857C129.796 98.027 130.133 98.0977 130.52 98.0977C130.907 98.0977 131.24 98.0316 131.518 97.8994C131.801 97.7627 132.017 97.5576 132.168 97.2842C132.323 97.0107 132.4 96.6667 132.4 96.252C132.4 95.8372 132.313 95.4977 132.14 95.2334C131.967 94.9645 131.721 94.7663 131.402 94.6387C131.088 94.5065 130.716 94.4404 130.288 94.4404H129.385ZM141.313 93.2305V94.748C141.313 95.5638 141.24 96.252 141.094 96.8125C140.948 97.373 140.738 97.8242 140.465 98.166C140.192 98.5078 139.861 98.7562 139.474 98.9111C139.091 99.0615 138.658 99.1367 138.175 99.1367C137.792 99.1367 137.439 99.0889 137.115 98.9932C136.792 98.8975 136.5 98.7448 136.24 98.5352C135.985 98.321 135.766 98.043 135.584 97.7012C135.402 97.3594 135.263 96.9447 135.167 96.457C135.071 95.9694 135.024 95.3997 135.024 94.748V93.2305C135.024 92.4147 135.097 91.7311 135.242 91.1797C135.393 90.6283 135.605 90.1862 135.878 89.8535C136.152 89.5163 136.48 89.2747 136.863 89.1289C137.25 88.9831 137.683 88.9102 138.161 88.9102C138.549 88.9102 138.904 88.958 139.228 89.0537C139.556 89.1449 139.848 89.293 140.103 89.498C140.358 89.6986 140.574 89.9674 140.752 90.3047C140.934 90.6374 141.073 91.0452 141.169 91.5283C141.265 92.0114 141.313 92.5788 141.313 93.2305ZM140.041 94.9531V93.0186C140.041 92.5719 140.014 92.18 139.959 91.8428C139.909 91.501 139.834 91.2093 139.734 90.9678C139.633 90.7262 139.506 90.5303 139.351 90.3799C139.2 90.2295 139.025 90.1201 138.824 90.0518C138.628 89.9788 138.407 89.9424 138.161 89.9424C137.861 89.9424 137.594 89.9993 137.362 90.1133C137.129 90.2227 136.933 90.3981 136.774 90.6396C136.619 90.8812 136.5 91.1979 136.418 91.5898C136.336 91.9818 136.295 92.458 136.295 93.0186V94.9531C136.295 95.3997 136.32 95.7939 136.37 96.1357C136.425 96.4775 136.505 96.7738 136.61 97.0244C136.714 97.2705 136.842 97.4733 136.992 97.6328C137.143 97.7923 137.316 97.9108 137.512 97.9883C137.712 98.0612 137.933 98.0977 138.175 98.0977C138.485 98.0977 138.756 98.0384 138.988 97.9199C139.221 97.8014 139.415 97.6169 139.57 97.3662C139.729 97.111 139.848 96.7852 139.925 96.3887C140.002 95.9876 140.041 95.5091 140.041 94.9531ZM149.711 95.0967H147.052V94.0234H149.711C150.226 94.0234 150.643 93.9414 150.962 93.7773C151.281 93.6133 151.514 93.3854 151.66 93.0938C151.81 92.8021 151.885 92.4694 151.885 92.0957C151.885 91.7539 151.81 91.4326 151.66 91.1318C151.514 90.8311 151.281 90.5895 150.962 90.4072C150.643 90.2204 150.226 90.127 149.711 90.127H147.36V99H146.04V89.0469H149.711C150.463 89.0469 151.099 89.1768 151.619 89.4365C152.138 89.6963 152.532 90.0563 152.801 90.5166C153.07 90.9723 153.204 91.4941 153.204 92.082C153.204 92.7201 153.07 93.2646 152.801 93.7158C152.532 94.167 152.138 94.5111 151.619 94.748C151.099 94.9805 150.463 95.0967 149.711 95.0967ZM154.939 89.0469H156.218L159.479 97.1611L162.732 89.0469H164.018L159.971 99H158.973L154.939 89.0469ZM154.522 89.0469H155.65L155.835 95.1172V99H154.522V89.0469ZM163.3 89.0469H164.428V99H163.115V95.1172L163.3 89.0469ZM173.189 95.0967H170.529V94.0234H173.189C173.704 94.0234 174.121 93.9414 174.44 93.7773C174.759 93.6133 174.991 93.3854 175.137 93.0938C175.287 92.8021 175.363 92.4694 175.363 92.0957C175.363 91.7539 175.287 91.4326 175.137 91.1318C174.991 90.8311 174.759 90.5895 174.44 90.4072C174.121 90.2204 173.704 90.127 173.189 90.127H170.837V99H169.518V89.0469H173.189C173.941 89.0469 174.576 89.1768 175.096 89.4365C175.615 89.6963 176.01 90.0563 176.279 90.5166C176.547 90.9723 176.682 91.4941 176.682 92.082C176.682 92.7201 176.547 93.2646 176.279 93.7158C176.01 94.167 175.615 94.5111 175.096 94.748C174.576 94.9805 173.941 95.0967 173.189 95.0967ZM180.693 99H178.615L178.629 97.9268H180.693C181.404 97.9268 181.997 97.7786 182.471 97.4824C182.944 97.1816 183.3 96.7624 183.537 96.2246C183.778 95.6823 183.899 95.0488 183.899 94.3242V93.7158C183.899 93.1462 183.831 92.6403 183.694 92.1982C183.557 91.7516 183.357 91.3757 183.093 91.0703C182.828 90.7604 182.505 90.5257 182.122 90.3662C181.744 90.2067 181.308 90.127 180.816 90.127H178.574V89.0469H180.816C181.468 89.0469 182.063 89.1562 182.6 89.375C183.138 89.5892 183.601 89.9014 183.988 90.3115C184.38 90.7171 184.681 91.2093 184.89 91.7881C185.1 92.3623 185.205 93.0094 185.205 93.7295V94.3242C185.205 95.0443 185.1 95.6937 184.89 96.2725C184.681 96.8467 184.378 97.3366 183.981 97.7422C183.589 98.1478 183.115 98.46 182.559 98.6787C182.008 98.8929 181.386 99 180.693 99ZM179.319 89.0469V99H178V89.0469H179.319ZM190.324 89.0469V99H189.025V89.0469H190.324ZM193.523 89.0469V90.127H185.832V89.0469H193.523Z" fill="#212121"/>
<path fill-rule="evenodd" clip-rule="evenodd" d="M10.0003 135.084C13.9123 135.084 17.0837 131.912 17.0837 128C17.0837 124.088 13.9123 120.917 10.0003 120.917C6.08831 120.917 2.91699 124.088 2.91699 128C2.91699 131.912 6.08831 135.084 10.0003 135.084ZM10.0003 136.334C14.6027 136.334 18.3337 132.603 18.3337 128C18.3337 123.398 14.6027 119.667 10.0003 119.667C5.39795 119.667 1.66699 123.398 1.66699 128C1.66699 132.603 5.39795 136.334 10.0003 136.334Z" fill="#707070"/>
<path fill-rule="evenodd" clip-rule="evenodd" d="M15.4419 125.058C15.686 125.302 15.686 125.698 15.4419 125.942L9.65916 131.725C8.92691 132.457 7.73974 132.457 7.00751 131.725L4.55806 129.275C4.31398 129.031 4.31398 128.635 4.55806 128.391C4.80213 128.147 5.19786 128.147 5.44194 128.391L7.89139 130.841C8.13546 131.085 8.53116 131.085 8.77525 130.841L14.5581 125.058C14.8022 124.814 15.1978 124.814 15.4419 125.058Z" fill="#707070"/>
<path d="M34.3984 131.812V133H26.9531V131.961L30.6797 127.812C31.138 127.302 31.4922 126.87 31.7422 126.516C31.9974 126.156 32.1745 125.836 32.2734 125.555C32.3776 125.268 32.4297 124.977 32.4297 124.68C32.4297 124.305 32.3516 123.966 32.1953 123.664C32.0443 123.357 31.8203 123.112 31.5234 122.93C31.2266 122.747 30.8672 122.656 30.4453 122.656C29.9401 122.656 29.5182 122.755 29.1797 122.953C28.8464 123.146 28.5964 123.417 28.4297 123.766C28.263 124.115 28.1797 124.516 28.1797 124.969H26.7344C26.7344 124.328 26.875 123.742 27.1562 123.211C27.4375 122.68 27.8542 122.258 28.4062 121.945C28.9583 121.628 29.638 121.469 30.4453 121.469C31.1641 121.469 31.7786 121.596 32.2891 121.852C32.7995 122.102 33.1901 122.456 33.4609 122.914C33.737 123.367 33.875 123.898 33.875 124.508C33.875 124.841 33.8177 125.18 33.7031 125.523C33.5938 125.862 33.4401 126.201 33.2422 126.539C33.0495 126.878 32.8229 127.211 32.5625 127.539C32.3073 127.867 32.0339 128.19 31.7422 128.508L28.6953 131.812H34.3984ZM37.3828 131.789H37.5312C38.3646 131.789 39.0417 131.672 39.5625 131.438C40.0833 131.203 40.4844 130.888 40.7656 130.492C41.0469 130.096 41.2396 129.651 41.3438 129.156C41.4479 128.656 41.5 128.143 41.5 127.617V125.875C41.5 125.359 41.4401 124.901 41.3203 124.5C41.2057 124.099 41.0443 123.763 40.8359 123.492C40.6328 123.221 40.401 123.016 40.1406 122.875C39.8802 122.734 39.6042 122.664 39.3125 122.664C38.9792 122.664 38.6797 122.732 38.4141 122.867C38.1536 122.997 37.9323 123.182 37.75 123.422C37.5729 123.661 37.4375 123.943 37.3438 124.266C37.25 124.589 37.2031 124.94 37.2031 125.32C37.2031 125.659 37.2448 125.987 37.3281 126.305C37.4115 126.622 37.5391 126.909 37.7109 127.164C37.8828 127.419 38.0964 127.622 38.3516 127.773C38.612 127.919 38.9167 127.992 39.2656 127.992C39.5885 127.992 39.8906 127.93 40.1719 127.805C40.4583 127.674 40.7109 127.5 40.9297 127.281C41.1536 127.057 41.3307 126.805 41.4609 126.523C41.5964 126.242 41.6745 125.948 41.6953 125.641H42.3828C42.3828 126.073 42.2969 126.5 42.125 126.922C41.9583 127.339 41.724 127.719 41.4219 128.062C41.1198 128.406 40.7656 128.682 40.3594 128.891C39.9531 129.094 39.5104 129.195 39.0312 129.195C38.4688 129.195 37.9818 129.086 37.5703 128.867C37.1589 128.648 36.8203 128.357 36.5547 127.992C36.2943 127.628 36.099 127.221 35.9688 126.773C35.8438 126.32 35.7812 125.862 35.7812 125.398C35.7812 124.857 35.8568 124.349 36.0078 123.875C36.1589 123.401 36.3828 122.984 36.6797 122.625C36.9766 122.26 37.3438 121.977 37.7812 121.773C38.224 121.57 38.7344 121.469 39.3125 121.469C39.9635 121.469 40.5182 121.599 40.9766 121.859C41.4349 122.12 41.8073 122.469 42.0938 122.906C42.3854 123.344 42.599 123.836 42.7344 124.383C42.8698 124.93 42.9375 125.492 42.9375 126.07V126.594C42.9375 127.182 42.8984 127.781 42.8203 128.391C42.7474 128.995 42.6042 129.573 42.3906 130.125C42.1823 130.677 41.8776 131.172 41.4766 131.609C41.0755 132.042 40.5521 132.385 39.9062 132.641C39.2656 132.891 38.474 133.016 37.5312 133.016H37.3828V131.789ZM54.5469 124.547H55.8594V132.82C55.8594 133.565 55.7083 134.201 55.4062 134.727C55.1042 135.253 54.6823 135.651 54.1406 135.922C53.6042 136.198 52.9844 136.336 52.2812 136.336C51.9896 136.336 51.6458 136.289 51.25 136.195C50.8594 136.107 50.474 135.953 50.0938 135.734C49.7188 135.521 49.4036 135.232 49.1484 134.867L49.9062 134.008C50.2604 134.435 50.6302 134.732 51.0156 134.898C51.4062 135.065 51.7917 135.148 52.1719 135.148C52.6302 135.148 53.026 135.062 53.3594 134.891C53.6927 134.719 53.9505 134.464 54.1328 134.125C54.3203 133.792 54.4141 133.38 54.4141 132.891V126.406L54.5469 124.547ZM48.7266 128.867V128.703C48.7266 128.057 48.8021 127.471 48.9531 126.945C49.1094 126.414 49.3307 125.958 49.6172 125.578C49.9089 125.198 50.2604 124.906 50.6719 124.703C51.0833 124.495 51.5469 124.391 52.0625 124.391C52.5938 124.391 53.0573 124.484 53.4531 124.672C53.8542 124.854 54.1927 125.122 54.4688 125.477C54.75 125.826 54.9714 126.247 55.1328 126.742C55.2943 127.237 55.4062 127.797 55.4688 128.422V129.141C55.4115 129.76 55.2995 130.318 55.1328 130.812C54.9714 131.307 54.75 131.729 54.4688 132.078C54.1927 132.427 53.8542 132.695 53.4531 132.883C53.0521 133.065 52.5833 133.156 52.0469 133.156C51.5417 133.156 51.0833 133.049 50.6719 132.836C50.2656 132.622 49.9167 132.323 49.625 131.938C49.3333 131.552 49.1094 131.099 48.9531 130.578C48.8021 130.052 48.7266 129.482 48.7266 128.867ZM50.1719 128.703V128.867C50.1719 129.289 50.2135 129.685 50.2969 130.055C50.3854 130.424 50.5182 130.75 50.6953 131.031C50.8776 131.312 51.1094 131.534 51.3906 131.695C51.6719 131.852 52.0078 131.93 52.3984 131.93C52.8776 131.93 53.2734 131.828 53.5859 131.625C53.8984 131.422 54.1458 131.154 54.3281 130.82C54.5156 130.487 54.6615 130.125 54.7656 129.734V127.852C54.7083 127.565 54.6198 127.289 54.5 127.023C54.3854 126.753 54.2344 126.513 54.0469 126.305C53.8646 126.091 53.638 125.922 53.3672 125.797C53.0964 125.672 52.7786 125.609 52.4141 125.609C52.0182 125.609 51.6771 125.693 51.3906 125.859C51.1094 126.021 50.8776 126.245 50.6953 126.531C50.5182 126.812 50.3854 127.141 50.2969 127.516C50.2135 127.885 50.1719 128.281 50.1719 128.703ZM57.6719 128.867V128.688C57.6719 128.078 57.7604 127.513 57.9375 126.992C58.1146 126.466 58.3698 126.01 58.7031 125.625C59.0365 125.234 59.4401 124.932 59.9141 124.719C60.388 124.5 60.9193 124.391 61.5078 124.391C62.1016 124.391 62.6354 124.5 63.1094 124.719C63.5885 124.932 63.9948 125.234 64.3281 125.625C64.6667 126.01 64.9245 126.466 65.1016 126.992C65.2786 127.513 65.3672 128.078 65.3672 128.688V128.867C65.3672 129.477 65.2786 130.042 65.1016 130.562C64.9245 131.083 64.6667 131.539 64.3281 131.93C63.9948 132.315 63.5911 132.617 63.1172 132.836C62.6484 133.049 62.1172 133.156 61.5234 133.156C60.9297 133.156 60.3958 133.049 59.9219 132.836C59.4479 132.617 59.0417 132.315 58.7031 131.93C58.3698 131.539 58.1146 131.083 57.9375 130.562C57.7604 130.042 57.6719 129.477 57.6719 128.867ZM59.1172 128.688V128.867C59.1172 129.289 59.1667 129.688 59.2656 130.062C59.3646 130.432 59.513 130.76 59.7109 131.047C59.9141 131.333 60.1667 131.56 60.4688 131.727C60.7708 131.888 61.1224 131.969 61.5234 131.969C61.9193 131.969 62.2656 131.888 62.5625 131.727C62.8646 131.56 63.1146 131.333 63.3125 131.047C63.5104 130.76 63.6589 130.432 63.7578 130.062C63.862 129.688 63.9141 129.289 63.9141 128.867V128.688C63.9141 128.271 63.862 127.878 63.7578 127.508C63.6589 127.133 63.5078 126.802 63.3047 126.516C63.1068 126.224 62.8568 125.995 62.5547 125.828C62.2578 125.661 61.9089 125.578 61.5078 125.578C61.112 125.578 60.763 125.661 60.4609 125.828C60.1641 125.995 59.9141 126.224 59.7109 126.516C59.513 126.802 59.3646 127.133 59.2656 127.508C59.1667 127.878 59.1172 128.271 59.1172 128.688ZM68.75 124.547V133H67.2969V124.547H68.75ZM67.1875 122.305C67.1875 122.07 67.2578 121.872 67.3984 121.711C67.5443 121.549 67.7578 121.469 68.0391 121.469C68.3151 121.469 68.526 121.549 68.6719 121.711C68.8229 121.872 68.8984 122.07 68.8984 122.305C68.8984 122.529 68.8229 122.721 68.6719 122.883C68.526 123.039 68.3151 123.117 68.0391 123.117C67.7578 123.117 67.5443 123.039 67.3984 122.883C67.2578 122.721 67.1875 122.529 67.1875 122.305ZM72.5156 126.352V133H71.0703V124.547H72.4375L72.5156 126.352ZM72.1719 128.453L71.5703 128.43C71.5755 127.852 71.6615 127.318 71.8281 126.828C71.9948 126.333 72.2292 125.904 72.5312 125.539C72.8333 125.174 73.1927 124.893 73.6094 124.695C74.0312 124.492 74.4974 124.391 75.0078 124.391C75.4245 124.391 75.7995 124.448 76.1328 124.562C76.4661 124.672 76.75 124.849 76.9844 125.094C77.224 125.339 77.4062 125.656 77.5312 126.047C77.6562 126.432 77.7188 126.904 77.7188 127.461V133H76.2656V127.445C76.2656 127.003 76.2005 126.648 76.0703 126.383C75.9401 126.112 75.75 125.917 75.5 125.797C75.25 125.672 74.9427 125.609 74.5781 125.609C74.2188 125.609 73.8906 125.685 73.5938 125.836C73.3021 125.987 73.0495 126.195 72.8359 126.461C72.6276 126.727 72.4635 127.031 72.3438 127.375C72.2292 127.714 72.1719 128.073 72.1719 128.453ZM85.3906 124.547H86.7031V132.82C86.7031 133.565 86.5521 134.201 86.25 134.727C85.9479 135.253 85.526 135.651 84.9844 135.922C84.4479 136.198 83.8281 136.336 83.125 136.336C82.8333 136.336 82.4896 136.289 82.0938 136.195C81.7031 136.107 81.3177 135.953 80.9375 135.734C80.5625 135.521 80.2474 135.232 79.9922 134.867L80.75 134.008C81.1042 134.435 81.474 134.732 81.8594 134.898C82.25 135.065 82.6354 135.148 83.0156 135.148C83.474 135.148 83.8698 135.062 84.2031 134.891C84.5365 134.719 84.7943 134.464 84.9766 134.125C85.1641 133.792 85.2578 133.38 85.2578 132.891V126.406L85.3906 124.547ZM79.5703 128.867V128.703C79.5703 128.057 79.6458 127.471 79.7969 126.945C79.9531 126.414 80.1745 125.958 80.4609 125.578C80.7526 125.198 81.1042 124.906 81.5156 124.703C81.9271 124.495 82.3906 124.391 82.9062 124.391C83.4375 124.391 83.901 124.484 84.2969 124.672C84.6979 124.854 85.0365 125.122 85.3125 125.477C85.5938 125.826 85.8151 126.247 85.9766 126.742C86.138 127.237 86.25 127.797 86.3125 128.422V129.141C86.2552 129.76 86.1432 130.318 85.9766 130.812C85.8151 131.307 85.5938 131.729 85.3125 132.078C85.0365 132.427 84.6979 132.695 84.2969 132.883C83.8958 133.065 83.4271 133.156 82.8906 133.156C82.3854 133.156 81.9271 133.049 81.5156 132.836C81.1094 132.622 80.7604 132.323 80.4688 131.938C80.1771 131.552 79.9531 131.099 79.7969 130.578C79.6458 130.052 79.5703 129.482 79.5703 128.867ZM81.0156 128.703V128.867C81.0156 129.289 81.0573 129.685 81.1406 130.055C81.2292 130.424 81.362 130.75 81.5391 131.031C81.7214 131.312 81.9531 131.534 82.2344 131.695C82.5156 131.852 82.8516 131.93 83.2422 131.93C83.7214 131.93 84.1172 131.828 84.4297 131.625C84.7422 131.422 84.9896 131.154 85.1719 130.82C85.3594 130.487 85.5052 130.125 85.6094 129.734V127.852C85.5521 127.565 85.4635 127.289 85.3438 127.023C85.2292 126.753 85.0781 126.513 84.8906 126.305C84.7083 126.091 84.4818 125.922 84.2109 125.797C83.9401 125.672 83.6224 125.609 83.2578 125.609C82.862 125.609 82.5208 125.693 82.2344 125.859C81.9531 126.021 81.7214 126.245 81.5391 126.531C81.362 126.812 81.2292 127.141 81.1406 127.516C81.0573 127.885 81.0156 128.281 81.0156 128.703Z" fill="#212121"/>
<path fill-rule="evenodd" clip-rule="evenodd" d="M123.084 123C123.701 123 124.239 122.665 124.527 122.166H126.417C126.877 122.166 127.25 122.539 127.25 123V124.771C125.813 125.141 124.75 126.447 124.75 128C124.75 129.553 125.813 130.858 127.25 131.228V133C127.25 133.46 126.877 133.833 126.417 133.833H124.527C124.239 133.335 123.701 133 123.084 133C122.467 133 121.928 133.335 121.64 133.833H113.084C112.623 133.833 112.25 133.46 112.25 133V131.228C113.688 130.858 114.75 129.553 114.75 128C114.75 126.447 113.688 125.141 112.25 124.771V123C112.25 122.539 112.623 122.166 113.084 122.166H121.64C121.928 122.665 122.467 123 123.084 123ZM125.584 128C125.584 126.619 126.703 125.5 128.084 125.5V123C128.084 122.079 127.337 121.333 126.417 121.333H123.917C123.917 121.793 123.544 122.166 123.084 122.166C122.623 122.166 122.25 121.793 122.25 121.333H113.084C112.163 121.333 111.417 122.079 111.417 123V125.5C112.798 125.5 113.917 126.619 113.917 128C113.917 129.38 112.798 130.5 111.417 130.5V133C111.417 133.92 112.163 134.666 113.084 134.666H122.25C122.25 134.206 122.623 133.833 123.084 133.833C123.544 133.833 123.917 134.206 123.917 134.666H126.417C127.337 134.666 128.084 133.92 128.084 133V130.5C126.703 130.5 125.584 129.38 125.584 128ZM123.084 125.5C123.544 125.5 123.917 125.127 123.917 124.666C123.917 124.206 123.544 123.833 123.084 123.833C122.623 123.833 122.25 124.206 122.25 124.666C122.25 125.127 122.623 125.5 123.084 125.5ZM123.084 128.833C123.544 128.833 123.917 128.46 123.917 128C123.917 127.539 123.544 127.166 123.084 127.166C122.623 127.166 122.25 127.539 122.25 128C122.25 128.46 122.623 128.833 123.084 128.833ZM123.917 131.333C123.917 131.793 123.544 132.166 123.084 132.166C122.623 132.166 122.25 131.793 122.25 131.333C122.25 130.873 122.623 130.5 123.084 130.5C123.544 130.5 123.917 130.873 123.917 131.333Z" fill="#707070"/>
<path d="M138.578 121.625V133H137.07V121.625H138.578ZM143.344 126.742V127.977H138.25V126.742H143.344ZM144.117 121.625V122.859H138.25V121.625H144.117ZM146.938 125.875V133H145.492V124.547H146.898L146.938 125.875ZM149.578 124.5L149.57 125.844C149.451 125.818 149.336 125.802 149.227 125.797C149.122 125.786 149.003 125.781 148.867 125.781C148.534 125.781 148.24 125.833 147.984 125.938C147.729 126.042 147.513 126.188 147.336 126.375C147.159 126.562 147.018 126.786 146.914 127.047C146.815 127.302 146.75 127.583 146.719 127.891L146.312 128.125C146.312 127.615 146.362 127.135 146.461 126.688C146.565 126.24 146.724 125.844 146.938 125.5C147.151 125.151 147.422 124.88 147.75 124.688C148.083 124.49 148.479 124.391 148.938 124.391C149.042 124.391 149.161 124.404 149.297 124.43C149.432 124.451 149.526 124.474 149.578 124.5ZM154.266 133.156C153.677 133.156 153.143 133.057 152.664 132.859C152.19 132.656 151.781 132.372 151.438 132.008C151.099 131.643 150.839 131.211 150.656 130.711C150.474 130.211 150.383 129.664 150.383 129.07V128.742C150.383 128.055 150.484 127.443 150.688 126.906C150.891 126.365 151.167 125.906 151.516 125.531C151.865 125.156 152.26 124.872 152.703 124.68C153.146 124.487 153.604 124.391 154.078 124.391C154.682 124.391 155.203 124.495 155.641 124.703C156.083 124.911 156.445 125.203 156.727 125.578C157.008 125.948 157.216 126.385 157.352 126.891C157.487 127.391 157.555 127.938 157.555 128.531V129.18H151.242V128H156.109V127.891C156.089 127.516 156.01 127.151 155.875 126.797C155.745 126.443 155.536 126.151 155.25 125.922C154.964 125.693 154.573 125.578 154.078 125.578C153.75 125.578 153.448 125.648 153.172 125.789C152.896 125.924 152.659 126.128 152.461 126.398C152.263 126.669 152.109 127 152 127.391C151.891 127.781 151.836 128.232 151.836 128.742V129.07C151.836 129.471 151.891 129.849 152 130.203C152.115 130.552 152.279 130.859 152.492 131.125C152.711 131.391 152.974 131.599 153.281 131.75C153.594 131.901 153.948 131.977 154.344 131.977C154.854 131.977 155.286 131.872 155.641 131.664C155.995 131.456 156.305 131.177 156.57 130.828L157.445 131.523C157.263 131.799 157.031 132.062 156.75 132.312C156.469 132.562 156.122 132.766 155.711 132.922C155.305 133.078 154.823 133.156 154.266 133.156ZM162.75 133.156C162.161 133.156 161.628 133.057 161.148 132.859C160.674 132.656 160.266 132.372 159.922 132.008C159.583 131.643 159.323 131.211 159.141 130.711C158.958 130.211 158.867 129.664 158.867 129.07V128.742C158.867 128.055 158.969 127.443 159.172 126.906C159.375 126.365 159.651 125.906 160 125.531C160.349 125.156 160.745 124.872 161.188 124.68C161.63 124.487 162.089 124.391 162.562 124.391C163.167 124.391 163.688 124.495 164.125 124.703C164.568 124.911 164.93 125.203 165.211 125.578C165.492 125.948 165.701 126.385 165.836 126.891C165.971 127.391 166.039 127.938 166.039 128.531V129.18H159.727V128H164.594V127.891C164.573 127.516 164.495 127.151 164.359 126.797C164.229 126.443 164.021 126.151 163.734 125.922C163.448 125.693 163.057 125.578 162.562 125.578C162.234 125.578 161.932 125.648 161.656 125.789C161.38 125.924 161.143 126.128 160.945 126.398C160.747 126.669 160.594 127 160.484 127.391C160.375 127.781 160.32 128.232 160.32 128.742V129.07C160.32 129.471 160.375 129.849 160.484 130.203C160.599 130.552 160.763 130.859 160.977 131.125C161.195 131.391 161.458 131.599 161.766 131.75C162.078 131.901 162.432 131.977 162.828 131.977C163.339 131.977 163.771 131.872 164.125 131.664C164.479 131.456 164.789 131.177 165.055 130.828L165.93 131.523C165.747 131.799 165.516 132.062 165.234 132.312C164.953 132.562 164.607 132.766 164.195 132.922C163.789 133.078 163.307 133.156 162.75 133.156Z" fill="#212121"/>
</svg>
