<svg width="272" height="214" viewBox="0 0 272 214" fill="none" xmlns="http://www.w3.org/2000/svg">
<path d="M4.21875 4.78125V19H1.5332V4.78125H4.21875ZM18.5449 4.78125V19H15.8496L9.80469 9.13672V19H7.11914V4.78125H9.80469L15.8691 14.6543V4.78125H18.5449ZM23.9648 4.78125V19H21.2793V4.78125H23.9648ZM29.6973 10.9238V13.043H23.2617V10.9238H29.6973ZM30.4492 4.78125V6.90039H23.2617V4.78125H30.4492ZM43.7891 11.5293V12.2617C43.7891 13.3359 43.6458 14.3027 43.3594 15.1621C43.0729 16.015 42.666 16.7409 42.1387 17.3398C41.6113 17.9388 40.9831 18.3978 40.2539 18.7168C39.5247 19.0358 38.7142 19.1953 37.8223 19.1953C36.9434 19.1953 36.1361 19.0358 35.4004 18.7168C34.6712 18.3978 34.0397 17.9388 33.5059 17.3398C32.972 16.7409 32.5586 16.015 32.2656 15.1621C31.9727 14.3027 31.8262 13.3359 31.8262 12.2617V11.5293C31.8262 10.4486 31.9727 9.48177 32.2656 8.62891C32.5586 7.77604 32.9688 7.05013 33.4961 6.45117C34.0234 5.8457 34.6517 5.38346 35.3809 5.06445C36.1165 4.74544 36.9238 4.58594 37.8027 4.58594C38.6947 4.58594 39.5052 4.74544 40.2344 5.06445C40.9635 5.38346 41.5918 5.8457 42.1191 6.45117C42.653 7.05013 43.0632 7.77604 43.3496 8.62891C43.6426 9.48177 43.7891 10.4486 43.7891 11.5293ZM41.0742 12.2617V11.5098C41.0742 10.735 41.0026 10.0547 40.8594 9.46875C40.7161 8.8763 40.5046 8.37826 40.2246 7.97461C39.9447 7.57096 39.5996 7.26823 39.1895 7.06641C38.7793 6.85807 38.3171 6.75391 37.8027 6.75391C37.2819 6.75391 36.8197 6.85807 36.416 7.06641C36.0189 7.26823 35.6803 7.57096 35.4004 7.97461C35.1204 8.37826 34.9056 8.8763 34.7559 9.46875C34.6126 10.0547 34.541 10.735 34.541 11.5098V12.2617C34.541 13.0299 34.6126 13.7103 34.7559 14.3027C34.9056 14.8952 35.1204 15.3965 35.4004 15.8066C35.6868 16.2103 36.0319 16.5163 36.4355 16.7246C36.8392 16.9329 37.3014 17.0371 37.8223 17.0371C38.3431 17.0371 38.8053 16.9329 39.209 16.7246C39.6126 16.5163 39.9512 16.2103 40.2246 15.8066C40.5046 15.3965 40.7161 14.8952 40.8594 14.3027C41.0026 13.7103 41.0742 13.0299 41.0742 12.2617ZM46.0645 4.78125H51.2305C52.3112 4.78125 53.2389 4.94401 54.0137 5.26953C54.7884 5.59505 55.3841 6.07682 55.8008 6.71484C56.2174 7.35286 56.4258 8.13737 56.4258 9.06836C56.4258 9.80404 56.2956 10.4421 56.0352 10.9824C55.7747 11.5228 55.4069 11.9753 54.9316 12.3398C54.4629 12.7044 53.9095 12.9909 53.2715 13.1992L52.4316 13.6289H47.8711L47.8516 11.5098H51.2598C51.8132 11.5098 52.2721 11.4121 52.6367 11.2168C53.0013 11.0215 53.2747 10.7513 53.457 10.4062C53.6458 10.0612 53.7402 9.66732 53.7402 9.22461C53.7402 8.74935 53.6491 8.33919 53.4668 7.99414C53.2845 7.64258 53.0078 7.3724 52.6367 7.18359C52.2656 6.99479 51.7969 6.90039 51.2305 6.90039H48.75V19H46.0645V4.78125ZM54.0918 19L50.8008 12.6328L53.6426 12.623L56.9727 18.8633V19H54.0918ZM59.9512 4.78125H62.2754L66.1621 15.4844L70.0391 4.78125H72.373L67.0898 19H65.2246L59.9512 4.78125ZM58.7793 4.78125H61.0547L61.4648 14.6152V19H58.7793V4.78125ZM71.2598 4.78125H73.5449V19H70.8594V14.6152L71.2598 4.78125ZM83.7207 15.3086C83.7207 15.0352 83.6784 14.791 83.5938 14.5762C83.5156 14.3548 83.3691 14.1562 83.1543 13.9805C82.946 13.7982 82.6497 13.6224 82.2656 13.4531C81.888 13.2773 81.3997 13.0951 80.8008 12.9062C80.1367 12.6979 79.5182 12.4635 78.9453 12.2031C78.3724 11.9427 77.8678 11.64 77.4316 11.2949C77.002 10.9499 76.6667 10.5527 76.4258 10.1035C76.1849 9.64779 76.0645 9.12044 76.0645 8.52148C76.0645 7.93555 76.1882 7.40169 76.4355 6.91992C76.6895 6.43815 77.0475 6.02474 77.5098 5.67969C77.972 5.32812 78.5156 5.05794 79.1406 4.86914C79.7721 4.68034 80.4688 4.58594 81.2305 4.58594C82.2852 4.58594 83.1966 4.77799 83.9648 5.16211C84.7396 5.54622 85.3385 6.06706 85.7617 6.72461C86.1849 7.38216 86.3965 8.12109 86.3965 8.94141H83.7207C83.7207 8.4987 83.6263 8.10807 83.4375 7.76953C83.2552 7.43099 82.9753 7.16406 82.5977 6.96875C82.2266 6.77344 81.7578 6.67578 81.1914 6.67578C80.6445 6.67578 80.1888 6.75716 79.8242 6.91992C79.4661 7.08268 79.196 7.30404 79.0137 7.58398C78.8379 7.86393 78.75 8.17643 78.75 8.52148C78.75 8.7819 78.8118 9.01628 78.9355 9.22461C79.0592 9.42643 79.2448 9.61849 79.4922 9.80078C79.7396 9.97656 80.0456 10.1426 80.4102 10.2988C80.7812 10.4486 81.2109 10.5983 81.6992 10.748C82.4805 10.9824 83.1641 11.2428 83.75 11.5293C84.3424 11.8158 84.834 12.1413 85.2246 12.5059C85.6217 12.8704 85.918 13.2806 86.1133 13.7363C86.3151 14.1921 86.416 14.7096 86.416 15.2891C86.416 15.901 86.2956 16.4479 86.0547 16.9297C85.8138 17.4115 85.4688 17.8216 85.0195 18.1602C84.5703 18.4987 84.0299 18.7559 83.3984 18.9316C82.7734 19.1074 82.0736 19.1953 81.2988 19.1953C80.6087 19.1953 79.9251 19.1042 79.248 18.9219C78.5775 18.7331 77.9688 18.4531 77.4219 18.082C76.875 17.7044 76.4388 17.2292 76.1133 16.6562C75.7878 16.0768 75.625 15.3997 75.625 14.625H78.3203C78.3203 15.0742 78.3919 15.4583 78.5352 15.7773C78.6849 16.0898 78.8932 16.347 79.1602 16.5488C79.4336 16.7441 79.7526 16.8874 80.1172 16.9785C80.4818 17.0697 80.8757 17.1152 81.2988 17.1152C81.8457 17.1152 82.2949 17.0404 82.6465 16.8906C83.0046 16.7344 83.2715 16.5195 83.4473 16.2461C83.6296 15.9727 83.7207 15.6602 83.7207 15.3086ZM100.908 15.3086C100.908 15.0352 100.866 14.791 100.781 14.5762C100.703 14.3548 100.557 14.1562 100.342 13.9805C100.133 13.7982 99.8372 13.6224 99.4531 13.4531C99.0755 13.2773 98.5872 13.0951 97.9883 12.9062C97.3242 12.6979 96.7057 12.4635 96.1328 12.2031C95.5599 11.9427 95.0553 11.64 94.6191 11.2949C94.1895 10.9499 93.8542 10.5527 93.6133 10.1035C93.3724 9.64779 93.252 9.12044 93.252 8.52148C93.252 7.93555 93.3757 7.40169 93.623 6.91992C93.877 6.43815 94.235 6.02474 94.6973 5.67969C95.1595 5.32812 95.7031 5.05794 96.3281 4.86914C96.9596 4.68034 97.6562 4.58594 98.418 4.58594C99.4727 4.58594 100.384 4.77799 101.152 5.16211C101.927 5.54622 102.526 6.06706 102.949 6.72461C103.372 7.38216 103.584 8.12109 103.584 8.94141H100.908C100.908 8.4987 100.814 8.10807 100.625 7.76953C100.443 7.43099 100.163 7.16406 99.7852 6.96875C99.4141 6.77344 98.9453 6.67578 98.3789 6.67578C97.832 6.67578 97.3763 6.75716 97.0117 6.91992C96.6536 7.08268 96.3835 7.30404 96.2012 7.58398C96.0254 7.86393 95.9375 8.17643 95.9375 8.52148C95.9375 8.7819 95.9993 9.01628 96.123 9.22461C96.2467 9.42643 96.4323 9.61849 96.6797 9.80078C96.9271 9.97656 97.2331 10.1426 97.5977 10.2988C97.9688 10.4486 98.3984 10.5983 98.8867 10.748C99.668 10.9824 100.352 11.2428 100.938 11.5293C101.53 11.8158 102.021 12.1413 102.412 12.5059C102.809 12.8704 103.105 13.2806 103.301 13.7363C103.503 14.1921 103.604 14.7096 103.604 15.2891C103.604 15.901 103.483 16.4479 103.242 16.9297C103.001 17.4115 102.656 17.8216 102.207 18.1602C101.758 18.4987 101.217 18.7559 100.586 18.9316C99.9609 19.1074 99.2611 19.1953 98.4863 19.1953C97.7962 19.1953 97.1126 19.1042 96.4355 18.9219C95.765 18.7331 95.1562 18.4531 94.6094 18.082C94.0625 17.7044 93.6263 17.2292 93.3008 16.6562C92.9753 16.0768 92.8125 15.3997 92.8125 14.625H95.5078C95.5078 15.0742 95.5794 15.4583 95.7227 15.7773C95.8724 16.0898 96.0807 16.347 96.3477 16.5488C96.6211 16.7441 96.9401 16.8874 97.3047 16.9785C97.6693 17.0697 98.0632 17.1152 98.4863 17.1152C99.0332 17.1152 99.4824 17.0404 99.834 16.8906C100.192 16.7344 100.459 16.5195 100.635 16.2461C100.817 15.9727 100.908 15.6602 100.908 15.3086ZM111.299 16.7539V11.8809C111.299 11.5228 111.237 11.2135 111.113 10.9531C110.99 10.6927 110.801 10.4909 110.547 10.3477C110.293 10.2044 109.971 10.1328 109.58 10.1328C109.235 10.1328 108.932 10.1914 108.672 10.3086C108.418 10.4258 108.223 10.5918 108.086 10.8066C107.949 11.015 107.881 11.2559 107.881 11.5293H105.293C105.293 11.0931 105.397 10.6797 105.605 10.2891C105.814 9.89193 106.11 9.54036 106.494 9.23438C106.885 8.92188 107.35 8.67773 107.891 8.50195C108.438 8.32617 109.049 8.23828 109.727 8.23828C110.527 8.23828 111.24 8.375 111.865 8.64844C112.497 8.91536 112.992 9.31901 113.35 9.85938C113.714 10.3997 113.896 11.0801 113.896 11.9004V16.5098C113.896 17.0371 113.929 17.4896 113.994 17.8672C114.066 18.2383 114.17 18.5605 114.307 18.834V19H111.68C111.556 18.7331 111.462 18.3945 111.396 17.9844C111.331 17.5677 111.299 17.1576 111.299 16.7539ZM111.66 12.5645L111.68 14.0977H110.049C109.645 14.0977 109.29 14.14 108.984 14.2246C108.678 14.3027 108.428 14.4199 108.232 14.5762C108.037 14.7259 107.891 14.9082 107.793 15.123C107.695 15.3314 107.646 15.569 107.646 15.8359C107.646 16.0964 107.705 16.3307 107.822 16.5391C107.946 16.7474 108.122 16.9134 108.35 17.0371C108.584 17.1543 108.857 17.2129 109.17 17.2129C109.626 17.2129 110.023 17.1217 110.361 16.9395C110.7 16.7507 110.964 16.5228 111.152 16.2559C111.341 15.9889 111.442 15.735 111.455 15.4941L112.197 16.6074C112.106 16.8743 111.969 17.1576 111.787 17.457C111.605 17.7565 111.37 18.0365 111.084 18.2969C110.798 18.5573 110.452 18.7721 110.049 18.9414C109.645 19.1107 109.176 19.1953 108.643 19.1953C107.959 19.1953 107.347 19.0586 106.807 18.7852C106.266 18.5117 105.84 18.1374 105.527 17.6621C105.215 17.1868 105.059 16.6465 105.059 16.041C105.059 15.4811 105.163 14.9863 105.371 14.5566C105.579 14.127 105.889 13.7656 106.299 13.4727C106.709 13.1732 107.217 12.9486 107.822 12.7988C108.434 12.6426 109.134 12.5645 109.922 12.5645H111.66ZM118.75 10.6895V19H116.172V8.43359H118.594L118.75 10.6895ZM118.34 13.3359H117.578C117.585 12.5677 117.689 11.8711 117.891 11.2461C118.092 10.6211 118.376 10.084 118.74 9.63477C119.111 9.18555 119.551 8.84049 120.059 8.59961C120.566 8.35872 121.133 8.23828 121.758 8.23828C122.266 8.23828 122.725 8.3099 123.135 8.45312C123.545 8.59635 123.896 8.82422 124.189 9.13672C124.489 9.44922 124.717 9.85938 124.873 10.3672C125.036 10.8685 125.117 11.487 125.117 12.2227V19H122.52V12.2031C122.52 11.7214 122.448 11.3405 122.305 11.0605C122.168 10.7806 121.966 10.582 121.699 10.4648C121.439 10.3477 121.117 10.2891 120.732 10.2891C120.335 10.2891 119.987 10.3704 119.688 10.5332C119.395 10.6895 119.147 10.9076 118.945 11.1875C118.75 11.4674 118.6 11.7897 118.496 12.1543C118.392 12.5189 118.34 12.9128 118.34 13.3359ZM135.254 4.78125V19H132.568V4.78125H135.254ZM140.986 10.9238V13.043H134.551V10.9238H140.986ZM141.738 4.78125V6.90039H134.551V4.78125H141.738ZM145.693 10.5918V19H143.115V8.43359H145.557L145.693 10.5918ZM148.906 8.36523L148.867 10.7676C148.724 10.7415 148.561 10.722 148.379 10.709C148.203 10.696 148.037 10.6895 147.881 10.6895C147.484 10.6895 147.135 10.7448 146.836 10.8555C146.536 10.9596 146.286 11.1126 146.084 11.3145C145.889 11.5163 145.739 11.7637 145.635 12.0566C145.531 12.3431 145.472 12.6686 145.459 13.0332L144.902 12.9648C144.902 12.2943 144.971 11.6725 145.107 11.0996C145.244 10.5267 145.443 10.0254 145.703 9.5957C145.964 9.16602 146.289 8.83398 146.68 8.59961C147.077 8.35872 147.533 8.23828 148.047 8.23828C148.19 8.23828 148.343 8.2513 148.506 8.27734C148.675 8.29688 148.809 8.32617 148.906 8.36523ZM155.811 16.7539V11.8809C155.811 11.5228 155.749 11.2135 155.625 10.9531C155.501 10.6927 155.312 10.4909 155.059 10.3477C154.805 10.2044 154.482 10.1328 154.092 10.1328C153.747 10.1328 153.444 10.1914 153.184 10.3086C152.93 10.4258 152.734 10.5918 152.598 10.8066C152.461 11.015 152.393 11.2559 152.393 11.5293H149.805C149.805 11.0931 149.909 10.6797 150.117 10.2891C150.326 9.89193 150.622 9.54036 151.006 9.23438C151.396 8.92188 151.862 8.67773 152.402 8.50195C152.949 8.32617 153.561 8.23828 154.238 8.23828C155.039 8.23828 155.752 8.375 156.377 8.64844C157.008 8.91536 157.503 9.31901 157.861 9.85938C158.226 10.3997 158.408 11.0801 158.408 11.9004V16.5098C158.408 17.0371 158.441 17.4896 158.506 17.8672C158.577 18.2383 158.682 18.5605 158.818 18.834V19H156.191C156.068 18.7331 155.973 18.3945 155.908 17.9844C155.843 17.5677 155.811 17.1576 155.811 16.7539ZM156.172 12.5645L156.191 14.0977H154.561C154.157 14.0977 153.802 14.14 153.496 14.2246C153.19 14.3027 152.939 14.4199 152.744 14.5762C152.549 14.7259 152.402 14.9082 152.305 15.123C152.207 15.3314 152.158 15.569 152.158 15.8359C152.158 16.0964 152.217 16.3307 152.334 16.5391C152.458 16.7474 152.633 16.9134 152.861 17.0371C153.096 17.1543 153.369 17.2129 153.682 17.2129C154.137 17.2129 154.535 17.1217 154.873 16.9395C155.212 16.7507 155.475 16.5228 155.664 16.2559C155.853 15.9889 155.954 15.735 155.967 15.4941L156.709 16.6074C156.618 16.8743 156.481 17.1576 156.299 17.457C156.117 17.7565 155.882 18.0365 155.596 18.2969C155.309 18.5573 154.964 18.7721 154.561 18.9414C154.157 19.1107 153.688 19.1953 153.154 19.1953C152.471 19.1953 151.859 19.0586 151.318 18.7852C150.778 18.5117 150.352 18.1374 150.039 17.6621C149.727 17.1868 149.57 16.6465 149.57 16.041C149.57 15.4811 149.674 14.9863 149.883 14.5566C150.091 14.127 150.4 13.7656 150.811 13.4727C151.221 13.1732 151.729 12.9486 152.334 12.7988C152.946 12.6426 153.646 12.5645 154.434 12.5645H156.172ZM163.262 10.6895V19H160.684V8.43359H163.105L163.262 10.6895ZM162.852 13.3359H162.09C162.096 12.5677 162.201 11.8711 162.402 11.2461C162.604 10.6211 162.887 10.084 163.252 9.63477C163.623 9.18555 164.062 8.84049 164.57 8.59961C165.078 8.35872 165.645 8.23828 166.27 8.23828C166.777 8.23828 167.236 8.3099 167.646 8.45312C168.057 8.59635 168.408 8.82422 168.701 9.13672C169.001 9.44922 169.229 9.85938 169.385 10.3672C169.548 10.8685 169.629 11.487 169.629 12.2227V19H167.031V12.2031C167.031 11.7214 166.96 11.3405 166.816 11.0605C166.68 10.7806 166.478 10.582 166.211 10.4648C165.951 10.3477 165.628 10.2891 165.244 10.2891C164.847 10.2891 164.499 10.3704 164.199 10.5332C163.906 10.6895 163.659 10.9076 163.457 11.1875C163.262 11.4674 163.112 11.7897 163.008 12.1543C162.904 12.5189 162.852 12.9128 162.852 13.3359ZM176.24 17.1641C176.605 17.1641 176.93 17.0924 177.217 16.9492C177.503 16.806 177.731 16.6042 177.9 16.3438C178.076 16.0833 178.171 15.7806 178.184 15.4355H180.615C180.602 16.1517 180.4 16.793 180.01 17.3594C179.619 17.9258 179.098 18.375 178.447 18.707C177.803 19.0326 177.08 19.1953 176.279 19.1953C175.465 19.1953 174.756 19.0586 174.15 18.7852C173.545 18.5117 173.04 18.1309 172.637 17.6426C172.24 17.1543 171.94 16.5879 171.738 15.9434C171.543 15.2988 171.445 14.6087 171.445 13.873V13.5605C171.445 12.8249 171.543 12.1348 171.738 11.4902C171.94 10.8457 172.24 10.2793 172.637 9.79102C173.04 9.30273 173.545 8.92188 174.15 8.64844C174.756 8.375 175.462 8.23828 176.27 8.23828C177.122 8.23828 177.871 8.4043 178.516 8.73633C179.167 9.06836 179.674 9.53711 180.039 10.1426C180.41 10.748 180.602 11.4609 180.615 12.2812H178.184C178.171 11.9036 178.086 11.5651 177.93 11.2656C177.773 10.9661 177.552 10.7253 177.266 10.543C176.979 10.3607 176.631 10.2695 176.221 10.2695C175.785 10.2695 175.42 10.3607 175.127 10.543C174.84 10.7253 174.616 10.9759 174.453 11.2949C174.297 11.6074 174.186 11.959 174.121 12.3496C174.062 12.7337 174.033 13.1374 174.033 13.5605V13.873C174.033 14.3027 174.062 14.7129 174.121 15.1035C174.186 15.4941 174.297 15.8457 174.453 16.1582C174.616 16.4642 174.84 16.7083 175.127 16.8906C175.42 17.0729 175.791 17.1641 176.24 17.1641ZM185.068 8.43359V19H182.48V8.43359H185.068ZM182.305 5.66992C182.305 5.28581 182.435 4.9668 182.695 4.71289C182.962 4.45898 183.32 4.33203 183.77 4.33203C184.219 4.33203 184.574 4.45898 184.834 4.71289C185.101 4.9668 185.234 5.28581 185.234 5.66992C185.234 6.04753 185.101 6.36328 184.834 6.61719C184.574 6.87109 184.219 6.99805 183.77 6.99805C183.32 6.99805 182.962 6.87109 182.695 6.61719C182.435 6.36328 182.305 6.04753 182.305 5.66992ZM193.34 16.1094C193.34 15.888 193.281 15.6895 193.164 15.5137C193.047 15.3379 192.826 15.1784 192.5 15.0352C192.181 14.8854 191.712 14.7454 191.094 14.6152C190.547 14.498 190.042 14.3516 189.58 14.1758C189.118 14 188.721 13.7884 188.389 13.541C188.057 13.2871 187.796 12.9909 187.607 12.6523C187.425 12.3073 187.334 11.9102 187.334 11.4609C187.334 11.0247 187.428 10.6146 187.617 10.2305C187.806 9.83984 188.079 9.49805 188.438 9.20508C188.796 8.9056 189.232 8.67122 189.746 8.50195C190.26 8.32617 190.84 8.23828 191.484 8.23828C192.383 8.23828 193.154 8.38477 193.799 8.67773C194.45 8.9707 194.948 9.37435 195.293 9.88867C195.638 10.3965 195.811 10.9694 195.811 11.6074H193.232C193.232 11.3275 193.167 11.0736 193.037 10.8457C192.913 10.6178 192.721 10.4355 192.461 10.2988C192.201 10.1556 191.872 10.084 191.475 10.084C191.117 10.084 190.814 10.1426 190.566 10.2598C190.326 10.377 190.143 10.5299 190.02 10.7188C189.896 10.9076 189.834 11.1159 189.834 11.3438C189.834 11.513 189.867 11.666 189.932 11.8027C190.003 11.9329 190.117 12.0534 190.273 12.1641C190.43 12.2747 190.641 12.3757 190.908 12.4668C191.182 12.5579 191.517 12.6458 191.914 12.7305C192.702 12.8867 193.389 13.0951 193.975 13.3555C194.567 13.6094 195.029 13.9479 195.361 14.3711C195.693 14.7943 195.859 15.3346 195.859 15.9922C195.859 16.4609 195.758 16.8906 195.557 17.2812C195.355 17.6654 195.062 18.0007 194.678 18.2871C194.294 18.5736 193.835 18.7982 193.301 18.9609C192.767 19.1172 192.165 19.1953 191.494 19.1953C190.524 19.1953 189.704 19.0228 189.033 18.6777C188.363 18.3262 187.855 17.8835 187.51 17.3496C187.165 16.8092 186.992 16.2493 186.992 15.6699H189.463C189.482 16.0801 189.593 16.4089 189.795 16.6562C189.997 16.9036 190.251 17.0827 190.557 17.1934C190.869 17.2975 191.198 17.3496 191.543 17.3496C191.934 17.3496 192.262 17.2975 192.529 17.1934C192.796 17.0827 192.998 16.9362 193.135 16.7539C193.271 16.5651 193.34 16.3503 193.34 16.1094ZM202.158 17.1641C202.523 17.1641 202.848 17.0924 203.135 16.9492C203.421 16.806 203.649 16.6042 203.818 16.3438C203.994 16.0833 204.089 15.7806 204.102 15.4355H206.533C206.52 16.1517 206.318 16.793 205.928 17.3594C205.537 17.9258 205.016 18.375 204.365 18.707C203.721 19.0326 202.998 19.1953 202.197 19.1953C201.383 19.1953 200.674 19.0586 200.068 18.7852C199.463 18.5117 198.958 18.1309 198.555 17.6426C198.158 17.1543 197.858 16.5879 197.656 15.9434C197.461 15.2988 197.363 14.6087 197.363 13.873V13.5605C197.363 12.8249 197.461 12.1348 197.656 11.4902C197.858 10.8457 198.158 10.2793 198.555 9.79102C198.958 9.30273 199.463 8.92188 200.068 8.64844C200.674 8.375 201.38 8.23828 202.188 8.23828C203.04 8.23828 203.789 8.4043 204.434 8.73633C205.085 9.06836 205.592 9.53711 205.957 10.1426C206.328 10.748 206.52 11.4609 206.533 12.2812H204.102C204.089 11.9036 204.004 11.5651 203.848 11.2656C203.691 10.9661 203.47 10.7253 203.184 10.543C202.897 10.3607 202.549 10.2695 202.139 10.2695C201.702 10.2695 201.338 10.3607 201.045 10.543C200.758 10.7253 200.534 10.9759 200.371 11.2949C200.215 11.6074 200.104 11.959 200.039 12.3496C199.98 12.7337 199.951 13.1374 199.951 13.5605V13.873C199.951 14.3027 199.98 14.7129 200.039 15.1035C200.104 15.4941 200.215 15.8457 200.371 16.1582C200.534 16.4642 200.758 16.7083 201.045 16.8906C201.338 17.0729 201.709 17.1641 202.158 17.1641ZM207.793 13.8242V13.6191C207.793 12.8444 207.904 12.1315 208.125 11.4805C208.346 10.8229 208.669 10.2533 209.092 9.77148C209.515 9.28971 210.033 8.91536 210.645 8.64844C211.257 8.375 211.953 8.23828 212.734 8.23828C213.529 8.23828 214.232 8.375 214.844 8.64844C215.462 8.91536 215.983 9.28971 216.406 9.77148C216.829 10.2533 217.152 10.8229 217.373 11.4805C217.594 12.1315 217.705 12.8444 217.705 13.6191V13.8242C217.705 14.5924 217.594 15.3053 217.373 15.9629C217.152 16.6139 216.829 17.1836 216.406 17.6719C215.983 18.1536 215.465 18.528 214.854 18.7949C214.242 19.0618 213.542 19.1953 212.754 19.1953C211.973 19.1953 211.273 19.0618 210.654 18.7949C210.036 18.528 209.515 18.1536 209.092 17.6719C208.669 17.1836 208.346 16.6139 208.125 15.9629C207.904 15.3053 207.793 14.5924 207.793 13.8242ZM210.371 13.6191V13.8242C210.371 14.2865 210.417 14.7194 210.508 15.123C210.599 15.5267 210.739 15.8815 210.928 16.1875C211.117 16.4935 211.361 16.7344 211.66 16.9102C211.966 17.0794 212.331 17.1641 212.754 17.1641C213.171 17.1641 213.529 17.0794 213.828 16.9102C214.128 16.7344 214.372 16.4935 214.561 16.1875C214.756 15.8815 214.899 15.5267 214.99 15.123C215.081 14.7194 215.127 14.2865 215.127 13.8242V13.6191C215.127 13.1634 215.081 12.737 214.99 12.3398C214.899 11.9362 214.756 11.5814 214.561 11.2754C214.372 10.9629 214.124 10.7188 213.818 10.543C213.519 10.3607 213.158 10.2695 212.734 10.2695C212.318 10.2695 211.96 10.3607 211.66 10.543C211.361 10.7188 211.117 10.9629 210.928 11.2754C210.739 11.5814 210.599 11.9362 210.508 12.3398C210.417 12.737 210.371 13.1634 210.371 13.6191ZM9.67773 38.3223H12.3633C12.2917 39.2728 12.028 40.1159 11.5723 40.8516C11.1165 41.5807 10.4818 42.1536 9.66797 42.5703C8.85417 42.987 7.86784 43.1953 6.70898 43.1953C5.81706 43.1953 5.01302 43.0391 4.29688 42.7266C3.58724 42.4076 2.97852 41.9551 2.4707 41.3691C1.9694 40.7767 1.58529 40.0671 1.31836 39.2402C1.05143 38.4069 0.917969 37.4727 0.917969 36.4375V35.3535C0.917969 34.3184 1.05469 33.3841 1.32812 32.5508C1.60156 31.7174 1.99219 31.0078 2.5 30.4219C3.01432 29.8294 3.62956 29.3737 4.3457 29.0547C5.06836 28.7357 5.87565 28.5762 6.76758 28.5762C7.92643 28.5762 8.90625 28.791 9.70703 29.2207C10.5078 29.6439 11.1296 30.2266 11.5723 30.9688C12.015 31.7109 12.2819 32.5638 12.373 33.5273H9.6875C9.63542 32.9284 9.50521 32.4206 9.29688 32.0039C9.09505 31.5872 8.78906 31.2715 8.37891 31.0566C7.97526 30.8353 7.43815 30.7246 6.76758 30.7246C6.24674 30.7246 5.78776 30.8223 5.39062 31.0176C5 31.2129 4.67448 31.5059 4.41406 31.8965C4.15365 32.2806 3.95833 32.7624 3.82812 33.3418C3.69792 33.9147 3.63281 34.5788 3.63281 35.334V36.4375C3.63281 37.1602 3.69141 37.8079 3.80859 38.3809C3.92578 38.9538 4.10807 39.4388 4.35547 39.8359C4.60286 40.2331 4.92188 40.5358 5.3125 40.7441C5.70312 40.9525 6.16862 41.0566 6.70898 41.0566C7.36654 41.0566 7.90039 40.9525 8.31055 40.7441C8.72721 40.5358 9.04297 40.2298 9.25781 39.8262C9.47917 39.4225 9.61914 38.9212 9.67773 38.3223ZM16.7773 28V43H14.1895V28H16.7773ZM16.3672 37.3359H15.6055C15.6055 36.6003 15.7031 35.9232 15.8984 35.3047C16.0938 34.6862 16.3704 34.1491 16.7285 33.6934C17.0866 33.2311 17.513 32.873 18.0078 32.6191C18.5091 32.3652 19.0625 32.2383 19.668 32.2383C20.1888 32.2383 20.6608 32.3132 21.084 32.4629C21.5137 32.6061 21.8815 32.8372 22.1875 33.1562C22.4935 33.4753 22.7279 33.8919 22.8906 34.4062C23.0599 34.9141 23.1445 35.5326 23.1445 36.2617V43H20.5469V36.2422C20.5469 35.7539 20.4753 35.3698 20.332 35.0898C20.1888 34.8034 19.9837 34.5983 19.7168 34.4746C19.4564 34.3509 19.1341 34.2891 18.75 34.2891C18.3333 34.2891 17.9753 34.3704 17.6758 34.5332C17.3763 34.6895 17.1289 34.9076 16.9336 35.1875C16.7448 35.4674 16.6016 35.7897 16.5039 36.1543C16.4128 36.5189 16.3672 36.9128 16.3672 37.3359ZM31.2402 40.7539V35.8809C31.2402 35.5228 31.1784 35.2135 31.0547 34.9531C30.931 34.6927 30.7422 34.4909 30.4883 34.3477C30.2344 34.2044 29.9121 34.1328 29.5215 34.1328C29.1764 34.1328 28.8737 34.1914 28.6133 34.3086C28.3594 34.4258 28.1641 34.5918 28.0273 34.8066C27.8906 35.015 27.8223 35.2559 27.8223 35.5293H25.2344C25.2344 35.0931 25.3385 34.6797 25.5469 34.2891C25.7552 33.8919 26.0514 33.5404 26.4355 33.2344C26.8262 32.9219 27.2917 32.6777 27.832 32.502C28.3789 32.3262 28.9909 32.2383 29.668 32.2383C30.4688 32.2383 31.1816 32.375 31.8066 32.6484C32.4382 32.9154 32.9329 33.319 33.291 33.8594C33.6556 34.3997 33.8379 35.0801 33.8379 35.9004V40.5098C33.8379 41.0371 33.8704 41.4896 33.9355 41.8672C34.0072 42.2383 34.1113 42.5605 34.248 42.834V43H31.6211C31.4974 42.7331 31.403 42.3945 31.3379 41.9844C31.2728 41.5677 31.2402 41.1576 31.2402 40.7539ZM31.6016 36.5645L31.6211 38.0977H29.9902C29.5866 38.0977 29.2318 38.14 28.9258 38.2246C28.6198 38.3027 28.3691 38.4199 28.1738 38.5762C27.9785 38.7259 27.832 38.9082 27.7344 39.123C27.6367 39.3314 27.5879 39.569 27.5879 39.8359C27.5879 40.0964 27.6465 40.3307 27.7637 40.5391C27.8874 40.7474 28.0632 40.9134 28.291 41.0371C28.5254 41.1543 28.7988 41.2129 29.1113 41.2129C29.5671 41.2129 29.9642 41.1217 30.3027 40.9395C30.6413 40.7507 30.9049 40.5228 31.0938 40.2559C31.2826 39.9889 31.3835 39.735 31.3965 39.4941L32.1387 40.6074C32.0475 40.8743 31.9108 41.1576 31.7285 41.457C31.5462 41.7565 31.3118 42.0365 31.0254 42.2969C30.7389 42.5573 30.3939 42.7721 29.9902 42.9414C29.5866 43.1107 29.1178 43.1953 28.584 43.1953C27.9004 43.1953 27.2884 43.0586 26.748 42.7852C26.2077 42.5117 25.7812 42.1374 25.4688 41.6621C25.1562 41.1868 25 40.6465 25 40.041C25 39.4811 25.1042 38.9863 25.3125 38.5566C25.5208 38.127 25.8301 37.7656 26.2402 37.4727C26.6504 37.1732 27.1582 36.9486 27.7637 36.7988C28.3757 36.6426 29.0755 36.5645 29.8633 36.5645H31.6016ZM38.7402 34.4648V47.0625H36.1523V32.4336H38.5449L38.7402 34.4648ZM45.5273 37.6094V37.8145C45.5273 38.5827 45.4362 39.2956 45.2539 39.9531C45.0781 40.6042 44.8177 41.1738 44.4727 41.6621C44.1276 42.1439 43.6979 42.5215 43.1836 42.7949C42.6758 43.0618 42.0898 43.1953 41.4258 43.1953C40.7747 43.1953 40.2083 43.0716 39.7266 42.8242C39.2448 42.5703 38.8379 42.2122 38.5059 41.75C38.1738 41.2878 37.9069 40.7507 37.7051 40.1387C37.5098 39.5202 37.3633 38.8464 37.2656 38.1172V37.4629C37.3633 36.6882 37.5098 35.985 37.7051 35.3535C37.9069 34.7155 38.1738 34.1654 38.5059 33.7031C38.8379 33.2344 39.2415 32.873 39.7168 32.6191C40.1986 32.3652 40.7617 32.2383 41.4062 32.2383C42.0768 32.2383 42.666 32.3652 43.1738 32.6191C43.6882 32.873 44.1211 33.2376 44.4727 33.7129C44.8242 34.1882 45.0879 34.7546 45.2637 35.4121C45.4395 36.0697 45.5273 36.8021 45.5273 37.6094ZM42.9395 37.8145V37.6094C42.9395 37.1406 42.8971 36.7077 42.8125 36.3105C42.7279 35.9069 42.5977 35.5553 42.4219 35.2559C42.2461 34.9499 42.0182 34.7122 41.7383 34.543C41.4583 34.3737 41.1198 34.2891 40.7227 34.2891C40.3255 34.2891 39.9837 34.3542 39.6973 34.4844C39.4108 34.6146 39.1764 34.8001 38.9941 35.041C38.8118 35.2819 38.6686 35.5684 38.5645 35.9004C38.4668 36.2259 38.4017 36.5872 38.3691 36.9844V38.6055C38.4277 39.0872 38.5417 39.5202 38.7109 39.9043C38.8802 40.2884 39.1276 40.5944 39.4531 40.8223C39.7852 41.0501 40.2148 41.1641 40.7422 41.1641C41.1393 41.1641 41.4779 41.0762 41.7578 40.9004C42.0378 40.7246 42.2656 40.4837 42.4414 40.1777C42.6172 39.8652 42.7441 39.5072 42.8223 39.1035C42.9004 38.6999 42.9395 38.2702 42.9395 37.8145ZM52.4121 32.4336V34.2891H46.3574V32.4336H52.4121ZM47.9785 29.8359H50.5664V39.9531C50.5664 40.2656 50.6087 40.5065 50.6934 40.6758C50.778 40.8451 50.9049 40.959 51.0742 41.0176C51.2435 41.0762 51.4453 41.1055 51.6797 41.1055C51.849 41.1055 52.0052 41.0957 52.1484 41.0762C52.2917 41.0566 52.4121 41.0371 52.5098 41.0176L52.5195 42.9512C52.3047 43.0228 52.0605 43.0814 51.7871 43.127C51.5202 43.1725 51.2174 43.1953 50.8789 43.1953C50.2995 43.1953 49.7917 43.0977 49.3555 42.9023C48.9193 42.7005 48.5807 42.3783 48.3398 41.9355C48.099 41.4863 47.9785 40.8939 47.9785 40.1582V29.8359ZM58.877 43.1953C58.0762 43.1953 57.3568 43.0651 56.7188 42.8047C56.0807 42.5443 55.5371 42.1829 55.0879 41.7207C54.6452 41.252 54.3034 40.7083 54.0625 40.0898C53.8281 39.4648 53.7109 38.7943 53.7109 38.0781V37.6875C53.7109 36.8737 53.8281 36.1348 54.0625 35.4707C54.2969 34.8001 54.6289 34.224 55.0586 33.7422C55.4883 33.2604 56.0026 32.8893 56.6016 32.6289C57.2005 32.3685 57.8613 32.2383 58.584 32.2383C59.3327 32.2383 59.9935 32.3652 60.5664 32.6191C61.1393 32.8665 61.6178 33.2181 62.002 33.6738C62.3861 34.1296 62.6758 34.6764 62.8711 35.3145C63.0664 35.946 63.1641 36.6458 63.1641 37.4141V38.498H54.8828V36.7207H60.625V36.5254C60.612 36.1152 60.5339 35.7409 60.3906 35.4023C60.2474 35.0573 60.026 34.7839 59.7266 34.582C59.4271 34.3737 59.0397 34.2695 58.5645 34.2695C58.1803 34.2695 57.8451 34.3542 57.5586 34.5234C57.2786 34.6862 57.0443 34.9206 56.8555 35.2266C56.6732 35.526 56.5365 35.8841 56.4453 36.3008C56.3542 36.7174 56.3086 37.1797 56.3086 37.6875V38.0781C56.3086 38.5208 56.3672 38.931 56.4844 39.3086C56.6081 39.6862 56.7871 40.015 57.0215 40.2949C57.2624 40.5684 57.5488 40.7832 57.8809 40.9395C58.2194 41.0892 58.6035 41.1641 59.0332 41.1641C59.5736 41.1641 60.0618 41.0599 60.498 40.8516C60.9408 40.6367 61.3249 40.321 61.6504 39.9043L62.9492 41.252C62.7279 41.5775 62.4284 41.89 62.0508 42.1895C61.6797 42.4889 61.2305 42.7331 60.7031 42.9219C60.1758 43.1042 59.5671 43.1953 58.877 43.1953ZM67.4707 34.5918V43H64.8926V32.4336H67.334L67.4707 34.5918ZM70.6836 32.3652L70.6445 34.7676C70.5013 34.7415 70.3385 34.722 70.1562 34.709C69.9805 34.696 69.8145 34.6895 69.6582 34.6895C69.2611 34.6895 68.9128 34.7448 68.6133 34.8555C68.3138 34.9596 68.0632 35.1126 67.8613 35.3145C67.666 35.5163 67.5163 35.7637 67.4121 36.0566C67.3079 36.3431 67.2493 36.6686 67.2363 37.0332L66.6797 36.9648C66.6797 36.2943 66.748 35.6725 66.8848 35.0996C67.0215 34.5267 67.2201 34.0254 67.4805 33.5957C67.7409 33.166 68.0664 32.834 68.457 32.5996C68.8542 32.3587 69.3099 32.2383 69.8242 32.2383C69.9674 32.2383 70.1204 32.2513 70.2832 32.2773C70.4525 32.2969 70.5859 32.3262 70.6836 32.3652ZM80.1367 28.7812V43H77.4512V28.7812H80.1367ZM85.3711 34.6895V43H82.793V32.4336H85.2148L85.3711 34.6895ZM84.9609 37.3359H84.1992C84.2057 36.5677 84.3099 35.8711 84.5117 35.2461C84.7135 34.6211 84.9967 34.084 85.3613 33.6348C85.7324 33.1855 86.1719 32.8405 86.6797 32.5996C87.1875 32.3587 87.7539 32.2383 88.3789 32.2383C88.8867 32.2383 89.3457 32.3099 89.7559 32.4531C90.166 32.5964 90.5176 32.8242 90.8105 33.1367C91.11 33.4492 91.3379 33.8594 91.4941 34.3672C91.6569 34.8685 91.7383 35.487 91.7383 36.2227V43H89.1406V36.2031C89.1406 35.7214 89.069 35.3405 88.9258 35.0605C88.7891 34.7806 88.5872 34.582 88.3203 34.4648C88.0599 34.3477 87.7376 34.2891 87.3535 34.2891C86.9564 34.2891 86.6081 34.3704 86.3086 34.5332C86.0156 34.6895 85.7682 34.9076 85.5664 35.1875C85.3711 35.4674 85.2214 35.7897 85.1172 36.1543C85.013 36.5189 84.9609 36.9128 84.9609 37.3359ZM99.1504 35.8906V37.9316H93.8086V35.8906H99.1504ZM107.021 37.8145H103.359V35.7051H107.021C107.62 35.7051 108.105 35.6074 108.477 35.4121C108.854 35.2103 109.131 34.9368 109.307 34.5918C109.482 34.2402 109.57 33.8398 109.57 33.3906C109.57 32.9544 109.482 32.5475 109.307 32.1699C109.131 31.7923 108.854 31.4863 108.477 31.252C108.105 31.0176 107.62 30.9004 107.021 30.9004H104.238V43H101.553V28.7812H107.021C108.128 28.7812 109.072 28.9798 109.854 29.377C110.641 29.7676 111.24 30.3112 111.65 31.0078C112.067 31.6979 112.275 32.4857 112.275 33.3711C112.275 34.2891 112.067 35.0801 111.65 35.7441C111.24 36.4082 110.641 36.9193 109.854 37.2773C109.072 37.6354 108.128 37.8145 107.021 37.8145ZM118.799 43.1953C117.998 43.1953 117.279 43.0651 116.641 42.8047C116.003 42.5443 115.459 42.1829 115.01 41.7207C114.567 41.252 114.225 40.7083 113.984 40.0898C113.75 39.4648 113.633 38.7943 113.633 38.0781V37.6875C113.633 36.8737 113.75 36.1348 113.984 35.4707C114.219 34.8001 114.551 34.224 114.98 33.7422C115.41 33.2604 115.924 32.8893 116.523 32.6289C117.122 32.3685 117.783 32.2383 118.506 32.2383C119.255 32.2383 119.915 32.3652 120.488 32.6191C121.061 32.8665 121.54 33.2181 121.924 33.6738C122.308 34.1296 122.598 34.6764 122.793 35.3145C122.988 35.946 123.086 36.6458 123.086 37.4141V38.498H114.805V36.7207H120.547V36.5254C120.534 36.1152 120.456 35.7409 120.312 35.4023C120.169 35.0573 119.948 34.7839 119.648 34.582C119.349 34.3737 118.962 34.2695 118.486 34.2695C118.102 34.2695 117.767 34.3542 117.48 34.5234C117.201 34.6862 116.966 34.9206 116.777 35.2266C116.595 35.526 116.458 35.8841 116.367 36.3008C116.276 36.7174 116.23 37.1797 116.23 37.6875V38.0781C116.23 38.5208 116.289 38.931 116.406 39.3086C116.53 39.6862 116.709 40.015 116.943 40.2949C117.184 40.5684 117.471 40.7832 117.803 40.9395C118.141 41.0892 118.525 41.1641 118.955 41.1641C119.495 41.1641 119.984 41.0599 120.42 40.8516C120.863 40.6367 121.247 40.321 121.572 39.9043L122.871 41.252C122.65 41.5775 122.35 41.89 121.973 42.1895C121.602 42.4889 121.152 42.7331 120.625 42.9219C120.098 43.1042 119.489 43.1953 118.799 43.1953ZM127.393 34.5918V43H124.814V32.4336H127.256L127.393 34.5918ZM130.605 32.3652L130.566 34.7676C130.423 34.7415 130.26 34.722 130.078 34.709C129.902 34.696 129.736 34.6895 129.58 34.6895C129.183 34.6895 128.835 34.7448 128.535 34.8555C128.236 34.9596 127.985 35.1126 127.783 35.3145C127.588 35.5163 127.438 35.7637 127.334 36.0566C127.23 36.3431 127.171 36.6686 127.158 37.0332L126.602 36.9648C126.602 36.2943 126.67 35.6725 126.807 35.0996C126.943 34.5267 127.142 34.0254 127.402 33.5957C127.663 33.166 127.988 32.834 128.379 32.5996C128.776 32.3587 129.232 32.2383 129.746 32.2383C129.889 32.2383 130.042 32.2513 130.205 32.2773C130.374 32.2969 130.508 32.3262 130.605 32.3652ZM137.832 40.1094C137.832 39.888 137.773 39.6895 137.656 39.5137C137.539 39.3379 137.318 39.1784 136.992 39.0352C136.673 38.8854 136.204 38.7454 135.586 38.6152C135.039 38.498 134.535 38.3516 134.072 38.1758C133.61 38 133.213 37.7884 132.881 37.541C132.549 37.2871 132.288 36.9909 132.1 36.6523C131.917 36.3073 131.826 35.9102 131.826 35.4609C131.826 35.0247 131.921 34.6146 132.109 34.2305C132.298 33.8398 132.572 33.498 132.93 33.2051C133.288 32.9056 133.724 32.6712 134.238 32.502C134.753 32.3262 135.332 32.2383 135.977 32.2383C136.875 32.2383 137.646 32.3848 138.291 32.6777C138.942 32.9707 139.44 33.3743 139.785 33.8887C140.13 34.3965 140.303 34.9694 140.303 35.6074H137.725C137.725 35.3275 137.66 35.0736 137.529 34.8457C137.406 34.6178 137.214 34.4355 136.953 34.2988C136.693 34.1556 136.364 34.084 135.967 34.084C135.609 34.084 135.306 34.1426 135.059 34.2598C134.818 34.377 134.635 34.5299 134.512 34.7188C134.388 34.9076 134.326 35.1159 134.326 35.3438C134.326 35.513 134.359 35.666 134.424 35.8027C134.495 35.9329 134.609 36.0534 134.766 36.1641C134.922 36.2747 135.133 36.3757 135.4 36.4668C135.674 36.5579 136.009 36.6458 136.406 36.7305C137.194 36.8867 137.881 37.0951 138.467 37.3555C139.059 37.6094 139.521 37.9479 139.854 38.3711C140.186 38.7943 140.352 39.3346 140.352 39.9922C140.352 40.4609 140.251 40.8906 140.049 41.2812C139.847 41.6654 139.554 42.0007 139.17 42.2871C138.786 42.5736 138.327 42.7982 137.793 42.9609C137.259 43.1172 136.657 43.1953 135.986 43.1953C135.016 43.1953 134.196 43.0228 133.525 42.6777C132.855 42.3262 132.347 41.8835 132.002 41.3496C131.657 40.8092 131.484 40.2493 131.484 39.6699H133.955C133.975 40.0801 134.085 40.4089 134.287 40.6562C134.489 40.9036 134.743 41.0827 135.049 41.1934C135.361 41.2975 135.69 41.3496 136.035 41.3496C136.426 41.3496 136.755 41.2975 137.021 41.1934C137.288 41.0827 137.49 40.9362 137.627 40.7539C137.764 40.5651 137.832 40.3503 137.832 40.1094ZM141.855 37.8242V37.6191C141.855 36.8444 141.966 36.1315 142.188 35.4805C142.409 34.8229 142.731 34.2533 143.154 33.7715C143.577 33.2897 144.095 32.9154 144.707 32.6484C145.319 32.375 146.016 32.2383 146.797 32.2383C147.591 32.2383 148.294 32.375 148.906 32.6484C149.525 32.9154 150.046 33.2897 150.469 33.7715C150.892 34.2533 151.214 34.8229 151.436 35.4805C151.657 36.1315 151.768 36.8444 151.768 37.6191V37.8242C151.768 38.5924 151.657 39.3053 151.436 39.9629C151.214 40.6139 150.892 41.1836 150.469 41.6719C150.046 42.1536 149.528 42.528 148.916 42.7949C148.304 43.0618 147.604 43.1953 146.816 43.1953C146.035 43.1953 145.335 43.0618 144.717 42.7949C144.098 42.528 143.577 42.1536 143.154 41.6719C142.731 41.1836 142.409 40.6139 142.188 39.9629C141.966 39.3053 141.855 38.5924 141.855 37.8242ZM144.434 37.6191V37.8242C144.434 38.2865 144.479 38.7194 144.57 39.123C144.661 39.5267 144.801 39.8815 144.99 40.1875C145.179 40.4935 145.423 40.7344 145.723 40.9102C146.029 41.0794 146.393 41.1641 146.816 41.1641C147.233 41.1641 147.591 41.0794 147.891 40.9102C148.19 40.7344 148.434 40.4935 148.623 40.1875C148.818 39.8815 148.962 39.5267 149.053 39.123C149.144 38.7194 149.189 38.2865 149.189 37.8242V37.6191C149.189 37.1634 149.144 36.737 149.053 36.3398C148.962 35.9362 148.818 35.5814 148.623 35.2754C148.434 34.9629 148.187 34.7188 147.881 34.543C147.581 34.3607 147.22 34.2695 146.797 34.2695C146.38 34.2695 146.022 34.3607 145.723 34.543C145.423 34.7188 145.179 34.9629 144.99 35.2754C144.801 35.5814 144.661 35.9362 144.57 36.3398C144.479 36.737 144.434 37.1634 144.434 37.6191ZM156.172 34.6895V43H153.594V32.4336H156.016L156.172 34.6895ZM155.762 37.3359H155C155.007 36.5677 155.111 35.8711 155.312 35.2461C155.514 34.6211 155.798 34.084 156.162 33.6348C156.533 33.1855 156.973 32.8405 157.48 32.5996C157.988 32.3587 158.555 32.2383 159.18 32.2383C159.688 32.2383 160.146 32.3099 160.557 32.4531C160.967 32.5964 161.318 32.8242 161.611 33.1367C161.911 33.4492 162.139 33.8594 162.295 34.3672C162.458 34.8685 162.539 35.487 162.539 36.2227V43H159.941V36.2031C159.941 35.7214 159.87 35.3405 159.727 35.0605C159.59 34.7806 159.388 34.582 159.121 34.4648C158.861 34.3477 158.538 34.2891 158.154 34.2891C157.757 34.2891 157.409 34.3704 157.109 34.5332C156.816 34.6895 156.569 34.9076 156.367 35.1875C156.172 35.4674 156.022 35.7897 155.918 36.1543C155.814 36.5189 155.762 36.9128 155.762 37.3359ZM179.414 40.8906V43H171.855V40.8906H179.414ZM172.676 28.7812V43H169.99V28.7812H172.676ZM178.428 34.6504V36.7109H171.855V34.6504H178.428ZM179.385 28.7812V30.9004H171.855V28.7812H179.385ZM184.336 41.0469L186.797 32.4336H189.492L185.869 43H184.229L184.336 41.0469ZM182.539 32.4336L185.029 41.0664L185.117 43H183.467L179.834 32.4336H182.539ZM195.459 43.1953C194.658 43.1953 193.939 43.0651 193.301 42.8047C192.663 42.5443 192.119 42.1829 191.67 41.7207C191.227 41.252 190.885 40.7083 190.645 40.0898C190.41 39.4648 190.293 38.7943 190.293 38.0781V37.6875C190.293 36.8737 190.41 36.1348 190.645 35.4707C190.879 34.8001 191.211 34.224 191.641 33.7422C192.07 33.2604 192.585 32.8893 193.184 32.6289C193.783 32.3685 194.443 32.2383 195.166 32.2383C195.915 32.2383 196.576 32.3652 197.148 32.6191C197.721 32.8665 198.2 33.2181 198.584 33.6738C198.968 34.1296 199.258 34.6764 199.453 35.3145C199.648 35.946 199.746 36.6458 199.746 37.4141V38.498H191.465V36.7207H197.207V36.5254C197.194 36.1152 197.116 35.7409 196.973 35.4023C196.829 35.0573 196.608 34.7839 196.309 34.582C196.009 34.3737 195.622 34.2695 195.146 34.2695C194.762 34.2695 194.427 34.3542 194.141 34.5234C193.861 34.6862 193.626 34.9206 193.438 35.2266C193.255 35.526 193.118 35.8841 193.027 36.3008C192.936 36.7174 192.891 37.1797 192.891 37.6875V38.0781C192.891 38.5208 192.949 38.931 193.066 39.3086C193.19 39.6862 193.369 40.015 193.604 40.2949C193.844 40.5684 194.131 40.7832 194.463 40.9395C194.801 41.0892 195.186 41.1641 195.615 41.1641C196.156 41.1641 196.644 41.0599 197.08 40.8516C197.523 40.6367 197.907 40.321 198.232 39.9043L199.531 41.252C199.31 41.5775 199.01 41.89 198.633 42.1895C198.262 42.4889 197.812 42.7331 197.285 42.9219C196.758 43.1042 196.149 43.1953 195.459 43.1953ZM204.004 34.6895V43H201.426V32.4336H203.848L204.004 34.6895ZM203.594 37.3359H202.832C202.839 36.5677 202.943 35.8711 203.145 35.2461C203.346 34.6211 203.63 34.084 203.994 33.6348C204.365 33.1855 204.805 32.8405 205.312 32.5996C205.82 32.3587 206.387 32.2383 207.012 32.2383C207.52 32.2383 207.979 32.3099 208.389 32.4531C208.799 32.5964 209.15 32.8242 209.443 33.1367C209.743 33.4492 209.971 33.8594 210.127 34.3672C210.29 34.8685 210.371 35.487 210.371 36.2227V43H207.773V36.2031C207.773 35.7214 207.702 35.3405 207.559 35.0605C207.422 34.7806 207.22 34.582 206.953 34.4648C206.693 34.3477 206.37 34.2891 205.986 34.2891C205.589 34.2891 205.241 34.3704 204.941 34.5332C204.648 34.6895 204.401 34.9076 204.199 35.1875C204.004 35.4674 203.854 35.7897 203.75 36.1543C203.646 36.5189 203.594 36.9128 203.594 37.3359ZM217.646 32.4336V34.2891H211.592V32.4336H217.646ZM213.213 29.8359H215.801V39.9531C215.801 40.2656 215.843 40.5065 215.928 40.6758C216.012 40.8451 216.139 40.959 216.309 41.0176C216.478 41.0762 216.68 41.1055 216.914 41.1055C217.083 41.1055 217.24 41.0957 217.383 41.0762C217.526 41.0566 217.646 41.0371 217.744 41.0176L217.754 42.9512C217.539 43.0228 217.295 43.0814 217.021 43.127C216.755 43.1725 216.452 43.1953 216.113 43.1953C215.534 43.1953 215.026 43.0977 214.59 42.9023C214.154 42.7005 213.815 42.3783 213.574 41.9355C213.333 41.4863 213.213 40.8939 213.213 40.1582V29.8359Z" fill="#212121"/>
<path d="M7.58789 75.2031V76.5635H2.30371V75.2031H7.58789ZM2.72754 71.0469V81H1.01172V71.0469H2.72754ZM8.90723 71.0469V81H7.19824V71.0469H8.90723ZM14.0479 81.1367C13.501 81.1367 13.0065 81.0479 12.5645 80.8701C12.127 80.6878 11.7533 80.4349 11.4434 80.1113C11.138 79.7878 10.9033 79.4072 10.7393 78.9697C10.5752 78.5322 10.4932 78.0605 10.4932 77.5547V77.2812C10.4932 76.7025 10.5775 76.1784 10.7461 75.709C10.9147 75.2396 11.1494 74.8385 11.4502 74.5059C11.751 74.1686 12.1064 73.9111 12.5166 73.7334C12.9268 73.5557 13.3711 73.4668 13.8496 73.4668C14.3783 73.4668 14.8408 73.5557 15.2373 73.7334C15.6338 73.9111 15.9619 74.1618 16.2217 74.4854C16.486 74.8044 16.682 75.1849 16.8096 75.627C16.9417 76.069 17.0078 76.5566 17.0078 77.0898V77.7939H11.293V76.6113H15.3809V76.4814C15.3717 76.1852 15.3125 75.9072 15.2031 75.6475C15.0983 75.3877 14.9365 75.1781 14.7178 75.0186C14.499 74.859 14.2074 74.7793 13.8428 74.7793C13.5693 74.7793 13.3255 74.8385 13.1113 74.957C12.9017 75.071 12.7262 75.2373 12.585 75.4561C12.4437 75.6748 12.3343 75.9391 12.2568 76.249C12.1839 76.5544 12.1475 76.8984 12.1475 77.2812V77.5547C12.1475 77.8783 12.1908 78.179 12.2773 78.457C12.3685 78.7305 12.5007 78.9697 12.6738 79.1748C12.847 79.3799 13.0566 79.5417 13.3027 79.6602C13.5488 79.7741 13.8291 79.8311 14.1436 79.8311C14.54 79.8311 14.8932 79.7513 15.2031 79.5918C15.513 79.4323 15.7819 79.2067 16.0098 78.915L16.8779 79.7559C16.7184 79.9883 16.5111 80.2116 16.2559 80.4258C16.0007 80.6354 15.6885 80.8063 15.3193 80.9385C14.9548 81.0706 14.5309 81.1367 14.0479 81.1367ZM22.4629 79.5166V75.9893C22.4629 75.7249 22.415 75.4971 22.3193 75.3057C22.2236 75.1143 22.0778 74.9661 21.8818 74.8613C21.6904 74.7565 21.4489 74.7041 21.1572 74.7041C20.8883 74.7041 20.6559 74.7497 20.46 74.8408C20.264 74.932 20.1113 75.055 20.002 75.21C19.8926 75.3649 19.8379 75.5404 19.8379 75.7363H18.1973C18.1973 75.4447 18.2679 75.1621 18.4092 74.8887C18.5505 74.6152 18.7555 74.3714 19.0244 74.1572C19.2933 73.943 19.6146 73.7744 19.9883 73.6514C20.362 73.5283 20.7812 73.4668 21.2461 73.4668C21.8021 73.4668 22.2943 73.5602 22.7227 73.7471C23.1556 73.9339 23.4951 74.2165 23.7412 74.5947C23.9919 74.9684 24.1172 75.4378 24.1172 76.0029V79.291C24.1172 79.6283 24.14 79.9313 24.1855 80.2002C24.2357 80.4645 24.3063 80.6947 24.3975 80.8906V81H22.709C22.6315 80.8223 22.57 80.5967 22.5244 80.3232C22.4834 80.0452 22.4629 79.7764 22.4629 79.5166ZM22.7021 76.502L22.7158 77.5205H21.5332C21.2279 77.5205 20.959 77.5501 20.7266 77.6094C20.4941 77.6641 20.3005 77.7461 20.1455 77.8555C19.9906 77.9648 19.8743 78.097 19.7969 78.252C19.7194 78.4069 19.6807 78.5824 19.6807 78.7783C19.6807 78.9743 19.7262 79.1543 19.8174 79.3184C19.9085 79.4779 20.0407 79.6032 20.2139 79.6943C20.3916 79.7855 20.6058 79.8311 20.8564 79.8311C21.1937 79.8311 21.4876 79.7627 21.7383 79.626C21.9935 79.4847 22.194 79.3138 22.3398 79.1133C22.4857 78.9082 22.5632 78.7145 22.5723 78.5322L23.1055 79.2637C23.0508 79.4505 22.9574 79.651 22.8252 79.8652C22.693 80.0794 22.5199 80.2845 22.3057 80.4805C22.096 80.6719 21.8431 80.8291 21.5469 80.9521C21.2552 81.0752 20.918 81.1367 20.5352 81.1367C20.0521 81.1367 19.6214 81.041 19.2432 80.8496C18.8649 80.6536 18.5687 80.3916 18.3545 80.0635C18.1403 79.7308 18.0332 79.3548 18.0332 78.9355C18.0332 78.5436 18.1061 78.1973 18.252 77.8965C18.4023 77.5911 18.6211 77.3359 18.9082 77.1309C19.1999 76.9258 19.5553 76.7708 19.9746 76.666C20.3939 76.5566 20.8724 76.502 21.4102 76.502H22.7021ZM27.6035 70.5V81H25.9492V70.5H27.6035ZM32.7988 73.6035V74.8066H28.6289V73.6035H32.7988ZM29.832 71.792H31.4795V78.9561C31.4795 79.1839 31.5114 79.3594 31.5752 79.4824C31.6436 79.6009 31.737 79.6807 31.8555 79.7217C31.974 79.7627 32.113 79.7832 32.2725 79.7832C32.3864 79.7832 32.4958 79.7764 32.6006 79.7627C32.7054 79.749 32.7897 79.7354 32.8535 79.7217L32.8604 80.9795C32.7236 81.0205 32.5641 81.057 32.3818 81.0889C32.2041 81.1208 31.999 81.1367 31.7666 81.1367C31.3883 81.1367 31.0534 81.0706 30.7617 80.9385C30.4701 80.8018 30.2422 80.5807 30.0781 80.2754C29.9141 79.9701 29.832 79.5645 29.832 79.0586V71.792ZM35.6973 70.5V81H34.0566V70.5H35.6973ZM35.4102 77.0283L34.877 77.0215C34.8815 76.5111 34.9521 76.0394 35.0889 75.6064C35.2301 75.1735 35.4261 74.7975 35.6768 74.4785C35.932 74.1549 36.2373 73.9066 36.5928 73.7334C36.9482 73.5557 37.3424 73.4668 37.7754 73.4668C38.14 73.4668 38.4681 73.5169 38.7598 73.6172C39.056 73.7174 39.3112 73.8792 39.5254 74.1025C39.7396 74.3213 39.9014 74.6084 40.0107 74.9639C40.1247 75.3148 40.1816 75.7432 40.1816 76.249V81H38.5273V76.2354C38.5273 75.8799 38.4749 75.5973 38.3701 75.3877C38.2699 75.1781 38.1217 75.0277 37.9258 74.9365C37.7298 74.8408 37.4906 74.793 37.208 74.793C36.9118 74.793 36.6497 74.8522 36.4219 74.9707C36.1986 75.0892 36.0117 75.251 35.8613 75.4561C35.7109 75.6611 35.597 75.8981 35.5195 76.167C35.4466 76.4359 35.4102 76.723 35.4102 77.0283ZM49.5059 79.5166V75.9893C49.5059 75.7249 49.458 75.4971 49.3623 75.3057C49.2666 75.1143 49.1208 74.9661 48.9248 74.8613C48.7334 74.7565 48.4919 74.7041 48.2002 74.7041C47.9313 74.7041 47.6989 74.7497 47.5029 74.8408C47.307 74.932 47.1543 75.055 47.0449 75.21C46.9355 75.3649 46.8809 75.5404 46.8809 75.7363H45.2402C45.2402 75.4447 45.3109 75.1621 45.4521 74.8887C45.5934 74.6152 45.7985 74.3714 46.0674 74.1572C46.3363 73.943 46.6576 73.7744 47.0312 73.6514C47.4049 73.5283 47.8242 73.4668 48.2891 73.4668C48.8451 73.4668 49.3372 73.5602 49.7656 73.7471C50.1986 73.9339 50.5381 74.2165 50.7842 74.5947C51.0348 74.9684 51.1602 75.4378 51.1602 76.0029V79.291C51.1602 79.6283 51.1829 79.9313 51.2285 80.2002C51.2786 80.4645 51.3493 80.6947 51.4404 80.8906V81H49.752C49.6745 80.8223 49.613 80.5967 49.5674 80.3232C49.5264 80.0452 49.5059 79.7764 49.5059 79.5166ZM49.7451 76.502L49.7588 77.5205H48.5762C48.2708 77.5205 48.002 77.5501 47.7695 77.6094C47.5371 77.6641 47.3434 77.7461 47.1885 77.8555C47.0335 77.9648 46.9173 78.097 46.8398 78.252C46.7624 78.4069 46.7236 78.5824 46.7236 78.7783C46.7236 78.9743 46.7692 79.1543 46.8604 79.3184C46.9515 79.4779 47.0837 79.6032 47.2568 79.6943C47.4346 79.7855 47.6488 79.8311 47.8994 79.8311C48.2367 79.8311 48.5306 79.7627 48.7812 79.626C49.0365 79.4847 49.237 79.3138 49.3828 79.1133C49.5286 78.9082 49.6061 78.7145 49.6152 78.5322L50.1484 79.2637C50.0938 79.4505 50.0003 79.651 49.8682 79.8652C49.736 80.0794 49.5628 80.2845 49.3486 80.4805C49.139 80.6719 48.8861 80.8291 48.5898 80.9521C48.2982 81.0752 47.9609 81.1367 47.5781 81.1367C47.0951 81.1367 46.6644 81.041 46.2861 80.8496C45.9079 80.6536 45.6117 80.3916 45.3975 80.0635C45.1833 79.7308 45.0762 79.3548 45.0762 78.9355C45.0762 78.5436 45.1491 78.1973 45.2949 77.8965C45.4453 77.5911 45.6641 77.3359 45.9512 77.1309C46.2428 76.9258 46.5983 76.7708 47.0176 76.666C47.4368 76.5566 47.9154 76.502 48.4531 76.502H49.7451ZM54.5166 75.1826V81H52.8691V73.6035H54.4209L54.5166 75.1826ZM54.2227 77.0283L53.6895 77.0215C53.694 76.4974 53.7669 76.0166 53.9082 75.5791C54.054 75.1416 54.2546 74.7656 54.5098 74.4512C54.7695 74.1367 55.0794 73.8952 55.4395 73.7266C55.7995 73.5534 56.2005 73.4668 56.6426 73.4668C56.998 73.4668 57.3193 73.5169 57.6064 73.6172C57.8981 73.7129 58.1465 73.8701 58.3516 74.0889C58.5612 74.3076 58.7207 74.5924 58.8301 74.9434C58.9395 75.2897 58.9941 75.7158 58.9941 76.2217V81H57.3398V76.2148C57.3398 75.8594 57.2874 75.5791 57.1826 75.374C57.0824 75.1644 56.9342 75.0163 56.7383 74.9297C56.5469 74.8385 56.3076 74.793 56.0205 74.793C55.738 74.793 55.485 74.8522 55.2617 74.9707C55.0384 75.0892 54.8493 75.251 54.6943 75.4561C54.5439 75.6611 54.4277 75.8981 54.3457 76.167C54.2637 76.4359 54.2227 76.723 54.2227 77.0283ZM65.1875 79.4688V70.5H66.8418V81H65.3447L65.1875 79.4688ZM60.375 77.3838V77.2402C60.375 76.6797 60.4411 76.1693 60.5732 75.709C60.7054 75.2441 60.8968 74.8454 61.1475 74.5127C61.3981 74.1755 61.7035 73.918 62.0635 73.7402C62.4235 73.5579 62.8291 73.4668 63.2803 73.4668C63.7269 73.4668 64.1188 73.5534 64.4561 73.7266C64.7933 73.8997 65.0804 74.1481 65.3174 74.4717C65.5544 74.7907 65.7435 75.1735 65.8848 75.6201C66.026 76.0622 66.1263 76.5544 66.1855 77.0967V77.5547C66.1263 78.0833 66.026 78.5664 65.8848 79.0039C65.7435 79.4414 65.5544 79.8197 65.3174 80.1387C65.0804 80.4577 64.791 80.7038 64.4492 80.877C64.112 81.0501 63.7178 81.1367 63.2666 81.1367C62.82 81.1367 62.4167 81.0433 62.0566 80.8564C61.7012 80.6696 61.3981 80.4076 61.1475 80.0703C60.8968 79.7331 60.7054 79.3366 60.5732 78.8809C60.4411 78.4206 60.375 77.9215 60.375 77.3838ZM62.0225 77.2402V77.3838C62.0225 77.721 62.0521 78.0355 62.1113 78.3271C62.1751 78.6188 62.2731 78.8763 62.4053 79.0996C62.5374 79.3184 62.7083 79.4915 62.918 79.6191C63.1322 79.7422 63.3874 79.8037 63.6836 79.8037C64.0573 79.8037 64.3649 79.7217 64.6064 79.5576C64.848 79.3936 65.0371 79.1725 65.1738 78.8945C65.3151 78.612 65.4108 78.2975 65.4609 77.9512V76.7139C65.4336 76.445 65.3766 76.1943 65.29 75.9619C65.208 75.7295 65.0964 75.5267 64.9551 75.3535C64.8138 75.1758 64.6383 75.0391 64.4287 74.9434C64.2236 74.8431 63.9798 74.793 63.6973 74.793C63.3965 74.793 63.1413 74.8568 62.9316 74.9844C62.722 75.112 62.5488 75.2874 62.4121 75.5107C62.2799 75.734 62.182 75.9938 62.1182 76.29C62.0544 76.5863 62.0225 76.903 62.0225 77.2402ZM74.71 78.7646L76.6924 71.0469H77.7314L77.6152 73.0361L75.4961 81H74.416L74.71 78.7646ZM73.2266 71.0469L74.833 78.7031L74.9766 81H73.8281L71.5244 71.0469H73.2266ZM79.9805 78.6826L81.5664 71.0469H83.2754L80.9717 81H79.8232L79.9805 78.6826ZM78.1348 71.0469L80.0967 78.7852L80.3838 81H79.3037L77.2188 73.0361L77.1094 71.0469H78.1348ZM87.4248 81.1367C86.8779 81.1367 86.3835 81.0479 85.9414 80.8701C85.5039 80.6878 85.1302 80.4349 84.8203 80.1113C84.515 79.7878 84.2803 79.4072 84.1162 78.9697C83.9521 78.5322 83.8701 78.0605 83.8701 77.5547V77.2812C83.8701 76.7025 83.9544 76.1784 84.123 75.709C84.2917 75.2396 84.5264 74.8385 84.8271 74.5059C85.1279 74.1686 85.4834 73.9111 85.8936 73.7334C86.3037 73.5557 86.748 73.4668 87.2266 73.4668C87.7552 73.4668 88.2178 73.5557 88.6143 73.7334C89.0107 73.9111 89.3389 74.1618 89.5986 74.4854C89.863 74.8044 90.0589 75.1849 90.1865 75.627C90.3187 76.069 90.3848 76.5566 90.3848 77.0898V77.7939H84.6699V76.6113H88.7578V76.4814C88.7487 76.1852 88.6895 75.9072 88.5801 75.6475C88.4753 75.3877 88.3135 75.1781 88.0947 75.0186C87.876 74.859 87.5843 74.7793 87.2197 74.7793C86.9463 74.7793 86.7025 74.8385 86.4883 74.957C86.2786 75.071 86.1032 75.2373 85.9619 75.4561C85.8206 75.6748 85.7113 75.9391 85.6338 76.249C85.5609 76.5544 85.5244 76.8984 85.5244 77.2812V77.5547C85.5244 77.8783 85.5677 78.179 85.6543 78.457C85.7454 78.7305 85.8776 78.9697 86.0508 79.1748C86.224 79.3799 86.4336 79.5417 86.6797 79.6602C86.9258 79.7741 87.2061 79.8311 87.5205 79.8311C87.917 79.8311 88.2702 79.7513 88.5801 79.5918C88.89 79.4323 89.1589 79.2067 89.3867 78.915L90.2549 79.7559C90.0954 79.9883 89.888 80.2116 89.6328 80.4258C89.3776 80.6354 89.0654 80.8063 88.6963 80.9385C88.3317 81.0706 87.9079 81.1367 87.4248 81.1367ZM93.4336 70.5V81H91.7793V70.5H93.4336ZM97.002 70.5V81H95.3477V70.5H97.002ZM98.8135 70.5H100.461V79.4209L100.304 81H98.8135V70.5ZM105.287 77.2334V77.377C105.287 77.9238 105.226 78.4274 105.103 78.8877C104.984 79.3434 104.802 79.7399 104.556 80.0771C104.314 80.4144 104.013 80.6764 103.653 80.8633C103.298 81.0456 102.885 81.1367 102.416 81.1367C101.956 81.1367 101.555 81.0501 101.213 80.877C100.871 80.7038 100.584 80.4577 100.352 80.1387C100.124 79.8197 99.9391 79.4391 99.7979 78.9971C99.6566 78.555 99.5563 78.0674 99.4971 77.5342V77.0762C99.5563 76.5384 99.6566 76.0508 99.7979 75.6133C99.9391 75.1712 100.124 74.7907 100.352 74.4717C100.584 74.1481 100.869 73.8997 101.206 73.7266C101.548 73.5534 101.947 73.4668 102.402 73.4668C102.876 73.4668 103.293 73.5579 103.653 73.7402C104.018 73.9225 104.321 74.1823 104.562 74.5195C104.804 74.8522 104.984 75.2487 105.103 75.709C105.226 76.1693 105.287 76.6774 105.287 77.2334ZM103.64 77.377V77.2334C103.64 76.9007 103.612 76.5885 103.558 76.2969C103.503 76.0007 103.412 75.7409 103.284 75.5176C103.161 75.2943 102.993 75.1188 102.778 74.9912C102.569 74.859 102.307 74.793 101.992 74.793C101.701 74.793 101.45 74.8431 101.24 74.9434C101.031 75.0436 100.855 75.1803 100.714 75.3535C100.573 75.5267 100.461 75.7272 100.379 75.9551C100.301 76.1829 100.249 76.429 100.222 76.6934V77.9307C100.263 78.2725 100.349 78.5869 100.481 78.874C100.618 79.1566 100.81 79.3844 101.056 79.5576C101.302 79.7262 101.618 79.8105 102.006 79.8105C102.311 79.8105 102.569 79.749 102.778 79.626C102.988 79.5029 103.154 79.332 103.277 79.1133C103.405 78.89 103.496 78.6302 103.551 78.334C103.61 78.0378 103.64 77.7188 103.64 77.377ZM109.942 81.1367C109.396 81.1367 108.901 81.0479 108.459 80.8701C108.021 80.6878 107.648 80.4349 107.338 80.1113C107.033 79.7878 106.798 79.4072 106.634 78.9697C106.47 78.5322 106.388 78.0605 106.388 77.5547V77.2812C106.388 76.7025 106.472 76.1784 106.641 75.709C106.809 75.2396 107.044 74.8385 107.345 74.5059C107.646 74.1686 108.001 73.9111 108.411 73.7334C108.821 73.5557 109.266 73.4668 109.744 73.4668C110.273 73.4668 110.735 73.5557 111.132 73.7334C111.528 73.9111 111.856 74.1618 112.116 74.4854C112.381 74.8044 112.576 75.1849 112.704 75.627C112.836 76.069 112.902 76.5566 112.902 77.0898V77.7939H107.188V76.6113H111.275V76.4814C111.266 76.1852 111.207 75.9072 111.098 75.6475C110.993 75.3877 110.831 75.1781 110.612 75.0186C110.394 74.859 110.102 74.7793 109.737 74.7793C109.464 74.7793 109.22 74.8385 109.006 74.957C108.796 75.071 108.621 75.2373 108.479 75.4561C108.338 75.6748 108.229 75.9391 108.151 76.249C108.078 76.5544 108.042 76.8984 108.042 77.2812V77.5547C108.042 77.8783 108.085 78.179 108.172 78.457C108.263 78.7305 108.395 78.9697 108.568 79.1748C108.742 79.3799 108.951 79.5417 109.197 79.6602C109.443 79.7741 109.724 79.8311 110.038 79.8311C110.435 79.8311 110.788 79.7513 111.098 79.5918C111.408 79.4323 111.676 79.2067 111.904 78.915L112.772 79.7559C112.613 79.9883 112.406 80.2116 112.15 80.4258C111.895 80.6354 111.583 80.8063 111.214 80.9385C110.849 81.0706 110.425 81.1367 109.942 81.1367ZM115.951 73.6035V81H114.297V73.6035H115.951ZM114.188 71.6621C114.188 71.4115 114.27 71.2041 114.434 71.04C114.602 70.8714 114.835 70.7871 115.131 70.7871C115.423 70.7871 115.653 70.8714 115.821 71.04C115.99 71.2041 116.074 71.4115 116.074 71.6621C116.074 71.9082 115.99 72.1133 115.821 72.2773C115.653 72.4414 115.423 72.5234 115.131 72.5234C114.835 72.5234 114.602 72.4414 114.434 72.2773C114.27 72.1133 114.188 71.9082 114.188 71.6621ZM119.39 75.1826V81H117.742V73.6035H119.294L119.39 75.1826ZM119.096 77.0283L118.562 77.0215C118.567 76.4974 118.64 76.0166 118.781 75.5791C118.927 75.1416 119.128 74.7656 119.383 74.4512C119.643 74.1367 119.952 73.8952 120.312 73.7266C120.673 73.5534 121.074 73.4668 121.516 73.4668C121.871 73.4668 122.192 73.5169 122.479 73.6172C122.771 73.7129 123.02 73.8701 123.225 74.0889C123.434 74.3076 123.594 74.5924 123.703 74.9434C123.812 75.2897 123.867 75.7158 123.867 76.2217V81H122.213V76.2148C122.213 75.8594 122.16 75.5791 122.056 75.374C121.955 75.1644 121.807 75.0163 121.611 74.9297C121.42 74.8385 121.181 74.793 120.894 74.793C120.611 74.793 120.358 74.8522 120.135 74.9707C119.911 75.0892 119.722 75.251 119.567 75.4561C119.417 75.6611 119.301 75.8981 119.219 76.167C119.137 76.4359 119.096 76.723 119.096 77.0283ZM130.286 73.6035H131.783V80.7949C131.783 81.4603 131.642 82.0254 131.359 82.4902C131.077 82.9551 130.683 83.3083 130.177 83.5498C129.671 83.7959 129.085 83.9189 128.42 83.9189C128.137 83.9189 127.823 83.8779 127.477 83.7959C127.135 83.7139 126.802 83.5817 126.479 83.3994C126.16 83.2217 125.893 82.987 125.679 82.6953L126.451 81.7246C126.715 82.0391 127.007 82.2692 127.326 82.415C127.645 82.5609 127.98 82.6338 128.331 82.6338C128.709 82.6338 129.031 82.5632 129.295 82.4219C129.564 82.2852 129.771 82.0824 129.917 81.8135C130.063 81.5446 130.136 81.2165 130.136 80.8291V75.2783L130.286 73.6035ZM125.262 77.3838V77.2402C125.262 76.6797 125.33 76.1693 125.467 75.709C125.604 75.2441 125.799 74.8454 126.055 74.5127C126.31 74.1755 126.62 73.918 126.984 73.7402C127.349 73.5579 127.761 73.4668 128.222 73.4668C128.7 73.4668 129.108 73.5534 129.445 73.7266C129.787 73.8997 130.072 74.1481 130.3 74.4717C130.528 74.7907 130.705 75.1735 130.833 75.6201C130.965 76.0622 131.063 76.5544 131.127 77.0967V77.5547C131.068 78.0833 130.967 78.5664 130.826 79.0039C130.685 79.4414 130.498 79.8197 130.266 80.1387C130.033 80.4577 129.746 80.7038 129.404 80.877C129.067 81.0501 128.668 81.1367 128.208 81.1367C127.757 81.1367 127.349 81.0433 126.984 80.8564C126.624 80.6696 126.314 80.4076 126.055 80.0703C125.799 79.7331 125.604 79.3366 125.467 78.8809C125.33 78.4206 125.262 77.9215 125.262 77.3838ZM126.909 77.2402V77.3838C126.909 77.721 126.941 78.0355 127.005 78.3271C127.073 78.6188 127.176 78.8763 127.312 79.0996C127.454 79.3184 127.632 79.4915 127.846 79.6191C128.064 79.7422 128.322 79.8037 128.618 79.8037C129.006 79.8037 129.322 79.7217 129.568 79.5576C129.819 79.3936 130.01 79.1725 130.143 78.8945C130.279 78.612 130.375 78.2975 130.43 77.9512V76.7139C130.402 76.445 130.345 76.1943 130.259 75.9619C130.177 75.7295 130.065 75.5267 129.924 75.3535C129.783 75.1758 129.605 75.0391 129.391 74.9434C129.176 74.8431 128.924 74.793 128.632 74.793C128.336 74.793 128.078 74.8568 127.859 74.9844C127.641 75.112 127.461 75.2874 127.319 75.5107C127.183 75.734 127.08 75.9938 127.012 76.29C126.943 76.5863 126.909 76.903 126.909 77.2402ZM137.013 77.0693V76.9531C137.013 75.9779 137.118 75.0938 137.327 74.3008C137.541 73.5033 137.819 72.806 138.161 72.209C138.503 71.6074 138.868 71.1107 139.255 70.7188C139.647 70.3223 140.023 70.0374 140.383 69.8643L140.711 70.8076C140.447 71.0036 140.182 71.2747 139.918 71.6211C139.658 71.9674 139.419 72.3936 139.2 72.8994C138.986 73.4007 138.813 73.9886 138.681 74.6631C138.553 75.333 138.489 76.0918 138.489 76.9395V77.083C138.489 77.9307 138.553 78.6917 138.681 79.3662C138.813 80.0361 138.986 80.624 139.2 81.1299C139.419 81.6357 139.658 82.0641 139.918 82.415C140.182 82.7705 140.447 83.0531 140.711 83.2627L140.383 84.165C140.023 83.9873 139.647 83.7002 139.255 83.3037C138.868 82.9118 138.503 82.415 138.161 81.8135C137.819 81.2165 137.541 80.5215 137.327 79.7285C137.118 78.931 137.013 78.0446 137.013 77.0693ZM143.466 76.3721L142.153 76.0508L142.693 71.0469H148.06V72.4414H144.061L143.787 74.8818C143.942 74.7907 144.156 74.7018 144.43 74.6152C144.703 74.5241 145.015 74.4785 145.366 74.4785C145.836 74.4785 146.255 74.556 146.624 74.7109C146.998 74.8613 147.314 75.0824 147.574 75.374C147.834 75.6611 148.032 76.012 148.169 76.4268C148.306 76.8369 148.374 77.2995 148.374 77.8145C148.374 78.2747 148.306 78.7054 148.169 79.1064C148.037 79.5075 147.836 79.8607 147.567 80.166C147.299 80.4714 146.959 80.7106 146.549 80.8838C146.143 81.0524 145.662 81.1367 145.106 81.1367C144.692 81.1367 144.293 81.0775 143.91 80.959C143.532 80.8359 143.192 80.6559 142.892 80.4189C142.591 80.1774 142.349 79.8812 142.167 79.5303C141.985 79.1748 141.88 78.7669 141.853 78.3066H143.466C143.507 78.6302 143.596 78.9059 143.732 79.1338C143.874 79.3571 144.061 79.528 144.293 79.6465C144.525 79.765 144.794 79.8242 145.1 79.8242C145.378 79.8242 145.617 79.7764 145.817 79.6807C146.018 79.5804 146.184 79.4391 146.316 79.2568C146.453 79.07 146.553 78.8512 146.617 78.6006C146.686 78.3499 146.72 78.0719 146.72 77.7666C146.72 77.4749 146.681 77.2083 146.604 76.9668C146.531 76.7253 146.419 76.5156 146.269 76.3379C146.123 76.1602 145.938 76.0234 145.715 75.9277C145.492 75.8275 145.234 75.7773 144.942 75.7773C144.55 75.7773 144.25 75.8343 144.04 75.9482C143.835 76.0622 143.644 76.2035 143.466 76.3721ZM156.181 75.1895V76.8164C156.181 77.5957 156.103 78.2611 155.948 78.8125C155.798 79.3594 155.579 79.8037 155.292 80.1455C155.005 80.4873 154.661 80.738 154.26 80.8975C153.863 81.057 153.419 81.1367 152.927 81.1367C152.535 81.1367 152.17 81.0866 151.833 80.9863C151.5 80.8861 151.2 80.7288 150.931 80.5146C150.662 80.3005 150.432 80.0247 150.24 79.6875C150.053 79.3457 149.908 78.9378 149.803 78.4639C149.702 77.9899 149.652 77.4408 149.652 76.8164V75.1895C149.652 74.4056 149.73 73.7448 149.885 73.207C150.04 72.6647 150.261 72.2249 150.548 71.8877C150.835 71.5459 151.177 71.2975 151.573 71.1426C151.974 70.9876 152.421 70.9102 152.913 70.9102C153.31 70.9102 153.674 70.9603 154.007 71.0605C154.344 71.1562 154.645 71.3089 154.909 71.5186C155.178 71.7282 155.406 72.0016 155.593 72.3389C155.784 72.6715 155.93 73.0749 156.03 73.5488C156.131 74.0182 156.181 74.5651 156.181 75.1895ZM154.533 77.0488V74.9434C154.533 74.5469 154.51 74.1982 154.465 73.8975C154.419 73.5921 154.351 73.3346 154.26 73.125C154.173 72.9108 154.064 72.7376 153.932 72.6055C153.799 72.4688 153.649 72.3708 153.48 72.3115C153.312 72.2477 153.123 72.2158 152.913 72.2158C152.658 72.2158 152.43 72.266 152.229 72.3662C152.029 72.4619 151.86 72.6169 151.724 72.8311C151.587 73.0452 151.482 73.3278 151.409 73.6787C151.341 74.0251 151.307 74.4466 151.307 74.9434V77.0488C151.307 77.4499 151.329 77.8031 151.375 78.1084C151.421 78.4137 151.489 78.6758 151.58 78.8945C151.671 79.1087 151.781 79.2865 151.908 79.4277C152.04 79.5645 152.191 79.6647 152.359 79.7285C152.533 79.7923 152.722 79.8242 152.927 79.8242C153.187 79.8242 153.417 79.7741 153.617 79.6738C153.818 79.5736 153.986 79.4141 154.123 79.1953C154.26 78.972 154.362 78.6826 154.431 78.3271C154.499 77.9717 154.533 77.5456 154.533 77.0488ZM162.894 70.5V81H161.239V70.5H162.894ZM167.487 73.6035L164.268 77.1719L162.504 78.9766L162.073 77.582L163.406 75.9346L165.498 73.6035H167.487ZM165.854 81L163.454 77.5273L164.493 76.3721L167.761 81H165.854ZM170.181 75.1074V81H168.533V73.6035H170.085L170.181 75.1074ZM169.914 77.0283L169.354 77.0215C169.354 76.5111 169.417 76.0394 169.545 75.6064C169.673 75.1735 169.859 74.7975 170.105 74.4785C170.352 74.1549 170.657 73.9066 171.021 73.7334C171.391 73.5557 171.817 73.4668 172.3 73.4668C172.637 73.4668 172.945 73.5169 173.223 73.6172C173.505 73.7129 173.749 73.8656 173.954 74.0752C174.164 74.2848 174.323 74.5537 174.433 74.8818C174.547 75.21 174.604 75.6064 174.604 76.0713V81H172.956V76.2148C172.956 75.8548 172.901 75.5723 172.792 75.3672C172.687 75.1621 172.535 75.0163 172.334 74.9297C172.138 74.8385 171.903 74.793 171.63 74.793C171.32 74.793 171.056 74.8522 170.837 74.9707C170.623 75.0892 170.447 75.251 170.311 75.4561C170.174 75.6611 170.074 75.8981 170.01 76.167C169.946 76.4359 169.914 76.723 169.914 77.0283ZM174.501 76.5908L173.729 76.7617C173.729 76.3151 173.79 75.8936 173.913 75.4971C174.041 75.096 174.225 74.7451 174.467 74.4443C174.713 74.139 175.016 73.8997 175.376 73.7266C175.736 73.5534 176.148 73.4668 176.613 73.4668C176.992 73.4668 177.329 73.5192 177.625 73.624C177.926 73.7243 178.181 73.8838 178.391 74.1025C178.6 74.3213 178.76 74.6061 178.869 74.957C178.979 75.3034 179.033 75.7227 179.033 76.2148V81H177.379V76.208C177.379 75.8343 177.324 75.5449 177.215 75.3398C177.11 75.1348 176.96 74.9935 176.764 74.916C176.568 74.834 176.333 74.793 176.06 74.793C175.804 74.793 175.579 74.8408 175.383 74.9365C175.191 75.0277 175.03 75.1576 174.897 75.3262C174.765 75.4902 174.665 75.6794 174.597 75.8936C174.533 76.1077 174.501 76.3402 174.501 76.5908ZM183.907 76.9531V77.0693C183.907 78.0309 183.798 78.9082 183.579 79.7012C183.365 80.4941 183.085 81.1914 182.738 81.793C182.396 82.3945 182.025 82.8958 181.624 83.2969C181.228 83.6979 180.847 83.9873 180.482 84.165L180.147 83.2627C180.412 83.0622 180.674 82.7865 180.934 82.4355C181.198 82.0892 181.437 81.6585 181.651 81.1436C181.87 80.6331 182.043 80.0407 182.171 79.3662C182.303 78.6917 182.369 77.9307 182.369 77.083V76.9395C182.369 76.0918 182.301 75.3307 182.164 74.6562C182.032 73.9772 181.854 73.3848 181.631 72.8789C181.408 72.3685 181.166 71.9378 180.906 71.5869C180.646 71.236 180.394 70.9626 180.147 70.7666L180.482 69.8643C180.847 70.0374 181.228 70.3245 181.624 70.7256C182.025 71.1266 182.396 71.6302 182.738 72.2363C183.085 72.8379 183.365 73.5352 183.579 74.3281C183.798 75.1211 183.907 75.9961 183.907 76.9531Z" fill="#707070"/>
<path fill-rule="evenodd" clip-rule="evenodd" d="M15.8333 108.583H4.16667C3.93655 108.583 3.75 108.77 3.75 109V119.833C3.75 120.063 3.93655 120.25 4.16667 120.25H15.8333C16.0634 120.25 16.25 120.063 16.25 119.833V109C16.25 108.77 16.0634 108.583 15.8333 108.583ZM4.16667 107.333C3.24619 107.333 2.5 108.079 2.5 109V119.833C2.5 120.754 3.24619 121.5 4.16667 121.5H15.8333C16.7538 121.5 17.5 120.754 17.5 119.833V109C17.5 108.079 16.7538 107.333 15.8333 107.333H4.16667Z" fill="#707070"/>
<path d="M5 106.5C5 106.04 5.3731 105.667 5.83333 105.667C6.29357 105.667 6.66667 106.04 6.66667 106.5V107.334C6.66667 107.794 6.29357 108.167 5.83333 108.167C5.3731 108.167 5 107.794 5 107.334V106.5Z" fill="#707070"/>
<path d="M13.333 106.5C13.333 106.04 13.7061 105.667 14.1663 105.667C14.6266 105.667 14.9997 106.04 14.9997 106.5V107.334C14.9997 107.794 14.6266 108.167 14.1663 108.167C13.7061 108.167 13.333 107.794 13.333 107.334V106.5Z" fill="#707070"/>
<path fill-rule="evenodd" clip-rule="evenodd" d="M15 111.292C15 111.637 14.7202 111.917 14.375 111.917H5.625C5.27983 111.917 5 111.637 5 111.292C5 110.947 5.27983 110.667 5.625 110.667H14.375C14.7202 110.667 15 110.947 15 111.292Z" fill="#707070"/>
<path d="M30.833 109.047V119H29.5342V109.047H30.833ZM34.0322 109.047V110.127H26.3418V109.047H34.0322ZM41.6598 113.326V114.399H36.273V113.326H41.6598ZM36.4781 109.047V119H35.1588V109.047H36.4781ZM42.8082 109.047V119H41.4957V109.047H42.8082ZM50.4973 109.047H51.8098V115.78C51.8098 116.528 51.6434 117.15 51.3107 117.646C50.9781 118.143 50.536 118.517 49.9846 118.768C49.4377 119.014 48.843 119.137 48.2004 119.137C47.5259 119.137 46.9152 119.014 46.3684 118.768C45.826 118.517 45.3954 118.143 45.0764 117.646C44.7619 117.15 44.6047 116.528 44.6047 115.78V109.047H45.9104V115.78C45.9104 116.3 46.0061 116.728 46.1975 117.065C46.3889 117.403 46.6555 117.653 46.9973 117.817C47.3436 117.981 47.7447 118.063 48.2004 118.063C48.6607 118.063 49.0617 117.981 49.4035 117.817C49.7499 117.653 50.0187 117.403 50.2102 117.065C50.4016 116.728 50.4973 116.3 50.4973 115.78V109.047ZM54.4881 117.496V118.515C54.4881 118.929 54.3833 119.367 54.1736 119.827C53.964 120.292 53.6701 120.679 53.2918 120.989L52.574 120.49C52.7199 120.29 52.8429 120.085 52.9432 119.875C53.0434 119.67 53.1186 119.456 53.1688 119.232C53.2234 119.014 53.2508 118.781 53.2508 118.535V117.496H54.4881ZM59.4824 109.047H60.7607L64.0215 117.161L67.2754 109.047H68.5605L64.5137 119H63.5156L59.4824 109.047ZM59.0654 109.047H60.1934L60.3779 115.117V119H59.0654V109.047ZM67.8428 109.047H68.9707V119H67.6582V115.117L67.8428 109.047ZM74.7457 109.929L71.4508 119H70.1041L73.898 109.047H74.7662L74.7457 109.929ZM77.5074 119L74.2057 109.929L74.1852 109.047H75.0533L78.8609 119H77.5074ZM77.3365 115.315V116.396H71.7447V115.315H77.3365ZM79.8439 109.047H83.1389C83.8863 109.047 84.5174 109.161 85.0324 109.389C85.552 109.617 85.9462 109.954 86.215 110.4C86.4885 110.842 86.6252 111.387 86.6252 112.034C86.6252 112.49 86.5318 112.907 86.3449 113.285C86.1626 113.659 85.8983 113.978 85.552 114.242C85.2102 114.502 84.8 114.696 84.3215 114.823L83.9523 114.967H80.8557L80.842 113.894H83.1799C83.6538 113.894 84.048 113.812 84.3625 113.647C84.677 113.479 84.9139 113.253 85.0734 112.971C85.2329 112.688 85.3127 112.376 85.3127 112.034C85.3127 111.651 85.2375 111.316 85.0871 111.029C84.9367 110.742 84.6997 110.521 84.3762 110.366C84.0572 110.207 83.6447 110.127 83.1389 110.127H81.1633V119H79.8439V109.047ZM85.6613 119L83.2414 114.488L84.6154 114.481L87.0695 118.918V119H85.6613ZM97.4369 117.961V119H90.9223V118.091L94.183 114.461C94.584 114.014 94.8939 113.636 95.1127 113.326C95.336 113.012 95.4909 112.731 95.5775 112.485C95.6687 112.235 95.7143 111.979 95.7143 111.72C95.7143 111.392 95.6459 111.095 95.5092 110.831C95.377 110.562 95.1811 110.348 94.9213 110.188C94.6615 110.029 94.3471 109.949 93.9779 109.949C93.5359 109.949 93.1667 110.036 92.8705 110.209C92.5788 110.378 92.3601 110.615 92.2143 110.92C92.0684 111.225 91.9955 111.576 91.9955 111.973H90.7309C90.7309 111.412 90.8539 110.899 91.1 110.435C91.3461 109.97 91.7107 109.601 92.1937 109.327C92.6768 109.049 93.2715 108.91 93.9779 108.91C94.6068 108.91 95.1446 109.022 95.5912 109.245C96.0378 109.464 96.3796 109.774 96.6166 110.175C96.8581 110.571 96.9789 111.036 96.9789 111.569C96.9789 111.861 96.9288 112.157 96.8285 112.458C96.7328 112.754 96.5984 113.05 96.4252 113.347C96.2566 113.643 96.0583 113.935 95.8305 114.222C95.6072 114.509 95.3679 114.791 95.1127 115.069L92.4467 117.961H97.4369ZM104.716 116.307C104.716 116.913 104.575 117.428 104.292 117.852C104.014 118.271 103.636 118.59 103.157 118.809C102.683 119.027 102.148 119.137 101.551 119.137C100.954 119.137 100.416 119.027 99.9375 118.809C99.459 118.59 99.0807 118.271 98.8027 117.852C98.5247 117.428 98.3857 116.913 98.3857 116.307C98.3857 115.91 98.4609 115.548 98.6113 115.22C98.7663 114.887 98.9827 114.598 99.2607 114.352C99.5433 114.105 99.876 113.916 100.259 113.784C100.646 113.647 101.072 113.579 101.537 113.579C102.148 113.579 102.692 113.698 103.171 113.935C103.649 114.167 104.025 114.488 104.299 114.898C104.577 115.309 104.716 115.778 104.716 116.307ZM103.444 116.279C103.444 115.91 103.365 115.584 103.205 115.302C103.046 115.015 102.822 114.791 102.535 114.632C102.248 114.472 101.915 114.393 101.537 114.393C101.15 114.393 100.815 114.472 100.532 114.632C100.254 114.791 100.038 115.015 99.8828 115.302C99.7279 115.584 99.6504 115.91 99.6504 116.279C99.6504 116.662 99.7256 116.99 99.876 117.264C100.031 117.533 100.25 117.74 100.532 117.886C100.819 118.027 101.159 118.098 101.551 118.098C101.943 118.098 102.28 118.027 102.562 117.886C102.845 117.74 103.062 117.533 103.212 117.264C103.367 116.99 103.444 116.662 103.444 116.279ZM104.483 111.638C104.483 112.121 104.356 112.556 104.101 112.943C103.845 113.331 103.497 113.636 103.055 113.859C102.613 114.083 102.111 114.194 101.551 114.194C100.981 114.194 100.473 114.083 100.026 113.859C99.5843 113.636 99.238 113.331 98.9873 112.943C98.7367 112.556 98.6113 112.121 98.6113 111.638C98.6113 111.059 98.7367 110.567 98.9873 110.161C99.2425 109.756 99.5911 109.446 100.033 109.231C100.475 109.017 100.979 108.91 101.544 108.91C102.114 108.91 102.619 109.017 103.062 109.231C103.504 109.446 103.85 109.756 104.101 110.161C104.356 110.567 104.483 111.059 104.483 111.638ZM103.219 111.658C103.219 111.326 103.148 111.032 103.007 110.776C102.866 110.521 102.67 110.321 102.419 110.175C102.168 110.024 101.877 109.949 101.544 109.949C101.211 109.949 100.92 110.02 100.669 110.161C100.423 110.298 100.229 110.494 100.088 110.749C99.9512 111.004 99.8828 111.307 99.8828 111.658C99.8828 112 99.9512 112.299 100.088 112.554C100.229 112.809 100.425 113.007 100.676 113.148C100.926 113.29 101.218 113.36 101.551 113.36C101.883 113.36 102.173 113.29 102.419 113.148C102.67 113.007 102.866 112.809 103.007 112.554C103.148 112.299 103.219 112 103.219 111.658ZM109.273 114.017C109.273 113.802 109.339 113.622 109.471 113.477C109.603 113.326 109.797 113.251 110.052 113.251C110.307 113.251 110.501 113.326 110.633 113.477C110.77 113.622 110.838 113.802 110.838 114.017C110.838 114.226 110.77 114.404 110.633 114.55C110.501 114.691 110.307 114.762 110.052 114.762C109.797 114.762 109.603 114.691 109.471 114.55C109.339 114.404 109.273 114.226 109.273 114.017ZM117.124 114.263L116.113 114.003L116.612 109.047H121.718V110.216H117.685L117.384 112.923C117.566 112.818 117.797 112.72 118.075 112.629C118.357 112.538 118.681 112.492 119.045 112.492C119.506 112.492 119.918 112.572 120.283 112.731C120.647 112.886 120.957 113.11 121.212 113.401C121.472 113.693 121.67 114.044 121.807 114.454C121.944 114.864 122.012 115.322 122.012 115.828C122.012 116.307 121.946 116.746 121.814 117.147C121.686 117.549 121.493 117.899 121.233 118.2C120.973 118.496 120.645 118.727 120.248 118.891C119.857 119.055 119.394 119.137 118.861 119.137C118.46 119.137 118.079 119.082 117.719 118.973C117.364 118.859 117.045 118.688 116.762 118.46C116.484 118.228 116.256 117.94 116.079 117.599C115.905 117.252 115.796 116.847 115.75 116.382H116.954C117.008 116.756 117.118 117.07 117.282 117.325C117.446 117.58 117.66 117.774 117.924 117.906C118.193 118.034 118.505 118.098 118.861 118.098C119.162 118.098 119.428 118.045 119.661 117.94C119.893 117.836 120.089 117.685 120.248 117.489C120.408 117.293 120.529 117.056 120.611 116.778C120.697 116.5 120.741 116.188 120.741 115.842C120.741 115.527 120.697 115.236 120.611 114.967C120.524 114.698 120.394 114.463 120.221 114.263C120.052 114.062 119.845 113.907 119.599 113.798C119.353 113.684 119.07 113.627 118.751 113.627C118.328 113.627 118.006 113.684 117.787 113.798C117.573 113.912 117.352 114.067 117.124 114.263ZM123.132 118.33C123.132 118.116 123.198 117.936 123.33 117.79C123.467 117.64 123.663 117.564 123.918 117.564C124.173 117.564 124.367 117.64 124.499 117.79C124.636 117.936 124.704 118.116 124.704 118.33C124.704 118.54 124.636 118.717 124.499 118.863C124.367 119.009 124.173 119.082 123.918 119.082C123.663 119.082 123.467 119.009 123.33 118.863C123.198 118.717 123.132 118.54 123.132 118.33ZM123.139 112.294C123.139 112.08 123.205 111.9 123.337 111.754C123.474 111.604 123.67 111.528 123.925 111.528C124.18 111.528 124.374 111.604 124.506 111.754C124.643 111.9 124.711 112.08 124.711 112.294C124.711 112.504 124.643 112.681 124.506 112.827C124.374 112.973 124.18 113.046 123.925 113.046C123.67 113.046 123.474 112.973 123.337 112.827C123.205 112.681 123.139 112.504 123.139 112.294ZM132.338 113.23V114.748C132.338 115.564 132.266 116.252 132.12 116.812C131.974 117.373 131.764 117.824 131.491 118.166C131.217 118.508 130.887 118.756 130.5 118.911C130.117 119.062 129.684 119.137 129.201 119.137C128.818 119.137 128.465 119.089 128.141 118.993C127.818 118.897 127.526 118.745 127.266 118.535C127.011 118.321 126.792 118.043 126.61 117.701C126.428 117.359 126.289 116.945 126.193 116.457C126.097 115.969 126.049 115.4 126.049 114.748V113.23C126.049 112.415 126.122 111.731 126.268 111.18C126.419 110.628 126.63 110.186 126.904 109.854C127.177 109.516 127.505 109.275 127.888 109.129C128.276 108.983 128.709 108.91 129.187 108.91C129.574 108.91 129.93 108.958 130.254 109.054C130.582 109.145 130.873 109.293 131.129 109.498C131.384 109.699 131.6 109.967 131.778 110.305C131.96 110.637 132.099 111.045 132.195 111.528C132.291 112.011 132.338 112.579 132.338 113.23ZM131.067 114.953V113.019C131.067 112.572 131.04 112.18 130.985 111.843C130.935 111.501 130.86 111.209 130.759 110.968C130.659 110.726 130.532 110.53 130.377 110.38C130.226 110.229 130.051 110.12 129.85 110.052C129.654 109.979 129.433 109.942 129.187 109.942C128.886 109.942 128.62 109.999 128.387 110.113C128.155 110.223 127.959 110.398 127.799 110.64C127.644 110.881 127.526 111.198 127.444 111.59C127.362 111.982 127.321 112.458 127.321 113.019V114.953C127.321 115.4 127.346 115.794 127.396 116.136C127.451 116.478 127.531 116.774 127.635 117.024C127.74 117.271 127.868 117.473 128.018 117.633C128.169 117.792 128.342 117.911 128.538 117.988C128.738 118.061 128.959 118.098 129.201 118.098C129.511 118.098 129.782 118.038 130.014 117.92C130.247 117.801 130.44 117.617 130.595 117.366C130.755 117.111 130.873 116.785 130.951 116.389C131.028 115.988 131.067 115.509 131.067 114.953ZM139.863 113.23V114.748C139.863 115.564 139.791 116.252 139.645 116.812C139.499 117.373 139.289 117.824 139.016 118.166C138.742 118.508 138.412 118.756 138.025 118.911C137.642 119.062 137.209 119.137 136.726 119.137C136.343 119.137 135.99 119.089 135.666 118.993C135.343 118.897 135.051 118.745 134.791 118.535C134.536 118.321 134.317 118.043 134.135 117.701C133.953 117.359 133.814 116.945 133.718 116.457C133.622 115.969 133.574 115.4 133.574 114.748V113.23C133.574 112.415 133.647 111.731 133.793 111.18C133.944 110.628 134.155 110.186 134.429 109.854C134.702 109.516 135.03 109.275 135.413 109.129C135.801 108.983 136.234 108.91 136.712 108.91C137.099 108.91 137.455 108.958 137.779 109.054C138.107 109.145 138.398 109.293 138.654 109.498C138.909 109.699 139.125 109.967 139.303 110.305C139.485 110.637 139.624 111.045 139.72 111.528C139.816 112.011 139.863 112.579 139.863 113.23ZM138.592 114.953V113.019C138.592 112.572 138.565 112.18 138.51 111.843C138.46 111.501 138.385 111.209 138.284 110.968C138.184 110.726 138.057 110.53 137.902 110.38C137.751 110.229 137.576 110.12 137.375 110.052C137.179 109.979 136.958 109.942 136.712 109.942C136.411 109.942 136.145 109.999 135.912 110.113C135.68 110.223 135.484 110.398 135.324 110.64C135.169 110.881 135.051 111.198 134.969 111.59C134.887 111.982 134.846 112.458 134.846 113.019V114.953C134.846 115.4 134.871 115.794 134.921 116.136C134.976 116.478 135.056 116.774 135.16 117.024C135.265 117.271 135.393 117.473 135.543 117.633C135.694 117.792 135.867 117.911 136.063 117.988C136.263 118.061 136.484 118.098 136.726 118.098C137.036 118.098 137.307 118.038 137.539 117.92C137.772 117.801 137.965 117.617 138.12 117.366C138.28 117.111 138.398 116.785 138.476 116.389C138.553 115.988 138.592 115.509 138.592 114.953ZM148.262 115.097H145.603V114.023H148.262C148.777 114.023 149.194 113.941 149.513 113.777C149.832 113.613 150.065 113.385 150.21 113.094C150.361 112.802 150.436 112.469 150.436 112.096C150.436 111.754 150.361 111.433 150.21 111.132C150.065 110.831 149.832 110.59 149.513 110.407C149.194 110.22 148.777 110.127 148.262 110.127H145.911V119H144.591V109.047H148.262C149.014 109.047 149.65 109.177 150.169 109.437C150.689 109.696 151.083 110.056 151.352 110.517C151.621 110.972 151.755 111.494 151.755 112.082C151.755 112.72 151.621 113.265 151.352 113.716C151.083 114.167 150.689 114.511 150.169 114.748C149.65 114.98 149.014 115.097 148.262 115.097ZM153.49 109.047H154.769L158.029 117.161L161.283 109.047H162.568L158.521 119H157.523L153.49 109.047ZM153.073 109.047H154.201L154.386 115.117V119H153.073V109.047ZM161.851 109.047H162.979V119H161.666V115.117L161.851 109.047ZM171.739 115.097H169.08V114.023H171.739C172.254 114.023 172.671 113.941 172.99 113.777C173.309 113.613 173.542 113.385 173.688 113.094C173.838 112.802 173.913 112.469 173.913 112.096C173.913 111.754 173.838 111.433 173.688 111.132C173.542 110.831 173.309 110.59 172.99 110.407C172.671 110.22 172.254 110.127 171.739 110.127H169.388V119H168.069V109.047H171.739C172.491 109.047 173.127 109.177 173.647 109.437C174.166 109.696 174.56 110.056 174.829 110.517C175.098 110.972 175.233 111.494 175.233 112.082C175.233 112.72 175.098 113.265 174.829 113.716C174.56 114.167 174.166 114.511 173.647 114.748C173.127 114.98 172.491 115.097 171.739 115.097ZM179.244 119H177.166L177.179 117.927H179.244C179.955 117.927 180.547 117.779 181.021 117.482C181.495 117.182 181.851 116.762 182.088 116.225C182.329 115.682 182.45 115.049 182.45 114.324V113.716C182.45 113.146 182.382 112.64 182.245 112.198C182.108 111.752 181.908 111.376 181.643 111.07C181.379 110.76 181.055 110.526 180.673 110.366C180.294 110.207 179.859 110.127 179.367 110.127H177.125V109.047H179.367C180.019 109.047 180.613 109.156 181.151 109.375C181.689 109.589 182.151 109.901 182.539 110.312C182.931 110.717 183.232 111.209 183.441 111.788C183.651 112.362 183.756 113.009 183.756 113.729V114.324C183.756 115.044 183.651 115.694 183.441 116.272C183.232 116.847 182.929 117.337 182.532 117.742C182.14 118.148 181.666 118.46 181.11 118.679C180.559 118.893 179.937 119 179.244 119ZM177.87 109.047V119H176.551V109.047H177.87ZM188.874 109.047V119H187.576V109.047H188.874ZM192.074 109.047V110.127H184.383V109.047H192.074Z" fill="#212121"/>
<path fill-rule="evenodd" clip-rule="evenodd" d="M10.0003 155.084C13.9123 155.084 17.0837 151.912 17.0837 148C17.0837 144.088 13.9123 140.917 10.0003 140.917C6.08831 140.917 2.91699 144.088 2.91699 148C2.91699 151.912 6.08831 155.084 10.0003 155.084ZM10.0003 156.334C14.6027 156.334 18.3337 152.603 18.3337 148C18.3337 143.398 14.6027 139.667 10.0003 139.667C5.39795 139.667 1.66699 143.398 1.66699 148C1.66699 152.603 5.39795 156.334 10.0003 156.334Z" fill="#707070"/>
<path fill-rule="evenodd" clip-rule="evenodd" d="M15.4419 145.058C15.686 145.302 15.686 145.698 15.4419 145.942L9.65916 151.725C8.92691 152.457 7.73974 152.457 7.00751 151.725L4.55806 149.275C4.31398 149.031 4.31398 148.635 4.55806 148.391C4.80213 148.147 5.19786 148.147 5.44194 148.391L7.89139 150.841C8.13546 151.085 8.53116 151.085 8.77525 150.841L14.5581 145.058C14.8022 144.814 15.1978 144.814 15.4419 145.058Z" fill="#707070"/>
<path d="M34.6328 149.172V150.359H26.4141V149.508L31.5078 141.625H32.6875L31.4219 143.906L28.0547 149.172H34.6328ZM33.0469 141.625V153H31.6016V141.625H33.0469ZM40.6953 141.562V153H39.25V143.367L36.3359 144.43V143.125L40.4688 141.562H40.6953ZM54.5469 144.547H55.8594V152.82C55.8594 153.565 55.7083 154.201 55.4062 154.727C55.1042 155.253 54.6823 155.651 54.1406 155.922C53.6042 156.198 52.9844 156.336 52.2812 156.336C51.9896 156.336 51.6458 156.289 51.25 156.195C50.8594 156.107 50.474 155.953 50.0938 155.734C49.7188 155.521 49.4036 155.232 49.1484 154.867L49.9062 154.008C50.2604 154.435 50.6302 154.732 51.0156 154.898C51.4062 155.065 51.7917 155.148 52.1719 155.148C52.6302 155.148 53.026 155.062 53.3594 154.891C53.6927 154.719 53.9505 154.464 54.1328 154.125C54.3203 153.792 54.4141 153.38 54.4141 152.891V146.406L54.5469 144.547ZM48.7266 148.867V148.703C48.7266 148.057 48.8021 147.471 48.9531 146.945C49.1094 146.414 49.3307 145.958 49.6172 145.578C49.9089 145.198 50.2604 144.906 50.6719 144.703C51.0833 144.495 51.5469 144.391 52.0625 144.391C52.5938 144.391 53.0573 144.484 53.4531 144.672C53.8542 144.854 54.1927 145.122 54.4688 145.477C54.75 145.826 54.9714 146.247 55.1328 146.742C55.2943 147.237 55.4062 147.797 55.4688 148.422V149.141C55.4115 149.76 55.2995 150.318 55.1328 150.812C54.9714 151.307 54.75 151.729 54.4688 152.078C54.1927 152.427 53.8542 152.695 53.4531 152.883C53.0521 153.065 52.5833 153.156 52.0469 153.156C51.5417 153.156 51.0833 153.049 50.6719 152.836C50.2656 152.622 49.9167 152.323 49.625 151.938C49.3333 151.552 49.1094 151.099 48.9531 150.578C48.8021 150.052 48.7266 149.482 48.7266 148.867ZM50.1719 148.703V148.867C50.1719 149.289 50.2135 149.685 50.2969 150.055C50.3854 150.424 50.5182 150.75 50.6953 151.031C50.8776 151.312 51.1094 151.534 51.3906 151.695C51.6719 151.852 52.0078 151.93 52.3984 151.93C52.8776 151.93 53.2734 151.828 53.5859 151.625C53.8984 151.422 54.1458 151.154 54.3281 150.82C54.5156 150.487 54.6615 150.125 54.7656 149.734V147.852C54.7083 147.565 54.6198 147.289 54.5 147.023C54.3854 146.753 54.2344 146.513 54.0469 146.305C53.8646 146.091 53.638 145.922 53.3672 145.797C53.0964 145.672 52.7786 145.609 52.4141 145.609C52.0182 145.609 51.6771 145.693 51.3906 145.859C51.1094 146.021 50.8776 146.245 50.6953 146.531C50.5182 146.812 50.3854 147.141 50.2969 147.516C50.2135 147.885 50.1719 148.281 50.1719 148.703ZM57.6719 148.867V148.688C57.6719 148.078 57.7604 147.513 57.9375 146.992C58.1146 146.466 58.3698 146.01 58.7031 145.625C59.0365 145.234 59.4401 144.932 59.9141 144.719C60.388 144.5 60.9193 144.391 61.5078 144.391C62.1016 144.391 62.6354 144.5 63.1094 144.719C63.5885 144.932 63.9948 145.234 64.3281 145.625C64.6667 146.01 64.9245 146.466 65.1016 146.992C65.2786 147.513 65.3672 148.078 65.3672 148.688V148.867C65.3672 149.477 65.2786 150.042 65.1016 150.562C64.9245 151.083 64.6667 151.539 64.3281 151.93C63.9948 152.315 63.5911 152.617 63.1172 152.836C62.6484 153.049 62.1172 153.156 61.5234 153.156C60.9297 153.156 60.3958 153.049 59.9219 152.836C59.4479 152.617 59.0417 152.315 58.7031 151.93C58.3698 151.539 58.1146 151.083 57.9375 150.562C57.7604 150.042 57.6719 149.477 57.6719 148.867ZM59.1172 148.688V148.867C59.1172 149.289 59.1667 149.688 59.2656 150.062C59.3646 150.432 59.513 150.76 59.7109 151.047C59.9141 151.333 60.1667 151.56 60.4688 151.727C60.7708 151.888 61.1224 151.969 61.5234 151.969C61.9193 151.969 62.2656 151.888 62.5625 151.727C62.8646 151.56 63.1146 151.333 63.3125 151.047C63.5104 150.76 63.6589 150.432 63.7578 150.062C63.862 149.688 63.9141 149.289 63.9141 148.867V148.688C63.9141 148.271 63.862 147.878 63.7578 147.508C63.6589 147.133 63.5078 146.802 63.3047 146.516C63.1068 146.224 62.8568 145.995 62.5547 145.828C62.2578 145.661 61.9089 145.578 61.5078 145.578C61.112 145.578 60.763 145.661 60.4609 145.828C60.1641 145.995 59.9141 146.224 59.7109 146.516C59.513 146.802 59.3646 147.133 59.2656 147.508C59.1667 147.878 59.1172 148.271 59.1172 148.688ZM68.75 144.547V153H67.2969V144.547H68.75ZM67.1875 142.305C67.1875 142.07 67.2578 141.872 67.3984 141.711C67.5443 141.549 67.7578 141.469 68.0391 141.469C68.3151 141.469 68.526 141.549 68.6719 141.711C68.8229 141.872 68.8984 142.07 68.8984 142.305C68.8984 142.529 68.8229 142.721 68.6719 142.883C68.526 143.039 68.3151 143.117 68.0391 143.117C67.7578 143.117 67.5443 143.039 67.3984 142.883C67.2578 142.721 67.1875 142.529 67.1875 142.305ZM72.5156 146.352V153H71.0703V144.547H72.4375L72.5156 146.352ZM72.1719 148.453L71.5703 148.43C71.5755 147.852 71.6615 147.318 71.8281 146.828C71.9948 146.333 72.2292 145.904 72.5312 145.539C72.8333 145.174 73.1927 144.893 73.6094 144.695C74.0312 144.492 74.4974 144.391 75.0078 144.391C75.4245 144.391 75.7995 144.448 76.1328 144.562C76.4661 144.672 76.75 144.849 76.9844 145.094C77.224 145.339 77.4062 145.656 77.5312 146.047C77.6562 146.432 77.7188 146.904 77.7188 147.461V153H76.2656V147.445C76.2656 147.003 76.2005 146.648 76.0703 146.383C75.9401 146.112 75.75 145.917 75.5 145.797C75.25 145.672 74.9427 145.609 74.5781 145.609C74.2188 145.609 73.8906 145.685 73.5938 145.836C73.3021 145.987 73.0495 146.195 72.8359 146.461C72.6276 146.727 72.4635 147.031 72.3438 147.375C72.2292 147.714 72.1719 148.073 72.1719 148.453ZM85.3906 144.547H86.7031V152.82C86.7031 153.565 86.5521 154.201 86.25 154.727C85.9479 155.253 85.526 155.651 84.9844 155.922C84.4479 156.198 83.8281 156.336 83.125 156.336C82.8333 156.336 82.4896 156.289 82.0938 156.195C81.7031 156.107 81.3177 155.953 80.9375 155.734C80.5625 155.521 80.2474 155.232 79.9922 154.867L80.75 154.008C81.1042 154.435 81.474 154.732 81.8594 154.898C82.25 155.065 82.6354 155.148 83.0156 155.148C83.474 155.148 83.8698 155.062 84.2031 154.891C84.5365 154.719 84.7943 154.464 84.9766 154.125C85.1641 153.792 85.2578 153.38 85.2578 152.891V146.406L85.3906 144.547ZM79.5703 148.867V148.703C79.5703 148.057 79.6458 147.471 79.7969 146.945C79.9531 146.414 80.1745 145.958 80.4609 145.578C80.7526 145.198 81.1042 144.906 81.5156 144.703C81.9271 144.495 82.3906 144.391 82.9062 144.391C83.4375 144.391 83.901 144.484 84.2969 144.672C84.6979 144.854 85.0365 145.122 85.3125 145.477C85.5938 145.826 85.8151 146.247 85.9766 146.742C86.138 147.237 86.25 147.797 86.3125 148.422V149.141C86.2552 149.76 86.1432 150.318 85.9766 150.812C85.8151 151.307 85.5938 151.729 85.3125 152.078C85.0365 152.427 84.6979 152.695 84.2969 152.883C83.8958 153.065 83.4271 153.156 82.8906 153.156C82.3854 153.156 81.9271 153.049 81.5156 152.836C81.1094 152.622 80.7604 152.323 80.4688 151.938C80.1771 151.552 79.9531 151.099 79.7969 150.578C79.6458 150.052 79.5703 149.482 79.5703 148.867ZM81.0156 148.703V148.867C81.0156 149.289 81.0573 149.685 81.1406 150.055C81.2292 150.424 81.362 150.75 81.5391 151.031C81.7214 151.312 81.9531 151.534 82.2344 151.695C82.5156 151.852 82.8516 151.93 83.2422 151.93C83.7214 151.93 84.1172 151.828 84.4297 151.625C84.7422 151.422 84.9896 151.154 85.1719 150.82C85.3594 150.487 85.5052 150.125 85.6094 149.734V147.852C85.5521 147.565 85.4635 147.289 85.3438 147.023C85.2292 146.753 85.0781 146.513 84.8906 146.305C84.7083 146.091 84.4818 145.922 84.2109 145.797C83.9401 145.672 83.6224 145.609 83.2578 145.609C82.862 145.609 82.5208 145.693 82.2344 145.859C81.9531 146.021 81.7214 146.245 81.5391 146.531C81.362 146.812 81.2292 147.141 81.1406 147.516C81.0573 147.885 81.0156 148.281 81.0156 148.703Z" fill="#212121"/>
<path fill-rule="evenodd" clip-rule="evenodd" d="M120.393 143C121.01 143 121.549 142.665 121.837 142.166H123.727C124.187 142.166 124.56 142.539 124.56 143V144.771C123.122 145.141 122.06 146.447 122.06 148C122.06 149.553 123.122 150.858 124.56 151.228V153C124.56 153.46 124.187 153.833 123.727 153.833H121.837C121.549 153.335 121.01 153 120.393 153C119.776 153 119.238 153.335 118.95 153.833H110.393C109.933 153.833 109.56 153.46 109.56 153V151.228C110.998 150.858 112.06 149.553 112.06 148C112.06 146.447 110.998 145.141 109.56 144.771V143C109.56 142.539 109.933 142.166 110.393 142.166H118.95C119.238 142.665 119.776 143 120.393 143ZM122.893 148C122.893 146.619 124.012 145.5 125.393 145.5V143C125.393 142.079 124.647 141.333 123.727 141.333H121.227C121.227 141.793 120.853 142.166 120.393 142.166C119.933 142.166 119.56 141.793 119.56 141.333H110.393C109.473 141.333 108.727 142.079 108.727 143V145.5C110.107 145.5 111.227 146.619 111.227 148C111.227 149.38 110.107 150.5 108.727 150.5V153C108.727 153.92 109.473 154.666 110.393 154.666H119.56C119.56 154.206 119.933 153.833 120.393 153.833C120.853 153.833 121.227 154.206 121.227 154.666H123.727C124.647 154.666 125.393 153.92 125.393 153V150.5C124.012 150.5 122.893 149.38 122.893 148ZM120.393 145.5C120.853 145.5 121.227 145.127 121.227 144.666C121.227 144.206 120.853 143.833 120.393 143.833C119.933 143.833 119.56 144.206 119.56 144.666C119.56 145.127 119.933 145.5 120.393 145.5ZM120.393 148.833C120.853 148.833 121.227 148.46 121.227 148C121.227 147.539 120.853 147.166 120.393 147.166C119.933 147.166 119.56 147.539 119.56 148C119.56 148.46 119.933 148.833 120.393 148.833ZM121.227 151.333C121.227 151.793 120.853 152.166 120.393 152.166C119.933 152.166 119.56 151.793 119.56 151.333C119.56 150.873 119.933 150.5 120.393 150.5C120.853 150.5 121.227 150.873 121.227 151.333Z" fill="#707070"/>
<path d="M135.888 141.625V153H134.38V141.625H135.888ZM140.653 146.742V147.977H135.56V146.742H140.653ZM141.427 141.625V142.859H135.56V141.625H141.427ZM144.247 145.875V153H142.802V144.547H144.208L144.247 145.875ZM146.888 144.5L146.88 145.844C146.76 145.818 146.646 145.802 146.536 145.797C146.432 145.786 146.312 145.781 146.177 145.781C145.843 145.781 145.549 145.833 145.294 145.938C145.039 146.042 144.823 146.188 144.646 146.375C144.468 146.562 144.328 146.786 144.224 147.047C144.125 147.302 144.06 147.583 144.028 147.891L143.622 148.125C143.622 147.615 143.672 147.135 143.771 146.688C143.875 146.24 144.034 145.844 144.247 145.5C144.461 145.151 144.731 144.88 145.06 144.688C145.393 144.49 145.789 144.391 146.247 144.391C146.351 144.391 146.471 144.404 146.606 144.43C146.742 144.451 146.836 144.474 146.888 144.5ZM151.575 153.156C150.987 153.156 150.453 153.057 149.974 152.859C149.5 152.656 149.091 152.372 148.747 152.008C148.409 151.643 148.148 151.211 147.966 150.711C147.784 150.211 147.692 149.664 147.692 149.07V148.742C147.692 148.055 147.794 147.443 147.997 146.906C148.2 146.365 148.476 145.906 148.825 145.531C149.174 145.156 149.57 144.872 150.013 144.68C150.455 144.487 150.914 144.391 151.388 144.391C151.992 144.391 152.513 144.495 152.95 144.703C153.393 144.911 153.755 145.203 154.036 145.578C154.317 145.948 154.526 146.385 154.661 146.891C154.797 147.391 154.864 147.938 154.864 148.531V149.18H148.552V148H153.419V147.891C153.398 147.516 153.32 147.151 153.185 146.797C153.054 146.443 152.846 146.151 152.56 145.922C152.273 145.693 151.882 145.578 151.388 145.578C151.06 145.578 150.757 145.648 150.481 145.789C150.205 145.924 149.968 146.128 149.771 146.398C149.573 146.669 149.419 147 149.31 147.391C149.2 147.781 149.146 148.232 149.146 148.742V149.07C149.146 149.471 149.2 149.849 149.31 150.203C149.424 150.552 149.588 150.859 149.802 151.125C150.021 151.391 150.284 151.599 150.591 151.75C150.903 151.901 151.257 151.977 151.653 151.977C152.164 151.977 152.596 151.872 152.95 151.664C153.304 151.456 153.614 151.177 153.88 150.828L154.755 151.523C154.573 151.799 154.341 152.062 154.06 152.312C153.778 152.562 153.432 152.766 153.021 152.922C152.614 153.078 152.132 153.156 151.575 153.156ZM160.06 153.156C159.471 153.156 158.937 153.057 158.458 152.859C157.984 152.656 157.575 152.372 157.231 152.008C156.893 151.643 156.632 151.211 156.45 150.711C156.268 150.211 156.177 149.664 156.177 149.07V148.742C156.177 148.055 156.278 147.443 156.481 146.906C156.685 146.365 156.961 145.906 157.31 145.531C157.659 145.156 158.054 144.872 158.497 144.68C158.94 144.487 159.398 144.391 159.872 144.391C160.476 144.391 160.997 144.495 161.435 144.703C161.877 144.911 162.239 145.203 162.521 145.578C162.802 145.948 163.01 146.385 163.146 146.891C163.281 147.391 163.349 147.938 163.349 148.531V149.18H157.036V148H161.903V147.891C161.882 147.516 161.804 147.151 161.669 146.797C161.539 146.443 161.33 146.151 161.044 145.922C160.757 145.693 160.367 145.578 159.872 145.578C159.544 145.578 159.242 145.648 158.966 145.789C158.69 145.924 158.453 146.128 158.255 146.398C158.057 146.669 157.903 147 157.794 147.391C157.685 147.781 157.63 148.232 157.63 148.742V149.07C157.63 149.471 157.685 149.849 157.794 150.203C157.909 150.552 158.073 150.859 158.286 151.125C158.505 151.391 158.768 151.599 159.075 151.75C159.388 151.901 159.742 151.977 160.138 151.977C160.648 151.977 161.08 151.872 161.435 151.664C161.789 151.456 162.099 151.177 162.364 150.828L163.239 151.523C163.057 151.799 162.825 152.062 162.544 152.312C162.263 152.562 161.916 152.766 161.505 152.922C161.099 153.078 160.617 153.156 160.06 153.156Z" fill="#212121"/>
</svg>
