<svg width="272" height="214" viewBox="0 0 272 214" fill="none" xmlns="http://www.w3.org/2000/svg">
<path d="M6.35742 16.2168L9.90234 4.78125H12.8809L7.86133 19H5.87891L6.35742 16.2168ZM3.08594 4.78125L6.61133 16.2168L7.11914 19H5.11719L0.117188 4.78125H3.08594ZM16.8848 8.43359V19H14.2969V8.43359H16.8848ZM14.1211 5.66992C14.1211 5.28581 14.2513 4.9668 14.5117 4.71289C14.7786 4.45898 15.1367 4.33203 15.5859 4.33203C16.0352 4.33203 16.39 4.45898 16.6504 4.71289C16.9173 4.9668 17.0508 5.28581 17.0508 5.66992C17.0508 6.04753 16.9173 6.36328 16.6504 6.61719C16.39 6.87109 16.0352 6.99805 15.5859 6.99805C15.1367 6.99805 14.7786 6.87109 14.5117 6.61719C14.2513 6.36328 14.1211 6.04753 14.1211 5.66992ZM25.1562 16.1094C25.1562 15.888 25.0977 15.6895 24.9805 15.5137C24.8633 15.3379 24.6419 15.1784 24.3164 15.0352C23.9974 14.8854 23.5286 14.7454 22.9102 14.6152C22.3633 14.498 21.8587 14.3516 21.3965 14.1758C20.9342 14 20.5371 13.7884 20.2051 13.541C19.873 13.2871 19.6126 12.9909 19.4238 12.6523C19.2415 12.3073 19.1504 11.9102 19.1504 11.4609C19.1504 11.0247 19.2448 10.6146 19.4336 10.2305C19.6224 9.83984 19.8958 9.49805 20.2539 9.20508C20.612 8.9056 21.0482 8.67122 21.5625 8.50195C22.0768 8.32617 22.6562 8.23828 23.3008 8.23828C24.1992 8.23828 24.9707 8.38477 25.6152 8.67773C26.2663 8.9707 26.7643 9.37435 27.1094 9.88867C27.4544 10.3965 27.627 10.9694 27.627 11.6074H25.0488C25.0488 11.3275 24.9837 11.0736 24.8535 10.8457C24.7298 10.6178 24.5378 10.4355 24.2773 10.2988C24.0169 10.1556 23.6882 10.084 23.291 10.084C22.9329 10.084 22.6302 10.1426 22.3828 10.2598C22.1419 10.377 21.9596 10.5299 21.8359 10.7188C21.7122 10.9076 21.6504 11.1159 21.6504 11.3438C21.6504 11.513 21.6829 11.666 21.748 11.8027C21.8197 11.9329 21.9336 12.0534 22.0898 12.1641C22.2461 12.2747 22.4577 12.3757 22.7246 12.4668C22.998 12.5579 23.3333 12.6458 23.7305 12.7305C24.5182 12.8867 25.2051 13.0951 25.791 13.3555C26.3835 13.6094 26.8457 13.9479 27.1777 14.3711C27.5098 14.7943 27.6758 15.3346 27.6758 15.9922C27.6758 16.4609 27.5749 16.8906 27.373 17.2812C27.1712 17.6654 26.8783 18.0007 26.4941 18.2871C26.11 18.5736 25.651 18.7982 25.1172 18.9609C24.5833 19.1172 23.9811 19.1953 23.3105 19.1953C22.3405 19.1953 21.5202 19.0228 20.8496 18.6777C20.179 18.3262 19.6712 17.8835 19.3262 17.3496C18.9811 16.8092 18.8086 16.2493 18.8086 15.6699H21.2793C21.2988 16.0801 21.4095 16.4089 21.6113 16.6562C21.8132 16.9036 22.0671 17.0827 22.373 17.1934C22.6855 17.2975 23.0143 17.3496 23.3594 17.3496C23.75 17.3496 24.0788 17.2975 24.3457 17.1934C24.6126 17.0827 24.8145 16.9362 24.9512 16.7539C25.0879 16.5651 25.1562 16.3503 25.1562 16.1094ZM32.373 8.43359V19H29.7852V8.43359H32.373ZM29.6094 5.66992C29.6094 5.28581 29.7396 4.9668 30 4.71289C30.2669 4.45898 30.625 4.33203 31.0742 4.33203C31.5234 4.33203 31.8783 4.45898 32.1387 4.71289C32.4056 4.9668 32.5391 5.28581 32.5391 5.66992C32.5391 6.04753 32.4056 6.36328 32.1387 6.61719C31.8783 6.87109 31.5234 6.99805 31.0742 6.99805C30.625 6.99805 30.2669 6.87109 30 6.61719C29.7396 6.36328 29.6094 6.04753 29.6094 5.66992ZM34.375 13.8242V13.6191C34.375 12.8444 34.4857 12.1315 34.707 11.4805C34.9284 10.8229 35.2507 10.2533 35.6738 9.77148C36.097 9.28971 36.6146 8.91536 37.2266 8.64844C37.8385 8.375 38.5352 8.23828 39.3164 8.23828C40.1107 8.23828 40.8138 8.375 41.4258 8.64844C42.0443 8.91536 42.5651 9.28971 42.9883 9.77148C43.4115 10.2533 43.7337 10.8229 43.9551 11.4805C44.1764 12.1315 44.2871 12.8444 44.2871 13.6191V13.8242C44.2871 14.5924 44.1764 15.3053 43.9551 15.9629C43.7337 16.6139 43.4115 17.1836 42.9883 17.6719C42.5651 18.1536 42.0475 18.528 41.4355 18.7949C40.8236 19.0618 40.1237 19.1953 39.3359 19.1953C38.5547 19.1953 37.8548 19.0618 37.2363 18.7949C36.6178 18.528 36.097 18.1536 35.6738 17.6719C35.2507 17.1836 34.9284 16.6139 34.707 15.9629C34.4857 15.3053 34.375 14.5924 34.375 13.8242ZM36.9531 13.6191V13.8242C36.9531 14.2865 36.9987 14.7194 37.0898 15.123C37.181 15.5267 37.321 15.8815 37.5098 16.1875C37.6986 16.4935 37.9427 16.7344 38.2422 16.9102C38.5482 17.0794 38.9128 17.1641 39.3359 17.1641C39.7526 17.1641 40.1107 17.0794 40.4102 16.9102C40.7096 16.7344 40.9538 16.4935 41.1426 16.1875C41.3379 15.8815 41.4811 15.5267 41.5723 15.123C41.6634 14.7194 41.709 14.2865 41.709 13.8242V13.6191C41.709 13.1634 41.6634 12.737 41.5723 12.3398C41.4811 11.9362 41.3379 11.5814 41.1426 11.2754C40.9538 10.9629 40.7064 10.7188 40.4004 10.543C40.1009 10.3607 39.7396 10.2695 39.3164 10.2695C38.8997 10.2695 38.5417 10.3607 38.2422 10.543C37.9427 10.7188 37.6986 10.9629 37.5098 11.2754C37.321 11.5814 37.181 11.9362 37.0898 12.3398C36.9987 12.737 36.9531 13.1634 36.9531 13.6191ZM48.6914 10.6895V19H46.1133V8.43359H48.5352L48.6914 10.6895ZM48.2812 13.3359H47.5195C47.526 12.5677 47.6302 11.8711 47.832 11.2461C48.0339 10.6211 48.3171 10.084 48.6816 9.63477C49.0527 9.18555 49.4922 8.84049 50 8.59961C50.5078 8.35872 51.0742 8.23828 51.6992 8.23828C52.207 8.23828 52.666 8.3099 53.0762 8.45312C53.4863 8.59635 53.8379 8.82422 54.1309 9.13672C54.4303 9.44922 54.6582 9.85938 54.8145 10.3672C54.9772 10.8685 55.0586 11.487 55.0586 12.2227V19H52.4609V12.2031C52.4609 11.7214 52.3893 11.3405 52.2461 11.0605C52.1094 10.7806 51.9076 10.582 51.6406 10.4648C51.3802 10.3477 51.0579 10.2891 50.6738 10.2891C50.2767 10.2891 49.9284 10.3704 49.6289 10.5332C49.3359 10.6895 49.0885 10.9076 48.8867 11.1875C48.6914 11.4674 48.5417 11.7897 48.4375 12.1543C48.3333 12.5189 48.2812 12.9128 48.2812 13.3359ZM67.9785 13.8145H64.3164V11.7051H67.9785C68.5775 11.7051 69.0625 11.6074 69.4336 11.4121C69.8112 11.2103 70.0879 10.9368 70.2637 10.5918C70.4395 10.2402 70.5273 9.83984 70.5273 9.39062C70.5273 8.95443 70.4395 8.54753 70.2637 8.16992C70.0879 7.79232 69.8112 7.48633 69.4336 7.25195C69.0625 7.01758 68.5775 6.90039 67.9785 6.90039H65.1953V19H62.5098V4.78125H67.9785C69.0853 4.78125 70.0293 4.97982 70.8105 5.37695C71.5983 5.76758 72.1973 6.3112 72.6074 7.00781C73.0241 7.69792 73.2324 8.48568 73.2324 9.37109C73.2324 10.2891 73.0241 11.0801 72.6074 11.7441C72.1973 12.4082 71.5983 12.9193 70.8105 13.2773C70.0293 13.6354 69.0853 13.8145 67.9785 13.8145ZM77.7246 10.5918V19H75.1465V8.43359H77.5879L77.7246 10.5918ZM80.9375 8.36523L80.8984 10.7676C80.7552 10.7415 80.5924 10.722 80.4102 10.709C80.2344 10.696 80.0684 10.6895 79.9121 10.6895C79.515 10.6895 79.1667 10.7448 78.8672 10.8555C78.5677 10.9596 78.3171 11.1126 78.1152 11.3145C77.9199 11.5163 77.7702 11.7637 77.666 12.0566C77.5618 12.3431 77.5033 12.6686 77.4902 13.0332L76.9336 12.9648C76.9336 12.2943 77.002 11.6725 77.1387 11.0996C77.2754 10.5267 77.474 10.0254 77.7344 9.5957C77.9948 9.16602 78.3203 8.83398 78.7109 8.59961C79.1081 8.35872 79.5638 8.23828 80.0781 8.23828C80.2214 8.23828 80.3743 8.2513 80.5371 8.27734C80.7064 8.29688 80.8398 8.32617 80.9375 8.36523ZM81.6211 13.8242V13.6191C81.6211 12.8444 81.7318 12.1315 81.9531 11.4805C82.1745 10.8229 82.4967 10.2533 82.9199 9.77148C83.3431 9.28971 83.8607 8.91536 84.4727 8.64844C85.0846 8.375 85.7812 8.23828 86.5625 8.23828C87.3568 8.23828 88.0599 8.375 88.6719 8.64844C89.2904 8.91536 89.8112 9.28971 90.2344 9.77148C90.6576 10.2533 90.9798 10.8229 91.2012 11.4805C91.4225 12.1315 91.5332 12.8444 91.5332 13.6191V13.8242C91.5332 14.5924 91.4225 15.3053 91.2012 15.9629C90.9798 16.6139 90.6576 17.1836 90.2344 17.6719C89.8112 18.1536 89.2936 18.528 88.6816 18.7949C88.0697 19.0618 87.3698 19.1953 86.582 19.1953C85.8008 19.1953 85.1009 19.0618 84.4824 18.7949C83.8639 18.528 83.3431 18.1536 82.9199 17.6719C82.4967 17.1836 82.1745 16.6139 81.9531 15.9629C81.7318 15.3053 81.6211 14.5924 81.6211 13.8242ZM84.1992 13.6191V13.8242C84.1992 14.2865 84.2448 14.7194 84.3359 15.123C84.4271 15.5267 84.5671 15.8815 84.7559 16.1875C84.9447 16.4935 85.1888 16.7344 85.4883 16.9102C85.7943 17.0794 86.1589 17.1641 86.582 17.1641C86.9987 17.1641 87.3568 17.0794 87.6562 16.9102C87.9557 16.7344 88.1999 16.4935 88.3887 16.1875C88.584 15.8815 88.7272 15.5267 88.8184 15.123C88.9095 14.7194 88.9551 14.2865 88.9551 13.8242V13.6191C88.9551 13.1634 88.9095 12.737 88.8184 12.3398C88.7272 11.9362 88.584 11.5814 88.3887 11.2754C88.1999 10.9629 87.9525 10.7188 87.6465 10.543C87.347 10.3607 86.9857 10.2695 86.5625 10.2695C86.1458 10.2695 85.7878 10.3607 85.4883 10.543C85.1888 10.7188 84.9447 10.9629 84.7559 11.2754C84.5671 11.5814 84.4271 11.9362 84.3359 12.3398C84.2448 12.737 84.1992 13.1634 84.1992 13.6191ZM102.832 19H99.7656L99.7852 16.8906H102.832C103.659 16.8906 104.352 16.7083 104.912 16.3438C105.472 15.9727 105.895 15.4421 106.182 14.752C106.468 14.0553 106.611 13.222 106.611 12.252V11.5195C106.611 10.7708 106.53 10.11 106.367 9.53711C106.204 8.96419 105.964 8.48242 105.645 8.0918C105.332 7.70117 104.945 7.40495 104.482 7.20312C104.02 7.0013 103.49 6.90039 102.891 6.90039H99.707V4.78125H102.891C103.841 4.78125 104.707 4.94076 105.488 5.25977C106.276 5.57878 106.956 6.03776 107.529 6.63672C108.109 7.22917 108.551 7.9388 108.857 8.76562C109.17 9.59245 109.326 10.5169 109.326 11.5391V12.252C109.326 13.2676 109.17 14.1921 108.857 15.0254C108.551 15.8522 108.109 16.5618 107.529 17.1543C106.956 17.7467 106.273 18.2025 105.479 18.5215C104.684 18.8405 103.802 19 102.832 19ZM101.27 4.78125V19H98.584V4.78125H101.27ZM116.162 19.1953C115.361 19.1953 114.642 19.0651 114.004 18.8047C113.366 18.5443 112.822 18.1829 112.373 17.7207C111.93 17.252 111.589 16.7083 111.348 16.0898C111.113 15.4648 110.996 14.7943 110.996 14.0781V13.6875C110.996 12.8737 111.113 12.1348 111.348 11.4707C111.582 10.8001 111.914 10.224 112.344 9.74219C112.773 9.26042 113.288 8.88932 113.887 8.62891C114.486 8.36849 115.146 8.23828 115.869 8.23828C116.618 8.23828 117.279 8.36523 117.852 8.61914C118.424 8.86654 118.903 9.2181 119.287 9.67383C119.671 10.1296 119.961 10.6764 120.156 11.3145C120.352 11.946 120.449 12.6458 120.449 13.4141V14.498H112.168V12.7207H117.91V12.5254C117.897 12.1152 117.819 11.7409 117.676 11.4023C117.533 11.0573 117.311 10.7839 117.012 10.582C116.712 10.3737 116.325 10.2695 115.85 10.2695C115.465 10.2695 115.13 10.3542 114.844 10.5234C114.564 10.6862 114.329 10.9206 114.141 11.2266C113.958 11.526 113.822 11.8841 113.73 12.3008C113.639 12.7174 113.594 13.1797 113.594 13.6875V14.0781C113.594 14.5208 113.652 14.931 113.77 15.3086C113.893 15.6862 114.072 16.015 114.307 16.2949C114.548 16.5684 114.834 16.7832 115.166 16.9395C115.505 17.0892 115.889 17.1641 116.318 17.1641C116.859 17.1641 117.347 17.0599 117.783 16.8516C118.226 16.6367 118.61 16.321 118.936 15.9043L120.234 17.252C120.013 17.5775 119.714 17.89 119.336 18.1895C118.965 18.4889 118.516 18.7331 117.988 18.9219C117.461 19.1042 116.852 19.1953 116.162 19.1953ZM125.547 17.0469L128.008 8.43359H130.703L127.08 19H125.439L125.547 17.0469ZM123.75 8.43359L126.24 17.0664L126.328 19H124.678L121.045 8.43359H123.75ZM136.67 19.1953C135.869 19.1953 135.15 19.0651 134.512 18.8047C133.874 18.5443 133.33 18.1829 132.881 17.7207C132.438 17.252 132.096 16.7083 131.855 16.0898C131.621 15.4648 131.504 14.7943 131.504 14.0781V13.6875C131.504 12.8737 131.621 12.1348 131.855 11.4707C132.09 10.8001 132.422 10.224 132.852 9.74219C133.281 9.26042 133.796 8.88932 134.395 8.62891C134.993 8.36849 135.654 8.23828 136.377 8.23828C137.126 8.23828 137.786 8.36523 138.359 8.61914C138.932 8.86654 139.411 9.2181 139.795 9.67383C140.179 10.1296 140.469 10.6764 140.664 11.3145C140.859 11.946 140.957 12.6458 140.957 13.4141V14.498H132.676V12.7207H138.418V12.5254C138.405 12.1152 138.327 11.7409 138.184 11.4023C138.04 11.0573 137.819 10.7839 137.52 10.582C137.22 10.3737 136.833 10.2695 136.357 10.2695C135.973 10.2695 135.638 10.3542 135.352 10.5234C135.072 10.6862 134.837 10.9206 134.648 11.2266C134.466 11.526 134.329 11.8841 134.238 12.3008C134.147 12.7174 134.102 13.1797 134.102 13.6875V14.0781C134.102 14.5208 134.16 14.931 134.277 15.3086C134.401 15.6862 134.58 16.015 134.814 16.2949C135.055 16.5684 135.342 16.7832 135.674 16.9395C136.012 17.0892 136.396 17.1641 136.826 17.1641C137.367 17.1641 137.855 17.0599 138.291 16.8516C138.734 16.6367 139.118 16.321 139.443 15.9043L140.742 17.252C140.521 17.5775 140.221 17.89 139.844 18.1895C139.473 18.4889 139.023 18.7331 138.496 18.9219C137.969 19.1042 137.36 19.1953 136.67 19.1953ZM145.42 4V19H142.832V4H145.42ZM147.422 13.8242V13.6191C147.422 12.8444 147.533 12.1315 147.754 11.4805C147.975 10.8229 148.298 10.2533 148.721 9.77148C149.144 9.28971 149.661 8.91536 150.273 8.64844C150.885 8.375 151.582 8.23828 152.363 8.23828C153.158 8.23828 153.861 8.375 154.473 8.64844C155.091 8.91536 155.612 9.28971 156.035 9.77148C156.458 10.2533 156.781 10.8229 157.002 11.4805C157.223 12.1315 157.334 12.8444 157.334 13.6191V13.8242C157.334 14.5924 157.223 15.3053 157.002 15.9629C156.781 16.6139 156.458 17.1836 156.035 17.6719C155.612 18.1536 155.094 18.528 154.482 18.7949C153.87 19.0618 153.171 19.1953 152.383 19.1953C151.602 19.1953 150.902 19.0618 150.283 18.7949C149.665 18.528 149.144 18.1536 148.721 17.6719C148.298 17.1836 147.975 16.6139 147.754 15.9629C147.533 15.3053 147.422 14.5924 147.422 13.8242ZM150 13.6191V13.8242C150 14.2865 150.046 14.7194 150.137 15.123C150.228 15.5267 150.368 15.8815 150.557 16.1875C150.745 16.4935 150.99 16.7344 151.289 16.9102C151.595 17.0794 151.96 17.1641 152.383 17.1641C152.799 17.1641 153.158 17.0794 153.457 16.9102C153.757 16.7344 154.001 16.4935 154.189 16.1875C154.385 15.8815 154.528 15.5267 154.619 15.123C154.71 14.7194 154.756 14.2865 154.756 13.8242V13.6191C154.756 13.1634 154.71 12.737 154.619 12.3398C154.528 11.9362 154.385 11.5814 154.189 11.2754C154.001 10.9629 153.753 10.7188 153.447 10.543C153.148 10.3607 152.786 10.2695 152.363 10.2695C151.947 10.2695 151.589 10.3607 151.289 10.543C150.99 10.7188 150.745 10.9629 150.557 11.2754C150.368 11.5814 150.228 11.9362 150.137 12.3398C150.046 12.737 150 13.1634 150 13.6191ZM161.787 10.4648V23.0625H159.199V8.43359H161.592L161.787 10.4648ZM168.574 13.6094V13.8145C168.574 14.5827 168.483 15.2956 168.301 15.9531C168.125 16.6042 167.865 17.1738 167.52 17.6621C167.174 18.1439 166.745 18.5215 166.23 18.7949C165.723 19.0618 165.137 19.1953 164.473 19.1953C163.822 19.1953 163.255 19.0716 162.773 18.8242C162.292 18.5703 161.885 18.2122 161.553 17.75C161.221 17.2878 160.954 16.7507 160.752 16.1387C160.557 15.5202 160.41 14.8464 160.312 14.1172V13.4629C160.41 12.6882 160.557 11.985 160.752 11.3535C160.954 10.7155 161.221 10.1654 161.553 9.70312C161.885 9.23438 162.288 8.87305 162.764 8.61914C163.245 8.36523 163.809 8.23828 164.453 8.23828C165.124 8.23828 165.713 8.36523 166.221 8.61914C166.735 8.87305 167.168 9.23763 167.52 9.71289C167.871 10.1882 168.135 10.7546 168.311 11.4121C168.486 12.0697 168.574 12.8021 168.574 13.6094ZM165.986 13.8145V13.6094C165.986 13.1406 165.944 12.7077 165.859 12.3105C165.775 11.9069 165.645 11.5553 165.469 11.2559C165.293 10.9499 165.065 10.7122 164.785 10.543C164.505 10.3737 164.167 10.2891 163.77 10.2891C163.372 10.2891 163.031 10.3542 162.744 10.4844C162.458 10.6146 162.223 10.8001 162.041 11.041C161.859 11.2819 161.715 11.5684 161.611 11.9004C161.514 12.2259 161.449 12.5872 161.416 12.9844V14.6055C161.475 15.0872 161.589 15.5202 161.758 15.9043C161.927 16.2884 162.174 16.5944 162.5 16.8223C162.832 17.0501 163.262 17.1641 163.789 17.1641C164.186 17.1641 164.525 17.0762 164.805 16.9004C165.085 16.7246 165.312 16.4837 165.488 16.1777C165.664 15.8652 165.791 15.5072 165.869 15.1035C165.947 14.6999 165.986 14.2702 165.986 13.8145ZM175.205 19.1953C174.404 19.1953 173.685 19.0651 173.047 18.8047C172.409 18.5443 171.865 18.1829 171.416 17.7207C170.973 17.252 170.632 16.7083 170.391 16.0898C170.156 15.4648 170.039 14.7943 170.039 14.0781V13.6875C170.039 12.8737 170.156 12.1348 170.391 11.4707C170.625 10.8001 170.957 10.224 171.387 9.74219C171.816 9.26042 172.331 8.88932 172.93 8.62891C173.529 8.36849 174.189 8.23828 174.912 8.23828C175.661 8.23828 176.322 8.36523 176.895 8.61914C177.467 8.86654 177.946 9.2181 178.33 9.67383C178.714 10.1296 179.004 10.6764 179.199 11.3145C179.395 11.946 179.492 12.6458 179.492 13.4141V14.498H171.211V12.7207H176.953V12.5254C176.94 12.1152 176.862 11.7409 176.719 11.4023C176.576 11.0573 176.354 10.7839 176.055 10.582C175.755 10.3737 175.368 10.2695 174.893 10.2695C174.508 10.2695 174.173 10.3542 173.887 10.5234C173.607 10.6862 173.372 10.9206 173.184 11.2266C173.001 11.526 172.865 11.8841 172.773 12.3008C172.682 12.7174 172.637 13.1797 172.637 13.6875V14.0781C172.637 14.5208 172.695 14.931 172.812 15.3086C172.936 15.6862 173.115 16.015 173.35 16.2949C173.59 16.5684 173.877 16.7832 174.209 16.9395C174.548 17.0892 174.932 17.1641 175.361 17.1641C175.902 17.1641 176.39 17.0599 176.826 16.8516C177.269 16.6367 177.653 16.321 177.979 15.9043L179.277 17.252C179.056 17.5775 178.757 17.89 178.379 18.1895C178.008 18.4889 177.559 18.7331 177.031 18.9219C176.504 19.1042 175.895 19.1953 175.205 19.1953ZM183.799 10.5918V19H181.221V8.43359H183.662L183.799 10.5918ZM187.012 8.36523L186.973 10.7676C186.829 10.7415 186.667 10.722 186.484 10.709C186.309 10.696 186.143 10.6895 185.986 10.6895C185.589 10.6895 185.241 10.7448 184.941 10.8555C184.642 10.9596 184.391 11.1126 184.189 11.3145C183.994 11.5163 183.844 11.7637 183.74 12.0566C183.636 12.3431 183.577 12.6686 183.564 13.0332L183.008 12.9648C183.008 12.2943 183.076 11.6725 183.213 11.0996C183.35 10.5267 183.548 10.0254 183.809 9.5957C184.069 9.16602 184.395 8.83398 184.785 8.59961C185.182 8.35872 185.638 8.23828 186.152 8.23828C186.296 8.23828 186.449 8.2513 186.611 8.27734C186.781 8.29688 186.914 8.32617 187.012 8.36523ZM194.238 16.1094C194.238 15.888 194.18 15.6895 194.062 15.5137C193.945 15.3379 193.724 15.1784 193.398 15.0352C193.079 14.8854 192.611 14.7454 191.992 14.6152C191.445 14.498 190.941 14.3516 190.479 14.1758C190.016 14 189.619 13.7884 189.287 13.541C188.955 13.2871 188.695 12.9909 188.506 12.6523C188.324 12.3073 188.232 11.9102 188.232 11.4609C188.232 11.0247 188.327 10.6146 188.516 10.2305C188.704 9.83984 188.978 9.49805 189.336 9.20508C189.694 8.9056 190.13 8.67122 190.645 8.50195C191.159 8.32617 191.738 8.23828 192.383 8.23828C193.281 8.23828 194.053 8.38477 194.697 8.67773C195.348 8.9707 195.846 9.37435 196.191 9.88867C196.536 10.3965 196.709 10.9694 196.709 11.6074H194.131C194.131 11.3275 194.066 11.0736 193.936 10.8457C193.812 10.6178 193.62 10.4355 193.359 10.2988C193.099 10.1556 192.77 10.084 192.373 10.084C192.015 10.084 191.712 10.1426 191.465 10.2598C191.224 10.377 191.042 10.5299 190.918 10.7188C190.794 10.9076 190.732 11.1159 190.732 11.3438C190.732 11.513 190.765 11.666 190.83 11.8027C190.902 11.9329 191.016 12.0534 191.172 12.1641C191.328 12.2747 191.54 12.3757 191.807 12.4668C192.08 12.5579 192.415 12.6458 192.812 12.7305C193.6 12.8867 194.287 13.0951 194.873 13.3555C195.465 13.6094 195.928 13.9479 196.26 14.3711C196.592 14.7943 196.758 15.3346 196.758 15.9922C196.758 16.4609 196.657 16.8906 196.455 17.2812C196.253 17.6654 195.96 18.0007 195.576 18.2871C195.192 18.5736 194.733 18.7982 194.199 18.9609C193.665 19.1172 193.063 19.1953 192.393 19.1953C191.423 19.1953 190.602 19.0228 189.932 18.6777C189.261 18.3262 188.753 17.8835 188.408 17.3496C188.063 16.8092 187.891 16.2493 187.891 15.6699H190.361C190.381 16.0801 190.492 16.4089 190.693 16.6562C190.895 16.9036 191.149 17.0827 191.455 17.1934C191.768 17.2975 192.096 17.3496 192.441 17.3496C192.832 17.3496 193.161 17.2975 193.428 17.1934C193.695 17.0827 193.896 16.9362 194.033 16.7539C194.17 16.5651 194.238 16.3503 194.238 16.1094ZM12.8711 35.5293V36.2617C12.8711 37.3359 12.7279 38.3027 12.4414 39.1621C12.1549 40.015 11.748 40.7409 11.2207 41.3398C10.6934 41.9388 10.0651 42.3978 9.33594 42.7168C8.60677 43.0358 7.79622 43.1953 6.9043 43.1953C6.02539 43.1953 5.2181 43.0358 4.48242 42.7168C3.75326 42.3978 3.12174 41.9388 2.58789 41.3398C2.05404 40.7409 1.64062 40.015 1.34766 39.1621C1.05469 38.3027 0.908203 37.3359 0.908203 36.2617V35.5293C0.908203 34.4486 1.05469 33.4818 1.34766 32.6289C1.64062 31.776 2.05078 31.0501 2.57812 30.4512C3.10547 29.8457 3.73372 29.3835 4.46289 29.0645C5.19857 28.7454 6.00586 28.5859 6.88477 28.5859C7.77669 28.5859 8.58724 28.7454 9.31641 29.0645C10.0456 29.3835 10.6738 29.8457 11.2012 30.4512C11.735 31.0501 12.1452 31.776 12.4316 32.6289C12.7246 33.4818 12.8711 34.4486 12.8711 35.5293ZM10.1562 36.2617V35.5098C10.1562 34.735 10.0846 34.0547 9.94141 33.4688C9.79818 32.8763 9.58659 32.3783 9.30664 31.9746C9.02669 31.571 8.68164 31.2682 8.27148 31.0664C7.86133 30.8581 7.39909 30.7539 6.88477 30.7539C6.36393 30.7539 5.90169 30.8581 5.49805 31.0664C5.10091 31.2682 4.76237 31.571 4.48242 31.9746C4.20247 32.3783 3.98763 32.8763 3.83789 33.4688C3.69466 34.0547 3.62305 34.735 3.62305 35.5098V36.2617C3.62305 37.0299 3.69466 37.7103 3.83789 38.3027C3.98763 38.8952 4.20247 39.3965 4.48242 39.8066C4.76888 40.2103 5.11393 40.5163 5.51758 40.7246C5.92122 40.9329 6.38346 41.0371 6.9043 41.0371C7.42513 41.0371 7.88737 40.9329 8.29102 40.7246C8.69466 40.5163 9.0332 40.2103 9.30664 39.8066C9.58659 39.3965 9.79818 38.8952 9.94141 38.3027C10.0846 37.7103 10.1562 37.0299 10.1562 36.2617ZM17.4805 34.6895V43H14.9023V32.4336H17.3242L17.4805 34.6895ZM17.0703 37.3359H16.3086C16.3151 36.5677 16.4193 35.8711 16.6211 35.2461C16.8229 34.6211 17.1061 34.084 17.4707 33.6348C17.8418 33.1855 18.2812 32.8405 18.7891 32.5996C19.2969 32.3587 19.8633 32.2383 20.4883 32.2383C20.9961 32.2383 21.4551 32.3099 21.8652 32.4531C22.2754 32.5964 22.627 32.8242 22.9199 33.1367C23.2194 33.4492 23.4473 33.8594 23.6035 34.3672C23.7663 34.8685 23.8477 35.487 23.8477 36.2227V43H21.25V36.2031C21.25 35.7214 21.1784 35.3405 21.0352 35.0605C20.8984 34.7806 20.6966 34.582 20.4297 34.4648C20.1693 34.3477 19.847 34.2891 19.4629 34.2891C19.0658 34.2891 18.7174 34.3704 18.418 34.5332C18.125 34.6895 17.8776 34.9076 17.6758 35.1875C17.4805 35.4674 17.3307 35.7897 17.2266 36.1543C17.1224 36.5189 17.0703 36.9128 17.0703 37.3359ZM28.8574 28V43H26.2695V28H28.8574ZM34.0527 32.4336V43H31.4648V32.4336H34.0527ZM31.2891 29.6699C31.2891 29.2858 31.4193 28.9668 31.6797 28.7129C31.9466 28.459 32.3047 28.332 32.7539 28.332C33.2031 28.332 33.5579 28.459 33.8184 28.7129C34.0853 28.9668 34.2188 29.2858 34.2188 29.6699C34.2188 30.0475 34.0853 30.3633 33.8184 30.6172C33.5579 30.8711 33.2031 30.998 32.7539 30.998C32.3047 30.998 31.9466 30.8711 31.6797 30.6172C31.4193 30.3633 31.2891 30.0475 31.2891 29.6699ZM39.043 34.6895V43H36.4648V32.4336H38.8867L39.043 34.6895ZM38.6328 37.3359H37.8711C37.8776 36.5677 37.9818 35.8711 38.1836 35.2461C38.3854 34.6211 38.6686 34.084 39.0332 33.6348C39.4043 33.1855 39.8438 32.8405 40.3516 32.5996C40.8594 32.3587 41.4258 32.2383 42.0508 32.2383C42.5586 32.2383 43.0176 32.3099 43.4277 32.4531C43.8379 32.5964 44.1895 32.8242 44.4824 33.1367C44.7819 33.4492 45.0098 33.8594 45.166 34.3672C45.3288 34.8685 45.4102 35.487 45.4102 36.2227V43H42.8125V36.2031C42.8125 35.7214 42.7409 35.3405 42.5977 35.0605C42.4609 34.7806 42.2591 34.582 41.9922 34.4648C41.7318 34.3477 41.4095 34.2891 41.0254 34.2891C40.6283 34.2891 40.2799 34.3704 39.9805 34.5332C39.6875 34.6895 39.4401 34.9076 39.2383 35.1875C39.043 35.4674 38.8932 35.7897 38.7891 36.1543C38.6849 36.5189 38.6328 36.9128 38.6328 37.3359ZM52.4316 43.1953C51.6309 43.1953 50.9115 43.0651 50.2734 42.8047C49.6354 42.5443 49.0918 42.1829 48.6426 41.7207C48.1999 41.252 47.8581 40.7083 47.6172 40.0898C47.3828 39.4648 47.2656 38.7943 47.2656 38.0781V37.6875C47.2656 36.8737 47.3828 36.1348 47.6172 35.4707C47.8516 34.8001 48.1836 34.224 48.6133 33.7422C49.043 33.2604 49.5573 32.8893 50.1562 32.6289C50.7552 32.3685 51.416 32.2383 52.1387 32.2383C52.8874 32.2383 53.5482 32.3652 54.1211 32.6191C54.694 32.8665 55.1725 33.2181 55.5566 33.6738C55.9408 34.1296 56.2305 34.6764 56.4258 35.3145C56.6211 35.946 56.7188 36.6458 56.7188 37.4141V38.498H48.4375V36.7207H54.1797V36.5254C54.1667 36.1152 54.0885 35.7409 53.9453 35.4023C53.8021 35.0573 53.5807 34.7839 53.2812 34.582C52.9818 34.3737 52.5944 34.2695 52.1191 34.2695C51.735 34.2695 51.3997 34.3542 51.1133 34.5234C50.8333 34.6862 50.599 34.9206 50.4102 35.2266C50.2279 35.526 50.0911 35.8841 50 36.3008C49.9089 36.7174 49.8633 37.1797 49.8633 37.6875V38.0781C49.8633 38.5208 49.9219 38.931 50.0391 39.3086C50.1628 39.6862 50.3418 40.015 50.5762 40.2949C50.8171 40.5684 51.1035 40.7832 51.4355 40.9395C51.7741 41.0892 52.1582 41.1641 52.5879 41.1641C53.1283 41.1641 53.6165 41.0599 54.0527 40.8516C54.4954 40.6367 54.8796 40.321 55.2051 39.9043L56.5039 41.252C56.2826 41.5775 55.9831 41.89 55.6055 42.1895C55.2344 42.4889 54.7852 42.7331 54.2578 42.9219C53.7305 43.1042 53.1217 43.1953 52.4316 43.1953ZM64.7949 28.7812H67.1191L71.0059 39.4844L74.8828 28.7812H77.2168L71.9336 43H70.0684L64.7949 28.7812ZM63.623 28.7812H65.8984L66.3086 38.6152V43H63.623V28.7812ZM76.1035 28.7812H78.3887V43H75.7031V38.6152L76.1035 28.7812ZM85.6738 43.1953C84.873 43.1953 84.1536 43.0651 83.5156 42.8047C82.8776 42.5443 82.334 42.1829 81.8848 41.7207C81.4421 41.252 81.1003 40.7083 80.8594 40.0898C80.625 39.4648 80.5078 38.7943 80.5078 38.0781V37.6875C80.5078 36.8737 80.625 36.1348 80.8594 35.4707C81.0938 34.8001 81.4258 34.224 81.8555 33.7422C82.2852 33.2604 82.7995 32.8893 83.3984 32.6289C83.9974 32.3685 84.6582 32.2383 85.3809 32.2383C86.1296 32.2383 86.7904 32.3652 87.3633 32.6191C87.9362 32.8665 88.4147 33.2181 88.7988 33.6738C89.1829 34.1296 89.4727 34.6764 89.668 35.3145C89.8633 35.946 89.9609 36.6458 89.9609 37.4141V38.498H81.6797V36.7207H87.4219V36.5254C87.4089 36.1152 87.3307 35.7409 87.1875 35.4023C87.0443 35.0573 86.8229 34.7839 86.5234 34.582C86.224 34.3737 85.8366 34.2695 85.3613 34.2695C84.9772 34.2695 84.6419 34.3542 84.3555 34.5234C84.0755 34.6862 83.8411 34.9206 83.6523 35.2266C83.4701 35.526 83.3333 35.8841 83.2422 36.3008C83.151 36.7174 83.1055 37.1797 83.1055 37.6875V38.0781C83.1055 38.5208 83.1641 38.931 83.2812 39.3086C83.4049 39.6862 83.584 40.015 83.8184 40.2949C84.0592 40.5684 84.3457 40.7832 84.6777 40.9395C85.0163 41.0892 85.4004 41.1641 85.8301 41.1641C86.3704 41.1641 86.8587 41.0599 87.2949 40.8516C87.7376 40.6367 88.1217 40.321 88.4473 39.9043L89.7461 41.252C89.5247 41.5775 89.2253 41.89 88.8477 42.1895C88.4766 42.4889 88.0273 42.7331 87.5 42.9219C86.9727 43.1042 86.3639 43.1953 85.6738 43.1953ZM96.4355 43.1953C95.6348 43.1953 94.9154 43.0651 94.2773 42.8047C93.6393 42.5443 93.0957 42.1829 92.6465 41.7207C92.2038 41.252 91.862 40.7083 91.6211 40.0898C91.3867 39.4648 91.2695 38.7943 91.2695 38.0781V37.6875C91.2695 36.8737 91.3867 36.1348 91.6211 35.4707C91.8555 34.8001 92.1875 34.224 92.6172 33.7422C93.0469 33.2604 93.5612 32.8893 94.1602 32.6289C94.7591 32.3685 95.4199 32.2383 96.1426 32.2383C96.8913 32.2383 97.5521 32.3652 98.125 32.6191C98.6979 32.8665 99.1764 33.2181 99.5605 33.6738C99.9447 34.1296 100.234 34.6764 100.43 35.3145C100.625 35.946 100.723 36.6458 100.723 37.4141V38.498H92.4414V36.7207H98.1836V36.5254C98.1706 36.1152 98.0924 35.7409 97.9492 35.4023C97.806 35.0573 97.5846 34.7839 97.2852 34.582C96.9857 34.3737 96.5983 34.2695 96.123 34.2695C95.7389 34.2695 95.4036 34.3542 95.1172 34.5234C94.8372 34.6862 94.6029 34.9206 94.4141 35.2266C94.2318 35.526 94.0951 35.8841 94.0039 36.3008C93.9128 36.7174 93.8672 37.1797 93.8672 37.6875V38.0781C93.8672 38.5208 93.9258 38.931 94.043 39.3086C94.1667 39.6862 94.3457 40.015 94.5801 40.2949C94.821 40.5684 95.1074 40.7832 95.4395 40.9395C95.778 41.0892 96.1621 41.1641 96.5918 41.1641C97.1322 41.1641 97.6204 41.0599 98.0566 40.8516C98.4993 40.6367 98.8835 40.321 99.209 39.9043L100.508 41.252C100.286 41.5775 99.987 41.89 99.6094 42.1895C99.2383 42.4889 98.7891 42.7331 98.2617 42.9219C97.7344 43.1042 97.1257 43.1953 96.4355 43.1953ZM107.451 32.4336V34.2891H101.396V32.4336H107.451ZM103.018 29.8359H105.605V39.9531C105.605 40.2656 105.648 40.5065 105.732 40.6758C105.817 40.8451 105.944 40.959 106.113 41.0176C106.283 41.0762 106.484 41.1055 106.719 41.1055C106.888 41.1055 107.044 41.0957 107.188 41.0762C107.331 41.0566 107.451 41.0371 107.549 41.0176L107.559 42.9512C107.344 43.0228 107.1 43.0814 106.826 43.127C106.559 43.1725 106.257 43.1953 105.918 43.1953C105.339 43.1953 104.831 43.0977 104.395 42.9023C103.958 42.7005 103.62 42.3783 103.379 41.9355C103.138 41.4863 103.018 40.8939 103.018 40.1582V29.8359ZM115.459 40.4902V32.4336H118.057V43H115.615L115.459 40.4902ZM115.791 38.3027L116.592 38.2832C116.592 38.9928 116.514 39.6471 116.357 40.2461C116.201 40.8451 115.957 41.3659 115.625 41.8086C115.299 42.2448 114.886 42.5866 114.385 42.834C113.883 43.0749 113.291 43.1953 112.607 43.1953C112.087 43.1953 111.611 43.1237 111.182 42.9805C110.752 42.8307 110.381 42.5996 110.068 42.2871C109.762 41.9681 109.525 41.5612 109.355 41.0664C109.186 40.5651 109.102 39.9629 109.102 39.2598V32.4336H111.68V39.2793C111.68 39.6309 111.719 39.9238 111.797 40.1582C111.882 40.3926 111.995 40.5846 112.139 40.7344C112.288 40.8776 112.461 40.9818 112.656 41.0469C112.858 41.1055 113.073 41.1348 113.301 41.1348C113.926 41.1348 114.417 41.0111 114.775 40.7637C115.14 40.5098 115.4 40.1712 115.557 39.748C115.713 39.3184 115.791 38.8366 115.791 38.3027ZM122.92 34.4648V47.0625H120.332V32.4336H122.725L122.92 34.4648ZM129.707 37.6094V37.8145C129.707 38.5827 129.616 39.2956 129.434 39.9531C129.258 40.6042 128.997 41.1738 128.652 41.6621C128.307 42.1439 127.878 42.5215 127.363 42.7949C126.855 43.0618 126.27 43.1953 125.605 43.1953C124.954 43.1953 124.388 43.0716 123.906 42.8242C123.424 42.5703 123.018 42.2122 122.686 41.75C122.354 41.2878 122.087 40.7507 121.885 40.1387C121.689 39.5202 121.543 38.8464 121.445 38.1172V37.4629C121.543 36.6882 121.689 35.985 121.885 35.3535C122.087 34.7155 122.354 34.1654 122.686 33.7031C123.018 33.2344 123.421 32.873 123.896 32.6191C124.378 32.3652 124.941 32.2383 125.586 32.2383C126.257 32.2383 126.846 32.3652 127.354 32.6191C127.868 32.873 128.301 33.2376 128.652 33.7129C129.004 34.1882 129.268 34.7546 129.443 35.4121C129.619 36.0697 129.707 36.8021 129.707 37.6094ZM127.119 37.8145V37.6094C127.119 37.1406 127.077 36.7077 126.992 36.3105C126.908 35.9069 126.777 35.5553 126.602 35.2559C126.426 34.9499 126.198 34.7122 125.918 34.543C125.638 34.3737 125.299 34.2891 124.902 34.2891C124.505 34.2891 124.163 34.3542 123.877 34.4844C123.59 34.6146 123.356 34.8001 123.174 35.041C122.992 35.2819 122.848 35.5684 122.744 35.9004C122.646 36.2259 122.581 36.5872 122.549 36.9844V38.6055C122.607 39.0872 122.721 39.5202 122.891 39.9043C123.06 40.2884 123.307 40.5944 123.633 40.8223C123.965 41.0501 124.395 41.1641 124.922 41.1641C125.319 41.1641 125.658 41.0762 125.938 40.9004C126.217 40.7246 126.445 40.4837 126.621 40.1777C126.797 39.8652 126.924 39.5072 127.002 39.1035C127.08 38.6999 127.119 38.2702 127.119 37.8145Z" fill="#212121"/>
<path d="M5.10645 61.0469V71H3.4043V61.0469H5.10645ZM8.23047 61.0469V62.4141H0.307617V61.0469H8.23047ZM11.9834 71.1367C11.4365 71.1367 10.9421 71.0479 10.5 70.8701C10.0625 70.6878 9.6888 70.4349 9.37891 70.1113C9.07357 69.7878 8.83887 69.4072 8.6748 68.9697C8.51074 68.5322 8.42871 68.0605 8.42871 67.5547V67.2812C8.42871 66.7025 8.51302 66.1784 8.68164 65.709C8.85026 65.2396 9.08496 64.8385 9.38574 64.5059C9.68652 64.1686 10.042 63.9111 10.4521 63.7334C10.8623 63.5557 11.3066 63.4668 11.7852 63.4668C12.3138 63.4668 12.7764 63.5557 13.1729 63.7334C13.5693 63.9111 13.8975 64.1618 14.1572 64.4854C14.4215 64.8044 14.6175 65.1849 14.7451 65.627C14.8773 66.069 14.9434 66.5566 14.9434 67.0898V67.7939H9.22852V66.6113H13.3164V66.4814C13.3073 66.1852 13.248 65.9072 13.1387 65.6475C13.0339 65.3877 12.8721 65.1781 12.6533 65.0186C12.4346 64.859 12.1429 64.7793 11.7783 64.7793C11.5049 64.7793 11.2611 64.8385 11.0469 64.957C10.8372 65.071 10.6618 65.2373 10.5205 65.4561C10.3792 65.6748 10.2699 65.9391 10.1924 66.249C10.1195 66.5544 10.083 66.8984 10.083 67.2812V67.5547C10.083 67.8783 10.1263 68.179 10.2129 68.457C10.304 68.7305 10.4362 68.9697 10.6094 69.1748C10.7826 69.3799 10.9922 69.5417 11.2383 69.6602C11.4844 69.7741 11.7646 69.8311 12.0791 69.8311C12.4756 69.8311 12.8288 69.7513 13.1387 69.5918C13.4486 69.4323 13.7174 69.2067 13.9453 68.915L14.8135 69.7559C14.654 69.9883 14.4466 70.2116 14.1914 70.4258C13.9362 70.6354 13.624 70.8063 13.2549 70.9385C12.8903 71.0706 12.4665 71.1367 11.9834 71.1367ZM19.25 69.8242C19.5189 69.8242 19.7604 69.7718 19.9746 69.667C20.1934 69.5576 20.3688 69.4072 20.501 69.2158C20.6377 69.0244 20.7129 68.8034 20.7266 68.5527H22.2783C22.2692 69.0312 22.1279 69.4665 21.8545 69.8584C21.5811 70.2503 21.2188 70.5625 20.7676 70.7949C20.3164 71.0228 19.8174 71.1367 19.2705 71.1367C18.7054 71.1367 18.2132 71.041 17.7939 70.8496C17.3747 70.6536 17.026 70.3848 16.748 70.043C16.4701 69.7012 16.2604 69.307 16.1191 68.8604C15.9824 68.4137 15.9141 67.9352 15.9141 67.4248V67.1855C15.9141 66.6751 15.9824 66.1966 16.1191 65.75C16.2604 65.2988 16.4701 64.9023 16.748 64.5605C17.026 64.2188 17.3747 63.9521 17.7939 63.7607C18.2132 63.5648 18.7031 63.4668 19.2637 63.4668C19.8561 63.4668 20.3757 63.5853 20.8223 63.8223C21.2689 64.0547 21.6198 64.3805 21.875 64.7998C22.1348 65.2145 22.2692 65.6976 22.2783 66.249H20.7266C20.7129 65.9756 20.6445 65.7295 20.5215 65.5107C20.403 65.2874 20.2344 65.1097 20.0156 64.9775C19.8014 64.8454 19.5439 64.7793 19.2432 64.7793C18.9105 64.7793 18.6348 64.8477 18.416 64.9844C18.1973 65.1165 18.0264 65.2988 17.9033 65.5312C17.7803 65.7591 17.6914 66.0166 17.6367 66.3037C17.5866 66.5863 17.5615 66.8802 17.5615 67.1855V67.4248C17.5615 67.7301 17.5866 68.0264 17.6367 68.3135C17.6868 68.6006 17.7734 68.8581 17.8965 69.0859C18.0241 69.3092 18.1973 69.4893 18.416 69.626C18.6348 69.7581 18.9128 69.8242 19.25 69.8242ZM25.1699 60.5V71H23.5293V60.5H25.1699ZM24.8828 67.0283L24.3496 67.0215C24.3542 66.5111 24.4248 66.0394 24.5615 65.6064C24.7028 65.1735 24.8988 64.7975 25.1494 64.4785C25.4046 64.1549 25.71 63.9066 26.0654 63.7334C26.4209 63.5557 26.8151 63.4668 27.248 63.4668C27.6126 63.4668 27.9408 63.5169 28.2324 63.6172C28.5286 63.7174 28.7839 63.8792 28.998 64.1025C29.2122 64.3213 29.374 64.6084 29.4834 64.9639C29.5973 65.3148 29.6543 65.7432 29.6543 66.249V71H28V66.2354C28 65.8799 27.9476 65.5973 27.8428 65.3877C27.7425 65.1781 27.5944 65.0277 27.3984 64.9365C27.2025 64.8408 26.9632 64.793 26.6807 64.793C26.3844 64.793 26.1224 64.8522 25.8945 64.9707C25.6712 65.0892 25.4844 65.251 25.334 65.4561C25.1836 65.6611 25.0697 65.8981 24.9922 66.167C24.9193 66.4359 24.8828 66.723 24.8828 67.0283ZM32.9561 65.1826V71H31.3086V63.6035H32.8604L32.9561 65.1826ZM32.6621 67.0283L32.1289 67.0215C32.1335 66.4974 32.2064 66.0166 32.3477 65.5791C32.4935 65.1416 32.694 64.7656 32.9492 64.4512C33.209 64.1367 33.5189 63.8952 33.8789 63.7266C34.2389 63.5534 34.64 63.4668 35.082 63.4668C35.4375 63.4668 35.7588 63.5169 36.0459 63.6172C36.3376 63.7129 36.5859 63.8701 36.791 64.0889C37.0007 64.3076 37.1602 64.5924 37.2695 64.9434C37.3789 65.2897 37.4336 65.7158 37.4336 66.2217V71H35.7793V66.2148C35.7793 65.8594 35.7269 65.5791 35.6221 65.374C35.5218 65.1644 35.3737 65.0163 35.1777 64.9297C34.9863 64.8385 34.7471 64.793 34.46 64.793C34.1774 64.793 33.9245 64.8522 33.7012 64.9707C33.4779 65.0892 33.2887 65.251 33.1338 65.4561C32.9834 65.6611 32.8672 65.8981 32.7852 66.167C32.7031 66.4359 32.6621 66.723 32.6621 67.0283ZM38.8008 67.3838V67.2266C38.8008 66.6934 38.8783 66.1989 39.0332 65.7432C39.1882 65.2829 39.4115 64.8841 39.7031 64.5469C39.9993 64.2051 40.3594 63.9408 40.7832 63.7539C41.2116 63.5625 41.6947 63.4668 42.2324 63.4668C42.7747 63.4668 43.2578 63.5625 43.6816 63.7539C44.11 63.9408 44.4723 64.2051 44.7686 64.5469C45.0648 64.8841 45.2904 65.2829 45.4453 65.7432C45.6003 66.1989 45.6777 66.6934 45.6777 67.2266V67.3838C45.6777 67.917 45.6003 68.4115 45.4453 68.8672C45.2904 69.3229 45.0648 69.7217 44.7686 70.0635C44.4723 70.4007 44.1123 70.665 43.6885 70.8564C43.2646 71.0433 42.7839 71.1367 42.2461 71.1367C41.7038 71.1367 41.2184 71.0433 40.79 70.8564C40.3662 70.665 40.0062 70.4007 39.71 70.0635C39.4137 69.7217 39.1882 69.3229 39.0332 68.8672C38.8783 68.4115 38.8008 67.917 38.8008 67.3838ZM40.4482 67.2266V67.3838C40.4482 67.7165 40.4824 68.0309 40.5508 68.3271C40.6191 68.6234 40.7262 68.8831 40.8721 69.1064C41.0179 69.3298 41.2048 69.5052 41.4326 69.6328C41.6605 69.7604 41.9316 69.8242 42.2461 69.8242C42.5514 69.8242 42.8158 69.7604 43.0391 69.6328C43.2669 69.5052 43.4538 69.3298 43.5996 69.1064C43.7454 68.8831 43.8525 68.6234 43.9209 68.3271C43.9938 68.0309 44.0303 67.7165 44.0303 67.3838V67.2266C44.0303 66.8984 43.9938 66.5885 43.9209 66.2969C43.8525 66.0007 43.7432 65.7386 43.5928 65.5107C43.4469 65.2829 43.2601 65.1051 43.0322 64.9775C42.8089 64.8454 42.5423 64.7793 42.2324 64.7793C41.9225 64.7793 41.6536 64.8454 41.4258 64.9775C41.2025 65.1051 41.0179 65.2829 40.8721 65.5107C40.7262 65.7386 40.6191 66.0007 40.5508 66.2969C40.4824 66.5885 40.4482 66.8984 40.4482 67.2266ZM48.8223 60.5V71H47.168V60.5H48.8223ZM50.3125 67.3838V67.2266C50.3125 66.6934 50.39 66.1989 50.5449 65.7432C50.6999 65.2829 50.9232 64.8841 51.2148 64.5469C51.5111 64.2051 51.8711 63.9408 52.2949 63.7539C52.7233 63.5625 53.2064 63.4668 53.7441 63.4668C54.2865 63.4668 54.7695 63.5625 55.1934 63.7539C55.6217 63.9408 55.984 64.2051 56.2803 64.5469C56.5765 64.8841 56.8021 65.2829 56.957 65.7432C57.112 66.1989 57.1895 66.6934 57.1895 67.2266V67.3838C57.1895 67.917 57.112 68.4115 56.957 68.8672C56.8021 69.3229 56.5765 69.7217 56.2803 70.0635C55.984 70.4007 55.624 70.665 55.2002 70.8564C54.7764 71.0433 54.2956 71.1367 53.7578 71.1367C53.2155 71.1367 52.7301 71.0433 52.3018 70.8564C51.8779 70.665 51.5179 70.4007 51.2217 70.0635C50.9255 69.7217 50.6999 69.3229 50.5449 68.8672C50.39 68.4115 50.3125 67.917 50.3125 67.3838ZM51.96 67.2266V67.3838C51.96 67.7165 51.9941 68.0309 52.0625 68.3271C52.1309 68.6234 52.238 68.8831 52.3838 69.1064C52.5296 69.3298 52.7165 69.5052 52.9443 69.6328C53.1722 69.7604 53.4434 69.8242 53.7578 69.8242C54.0632 69.8242 54.3275 69.7604 54.5508 69.6328C54.7786 69.5052 54.9655 69.3298 55.1113 69.1064C55.2572 68.8831 55.3643 68.6234 55.4326 68.3271C55.5055 68.0309 55.542 67.7165 55.542 67.3838V67.2266C55.542 66.8984 55.5055 66.5885 55.4326 66.2969C55.3643 66.0007 55.2549 65.7386 55.1045 65.5107C54.9587 65.2829 54.7718 65.1051 54.5439 64.9775C54.3206 64.8454 54.054 64.7793 53.7441 64.7793C53.4342 64.7793 53.1654 64.8454 52.9375 64.9775C52.7142 65.1051 52.5296 65.2829 52.3838 65.5107C52.238 65.7386 52.1309 66.0007 52.0625 66.2969C51.9941 66.5885 51.96 66.8984 51.96 67.2266ZM63.3076 63.6035H64.8047V70.7949C64.8047 71.4603 64.6634 72.0254 64.3809 72.4902C64.0983 72.9551 63.7041 73.3083 63.1982 73.5498C62.6924 73.7959 62.1068 73.9189 61.4414 73.9189C61.1589 73.9189 60.8444 73.8779 60.498 73.7959C60.1562 73.7139 59.8236 73.5817 59.5 73.3994C59.181 73.2217 58.9144 72.987 58.7002 72.6953L59.4727 71.7246C59.737 72.0391 60.0286 72.2692 60.3477 72.415C60.6667 72.5609 61.0016 72.6338 61.3525 72.6338C61.7308 72.6338 62.0521 72.5632 62.3164 72.4219C62.5853 72.2852 62.7926 72.0824 62.9385 71.8135C63.0843 71.5446 63.1572 71.2165 63.1572 70.8291V65.2783L63.3076 63.6035ZM58.2832 67.3838V67.2402C58.2832 66.6797 58.3516 66.1693 58.4883 65.709C58.625 65.2441 58.821 64.8454 59.0762 64.5127C59.3314 64.1755 59.6413 63.918 60.0059 63.7402C60.3704 63.5579 60.7829 63.4668 61.2432 63.4668C61.7217 63.4668 62.1296 63.5534 62.4668 63.7266C62.8086 63.8997 63.0934 64.1481 63.3213 64.4717C63.5492 64.7907 63.7269 65.1735 63.8545 65.6201C63.9867 66.0622 64.0846 66.5544 64.1484 67.0967V67.5547C64.0892 68.0833 63.9889 68.5664 63.8477 69.0039C63.7064 69.4414 63.5195 69.8197 63.2871 70.1387C63.0547 70.4577 62.7676 70.7038 62.4258 70.877C62.0885 71.0501 61.6898 71.1367 61.2295 71.1367C60.7783 71.1367 60.3704 71.0433 60.0059 70.8564C59.6458 70.6696 59.3359 70.4076 59.0762 70.0703C58.821 69.7331 58.625 69.3366 58.4883 68.8809C58.3516 68.4206 58.2832 67.9215 58.2832 67.3838ZM59.9307 67.2402V67.3838C59.9307 67.721 59.9626 68.0355 60.0264 68.3271C60.0947 68.6188 60.1973 68.8763 60.334 69.0996C60.4753 69.3184 60.653 69.4915 60.8672 69.6191C61.0859 69.7422 61.3434 69.8037 61.6396 69.8037C62.027 69.8037 62.3438 69.7217 62.5898 69.5576C62.8405 69.3936 63.0319 69.1725 63.1641 68.8945C63.3008 68.612 63.3965 68.2975 63.4512 67.9512V66.7139C63.4238 66.445 63.3669 66.1943 63.2803 65.9619C63.1982 65.7295 63.0866 65.5267 62.9453 65.3535C62.804 65.1758 62.6263 65.0391 62.4121 64.9434C62.1979 64.8431 61.945 64.793 61.6533 64.793C61.3571 64.793 61.0996 64.8568 60.8809 64.9844C60.6621 65.112 60.4821 65.2874 60.3408 65.5107C60.2041 65.734 60.1016 65.9938 60.0332 66.29C59.9648 66.5863 59.9307 66.903 59.9307 67.2402ZM68.6602 70.1934L70.6699 63.6035H72.4336L69.4668 72.1279C69.3984 72.3102 69.3096 72.5085 69.2002 72.7227C69.0908 72.9368 68.9473 73.1396 68.7695 73.3311C68.5964 73.527 68.3799 73.6842 68.1201 73.8027C67.8604 73.9258 67.5459 73.9873 67.1768 73.9873C67.0309 73.9873 66.8896 73.9736 66.7529 73.9463C66.6208 73.9235 66.4954 73.8984 66.377 73.8711L66.3701 72.6133C66.4157 72.6178 66.4704 72.6224 66.5342 72.627C66.6025 72.6315 66.6572 72.6338 66.6982 72.6338C66.9717 72.6338 67.1995 72.5996 67.3818 72.5312C67.5641 72.4674 67.7122 72.3626 67.8262 72.2168C67.9447 72.071 68.0449 71.875 68.127 71.6289L68.6602 70.1934ZM67.5254 63.6035L69.2822 69.1406L69.5762 70.877L68.4346 71.1709L65.748 63.6035H67.5254Z" fill="#707070"/>
<path fill-rule="evenodd" clip-rule="evenodd" d="M15.8333 88.583H4.16667C3.93655 88.583 3.75 88.7696 3.75 88.9997V99.833C3.75 100.063 3.93655 100.25 4.16667 100.25H15.8333C16.0634 100.25 16.25 100.063 16.25 99.833V88.9997C16.25 88.7696 16.0634 88.583 15.8333 88.583ZM4.16667 87.333C3.24619 87.333 2.5 88.0792 2.5 88.9997V99.833C2.5 100.754 3.24619 101.5 4.16667 101.5H15.8333C16.7538 101.5 17.5 100.754 17.5 99.833V88.9997C17.5 88.0792 16.7538 87.333 15.8333 87.333H4.16667Z" fill="#707070"/>
<path d="M5 86.5003C5 86.0401 5.3731 85.667 5.83333 85.667C6.29357 85.667 6.66667 86.0401 6.66667 86.5003V87.3337C6.66667 87.7939 6.29357 88.167 5.83333 88.167C5.3731 88.167 5 87.7939 5 87.3337V86.5003Z" fill="#707070"/>
<path d="M13.333 86.5003C13.333 86.0401 13.7061 85.667 14.1663 85.667C14.6266 85.667 14.9997 86.0401 14.9997 86.5003V87.3337C14.9997 87.7939 14.6266 88.167 14.1663 88.167C13.7061 88.167 13.333 87.7939 13.333 87.3337V86.5003Z" fill="#707070"/>
<path fill-rule="evenodd" clip-rule="evenodd" d="M15 91.292C15 91.6372 14.7202 91.917 14.375 91.917H5.625C5.27983 91.917 5 91.6372 5 91.292C5 90.9468 5.27983 90.667 5.625 90.667H14.375C14.7202 90.667 15 90.9468 15 91.292Z" fill="#707070"/>
<path d="M29.7734 95.9922L31.749 89.0469H32.7061L32.1523 91.7471L30.0264 99H29.0762L29.7734 95.9922ZM27.7295 89.0469L29.3018 95.8555L29.7734 99H28.8301L26.417 89.0469H27.7295ZM35.2627 95.8486L36.8008 89.0469H38.1201L35.7139 99H34.7705L35.2627 95.8486ZM32.8496 89.0469L34.7705 95.9922L35.4678 99H34.5176L32.4668 91.7471L31.9062 89.0469H32.8496ZM45.5562 97.9268V99H40.2857V97.9268H45.5562ZM40.5523 89.0469V99H39.233V89.0469H40.5523ZM44.859 93.3262V94.3994H40.2857V93.3262H44.859ZM45.4879 89.0469V90.127H40.2857V89.0469H45.4879ZM49.5334 99H47.4553L47.4689 97.9268H49.5334C50.2443 97.9268 50.8368 97.7786 51.3107 97.4824C51.7847 97.1816 52.1402 96.7624 52.3771 96.2246C52.6187 95.6823 52.7395 95.0488 52.7395 94.3242V93.7158C52.7395 93.1462 52.6711 92.6403 52.5344 92.1982C52.3977 91.7516 52.1971 91.3757 51.9328 91.0703C51.6685 90.7604 51.3449 90.5257 50.9621 90.3662C50.5839 90.2067 50.1486 90.127 49.6564 90.127H47.4143V89.0469H49.6564C50.3081 89.0469 50.9029 89.1562 51.4406 89.375C51.9784 89.5892 52.4409 89.9014 52.8283 90.3115C53.2202 90.7171 53.521 91.2093 53.7307 91.7881C53.9403 92.3623 54.0451 93.0094 54.0451 93.7295V94.3242C54.0451 95.0443 53.9403 95.6937 53.7307 96.2725C53.521 96.8467 53.218 97.3366 52.8215 97.7422C52.4296 98.1478 51.9556 98.46 51.3996 98.6787C50.8482 98.8929 50.2261 99 49.5334 99ZM48.1594 89.0469V99H46.84V89.0469H48.1594ZM55.9373 97.4961V98.5146C55.9373 98.9294 55.8325 99.3669 55.6229 99.8271C55.4132 100.292 55.1193 100.679 54.741 100.989L54.0232 100.49C54.1691 100.29 54.2921 100.085 54.3924 99.875C54.4926 99.6699 54.5678 99.4557 54.618 99.2324C54.6727 99.0137 54.7 98.7812 54.7 98.5352V97.4961H55.9373ZM60.9316 89.0469H62.21L65.4707 97.1611L68.7246 89.0469H70.0098L65.9629 99H64.9648L60.9316 89.0469ZM60.5146 89.0469H61.6426L61.8271 95.1172V99H60.5146V89.0469ZM69.292 89.0469H70.4199V99H69.1074V95.1172L69.292 89.0469ZM76.1949 89.9287L72.9 99H71.5533L75.3473 89.0469H76.2154L76.1949 89.9287ZM78.9566 99L75.6549 89.9287L75.6344 89.0469H76.5025L80.3102 99H78.9566ZM78.7857 95.3154V96.3955H73.1939V95.3154H78.7857ZM81.2932 89.0469H84.5881C85.3355 89.0469 85.9667 89.1608 86.4816 89.3887C87.0012 89.6165 87.3954 89.9538 87.6643 90.4004C87.9377 90.8424 88.0744 91.387 88.0744 92.0342C88.0744 92.4899 87.981 92.9069 87.7941 93.2852C87.6118 93.6589 87.3475 93.9779 87.0012 94.2422C86.6594 94.502 86.2492 94.6956 85.7707 94.8232L85.4016 94.9668H82.3049L82.2912 93.8936H84.6291C85.1031 93.8936 85.4973 93.8115 85.8117 93.6475C86.1262 93.4788 86.3632 93.2533 86.5227 92.9707C86.6822 92.6882 86.7619 92.376 86.7619 92.0342C86.7619 91.6514 86.6867 91.3164 86.5363 91.0293C86.3859 90.7422 86.149 90.5212 85.8254 90.3662C85.5064 90.2067 85.0939 90.127 84.5881 90.127H82.6125V99H81.2932V89.0469ZM87.1105 99L84.6906 94.4883L86.0646 94.4814L88.5187 98.918V99H87.1105ZM96.5209 88.9922V99H95.2562V90.5713L92.7064 91.501V90.3594L96.3227 88.9922H96.5209ZM101.735 93.4014H102.638C103.08 93.4014 103.444 93.3285 103.731 93.1826C104.023 93.0322 104.24 92.8294 104.381 92.5742C104.527 92.3145 104.6 92.0228 104.6 91.6992C104.6 91.3164 104.536 90.9951 104.408 90.7354C104.281 90.4756 104.089 90.2796 103.834 90.1475C103.579 90.0153 103.255 89.9492 102.863 89.9492C102.508 89.9492 102.193 90.0199 101.92 90.1611C101.651 90.2979 101.439 90.4938 101.284 90.749C101.134 91.0042 101.059 91.305 101.059 91.6514H99.7939C99.7939 91.1455 99.9215 90.6852 100.177 90.2705C100.432 89.8558 100.79 89.5254 101.25 89.2793C101.715 89.0332 102.253 88.9102 102.863 88.9102C103.465 88.9102 103.991 89.0173 104.442 89.2314C104.894 89.4411 105.244 89.7555 105.495 90.1748C105.746 90.5895 105.871 91.1068 105.871 91.7266C105.871 91.9772 105.812 92.2461 105.693 92.5332C105.579 92.8158 105.399 93.0801 105.153 93.3262C104.912 93.5723 104.597 93.7751 104.21 93.9346C103.823 94.0895 103.358 94.167 102.815 94.167H101.735V93.4014ZM101.735 94.4404V93.6816H102.815C103.449 93.6816 103.973 93.7568 104.388 93.9072C104.802 94.0576 105.128 94.2581 105.365 94.5088C105.607 94.7594 105.775 95.0352 105.871 95.3359C105.971 95.6322 106.021 95.9284 106.021 96.2246C106.021 96.6895 105.942 97.1019 105.782 97.4619C105.627 97.8219 105.406 98.1273 105.119 98.3779C104.837 98.6286 104.504 98.8177 104.121 98.9453C103.738 99.0729 103.321 99.1367 102.87 99.1367C102.437 99.1367 102.029 99.0752 101.646 98.9521C101.268 98.8291 100.933 98.6514 100.642 98.4189C100.35 98.182 100.122 97.8926 99.958 97.5508C99.7939 97.2044 99.7119 96.8102 99.7119 96.3682H100.977C100.977 96.7145 101.052 97.0176 101.202 97.2773C101.357 97.5371 101.576 97.7399 101.858 97.8857C102.146 98.027 102.483 98.0977 102.87 98.0977C103.257 98.0977 103.59 98.0316 103.868 97.8994C104.151 97.7627 104.367 97.5576 104.518 97.2842C104.673 97.0107 104.75 96.6667 104.75 96.252C104.75 95.8372 104.663 95.4977 104.49 95.2334C104.317 94.9645 104.071 94.7663 103.752 94.6387C103.438 94.5065 103.066 94.4404 102.638 94.4404H101.735ZM110.722 94.0166C110.722 93.8024 110.788 93.6224 110.92 93.4766C111.052 93.3262 111.246 93.251 111.501 93.251C111.756 93.251 111.95 93.3262 112.082 93.4766C112.219 93.6224 112.287 93.8024 112.287 94.0166C112.287 94.2262 112.219 94.404 112.082 94.5498C111.95 94.6911 111.756 94.7617 111.501 94.7617C111.246 94.7617 111.052 94.6911 110.92 94.5498C110.788 94.404 110.722 94.2262 110.722 94.0166ZM123.407 89.0469V89.7578L119.285 99H117.952L122.067 90.0859H116.68V89.0469H123.407ZM124.581 98.3301C124.581 98.1159 124.647 97.9359 124.779 97.79C124.916 97.6396 125.112 97.5645 125.367 97.5645C125.622 97.5645 125.816 97.6396 125.948 97.79C126.085 97.9359 126.153 98.1159 126.153 98.3301C126.153 98.5397 126.085 98.7174 125.948 98.8633C125.816 99.0091 125.622 99.082 125.367 99.082C125.112 99.082 124.916 99.0091 124.779 98.8633C124.647 98.7174 124.581 98.5397 124.581 98.3301ZM124.588 92.2939C124.588 92.0798 124.654 91.8997 124.786 91.7539C124.923 91.6035 125.119 91.5283 125.374 91.5283C125.629 91.5283 125.823 91.6035 125.955 91.7539C126.092 91.8997 126.16 92.0798 126.16 92.2939C126.16 92.5036 126.092 92.6813 125.955 92.8271C125.823 92.973 125.629 93.0459 125.374 93.0459C125.119 93.0459 124.923 92.973 124.786 92.8271C124.654 92.6813 124.588 92.5036 124.588 92.2939ZM133.788 93.2305V94.748C133.788 95.5638 133.715 96.252 133.569 96.8125C133.423 97.373 133.213 97.8242 132.94 98.166C132.667 98.5078 132.336 98.7562 131.949 98.9111C131.566 99.0615 131.133 99.1367 130.65 99.1367C130.267 99.1367 129.914 99.0889 129.59 98.9932C129.267 98.8975 128.975 98.7448 128.715 98.5352C128.46 98.321 128.241 98.043 128.059 97.7012C127.877 97.3594 127.738 96.9447 127.642 96.457C127.546 95.9694 127.499 95.3997 127.499 94.748V93.2305C127.499 92.4147 127.572 91.7311 127.717 91.1797C127.868 90.6283 128.08 90.1862 128.353 89.8535C128.627 89.5163 128.955 89.2747 129.338 89.1289C129.725 88.9831 130.158 88.9102 130.636 88.9102C131.024 88.9102 131.379 88.958 131.703 89.0537C132.031 89.1449 132.323 89.293 132.578 89.498C132.833 89.6986 133.049 89.9674 133.227 90.3047C133.409 90.6374 133.548 91.0452 133.644 91.5283C133.74 92.0114 133.788 92.5788 133.788 93.2305ZM132.516 94.9531V93.0186C132.516 92.5719 132.489 92.18 132.434 91.8428C132.384 91.501 132.309 91.2093 132.209 90.9678C132.108 90.7262 131.981 90.5303 131.826 90.3799C131.675 90.2295 131.5 90.1201 131.299 90.0518C131.103 89.9788 130.882 89.9424 130.636 89.9424C130.336 89.9424 130.069 89.9993 129.837 90.1133C129.604 90.2227 129.408 90.3981 129.249 90.6396C129.094 90.8812 128.975 91.1979 128.893 91.5898C128.811 91.9818 128.77 92.458 128.77 93.0186V94.9531C128.77 95.3997 128.795 95.7939 128.845 96.1357C128.9 96.4775 128.98 96.7738 129.085 97.0244C129.189 97.2705 129.317 97.4733 129.467 97.6328C129.618 97.7923 129.791 97.9108 129.987 97.9883C130.187 98.0612 130.408 98.0977 130.65 98.0977C130.96 98.0977 131.231 98.0384 131.463 97.9199C131.696 97.8014 131.89 97.6169 132.045 97.3662C132.204 97.111 132.323 96.7852 132.4 96.3887C132.477 95.9876 132.516 95.5091 132.516 94.9531ZM141.313 93.2305V94.748C141.313 95.5638 141.24 96.252 141.094 96.8125C140.948 97.373 140.738 97.8242 140.465 98.166C140.192 98.5078 139.861 98.7562 139.474 98.9111C139.091 99.0615 138.658 99.1367 138.175 99.1367C137.792 99.1367 137.439 99.0889 137.115 98.9932C136.792 98.8975 136.5 98.7448 136.24 98.5352C135.985 98.321 135.766 98.043 135.584 97.7012C135.402 97.3594 135.263 96.9447 135.167 96.457C135.071 95.9694 135.024 95.3997 135.024 94.748V93.2305C135.024 92.4147 135.097 91.7311 135.242 91.1797C135.393 90.6283 135.605 90.1862 135.878 89.8535C136.152 89.5163 136.48 89.2747 136.863 89.1289C137.25 88.9831 137.683 88.9102 138.161 88.9102C138.549 88.9102 138.904 88.958 139.228 89.0537C139.556 89.1449 139.848 89.293 140.103 89.498C140.358 89.6986 140.574 89.9674 140.752 90.3047C140.934 90.6374 141.073 91.0452 141.169 91.5283C141.265 92.0114 141.313 92.5788 141.313 93.2305ZM140.041 94.9531V93.0186C140.041 92.5719 140.014 92.18 139.959 91.8428C139.909 91.501 139.834 91.2093 139.734 90.9678C139.633 90.7262 139.506 90.5303 139.351 90.3799C139.2 90.2295 139.025 90.1201 138.824 90.0518C138.628 89.9788 138.407 89.9424 138.161 89.9424C137.861 89.9424 137.594 89.9993 137.362 90.1133C137.129 90.2227 136.933 90.3981 136.774 90.6396C136.619 90.8812 136.5 91.1979 136.418 91.5898C136.336 91.9818 136.295 92.458 136.295 93.0186V94.9531C136.295 95.3997 136.32 95.7939 136.37 96.1357C136.425 96.4775 136.505 96.7738 136.61 97.0244C136.714 97.2705 136.842 97.4733 136.992 97.6328C137.143 97.7923 137.316 97.9108 137.512 97.9883C137.712 98.0612 137.933 98.0977 138.175 98.0977C138.485 98.0977 138.756 98.0384 138.988 97.9199C139.221 97.8014 139.415 97.6169 139.57 97.3662C139.729 97.111 139.848 96.7852 139.925 96.3887C140.002 95.9876 140.041 95.5091 140.041 94.9531ZM149.711 95.0967H147.052V94.0234H149.711C150.226 94.0234 150.643 93.9414 150.962 93.7773C151.281 93.6133 151.514 93.3854 151.66 93.0938C151.81 92.8021 151.885 92.4694 151.885 92.0957C151.885 91.7539 151.81 91.4326 151.66 91.1318C151.514 90.8311 151.281 90.5895 150.962 90.4072C150.643 90.2204 150.226 90.127 149.711 90.127H147.36V99H146.04V89.0469H149.711C150.463 89.0469 151.099 89.1768 151.619 89.4365C152.138 89.6963 152.532 90.0563 152.801 90.5166C153.07 90.9723 153.204 91.4941 153.204 92.082C153.204 92.7201 153.07 93.2646 152.801 93.7158C152.532 94.167 152.138 94.5111 151.619 94.748C151.099 94.9805 150.463 95.0967 149.711 95.0967ZM154.939 89.0469H156.218L159.479 97.1611L162.732 89.0469H164.018L159.971 99H158.973L154.939 89.0469ZM154.522 89.0469H155.65L155.835 95.1172V99H154.522V89.0469ZM163.3 89.0469H164.428V99H163.115V95.1172L163.3 89.0469ZM173.189 95.0967H170.529V94.0234H173.189C173.704 94.0234 174.121 93.9414 174.44 93.7773C174.759 93.6133 174.991 93.3854 175.137 93.0938C175.287 92.8021 175.363 92.4694 175.363 92.0957C175.363 91.7539 175.287 91.4326 175.137 91.1318C174.991 90.8311 174.759 90.5895 174.44 90.4072C174.121 90.2204 173.704 90.127 173.189 90.127H170.837V99H169.518V89.0469H173.189C173.941 89.0469 174.576 89.1768 175.096 89.4365C175.615 89.6963 176.01 90.0563 176.279 90.5166C176.547 90.9723 176.682 91.4941 176.682 92.082C176.682 92.7201 176.547 93.2646 176.279 93.7158C176.01 94.167 175.615 94.5111 175.096 94.748C174.576 94.9805 173.941 95.0967 173.189 95.0967ZM180.693 99H178.615L178.629 97.9268H180.693C181.404 97.9268 181.997 97.7786 182.471 97.4824C182.944 97.1816 183.3 96.7624 183.537 96.2246C183.778 95.6823 183.899 95.0488 183.899 94.3242V93.7158C183.899 93.1462 183.831 92.6403 183.694 92.1982C183.557 91.7516 183.357 91.3757 183.093 91.0703C182.828 90.7604 182.505 90.5257 182.122 90.3662C181.744 90.2067 181.308 90.127 180.816 90.127H178.574V89.0469H180.816C181.468 89.0469 182.063 89.1562 182.6 89.375C183.138 89.5892 183.601 89.9014 183.988 90.3115C184.38 90.7171 184.681 91.2093 184.89 91.7881C185.1 92.3623 185.205 93.0094 185.205 93.7295V94.3242C185.205 95.0443 185.1 95.6937 184.89 96.2725C184.681 96.8467 184.378 97.3366 183.981 97.7422C183.589 98.1478 183.115 98.46 182.559 98.6787C182.008 98.8929 181.386 99 180.693 99ZM179.319 89.0469V99H178V89.0469H179.319ZM190.324 89.0469V99H189.025V89.0469H190.324ZM193.523 89.0469V90.127H185.832V89.0469H193.523Z" fill="#212121"/>
<path fill-rule="evenodd" clip-rule="evenodd" d="M10.0003 135.084C13.9123 135.084 17.0837 131.912 17.0837 128C17.0837 124.088 13.9123 120.917 10.0003 120.917C6.08831 120.917 2.91699 124.088 2.91699 128C2.91699 131.912 6.08831 135.084 10.0003 135.084ZM10.0003 136.334C14.6027 136.334 18.3337 132.603 18.3337 128C18.3337 123.398 14.6027 119.667 10.0003 119.667C5.39795 119.667 1.66699 123.398 1.66699 128C1.66699 132.603 5.39795 136.334 10.0003 136.334Z" fill="#707070"/>
<path fill-rule="evenodd" clip-rule="evenodd" d="M15.4419 125.058C15.686 125.302 15.686 125.698 15.4419 125.942L9.65916 131.725C8.92691 132.457 7.73974 132.457 7.00751 131.725L4.55806 129.275C4.31398 129.031 4.31398 128.635 4.55806 128.391C4.80213 128.147 5.19786 128.147 5.44194 128.391L7.89139 130.841C8.13546 131.085 8.53116 131.085 8.77525 130.841L14.5581 125.058C14.8022 124.814 15.1978 124.814 15.4419 125.058Z" fill="#707070"/>
<path d="M28.7734 127.586L27.6172 127.289L28.1875 121.625H34.0234V122.961H29.4141L29.0703 126.055C29.2786 125.935 29.5417 125.823 29.8594 125.719C30.1823 125.615 30.5521 125.562 30.9688 125.562C31.4948 125.562 31.9661 125.654 32.3828 125.836C32.7995 126.013 33.1536 126.268 33.4453 126.602C33.7422 126.935 33.9688 127.336 34.125 127.805C34.2812 128.273 34.3594 128.797 34.3594 129.375C34.3594 129.922 34.2839 130.424 34.1328 130.883C33.987 131.341 33.7656 131.742 33.4688 132.086C33.1719 132.424 32.7969 132.688 32.3438 132.875C31.8958 133.062 31.3672 133.156 30.7578 133.156C30.2995 133.156 29.8646 133.094 29.4531 132.969C29.0469 132.839 28.6823 132.643 28.3594 132.383C28.0417 132.117 27.7812 131.789 27.5781 131.398C27.3802 131.003 27.2552 130.539 27.2031 130.008H28.5781C28.6406 130.435 28.7656 130.794 28.9531 131.086C29.1406 131.378 29.3854 131.599 29.6875 131.75C29.9948 131.896 30.3516 131.969 30.7578 131.969C31.1016 131.969 31.4062 131.909 31.6719 131.789C31.9375 131.669 32.1615 131.497 32.3438 131.273C32.526 131.049 32.6641 130.779 32.7578 130.461C32.8568 130.143 32.9062 129.786 32.9062 129.391C32.9062 129.031 32.8568 128.698 32.7578 128.391C32.6589 128.083 32.5104 127.815 32.3125 127.586C32.1198 127.357 31.8828 127.18 31.6016 127.055C31.3203 126.924 30.9974 126.859 30.6328 126.859C30.1484 126.859 29.7812 126.924 29.5312 127.055C29.2865 127.185 29.0339 127.362 28.7734 127.586ZM40.6953 121.562V133H39.25V123.367L36.3359 124.43V123.125L40.4688 121.562H40.6953ZM54.5469 124.547H55.8594V132.82C55.8594 133.565 55.7083 134.201 55.4062 134.727C55.1042 135.253 54.6823 135.651 54.1406 135.922C53.6042 136.198 52.9844 136.336 52.2812 136.336C51.9896 136.336 51.6458 136.289 51.25 136.195C50.8594 136.107 50.474 135.953 50.0938 135.734C49.7188 135.521 49.4036 135.232 49.1484 134.867L49.9062 134.008C50.2604 134.435 50.6302 134.732 51.0156 134.898C51.4062 135.065 51.7917 135.148 52.1719 135.148C52.6302 135.148 53.026 135.062 53.3594 134.891C53.6927 134.719 53.9505 134.464 54.1328 134.125C54.3203 133.792 54.4141 133.38 54.4141 132.891V126.406L54.5469 124.547ZM48.7266 128.867V128.703C48.7266 128.057 48.8021 127.471 48.9531 126.945C49.1094 126.414 49.3307 125.958 49.6172 125.578C49.9089 125.198 50.2604 124.906 50.6719 124.703C51.0833 124.495 51.5469 124.391 52.0625 124.391C52.5938 124.391 53.0573 124.484 53.4531 124.672C53.8542 124.854 54.1927 125.122 54.4688 125.477C54.75 125.826 54.9714 126.247 55.1328 126.742C55.2943 127.237 55.4062 127.797 55.4688 128.422V129.141C55.4115 129.76 55.2995 130.318 55.1328 130.812C54.9714 131.307 54.75 131.729 54.4688 132.078C54.1927 132.427 53.8542 132.695 53.4531 132.883C53.0521 133.065 52.5833 133.156 52.0469 133.156C51.5417 133.156 51.0833 133.049 50.6719 132.836C50.2656 132.622 49.9167 132.323 49.625 131.938C49.3333 131.552 49.1094 131.099 48.9531 130.578C48.8021 130.052 48.7266 129.482 48.7266 128.867ZM50.1719 128.703V128.867C50.1719 129.289 50.2135 129.685 50.2969 130.055C50.3854 130.424 50.5182 130.75 50.6953 131.031C50.8776 131.312 51.1094 131.534 51.3906 131.695C51.6719 131.852 52.0078 131.93 52.3984 131.93C52.8776 131.93 53.2734 131.828 53.5859 131.625C53.8984 131.422 54.1458 131.154 54.3281 130.82C54.5156 130.487 54.6615 130.125 54.7656 129.734V127.852C54.7083 127.565 54.6198 127.289 54.5 127.023C54.3854 126.753 54.2344 126.513 54.0469 126.305C53.8646 126.091 53.638 125.922 53.3672 125.797C53.0964 125.672 52.7786 125.609 52.4141 125.609C52.0182 125.609 51.6771 125.693 51.3906 125.859C51.1094 126.021 50.8776 126.245 50.6953 126.531C50.5182 126.812 50.3854 127.141 50.2969 127.516C50.2135 127.885 50.1719 128.281 50.1719 128.703ZM57.6719 128.867V128.688C57.6719 128.078 57.7604 127.513 57.9375 126.992C58.1146 126.466 58.3698 126.01 58.7031 125.625C59.0365 125.234 59.4401 124.932 59.9141 124.719C60.388 124.5 60.9193 124.391 61.5078 124.391C62.1016 124.391 62.6354 124.5 63.1094 124.719C63.5885 124.932 63.9948 125.234 64.3281 125.625C64.6667 126.01 64.9245 126.466 65.1016 126.992C65.2786 127.513 65.3672 128.078 65.3672 128.688V128.867C65.3672 129.477 65.2786 130.042 65.1016 130.562C64.9245 131.083 64.6667 131.539 64.3281 131.93C63.9948 132.315 63.5911 132.617 63.1172 132.836C62.6484 133.049 62.1172 133.156 61.5234 133.156C60.9297 133.156 60.3958 133.049 59.9219 132.836C59.4479 132.617 59.0417 132.315 58.7031 131.93C58.3698 131.539 58.1146 131.083 57.9375 130.562C57.7604 130.042 57.6719 129.477 57.6719 128.867ZM59.1172 128.688V128.867C59.1172 129.289 59.1667 129.688 59.2656 130.062C59.3646 130.432 59.513 130.76 59.7109 131.047C59.9141 131.333 60.1667 131.56 60.4688 131.727C60.7708 131.888 61.1224 131.969 61.5234 131.969C61.9193 131.969 62.2656 131.888 62.5625 131.727C62.8646 131.56 63.1146 131.333 63.3125 131.047C63.5104 130.76 63.6589 130.432 63.7578 130.062C63.862 129.688 63.9141 129.289 63.9141 128.867V128.688C63.9141 128.271 63.862 127.878 63.7578 127.508C63.6589 127.133 63.5078 126.802 63.3047 126.516C63.1068 126.224 62.8568 125.995 62.5547 125.828C62.2578 125.661 61.9089 125.578 61.5078 125.578C61.112 125.578 60.763 125.661 60.4609 125.828C60.1641 125.995 59.9141 126.224 59.7109 126.516C59.513 126.802 59.3646 127.133 59.2656 127.508C59.1667 127.878 59.1172 128.271 59.1172 128.688ZM68.75 124.547V133H67.2969V124.547H68.75ZM67.1875 122.305C67.1875 122.07 67.2578 121.872 67.3984 121.711C67.5443 121.549 67.7578 121.469 68.0391 121.469C68.3151 121.469 68.526 121.549 68.6719 121.711C68.8229 121.872 68.8984 122.07 68.8984 122.305C68.8984 122.529 68.8229 122.721 68.6719 122.883C68.526 123.039 68.3151 123.117 68.0391 123.117C67.7578 123.117 67.5443 123.039 67.3984 122.883C67.2578 122.721 67.1875 122.529 67.1875 122.305ZM72.5156 126.352V133H71.0703V124.547H72.4375L72.5156 126.352ZM72.1719 128.453L71.5703 128.43C71.5755 127.852 71.6615 127.318 71.8281 126.828C71.9948 126.333 72.2292 125.904 72.5312 125.539C72.8333 125.174 73.1927 124.893 73.6094 124.695C74.0312 124.492 74.4974 124.391 75.0078 124.391C75.4245 124.391 75.7995 124.448 76.1328 124.562C76.4661 124.672 76.75 124.849 76.9844 125.094C77.224 125.339 77.4062 125.656 77.5312 126.047C77.6562 126.432 77.7188 126.904 77.7188 127.461V133H76.2656V127.445C76.2656 127.003 76.2005 126.648 76.0703 126.383C75.9401 126.112 75.75 125.917 75.5 125.797C75.25 125.672 74.9427 125.609 74.5781 125.609C74.2188 125.609 73.8906 125.685 73.5938 125.836C73.3021 125.987 73.0495 126.195 72.8359 126.461C72.6276 126.727 72.4635 127.031 72.3438 127.375C72.2292 127.714 72.1719 128.073 72.1719 128.453ZM85.3906 124.547H86.7031V132.82C86.7031 133.565 86.5521 134.201 86.25 134.727C85.9479 135.253 85.526 135.651 84.9844 135.922C84.4479 136.198 83.8281 136.336 83.125 136.336C82.8333 136.336 82.4896 136.289 82.0938 136.195C81.7031 136.107 81.3177 135.953 80.9375 135.734C80.5625 135.521 80.2474 135.232 79.9922 134.867L80.75 134.008C81.1042 134.435 81.474 134.732 81.8594 134.898C82.25 135.065 82.6354 135.148 83.0156 135.148C83.474 135.148 83.8698 135.062 84.2031 134.891C84.5365 134.719 84.7943 134.464 84.9766 134.125C85.1641 133.792 85.2578 133.38 85.2578 132.891V126.406L85.3906 124.547ZM79.5703 128.867V128.703C79.5703 128.057 79.6458 127.471 79.7969 126.945C79.9531 126.414 80.1745 125.958 80.4609 125.578C80.7526 125.198 81.1042 124.906 81.5156 124.703C81.9271 124.495 82.3906 124.391 82.9062 124.391C83.4375 124.391 83.901 124.484 84.2969 124.672C84.6979 124.854 85.0365 125.122 85.3125 125.477C85.5938 125.826 85.8151 126.247 85.9766 126.742C86.138 127.237 86.25 127.797 86.3125 128.422V129.141C86.2552 129.76 86.1432 130.318 85.9766 130.812C85.8151 131.307 85.5938 131.729 85.3125 132.078C85.0365 132.427 84.6979 132.695 84.2969 132.883C83.8958 133.065 83.4271 133.156 82.8906 133.156C82.3854 133.156 81.9271 133.049 81.5156 132.836C81.1094 132.622 80.7604 132.323 80.4688 131.938C80.1771 131.552 79.9531 131.099 79.7969 130.578C79.6458 130.052 79.5703 129.482 79.5703 128.867ZM81.0156 128.703V128.867C81.0156 129.289 81.0573 129.685 81.1406 130.055C81.2292 130.424 81.362 130.75 81.5391 131.031C81.7214 131.312 81.9531 131.534 82.2344 131.695C82.5156 131.852 82.8516 131.93 83.2422 131.93C83.7214 131.93 84.1172 131.828 84.4297 131.625C84.7422 131.422 84.9896 131.154 85.1719 130.82C85.3594 130.487 85.5052 130.125 85.6094 129.734V127.852C85.5521 127.565 85.4635 127.289 85.3438 127.023C85.2292 126.753 85.0781 126.513 84.8906 126.305C84.7083 126.091 84.4818 125.922 84.2109 125.797C83.9401 125.672 83.6224 125.609 83.2578 125.609C82.862 125.609 82.5208 125.693 82.2344 125.859C81.9531 126.021 81.7214 126.245 81.5391 126.531C81.362 126.812 81.2292 127.141 81.1406 127.516C81.0573 127.885 81.0156 128.281 81.0156 128.703Z" fill="#212121"/>
<path fill-rule="evenodd" clip-rule="evenodd" d="M120.084 123C120.701 123 121.239 122.665 121.527 122.166H123.417C123.877 122.166 124.25 122.539 124.25 123V124.771C122.813 125.141 121.75 126.447 121.75 128C121.75 129.553 122.813 130.858 124.25 131.228V133C124.25 133.46 123.877 133.833 123.417 133.833H121.527C121.239 133.335 120.701 133 120.084 133C119.467 133 118.928 133.335 118.64 133.833H110.084C109.623 133.833 109.25 133.46 109.25 133V131.228C110.688 130.858 111.75 129.553 111.75 128C111.75 126.447 110.688 125.141 109.25 124.771V123C109.25 122.539 109.623 122.166 110.084 122.166H118.64C118.928 122.665 119.467 123 120.084 123ZM122.584 128C122.584 126.619 123.703 125.5 125.084 125.5V123C125.084 122.079 124.337 121.333 123.417 121.333H120.917C120.917 121.793 120.544 122.166 120.084 122.166C119.623 122.166 119.25 121.793 119.25 121.333H110.084C109.163 121.333 108.417 122.079 108.417 123V125.5C109.798 125.5 110.917 126.619 110.917 128C110.917 129.38 109.798 130.5 108.417 130.5V133C108.417 133.92 109.163 134.666 110.084 134.666H119.25C119.25 134.206 119.623 133.833 120.084 133.833C120.544 133.833 120.917 134.206 120.917 134.666H123.417C124.337 134.666 125.084 133.92 125.084 133V130.5C123.703 130.5 122.584 129.38 122.584 128ZM120.084 125.5C120.544 125.5 120.917 125.127 120.917 124.666C120.917 124.206 120.544 123.833 120.084 123.833C119.623 123.833 119.25 124.206 119.25 124.666C119.25 125.127 119.623 125.5 120.084 125.5ZM120.084 128.833C120.544 128.833 120.917 128.46 120.917 128C120.917 127.539 120.544 127.166 120.084 127.166C119.623 127.166 119.25 127.539 119.25 128C119.25 128.46 119.623 128.833 120.084 128.833ZM120.917 131.333C120.917 131.793 120.544 132.166 120.084 132.166C119.623 132.166 119.25 131.793 119.25 131.333C119.25 130.873 119.623 130.5 120.084 130.5C120.544 130.5 120.917 130.873 120.917 131.333Z" fill="#707070"/>
<path d="M135.578 121.625V133H134.07V121.625H135.578ZM140.344 126.742V127.977H135.25V126.742H140.344ZM141.117 121.625V122.859H135.25V121.625H141.117ZM143.938 125.875V133H142.492V124.547H143.898L143.938 125.875ZM146.578 124.5L146.57 125.844C146.451 125.818 146.336 125.802 146.227 125.797C146.122 125.786 146.003 125.781 145.867 125.781C145.534 125.781 145.24 125.833 144.984 125.938C144.729 126.042 144.513 126.188 144.336 126.375C144.159 126.562 144.018 126.786 143.914 127.047C143.815 127.302 143.75 127.583 143.719 127.891L143.312 128.125C143.312 127.615 143.362 127.135 143.461 126.688C143.565 126.24 143.724 125.844 143.938 125.5C144.151 125.151 144.422 124.88 144.75 124.688C145.083 124.49 145.479 124.391 145.938 124.391C146.042 124.391 146.161 124.404 146.297 124.43C146.432 124.451 146.526 124.474 146.578 124.5ZM151.266 133.156C150.677 133.156 150.143 133.057 149.664 132.859C149.19 132.656 148.781 132.372 148.438 132.008C148.099 131.643 147.839 131.211 147.656 130.711C147.474 130.211 147.383 129.664 147.383 129.07V128.742C147.383 128.055 147.484 127.443 147.688 126.906C147.891 126.365 148.167 125.906 148.516 125.531C148.865 125.156 149.26 124.872 149.703 124.68C150.146 124.487 150.604 124.391 151.078 124.391C151.682 124.391 152.203 124.495 152.641 124.703C153.083 124.911 153.445 125.203 153.727 125.578C154.008 125.948 154.216 126.385 154.352 126.891C154.487 127.391 154.555 127.938 154.555 128.531V129.18H148.242V128H153.109V127.891C153.089 127.516 153.01 127.151 152.875 126.797C152.745 126.443 152.536 126.151 152.25 125.922C151.964 125.693 151.573 125.578 151.078 125.578C150.75 125.578 150.448 125.648 150.172 125.789C149.896 125.924 149.659 126.128 149.461 126.398C149.263 126.669 149.109 127 149 127.391C148.891 127.781 148.836 128.232 148.836 128.742V129.07C148.836 129.471 148.891 129.849 149 130.203C149.115 130.552 149.279 130.859 149.492 131.125C149.711 131.391 149.974 131.599 150.281 131.75C150.594 131.901 150.948 131.977 151.344 131.977C151.854 131.977 152.286 131.872 152.641 131.664C152.995 131.456 153.305 131.177 153.57 130.828L154.445 131.523C154.263 131.799 154.031 132.062 153.75 132.312C153.469 132.562 153.122 132.766 152.711 132.922C152.305 133.078 151.823 133.156 151.266 133.156ZM159.75 133.156C159.161 133.156 158.628 133.057 158.148 132.859C157.674 132.656 157.266 132.372 156.922 132.008C156.583 131.643 156.323 131.211 156.141 130.711C155.958 130.211 155.867 129.664 155.867 129.07V128.742C155.867 128.055 155.969 127.443 156.172 126.906C156.375 126.365 156.651 125.906 157 125.531C157.349 125.156 157.745 124.872 158.188 124.68C158.63 124.487 159.089 124.391 159.562 124.391C160.167 124.391 160.688 124.495 161.125 124.703C161.568 124.911 161.93 125.203 162.211 125.578C162.492 125.948 162.701 126.385 162.836 126.891C162.971 127.391 163.039 127.938 163.039 128.531V129.18H156.727V128H161.594V127.891C161.573 127.516 161.495 127.151 161.359 126.797C161.229 126.443 161.021 126.151 160.734 125.922C160.448 125.693 160.057 125.578 159.562 125.578C159.234 125.578 158.932 125.648 158.656 125.789C158.38 125.924 158.143 126.128 157.945 126.398C157.747 126.669 157.594 127 157.484 127.391C157.375 127.781 157.32 128.232 157.32 128.742V129.07C157.32 129.471 157.375 129.849 157.484 130.203C157.599 130.552 157.763 130.859 157.977 131.125C158.195 131.391 158.458 131.599 158.766 131.75C159.078 131.901 159.432 131.977 159.828 131.977C160.339 131.977 160.771 131.872 161.125 131.664C161.479 131.456 161.789 131.177 162.055 130.828L162.93 131.523C162.747 131.799 162.516 132.062 162.234 132.312C161.953 132.562 161.607 132.766 161.195 132.922C160.789 133.078 160.307 133.156 159.75 133.156Z" fill="#212121"/>
</svg>
