<svg width="272" height="214" viewBox="0 0 272 214" fill="none" xmlns="http://www.w3.org/2000/svg">
<path d="M8.79883 15.3086C8.79883 15.0352 8.75651 14.791 8.67188 14.5762C8.59375 14.3548 8.44727 14.1562 8.23242 13.9805C8.02409 13.7982 7.72786 13.6224 7.34375 13.4531C6.96615 13.2773 6.47786 13.0951 5.87891 12.9062C5.21484 12.6979 4.59635 12.4635 4.02344 12.2031C3.45052 11.9427 2.94596 11.64 2.50977 11.2949C2.08008 10.9499 1.74479 10.5527 1.50391 10.1035C1.26302 9.64779 1.14258 9.12044 1.14258 8.52148C1.14258 7.93555 1.26628 7.40169 1.51367 6.91992C1.76758 6.43815 2.12565 6.02474 2.58789 5.67969C3.05013 5.32812 3.59375 5.05794 4.21875 4.86914C4.85026 4.68034 5.54688 4.58594 6.30859 4.58594C7.36328 4.58594 8.27474 4.77799 9.04297 5.16211C9.81771 5.54622 10.4167 6.06706 10.8398 6.72461C11.263 7.38216 11.4746 8.12109 11.4746 8.94141H8.79883C8.79883 8.4987 8.70443 8.10807 8.51562 7.76953C8.33333 7.43099 8.05339 7.16406 7.67578 6.96875C7.30469 6.77344 6.83594 6.67578 6.26953 6.67578C5.72266 6.67578 5.26693 6.75716 4.90234 6.91992C4.54427 7.08268 4.27409 7.30404 4.0918 7.58398C3.91602 7.86393 3.82812 8.17643 3.82812 8.52148C3.82812 8.7819 3.88997 9.01628 4.01367 9.22461C4.13737 9.42643 4.32292 9.61849 4.57031 9.80078C4.81771 9.97656 5.1237 10.1426 5.48828 10.2988C5.85938 10.4486 6.28906 10.5983 6.77734 10.748C7.55859 10.9824 8.24219 11.2428 8.82812 11.5293C9.42057 11.8158 9.91211 12.1413 10.3027 12.5059C10.6999 12.8704 10.9961 13.2806 11.1914 13.7363C11.3932 14.1921 11.4941 14.7096 11.4941 15.2891C11.4941 15.901 11.3737 16.4479 11.1328 16.9297C10.8919 17.4115 10.5469 17.8216 10.0977 18.1602C9.64844 18.4987 9.10807 18.7559 8.47656 18.9316C7.85156 19.1074 7.15169 19.1953 6.37695 19.1953C5.68685 19.1953 5.00326 19.1042 4.32617 18.9219C3.6556 18.7331 3.04688 18.4531 2.5 18.082C1.95312 17.7044 1.51693 17.2292 1.19141 16.6562C0.865885 16.0768 0.703125 15.3997 0.703125 14.625H3.39844C3.39844 15.0742 3.47005 15.4583 3.61328 15.7773C3.76302 16.0898 3.97135 16.347 4.23828 16.5488C4.51172 16.7441 4.83073 16.8874 5.19531 16.9785C5.5599 17.0697 5.95378 17.1152 6.37695 17.1152C6.92383 17.1152 7.37305 17.0404 7.72461 16.8906C8.08268 16.7344 8.34961 16.5195 8.52539 16.2461C8.70768 15.9727 8.79883 15.6602 8.79883 15.3086ZM16.1035 8.43359V19H13.5156V8.43359H16.1035ZM13.3398 5.66992C13.3398 5.28581 13.4701 4.9668 13.7305 4.71289C13.9974 4.45898 14.3555 4.33203 14.8047 4.33203C15.2539 4.33203 15.6087 4.45898 15.8691 4.71289C16.1361 4.9668 16.2695 5.28581 16.2695 5.66992C16.2695 6.04753 16.1361 6.36328 15.8691 6.61719C15.6087 6.87109 15.2539 6.99805 14.8047 6.99805C14.3555 6.99805 13.9974 6.87109 13.7305 6.61719C13.4701 6.36328 13.3398 6.04753 13.3398 5.66992ZM25.2832 8.43359H27.627V18.6777C27.627 19.6348 27.4186 20.4453 27.002 21.1094C26.5918 21.7799 26.0156 22.2878 25.2734 22.6328C24.5312 22.9844 23.6686 23.1602 22.6855 23.1602C22.2624 23.1602 21.8034 23.1016 21.3086 22.9844C20.8203 22.8672 20.3483 22.6816 19.8926 22.4277C19.4434 22.1803 19.069 21.8581 18.7695 21.4609L19.9316 19.9375C20.2832 20.3477 20.6803 20.6569 21.123 20.8652C21.5658 21.0801 22.0443 21.1875 22.5586 21.1875C23.0794 21.1875 23.5221 21.0898 23.8867 20.8945C24.2578 20.7057 24.541 20.4258 24.7363 20.0547C24.9382 19.6901 25.0391 19.2409 25.0391 18.707V10.8457L25.2832 8.43359ZM18.1445 13.8438V13.6387C18.1445 12.8314 18.2422 12.099 18.4375 11.4414C18.6328 10.7773 18.9128 10.2077 19.2773 9.73242C19.6484 9.25716 20.0944 8.88932 20.6152 8.62891C21.1426 8.36849 21.735 8.23828 22.3926 8.23828C23.0892 8.23828 23.6751 8.36523 24.1504 8.61914C24.6322 8.87305 25.0293 9.23438 25.3418 9.70312C25.6608 10.1719 25.9082 10.7285 26.084 11.373C26.2663 12.0111 26.4062 12.7142 26.5039 13.4824V14.0391C26.4128 14.7878 26.2663 15.4746 26.0645 16.0996C25.8691 16.7246 25.6087 17.2715 25.2832 17.7402C24.9577 18.2025 24.554 18.5605 24.0723 18.8145C23.5905 19.0684 23.0241 19.1953 22.373 19.1953C21.722 19.1953 21.1361 19.0618 20.6152 18.7949C20.0944 18.528 19.6484 18.1536 19.2773 17.6719C18.9128 17.1901 18.6328 16.6237 18.4375 15.9727C18.2422 15.3216 18.1445 14.612 18.1445 13.8438ZM20.7227 13.6387V13.8438C20.7227 14.2995 20.7682 14.7259 20.8594 15.123C20.9505 15.5202 21.0905 15.8717 21.2793 16.1777C21.4681 16.4772 21.7057 16.7116 21.9922 16.8809C22.2786 17.0501 22.6204 17.1348 23.0176 17.1348C23.5514 17.1348 23.9876 17.0241 24.3262 16.8027C24.6712 16.5749 24.9316 16.2656 25.1074 15.875C25.2897 15.4779 25.4069 15.0319 25.459 14.5371V13.0039C25.4264 12.6133 25.3548 12.252 25.2441 11.9199C25.14 11.5879 24.9935 11.3014 24.8047 11.0605C24.6159 10.8197 24.375 10.6309 24.082 10.4941C23.7891 10.3574 23.4408 10.2891 23.0371 10.2891C22.6465 10.2891 22.3047 10.377 22.0117 10.5527C21.7188 10.722 21.4779 10.9596 21.2891 11.2656C21.1003 11.5716 20.957 11.9264 20.8594 12.3301C20.7682 12.7337 20.7227 13.1699 20.7227 13.6387ZM32.4805 10.6895V19H29.9023V8.43359H32.3242L32.4805 10.6895ZM32.0703 13.3359H31.3086C31.3151 12.5677 31.4193 11.8711 31.6211 11.2461C31.8229 10.6211 32.1061 10.084 32.4707 9.63477C32.8418 9.18555 33.2812 8.84049 33.7891 8.59961C34.2969 8.35872 34.8633 8.23828 35.4883 8.23828C35.9961 8.23828 36.4551 8.3099 36.8652 8.45312C37.2754 8.59635 37.627 8.82422 37.9199 9.13672C38.2194 9.44922 38.4473 9.85938 38.6035 10.3672C38.7663 10.8685 38.8477 11.487 38.8477 12.2227V19H36.25V12.2031C36.25 11.7214 36.1784 11.3405 36.0352 11.0605C35.8984 10.7806 35.6966 10.582 35.4297 10.4648C35.1693 10.3477 34.847 10.2891 34.4629 10.2891C34.0658 10.2891 33.7174 10.3704 33.418 10.5332C33.125 10.6895 32.8776 10.9076 32.6758 11.1875C32.4805 11.4674 32.3307 11.7897 32.2266 12.1543C32.1224 12.5189 32.0703 12.9128 32.0703 13.3359ZM43.8574 8.43359V19H41.2695V8.43359H43.8574ZM41.0938 5.66992C41.0938 5.28581 41.224 4.9668 41.4844 4.71289C41.7513 4.45898 42.1094 4.33203 42.5586 4.33203C43.0078 4.33203 43.3626 4.45898 43.623 4.71289C43.89 4.9668 44.0234 5.28581 44.0234 5.66992C44.0234 6.04753 43.89 6.36328 43.623 6.61719C43.3626 6.87109 43.0078 6.99805 42.5586 6.99805C42.1094 6.99805 41.7513 6.87109 41.4844 6.61719C41.224 6.36328 41.0938 6.04753 41.0938 5.66992ZM49.5801 19H46.9824V7.84766C46.9824 6.97526 47.1582 6.23958 47.5098 5.64062C47.8678 5.03516 48.3789 4.57617 49.043 4.26367C49.7135 3.95117 50.5111 3.79492 51.4355 3.79492C51.9759 3.79492 52.4967 3.85026 52.998 3.96094C53.5059 4.0651 54.0267 4.20182 54.5605 4.37109L54.1797 6.46094C53.8346 6.35026 53.457 6.24609 53.0469 6.14844C52.6432 6.05078 52.1647 6.00195 51.6113 6.00195C50.9277 6.00195 50.4167 6.1582 50.0781 6.4707C49.7461 6.7832 49.5801 7.24219 49.5801 7.84766V19ZM51.6895 8.43359V10.2891H45.3906V8.43359H51.6895ZM55.7715 8.43359V19H53.1836V8.43359H55.7715ZM62.6074 17.1641C62.972 17.1641 63.2975 17.0924 63.584 16.9492C63.8704 16.806 64.0983 16.6042 64.2676 16.3438C64.4434 16.0833 64.5378 15.7806 64.5508 15.4355H66.9824C66.9694 16.1517 66.7676 16.793 66.377 17.3594C65.9863 17.9258 65.4655 18.375 64.8145 18.707C64.1699 19.0326 63.4473 19.1953 62.6465 19.1953C61.8327 19.1953 61.123 19.0586 60.5176 18.7852C59.9121 18.5117 59.4076 18.1309 59.0039 17.6426C58.6068 17.1543 58.3073 16.5879 58.1055 15.9434C57.9102 15.2988 57.8125 14.6087 57.8125 13.873V13.5605C57.8125 12.8249 57.9102 12.1348 58.1055 11.4902C58.3073 10.8457 58.6068 10.2793 59.0039 9.79102C59.4076 9.30273 59.9121 8.92188 60.5176 8.64844C61.123 8.375 61.8294 8.23828 62.6367 8.23828C63.4896 8.23828 64.2383 8.4043 64.8828 8.73633C65.5339 9.06836 66.0417 9.53711 66.4062 10.1426C66.7773 10.748 66.9694 11.4609 66.9824 12.2812H64.5508C64.5378 11.9036 64.4531 11.5651 64.2969 11.2656C64.1406 10.9661 63.9193 10.7253 63.6328 10.543C63.3464 10.3607 62.998 10.2695 62.5879 10.2695C62.1517 10.2695 61.7871 10.3607 61.4941 10.543C61.2077 10.7253 60.9831 10.9759 60.8203 11.2949C60.6641 11.6074 60.5534 11.959 60.4883 12.3496C60.4297 12.7337 60.4004 13.1374 60.4004 13.5605V13.873C60.4004 14.3027 60.4297 14.7129 60.4883 15.1035C60.5534 15.4941 60.6641 15.8457 60.8203 16.1582C60.9831 16.4642 61.2077 16.7083 61.4941 16.8906C61.7871 17.0729 62.1582 17.1641 62.6074 17.1641ZM74.5215 16.7539V11.8809C74.5215 11.5228 74.4596 11.2135 74.3359 10.9531C74.2122 10.6927 74.0234 10.4909 73.7695 10.3477C73.5156 10.2044 73.1934 10.1328 72.8027 10.1328C72.4577 10.1328 72.1549 10.1914 71.8945 10.3086C71.6406 10.4258 71.4453 10.5918 71.3086 10.8066C71.1719 11.015 71.1035 11.2559 71.1035 11.5293H68.5156C68.5156 11.0931 68.6198 10.6797 68.8281 10.2891C69.0365 9.89193 69.3327 9.54036 69.7168 9.23438C70.1074 8.92188 70.5729 8.67773 71.1133 8.50195C71.6602 8.32617 72.2721 8.23828 72.9492 8.23828C73.75 8.23828 74.4629 8.375 75.0879 8.64844C75.7194 8.91536 76.2142 9.31901 76.5723 9.85938C76.9368 10.3997 77.1191 11.0801 77.1191 11.9004V16.5098C77.1191 17.0371 77.1517 17.4896 77.2168 17.8672C77.2884 18.2383 77.3926 18.5605 77.5293 18.834V19H74.9023C74.7786 18.7331 74.6842 18.3945 74.6191 17.9844C74.554 17.5677 74.5215 17.1576 74.5215 16.7539ZM74.8828 12.5645L74.9023 14.0977H73.2715C72.8678 14.0977 72.513 14.14 72.207 14.2246C71.901 14.3027 71.6504 14.4199 71.4551 14.5762C71.2598 14.7259 71.1133 14.9082 71.0156 15.123C70.918 15.3314 70.8691 15.569 70.8691 15.8359C70.8691 16.0964 70.9277 16.3307 71.0449 16.5391C71.1686 16.7474 71.3444 16.9134 71.5723 17.0371C71.8066 17.1543 72.0801 17.2129 72.3926 17.2129C72.8483 17.2129 73.2454 17.1217 73.584 16.9395C73.9225 16.7507 74.1862 16.5228 74.375 16.2559C74.5638 15.9889 74.6647 15.735 74.6777 15.4941L75.4199 16.6074C75.3288 16.8743 75.1921 17.1576 75.0098 17.457C74.8275 17.7565 74.5931 18.0365 74.3066 18.2969C74.0202 18.5573 73.6751 18.7721 73.2715 18.9414C72.8678 19.1107 72.3991 19.1953 71.8652 19.1953C71.1816 19.1953 70.5697 19.0586 70.0293 18.7852C69.4889 18.5117 69.0625 18.1374 68.75 17.6621C68.4375 17.1868 68.2812 16.6465 68.2812 16.041C68.2812 15.4811 68.3854 14.9863 68.5938 14.5566C68.8021 14.127 69.1113 13.7656 69.5215 13.4727C69.9316 13.1732 70.4395 12.9486 71.0449 12.7988C71.6569 12.6426 72.3568 12.5645 73.1445 12.5645H74.8828ZM81.9727 10.6895V19H79.3945V8.43359H81.8164L81.9727 10.6895ZM81.5625 13.3359H80.8008C80.8073 12.5677 80.9115 11.8711 81.1133 11.2461C81.3151 10.6211 81.5983 10.084 81.9629 9.63477C82.334 9.18555 82.7734 8.84049 83.2812 8.59961C83.7891 8.35872 84.3555 8.23828 84.9805 8.23828C85.4883 8.23828 85.9473 8.3099 86.3574 8.45312C86.7676 8.59635 87.1191 8.82422 87.4121 9.13672C87.7116 9.44922 87.9395 9.85938 88.0957 10.3672C88.2585 10.8685 88.3398 11.487 88.3398 12.2227V19H85.7422V12.2031C85.7422 11.7214 85.6706 11.3405 85.5273 11.0605C85.3906 10.7806 85.1888 10.582 84.9219 10.4648C84.6615 10.3477 84.3392 10.2891 83.9551 10.2891C83.5579 10.2891 83.2096 10.3704 82.9102 10.5332C82.6172 10.6895 82.3698 10.9076 82.168 11.1875C81.9727 11.4674 81.8229 11.7897 81.7188 12.1543C81.6146 12.5189 81.5625 12.9128 81.5625 13.3359ZM95.6152 8.43359V10.2891H89.5605V8.43359H95.6152ZM91.1816 5.83594H93.7695V15.9531C93.7695 16.2656 93.8118 16.5065 93.8965 16.6758C93.9811 16.8451 94.1081 16.959 94.2773 17.0176C94.4466 17.0762 94.6484 17.1055 94.8828 17.1055C95.0521 17.1055 95.2083 17.0957 95.3516 17.0762C95.4948 17.0566 95.6152 17.0371 95.7129 17.0176L95.7227 18.9512C95.5078 19.0228 95.2637 19.0814 94.9902 19.127C94.7233 19.1725 94.4206 19.1953 94.082 19.1953C93.5026 19.1953 92.9948 19.0977 92.5586 18.9023C92.1224 18.7005 91.7839 18.3783 91.543 17.9355C91.3021 17.4863 91.1816 16.8939 91.1816 16.1582V5.83594ZM103.682 4.78125H106.006L109.893 15.4844L113.77 4.78125H116.104L110.82 19H108.955L103.682 4.78125ZM102.51 4.78125H104.785L105.195 14.6152V19H102.51V4.78125ZM114.99 4.78125H117.275V19H114.59V14.6152L114.99 4.78125ZM126.104 16.4902V8.43359H128.701V19H126.26L126.104 16.4902ZM126.436 14.3027L127.236 14.2832C127.236 14.9928 127.158 15.6471 127.002 16.2461C126.846 16.8451 126.602 17.3659 126.27 17.8086C125.944 18.2448 125.531 18.5866 125.029 18.834C124.528 19.0749 123.936 19.1953 123.252 19.1953C122.731 19.1953 122.256 19.1237 121.826 18.9805C121.396 18.8307 121.025 18.5996 120.713 18.2871C120.407 17.9681 120.169 17.5612 120 17.0664C119.831 16.5651 119.746 15.9629 119.746 15.2598V8.43359H122.324V15.2793C122.324 15.6309 122.363 15.9238 122.441 16.1582C122.526 16.3926 122.64 16.5846 122.783 16.7344C122.933 16.8776 123.105 16.9818 123.301 17.0469C123.503 17.1055 123.717 17.1348 123.945 17.1348C124.57 17.1348 125.062 17.0111 125.42 16.7637C125.785 16.5098 126.045 16.1712 126.201 15.748C126.357 15.3184 126.436 14.8366 126.436 14.3027ZM136.797 16.1094C136.797 15.888 136.738 15.6895 136.621 15.5137C136.504 15.3379 136.283 15.1784 135.957 15.0352C135.638 14.8854 135.169 14.7454 134.551 14.6152C134.004 14.498 133.499 14.3516 133.037 14.1758C132.575 14 132.178 13.7884 131.846 13.541C131.514 13.2871 131.253 12.9909 131.064 12.6523C130.882 12.3073 130.791 11.9102 130.791 11.4609C130.791 11.0247 130.885 10.6146 131.074 10.2305C131.263 9.83984 131.536 9.49805 131.895 9.20508C132.253 8.9056 132.689 8.67122 133.203 8.50195C133.717 8.32617 134.297 8.23828 134.941 8.23828C135.84 8.23828 136.611 8.38477 137.256 8.67773C137.907 8.9707 138.405 9.37435 138.75 9.88867C139.095 10.3965 139.268 10.9694 139.268 11.6074H136.689C136.689 11.3275 136.624 11.0736 136.494 10.8457C136.37 10.6178 136.178 10.4355 135.918 10.2988C135.658 10.1556 135.329 10.084 134.932 10.084C134.574 10.084 134.271 10.1426 134.023 10.2598C133.783 10.377 133.6 10.5299 133.477 10.7188C133.353 10.9076 133.291 11.1159 133.291 11.3438C133.291 11.513 133.324 11.666 133.389 11.8027C133.46 11.9329 133.574 12.0534 133.73 12.1641C133.887 12.2747 134.098 12.3757 134.365 12.4668C134.639 12.5579 134.974 12.6458 135.371 12.7305C136.159 12.8867 136.846 13.0951 137.432 13.3555C138.024 13.6094 138.486 13.9479 138.818 14.3711C139.15 14.7943 139.316 15.3346 139.316 15.9922C139.316 16.4609 139.215 16.8906 139.014 17.2812C138.812 17.6654 138.519 18.0007 138.135 18.2871C137.751 18.5736 137.292 18.7982 136.758 18.9609C136.224 19.1172 135.622 19.1953 134.951 19.1953C133.981 19.1953 133.161 19.0228 132.49 18.6777C131.82 18.3262 131.312 17.8835 130.967 17.3496C130.622 16.8092 130.449 16.2493 130.449 15.6699H132.92C132.939 16.0801 133.05 16.4089 133.252 16.6562C133.454 16.9036 133.708 17.0827 134.014 17.1934C134.326 17.2975 134.655 17.3496 135 17.3496C135.391 17.3496 135.719 17.2975 135.986 17.1934C136.253 17.0827 136.455 16.9362 136.592 16.7539C136.729 16.5651 136.797 16.3503 136.797 16.1094ZM144.014 8.43359V19H141.426V8.43359H144.014ZM141.25 5.66992C141.25 5.28581 141.38 4.9668 141.641 4.71289C141.908 4.45898 142.266 4.33203 142.715 4.33203C143.164 4.33203 143.519 4.45898 143.779 4.71289C144.046 4.9668 144.18 5.28581 144.18 5.66992C144.18 6.04753 144.046 6.36328 143.779 6.61719C143.519 6.87109 143.164 6.99805 142.715 6.99805C142.266 6.99805 141.908 6.87109 141.641 6.61719C141.38 6.36328 141.25 6.04753 141.25 5.66992ZM150.811 17.1641C151.175 17.1641 151.501 17.0924 151.787 16.9492C152.074 16.806 152.301 16.6042 152.471 16.3438C152.646 16.0833 152.741 15.7806 152.754 15.4355H155.186C155.173 16.1517 154.971 16.793 154.58 17.3594C154.189 17.9258 153.669 18.375 153.018 18.707C152.373 19.0326 151.65 19.1953 150.85 19.1953C150.036 19.1953 149.326 19.0586 148.721 18.7852C148.115 18.5117 147.611 18.1309 147.207 17.6426C146.81 17.1543 146.51 16.5879 146.309 15.9434C146.113 15.2988 146.016 14.6087 146.016 13.873V13.5605C146.016 12.8249 146.113 12.1348 146.309 11.4902C146.51 10.8457 146.81 10.2793 147.207 9.79102C147.611 9.30273 148.115 8.92188 148.721 8.64844C149.326 8.375 150.033 8.23828 150.84 8.23828C151.693 8.23828 152.441 8.4043 153.086 8.73633C153.737 9.06836 154.245 9.53711 154.609 10.1426C154.98 10.748 155.173 11.4609 155.186 12.2812H152.754C152.741 11.9036 152.656 11.5651 152.5 11.2656C152.344 10.9661 152.122 10.7253 151.836 10.543C151.549 10.3607 151.201 10.2695 150.791 10.2695C150.355 10.2695 149.99 10.3607 149.697 10.543C149.411 10.7253 149.186 10.9759 149.023 11.2949C148.867 11.6074 148.757 11.959 148.691 12.3496C148.633 12.7337 148.604 13.1374 148.604 13.5605V13.873C148.604 14.3027 148.633 14.7129 148.691 15.1035C148.757 15.4941 148.867 15.8457 149.023 16.1582C149.186 16.4642 149.411 16.7083 149.697 16.8906C149.99 17.0729 150.361 17.1641 150.811 17.1641ZM162.725 16.7539V11.8809C162.725 11.5228 162.663 11.2135 162.539 10.9531C162.415 10.6927 162.227 10.4909 161.973 10.3477C161.719 10.2044 161.396 10.1328 161.006 10.1328C160.661 10.1328 160.358 10.1914 160.098 10.3086C159.844 10.4258 159.648 10.5918 159.512 10.8066C159.375 11.015 159.307 11.2559 159.307 11.5293H156.719C156.719 11.0931 156.823 10.6797 157.031 10.2891C157.24 9.89193 157.536 9.54036 157.92 9.23438C158.311 8.92188 158.776 8.67773 159.316 8.50195C159.863 8.32617 160.475 8.23828 161.152 8.23828C161.953 8.23828 162.666 8.375 163.291 8.64844C163.923 8.91536 164.417 9.31901 164.775 9.85938C165.14 10.3997 165.322 11.0801 165.322 11.9004V16.5098C165.322 17.0371 165.355 17.4896 165.42 17.8672C165.492 18.2383 165.596 18.5605 165.732 18.834V19H163.105C162.982 18.7331 162.887 18.3945 162.822 17.9844C162.757 17.5677 162.725 17.1576 162.725 16.7539ZM163.086 12.5645L163.105 14.0977H161.475C161.071 14.0977 160.716 14.14 160.41 14.2246C160.104 14.3027 159.854 14.4199 159.658 14.5762C159.463 14.7259 159.316 14.9082 159.219 15.123C159.121 15.3314 159.072 15.569 159.072 15.8359C159.072 16.0964 159.131 16.3307 159.248 16.5391C159.372 16.7474 159.548 16.9134 159.775 17.0371C160.01 17.1543 160.283 17.2129 160.596 17.2129C161.051 17.2129 161.449 17.1217 161.787 16.9395C162.126 16.7507 162.389 16.5228 162.578 16.2559C162.767 15.9889 162.868 15.735 162.881 15.4941L163.623 16.6074C163.532 16.8743 163.395 17.1576 163.213 17.457C163.031 17.7565 162.796 18.0365 162.51 18.2969C162.223 18.5573 161.878 18.7721 161.475 18.9414C161.071 19.1107 160.602 19.1953 160.068 19.1953C159.385 19.1953 158.773 19.0586 158.232 18.7852C157.692 18.5117 157.266 18.1374 156.953 17.6621C156.641 17.1868 156.484 16.6465 156.484 16.041C156.484 15.4811 156.589 14.9863 156.797 14.5566C157.005 14.127 157.314 13.7656 157.725 13.4727C158.135 13.1732 158.643 12.9486 159.248 12.7988C159.86 12.6426 160.56 12.5645 161.348 12.5645H163.086ZM170.381 4V19H167.793V4H170.381ZM2.5293 28.7812H4.85352L8.74023 39.4844L12.6172 28.7812H14.9512L9.66797 43H7.80273L2.5293 28.7812ZM1.35742 28.7812H3.63281L4.04297 38.6152V43H1.35742V28.7812ZM13.8379 28.7812H16.123V43H13.4375V38.6152L13.8379 28.7812ZM18.2031 37.8242V37.6191C18.2031 36.8444 18.3138 36.1315 18.5352 35.4805C18.7565 34.8229 19.0788 34.2533 19.502 33.7715C19.9251 33.2897 20.4427 32.9154 21.0547 32.6484C21.6667 32.375 22.3633 32.2383 23.1445 32.2383C23.9388 32.2383 24.6419 32.375 25.2539 32.6484C25.8724 32.9154 26.3932 33.2897 26.8164 33.7715C27.2396 34.2533 27.5618 34.8229 27.7832 35.4805C28.0046 36.1315 28.1152 36.8444 28.1152 37.6191V37.8242C28.1152 38.5924 28.0046 39.3053 27.7832 39.9629C27.5618 40.6139 27.2396 41.1836 26.8164 41.6719C26.3932 42.1536 25.8757 42.528 25.2637 42.7949C24.6517 43.0618 23.9518 43.1953 23.1641 43.1953C22.3828 43.1953 21.6829 43.0618 21.0645 42.7949C20.446 42.528 19.9251 42.1536 19.502 41.6719C19.0788 41.1836 18.7565 40.6139 18.5352 39.9629C18.3138 39.3053 18.2031 38.5924 18.2031 37.8242ZM20.7812 37.6191V37.8242C20.7812 38.2865 20.8268 38.7194 20.918 39.123C21.0091 39.5267 21.1491 39.8815 21.3379 40.1875C21.5267 40.4935 21.7708 40.7344 22.0703 40.9102C22.3763 41.0794 22.7409 41.1641 23.1641 41.1641C23.5807 41.1641 23.9388 41.0794 24.2383 40.9102C24.5378 40.7344 24.7819 40.4935 24.9707 40.1875C25.166 39.8815 25.3092 39.5267 25.4004 39.123C25.4915 38.7194 25.5371 38.2865 25.5371 37.8242V37.6191C25.5371 37.1634 25.4915 36.737 25.4004 36.3398C25.3092 35.9362 25.166 35.5814 24.9707 35.2754C24.7819 34.9629 24.5345 34.7188 24.2285 34.543C23.929 34.3607 23.5677 34.2695 23.1445 34.2695C22.7279 34.2695 22.3698 34.3607 22.0703 34.543C21.7708 34.7188 21.5267 34.9629 21.3379 35.2754C21.1491 35.5814 21.0091 35.9362 20.918 36.3398C20.8268 36.737 20.7812 37.1634 20.7812 37.6191ZM32.5586 34.6016V43H29.9805V32.4336H32.4121L32.5586 34.6016ZM32.1777 37.3359H31.3867C31.3867 36.6003 31.4746 35.9232 31.6504 35.3047C31.8327 34.6862 32.0996 34.1491 32.4512 33.6934C32.8027 33.2311 33.2357 32.873 33.75 32.6191C34.2708 32.3652 34.873 32.2383 35.5566 32.2383C36.0319 32.2383 36.4681 32.3099 36.8652 32.4531C37.2624 32.5898 37.6042 32.8079 37.8906 33.1074C38.1836 33.4004 38.4082 33.7845 38.5645 34.2598C38.7207 34.7285 38.7988 35.2917 38.7988 35.9492V43H36.2207V36.2129C36.2207 35.7181 36.1491 35.3307 36.0059 35.0508C35.8691 34.7708 35.6706 34.5755 35.4102 34.4648C35.1497 34.3477 34.8372 34.2891 34.4727 34.2891C34.069 34.2891 33.7207 34.3704 33.4277 34.5332C33.1413 34.6895 32.9036 34.9076 32.7148 35.1875C32.5326 35.4674 32.3958 35.7897 32.3047 36.1543C32.2201 36.5189 32.1777 36.9128 32.1777 37.3359ZM38.6035 36.8574L37.5391 37.0527C37.5456 36.3887 37.6367 35.7669 37.8125 35.1875C37.9883 34.6016 38.2454 34.0905 38.584 33.6543C38.929 33.2116 39.3555 32.8665 39.8633 32.6191C40.3776 32.3652 40.9701 32.2383 41.6406 32.2383C42.1615 32.2383 42.6302 32.3132 43.0469 32.4629C43.4701 32.6061 43.8314 32.8372 44.1309 33.1562C44.4303 33.4688 44.6582 33.8757 44.8145 34.377C44.9772 34.8783 45.0586 35.4902 45.0586 36.2129V43H42.4609V36.2031C42.4609 35.6888 42.3893 35.2949 42.2461 35.0215C42.1094 34.748 41.9108 34.5592 41.6504 34.4551C41.39 34.3444 41.084 34.2891 40.7324 34.2891C40.3743 34.2891 40.0618 34.3574 39.7949 34.4941C39.5345 34.6243 39.3132 34.8066 39.1309 35.041C38.9551 35.2754 38.8216 35.5488 38.7305 35.8613C38.6458 36.1673 38.6035 36.4993 38.6035 36.8574ZM52.1191 43.1953C51.3184 43.1953 50.599 43.0651 49.9609 42.8047C49.3229 42.5443 48.7793 42.1829 48.3301 41.7207C47.8874 41.252 47.5456 40.7083 47.3047 40.0898C47.0703 39.4648 46.9531 38.7943 46.9531 38.0781V37.6875C46.9531 36.8737 47.0703 36.1348 47.3047 35.4707C47.5391 34.8001 47.8711 34.224 48.3008 33.7422C48.7305 33.2604 49.2448 32.8893 49.8438 32.6289C50.4427 32.3685 51.1035 32.2383 51.8262 32.2383C52.5749 32.2383 53.2357 32.3652 53.8086 32.6191C54.3815 32.8665 54.86 33.2181 55.2441 33.6738C55.6283 34.1296 55.918 34.6764 56.1133 35.3145C56.3086 35.946 56.4062 36.6458 56.4062 37.4141V38.498H48.125V36.7207H53.8672V36.5254C53.8542 36.1152 53.776 35.7409 53.6328 35.4023C53.4896 35.0573 53.2682 34.7839 52.9688 34.582C52.6693 34.3737 52.2819 34.2695 51.8066 34.2695C51.4225 34.2695 51.0872 34.3542 50.8008 34.5234C50.5208 34.6862 50.2865 34.9206 50.0977 35.2266C49.9154 35.526 49.7786 35.8841 49.6875 36.3008C49.5964 36.7174 49.5508 37.1797 49.5508 37.6875V38.0781C49.5508 38.5208 49.6094 38.931 49.7266 39.3086C49.8503 39.6862 50.0293 40.015 50.2637 40.2949C50.5046 40.5684 50.791 40.7832 51.123 40.9395C51.4616 41.0892 51.8457 41.1641 52.2754 41.1641C52.8158 41.1641 53.304 41.0599 53.7402 40.8516C54.1829 40.6367 54.5671 40.321 54.8926 39.9043L56.1914 41.252C55.9701 41.5775 55.6706 41.89 55.293 42.1895C54.9219 42.4889 54.4727 42.7331 53.9453 42.9219C53.418 43.1042 52.8092 43.1953 52.1191 43.1953ZM60.6641 34.6895V43H58.0859V32.4336H60.5078L60.6641 34.6895ZM60.2539 37.3359H59.4922C59.4987 36.5677 59.6029 35.8711 59.8047 35.2461C60.0065 34.6211 60.2897 34.084 60.6543 33.6348C61.0254 33.1855 61.4648 32.8405 61.9727 32.5996C62.4805 32.3587 63.0469 32.2383 63.6719 32.2383C64.1797 32.2383 64.6387 32.3099 65.0488 32.4531C65.459 32.5964 65.8105 32.8242 66.1035 33.1367C66.403 33.4492 66.6309 33.8594 66.7871 34.3672C66.9499 34.8685 67.0312 35.487 67.0312 36.2227V43H64.4336V36.2031C64.4336 35.7214 64.362 35.3405 64.2188 35.0605C64.082 34.7806 63.8802 34.582 63.6133 34.4648C63.3529 34.3477 63.0306 34.2891 62.6465 34.2891C62.2493 34.2891 61.901 34.3704 61.6016 34.5332C61.3086 34.6895 61.0612 34.9076 60.8594 35.1875C60.6641 35.4674 60.5143 35.7897 60.4102 36.1543C60.306 36.5189 60.2539 36.9128 60.2539 37.3359ZM74.3066 32.4336V34.2891H68.252V32.4336H74.3066ZM69.873 29.8359H72.4609V39.9531C72.4609 40.2656 72.5033 40.5065 72.5879 40.6758C72.6725 40.8451 72.7995 40.959 72.9688 41.0176C73.138 41.0762 73.3398 41.1055 73.5742 41.1055C73.7435 41.1055 73.8997 41.0957 74.043 41.0762C74.1862 41.0566 74.3066 41.0371 74.4043 41.0176L74.4141 42.9512C74.1992 43.0228 73.9551 43.0814 73.6816 43.127C73.4147 43.1725 73.112 43.1953 72.7734 43.1953C72.194 43.1953 71.6862 43.0977 71.25 42.9023C70.8138 42.7005 70.4753 42.3783 70.2344 41.9355C69.9935 41.4863 69.873 40.8939 69.873 40.1582V29.8359ZM81.8359 40.1094C81.8359 39.888 81.7773 39.6895 81.6602 39.5137C81.543 39.3379 81.3216 39.1784 80.9961 39.0352C80.6771 38.8854 80.2083 38.7454 79.5898 38.6152C79.043 38.498 78.5384 38.3516 78.0762 38.1758C77.6139 38 77.2168 37.7884 76.8848 37.541C76.5527 37.2871 76.2923 36.9909 76.1035 36.6523C75.9212 36.3073 75.8301 35.9102 75.8301 35.4609C75.8301 35.0247 75.9245 34.6146 76.1133 34.2305C76.3021 33.8398 76.5755 33.498 76.9336 33.2051C77.2917 32.9056 77.7279 32.6712 78.2422 32.502C78.7565 32.3262 79.3359 32.2383 79.9805 32.2383C80.8789 32.2383 81.6504 32.3848 82.2949 32.6777C82.946 32.9707 83.444 33.3743 83.7891 33.8887C84.1341 34.3965 84.3066 34.9694 84.3066 35.6074H81.7285C81.7285 35.3275 81.6634 35.0736 81.5332 34.8457C81.4095 34.6178 81.2174 34.4355 80.957 34.2988C80.6966 34.1556 80.3678 34.084 79.9707 34.084C79.6126 34.084 79.3099 34.1426 79.0625 34.2598C78.8216 34.377 78.6393 34.5299 78.5156 34.7188C78.3919 34.9076 78.3301 35.1159 78.3301 35.3438C78.3301 35.513 78.3626 35.666 78.4277 35.8027C78.4993 35.9329 78.6133 36.0534 78.7695 36.1641C78.9258 36.2747 79.1374 36.3757 79.4043 36.4668C79.6777 36.5579 80.013 36.6458 80.4102 36.7305C81.1979 36.8867 81.8848 37.0951 82.4707 37.3555C83.0632 37.6094 83.5254 37.9479 83.8574 38.3711C84.1895 38.7943 84.3555 39.3346 84.3555 39.9922C84.3555 40.4609 84.2546 40.8906 84.0527 41.2812C83.8509 41.6654 83.5579 42.0007 83.1738 42.2871C82.7897 42.5736 82.3307 42.7982 81.7969 42.9609C81.263 43.1172 80.6608 43.1953 79.9902 43.1953C79.0202 43.1953 78.1999 43.0228 77.5293 42.6777C76.8587 42.3262 76.3509 41.8835 76.0059 41.3496C75.6608 40.8092 75.4883 40.2493 75.4883 39.6699H77.959C77.9785 40.0801 78.0892 40.4089 78.291 40.6562C78.4928 40.9036 78.7467 41.0827 79.0527 41.1934C79.3652 41.2975 79.694 41.3496 80.0391 41.3496C80.4297 41.3496 80.7585 41.2975 81.0254 41.1934C81.2923 41.0827 81.4941 40.9362 81.6309 40.7539C81.7676 40.5651 81.8359 40.3503 81.8359 40.1094Z" fill="#212121"/>
<path d="M7.58789 65.2031V66.5635H2.30371V65.2031H7.58789ZM2.72754 61.0469V71H1.01172V61.0469H2.72754ZM8.90723 61.0469V71H7.19824V61.0469H8.90723ZM10.4727 67.3838V67.2266C10.4727 66.6934 10.5501 66.1989 10.7051 65.7432C10.86 65.2829 11.0833 64.8841 11.375 64.5469C11.6712 64.2051 12.0312 63.9408 12.4551 63.7539C12.8835 63.5625 13.3665 63.4668 13.9043 63.4668C14.4466 63.4668 14.9297 63.5625 15.3535 63.7539C15.7819 63.9408 16.1442 64.2051 16.4404 64.5469C16.7367 64.8841 16.9622 65.2829 17.1172 65.7432C17.2721 66.1989 17.3496 66.6934 17.3496 67.2266V67.3838C17.3496 67.917 17.2721 68.4115 17.1172 68.8672C16.9622 69.3229 16.7367 69.7217 16.4404 70.0635C16.1442 70.4007 15.7842 70.665 15.3604 70.8564C14.9365 71.0433 14.4557 71.1367 13.918 71.1367C13.3757 71.1367 12.8903 71.0433 12.4619 70.8564C12.0381 70.665 11.6781 70.4007 11.3818 70.0635C11.0856 69.7217 10.86 69.3229 10.7051 68.8672C10.5501 68.4115 10.4727 67.917 10.4727 67.3838ZM12.1201 67.2266V67.3838C12.1201 67.7165 12.1543 68.0309 12.2227 68.3271C12.291 68.6234 12.3981 68.8831 12.5439 69.1064C12.6898 69.3298 12.8766 69.5052 13.1045 69.6328C13.3324 69.7604 13.6035 69.8242 13.918 69.8242C14.2233 69.8242 14.4876 69.7604 14.7109 69.6328C14.9388 69.5052 15.1257 69.3298 15.2715 69.1064C15.4173 68.8831 15.5244 68.6234 15.5928 68.3271C15.6657 68.0309 15.7021 67.7165 15.7021 67.3838V67.2266C15.7021 66.8984 15.6657 66.5885 15.5928 66.2969C15.5244 66.0007 15.415 65.7386 15.2646 65.5107C15.1188 65.2829 14.932 65.1051 14.7041 64.9775C14.4808 64.8454 14.2142 64.7793 13.9043 64.7793C13.5944 64.7793 13.3255 64.8454 13.0977 64.9775C12.8743 65.1051 12.6898 65.2829 12.5439 65.5107C12.3981 65.7386 12.291 66.0007 12.2227 66.2969C12.1543 66.5885 12.1201 66.8984 12.1201 67.2266ZM18.7373 60.5H20.3848V69.4209L20.2275 71H18.7373V60.5ZM25.2109 67.2334V67.377C25.2109 67.9238 25.1494 68.4274 25.0264 68.8877C24.9079 69.3434 24.7256 69.7399 24.4795 70.0771C24.238 70.4144 23.9372 70.6764 23.5771 70.8633C23.2217 71.0456 22.8092 71.1367 22.3398 71.1367C21.8796 71.1367 21.4785 71.0501 21.1367 70.877C20.7949 70.7038 20.5078 70.4577 20.2754 70.1387C20.0475 69.8197 19.863 69.4391 19.7217 68.9971C19.5804 68.555 19.4801 68.0674 19.4209 67.5342V67.0762C19.4801 66.5384 19.5804 66.0508 19.7217 65.6133C19.863 65.1712 20.0475 64.7907 20.2754 64.4717C20.5078 64.1481 20.7926 63.8997 21.1299 63.7266C21.4717 63.5534 21.8704 63.4668 22.3262 63.4668C22.8001 63.4668 23.2171 63.5579 23.5771 63.7402C23.9417 63.9225 24.2448 64.1823 24.4863 64.5195C24.7279 64.8522 24.9079 65.2487 25.0264 65.709C25.1494 66.1693 25.2109 66.6774 25.2109 67.2334ZM23.5635 67.377V67.2334C23.5635 66.9007 23.5361 66.5885 23.4814 66.2969C23.4268 66.0007 23.3356 65.7409 23.208 65.5176C23.085 65.2943 22.9163 65.1188 22.7021 64.9912C22.4925 64.859 22.2305 64.793 21.916 64.793C21.6243 64.793 21.3737 64.8431 21.1641 64.9434C20.9544 65.0436 20.779 65.1803 20.6377 65.3535C20.4964 65.5267 20.3848 65.7272 20.3027 65.9551C20.2253 66.1829 20.1729 66.429 20.1455 66.6934V67.9307C20.1865 68.2725 20.2731 68.5869 20.4053 68.874C20.542 69.1566 20.7334 69.3844 20.9795 69.5576C21.2256 69.7262 21.5423 69.8105 21.9297 69.8105C22.235 69.8105 22.4925 69.749 22.7021 69.626C22.9118 69.5029 23.0781 69.332 23.2012 69.1133C23.3288 68.89 23.4199 68.6302 23.4746 68.334C23.5339 68.0378 23.5635 67.7188 23.5635 67.377ZM26.6123 60.5H28.2598V69.4209L28.1025 71H26.6123V60.5ZM33.0859 67.2334V67.377C33.0859 67.9238 33.0244 68.4274 32.9014 68.8877C32.7829 69.3434 32.6006 69.7399 32.3545 70.0771C32.113 70.4144 31.8122 70.6764 31.4521 70.8633C31.0967 71.0456 30.6842 71.1367 30.2148 71.1367C29.7546 71.1367 29.3535 71.0501 29.0117 70.877C28.6699 70.7038 28.3828 70.4577 28.1504 70.1387C27.9225 69.8197 27.738 69.4391 27.5967 68.9971C27.4554 68.555 27.3551 68.0674 27.2959 67.5342V67.0762C27.3551 66.5384 27.4554 66.0508 27.5967 65.6133C27.738 65.1712 27.9225 64.7907 28.1504 64.4717C28.3828 64.1481 28.6676 63.8997 29.0049 63.7266C29.3467 63.5534 29.7454 63.4668 30.2012 63.4668C30.6751 63.4668 31.0921 63.5579 31.4521 63.7402C31.8167 63.9225 32.1198 64.1823 32.3613 64.5195C32.6029 64.8522 32.7829 65.2487 32.9014 65.709C33.0244 66.1693 33.0859 66.6774 33.0859 67.2334ZM31.4385 67.377V67.2334C31.4385 66.9007 31.4111 66.5885 31.3564 66.2969C31.3018 66.0007 31.2106 65.7409 31.083 65.5176C30.96 65.2943 30.7913 65.1188 30.5771 64.9912C30.3675 64.859 30.1055 64.793 29.791 64.793C29.4993 64.793 29.2487 64.8431 29.0391 64.9434C28.8294 65.0436 28.654 65.1803 28.5127 65.3535C28.3714 65.5267 28.2598 65.7272 28.1777 65.9551C28.1003 66.1829 28.0479 66.429 28.0205 66.6934V67.9307C28.0615 68.2725 28.1481 68.5869 28.2803 68.874C28.417 69.1566 28.6084 69.3844 28.8545 69.5576C29.1006 69.7262 29.4173 69.8105 29.8047 69.8105C30.11 69.8105 30.3675 69.749 30.5771 69.626C30.7868 69.5029 30.9531 69.332 31.0762 69.1133C31.2038 68.89 31.2949 68.6302 31.3496 68.334C31.4089 68.0378 31.4385 67.7188 31.4385 67.377ZM36.2441 63.6035V71H34.5898V63.6035H36.2441ZM34.4805 61.6621C34.4805 61.4115 34.5625 61.2041 34.7266 61.04C34.8952 60.8714 35.1276 60.7871 35.4238 60.7871C35.7155 60.7871 35.9456 60.8714 36.1143 61.04C36.2829 61.2041 36.3672 61.4115 36.3672 61.6621C36.3672 61.9082 36.2829 62.1133 36.1143 62.2773C35.9456 62.4414 35.7155 62.5234 35.4238 62.5234C35.1276 62.5234 34.8952 62.4414 34.7266 62.2773C34.5625 62.1133 34.4805 61.9082 34.4805 61.6621ZM41.3096 71.1367C40.7627 71.1367 40.2682 71.0479 39.8262 70.8701C39.3887 70.6878 39.015 70.4349 38.7051 70.1113C38.3997 69.7878 38.165 69.4072 38.001 68.9697C37.8369 68.5322 37.7549 68.0605 37.7549 67.5547V67.2812C37.7549 66.7025 37.8392 66.1784 38.0078 65.709C38.1764 65.2396 38.4111 64.8385 38.7119 64.5059C39.0127 64.1686 39.3682 63.9111 39.7783 63.7334C40.1885 63.5557 40.6328 63.4668 41.1113 63.4668C41.64 63.4668 42.1025 63.5557 42.499 63.7334C42.8955 63.9111 43.2236 64.1618 43.4834 64.4854C43.7477 64.8044 43.9437 65.1849 44.0713 65.627C44.2035 66.069 44.2695 66.5566 44.2695 67.0898V67.7939H38.5547V66.6113H42.6426V66.4814C42.6335 66.1852 42.5742 65.9072 42.4648 65.6475C42.36 65.3877 42.1982 65.1781 41.9795 65.0186C41.7607 64.859 41.4691 64.7793 41.1045 64.7793C40.8311 64.7793 40.5872 64.8385 40.373 64.957C40.1634 65.071 39.988 65.2373 39.8467 65.4561C39.7054 65.6748 39.596 65.9391 39.5186 66.249C39.4456 66.5544 39.4092 66.8984 39.4092 67.2812V67.5547C39.4092 67.8783 39.4525 68.179 39.5391 68.457C39.6302 68.7305 39.7624 68.9697 39.9355 69.1748C40.1087 69.3799 40.3184 69.5417 40.5645 69.6602C40.8105 69.7741 41.0908 69.8311 41.4053 69.8311C41.8018 69.8311 42.1549 69.7513 42.4648 69.5918C42.7747 69.4323 43.0436 69.2067 43.2715 68.915L44.1396 69.7559C43.9801 69.9883 43.7728 70.2116 43.5176 70.4258C43.2624 70.6354 42.9502 70.8063 42.5811 70.9385C42.2165 71.0706 41.7926 71.1367 41.3096 71.1367ZM49.7041 68.9971C49.7041 68.833 49.6631 68.6849 49.5811 68.5527C49.499 68.416 49.3418 68.293 49.1094 68.1836C48.8815 68.0742 48.5443 67.974 48.0977 67.8828C47.7057 67.7962 47.3457 67.6937 47.0176 67.5752C46.694 67.4521 46.416 67.304 46.1836 67.1309C45.9512 66.9577 45.7712 66.7526 45.6436 66.5156C45.516 66.2786 45.4521 66.0052 45.4521 65.6953C45.4521 65.3945 45.5182 65.1097 45.6504 64.8408C45.7826 64.5719 45.9717 64.335 46.2178 64.1299C46.4639 63.9248 46.7624 63.763 47.1133 63.6445C47.4688 63.526 47.8652 63.4668 48.3027 63.4668C48.9225 63.4668 49.4535 63.5716 49.8955 63.7812C50.3421 63.9863 50.6839 64.2666 50.9209 64.6221C51.1579 64.973 51.2764 65.3695 51.2764 65.8115H49.6289C49.6289 65.6156 49.5788 65.4333 49.4785 65.2646C49.3828 65.0915 49.237 64.9525 49.041 64.8477C48.8451 64.7383 48.599 64.6836 48.3027 64.6836C48.0202 64.6836 47.7855 64.7292 47.5986 64.8203C47.4163 64.9069 47.2796 65.0208 47.1885 65.1621C47.1019 65.3034 47.0586 65.4583 47.0586 65.627C47.0586 65.75 47.0814 65.8617 47.127 65.9619C47.1771 66.0576 47.2591 66.1465 47.373 66.2285C47.487 66.306 47.6419 66.3789 47.8379 66.4473C48.0384 66.5156 48.2891 66.5817 48.5898 66.6455C49.1549 66.764 49.6403 66.9167 50.0459 67.1035C50.4561 67.2858 50.7705 67.5228 50.9893 67.8145C51.208 68.1016 51.3174 68.4661 51.3174 68.9082C51.3174 69.2363 51.2467 69.5371 51.1055 69.8105C50.9688 70.0794 50.7682 70.3141 50.5039 70.5146C50.2396 70.7106 49.9229 70.8633 49.5537 70.9727C49.1891 71.082 48.779 71.1367 48.3232 71.1367C47.6533 71.1367 47.0859 71.0182 46.6211 70.7812C46.1562 70.5397 45.8031 70.2321 45.5615 69.8584C45.3245 69.4801 45.2061 69.0882 45.2061 68.6826H46.7988C46.8171 68.988 46.9014 69.2318 47.0518 69.4141C47.2067 69.5918 47.3981 69.7217 47.626 69.8037C47.8584 69.8812 48.0977 69.9199 48.3438 69.9199C48.64 69.9199 48.8883 69.8812 49.0889 69.8037C49.2894 69.7217 49.4421 69.6123 49.5469 69.4756C49.6517 69.3343 49.7041 69.1748 49.7041 68.9971ZM60.416 69.5166V65.9893C60.416 65.7249 60.3682 65.4971 60.2725 65.3057C60.1768 65.1143 60.0309 64.9661 59.835 64.8613C59.6436 64.7565 59.402 64.7041 59.1104 64.7041C58.8415 64.7041 58.609 64.7497 58.4131 64.8408C58.2171 64.932 58.0645 65.055 57.9551 65.21C57.8457 65.3649 57.791 65.5404 57.791 65.7363H56.1504C56.1504 65.4447 56.221 65.1621 56.3623 64.8887C56.5036 64.6152 56.7087 64.3714 56.9775 64.1572C57.2464 63.943 57.5677 63.7744 57.9414 63.6514C58.3151 63.5283 58.7344 63.4668 59.1992 63.4668C59.7552 63.4668 60.2474 63.5602 60.6758 63.7471C61.1087 63.9339 61.4482 64.2165 61.6943 64.5947C61.945 64.9684 62.0703 65.4378 62.0703 66.0029V69.291C62.0703 69.6283 62.0931 69.9313 62.1387 70.2002C62.1888 70.4645 62.2594 70.6947 62.3506 70.8906V71H60.6621C60.5846 70.8223 60.5231 70.5967 60.4775 70.3232C60.4365 70.0452 60.416 69.7764 60.416 69.5166ZM60.6553 66.502L60.6689 67.5205H59.4863C59.181 67.5205 58.9121 67.5501 58.6797 67.6094C58.4473 67.6641 58.2536 67.7461 58.0986 67.8555C57.9437 67.9648 57.8275 68.097 57.75 68.252C57.6725 68.4069 57.6338 68.5824 57.6338 68.7783C57.6338 68.9743 57.6794 69.1543 57.7705 69.3184C57.8617 69.4779 57.9938 69.6032 58.167 69.6943C58.3447 69.7855 58.5589 69.8311 58.8096 69.8311C59.1468 69.8311 59.4408 69.7627 59.6914 69.626C59.9466 69.4847 60.1471 69.3138 60.293 69.1133C60.4388 68.9082 60.5163 68.7145 60.5254 68.5322L61.0586 69.2637C61.0039 69.4505 60.9105 69.651 60.7783 69.8652C60.6462 70.0794 60.473 70.2845 60.2588 70.4805C60.0492 70.6719 59.7962 70.8291 59.5 70.9521C59.2083 71.0752 58.8711 71.1367 58.4883 71.1367C58.0052 71.1367 57.5745 71.041 57.1963 70.8496C56.818 70.6536 56.5218 70.3916 56.3076 70.0635C56.0934 69.7308 55.9863 69.3548 55.9863 68.9355C55.9863 68.5436 56.0592 68.1973 56.2051 67.8965C56.3555 67.5911 56.5742 67.3359 56.8613 67.1309C57.153 66.9258 57.5085 66.7708 57.9277 66.666C58.347 66.5566 58.8255 66.502 59.3633 66.502H60.6553ZM65.4268 65.1826V71H63.7793V63.6035H65.3311L65.4268 65.1826ZM65.1328 67.0283L64.5996 67.0215C64.6042 66.4974 64.6771 66.0166 64.8184 65.5791C64.9642 65.1416 65.1647 64.7656 65.4199 64.4512C65.6797 64.1367 65.9896 63.8952 66.3496 63.7266C66.7096 63.5534 67.1107 63.4668 67.5527 63.4668C67.9082 63.4668 68.2295 63.5169 68.5166 63.6172C68.8083 63.7129 69.0566 63.8701 69.2617 64.0889C69.4714 64.3076 69.6309 64.5924 69.7402 64.9434C69.8496 65.2897 69.9043 65.7158 69.9043 66.2217V71H68.25V66.2148C68.25 65.8594 68.1976 65.5791 68.0928 65.374C67.9925 65.1644 67.8444 65.0163 67.6484 64.9297C67.457 64.8385 67.2178 64.793 66.9307 64.793C66.6481 64.793 66.3952 64.8522 66.1719 64.9707C65.9486 65.0892 65.7594 65.251 65.6045 65.4561C65.4541 65.6611 65.3379 65.8981 65.2559 66.167C65.1738 66.4359 65.1328 66.723 65.1328 67.0283ZM76.0977 69.4688V60.5H77.752V71H76.2549L76.0977 69.4688ZM71.2852 67.3838V67.2402C71.2852 66.6797 71.3512 66.1693 71.4834 65.709C71.6156 65.2441 71.807 64.8454 72.0576 64.5127C72.3083 64.1755 72.6136 63.918 72.9736 63.7402C73.3337 63.5579 73.7393 63.4668 74.1904 63.4668C74.637 63.4668 75.029 63.5534 75.3662 63.7266C75.7035 63.8997 75.9906 64.1481 76.2275 64.4717C76.4645 64.7907 76.6536 65.1735 76.7949 65.6201C76.9362 66.0622 77.0365 66.5544 77.0957 67.0967V67.5547C77.0365 68.0833 76.9362 68.5664 76.7949 69.0039C76.6536 69.4414 76.4645 69.8197 76.2275 70.1387C75.9906 70.4577 75.7012 70.7038 75.3594 70.877C75.0221 71.0501 74.6279 71.1367 74.1768 71.1367C73.7301 71.1367 73.3268 71.0433 72.9668 70.8564C72.6113 70.6696 72.3083 70.4076 72.0576 70.0703C71.807 69.7331 71.6156 69.3366 71.4834 68.8809C71.3512 68.4206 71.2852 67.9215 71.2852 67.3838ZM72.9326 67.2402V67.3838C72.9326 67.721 72.9622 68.0355 73.0215 68.3271C73.0853 68.6188 73.1833 68.8763 73.3154 69.0996C73.4476 69.3184 73.6185 69.4915 73.8281 69.6191C74.0423 69.7422 74.2975 69.8037 74.5938 69.8037C74.9674 69.8037 75.2751 69.7217 75.5166 69.5576C75.7581 69.3936 75.9473 69.1725 76.084 68.8945C76.2253 68.612 76.321 68.2975 76.3711 67.9512V66.7139C76.3438 66.445 76.2868 66.1943 76.2002 65.9619C76.1182 65.7295 76.0065 65.5267 75.8652 65.3535C75.724 65.1758 75.5485 65.0391 75.3389 64.9434C75.1338 64.8431 74.89 64.793 74.6074 64.793C74.3066 64.793 74.0514 64.8568 73.8418 64.9844C73.6322 65.112 73.459 65.2874 73.3223 65.5107C73.1901 65.734 73.0921 65.9938 73.0283 66.29C72.9645 66.5863 72.9326 66.903 72.9326 67.2402ZM86.9053 67.2881H84.3145V65.9277H86.9053C87.3564 65.9277 87.721 65.8548 87.999 65.709C88.277 65.5632 88.4798 65.3626 88.6074 65.1074C88.7396 64.8477 88.8057 64.5514 88.8057 64.2188C88.8057 63.9043 88.7396 63.6104 88.6074 63.3369C88.4798 63.0589 88.277 62.8356 87.999 62.667C87.721 62.4984 87.3564 62.4141 86.9053 62.4141H84.8408V71H83.125V61.0469H86.9053C87.6755 61.0469 88.3294 61.1836 88.8672 61.457C89.4095 61.7259 89.8219 62.0996 90.1045 62.5781C90.387 63.0521 90.5283 63.5944 90.5283 64.2051C90.5283 64.8477 90.387 65.3991 90.1045 65.8594C89.8219 66.3197 89.4095 66.6729 88.8672 66.9189C88.3294 67.165 87.6755 67.2881 86.9053 67.2881ZM95.9902 69.5166V65.9893C95.9902 65.7249 95.9424 65.4971 95.8467 65.3057C95.751 65.1143 95.6051 64.9661 95.4092 64.8613C95.2178 64.7565 94.9762 64.7041 94.6846 64.7041C94.4157 64.7041 94.1833 64.7497 93.9873 64.8408C93.7913 64.932 93.6387 65.055 93.5293 65.21C93.4199 65.3649 93.3652 65.5404 93.3652 65.7363H91.7246C91.7246 65.4447 91.7952 65.1621 91.9365 64.8887C92.0778 64.6152 92.2829 64.3714 92.5518 64.1572C92.8206 63.943 93.1419 63.7744 93.5156 63.6514C93.8893 63.5283 94.3086 63.4668 94.7734 63.4668C95.3294 63.4668 95.8216 63.5602 96.25 63.7471C96.6829 63.9339 97.0225 64.2165 97.2686 64.5947C97.5192 64.9684 97.6445 65.4378 97.6445 66.0029V69.291C97.6445 69.6283 97.6673 69.9313 97.7129 70.2002C97.763 70.4645 97.8337 70.6947 97.9248 70.8906V71H96.2363C96.1589 70.8223 96.0973 70.5967 96.0518 70.3232C96.0107 70.0452 95.9902 69.7764 95.9902 69.5166ZM96.2295 66.502L96.2432 67.5205H95.0605C94.7552 67.5205 94.4863 67.5501 94.2539 67.6094C94.0215 67.6641 93.8278 67.7461 93.6729 67.8555C93.5179 67.9648 93.4017 68.097 93.3242 68.252C93.2467 68.4069 93.208 68.5824 93.208 68.7783C93.208 68.9743 93.2536 69.1543 93.3447 69.3184C93.4359 69.4779 93.568 69.6032 93.7412 69.6943C93.9189 69.7855 94.1331 69.8311 94.3838 69.8311C94.721 69.8311 95.015 69.7627 95.2656 69.626C95.5208 69.4847 95.7214 69.3138 95.8672 69.1133C96.013 68.9082 96.0905 68.7145 96.0996 68.5322L96.6328 69.2637C96.5781 69.4505 96.4847 69.651 96.3525 69.8652C96.2204 70.0794 96.0472 70.2845 95.833 70.4805C95.6234 70.6719 95.3704 70.8291 95.0742 70.9521C94.7826 71.0752 94.4453 71.1367 94.0625 71.1367C93.5794 71.1367 93.1488 71.041 92.7705 70.8496C92.3923 70.6536 92.096 70.3916 91.8818 70.0635C91.6676 69.7308 91.5605 69.3548 91.5605 68.9355C91.5605 68.5436 91.6335 68.1973 91.7793 67.8965C91.9297 67.5911 92.1484 67.3359 92.4355 67.1309C92.7272 66.9258 93.0827 66.7708 93.502 66.666C93.9212 66.5566 94.3997 66.502 94.9375 66.502H96.2295ZM103.517 68.9971C103.517 68.833 103.476 68.6849 103.394 68.5527C103.312 68.416 103.154 68.293 102.922 68.1836C102.694 68.0742 102.357 67.974 101.91 67.8828C101.518 67.7962 101.158 67.6937 100.83 67.5752C100.507 67.4521 100.229 67.304 99.9961 67.1309C99.7637 66.9577 99.5837 66.7526 99.4561 66.5156C99.3285 66.2786 99.2646 66.0052 99.2646 65.6953C99.2646 65.3945 99.3307 65.1097 99.4629 64.8408C99.5951 64.5719 99.7842 64.335 100.03 64.1299C100.276 63.9248 100.575 63.763 100.926 63.6445C101.281 63.526 101.678 63.4668 102.115 63.4668C102.735 63.4668 103.266 63.5716 103.708 63.7812C104.155 63.9863 104.496 64.2666 104.733 64.6221C104.97 64.973 105.089 65.3695 105.089 65.8115H103.441C103.441 65.6156 103.391 65.4333 103.291 65.2646C103.195 65.0915 103.049 64.9525 102.854 64.8477C102.658 64.7383 102.411 64.6836 102.115 64.6836C101.833 64.6836 101.598 64.7292 101.411 64.8203C101.229 64.9069 101.092 65.0208 101.001 65.1621C100.914 65.3034 100.871 65.4583 100.871 65.627C100.871 65.75 100.894 65.8617 100.939 65.9619C100.99 66.0576 101.072 66.1465 101.186 66.2285C101.299 66.306 101.454 66.3789 101.65 66.4473C101.851 66.5156 102.102 66.5817 102.402 66.6455C102.967 66.764 103.453 66.9167 103.858 67.1035C104.269 67.2858 104.583 67.5228 104.802 67.8145C105.021 68.1016 105.13 68.4661 105.13 68.9082C105.13 69.2363 105.059 69.5371 104.918 69.8105C104.781 70.0794 104.581 70.3141 104.316 70.5146C104.052 70.7106 103.735 70.8633 103.366 70.9727C103.002 71.082 102.591 71.1367 102.136 71.1367C101.466 71.1367 100.898 71.0182 100.434 70.7812C99.9688 70.5397 99.6156 70.2321 99.374 69.8584C99.137 69.4801 99.0186 69.0882 99.0186 68.6826H100.611C100.63 68.988 100.714 69.2318 100.864 69.4141C101.019 69.5918 101.211 69.7217 101.438 69.8037C101.671 69.8812 101.91 69.9199 102.156 69.9199C102.452 69.9199 102.701 69.8812 102.901 69.8037C103.102 69.7217 103.255 69.6123 103.359 69.4756C103.464 69.3343 103.517 69.1748 103.517 68.9971ZM110.722 68.9971C110.722 68.833 110.681 68.6849 110.599 68.5527C110.517 68.416 110.359 68.293 110.127 68.1836C109.899 68.0742 109.562 67.974 109.115 67.8828C108.723 67.7962 108.363 67.6937 108.035 67.5752C107.712 67.4521 107.434 67.304 107.201 67.1309C106.969 66.9577 106.789 66.7526 106.661 66.5156C106.534 66.2786 106.47 66.0052 106.47 65.6953C106.47 65.3945 106.536 65.1097 106.668 64.8408C106.8 64.5719 106.989 64.335 107.235 64.1299C107.481 63.9248 107.78 63.763 108.131 63.6445C108.486 63.526 108.883 63.4668 109.32 63.4668C109.94 63.4668 110.471 63.5716 110.913 63.7812C111.36 63.9863 111.701 64.2666 111.938 64.6221C112.175 64.973 112.294 65.3695 112.294 65.8115H110.646C110.646 65.6156 110.596 65.4333 110.496 65.2646C110.4 65.0915 110.255 64.9525 110.059 64.8477C109.863 64.7383 109.617 64.6836 109.32 64.6836C109.038 64.6836 108.803 64.7292 108.616 64.8203C108.434 64.9069 108.297 65.0208 108.206 65.1621C108.119 65.3034 108.076 65.4583 108.076 65.627C108.076 65.75 108.099 65.8617 108.145 65.9619C108.195 66.0576 108.277 66.1465 108.391 66.2285C108.505 66.306 108.66 66.3789 108.855 66.4473C109.056 66.5156 109.307 66.5817 109.607 66.6455C110.173 66.764 110.658 66.9167 111.063 67.1035C111.474 67.2858 111.788 67.5228 112.007 67.8145C112.226 68.1016 112.335 68.4661 112.335 68.9082C112.335 69.2363 112.264 69.5371 112.123 69.8105C111.986 70.0794 111.786 70.3141 111.521 70.5146C111.257 70.7106 110.94 70.8633 110.571 70.9727C110.207 71.082 109.797 71.1367 109.341 71.1367C108.671 71.1367 108.104 71.0182 107.639 70.7812C107.174 70.5397 106.821 70.2321 106.579 69.8584C106.342 69.4801 106.224 69.0882 106.224 68.6826H107.816C107.835 68.988 107.919 69.2318 108.069 69.4141C108.224 69.5918 108.416 69.7217 108.644 69.8037C108.876 69.8812 109.115 69.9199 109.361 69.9199C109.658 69.9199 109.906 69.8812 110.106 69.8037C110.307 69.7217 110.46 69.6123 110.564 69.4756C110.669 69.3343 110.722 69.1748 110.722 68.9971ZM115.541 63.6035V71H113.887V63.6035H115.541ZM113.777 61.6621C113.777 61.4115 113.859 61.2041 114.023 61.04C114.192 60.8714 114.424 60.7871 114.721 60.7871C115.012 60.7871 115.243 60.8714 115.411 61.04C115.58 61.2041 115.664 61.4115 115.664 61.6621C115.664 61.9082 115.58 62.1133 115.411 62.2773C115.243 62.4414 115.012 62.5234 114.721 62.5234C114.424 62.5234 114.192 62.4414 114.023 62.2773C113.859 62.1133 113.777 61.9082 113.777 61.6621ZM117.031 67.3838V67.2266C117.031 66.6934 117.109 66.1989 117.264 65.7432C117.419 65.2829 117.642 64.8841 117.934 64.5469C118.23 64.2051 118.59 63.9408 119.014 63.7539C119.442 63.5625 119.925 63.4668 120.463 63.4668C121.005 63.4668 121.488 63.5625 121.912 63.7539C122.34 63.9408 122.703 64.2051 122.999 64.5469C123.295 64.8841 123.521 65.2829 123.676 65.7432C123.831 66.1989 123.908 66.6934 123.908 67.2266V67.3838C123.908 67.917 123.831 68.4115 123.676 68.8672C123.521 69.3229 123.295 69.7217 122.999 70.0635C122.703 70.4007 122.343 70.665 121.919 70.8564C121.495 71.0433 121.014 71.1367 120.477 71.1367C119.934 71.1367 119.449 71.0433 119.021 70.8564C118.597 70.665 118.237 70.4007 117.94 70.0635C117.644 69.7217 117.419 69.3229 117.264 68.8672C117.109 68.4115 117.031 67.917 117.031 67.3838ZM118.679 67.2266V67.3838C118.679 67.7165 118.713 68.0309 118.781 68.3271C118.85 68.6234 118.957 68.8831 119.103 69.1064C119.248 69.3298 119.435 69.5052 119.663 69.6328C119.891 69.7604 120.162 69.8242 120.477 69.8242C120.782 69.8242 121.046 69.7604 121.27 69.6328C121.497 69.5052 121.684 69.3298 121.83 69.1064C121.976 68.8831 122.083 68.6234 122.151 68.3271C122.224 68.0309 122.261 67.7165 122.261 67.3838V67.2266C122.261 66.8984 122.224 66.5885 122.151 66.2969C122.083 66.0007 121.974 65.7386 121.823 65.5107C121.677 65.2829 121.491 65.1051 121.263 64.9775C121.039 64.8454 120.773 64.7793 120.463 64.7793C120.153 64.7793 119.884 64.8454 119.656 64.9775C119.433 65.1051 119.248 65.2829 119.103 65.5107C118.957 65.7386 118.85 66.0007 118.781 66.2969C118.713 66.5885 118.679 66.8984 118.679 67.2266ZM126.923 65.1826V71H125.275V63.6035H126.827L126.923 65.1826ZM126.629 67.0283L126.096 67.0215C126.1 66.4974 126.173 66.0166 126.314 65.5791C126.46 65.1416 126.661 64.7656 126.916 64.4512C127.176 64.1367 127.486 63.8952 127.846 63.7266C128.206 63.5534 128.607 63.4668 129.049 63.4668C129.404 63.4668 129.726 63.5169 130.013 63.6172C130.304 63.7129 130.553 63.8701 130.758 64.0889C130.967 64.3076 131.127 64.5924 131.236 64.9434C131.346 65.2897 131.4 65.7158 131.4 66.2217V71H129.746V66.2148C129.746 65.8594 129.694 65.5791 129.589 65.374C129.489 65.1644 129.34 65.0163 129.145 64.9297C128.953 64.8385 128.714 64.793 128.427 64.793C128.144 64.793 127.891 64.8522 127.668 64.9707C127.445 65.0892 127.256 65.251 127.101 65.4561C126.95 65.6611 126.834 65.8981 126.752 66.167C126.67 66.4359 126.629 66.723 126.629 67.0283ZM137.231 68.9971C137.231 68.833 137.19 68.6849 137.108 68.5527C137.026 68.416 136.869 68.293 136.637 68.1836C136.409 68.0742 136.072 67.974 135.625 67.8828C135.233 67.7962 134.873 67.6937 134.545 67.5752C134.221 67.4521 133.943 67.304 133.711 67.1309C133.479 66.9577 133.299 66.7526 133.171 66.5156C133.043 66.2786 132.979 66.0052 132.979 65.6953C132.979 65.3945 133.046 65.1097 133.178 64.8408C133.31 64.5719 133.499 64.335 133.745 64.1299C133.991 63.9248 134.29 63.763 134.641 63.6445C134.996 63.526 135.393 63.4668 135.83 63.4668C136.45 63.4668 136.981 63.5716 137.423 63.7812C137.869 63.9863 138.211 64.2666 138.448 64.6221C138.685 64.973 138.804 65.3695 138.804 65.8115H137.156C137.156 65.6156 137.106 65.4333 137.006 65.2646C136.91 65.0915 136.764 64.9525 136.568 64.8477C136.372 64.7383 136.126 64.6836 135.83 64.6836C135.548 64.6836 135.313 64.7292 135.126 64.8203C134.944 64.9069 134.807 65.0208 134.716 65.1621C134.629 65.3034 134.586 65.4583 134.586 65.627C134.586 65.75 134.609 65.8617 134.654 65.9619C134.704 66.0576 134.786 66.1465 134.9 66.2285C135.014 66.306 135.169 66.3789 135.365 66.4473C135.566 66.5156 135.816 66.5817 136.117 66.6455C136.682 66.764 137.168 66.9167 137.573 67.1035C137.983 67.2858 138.298 67.5228 138.517 67.8145C138.735 68.1016 138.845 68.4661 138.845 68.9082C138.845 69.2363 138.774 69.5371 138.633 69.8105C138.496 70.0794 138.296 70.3141 138.031 70.5146C137.767 70.7106 137.45 70.8633 137.081 70.9727C136.716 71.082 136.306 71.1367 135.851 71.1367C135.181 71.1367 134.613 71.0182 134.148 70.7812C133.684 70.5397 133.33 70.2321 133.089 69.8584C132.852 69.4801 132.733 69.0882 132.733 68.6826H134.326C134.344 68.988 134.429 69.2318 134.579 69.4141C134.734 69.5918 134.925 69.7217 135.153 69.8037C135.386 69.8812 135.625 69.9199 135.871 69.9199C136.167 69.9199 136.416 69.8812 136.616 69.8037C136.817 69.7217 136.969 69.6123 137.074 69.4756C137.179 69.3343 137.231 69.1748 137.231 68.9971ZM143.808 67.0693V66.9531C143.808 65.9779 143.912 65.0938 144.122 64.3008C144.336 63.5033 144.614 62.806 144.956 62.209C145.298 61.6074 145.662 61.1107 146.05 60.7188C146.442 60.3223 146.818 60.0374 147.178 59.8643L147.506 60.8076C147.242 61.0036 146.977 61.2747 146.713 61.6211C146.453 61.9674 146.214 62.3936 145.995 62.8994C145.781 63.4007 145.608 63.9886 145.476 64.6631C145.348 65.333 145.284 66.0918 145.284 66.9395V67.083C145.284 67.9307 145.348 68.6917 145.476 69.3662C145.608 70.0361 145.781 70.624 145.995 71.1299C146.214 71.6357 146.453 72.0641 146.713 72.415C146.977 72.7705 147.242 73.0531 147.506 73.2627L147.178 74.165C146.818 73.9873 146.442 73.7002 146.05 73.3037C145.662 72.9118 145.298 72.415 144.956 71.8135C144.614 71.2165 144.336 70.5215 144.122 69.7285C143.912 68.931 143.808 68.0446 143.808 67.0693ZM153.029 61.0127V71H151.382V62.9678L148.941 63.7949V62.4346L152.831 61.0127H153.029ZM162.976 65.1895V66.8164C162.976 67.5957 162.898 68.2611 162.743 68.8125C162.593 69.3594 162.374 69.8037 162.087 70.1455C161.8 70.4873 161.456 70.738 161.055 70.8975C160.658 71.057 160.214 71.1367 159.722 71.1367C159.33 71.1367 158.965 71.0866 158.628 70.9863C158.295 70.8861 157.994 70.7288 157.726 70.5146C157.457 70.3005 157.227 70.0247 157.035 69.6875C156.848 69.3457 156.702 68.9378 156.598 68.4639C156.497 67.9899 156.447 67.4408 156.447 66.8164V65.1895C156.447 64.4056 156.525 63.7448 156.68 63.207C156.835 62.6647 157.056 62.2249 157.343 61.8877C157.63 61.5459 157.972 61.2975 158.368 61.1426C158.769 60.9876 159.216 60.9102 159.708 60.9102C160.104 60.9102 160.469 60.9603 160.802 61.0605C161.139 61.1562 161.44 61.3089 161.704 61.5186C161.973 61.7282 162.201 62.0016 162.388 62.3389C162.579 62.6715 162.725 63.0749 162.825 63.5488C162.925 64.0182 162.976 64.5651 162.976 65.1895ZM161.328 67.0488V64.9434C161.328 64.5469 161.305 64.1982 161.26 63.8975C161.214 63.5921 161.146 63.3346 161.055 63.125C160.968 62.9108 160.859 62.7376 160.727 62.6055C160.594 62.4688 160.444 62.3708 160.275 62.3115C160.107 62.2477 159.918 62.2158 159.708 62.2158C159.453 62.2158 159.225 62.266 159.024 62.3662C158.824 62.4619 158.655 62.6169 158.519 62.8311C158.382 63.0452 158.277 63.3278 158.204 63.6787C158.136 64.0251 158.102 64.4466 158.102 64.9434V67.0488C158.102 67.4499 158.124 67.8031 158.17 68.1084C158.215 68.4137 158.284 68.6758 158.375 68.8945C158.466 69.1087 158.576 69.2865 158.703 69.4277C158.835 69.5645 158.986 69.6647 159.154 69.7285C159.327 69.7923 159.517 69.8242 159.722 69.8242C159.981 69.8242 160.212 69.7741 160.412 69.6738C160.613 69.5736 160.781 69.4141 160.918 69.1953C161.055 68.972 161.157 68.6826 161.226 68.3271C161.294 67.9717 161.328 67.5456 161.328 67.0488ZM169.688 60.5V71H168.034V60.5H169.688ZM174.282 63.6035L171.062 67.1719L169.299 68.9766L168.868 67.582L170.201 65.9346L172.293 63.6035H174.282ZM172.648 71L170.249 67.5273L171.288 66.3721L174.556 71H172.648ZM176.976 65.1074V71H175.328V63.6035H176.88L176.976 65.1074ZM176.709 67.0283L176.148 67.0215C176.148 66.5111 176.212 66.0394 176.34 65.6064C176.467 65.1735 176.654 64.7975 176.9 64.4785C177.146 64.1549 177.452 63.9066 177.816 63.7334C178.186 63.5557 178.612 63.4668 179.095 63.4668C179.432 63.4668 179.74 63.5169 180.018 63.6172C180.3 63.7129 180.544 63.8656 180.749 64.0752C180.959 64.2848 181.118 64.5537 181.228 64.8818C181.341 65.21 181.398 65.6064 181.398 66.0713V71H179.751V66.2148C179.751 65.8548 179.696 65.5723 179.587 65.3672C179.482 65.1621 179.329 65.0163 179.129 64.9297C178.933 64.8385 178.698 64.793 178.425 64.793C178.115 64.793 177.851 64.8522 177.632 64.9707C177.418 65.0892 177.242 65.251 177.105 65.4561C176.969 65.6611 176.868 65.8981 176.805 66.167C176.741 66.4359 176.709 66.723 176.709 67.0283ZM181.296 66.5908L180.523 66.7617C180.523 66.3151 180.585 65.8936 180.708 65.4971C180.836 65.096 181.02 64.7451 181.262 64.4443C181.508 64.139 181.811 63.8997 182.171 63.7266C182.531 63.5534 182.943 63.4668 183.408 63.4668C183.786 63.4668 184.124 63.5192 184.42 63.624C184.721 63.7243 184.976 63.8838 185.186 64.1025C185.395 64.3213 185.555 64.6061 185.664 64.957C185.773 65.3034 185.828 65.7227 185.828 66.2148V71H184.174V66.208C184.174 65.8343 184.119 65.5449 184.01 65.3398C183.905 65.1348 183.755 64.9935 183.559 64.916C183.363 64.834 183.128 64.793 182.854 64.793C182.599 64.793 182.374 64.8408 182.178 64.9365C181.986 65.0277 181.825 65.1576 181.692 65.3262C181.56 65.4902 181.46 65.6794 181.392 65.8936C181.328 66.1077 181.296 66.3402 181.296 66.5908ZM190.702 66.9531V67.0693C190.702 68.0309 190.593 68.9082 190.374 69.7012C190.16 70.4941 189.88 71.1914 189.533 71.793C189.191 72.3945 188.82 72.8958 188.419 73.2969C188.022 73.6979 187.642 73.9873 187.277 74.165L186.942 73.2627C187.207 73.0622 187.469 72.7865 187.729 72.4355C187.993 72.0892 188.232 71.6585 188.446 71.1436C188.665 70.6331 188.838 70.0407 188.966 69.3662C189.098 68.6917 189.164 67.9307 189.164 67.083V66.9395C189.164 66.0918 189.096 65.3307 188.959 64.6562C188.827 63.9772 188.649 63.3848 188.426 62.8789C188.202 62.3685 187.961 61.9378 187.701 61.5869C187.441 61.236 187.188 60.9626 186.942 60.7666L187.277 59.8643C187.642 60.0374 188.022 60.3245 188.419 60.7256C188.82 61.1266 189.191 61.6302 189.533 62.2363C189.88 62.8379 190.16 63.5352 190.374 64.3281C190.593 65.1211 190.702 65.9961 190.702 66.9531Z" fill="#707070"/>
<path fill-rule="evenodd" clip-rule="evenodd" d="M15.8333 88.583H4.16667C3.93655 88.583 3.75 88.7696 3.75 88.9997V99.833C3.75 100.063 3.93655 100.25 4.16667 100.25H15.8333C16.0634 100.25 16.25 100.063 16.25 99.833V88.9997C16.25 88.7696 16.0634 88.583 15.8333 88.583ZM4.16667 87.333C3.24619 87.333 2.5 88.0792 2.5 88.9997V99.833C2.5 100.754 3.24619 101.5 4.16667 101.5H15.8333C16.7538 101.5 17.5 100.754 17.5 99.833V88.9997C17.5 88.0792 16.7538 87.333 15.8333 87.333H4.16667Z" fill="#707070"/>
<path d="M5 86.5003C5 86.0401 5.3731 85.667 5.83333 85.667C6.29357 85.667 6.66667 86.0401 6.66667 86.5003V87.3337C6.66667 87.7939 6.29357 88.167 5.83333 88.167C5.3731 88.167 5 87.7939 5 87.3337V86.5003Z" fill="#707070"/>
<path d="M13.333 86.5003C13.333 86.0401 13.7061 85.667 14.1663 85.667C14.6266 85.667 14.9997 86.0401 14.9997 86.5003V87.3337C14.9997 87.7939 14.6266 88.167 14.1663 88.167C13.7061 88.167 13.333 87.7939 13.333 87.3337V86.5003Z" fill="#707070"/>
<path fill-rule="evenodd" clip-rule="evenodd" d="M15 91.292C15 91.6372 14.7202 91.917 14.375 91.917H5.625C5.27983 91.917 5 91.6372 5 91.292C5 90.9468 5.27983 90.667 5.625 90.667H14.375C14.7202 90.667 15 90.9468 15 91.292Z" fill="#707070"/>
<path d="M29.7734 95.9922L31.749 89.0469H32.7061L32.1523 91.7471L30.0264 99H29.0762L29.7734 95.9922ZM27.7295 89.0469L29.3018 95.8555L29.7734 99H28.8301L26.417 89.0469H27.7295ZM35.2627 95.8486L36.8008 89.0469H38.1201L35.7139 99H34.7705L35.2627 95.8486ZM32.8496 89.0469L34.7705 95.9922L35.4678 99H34.5176L32.4668 91.7471L31.9062 89.0469H32.8496ZM45.5562 97.9268V99H40.2857V97.9268H45.5562ZM40.5523 89.0469V99H39.233V89.0469H40.5523ZM44.859 93.3262V94.3994H40.2857V93.3262H44.859ZM45.4879 89.0469V90.127H40.2857V89.0469H45.4879ZM49.5334 99H47.4553L47.4689 97.9268H49.5334C50.2443 97.9268 50.8368 97.7786 51.3107 97.4824C51.7847 97.1816 52.1402 96.7624 52.3771 96.2246C52.6187 95.6823 52.7395 95.0488 52.7395 94.3242V93.7158C52.7395 93.1462 52.6711 92.6403 52.5344 92.1982C52.3977 91.7516 52.1971 91.3757 51.9328 91.0703C51.6685 90.7604 51.3449 90.5257 50.9621 90.3662C50.5839 90.2067 50.1486 90.127 49.6564 90.127H47.4143V89.0469H49.6564C50.3081 89.0469 50.9029 89.1562 51.4406 89.375C51.9784 89.5892 52.4409 89.9014 52.8283 90.3115C53.2202 90.7171 53.521 91.2093 53.7307 91.7881C53.9403 92.3623 54.0451 93.0094 54.0451 93.7295V94.3242C54.0451 95.0443 53.9403 95.6937 53.7307 96.2725C53.521 96.8467 53.218 97.3366 52.8215 97.7422C52.4296 98.1478 51.9556 98.46 51.3996 98.6787C50.8482 98.8929 50.2261 99 49.5334 99ZM48.1594 89.0469V99H46.84V89.0469H48.1594ZM55.9373 97.4961V98.5146C55.9373 98.9294 55.8325 99.3669 55.6229 99.8271C55.4132 100.292 55.1193 100.679 54.741 100.989L54.0232 100.49C54.1691 100.29 54.2921 100.085 54.3924 99.875C54.4926 99.6699 54.5678 99.4557 54.618 99.2324C54.6727 99.0137 54.7 98.7812 54.7 98.5352V97.4961H55.9373ZM60.9316 89.0469H62.21L65.4707 97.1611L68.7246 89.0469H70.0098L65.9629 99H64.9648L60.9316 89.0469ZM60.5146 89.0469H61.6426L61.8271 95.1172V99H60.5146V89.0469ZM69.292 89.0469H70.4199V99H69.1074V95.1172L69.292 89.0469ZM76.1949 89.9287L72.9 99H71.5533L75.3473 89.0469H76.2154L76.1949 89.9287ZM78.9566 99L75.6549 89.9287L75.6344 89.0469H76.5025L80.3102 99H78.9566ZM78.7857 95.3154V96.3955H73.1939V95.3154H78.7857ZM81.2932 89.0469H84.5881C85.3355 89.0469 85.9667 89.1608 86.4816 89.3887C87.0012 89.6165 87.3954 89.9538 87.6643 90.4004C87.9377 90.8424 88.0744 91.387 88.0744 92.0342C88.0744 92.4899 87.981 92.9069 87.7941 93.2852C87.6118 93.6589 87.3475 93.9779 87.0012 94.2422C86.6594 94.502 86.2492 94.6956 85.7707 94.8232L85.4016 94.9668H82.3049L82.2912 93.8936H84.6291C85.1031 93.8936 85.4973 93.8115 85.8117 93.6475C86.1262 93.4788 86.3632 93.2533 86.5227 92.9707C86.6822 92.6882 86.7619 92.376 86.7619 92.0342C86.7619 91.6514 86.6867 91.3164 86.5363 91.0293C86.3859 90.7422 86.149 90.5212 85.8254 90.3662C85.5064 90.2067 85.0939 90.127 84.5881 90.127H82.6125V99H81.2932V89.0469ZM87.1105 99L84.6906 94.4883L86.0646 94.4814L88.5187 98.918V99H87.1105ZM96.5209 88.9922V99H95.2562V90.5713L92.7064 91.501V90.3594L96.3227 88.9922H96.5209ZM101.735 93.4014H102.638C103.08 93.4014 103.444 93.3285 103.731 93.1826C104.023 93.0322 104.24 92.8294 104.381 92.5742C104.527 92.3145 104.6 92.0228 104.6 91.6992C104.6 91.3164 104.536 90.9951 104.408 90.7354C104.281 90.4756 104.089 90.2796 103.834 90.1475C103.579 90.0153 103.255 89.9492 102.863 89.9492C102.508 89.9492 102.193 90.0199 101.92 90.1611C101.651 90.2979 101.439 90.4938 101.284 90.749C101.134 91.0042 101.059 91.305 101.059 91.6514H99.7939C99.7939 91.1455 99.9215 90.6852 100.177 90.2705C100.432 89.8558 100.79 89.5254 101.25 89.2793C101.715 89.0332 102.253 88.9102 102.863 88.9102C103.465 88.9102 103.991 89.0173 104.442 89.2314C104.894 89.4411 105.244 89.7555 105.495 90.1748C105.746 90.5895 105.871 91.1068 105.871 91.7266C105.871 91.9772 105.812 92.2461 105.693 92.5332C105.579 92.8158 105.399 93.0801 105.153 93.3262C104.912 93.5723 104.597 93.7751 104.21 93.9346C103.823 94.0895 103.358 94.167 102.815 94.167H101.735V93.4014ZM101.735 94.4404V93.6816H102.815C103.449 93.6816 103.973 93.7568 104.388 93.9072C104.802 94.0576 105.128 94.2581 105.365 94.5088C105.607 94.7594 105.775 95.0352 105.871 95.3359C105.971 95.6322 106.021 95.9284 106.021 96.2246C106.021 96.6895 105.942 97.1019 105.782 97.4619C105.627 97.8219 105.406 98.1273 105.119 98.3779C104.837 98.6286 104.504 98.8177 104.121 98.9453C103.738 99.0729 103.321 99.1367 102.87 99.1367C102.437 99.1367 102.029 99.0752 101.646 98.9521C101.268 98.8291 100.933 98.6514 100.642 98.4189C100.35 98.182 100.122 97.8926 99.958 97.5508C99.7939 97.2044 99.7119 96.8102 99.7119 96.3682H100.977C100.977 96.7145 101.052 97.0176 101.202 97.2773C101.357 97.5371 101.576 97.7399 101.858 97.8857C102.146 98.027 102.483 98.0977 102.87 98.0977C103.257 98.0977 103.59 98.0316 103.868 97.8994C104.151 97.7627 104.367 97.5576 104.518 97.2842C104.673 97.0107 104.75 96.6667 104.75 96.252C104.75 95.8372 104.663 95.4977 104.49 95.2334C104.317 94.9645 104.071 94.7663 103.752 94.6387C103.438 94.5065 103.066 94.4404 102.638 94.4404H101.735ZM110.722 94.0166C110.722 93.8024 110.788 93.6224 110.92 93.4766C111.052 93.3262 111.246 93.251 111.501 93.251C111.756 93.251 111.95 93.3262 112.082 93.4766C112.219 93.6224 112.287 93.8024 112.287 94.0166C112.287 94.2262 112.219 94.404 112.082 94.5498C111.95 94.6911 111.756 94.7617 111.501 94.7617C111.246 94.7617 111.052 94.6911 110.92 94.5498C110.788 94.404 110.722 94.2262 110.722 94.0166ZM121.828 89.0332H121.937V90.1064H121.828C121.158 90.1064 120.597 90.2158 120.146 90.4346C119.695 90.6488 119.337 90.9382 119.073 91.3027C118.808 91.6628 118.617 92.0684 118.498 92.5195C118.385 92.9707 118.328 93.4287 118.328 93.8936V95.3564C118.328 95.7985 118.38 96.1904 118.485 96.5322C118.59 96.8695 118.733 97.1543 118.915 97.3867C119.098 97.6191 119.303 97.7946 119.531 97.9131C119.763 98.0316 120.005 98.0908 120.255 98.0908C120.547 98.0908 120.807 98.0361 121.035 97.9268C121.262 97.8128 121.454 97.6556 121.609 97.4551C121.768 97.25 121.889 97.0085 121.971 96.7305C122.053 96.4525 122.094 96.1471 122.094 95.8145C122.094 95.5182 122.058 95.2334 121.985 94.96C121.912 94.682 121.8 94.4359 121.65 94.2217C121.499 94.0029 121.31 93.832 121.082 93.709C120.859 93.5814 120.593 93.5176 120.283 93.5176C119.932 93.5176 119.604 93.6042 119.298 93.7773C118.997 93.946 118.749 94.1693 118.553 94.4473C118.362 94.7207 118.252 95.0192 118.225 95.3428L117.555 95.3359C117.619 94.8255 117.737 94.3903 117.911 94.0303C118.088 93.6657 118.307 93.3695 118.567 93.1416C118.831 92.9092 119.125 92.7406 119.449 92.6357C119.777 92.5264 120.123 92.4717 120.488 92.4717C120.984 92.4717 121.413 92.5651 121.773 92.752C122.133 92.9388 122.429 93.1895 122.662 93.5039C122.894 93.8138 123.065 94.1647 123.174 94.5566C123.288 94.944 123.345 95.3428 123.345 95.7529C123.345 96.2223 123.279 96.6621 123.147 97.0723C123.015 97.4824 122.816 97.8424 122.552 98.1523C122.292 98.4622 121.971 98.7038 121.588 98.877C121.205 99.0501 120.761 99.1367 120.255 99.1367C119.718 99.1367 119.248 99.0273 118.847 98.8086C118.446 98.5853 118.113 98.2891 117.849 97.9199C117.585 97.5508 117.386 97.1406 117.254 96.6895C117.122 96.2383 117.056 95.7803 117.056 95.3154V94.7207C117.056 94.0189 117.127 93.3307 117.268 92.6562C117.409 91.9818 117.653 91.3711 117.999 90.8242C118.35 90.2773 118.836 89.8421 119.455 89.5186C120.075 89.195 120.866 89.0332 121.828 89.0332ZM124.581 98.3301C124.581 98.1159 124.647 97.9359 124.779 97.79C124.916 97.6396 125.112 97.5645 125.367 97.5645C125.622 97.5645 125.816 97.6396 125.948 97.79C126.085 97.9359 126.153 98.1159 126.153 98.3301C126.153 98.5397 126.085 98.7174 125.948 98.8633C125.816 99.0091 125.622 99.082 125.367 99.082C125.112 99.082 124.916 99.0091 124.779 98.8633C124.647 98.7174 124.581 98.5397 124.581 98.3301ZM124.588 92.2939C124.588 92.0798 124.654 91.8997 124.786 91.7539C124.923 91.6035 125.119 91.5283 125.374 91.5283C125.629 91.5283 125.823 91.6035 125.955 91.7539C126.092 91.8997 126.16 92.0798 126.16 92.2939C126.16 92.5036 126.092 92.6813 125.955 92.8271C125.823 92.973 125.629 93.0459 125.374 93.0459C125.119 93.0459 124.923 92.973 124.786 92.8271C124.654 92.6813 124.588 92.5036 124.588 92.2939ZM133.788 93.2305V94.748C133.788 95.5638 133.715 96.252 133.569 96.8125C133.423 97.373 133.213 97.8242 132.94 98.166C132.667 98.5078 132.336 98.7562 131.949 98.9111C131.566 99.0615 131.133 99.1367 130.65 99.1367C130.267 99.1367 129.914 99.0889 129.59 98.9932C129.267 98.8975 128.975 98.7448 128.715 98.5352C128.46 98.321 128.241 98.043 128.059 97.7012C127.877 97.3594 127.738 96.9447 127.642 96.457C127.546 95.9694 127.499 95.3997 127.499 94.748V93.2305C127.499 92.4147 127.572 91.7311 127.717 91.1797C127.868 90.6283 128.08 90.1862 128.353 89.8535C128.627 89.5163 128.955 89.2747 129.338 89.1289C129.725 88.9831 130.158 88.9102 130.636 88.9102C131.024 88.9102 131.379 88.958 131.703 89.0537C132.031 89.1449 132.323 89.293 132.578 89.498C132.833 89.6986 133.049 89.9674 133.227 90.3047C133.409 90.6374 133.548 91.0452 133.644 91.5283C133.74 92.0114 133.788 92.5788 133.788 93.2305ZM132.516 94.9531V93.0186C132.516 92.5719 132.489 92.18 132.434 91.8428C132.384 91.501 132.309 91.2093 132.209 90.9678C132.108 90.7262 131.981 90.5303 131.826 90.3799C131.675 90.2295 131.5 90.1201 131.299 90.0518C131.103 89.9788 130.882 89.9424 130.636 89.9424C130.336 89.9424 130.069 89.9993 129.837 90.1133C129.604 90.2227 129.408 90.3981 129.249 90.6396C129.094 90.8812 128.975 91.1979 128.893 91.5898C128.811 91.9818 128.77 92.458 128.77 93.0186V94.9531C128.77 95.3997 128.795 95.7939 128.845 96.1357C128.9 96.4775 128.98 96.7738 129.085 97.0244C129.189 97.2705 129.317 97.4733 129.467 97.6328C129.618 97.7923 129.791 97.9108 129.987 97.9883C130.187 98.0612 130.408 98.0977 130.65 98.0977C130.96 98.0977 131.231 98.0384 131.463 97.9199C131.696 97.8014 131.89 97.6169 132.045 97.3662C132.204 97.111 132.323 96.7852 132.4 96.3887C132.477 95.9876 132.516 95.5091 132.516 94.9531ZM141.313 93.2305V94.748C141.313 95.5638 141.24 96.252 141.094 96.8125C140.948 97.373 140.738 97.8242 140.465 98.166C140.192 98.5078 139.861 98.7562 139.474 98.9111C139.091 99.0615 138.658 99.1367 138.175 99.1367C137.792 99.1367 137.439 99.0889 137.115 98.9932C136.792 98.8975 136.5 98.7448 136.24 98.5352C135.985 98.321 135.766 98.043 135.584 97.7012C135.402 97.3594 135.263 96.9447 135.167 96.457C135.071 95.9694 135.024 95.3997 135.024 94.748V93.2305C135.024 92.4147 135.097 91.7311 135.242 91.1797C135.393 90.6283 135.605 90.1862 135.878 89.8535C136.152 89.5163 136.48 89.2747 136.863 89.1289C137.25 88.9831 137.683 88.9102 138.161 88.9102C138.549 88.9102 138.904 88.958 139.228 89.0537C139.556 89.1449 139.848 89.293 140.103 89.498C140.358 89.6986 140.574 89.9674 140.752 90.3047C140.934 90.6374 141.073 91.0452 141.169 91.5283C141.265 92.0114 141.313 92.5788 141.313 93.2305ZM140.041 94.9531V93.0186C140.041 92.5719 140.014 92.18 139.959 91.8428C139.909 91.501 139.834 91.2093 139.734 90.9678C139.633 90.7262 139.506 90.5303 139.351 90.3799C139.2 90.2295 139.025 90.1201 138.824 90.0518C138.628 89.9788 138.407 89.9424 138.161 89.9424C137.861 89.9424 137.594 89.9993 137.362 90.1133C137.129 90.2227 136.933 90.3981 136.774 90.6396C136.619 90.8812 136.5 91.1979 136.418 91.5898C136.336 91.9818 136.295 92.458 136.295 93.0186V94.9531C136.295 95.3997 136.32 95.7939 136.37 96.1357C136.425 96.4775 136.505 96.7738 136.61 97.0244C136.714 97.2705 136.842 97.4733 136.992 97.6328C137.143 97.7923 137.316 97.9108 137.512 97.9883C137.712 98.0612 137.933 98.0977 138.175 98.0977C138.485 98.0977 138.756 98.0384 138.988 97.9199C139.221 97.8014 139.415 97.6169 139.57 97.3662C139.729 97.111 139.848 96.7852 139.925 96.3887C140.002 95.9876 140.041 95.5091 140.041 94.9531ZM149.711 95.0967H147.052V94.0234H149.711C150.226 94.0234 150.643 93.9414 150.962 93.7773C151.281 93.6133 151.514 93.3854 151.66 93.0938C151.81 92.8021 151.885 92.4694 151.885 92.0957C151.885 91.7539 151.81 91.4326 151.66 91.1318C151.514 90.8311 151.281 90.5895 150.962 90.4072C150.643 90.2204 150.226 90.127 149.711 90.127H147.36V99H146.04V89.0469H149.711C150.463 89.0469 151.099 89.1768 151.619 89.4365C152.138 89.6963 152.532 90.0563 152.801 90.5166C153.07 90.9723 153.204 91.4941 153.204 92.082C153.204 92.7201 153.07 93.2646 152.801 93.7158C152.532 94.167 152.138 94.5111 151.619 94.748C151.099 94.9805 150.463 95.0967 149.711 95.0967ZM154.939 89.0469H156.218L159.479 97.1611L162.732 89.0469H164.018L159.971 99H158.973L154.939 89.0469ZM154.522 89.0469H155.65L155.835 95.1172V99H154.522V89.0469ZM163.3 89.0469H164.428V99H163.115V95.1172L163.3 89.0469ZM173.189 95.0967H170.529V94.0234H173.189C173.704 94.0234 174.121 93.9414 174.44 93.7773C174.759 93.6133 174.991 93.3854 175.137 93.0938C175.287 92.8021 175.363 92.4694 175.363 92.0957C175.363 91.7539 175.287 91.4326 175.137 91.1318C174.991 90.8311 174.759 90.5895 174.44 90.4072C174.121 90.2204 173.704 90.127 173.189 90.127H170.837V99H169.518V89.0469H173.189C173.941 89.0469 174.576 89.1768 175.096 89.4365C175.615 89.6963 176.01 90.0563 176.279 90.5166C176.547 90.9723 176.682 91.4941 176.682 92.082C176.682 92.7201 176.547 93.2646 176.279 93.7158C176.01 94.167 175.615 94.5111 175.096 94.748C174.576 94.9805 173.941 95.0967 173.189 95.0967ZM180.693 99H178.615L178.629 97.9268H180.693C181.404 97.9268 181.997 97.7786 182.471 97.4824C182.944 97.1816 183.3 96.7624 183.537 96.2246C183.778 95.6823 183.899 95.0488 183.899 94.3242V93.7158C183.899 93.1462 183.831 92.6403 183.694 92.1982C183.557 91.7516 183.357 91.3757 183.093 91.0703C182.828 90.7604 182.505 90.5257 182.122 90.3662C181.744 90.2067 181.308 90.127 180.816 90.127H178.574V89.0469H180.816C181.468 89.0469 182.063 89.1562 182.6 89.375C183.138 89.5892 183.601 89.9014 183.988 90.3115C184.38 90.7171 184.681 91.2093 184.89 91.7881C185.1 92.3623 185.205 93.0094 185.205 93.7295V94.3242C185.205 95.0443 185.1 95.6937 184.89 96.2725C184.681 96.8467 184.378 97.3366 183.981 97.7422C183.589 98.1478 183.115 98.46 182.559 98.6787C182.008 98.8929 181.386 99 180.693 99ZM179.319 89.0469V99H178V89.0469H179.319ZM190.324 89.0469V99H189.025V89.0469H190.324ZM193.523 89.0469V90.127H185.832V89.0469H193.523Z" fill="#212121"/>
<path fill-rule="evenodd" clip-rule="evenodd" d="M10.0003 135.084C13.9123 135.084 17.0837 131.912 17.0837 128C17.0837 124.088 13.9123 120.917 10.0003 120.917C6.08831 120.917 2.91699 124.088 2.91699 128C2.91699 131.912 6.08831 135.084 10.0003 135.084ZM10.0003 136.334C14.6027 136.334 18.3337 132.603 18.3337 128C18.3337 123.398 14.6027 119.667 10.0003 119.667C5.39795 119.667 1.66699 123.398 1.66699 128C1.66699 132.603 5.39795 136.334 10.0003 136.334Z" fill="#707070"/>
<path fill-rule="evenodd" clip-rule="evenodd" d="M15.4419 125.058C15.686 125.302 15.686 125.698 15.4419 125.942L9.65916 131.725C8.92691 132.457 7.73974 132.457 7.00751 131.725L4.55806 129.275C4.31398 129.031 4.31398 128.635 4.55806 128.391C4.80213 128.147 5.19786 128.147 5.44194 128.391L7.89139 130.841C8.13546 131.085 8.53116 131.085 8.77525 130.841L14.5581 125.058C14.8022 124.814 15.1978 124.814 15.4419 125.058Z" fill="#707070"/>
<path d="M31.6953 121.562V133H30.25V123.367L27.3359 124.43V123.125L31.4688 121.562H31.6953ZM41.4922 121.609H41.6172V122.836H41.4922C40.7266 122.836 40.0859 122.961 39.5703 123.211C39.0547 123.456 38.6458 123.786 38.3438 124.203C38.0417 124.615 37.8229 125.078 37.6875 125.594C37.5573 126.109 37.4922 126.633 37.4922 127.164V128.836C37.4922 129.341 37.5521 129.789 37.6719 130.18C37.7917 130.565 37.9557 130.891 38.1641 131.156C38.3724 131.422 38.6068 131.622 38.8672 131.758C39.1328 131.893 39.4089 131.961 39.6953 131.961C40.0286 131.961 40.3255 131.898 40.5859 131.773C40.8464 131.643 41.0651 131.464 41.2422 131.234C41.4245 131 41.5625 130.724 41.6562 130.406C41.75 130.089 41.7969 129.74 41.7969 129.359C41.7969 129.021 41.7552 128.695 41.6719 128.383C41.5885 128.065 41.4609 127.784 41.2891 127.539C41.1172 127.289 40.901 127.094 40.6406 126.953C40.3854 126.807 40.0807 126.734 39.7266 126.734C39.3255 126.734 38.9505 126.833 38.6016 127.031C38.2578 127.224 37.974 127.479 37.75 127.797C37.5312 128.109 37.4062 128.451 37.375 128.82L36.6094 128.812C36.6823 128.229 36.8177 127.732 37.0156 127.32C37.2188 126.904 37.4688 126.565 37.7656 126.305C38.0677 126.039 38.4036 125.846 38.7734 125.727C39.1484 125.602 39.5443 125.539 39.9609 125.539C40.5286 125.539 41.0182 125.646 41.4297 125.859C41.8411 126.073 42.1797 126.359 42.4453 126.719C42.7109 127.073 42.9062 127.474 43.0312 127.922C43.1615 128.365 43.2266 128.82 43.2266 129.289C43.2266 129.826 43.151 130.328 43 130.797C42.849 131.266 42.6224 131.677 42.3203 132.031C42.0234 132.385 41.6562 132.661 41.2188 132.859C40.7812 133.057 40.2734 133.156 39.6953 133.156C39.0807 133.156 38.5443 133.031 38.0859 132.781C37.6276 132.526 37.2474 132.188 36.9453 131.766C36.6432 131.344 36.4167 130.875 36.2656 130.359C36.1146 129.844 36.0391 129.32 36.0391 128.789V128.109C36.0391 127.307 36.1198 126.521 36.2812 125.75C36.4427 124.979 36.7214 124.281 37.1172 123.656C37.5182 123.031 38.0729 122.534 38.7812 122.164C39.4896 121.794 40.3932 121.609 41.4922 121.609ZM54.5469 124.547H55.8594V132.82C55.8594 133.565 55.7083 134.201 55.4062 134.727C55.1042 135.253 54.6823 135.651 54.1406 135.922C53.6042 136.198 52.9844 136.336 52.2812 136.336C51.9896 136.336 51.6458 136.289 51.25 136.195C50.8594 136.107 50.474 135.953 50.0938 135.734C49.7188 135.521 49.4036 135.232 49.1484 134.867L49.9062 134.008C50.2604 134.435 50.6302 134.732 51.0156 134.898C51.4062 135.065 51.7917 135.148 52.1719 135.148C52.6302 135.148 53.026 135.062 53.3594 134.891C53.6927 134.719 53.9505 134.464 54.1328 134.125C54.3203 133.792 54.4141 133.38 54.4141 132.891V126.406L54.5469 124.547ZM48.7266 128.867V128.703C48.7266 128.057 48.8021 127.471 48.9531 126.945C49.1094 126.414 49.3307 125.958 49.6172 125.578C49.9089 125.198 50.2604 124.906 50.6719 124.703C51.0833 124.495 51.5469 124.391 52.0625 124.391C52.5938 124.391 53.0573 124.484 53.4531 124.672C53.8542 124.854 54.1927 125.122 54.4688 125.477C54.75 125.826 54.9714 126.247 55.1328 126.742C55.2943 127.237 55.4062 127.797 55.4688 128.422V129.141C55.4115 129.76 55.2995 130.318 55.1328 130.812C54.9714 131.307 54.75 131.729 54.4688 132.078C54.1927 132.427 53.8542 132.695 53.4531 132.883C53.0521 133.065 52.5833 133.156 52.0469 133.156C51.5417 133.156 51.0833 133.049 50.6719 132.836C50.2656 132.622 49.9167 132.323 49.625 131.938C49.3333 131.552 49.1094 131.099 48.9531 130.578C48.8021 130.052 48.7266 129.482 48.7266 128.867ZM50.1719 128.703V128.867C50.1719 129.289 50.2135 129.685 50.2969 130.055C50.3854 130.424 50.5182 130.75 50.6953 131.031C50.8776 131.312 51.1094 131.534 51.3906 131.695C51.6719 131.852 52.0078 131.93 52.3984 131.93C52.8776 131.93 53.2734 131.828 53.5859 131.625C53.8984 131.422 54.1458 131.154 54.3281 130.82C54.5156 130.487 54.6615 130.125 54.7656 129.734V127.852C54.7083 127.565 54.6198 127.289 54.5 127.023C54.3854 126.753 54.2344 126.513 54.0469 126.305C53.8646 126.091 53.638 125.922 53.3672 125.797C53.0964 125.672 52.7786 125.609 52.4141 125.609C52.0182 125.609 51.6771 125.693 51.3906 125.859C51.1094 126.021 50.8776 126.245 50.6953 126.531C50.5182 126.812 50.3854 127.141 50.2969 127.516C50.2135 127.885 50.1719 128.281 50.1719 128.703ZM57.6719 128.867V128.688C57.6719 128.078 57.7604 127.513 57.9375 126.992C58.1146 126.466 58.3698 126.01 58.7031 125.625C59.0365 125.234 59.4401 124.932 59.9141 124.719C60.388 124.5 60.9193 124.391 61.5078 124.391C62.1016 124.391 62.6354 124.5 63.1094 124.719C63.5885 124.932 63.9948 125.234 64.3281 125.625C64.6667 126.01 64.9245 126.466 65.1016 126.992C65.2786 127.513 65.3672 128.078 65.3672 128.688V128.867C65.3672 129.477 65.2786 130.042 65.1016 130.562C64.9245 131.083 64.6667 131.539 64.3281 131.93C63.9948 132.315 63.5911 132.617 63.1172 132.836C62.6484 133.049 62.1172 133.156 61.5234 133.156C60.9297 133.156 60.3958 133.049 59.9219 132.836C59.4479 132.617 59.0417 132.315 58.7031 131.93C58.3698 131.539 58.1146 131.083 57.9375 130.562C57.7604 130.042 57.6719 129.477 57.6719 128.867ZM59.1172 128.688V128.867C59.1172 129.289 59.1667 129.688 59.2656 130.062C59.3646 130.432 59.513 130.76 59.7109 131.047C59.9141 131.333 60.1667 131.56 60.4688 131.727C60.7708 131.888 61.1224 131.969 61.5234 131.969C61.9193 131.969 62.2656 131.888 62.5625 131.727C62.8646 131.56 63.1146 131.333 63.3125 131.047C63.5104 130.76 63.6589 130.432 63.7578 130.062C63.862 129.688 63.9141 129.289 63.9141 128.867V128.688C63.9141 128.271 63.862 127.878 63.7578 127.508C63.6589 127.133 63.5078 126.802 63.3047 126.516C63.1068 126.224 62.8568 125.995 62.5547 125.828C62.2578 125.661 61.9089 125.578 61.5078 125.578C61.112 125.578 60.763 125.661 60.4609 125.828C60.1641 125.995 59.9141 126.224 59.7109 126.516C59.513 126.802 59.3646 127.133 59.2656 127.508C59.1667 127.878 59.1172 128.271 59.1172 128.688ZM68.75 124.547V133H67.2969V124.547H68.75ZM67.1875 122.305C67.1875 122.07 67.2578 121.872 67.3984 121.711C67.5443 121.549 67.7578 121.469 68.0391 121.469C68.3151 121.469 68.526 121.549 68.6719 121.711C68.8229 121.872 68.8984 122.07 68.8984 122.305C68.8984 122.529 68.8229 122.721 68.6719 122.883C68.526 123.039 68.3151 123.117 68.0391 123.117C67.7578 123.117 67.5443 123.039 67.3984 122.883C67.2578 122.721 67.1875 122.529 67.1875 122.305ZM72.5156 126.352V133H71.0703V124.547H72.4375L72.5156 126.352ZM72.1719 128.453L71.5703 128.43C71.5755 127.852 71.6615 127.318 71.8281 126.828C71.9948 126.333 72.2292 125.904 72.5312 125.539C72.8333 125.174 73.1927 124.893 73.6094 124.695C74.0312 124.492 74.4974 124.391 75.0078 124.391C75.4245 124.391 75.7995 124.448 76.1328 124.562C76.4661 124.672 76.75 124.849 76.9844 125.094C77.224 125.339 77.4062 125.656 77.5312 126.047C77.6562 126.432 77.7188 126.904 77.7188 127.461V133H76.2656V127.445C76.2656 127.003 76.2005 126.648 76.0703 126.383C75.9401 126.112 75.75 125.917 75.5 125.797C75.25 125.672 74.9427 125.609 74.5781 125.609C74.2188 125.609 73.8906 125.685 73.5938 125.836C73.3021 125.987 73.0495 126.195 72.8359 126.461C72.6276 126.727 72.4635 127.031 72.3438 127.375C72.2292 127.714 72.1719 128.073 72.1719 128.453ZM85.3906 124.547H86.7031V132.82C86.7031 133.565 86.5521 134.201 86.25 134.727C85.9479 135.253 85.526 135.651 84.9844 135.922C84.4479 136.198 83.8281 136.336 83.125 136.336C82.8333 136.336 82.4896 136.289 82.0938 136.195C81.7031 136.107 81.3177 135.953 80.9375 135.734C80.5625 135.521 80.2474 135.232 79.9922 134.867L80.75 134.008C81.1042 134.435 81.474 134.732 81.8594 134.898C82.25 135.065 82.6354 135.148 83.0156 135.148C83.474 135.148 83.8698 135.062 84.2031 134.891C84.5365 134.719 84.7943 134.464 84.9766 134.125C85.1641 133.792 85.2578 133.38 85.2578 132.891V126.406L85.3906 124.547ZM79.5703 128.867V128.703C79.5703 128.057 79.6458 127.471 79.7969 126.945C79.9531 126.414 80.1745 125.958 80.4609 125.578C80.7526 125.198 81.1042 124.906 81.5156 124.703C81.9271 124.495 82.3906 124.391 82.9062 124.391C83.4375 124.391 83.901 124.484 84.2969 124.672C84.6979 124.854 85.0365 125.122 85.3125 125.477C85.5938 125.826 85.8151 126.247 85.9766 126.742C86.138 127.237 86.25 127.797 86.3125 128.422V129.141C86.2552 129.76 86.1432 130.318 85.9766 130.812C85.8151 131.307 85.5938 131.729 85.3125 132.078C85.0365 132.427 84.6979 132.695 84.2969 132.883C83.8958 133.065 83.4271 133.156 82.8906 133.156C82.3854 133.156 81.9271 133.049 81.5156 132.836C81.1094 132.622 80.7604 132.323 80.4688 131.938C80.1771 131.552 79.9531 131.099 79.7969 130.578C79.6458 130.052 79.5703 129.482 79.5703 128.867ZM81.0156 128.703V128.867C81.0156 129.289 81.0573 129.685 81.1406 130.055C81.2292 130.424 81.362 130.75 81.5391 131.031C81.7214 131.312 81.9531 131.534 82.2344 131.695C82.5156 131.852 82.8516 131.93 83.2422 131.93C83.7214 131.93 84.1172 131.828 84.4297 131.625C84.7422 131.422 84.9896 131.154 85.1719 130.82C85.3594 130.487 85.5052 130.125 85.6094 129.734V127.852C85.5521 127.565 85.4635 127.289 85.3438 127.023C85.2292 126.753 85.0781 126.513 84.8906 126.305C84.7083 126.091 84.4818 125.922 84.2109 125.797C83.9401 125.672 83.6224 125.609 83.2578 125.609C82.862 125.609 82.5208 125.693 82.2344 125.859C81.9531 126.021 81.7214 126.245 81.5391 126.531C81.362 126.812 81.2292 127.141 81.1406 127.516C81.0573 127.885 81.0156 128.281 81.0156 128.703Z" fill="#212121"/>
<path fill-rule="evenodd" clip-rule="evenodd" d="M120.584 123C121.201 123 121.739 122.665 122.027 122.166H123.917C124.377 122.166 124.75 122.539 124.75 123V124.771C123.313 125.141 122.25 126.447 122.25 128C122.25 129.553 123.313 130.858 124.75 131.228V133C124.75 133.46 124.377 133.833 123.917 133.833H122.027C121.739 133.335 121.201 133 120.584 133C119.967 133 119.428 133.335 119.14 133.833H110.584C110.123 133.833 109.75 133.46 109.75 133V131.228C111.188 130.858 112.25 129.553 112.25 128C112.25 126.447 111.188 125.141 109.75 124.771V123C109.75 122.539 110.123 122.166 110.584 122.166H119.14C119.428 122.665 119.967 123 120.584 123ZM123.084 128C123.084 126.619 124.203 125.5 125.584 125.5V123C125.584 122.079 124.837 121.333 123.917 121.333H121.417C121.417 121.793 121.044 122.166 120.584 122.166C120.123 122.166 119.75 121.793 119.75 121.333H110.584C109.663 121.333 108.917 122.079 108.917 123V125.5C110.298 125.5 111.417 126.619 111.417 128C111.417 129.38 110.298 130.5 108.917 130.5V133C108.917 133.92 109.663 134.666 110.584 134.666H119.75C119.75 134.206 120.123 133.833 120.584 133.833C121.044 133.833 121.417 134.206 121.417 134.666H123.917C124.837 134.666 125.584 133.92 125.584 133V130.5C124.203 130.5 123.084 129.38 123.084 128ZM120.584 125.5C121.044 125.5 121.417 125.127 121.417 124.666C121.417 124.206 121.044 123.833 120.584 123.833C120.123 123.833 119.75 124.206 119.75 124.666C119.75 125.127 120.123 125.5 120.584 125.5ZM120.584 128.833C121.044 128.833 121.417 128.46 121.417 128C121.417 127.539 121.044 127.166 120.584 127.166C120.123 127.166 119.75 127.539 119.75 128C119.75 128.46 120.123 128.833 120.584 128.833ZM121.417 131.333C121.417 131.793 121.044 132.166 120.584 132.166C120.123 132.166 119.75 131.793 119.75 131.333C119.75 130.873 120.123 130.5 120.584 130.5C121.044 130.5 121.417 130.873 121.417 131.333Z" fill="#707070"/>
<path d="M136.078 121.625V133H134.57V121.625H136.078ZM140.844 126.742V127.977H135.75V126.742H140.844ZM141.617 121.625V122.859H135.75V121.625H141.617ZM144.438 125.875V133H142.992V124.547H144.398L144.438 125.875ZM147.078 124.5L147.07 125.844C146.951 125.818 146.836 125.802 146.727 125.797C146.622 125.786 146.503 125.781 146.367 125.781C146.034 125.781 145.74 125.833 145.484 125.938C145.229 126.042 145.013 126.188 144.836 126.375C144.659 126.562 144.518 126.786 144.414 127.047C144.315 127.302 144.25 127.583 144.219 127.891L143.812 128.125C143.812 127.615 143.862 127.135 143.961 126.688C144.065 126.24 144.224 125.844 144.438 125.5C144.651 125.151 144.922 124.88 145.25 124.688C145.583 124.49 145.979 124.391 146.438 124.391C146.542 124.391 146.661 124.404 146.797 124.43C146.932 124.451 147.026 124.474 147.078 124.5ZM151.766 133.156C151.177 133.156 150.643 133.057 150.164 132.859C149.69 132.656 149.281 132.372 148.938 132.008C148.599 131.643 148.339 131.211 148.156 130.711C147.974 130.211 147.883 129.664 147.883 129.07V128.742C147.883 128.055 147.984 127.443 148.188 126.906C148.391 126.365 148.667 125.906 149.016 125.531C149.365 125.156 149.76 124.872 150.203 124.68C150.646 124.487 151.104 124.391 151.578 124.391C152.182 124.391 152.703 124.495 153.141 124.703C153.583 124.911 153.945 125.203 154.227 125.578C154.508 125.948 154.716 126.385 154.852 126.891C154.987 127.391 155.055 127.938 155.055 128.531V129.18H148.742V128H153.609V127.891C153.589 127.516 153.51 127.151 153.375 126.797C153.245 126.443 153.036 126.151 152.75 125.922C152.464 125.693 152.073 125.578 151.578 125.578C151.25 125.578 150.948 125.648 150.672 125.789C150.396 125.924 150.159 126.128 149.961 126.398C149.763 126.669 149.609 127 149.5 127.391C149.391 127.781 149.336 128.232 149.336 128.742V129.07C149.336 129.471 149.391 129.849 149.5 130.203C149.615 130.552 149.779 130.859 149.992 131.125C150.211 131.391 150.474 131.599 150.781 131.75C151.094 131.901 151.448 131.977 151.844 131.977C152.354 131.977 152.786 131.872 153.141 131.664C153.495 131.456 153.805 131.177 154.07 130.828L154.945 131.523C154.763 131.799 154.531 132.062 154.25 132.312C153.969 132.562 153.622 132.766 153.211 132.922C152.805 133.078 152.323 133.156 151.766 133.156ZM160.25 133.156C159.661 133.156 159.128 133.057 158.648 132.859C158.174 132.656 157.766 132.372 157.422 132.008C157.083 131.643 156.823 131.211 156.641 130.711C156.458 130.211 156.367 129.664 156.367 129.07V128.742C156.367 128.055 156.469 127.443 156.672 126.906C156.875 126.365 157.151 125.906 157.5 125.531C157.849 125.156 158.245 124.872 158.688 124.68C159.13 124.487 159.589 124.391 160.062 124.391C160.667 124.391 161.188 124.495 161.625 124.703C162.068 124.911 162.43 125.203 162.711 125.578C162.992 125.948 163.201 126.385 163.336 126.891C163.471 127.391 163.539 127.938 163.539 128.531V129.18H157.227V128H162.094V127.891C162.073 127.516 161.995 127.151 161.859 126.797C161.729 126.443 161.521 126.151 161.234 125.922C160.948 125.693 160.557 125.578 160.062 125.578C159.734 125.578 159.432 125.648 159.156 125.789C158.88 125.924 158.643 126.128 158.445 126.398C158.247 126.669 158.094 127 157.984 127.391C157.875 127.781 157.82 128.232 157.82 128.742V129.07C157.82 129.471 157.875 129.849 157.984 130.203C158.099 130.552 158.263 130.859 158.477 131.125C158.695 131.391 158.958 131.599 159.266 131.75C159.578 131.901 159.932 131.977 160.328 131.977C160.839 131.977 161.271 131.872 161.625 131.664C161.979 131.456 162.289 131.177 162.555 130.828L163.43 131.523C163.247 131.799 163.016 132.062 162.734 132.312C162.453 132.562 162.107 132.766 161.695 132.922C161.289 133.078 160.807 133.156 160.25 133.156Z" fill="#212121"/>
</svg>
