<svg width="272" height="214" viewBox="0 0 272 214" fill="none" xmlns="http://www.w3.org/2000/svg">
<path d="M4.04297 4.78125V19H1.35742V4.78125H4.04297ZM9.77539 10.9238V13.043H3.33984V10.9238H9.77539ZM10.5273 4.78125V6.90039H3.33984V4.78125H10.5273ZM12.3535 4.78125H17.5195C18.6003 4.78125 19.528 4.94401 20.3027 5.26953C21.0775 5.59505 21.6732 6.07682 22.0898 6.71484C22.5065 7.35286 22.7148 8.13737 22.7148 9.06836C22.7148 9.80404 22.5846 10.4421 22.3242 10.9824C22.0638 11.5228 21.696 11.9753 21.2207 12.3398C20.752 12.7044 20.1986 12.9909 19.5605 13.1992L18.7207 13.6289H14.1602L14.1406 11.5098H17.5488C18.1022 11.5098 18.5612 11.4121 18.9258 11.2168C19.2904 11.0215 19.5638 10.7513 19.7461 10.4062C19.9349 10.0612 20.0293 9.66732 20.0293 9.22461C20.0293 8.74935 19.9382 8.33919 19.7559 7.99414C19.5736 7.64258 19.2969 7.3724 18.9258 7.18359C18.5547 6.99479 18.0859 6.90039 17.5195 6.90039H15.0391V19H12.3535V4.78125ZM20.3809 19L17.0898 12.6328L19.9316 12.623L23.2617 18.8633V19H20.3809ZM34.4922 16.8906V19H26.9336V16.8906H34.4922ZM27.7539 4.78125V19H25.0684V4.78125H27.7539ZM33.5059 10.6504V12.7109H26.9336V10.6504H33.5059ZM34.4629 4.78125V6.90039H26.9336V4.78125H34.4629ZM45.7812 16.8906V19H38.2227V16.8906H45.7812ZM39.043 4.78125V19H36.3574V4.78125H39.043ZM44.7949 10.6504V12.7109H38.2227V10.6504H44.7949ZM45.752 4.78125V6.90039H38.2227V4.78125H45.752ZM56.123 16.2754L58.9551 4.78125H60.4883L60.5859 7.20312L57.5586 19H55.9375L56.123 16.2754ZM54.3359 4.78125L56.6602 16.2363V19H54.8926L51.6699 4.78125H54.3359ZM63.5254 16.1875L65.8105 4.78125H68.4863L65.2637 19H63.4961L63.5254 16.1875ZM61.2207 4.78125L64.0527 16.3145L64.2188 19H62.5977L59.5801 7.19336L59.6973 4.78125H61.2207ZM74.4238 19.1953C73.623 19.1953 72.9036 19.0651 72.2656 18.8047C71.6276 18.5443 71.084 18.1829 70.6348 17.7207C70.1921 17.252 69.8503 16.7083 69.6094 16.0898C69.375 15.4648 69.2578 14.7943 69.2578 14.0781V13.6875C69.2578 12.8737 69.375 12.1348 69.6094 11.4707C69.8438 10.8001 70.1758 10.224 70.6055 9.74219C71.0352 9.26042 71.5495 8.88932 72.1484 8.62891C72.7474 8.36849 73.4082 8.23828 74.1309 8.23828C74.8796 8.23828 75.5404 8.36523 76.1133 8.61914C76.6862 8.86654 77.1647 9.2181 77.5488 9.67383C77.9329 10.1296 78.2227 10.6764 78.418 11.3145C78.6133 11.946 78.7109 12.6458 78.7109 13.4141V14.498H70.4297V12.7207H76.1719V12.5254C76.1589 12.1152 76.0807 11.7409 75.9375 11.4023C75.7943 11.0573 75.5729 10.7839 75.2734 10.582C74.974 10.3737 74.5866 10.2695 74.1113 10.2695C73.7272 10.2695 73.3919 10.3542 73.1055 10.5234C72.8255 10.6862 72.5911 10.9206 72.4023 11.2266C72.2201 11.526 72.0833 11.8841 71.9922 12.3008C71.901 12.7174 71.8555 13.1797 71.8555 13.6875V14.0781C71.8555 14.5208 71.9141 14.931 72.0312 15.3086C72.1549 15.6862 72.334 16.015 72.5684 16.2949C72.8092 16.5684 73.0957 16.7832 73.4277 16.9395C73.7663 17.0892 74.1504 17.1641 74.5801 17.1641C75.1204 17.1641 75.6087 17.0599 76.0449 16.8516C76.4876 16.6367 76.8717 16.321 77.1973 15.9043L78.4961 17.252C78.2747 17.5775 77.9753 17.89 77.5977 18.1895C77.2266 18.4889 76.7773 18.7331 76.25 18.9219C75.7227 19.1042 75.1139 19.1953 74.4238 19.1953ZM80.4297 4H83.0176V16.666L82.7637 19H80.4297V4ZM89.8145 13.6094V13.8145C89.8145 14.6022 89.7266 15.3249 89.5508 15.9824C89.3815 16.64 89.1243 17.2096 88.7793 17.6914C88.4342 18.1667 88.0046 18.5378 87.4902 18.8047C86.9824 19.0651 86.3867 19.1953 85.7031 19.1953C85.0521 19.1953 84.4857 19.0684 84.0039 18.8145C83.5286 18.5605 83.1283 18.2025 82.8027 17.7402C82.4772 17.2715 82.2168 16.7214 82.0215 16.0898C81.8262 15.4518 81.6797 14.7552 81.582 14V13.4434C81.6797 12.6816 81.8262 11.985 82.0215 11.3535C82.2168 10.722 82.4772 10.1719 82.8027 9.70312C83.1283 9.23438 83.5286 8.87305 84.0039 8.61914C84.4792 8.36523 85.0391 8.23828 85.6836 8.23828C86.3737 8.23828 86.9759 8.37174 87.4902 8.63867C88.0111 8.89909 88.4408 9.27018 88.7793 9.75195C89.1243 10.2272 89.3815 10.7936 89.5508 11.4512C89.7266 12.1022 89.8145 12.8216 89.8145 13.6094ZM87.2266 13.8145V13.6094C87.2266 13.1602 87.1908 12.737 87.1191 12.3398C87.0475 11.9362 86.9303 11.5814 86.7676 11.2754C86.6048 10.9694 86.3835 10.7285 86.1035 10.5527C85.8236 10.377 85.472 10.2891 85.0488 10.2891C84.6452 10.2891 84.3001 10.3574 84.0137 10.4941C83.7337 10.6309 83.4993 10.8197 83.3105 11.0605C83.1283 11.3014 82.985 11.5846 82.8809 11.9102C82.7832 12.2357 82.7181 12.5872 82.6855 12.9648V14.4883C82.7311 14.9896 82.8385 15.4421 83.0078 15.8457C83.1771 16.2428 83.4277 16.5586 83.7598 16.793C84.0983 17.0273 84.5345 17.1445 85.0684 17.1445C85.485 17.1445 85.8333 17.0632 86.1133 16.9004C86.3932 16.7311 86.6146 16.4967 86.7773 16.1973C86.9401 15.8913 87.054 15.5365 87.1191 15.1328C87.1908 14.7292 87.2266 14.2897 87.2266 13.8145ZM94.4238 8.43359V19H91.8359V8.43359H94.4238ZM91.6602 5.66992C91.6602 5.28581 91.7904 4.9668 92.0508 4.71289C92.3177 4.45898 92.6758 4.33203 93.125 4.33203C93.5742 4.33203 93.929 4.45898 94.1895 4.71289C94.4564 4.9668 94.5898 5.28581 94.5898 5.66992C94.5898 6.04753 94.4564 6.36328 94.1895 6.61719C93.929 6.87109 93.5742 6.99805 93.125 6.99805C92.6758 6.99805 92.3177 6.87109 92.0508 6.61719C91.7904 6.36328 91.6602 6.04753 91.6602 5.66992ZM99.4141 10.6895V19H96.8359V8.43359H99.2578L99.4141 10.6895ZM99.0039 13.3359H98.2422C98.2487 12.5677 98.3529 11.8711 98.5547 11.2461C98.7565 10.6211 99.0397 10.084 99.4043 9.63477C99.7754 9.18555 100.215 8.84049 100.723 8.59961C101.23 8.35872 101.797 8.23828 102.422 8.23828C102.93 8.23828 103.389 8.3099 103.799 8.45312C104.209 8.59635 104.561 8.82422 104.854 9.13672C105.153 9.44922 105.381 9.85938 105.537 10.3672C105.7 10.8685 105.781 11.487 105.781 12.2227V19H103.184V12.2031C103.184 11.7214 103.112 11.3405 102.969 11.0605C102.832 10.7806 102.63 10.582 102.363 10.4648C102.103 10.3477 101.781 10.2891 101.396 10.2891C100.999 10.2891 100.651 10.3704 100.352 10.5332C100.059 10.6895 99.8112 10.9076 99.6094 11.1875C99.4141 11.4674 99.2643 11.7897 99.1602 12.1543C99.056 12.5189 99.0039 12.9128 99.0039 13.3359ZM113.877 16.7539V11.8809C113.877 11.5228 113.815 11.2135 113.691 10.9531C113.568 10.6927 113.379 10.4909 113.125 10.3477C112.871 10.2044 112.549 10.1328 112.158 10.1328C111.813 10.1328 111.51 10.1914 111.25 10.3086C110.996 10.4258 110.801 10.5918 110.664 10.8066C110.527 11.015 110.459 11.2559 110.459 11.5293H107.871C107.871 11.0931 107.975 10.6797 108.184 10.2891C108.392 9.89193 108.688 9.54036 109.072 9.23438C109.463 8.92188 109.928 8.67773 110.469 8.50195C111.016 8.32617 111.628 8.23828 112.305 8.23828C113.105 8.23828 113.818 8.375 114.443 8.64844C115.075 8.91536 115.57 9.31901 115.928 9.85938C116.292 10.3997 116.475 11.0801 116.475 11.9004V16.5098C116.475 17.0371 116.507 17.4896 116.572 17.8672C116.644 18.2383 116.748 18.5605 116.885 18.834V19H114.258C114.134 18.7331 114.04 18.3945 113.975 17.9844C113.91 17.5677 113.877 17.1576 113.877 16.7539ZM114.238 12.5645L114.258 14.0977H112.627C112.223 14.0977 111.868 14.14 111.562 14.2246C111.257 14.3027 111.006 14.4199 110.811 14.5762C110.615 14.7259 110.469 14.9082 110.371 15.123C110.273 15.3314 110.225 15.569 110.225 15.8359C110.225 16.0964 110.283 16.3307 110.4 16.5391C110.524 16.7474 110.7 16.9134 110.928 17.0371C111.162 17.1543 111.436 17.2129 111.748 17.2129C112.204 17.2129 112.601 17.1217 112.939 16.9395C113.278 16.7507 113.542 16.5228 113.73 16.2559C113.919 15.9889 114.02 15.735 114.033 15.4941L114.775 16.6074C114.684 16.8743 114.548 17.1576 114.365 17.457C114.183 17.7565 113.949 18.0365 113.662 18.2969C113.376 18.5573 113.031 18.7721 112.627 18.9414C112.223 19.1107 111.755 19.1953 111.221 19.1953C110.537 19.1953 109.925 19.0586 109.385 18.7852C108.844 18.5117 108.418 18.1374 108.105 17.6621C107.793 17.1868 107.637 16.6465 107.637 16.041C107.637 15.4811 107.741 14.9863 107.949 14.5566C108.158 14.127 108.467 13.7656 108.877 13.4727C109.287 13.1732 109.795 12.9486 110.4 12.7988C111.012 12.6426 111.712 12.5645 112.5 12.5645H114.238ZM121.377 10.5918V19H118.799V8.43359H121.24L121.377 10.5918ZM124.59 8.36523L124.551 10.7676C124.408 10.7415 124.245 10.722 124.062 10.709C123.887 10.696 123.721 10.6895 123.564 10.6895C123.167 10.6895 122.819 10.7448 122.52 10.8555C122.22 10.9596 121.969 11.1126 121.768 11.3145C121.572 11.5163 121.423 11.7637 121.318 12.0566C121.214 12.3431 121.156 12.6686 121.143 13.0332L120.586 12.9648C120.586 12.2943 120.654 11.6725 120.791 11.0996C120.928 10.5267 121.126 10.0254 121.387 9.5957C121.647 9.16602 121.973 8.83398 122.363 8.59961C122.76 8.35872 123.216 8.23828 123.73 8.23828C123.874 8.23828 124.027 8.2513 124.189 8.27734C124.359 8.29688 124.492 8.32617 124.59 8.36523ZM131.045 17.7402C131.045 17.3496 131.178 17.0208 131.445 16.7539C131.712 16.487 132.074 16.3535 132.529 16.3535C132.985 16.3535 133.346 16.487 133.613 16.7539C133.88 17.0208 134.014 17.3496 134.014 17.7402C134.014 18.1243 133.88 18.4499 133.613 18.7168C133.346 18.9772 132.985 19.1074 132.529 19.1074C132.074 19.1074 131.712 18.9772 131.445 18.7168C131.178 18.4499 131.045 18.1243 131.045 17.7402ZM131.055 9.54688C131.055 9.15625 131.188 8.82747 131.455 8.56055C131.722 8.29362 132.083 8.16016 132.539 8.16016C132.995 8.16016 133.356 8.29362 133.623 8.56055C133.89 8.82747 134.023 9.15625 134.023 9.54688C134.023 9.93099 133.89 10.2565 133.623 10.5234C133.356 10.7839 132.995 10.9141 132.539 10.9141C132.083 10.9141 131.722 10.7839 131.455 10.5234C131.188 10.2565 131.055 9.93099 131.055 9.54688ZM4.21875 28.7812V43H1.5332V28.7812H4.21875ZM9.45312 34.6895V43H6.875V32.4336H9.29688L9.45312 34.6895ZM9.04297 37.3359H8.28125C8.28776 36.5677 8.39193 35.8711 8.59375 35.2461C8.79557 34.6211 9.07878 34.084 9.44336 33.6348C9.81445 33.1855 10.2539 32.8405 10.7617 32.5996C11.2695 32.3587 11.8359 32.2383 12.4609 32.2383C12.9688 32.2383 13.4277 32.3099 13.8379 32.4531C14.248 32.5964 14.5996 32.8242 14.8926 33.1367C15.1921 33.4492 15.4199 33.8594 15.5762 34.3672C15.7389 34.8685 15.8203 35.487 15.8203 36.2227V43H13.2227V36.2031C13.2227 35.7214 13.151 35.3405 13.0078 35.0605C12.8711 34.7806 12.6693 34.582 12.4023 34.4648C12.1419 34.3477 11.8197 34.2891 11.4355 34.2891C11.0384 34.2891 10.6901 34.3704 10.3906 34.5332C10.0977 34.6895 9.85026 34.9076 9.64844 35.1875C9.45312 35.4674 9.30339 35.7897 9.19922 36.1543C9.09505 36.5189 9.04297 36.9128 9.04297 37.3359ZM23.0957 32.4336V34.2891H17.041V32.4336H23.0957ZM18.6621 29.8359H21.25V39.9531C21.25 40.2656 21.2923 40.5065 21.377 40.6758C21.4616 40.8451 21.5885 40.959 21.7578 41.0176C21.9271 41.0762 22.1289 41.1055 22.3633 41.1055C22.5326 41.1055 22.6888 41.0957 22.832 41.0762C22.9753 41.0566 23.0957 41.0371 23.1934 41.0176L23.2031 42.9512C22.9883 43.0228 22.7441 43.0814 22.4707 43.127C22.2038 43.1725 21.901 43.1953 21.5625 43.1953C20.9831 43.1953 20.4753 43.0977 20.0391 42.9023C19.6029 42.7005 19.2643 42.3783 19.0234 41.9355C18.7826 41.4863 18.6621 40.8939 18.6621 40.1582V29.8359ZM27.3926 34.5918V43H24.8145V32.4336H27.2559L27.3926 34.5918ZM30.6055 32.3652L30.5664 34.7676C30.4232 34.7415 30.2604 34.722 30.0781 34.709C29.9023 34.696 29.7363 34.6895 29.5801 34.6895C29.1829 34.6895 28.8346 34.7448 28.5352 34.8555C28.2357 34.9596 27.985 35.1126 27.7832 35.3145C27.5879 35.5163 27.4382 35.7637 27.334 36.0566C27.2298 36.3431 27.1712 36.6686 27.1582 37.0332L26.6016 36.9648C26.6016 36.2943 26.6699 35.6725 26.8066 35.0996C26.9434 34.5267 27.1419 34.0254 27.4023 33.5957C27.6628 33.166 27.9883 32.834 28.3789 32.5996C28.776 32.3587 29.2318 32.2383 29.7461 32.2383C29.8893 32.2383 30.0423 32.2513 30.2051 32.2773C30.3743 32.2969 30.5078 32.3262 30.6055 32.3652ZM31.2891 37.8242V37.6191C31.2891 36.8444 31.3997 36.1315 31.6211 35.4805C31.8424 34.8229 32.1647 34.2533 32.5879 33.7715C33.0111 33.2897 33.5286 32.9154 34.1406 32.6484C34.7526 32.375 35.4492 32.2383 36.2305 32.2383C37.0247 32.2383 37.7279 32.375 38.3398 32.6484C38.9583 32.9154 39.4792 33.2897 39.9023 33.7715C40.3255 34.2533 40.6478 34.8229 40.8691 35.4805C41.0905 36.1315 41.2012 36.8444 41.2012 37.6191V37.8242C41.2012 38.5924 41.0905 39.3053 40.8691 39.9629C40.6478 40.6139 40.3255 41.1836 39.9023 41.6719C39.4792 42.1536 38.9616 42.528 38.3496 42.7949C37.7376 43.0618 37.0378 43.1953 36.25 43.1953C35.4688 43.1953 34.7689 43.0618 34.1504 42.7949C33.5319 42.528 33.0111 42.1536 32.5879 41.6719C32.1647 41.1836 31.8424 40.6139 31.6211 39.9629C31.3997 39.3053 31.2891 38.5924 31.2891 37.8242ZM33.8672 37.6191V37.8242C33.8672 38.2865 33.9128 38.7194 34.0039 39.123C34.0951 39.5267 34.235 39.8815 34.4238 40.1875C34.6126 40.4935 34.8568 40.7344 35.1562 40.9102C35.4622 41.0794 35.8268 41.1641 36.25 41.1641C36.6667 41.1641 37.0247 41.0794 37.3242 40.9102C37.6237 40.7344 37.8678 40.4935 38.0566 40.1875C38.252 39.8815 38.3952 39.5267 38.4863 39.123C38.5775 38.7194 38.623 38.2865 38.623 37.8242V37.6191C38.623 37.1634 38.5775 36.737 38.4863 36.3398C38.3952 35.9362 38.252 35.5814 38.0566 35.2754C37.8678 34.9629 37.6204 34.7188 37.3145 34.543C37.015 34.3607 36.6536 34.2695 36.2305 34.2695C35.8138 34.2695 35.4557 34.3607 35.1562 34.543C34.8568 34.7188 34.6126 34.9629 34.4238 35.2754C34.235 35.5814 34.0951 35.9362 34.0039 36.3398C33.9128 36.737 33.8672 37.1634 33.8672 37.6191ZM49.4141 40.7539V28H52.0117V43H49.668L49.4141 40.7539ZM42.627 37.8438V37.6387C42.627 36.8314 42.7181 36.099 42.9004 35.4414C43.0892 34.7773 43.3626 34.2077 43.7207 33.7324C44.0788 33.2572 44.5117 32.8893 45.0195 32.6289C45.5339 32.3685 46.1165 32.2383 46.7676 32.2383C47.3991 32.2383 47.9492 32.3652 48.418 32.6191C48.8932 32.873 49.2969 33.2344 49.6289 33.7031C49.9674 34.1719 50.2376 34.7285 50.4395 35.373C50.6413 36.0111 50.7878 36.7142 50.8789 37.4824V38.0391C50.7878 38.7878 50.6413 39.4746 50.4395 40.0996C50.2376 40.7246 49.9674 41.2715 49.6289 41.7402C49.2969 42.2025 48.8932 42.5605 48.418 42.8145C47.9427 43.0684 47.3861 43.1953 46.748 43.1953C46.1035 43.1953 45.5241 43.0618 45.0098 42.7949C44.502 42.528 44.069 42.1536 43.7109 41.6719C43.3594 41.1901 43.0892 40.6237 42.9004 39.9727C42.7181 39.3216 42.627 38.612 42.627 37.8438ZM45.2148 37.6387V37.8438C45.2148 38.2995 45.2539 38.7259 45.332 39.123C45.4102 39.5202 45.5371 39.8717 45.7129 40.1777C45.8887 40.4772 46.1133 40.7116 46.3867 40.8809C46.6667 41.0501 47.0052 41.1348 47.4023 41.1348C47.9102 41.1348 48.3268 41.0241 48.6523 40.8027C48.9844 40.5749 49.2415 40.2656 49.4238 39.875C49.6061 39.4779 49.7233 39.0319 49.7754 38.5371V37.0039C49.7493 36.6133 49.681 36.252 49.5703 35.9199C49.4661 35.5879 49.3164 35.3014 49.1211 35.0605C48.9323 34.8197 48.6979 34.6309 48.418 34.4941C48.138 34.3574 47.806 34.2891 47.4219 34.2891C47.0247 34.2891 46.6862 34.377 46.4062 34.5527C46.1263 34.722 45.8984 34.9596 45.7227 35.2656C45.5469 35.5716 45.4167 35.9264 45.332 36.3301C45.2539 36.7337 45.2148 37.1699 45.2148 37.6387ZM60.6348 40.4902V32.4336H63.2324V43H60.791L60.6348 40.4902ZM60.9668 38.3027L61.7676 38.2832C61.7676 38.9928 61.6895 39.6471 61.5332 40.2461C61.377 40.8451 61.1328 41.3659 60.8008 41.8086C60.4753 42.2448 60.0618 42.5866 59.5605 42.834C59.0592 43.0749 58.4668 43.1953 57.7832 43.1953C57.2624 43.1953 56.7871 43.1237 56.3574 42.9805C55.9277 42.8307 55.5566 42.5996 55.2441 42.2871C54.9382 41.9681 54.7005 41.5612 54.5312 41.0664C54.362 40.5651 54.2773 39.9629 54.2773 39.2598V32.4336H56.8555V39.2793C56.8555 39.6309 56.8945 39.9238 56.9727 40.1582C57.0573 40.3926 57.1712 40.5846 57.3145 40.7344C57.4642 40.8776 57.6367 40.9818 57.832 41.0469C58.0339 41.1055 58.2487 41.1348 58.4766 41.1348C59.1016 41.1348 59.5931 41.0111 59.9512 40.7637C60.3158 40.5098 60.5762 40.1712 60.7324 39.748C60.8887 39.3184 60.9668 38.8366 60.9668 38.3027ZM69.8535 41.1641C70.2181 41.1641 70.5436 41.0924 70.8301 40.9492C71.1165 40.806 71.3444 40.6042 71.5137 40.3438C71.6895 40.0833 71.7839 39.7806 71.7969 39.4355H74.2285C74.2155 40.1517 74.0137 40.793 73.623 41.3594C73.2324 41.9258 72.7116 42.375 72.0605 42.707C71.416 43.0326 70.6934 43.1953 69.8926 43.1953C69.0788 43.1953 68.3691 43.0586 67.7637 42.7852C67.1582 42.5117 66.6536 42.1309 66.25 41.6426C65.8529 41.1543 65.5534 40.5879 65.3516 39.9434C65.1562 39.2988 65.0586 38.6087 65.0586 37.873V37.5605C65.0586 36.8249 65.1562 36.1348 65.3516 35.4902C65.5534 34.8457 65.8529 34.2793 66.25 33.791C66.6536 33.3027 67.1582 32.9219 67.7637 32.6484C68.3691 32.375 69.0755 32.2383 69.8828 32.2383C70.7357 32.2383 71.4844 32.4043 72.1289 32.7363C72.7799 33.0684 73.2878 33.5371 73.6523 34.1426C74.0234 34.748 74.2155 35.4609 74.2285 36.2812H71.7969C71.7839 35.9036 71.6992 35.5651 71.543 35.2656C71.3867 34.9661 71.1654 34.7253 70.8789 34.543C70.5924 34.3607 70.2441 34.2695 69.834 34.2695C69.3978 34.2695 69.0332 34.3607 68.7402 34.543C68.4538 34.7253 68.2292 34.9759 68.0664 35.2949C67.9102 35.6074 67.7995 35.959 67.7344 36.3496C67.6758 36.7337 67.6465 37.1374 67.6465 37.5605V37.873C67.6465 38.3027 67.6758 38.7129 67.7344 39.1035C67.7995 39.4941 67.9102 39.8457 68.0664 40.1582C68.2292 40.4642 68.4538 40.7083 68.7402 40.8906C69.0332 41.0729 69.4043 41.1641 69.8535 41.1641ZM80.9473 32.4336V34.2891H74.8926V32.4336H80.9473ZM76.5137 29.8359H79.1016V39.9531C79.1016 40.2656 79.1439 40.5065 79.2285 40.6758C79.3132 40.8451 79.4401 40.959 79.6094 41.0176C79.7786 41.0762 79.9805 41.1055 80.2148 41.1055C80.3841 41.1055 80.5404 41.0957 80.6836 41.0762C80.8268 41.0566 80.9473 41.0371 81.0449 41.0176L81.0547 42.9512C80.8398 43.0228 80.5957 43.0814 80.3223 43.127C80.0553 43.1725 79.7526 43.1953 79.4141 43.1953C78.8346 43.1953 78.3268 43.0977 77.8906 42.9023C77.4544 42.7005 77.1159 42.3783 76.875 41.9355C76.6341 41.4863 76.5137 40.8939 76.5137 40.1582V29.8359ZM85.4004 32.4336V43H82.8125V32.4336H85.4004ZM82.6367 29.6699C82.6367 29.2858 82.7669 28.9668 83.0273 28.7129C83.2943 28.459 83.6523 28.332 84.1016 28.332C84.5508 28.332 84.9056 28.459 85.166 28.7129C85.4329 28.9668 85.5664 29.2858 85.5664 29.6699C85.5664 30.0475 85.4329 30.3633 85.166 30.6172C84.9056 30.8711 84.5508 30.998 84.1016 30.998C83.6523 30.998 83.2943 30.8711 83.0273 30.6172C82.7669 30.3633 82.6367 30.0475 82.6367 29.6699ZM87.4023 37.8242V37.6191C87.4023 36.8444 87.513 36.1315 87.7344 35.4805C87.9557 34.8229 88.278 34.2533 88.7012 33.7715C89.1243 33.2897 89.6419 32.9154 90.2539 32.6484C90.8659 32.375 91.5625 32.2383 92.3438 32.2383C93.138 32.2383 93.8411 32.375 94.4531 32.6484C95.0716 32.9154 95.5924 33.2897 96.0156 33.7715C96.4388 34.2533 96.7611 34.8229 96.9824 35.4805C97.2038 36.1315 97.3145 36.8444 97.3145 37.6191V37.8242C97.3145 38.5924 97.2038 39.3053 96.9824 39.9629C96.7611 40.6139 96.4388 41.1836 96.0156 41.6719C95.5924 42.1536 95.0749 42.528 94.4629 42.7949C93.8509 43.0618 93.151 43.1953 92.3633 43.1953C91.582 43.1953 90.8822 43.0618 90.2637 42.7949C89.6452 42.528 89.1243 42.1536 88.7012 41.6719C88.278 41.1836 87.9557 40.6139 87.7344 39.9629C87.513 39.3053 87.4023 38.5924 87.4023 37.8242ZM89.9805 37.6191V37.8242C89.9805 38.2865 90.026 38.7194 90.1172 39.123C90.2083 39.5267 90.3483 39.8815 90.5371 40.1875C90.7259 40.4935 90.9701 40.7344 91.2695 40.9102C91.5755 41.0794 91.9401 41.1641 92.3633 41.1641C92.7799 41.1641 93.138 41.0794 93.4375 40.9102C93.737 40.7344 93.9811 40.4935 94.1699 40.1875C94.3652 39.8815 94.5085 39.5267 94.5996 39.123C94.6908 38.7194 94.7363 38.2865 94.7363 37.8242V37.6191C94.7363 37.1634 94.6908 36.737 94.5996 36.3398C94.5085 35.9362 94.3652 35.5814 94.1699 35.2754C93.9811 34.9629 93.7337 34.7188 93.4277 34.543C93.1283 34.3607 92.7669 34.2695 92.3438 34.2695C91.9271 34.2695 91.569 34.3607 91.2695 34.543C90.9701 34.7188 90.7259 34.9629 90.5371 35.2754C90.3483 35.5814 90.2083 35.9362 90.1172 36.3398C90.026 36.737 89.9805 37.1634 89.9805 37.6191ZM101.719 34.6895V43H99.1406V32.4336H101.562L101.719 34.6895ZM101.309 37.3359H100.547C100.553 36.5677 100.658 35.8711 100.859 35.2461C101.061 34.6211 101.344 34.084 101.709 33.6348C102.08 33.1855 102.52 32.8405 103.027 32.5996C103.535 32.3587 104.102 32.2383 104.727 32.2383C105.234 32.2383 105.693 32.3099 106.104 32.4531C106.514 32.5964 106.865 32.8242 107.158 33.1367C107.458 33.4492 107.686 33.8594 107.842 34.3672C108.005 34.8685 108.086 35.487 108.086 36.2227V43H105.488V36.2031C105.488 35.7214 105.417 35.3405 105.273 35.0605C105.137 34.7806 104.935 34.582 104.668 34.4648C104.408 34.3477 104.085 34.2891 103.701 34.2891C103.304 34.2891 102.956 34.3704 102.656 34.5332C102.363 34.6895 102.116 34.9076 101.914 35.1875C101.719 35.4674 101.569 35.7897 101.465 36.1543C101.361 36.5189 101.309 36.9128 101.309 37.3359ZM120.342 32.4336V34.2891H114.287V32.4336H120.342ZM115.908 29.8359H118.496V39.9531C118.496 40.2656 118.538 40.5065 118.623 40.6758C118.708 40.8451 118.835 40.959 119.004 41.0176C119.173 41.0762 119.375 41.1055 119.609 41.1055C119.779 41.1055 119.935 41.0957 120.078 41.0762C120.221 41.0566 120.342 41.0371 120.439 41.0176L120.449 42.9512C120.234 43.0228 119.99 43.0814 119.717 43.127C119.45 43.1725 119.147 43.1953 118.809 43.1953C118.229 43.1953 117.721 43.0977 117.285 42.9023C116.849 42.7005 116.51 42.3783 116.27 41.9355C116.029 41.4863 115.908 40.8939 115.908 40.1582V29.8359ZM121.348 37.8242V37.6191C121.348 36.8444 121.458 36.1315 121.68 35.4805C121.901 34.8229 122.223 34.2533 122.646 33.7715C123.07 33.2897 123.587 32.9154 124.199 32.6484C124.811 32.375 125.508 32.2383 126.289 32.2383C127.083 32.2383 127.786 32.375 128.398 32.6484C129.017 32.9154 129.538 33.2897 129.961 33.7715C130.384 34.2533 130.706 34.8229 130.928 35.4805C131.149 36.1315 131.26 36.8444 131.26 37.6191V37.8242C131.26 38.5924 131.149 39.3053 130.928 39.9629C130.706 40.6139 130.384 41.1836 129.961 41.6719C129.538 42.1536 129.02 42.528 128.408 42.7949C127.796 43.0618 127.096 43.1953 126.309 43.1953C125.527 43.1953 124.827 43.0618 124.209 42.7949C123.59 42.528 123.07 42.1536 122.646 41.6719C122.223 41.1836 121.901 40.6139 121.68 39.9629C121.458 39.3053 121.348 38.5924 121.348 37.8242ZM123.926 37.6191V37.8242C123.926 38.2865 123.971 38.7194 124.062 39.123C124.154 39.5267 124.294 39.8815 124.482 40.1875C124.671 40.4935 124.915 40.7344 125.215 40.9102C125.521 41.0794 125.885 41.1641 126.309 41.1641C126.725 41.1641 127.083 41.0794 127.383 40.9102C127.682 40.7344 127.926 40.4935 128.115 40.1875C128.311 39.8815 128.454 39.5267 128.545 39.123C128.636 38.7194 128.682 38.2865 128.682 37.8242V37.6191C128.682 37.1634 128.636 36.737 128.545 36.3398C128.454 35.9362 128.311 35.5814 128.115 35.2754C127.926 34.9629 127.679 34.7188 127.373 34.543C127.074 34.3607 126.712 34.2695 126.289 34.2695C125.872 34.2695 125.514 34.3607 125.215 34.543C124.915 34.7188 124.671 34.9629 124.482 35.2754C124.294 35.5814 124.154 35.9362 124.062 36.3398C123.971 36.737 123.926 37.1634 123.926 37.6191ZM143.779 37.8145H140.117V35.7051H143.779C144.378 35.7051 144.863 35.6074 145.234 35.4121C145.612 35.2103 145.889 34.9368 146.064 34.5918C146.24 34.2402 146.328 33.8398 146.328 33.3906C146.328 32.9544 146.24 32.5475 146.064 32.1699C145.889 31.7923 145.612 31.4863 145.234 31.252C144.863 31.0176 144.378 30.9004 143.779 30.9004H140.996V43H138.311V28.7812H143.779C144.886 28.7812 145.83 28.9798 146.611 29.377C147.399 29.7676 147.998 30.3112 148.408 31.0078C148.825 31.6979 149.033 32.4857 149.033 33.3711C149.033 34.2891 148.825 35.0801 148.408 35.7441C147.998 36.4082 147.399 36.9193 146.611 37.2773C145.83 37.6354 144.886 37.8145 143.779 37.8145ZM150.352 37.8242V37.6191C150.352 36.8444 150.462 36.1315 150.684 35.4805C150.905 34.8229 151.227 34.2533 151.65 33.7715C152.074 33.2897 152.591 32.9154 153.203 32.6484C153.815 32.375 154.512 32.2383 155.293 32.2383C156.087 32.2383 156.79 32.375 157.402 32.6484C158.021 32.9154 158.542 33.2897 158.965 33.7715C159.388 34.2533 159.71 34.8229 159.932 35.4805C160.153 36.1315 160.264 36.8444 160.264 37.6191V37.8242C160.264 38.5924 160.153 39.3053 159.932 39.9629C159.71 40.6139 159.388 41.1836 158.965 41.6719C158.542 42.1536 158.024 42.528 157.412 42.7949C156.8 43.0618 156.1 43.1953 155.312 43.1953C154.531 43.1953 153.831 43.0618 153.213 42.7949C152.594 42.528 152.074 42.1536 151.65 41.6719C151.227 41.1836 150.905 40.6139 150.684 39.9629C150.462 39.3053 150.352 38.5924 150.352 37.8242ZM152.93 37.6191V37.8242C152.93 38.2865 152.975 38.7194 153.066 39.123C153.158 39.5267 153.298 39.8815 153.486 40.1875C153.675 40.4935 153.919 40.7344 154.219 40.9102C154.525 41.0794 154.889 41.1641 155.312 41.1641C155.729 41.1641 156.087 41.0794 156.387 40.9102C156.686 40.7344 156.93 40.4935 157.119 40.1875C157.314 39.8815 157.458 39.5267 157.549 39.123C157.64 38.7194 157.686 38.2865 157.686 37.8242V37.6191C157.686 37.1634 157.64 36.737 157.549 36.3398C157.458 35.9362 157.314 35.5814 157.119 35.2754C156.93 34.9629 156.683 34.7188 156.377 34.543C156.077 34.3607 155.716 34.2695 155.293 34.2695C154.876 34.2695 154.518 34.3607 154.219 34.543C153.919 34.7188 153.675 34.9629 153.486 35.2754C153.298 35.5814 153.158 35.9362 153.066 36.3398C152.975 36.737 152.93 37.1634 152.93 37.6191ZM165.078 40.4609L167.393 32.4336H169.033L168.545 35.207L166.211 43H164.795L165.078 40.4609ZM163.799 32.4336L165.537 40.4805L165.693 43H164.062L161.289 32.4336H163.799ZM171.182 40.3633L172.881 32.4336H175.381L172.627 43H170.996L171.182 40.3633ZM169.287 32.4336L171.582 40.3828L171.885 43H170.469L168.115 35.207L167.637 32.4336H169.287ZM181.65 43.1953C180.85 43.1953 180.13 43.0651 179.492 42.8047C178.854 42.5443 178.311 42.1829 177.861 41.7207C177.419 41.252 177.077 40.7083 176.836 40.0898C176.602 39.4648 176.484 38.7943 176.484 38.0781V37.6875C176.484 36.8737 176.602 36.1348 176.836 35.4707C177.07 34.8001 177.402 34.224 177.832 33.7422C178.262 33.2604 178.776 32.8893 179.375 32.6289C179.974 32.3685 180.635 32.2383 181.357 32.2383C182.106 32.2383 182.767 32.3652 183.34 32.6191C183.913 32.8665 184.391 33.2181 184.775 33.6738C185.16 34.1296 185.449 34.6764 185.645 35.3145C185.84 35.946 185.938 36.6458 185.938 37.4141V38.498H177.656V36.7207H183.398V36.5254C183.385 36.1152 183.307 35.7409 183.164 35.4023C183.021 35.0573 182.799 34.7839 182.5 34.582C182.201 34.3737 181.813 34.2695 181.338 34.2695C180.954 34.2695 180.618 34.3542 180.332 34.5234C180.052 34.6862 179.818 34.9206 179.629 35.2266C179.447 35.526 179.31 35.8841 179.219 36.3008C179.128 36.7174 179.082 37.1797 179.082 37.6875V38.0781C179.082 38.5208 179.141 38.931 179.258 39.3086C179.382 39.6862 179.561 40.015 179.795 40.2949C180.036 40.5684 180.322 40.7832 180.654 40.9395C180.993 41.0892 181.377 41.1641 181.807 41.1641C182.347 41.1641 182.835 41.0599 183.271 40.8516C183.714 40.6367 184.098 40.321 184.424 39.9043L185.723 41.252C185.501 41.5775 185.202 41.89 184.824 42.1895C184.453 42.4889 184.004 42.7331 183.477 42.9219C182.949 43.1042 182.34 43.1953 181.65 43.1953ZM190.244 34.5918V43H187.666V32.4336H190.107L190.244 34.5918ZM193.457 32.3652L193.418 34.7676C193.275 34.7415 193.112 34.722 192.93 34.709C192.754 34.696 192.588 34.6895 192.432 34.6895C192.035 34.6895 191.686 34.7448 191.387 34.8555C191.087 34.9596 190.837 35.1126 190.635 35.3145C190.439 35.5163 190.29 35.7637 190.186 36.0566C190.081 36.3431 190.023 36.6686 190.01 37.0332L189.453 36.9648C189.453 36.2943 189.521 35.6725 189.658 35.0996C189.795 34.5267 189.993 34.0254 190.254 33.5957C190.514 33.166 190.84 32.834 191.23 32.5996C191.628 32.3587 192.083 32.2383 192.598 32.2383C192.741 32.2383 192.894 32.2513 193.057 32.2773C193.226 32.2969 193.359 32.3262 193.457 32.3652ZM205.498 36.6621H201.865L201.846 34.7676H204.961C205.495 34.7676 205.941 34.6927 206.299 34.543C206.657 34.3932 206.927 34.1751 207.109 33.8887C207.298 33.6022 207.393 33.2539 207.393 32.8438C207.393 32.388 207.305 32.0169 207.129 31.7305C206.96 31.444 206.693 31.2357 206.328 31.1055C205.964 30.9688 205.501 30.9004 204.941 30.9004H202.734V43H200.049V28.7812H204.941C205.749 28.7812 206.468 28.8594 207.1 29.0156C207.738 29.1654 208.278 29.3997 208.721 29.7188C209.163 30.0378 209.499 30.4382 209.727 30.9199C209.961 31.4017 210.078 31.9746 210.078 32.6387C210.078 33.2246 209.941 33.765 209.668 34.2598C209.401 34.748 208.988 35.1452 208.428 35.4512C207.874 35.7572 207.171 35.9329 206.318 35.9785L205.498 36.6621ZM205.381 43H201.074L202.197 40.8906H205.381C205.915 40.8906 206.354 40.8027 206.699 40.627C207.051 40.4512 207.311 40.2103 207.48 39.9043C207.656 39.5918 207.744 39.2337 207.744 38.8301C207.744 38.3874 207.666 38.0033 207.51 37.6777C207.36 37.3522 207.119 37.1016 206.787 36.9258C206.462 36.75 206.032 36.6621 205.498 36.6621H202.705L202.725 34.7676H206.279L206.895 35.5C207.715 35.5065 208.382 35.6693 208.896 35.9883C209.417 36.3073 209.801 36.7174 210.049 37.2188C210.296 37.7201 210.42 38.2604 210.42 38.8398C210.42 39.7513 210.221 40.5163 209.824 41.1348C209.434 41.7533 208.861 42.2188 208.105 42.5312C207.357 42.8438 206.449 43 205.381 43ZM215.605 28.7812V43H212.92V28.7812H215.605Z" fill="#212121"/>
<path d="M5.10645 71.0469V81H3.4043V71.0469H5.10645ZM8.23047 71.0469V72.4141H0.307617V71.0469H8.23047ZM11.9834 81.1367C11.4365 81.1367 10.9421 81.0479 10.5 80.8701C10.0625 80.6878 9.6888 80.4349 9.37891 80.1113C9.07357 79.7878 8.83887 79.4072 8.6748 78.9697C8.51074 78.5322 8.42871 78.0605 8.42871 77.5547V77.2812C8.42871 76.7025 8.51302 76.1784 8.68164 75.709C8.85026 75.2396 9.08496 74.8385 9.38574 74.5059C9.68652 74.1686 10.042 73.9111 10.4521 73.7334C10.8623 73.5557 11.3066 73.4668 11.7852 73.4668C12.3138 73.4668 12.7764 73.5557 13.1729 73.7334C13.5693 73.9111 13.8975 74.1618 14.1572 74.4854C14.4215 74.8044 14.6175 75.1849 14.7451 75.627C14.8773 76.069 14.9434 76.5566 14.9434 77.0898V77.7939H9.22852V76.6113H13.3164V76.4814C13.3073 76.1852 13.248 75.9072 13.1387 75.6475C13.0339 75.3877 12.8721 75.1781 12.6533 75.0186C12.4346 74.859 12.1429 74.7793 11.7783 74.7793C11.5049 74.7793 11.2611 74.8385 11.0469 74.957C10.8372 75.071 10.6618 75.2373 10.5205 75.4561C10.3792 75.6748 10.2699 75.9391 10.1924 76.249C10.1195 76.5544 10.083 76.8984 10.083 77.2812V77.5547C10.083 77.8783 10.1263 78.179 10.2129 78.457C10.304 78.7305 10.4362 78.9697 10.6094 79.1748C10.7826 79.3799 10.9922 79.5417 11.2383 79.6602C11.4844 79.7741 11.7646 79.8311 12.0791 79.8311C12.4756 79.8311 12.8288 79.7513 13.1387 79.5918C13.4486 79.4323 13.7174 79.2067 13.9453 78.915L14.8135 79.7559C14.654 79.9883 14.4466 80.2116 14.1914 80.4258C13.9362 80.6354 13.624 80.8063 13.2549 80.9385C12.8903 81.0706 12.4665 81.1367 11.9834 81.1367ZM19.25 79.8242C19.5189 79.8242 19.7604 79.7718 19.9746 79.667C20.1934 79.5576 20.3688 79.4072 20.501 79.2158C20.6377 79.0244 20.7129 78.8034 20.7266 78.5527H22.2783C22.2692 79.0312 22.1279 79.4665 21.8545 79.8584C21.5811 80.2503 21.2188 80.5625 20.7676 80.7949C20.3164 81.0228 19.8174 81.1367 19.2705 81.1367C18.7054 81.1367 18.2132 81.041 17.7939 80.8496C17.3747 80.6536 17.026 80.3848 16.748 80.043C16.4701 79.7012 16.2604 79.307 16.1191 78.8604C15.9824 78.4137 15.9141 77.9352 15.9141 77.4248V77.1855C15.9141 76.6751 15.9824 76.1966 16.1191 75.75C16.2604 75.2988 16.4701 74.9023 16.748 74.5605C17.026 74.2188 17.3747 73.9521 17.7939 73.7607C18.2132 73.5648 18.7031 73.4668 19.2637 73.4668C19.8561 73.4668 20.3757 73.5853 20.8223 73.8223C21.2689 74.0547 21.6198 74.3805 21.875 74.7998C22.1348 75.2145 22.2692 75.6976 22.2783 76.249H20.7266C20.7129 75.9756 20.6445 75.7295 20.5215 75.5107C20.403 75.2874 20.2344 75.1097 20.0156 74.9775C19.8014 74.8454 19.5439 74.7793 19.2432 74.7793C18.9105 74.7793 18.6348 74.8477 18.416 74.9844C18.1973 75.1165 18.0264 75.2988 17.9033 75.5312C17.7803 75.7591 17.6914 76.0166 17.6367 76.3037C17.5866 76.5863 17.5615 76.8802 17.5615 77.1855V77.4248C17.5615 77.7301 17.5866 78.0264 17.6367 78.3135C17.6868 78.6006 17.7734 78.8581 17.8965 79.0859C18.0241 79.3092 18.1973 79.4893 18.416 79.626C18.6348 79.7581 18.9128 79.8242 19.25 79.8242ZM25.1699 70.5V81H23.5293V70.5H25.1699ZM24.8828 77.0283L24.3496 77.0215C24.3542 76.5111 24.4248 76.0394 24.5615 75.6064C24.7028 75.1735 24.8988 74.7975 25.1494 74.4785C25.4046 74.1549 25.71 73.9066 26.0654 73.7334C26.4209 73.5557 26.8151 73.4668 27.248 73.4668C27.6126 73.4668 27.9408 73.5169 28.2324 73.6172C28.5286 73.7174 28.7839 73.8792 28.998 74.1025C29.2122 74.3213 29.374 74.6084 29.4834 74.9639C29.5973 75.3148 29.6543 75.7432 29.6543 76.249V81H28V76.2354C28 75.8799 27.9476 75.5973 27.8428 75.3877C27.7425 75.1781 27.5944 75.0277 27.3984 74.9365C27.2025 74.8408 26.9632 74.793 26.6807 74.793C26.3844 74.793 26.1224 74.8522 25.8945 74.9707C25.6712 75.0892 25.4844 75.251 25.334 75.4561C25.1836 75.6611 25.0697 75.8981 24.9922 76.167C24.9193 76.4359 24.8828 76.723 24.8828 77.0283ZM32.9561 75.1826V81H31.3086V73.6035H32.8604L32.9561 75.1826ZM32.6621 77.0283L32.1289 77.0215C32.1335 76.4974 32.2064 76.0166 32.3477 75.5791C32.4935 75.1416 32.694 74.7656 32.9492 74.4512C33.209 74.1367 33.5189 73.8952 33.8789 73.7266C34.2389 73.5534 34.64 73.4668 35.082 73.4668C35.4375 73.4668 35.7588 73.5169 36.0459 73.6172C36.3376 73.7129 36.5859 73.8701 36.791 74.0889C37.0007 74.3076 37.1602 74.5924 37.2695 74.9434C37.3789 75.2897 37.4336 75.7158 37.4336 76.2217V81H35.7793V76.2148C35.7793 75.8594 35.7269 75.5791 35.6221 75.374C35.5218 75.1644 35.3737 75.0163 35.1777 74.9297C34.9863 74.8385 34.7471 74.793 34.46 74.793C34.1774 74.793 33.9245 74.8522 33.7012 74.9707C33.4779 75.0892 33.2887 75.251 33.1338 75.4561C32.9834 75.6611 32.8672 75.8981 32.7852 76.167C32.7031 76.4359 32.6621 76.723 32.6621 77.0283ZM38.8008 77.3838V77.2266C38.8008 76.6934 38.8783 76.1989 39.0332 75.7432C39.1882 75.2829 39.4115 74.8841 39.7031 74.5469C39.9993 74.2051 40.3594 73.9408 40.7832 73.7539C41.2116 73.5625 41.6947 73.4668 42.2324 73.4668C42.7747 73.4668 43.2578 73.5625 43.6816 73.7539C44.11 73.9408 44.4723 74.2051 44.7686 74.5469C45.0648 74.8841 45.2904 75.2829 45.4453 75.7432C45.6003 76.1989 45.6777 76.6934 45.6777 77.2266V77.3838C45.6777 77.917 45.6003 78.4115 45.4453 78.8672C45.2904 79.3229 45.0648 79.7217 44.7686 80.0635C44.4723 80.4007 44.1123 80.665 43.6885 80.8564C43.2646 81.0433 42.7839 81.1367 42.2461 81.1367C41.7038 81.1367 41.2184 81.0433 40.79 80.8564C40.3662 80.665 40.0062 80.4007 39.71 80.0635C39.4137 79.7217 39.1882 79.3229 39.0332 78.8672C38.8783 78.4115 38.8008 77.917 38.8008 77.3838ZM40.4482 77.2266V77.3838C40.4482 77.7165 40.4824 78.0309 40.5508 78.3271C40.6191 78.6234 40.7262 78.8831 40.8721 79.1064C41.0179 79.3298 41.2048 79.5052 41.4326 79.6328C41.6605 79.7604 41.9316 79.8242 42.2461 79.8242C42.5514 79.8242 42.8158 79.7604 43.0391 79.6328C43.2669 79.5052 43.4538 79.3298 43.5996 79.1064C43.7454 78.8831 43.8525 78.6234 43.9209 78.3271C43.9938 78.0309 44.0303 77.7165 44.0303 77.3838V77.2266C44.0303 76.8984 43.9938 76.5885 43.9209 76.2969C43.8525 76.0007 43.7432 75.7386 43.5928 75.5107C43.4469 75.2829 43.2601 75.1051 43.0322 74.9775C42.8089 74.8454 42.5423 74.7793 42.2324 74.7793C41.9225 74.7793 41.6536 74.8454 41.4258 74.9775C41.2025 75.1051 41.0179 75.2829 40.8721 75.5107C40.7262 75.7386 40.6191 76.0007 40.5508 76.2969C40.4824 76.5885 40.4482 76.8984 40.4482 77.2266ZM48.8223 70.5V81H47.168V70.5H48.8223ZM50.3125 77.3838V77.2266C50.3125 76.6934 50.39 76.1989 50.5449 75.7432C50.6999 75.2829 50.9232 74.8841 51.2148 74.5469C51.5111 74.2051 51.8711 73.9408 52.2949 73.7539C52.7233 73.5625 53.2064 73.4668 53.7441 73.4668C54.2865 73.4668 54.7695 73.5625 55.1934 73.7539C55.6217 73.9408 55.984 74.2051 56.2803 74.5469C56.5765 74.8841 56.8021 75.2829 56.957 75.7432C57.112 76.1989 57.1895 76.6934 57.1895 77.2266V77.3838C57.1895 77.917 57.112 78.4115 56.957 78.8672C56.8021 79.3229 56.5765 79.7217 56.2803 80.0635C55.984 80.4007 55.624 80.665 55.2002 80.8564C54.7764 81.0433 54.2956 81.1367 53.7578 81.1367C53.2155 81.1367 52.7301 81.0433 52.3018 80.8564C51.8779 80.665 51.5179 80.4007 51.2217 80.0635C50.9255 79.7217 50.6999 79.3229 50.5449 78.8672C50.39 78.4115 50.3125 77.917 50.3125 77.3838ZM51.96 77.2266V77.3838C51.96 77.7165 51.9941 78.0309 52.0625 78.3271C52.1309 78.6234 52.238 78.8831 52.3838 79.1064C52.5296 79.3298 52.7165 79.5052 52.9443 79.6328C53.1722 79.7604 53.4434 79.8242 53.7578 79.8242C54.0632 79.8242 54.3275 79.7604 54.5508 79.6328C54.7786 79.5052 54.9655 79.3298 55.1113 79.1064C55.2572 78.8831 55.3643 78.6234 55.4326 78.3271C55.5055 78.0309 55.542 77.7165 55.542 77.3838V77.2266C55.542 76.8984 55.5055 76.5885 55.4326 76.2969C55.3643 76.0007 55.2549 75.7386 55.1045 75.5107C54.9587 75.2829 54.7718 75.1051 54.5439 74.9775C54.3206 74.8454 54.054 74.7793 53.7441 74.7793C53.4342 74.7793 53.1654 74.8454 52.9375 74.9775C52.7142 75.1051 52.5296 75.2829 52.3838 75.5107C52.238 75.7386 52.1309 76.0007 52.0625 76.2969C51.9941 76.5885 51.96 76.8984 51.96 77.2266ZM63.3076 73.6035H64.8047V80.7949C64.8047 81.4603 64.6634 82.0254 64.3809 82.4902C64.0983 82.9551 63.7041 83.3083 63.1982 83.5498C62.6924 83.7959 62.1068 83.9189 61.4414 83.9189C61.1589 83.9189 60.8444 83.8779 60.498 83.7959C60.1562 83.7139 59.8236 83.5817 59.5 83.3994C59.181 83.2217 58.9144 82.987 58.7002 82.6953L59.4727 81.7246C59.737 82.0391 60.0286 82.2692 60.3477 82.415C60.6667 82.5609 61.0016 82.6338 61.3525 82.6338C61.7308 82.6338 62.0521 82.5632 62.3164 82.4219C62.5853 82.2852 62.7926 82.0824 62.9385 81.8135C63.0843 81.5446 63.1572 81.2165 63.1572 80.8291V75.2783L63.3076 73.6035ZM58.2832 77.3838V77.2402C58.2832 76.6797 58.3516 76.1693 58.4883 75.709C58.625 75.2441 58.821 74.8454 59.0762 74.5127C59.3314 74.1755 59.6413 73.918 60.0059 73.7402C60.3704 73.5579 60.7829 73.4668 61.2432 73.4668C61.7217 73.4668 62.1296 73.5534 62.4668 73.7266C62.8086 73.8997 63.0934 74.1481 63.3213 74.4717C63.5492 74.7907 63.7269 75.1735 63.8545 75.6201C63.9867 76.0622 64.0846 76.5544 64.1484 77.0967V77.5547C64.0892 78.0833 63.9889 78.5664 63.8477 79.0039C63.7064 79.4414 63.5195 79.8197 63.2871 80.1387C63.0547 80.4577 62.7676 80.7038 62.4258 80.877C62.0885 81.0501 61.6898 81.1367 61.2295 81.1367C60.7783 81.1367 60.3704 81.0433 60.0059 80.8564C59.6458 80.6696 59.3359 80.4076 59.0762 80.0703C58.821 79.7331 58.625 79.3366 58.4883 78.8809C58.3516 78.4206 58.2832 77.9215 58.2832 77.3838ZM59.9307 77.2402V77.3838C59.9307 77.721 59.9626 78.0355 60.0264 78.3271C60.0947 78.6188 60.1973 78.8763 60.334 79.0996C60.4753 79.3184 60.653 79.4915 60.8672 79.6191C61.0859 79.7422 61.3434 79.8037 61.6396 79.8037C62.027 79.8037 62.3438 79.7217 62.5898 79.5576C62.8405 79.3936 63.0319 79.1725 63.1641 78.8945C63.3008 78.612 63.3965 78.2975 63.4512 77.9512V76.7139C63.4238 76.445 63.3669 76.1943 63.2803 75.9619C63.1982 75.7295 63.0866 75.5267 62.9453 75.3535C62.804 75.1758 62.6263 75.0391 62.4121 74.9434C62.1979 74.8431 61.945 74.793 61.6533 74.793C61.3571 74.793 61.0996 74.8568 60.8809 74.9844C60.6621 75.112 60.4821 75.2874 60.3408 75.5107C60.2041 75.734 60.1016 75.9938 60.0332 76.29C59.9648 76.5863 59.9307 76.903 59.9307 77.2402ZM68.6602 80.1934L70.6699 73.6035H72.4336L69.4668 82.1279C69.3984 82.3102 69.3096 82.5085 69.2002 82.7227C69.0908 82.9368 68.9473 83.1396 68.7695 83.3311C68.5964 83.527 68.3799 83.6842 68.1201 83.8027C67.8604 83.9258 67.5459 83.9873 67.1768 83.9873C67.0309 83.9873 66.8896 83.9736 66.7529 83.9463C66.6208 83.9235 66.4954 83.8984 66.377 83.8711L66.3701 82.6133C66.4157 82.6178 66.4704 82.6224 66.5342 82.627C66.6025 82.6315 66.6572 82.6338 66.6982 82.6338C66.9717 82.6338 67.1995 82.5996 67.3818 82.5312C67.5641 82.4674 67.7122 82.3626 67.8262 82.2168C67.9447 82.071 68.0449 81.875 68.127 81.6289L68.6602 80.1934ZM67.5254 73.6035L69.2822 79.1406L69.5762 80.877L68.4346 81.1709L65.748 73.6035H67.5254Z" fill="#707070"/>
<path fill-rule="evenodd" clip-rule="evenodd" d="M15.8333 108.583H4.16667C3.93655 108.583 3.75 108.77 3.75 109V119.833C3.75 120.063 3.93655 120.25 4.16667 120.25H15.8333C16.0634 120.25 16.25 120.063 16.25 119.833V109C16.25 108.77 16.0634 108.583 15.8333 108.583ZM4.16667 107.333C3.24619 107.333 2.5 108.079 2.5 109V119.833C2.5 120.754 3.24619 121.5 4.16667 121.5H15.8333C16.7538 121.5 17.5 120.754 17.5 119.833V109C17.5 108.079 16.7538 107.333 15.8333 107.333H4.16667Z" fill="#707070"/>
<path d="M5 106.5C5 106.04 5.3731 105.667 5.83333 105.667C6.29357 105.667 6.66667 106.04 6.66667 106.5V107.334C6.66667 107.794 6.29357 108.167 5.83333 108.167C5.3731 108.167 5 107.794 5 107.334V106.5Z" fill="#707070"/>
<path d="M13.333 106.5C13.333 106.04 13.7061 105.667 14.1663 105.667C14.6266 105.667 14.9997 106.04 14.9997 106.5V107.334C14.9997 107.794 14.6266 108.167 14.1663 108.167C13.7061 108.167 13.333 107.794 13.333 107.334V106.5Z" fill="#707070"/>
<path fill-rule="evenodd" clip-rule="evenodd" d="M15 111.292C15 111.637 14.7202 111.917 14.375 111.917H5.625C5.27983 111.917 5 111.637 5 111.292C5 110.947 5.27983 110.667 5.625 110.667H14.375C14.7202 110.667 15 110.947 15 111.292Z" fill="#707070"/>
<path d="M30.833 109.047V119H29.5342V109.047H30.833ZM34.0322 109.047V110.127H26.3418V109.047H34.0322ZM41.6598 113.326V114.399H36.273V113.326H41.6598ZM36.4781 109.047V119H35.1588V109.047H36.4781ZM42.8082 109.047V119H41.4957V109.047H42.8082ZM50.4973 109.047H51.8098V115.78C51.8098 116.528 51.6434 117.15 51.3107 117.646C50.9781 118.143 50.536 118.517 49.9846 118.768C49.4377 119.014 48.843 119.137 48.2004 119.137C47.5259 119.137 46.9152 119.014 46.3684 118.768C45.826 118.517 45.3954 118.143 45.0764 117.646C44.7619 117.15 44.6047 116.528 44.6047 115.78V109.047H45.9104V115.78C45.9104 116.3 46.0061 116.728 46.1975 117.065C46.3889 117.403 46.6555 117.653 46.9973 117.817C47.3436 117.981 47.7447 118.063 48.2004 118.063C48.6607 118.063 49.0617 117.981 49.4035 117.817C49.7499 117.653 50.0187 117.403 50.2102 117.065C50.4016 116.728 50.4973 116.3 50.4973 115.78V109.047ZM54.4881 117.496V118.515C54.4881 118.929 54.3833 119.367 54.1736 119.827C53.964 120.292 53.6701 120.679 53.2918 120.989L52.574 120.49C52.7199 120.29 52.8429 120.085 52.9432 119.875C53.0434 119.67 53.1186 119.456 53.1688 119.232C53.2234 119.014 53.2508 118.781 53.2508 118.535V117.496H54.4881ZM59.4824 109.047H60.7607L64.0215 117.161L67.2754 109.047H68.5605L64.5137 119H63.5156L59.4824 109.047ZM59.0654 109.047H60.1934L60.3779 115.117V119H59.0654V109.047ZM67.8428 109.047H68.9707V119H67.6582V115.117L67.8428 109.047ZM74.7457 109.929L71.4508 119H70.1041L73.898 109.047H74.7662L74.7457 109.929ZM77.5074 119L74.2057 109.929L74.1852 109.047H75.0533L78.8609 119H77.5074ZM77.3365 115.315V116.396H71.7447V115.315H77.3365ZM79.8439 109.047H83.1389C83.8863 109.047 84.5174 109.161 85.0324 109.389C85.552 109.617 85.9462 109.954 86.215 110.4C86.4885 110.842 86.6252 111.387 86.6252 112.034C86.6252 112.49 86.5318 112.907 86.3449 113.285C86.1626 113.659 85.8983 113.978 85.552 114.242C85.2102 114.502 84.8 114.696 84.3215 114.823L83.9523 114.967H80.8557L80.842 113.894H83.1799C83.6538 113.894 84.048 113.812 84.3625 113.647C84.677 113.479 84.9139 113.253 85.0734 112.971C85.2329 112.688 85.3127 112.376 85.3127 112.034C85.3127 111.651 85.2375 111.316 85.0871 111.029C84.9367 110.742 84.6997 110.521 84.3762 110.366C84.0572 110.207 83.6447 110.127 83.1389 110.127H81.1633V119H79.8439V109.047ZM85.6613 119L83.2414 114.488L84.6154 114.481L87.0695 118.918V119H85.6613ZM95.0717 108.992V119H93.807V110.571L91.2572 111.501V110.359L94.8734 108.992H95.0717ZM105.167 115.65V116.689H97.9756V115.944L102.433 109.047H103.465L102.357 111.043L99.4111 115.65H105.167ZM103.779 109.047V119H102.515V109.047H103.779ZM109.273 114.017C109.273 113.802 109.339 113.622 109.471 113.477C109.603 113.326 109.797 113.251 110.052 113.251C110.307 113.251 110.501 113.326 110.633 113.477C110.77 113.622 110.838 113.802 110.838 114.017C110.838 114.226 110.77 114.404 110.633 114.55C110.501 114.691 110.307 114.762 110.052 114.762C109.797 114.762 109.603 114.691 109.471 114.55C109.339 114.404 109.273 114.226 109.273 114.017ZM117.124 114.263L116.113 114.003L116.612 109.047H121.718V110.216H117.685L117.384 112.923C117.566 112.818 117.797 112.72 118.075 112.629C118.357 112.538 118.681 112.492 119.045 112.492C119.506 112.492 119.918 112.572 120.283 112.731C120.647 112.886 120.957 113.11 121.212 113.401C121.472 113.693 121.67 114.044 121.807 114.454C121.944 114.864 122.012 115.322 122.012 115.828C122.012 116.307 121.946 116.746 121.814 117.147C121.686 117.549 121.493 117.899 121.233 118.2C120.973 118.496 120.645 118.727 120.248 118.891C119.857 119.055 119.394 119.137 118.861 119.137C118.46 119.137 118.079 119.082 117.719 118.973C117.364 118.859 117.045 118.688 116.762 118.46C116.484 118.228 116.256 117.94 116.079 117.599C115.905 117.252 115.796 116.847 115.75 116.382H116.954C117.008 116.756 117.118 117.07 117.282 117.325C117.446 117.58 117.66 117.774 117.924 117.906C118.193 118.034 118.505 118.098 118.861 118.098C119.162 118.098 119.428 118.045 119.661 117.94C119.893 117.836 120.089 117.685 120.248 117.489C120.408 117.293 120.529 117.056 120.611 116.778C120.697 116.5 120.741 116.188 120.741 115.842C120.741 115.527 120.697 115.236 120.611 114.967C120.524 114.698 120.394 114.463 120.221 114.263C120.052 114.062 119.845 113.907 119.599 113.798C119.353 113.684 119.07 113.627 118.751 113.627C118.328 113.627 118.006 113.684 117.787 113.798C117.573 113.912 117.352 114.067 117.124 114.263ZM123.132 118.33C123.132 118.116 123.198 117.936 123.33 117.79C123.467 117.64 123.663 117.564 123.918 117.564C124.173 117.564 124.367 117.64 124.499 117.79C124.636 117.936 124.704 118.116 124.704 118.33C124.704 118.54 124.636 118.717 124.499 118.863C124.367 119.009 124.173 119.082 123.918 119.082C123.663 119.082 123.467 119.009 123.33 118.863C123.198 118.717 123.132 118.54 123.132 118.33ZM123.139 112.294C123.139 112.08 123.205 111.9 123.337 111.754C123.474 111.604 123.67 111.528 123.925 111.528C124.18 111.528 124.374 111.604 124.506 111.754C124.643 111.9 124.711 112.08 124.711 112.294C124.711 112.504 124.643 112.681 124.506 112.827C124.374 112.973 124.18 113.046 123.925 113.046C123.67 113.046 123.474 112.973 123.337 112.827C123.205 112.681 123.139 112.504 123.139 112.294ZM127.936 113.401H128.838C129.281 113.401 129.645 113.328 129.932 113.183C130.224 113.032 130.44 112.829 130.582 112.574C130.727 112.314 130.8 112.023 130.8 111.699C130.8 111.316 130.737 110.995 130.609 110.735C130.481 110.476 130.29 110.28 130.035 110.147C129.78 110.015 129.456 109.949 129.064 109.949C128.709 109.949 128.394 110.02 128.121 110.161C127.852 110.298 127.64 110.494 127.485 110.749C127.335 111.004 127.259 111.305 127.259 111.651H125.995C125.995 111.146 126.122 110.685 126.378 110.271C126.633 109.856 126.99 109.525 127.451 109.279C127.916 109.033 128.453 108.91 129.064 108.91C129.666 108.91 130.192 109.017 130.643 109.231C131.094 109.441 131.445 109.756 131.696 110.175C131.947 110.59 132.072 111.107 132.072 111.727C132.072 111.977 132.013 112.246 131.894 112.533C131.78 112.816 131.6 113.08 131.354 113.326C131.113 113.572 130.798 113.775 130.411 113.935C130.023 114.09 129.559 114.167 129.016 114.167H127.936V113.401ZM127.936 114.44V113.682H129.016C129.65 113.682 130.174 113.757 130.588 113.907C131.003 114.058 131.329 114.258 131.566 114.509C131.808 114.759 131.976 115.035 132.072 115.336C132.172 115.632 132.222 115.928 132.222 116.225C132.222 116.689 132.143 117.102 131.983 117.462C131.828 117.822 131.607 118.127 131.32 118.378C131.037 118.629 130.705 118.818 130.322 118.945C129.939 119.073 129.522 119.137 129.071 119.137C128.638 119.137 128.23 119.075 127.847 118.952C127.469 118.829 127.134 118.651 126.842 118.419C126.551 118.182 126.323 117.893 126.159 117.551C125.995 117.204 125.913 116.81 125.913 116.368H127.177C127.177 116.715 127.253 117.018 127.403 117.277C127.558 117.537 127.777 117.74 128.059 117.886C128.346 118.027 128.684 118.098 129.071 118.098C129.458 118.098 129.791 118.032 130.069 117.899C130.351 117.763 130.568 117.558 130.718 117.284C130.873 117.011 130.951 116.667 130.951 116.252C130.951 115.837 130.864 115.498 130.691 115.233C130.518 114.965 130.272 114.766 129.953 114.639C129.638 114.507 129.267 114.44 128.838 114.44H127.936ZM139.863 113.23V114.748C139.863 115.564 139.791 116.252 139.645 116.812C139.499 117.373 139.289 117.824 139.016 118.166C138.742 118.508 138.412 118.756 138.025 118.911C137.642 119.062 137.209 119.137 136.726 119.137C136.343 119.137 135.99 119.089 135.666 118.993C135.343 118.897 135.051 118.745 134.791 118.535C134.536 118.321 134.317 118.043 134.135 117.701C133.953 117.359 133.814 116.945 133.718 116.457C133.622 115.969 133.574 115.4 133.574 114.748V113.23C133.574 112.415 133.647 111.731 133.793 111.18C133.944 110.628 134.155 110.186 134.429 109.854C134.702 109.516 135.03 109.275 135.413 109.129C135.801 108.983 136.234 108.91 136.712 108.91C137.099 108.91 137.455 108.958 137.779 109.054C138.107 109.145 138.398 109.293 138.654 109.498C138.909 109.699 139.125 109.967 139.303 110.305C139.485 110.637 139.624 111.045 139.72 111.528C139.816 112.011 139.863 112.579 139.863 113.23ZM138.592 114.953V113.019C138.592 112.572 138.565 112.18 138.51 111.843C138.46 111.501 138.385 111.209 138.284 110.968C138.184 110.726 138.057 110.53 137.902 110.38C137.751 110.229 137.576 110.12 137.375 110.052C137.179 109.979 136.958 109.942 136.712 109.942C136.411 109.942 136.145 109.999 135.912 110.113C135.68 110.223 135.484 110.398 135.324 110.64C135.169 110.881 135.051 111.198 134.969 111.59C134.887 111.982 134.846 112.458 134.846 113.019V114.953C134.846 115.4 134.871 115.794 134.921 116.136C134.976 116.478 135.056 116.774 135.16 117.024C135.265 117.271 135.393 117.473 135.543 117.633C135.694 117.792 135.867 117.911 136.063 117.988C136.263 118.061 136.484 118.098 136.726 118.098C137.036 118.098 137.307 118.038 137.539 117.92C137.772 117.801 137.965 117.617 138.12 117.366C138.28 117.111 138.398 116.785 138.476 116.389C138.553 115.988 138.592 115.509 138.592 114.953ZM148.262 115.097H145.603V114.023H148.262C148.777 114.023 149.194 113.941 149.513 113.777C149.832 113.613 150.065 113.385 150.21 113.094C150.361 112.802 150.436 112.469 150.436 112.096C150.436 111.754 150.361 111.433 150.21 111.132C150.065 110.831 149.832 110.59 149.513 110.407C149.194 110.22 148.777 110.127 148.262 110.127H145.911V119H144.591V109.047H148.262C149.014 109.047 149.65 109.177 150.169 109.437C150.689 109.696 151.083 110.056 151.352 110.517C151.621 110.972 151.755 111.494 151.755 112.082C151.755 112.72 151.621 113.265 151.352 113.716C151.083 114.167 150.689 114.511 150.169 114.748C149.65 114.98 149.014 115.097 148.262 115.097ZM153.49 109.047H154.769L158.029 117.161L161.283 109.047H162.568L158.521 119H157.523L153.49 109.047ZM153.073 109.047H154.201L154.386 115.117V119H153.073V109.047ZM161.851 109.047H162.979V119H161.666V115.117L161.851 109.047ZM171.739 115.097H169.08V114.023H171.739C172.254 114.023 172.671 113.941 172.99 113.777C173.309 113.613 173.542 113.385 173.688 113.094C173.838 112.802 173.913 112.469 173.913 112.096C173.913 111.754 173.838 111.433 173.688 111.132C173.542 110.831 173.309 110.59 172.99 110.407C172.671 110.22 172.254 110.127 171.739 110.127H169.388V119H168.069V109.047H171.739C172.491 109.047 173.127 109.177 173.647 109.437C174.166 109.696 174.56 110.056 174.829 110.517C175.098 110.972 175.233 111.494 175.233 112.082C175.233 112.72 175.098 113.265 174.829 113.716C174.56 114.167 174.166 114.511 173.647 114.748C173.127 114.98 172.491 115.097 171.739 115.097ZM179.244 119H177.166L177.179 117.927H179.244C179.955 117.927 180.547 117.779 181.021 117.482C181.495 117.182 181.851 116.762 182.088 116.225C182.329 115.682 182.45 115.049 182.45 114.324V113.716C182.45 113.146 182.382 112.64 182.245 112.198C182.108 111.752 181.908 111.376 181.643 111.07C181.379 110.76 181.055 110.526 180.673 110.366C180.294 110.207 179.859 110.127 179.367 110.127H177.125V109.047H179.367C180.019 109.047 180.613 109.156 181.151 109.375C181.689 109.589 182.151 109.901 182.539 110.312C182.931 110.717 183.232 111.209 183.441 111.788C183.651 112.362 183.756 113.009 183.756 113.729V114.324C183.756 115.044 183.651 115.694 183.441 116.272C183.232 116.847 182.929 117.337 182.532 117.742C182.14 118.148 181.666 118.46 181.11 118.679C180.559 118.893 179.937 119 179.244 119ZM177.87 109.047V119H176.551V109.047H177.87ZM188.874 109.047V119H187.576V109.047H188.874ZM192.074 109.047V110.127H184.383V109.047H192.074Z" fill="#212121"/>
<path fill-rule="evenodd" clip-rule="evenodd" d="M10.0003 155.084C13.9123 155.084 17.0837 151.912 17.0837 148C17.0837 144.088 13.9123 140.917 10.0003 140.917C6.08831 140.917 2.91699 144.088 2.91699 148C2.91699 151.912 6.08831 155.084 10.0003 155.084ZM10.0003 156.334C14.6027 156.334 18.3337 152.603 18.3337 148C18.3337 143.398 14.6027 139.667 10.0003 139.667C5.39795 139.667 1.66699 143.398 1.66699 148C1.66699 152.603 5.39795 156.334 10.0003 156.334Z" fill="#707070"/>
<path fill-rule="evenodd" clip-rule="evenodd" d="M15.4419 145.058C15.686 145.302 15.686 145.698 15.4419 145.942L9.65916 151.725C8.92691 152.457 7.73974 152.457 7.00751 151.725L4.55806 149.275C4.31398 149.031 4.31398 148.635 4.55806 148.391C4.80213 148.147 5.19786 148.147 5.44194 148.391L7.89139 150.841C8.13546 151.085 8.53116 151.085 8.77525 150.841L14.5581 145.058C14.8022 144.814 15.1978 144.814 15.4419 145.058Z" fill="#707070"/>
<path d="M29.0547 146.602H30.0859C30.5911 146.602 31.0078 146.518 31.3359 146.352C31.6693 146.18 31.9167 145.948 32.0781 145.656C32.2448 145.359 32.3281 145.026 32.3281 144.656C32.3281 144.219 32.2552 143.852 32.1094 143.555C31.9635 143.258 31.7448 143.034 31.4531 142.883C31.1615 142.732 30.7917 142.656 30.3438 142.656C29.9375 142.656 29.5781 142.737 29.2656 142.898C28.9583 143.055 28.7161 143.279 28.5391 143.57C28.3672 143.862 28.2812 144.206 28.2812 144.602H26.8359C26.8359 144.023 26.9818 143.497 27.2734 143.023C27.5651 142.549 27.974 142.172 28.5 141.891C29.0312 141.609 29.6458 141.469 30.3438 141.469C31.0312 141.469 31.6328 141.591 32.1484 141.836C32.6641 142.076 33.0651 142.435 33.3516 142.914C33.638 143.388 33.7812 143.979 33.7812 144.688C33.7812 144.974 33.7135 145.281 33.5781 145.609C33.4479 145.932 33.2422 146.234 32.9609 146.516C32.6849 146.797 32.3255 147.029 31.8828 147.211C31.4401 147.388 30.9089 147.477 30.2891 147.477H29.0547V146.602ZM29.0547 147.789V146.922H30.2891C31.013 146.922 31.612 147.008 32.0859 147.18C32.5599 147.352 32.9323 147.581 33.2031 147.867C33.4792 148.154 33.6719 148.469 33.7812 148.812C33.8958 149.151 33.9531 149.49 33.9531 149.828C33.9531 150.359 33.862 150.831 33.6797 151.242C33.5026 151.654 33.25 152.003 32.9219 152.289C32.599 152.576 32.2188 152.792 31.7812 152.938C31.3438 153.083 30.8672 153.156 30.3516 153.156C29.8568 153.156 29.3906 153.086 28.9531 152.945C28.5208 152.805 28.138 152.602 27.8047 152.336C27.4714 152.065 27.2109 151.734 27.0234 151.344C26.8359 150.948 26.7422 150.497 26.7422 149.992H28.1875C28.1875 150.388 28.2734 150.734 28.4453 151.031C28.6224 151.328 28.8724 151.56 29.1953 151.727C29.5234 151.888 29.9089 151.969 30.3516 151.969C30.7943 151.969 31.1745 151.893 31.4922 151.742C31.8151 151.586 32.0625 151.352 32.2344 151.039C32.4115 150.727 32.5 150.333 32.5 149.859C32.5 149.385 32.401 148.997 32.2031 148.695C32.0052 148.388 31.724 148.161 31.3594 148.016C31 147.865 30.5755 147.789 30.0859 147.789H29.0547ZM38.0547 146.602H39.0859C39.5911 146.602 40.0078 146.518 40.3359 146.352C40.6693 146.18 40.9167 145.948 41.0781 145.656C41.2448 145.359 41.3281 145.026 41.3281 144.656C41.3281 144.219 41.2552 143.852 41.1094 143.555C40.9635 143.258 40.7448 143.034 40.4531 142.883C40.1615 142.732 39.7917 142.656 39.3438 142.656C38.9375 142.656 38.5781 142.737 38.2656 142.898C37.9583 143.055 37.7161 143.279 37.5391 143.57C37.3672 143.862 37.2812 144.206 37.2812 144.602H35.8359C35.8359 144.023 35.9818 143.497 36.2734 143.023C36.5651 142.549 36.974 142.172 37.5 141.891C38.0312 141.609 38.6458 141.469 39.3438 141.469C40.0312 141.469 40.6328 141.591 41.1484 141.836C41.6641 142.076 42.0651 142.435 42.3516 142.914C42.638 143.388 42.7812 143.979 42.7812 144.688C42.7812 144.974 42.7135 145.281 42.5781 145.609C42.4479 145.932 42.2422 146.234 41.9609 146.516C41.6849 146.797 41.3255 147.029 40.8828 147.211C40.4401 147.388 39.9089 147.477 39.2891 147.477H38.0547V146.602ZM38.0547 147.789V146.922H39.2891C40.013 146.922 40.612 147.008 41.0859 147.18C41.5599 147.352 41.9323 147.581 42.2031 147.867C42.4792 148.154 42.6719 148.469 42.7812 148.812C42.8958 149.151 42.9531 149.49 42.9531 149.828C42.9531 150.359 42.862 150.831 42.6797 151.242C42.5026 151.654 42.25 152.003 41.9219 152.289C41.599 152.576 41.2188 152.792 40.7812 152.938C40.3438 153.083 39.8672 153.156 39.3516 153.156C38.8568 153.156 38.3906 153.086 37.9531 152.945C37.5208 152.805 37.138 152.602 36.8047 152.336C36.4714 152.065 36.2109 151.734 36.0234 151.344C35.8359 150.948 35.7422 150.497 35.7422 149.992H37.1875C37.1875 150.388 37.2734 150.734 37.4453 151.031C37.6224 151.328 37.8724 151.56 38.1953 151.727C38.5234 151.888 38.9089 151.969 39.3516 151.969C39.7943 151.969 40.1745 151.893 40.4922 151.742C40.8151 151.586 41.0625 151.352 41.2344 151.039C41.4115 150.727 41.5 150.333 41.5 149.859C41.5 149.385 41.401 148.997 41.2031 148.695C41.0052 148.388 40.724 148.161 40.3594 148.016C40 147.865 39.5755 147.789 39.0859 147.789H38.0547ZM54.5469 144.547H55.8594V152.82C55.8594 153.565 55.7083 154.201 55.4062 154.727C55.1042 155.253 54.6823 155.651 54.1406 155.922C53.6042 156.198 52.9844 156.336 52.2812 156.336C51.9896 156.336 51.6458 156.289 51.25 156.195C50.8594 156.107 50.474 155.953 50.0938 155.734C49.7188 155.521 49.4036 155.232 49.1484 154.867L49.9062 154.008C50.2604 154.435 50.6302 154.732 51.0156 154.898C51.4062 155.065 51.7917 155.148 52.1719 155.148C52.6302 155.148 53.026 155.062 53.3594 154.891C53.6927 154.719 53.9505 154.464 54.1328 154.125C54.3203 153.792 54.4141 153.38 54.4141 152.891V146.406L54.5469 144.547ZM48.7266 148.867V148.703C48.7266 148.057 48.8021 147.471 48.9531 146.945C49.1094 146.414 49.3307 145.958 49.6172 145.578C49.9089 145.198 50.2604 144.906 50.6719 144.703C51.0833 144.495 51.5469 144.391 52.0625 144.391C52.5938 144.391 53.0573 144.484 53.4531 144.672C53.8542 144.854 54.1927 145.122 54.4688 145.477C54.75 145.826 54.9714 146.247 55.1328 146.742C55.2943 147.237 55.4062 147.797 55.4688 148.422V149.141C55.4115 149.76 55.2995 150.318 55.1328 150.812C54.9714 151.307 54.75 151.729 54.4688 152.078C54.1927 152.427 53.8542 152.695 53.4531 152.883C53.0521 153.065 52.5833 153.156 52.0469 153.156C51.5417 153.156 51.0833 153.049 50.6719 152.836C50.2656 152.622 49.9167 152.323 49.625 151.938C49.3333 151.552 49.1094 151.099 48.9531 150.578C48.8021 150.052 48.7266 149.482 48.7266 148.867ZM50.1719 148.703V148.867C50.1719 149.289 50.2135 149.685 50.2969 150.055C50.3854 150.424 50.5182 150.75 50.6953 151.031C50.8776 151.312 51.1094 151.534 51.3906 151.695C51.6719 151.852 52.0078 151.93 52.3984 151.93C52.8776 151.93 53.2734 151.828 53.5859 151.625C53.8984 151.422 54.1458 151.154 54.3281 150.82C54.5156 150.487 54.6615 150.125 54.7656 149.734V147.852C54.7083 147.565 54.6198 147.289 54.5 147.023C54.3854 146.753 54.2344 146.513 54.0469 146.305C53.8646 146.091 53.638 145.922 53.3672 145.797C53.0964 145.672 52.7786 145.609 52.4141 145.609C52.0182 145.609 51.6771 145.693 51.3906 145.859C51.1094 146.021 50.8776 146.245 50.6953 146.531C50.5182 146.812 50.3854 147.141 50.2969 147.516C50.2135 147.885 50.1719 148.281 50.1719 148.703ZM57.6719 148.867V148.688C57.6719 148.078 57.7604 147.513 57.9375 146.992C58.1146 146.466 58.3698 146.01 58.7031 145.625C59.0365 145.234 59.4401 144.932 59.9141 144.719C60.388 144.5 60.9193 144.391 61.5078 144.391C62.1016 144.391 62.6354 144.5 63.1094 144.719C63.5885 144.932 63.9948 145.234 64.3281 145.625C64.6667 146.01 64.9245 146.466 65.1016 146.992C65.2786 147.513 65.3672 148.078 65.3672 148.688V148.867C65.3672 149.477 65.2786 150.042 65.1016 150.562C64.9245 151.083 64.6667 151.539 64.3281 151.93C63.9948 152.315 63.5911 152.617 63.1172 152.836C62.6484 153.049 62.1172 153.156 61.5234 153.156C60.9297 153.156 60.3958 153.049 59.9219 152.836C59.4479 152.617 59.0417 152.315 58.7031 151.93C58.3698 151.539 58.1146 151.083 57.9375 150.562C57.7604 150.042 57.6719 149.477 57.6719 148.867ZM59.1172 148.688V148.867C59.1172 149.289 59.1667 149.688 59.2656 150.062C59.3646 150.432 59.513 150.76 59.7109 151.047C59.9141 151.333 60.1667 151.56 60.4688 151.727C60.7708 151.888 61.1224 151.969 61.5234 151.969C61.9193 151.969 62.2656 151.888 62.5625 151.727C62.8646 151.56 63.1146 151.333 63.3125 151.047C63.5104 150.76 63.6589 150.432 63.7578 150.062C63.862 149.688 63.9141 149.289 63.9141 148.867V148.688C63.9141 148.271 63.862 147.878 63.7578 147.508C63.6589 147.133 63.5078 146.802 63.3047 146.516C63.1068 146.224 62.8568 145.995 62.5547 145.828C62.2578 145.661 61.9089 145.578 61.5078 145.578C61.112 145.578 60.763 145.661 60.4609 145.828C60.1641 145.995 59.9141 146.224 59.7109 146.516C59.513 146.802 59.3646 147.133 59.2656 147.508C59.1667 147.878 59.1172 148.271 59.1172 148.688ZM68.75 144.547V153H67.2969V144.547H68.75ZM67.1875 142.305C67.1875 142.07 67.2578 141.872 67.3984 141.711C67.5443 141.549 67.7578 141.469 68.0391 141.469C68.3151 141.469 68.526 141.549 68.6719 141.711C68.8229 141.872 68.8984 142.07 68.8984 142.305C68.8984 142.529 68.8229 142.721 68.6719 142.883C68.526 143.039 68.3151 143.117 68.0391 143.117C67.7578 143.117 67.5443 143.039 67.3984 142.883C67.2578 142.721 67.1875 142.529 67.1875 142.305ZM72.5156 146.352V153H71.0703V144.547H72.4375L72.5156 146.352ZM72.1719 148.453L71.5703 148.43C71.5755 147.852 71.6615 147.318 71.8281 146.828C71.9948 146.333 72.2292 145.904 72.5312 145.539C72.8333 145.174 73.1927 144.893 73.6094 144.695C74.0312 144.492 74.4974 144.391 75.0078 144.391C75.4245 144.391 75.7995 144.448 76.1328 144.562C76.4661 144.672 76.75 144.849 76.9844 145.094C77.224 145.339 77.4062 145.656 77.5312 146.047C77.6562 146.432 77.7188 146.904 77.7188 147.461V153H76.2656V147.445C76.2656 147.003 76.2005 146.648 76.0703 146.383C75.9401 146.112 75.75 145.917 75.5 145.797C75.25 145.672 74.9427 145.609 74.5781 145.609C74.2188 145.609 73.8906 145.685 73.5938 145.836C73.3021 145.987 73.0495 146.195 72.8359 146.461C72.6276 146.727 72.4635 147.031 72.3438 147.375C72.2292 147.714 72.1719 148.073 72.1719 148.453ZM85.3906 144.547H86.7031V152.82C86.7031 153.565 86.5521 154.201 86.25 154.727C85.9479 155.253 85.526 155.651 84.9844 155.922C84.4479 156.198 83.8281 156.336 83.125 156.336C82.8333 156.336 82.4896 156.289 82.0938 156.195C81.7031 156.107 81.3177 155.953 80.9375 155.734C80.5625 155.521 80.2474 155.232 79.9922 154.867L80.75 154.008C81.1042 154.435 81.474 154.732 81.8594 154.898C82.25 155.065 82.6354 155.148 83.0156 155.148C83.474 155.148 83.8698 155.062 84.2031 154.891C84.5365 154.719 84.7943 154.464 84.9766 154.125C85.1641 153.792 85.2578 153.38 85.2578 152.891V146.406L85.3906 144.547ZM79.5703 148.867V148.703C79.5703 148.057 79.6458 147.471 79.7969 146.945C79.9531 146.414 80.1745 145.958 80.4609 145.578C80.7526 145.198 81.1042 144.906 81.5156 144.703C81.9271 144.495 82.3906 144.391 82.9062 144.391C83.4375 144.391 83.901 144.484 84.2969 144.672C84.6979 144.854 85.0365 145.122 85.3125 145.477C85.5938 145.826 85.8151 146.247 85.9766 146.742C86.138 147.237 86.25 147.797 86.3125 148.422V149.141C86.2552 149.76 86.1432 150.318 85.9766 150.812C85.8151 151.307 85.5938 151.729 85.3125 152.078C85.0365 152.427 84.6979 152.695 84.2969 152.883C83.8958 153.065 83.4271 153.156 82.8906 153.156C82.3854 153.156 81.9271 153.049 81.5156 152.836C81.1094 152.622 80.7604 152.323 80.4688 151.938C80.1771 151.552 79.9531 151.099 79.7969 150.578C79.6458 150.052 79.5703 149.482 79.5703 148.867ZM81.0156 148.703V148.867C81.0156 149.289 81.0573 149.685 81.1406 150.055C81.2292 150.424 81.362 150.75 81.5391 151.031C81.7214 151.312 81.9531 151.534 82.2344 151.695C82.5156 151.852 82.8516 151.93 83.2422 151.93C83.7214 151.93 84.1172 151.828 84.4297 151.625C84.7422 151.422 84.9896 151.154 85.1719 150.82C85.3594 150.487 85.5052 150.125 85.6094 149.734V147.852C85.5521 147.565 85.4635 147.289 85.3438 147.023C85.2292 146.753 85.0781 146.513 84.8906 146.305C84.7083 146.091 84.4818 145.922 84.2109 145.797C83.9401 145.672 83.6224 145.609 83.2578 145.609C82.862 145.609 82.5208 145.693 82.2344 145.859C81.9531 146.021 81.7214 146.245 81.5391 146.531C81.362 146.812 81.2292 147.141 81.1406 147.516C81.0573 147.885 81.0156 148.281 81.0156 148.703Z" fill="#212121"/>
<path fill-rule="evenodd" clip-rule="evenodd" d="M123.553 143C124.17 143 124.709 142.665 124.997 142.166H126.887C127.347 142.166 127.72 142.539 127.72 143V144.771C126.282 145.141 125.22 146.447 125.22 148C125.22 149.553 126.282 150.858 127.72 151.228V153C127.72 153.46 127.347 153.833 126.887 153.833H124.997C124.709 153.335 124.17 153 123.553 153C122.936 153 122.398 153.335 122.11 153.833H113.553C113.093 153.833 112.72 153.46 112.72 153V151.228C114.158 150.858 115.22 149.553 115.22 148C115.22 146.447 114.158 145.141 112.72 144.771V143C112.72 142.539 113.093 142.166 113.553 142.166H122.11C122.398 142.665 122.936 143 123.553 143ZM126.053 148C126.053 146.619 127.173 145.5 128.553 145.5V143C128.553 142.079 127.807 141.333 126.887 141.333H124.387C124.387 141.793 124.014 142.166 123.553 142.166C123.093 142.166 122.72 141.793 122.72 141.333H113.553C112.633 141.333 111.887 142.079 111.887 143V145.5C113.267 145.5 114.387 146.619 114.387 148C114.387 149.38 113.267 150.5 111.887 150.5V153C111.887 153.92 112.633 154.666 113.553 154.666H122.72C122.72 154.206 123.093 153.833 123.553 153.833C124.014 153.833 124.387 154.206 124.387 154.666H126.887C127.807 154.666 128.553 153.92 128.553 153V150.5C127.173 150.5 126.053 149.38 126.053 148ZM123.553 145.5C124.014 145.5 124.387 145.127 124.387 144.666C124.387 144.206 124.014 143.833 123.553 143.833C123.093 143.833 122.72 144.206 122.72 144.666C122.72 145.127 123.093 145.5 123.553 145.5ZM123.553 148.833C124.014 148.833 124.387 148.46 124.387 148C124.387 147.539 124.014 147.166 123.553 147.166C123.093 147.166 122.72 147.539 122.72 148C122.72 148.46 123.093 148.833 123.553 148.833ZM124.387 151.333C124.387 151.793 124.014 152.166 123.553 152.166C123.093 152.166 122.72 151.793 122.72 151.333C122.72 150.873 123.093 150.5 123.553 150.5C124.014 150.5 124.387 150.873 124.387 151.333Z" fill="#707070"/>
<path d="M139.048 141.625V153H137.54V141.625H139.048ZM143.813 146.742V147.977H138.72V146.742H143.813ZM144.587 141.625V142.859H138.72V141.625H144.587ZM147.407 145.875V153H145.962V144.547H147.368L147.407 145.875ZM150.048 144.5L150.04 145.844C149.92 145.818 149.806 145.802 149.696 145.797C149.592 145.786 149.472 145.781 149.337 145.781C149.004 145.781 148.709 145.833 148.454 145.938C148.199 146.042 147.983 146.188 147.806 146.375C147.629 146.562 147.488 146.786 147.384 147.047C147.285 147.302 147.22 147.583 147.188 147.891L146.782 148.125C146.782 147.615 146.832 147.135 146.931 146.688C147.035 146.24 147.194 145.844 147.407 145.5C147.621 145.151 147.892 144.88 148.22 144.688C148.553 144.49 148.949 144.391 149.407 144.391C149.511 144.391 149.631 144.404 149.767 144.43C149.902 144.451 149.996 144.474 150.048 144.5ZM154.735 153.156C154.147 153.156 153.613 153.057 153.134 152.859C152.66 152.656 152.251 152.372 151.907 152.008C151.569 151.643 151.308 151.211 151.126 150.711C150.944 150.211 150.853 149.664 150.853 149.07V148.742C150.853 148.055 150.954 147.443 151.157 146.906C151.36 146.365 151.636 145.906 151.985 145.531C152.334 145.156 152.73 144.872 153.173 144.68C153.616 144.487 154.074 144.391 154.548 144.391C155.152 144.391 155.673 144.495 156.11 144.703C156.553 144.911 156.915 145.203 157.196 145.578C157.478 145.948 157.686 146.385 157.821 146.891C157.957 147.391 158.024 147.938 158.024 148.531V149.18H151.712V148H156.579V147.891C156.558 147.516 156.48 147.151 156.345 146.797C156.215 146.443 156.006 146.151 155.72 145.922C155.433 145.693 155.043 145.578 154.548 145.578C154.22 145.578 153.918 145.648 153.642 145.789C153.366 145.924 153.129 146.128 152.931 146.398C152.733 146.669 152.579 147 152.47 147.391C152.36 147.781 152.306 148.232 152.306 148.742V149.07C152.306 149.471 152.36 149.849 152.47 150.203C152.584 150.552 152.748 150.859 152.962 151.125C153.181 151.391 153.444 151.599 153.751 151.75C154.063 151.901 154.418 151.977 154.813 151.977C155.324 151.977 155.756 151.872 156.11 151.664C156.465 151.456 156.774 151.177 157.04 150.828L157.915 151.523C157.733 151.799 157.501 152.062 157.22 152.312C156.938 152.562 156.592 152.766 156.181 152.922C155.774 153.078 155.293 153.156 154.735 153.156ZM163.22 153.156C162.631 153.156 162.097 153.057 161.618 152.859C161.144 152.656 160.735 152.372 160.392 152.008C160.053 151.643 159.793 151.211 159.61 150.711C159.428 150.211 159.337 149.664 159.337 149.07V148.742C159.337 148.055 159.438 147.443 159.642 146.906C159.845 146.365 160.121 145.906 160.47 145.531C160.819 145.156 161.215 144.872 161.657 144.68C162.1 144.487 162.558 144.391 163.032 144.391C163.636 144.391 164.157 144.495 164.595 144.703C165.037 144.911 165.399 145.203 165.681 145.578C165.962 145.948 166.17 146.385 166.306 146.891C166.441 147.391 166.509 147.938 166.509 148.531V149.18H160.196V148H165.063V147.891C165.043 147.516 164.965 147.151 164.829 146.797C164.699 146.443 164.491 146.151 164.204 145.922C163.918 145.693 163.527 145.578 163.032 145.578C162.704 145.578 162.402 145.648 162.126 145.789C161.85 145.924 161.613 146.128 161.415 146.398C161.217 146.669 161.063 147 160.954 147.391C160.845 147.781 160.79 148.232 160.79 148.742V149.07C160.79 149.471 160.845 149.849 160.954 150.203C161.069 150.552 161.233 150.859 161.446 151.125C161.665 151.391 161.928 151.599 162.235 151.75C162.548 151.901 162.902 151.977 163.298 151.977C163.808 151.977 164.241 151.872 164.595 151.664C164.949 151.456 165.259 151.177 165.524 150.828L166.399 151.523C166.217 151.799 165.985 152.062 165.704 152.312C165.423 152.562 165.076 152.766 164.665 152.922C164.259 153.078 163.777 153.156 163.22 153.156Z" fill="#212121"/>
</svg>
